999
dxfrw 0.6.3
  0
SECTION
  2
HEADER
  9
$ACADVER
  1
AC1021
  9
$DWGCODEPAGE
  3
ANSI_1251
  9
$INSBASE
 10
0
 20
0
 30
0
  9
$EXTMIN
 10
-37680.22908107215
 20
14102.33064626307
 30
0
  9
$EXTMAX
 10
-36980.7838582272
 20
14561.0346684156
 30
0
  9
$LIMMIN
 10
0
 20
0
  9
$LIMMAX
 10
420
 20
297
  9
$ORTHOMODE
 70
    0
  9
$REGENMODE
 70
    1
  9
$FILLMODE
 70
    1
  9
$QTEXTMODE
 70
    0
  9
$MIRRTEXT
 70
    0
  9
$LTSCALE
 40
1
  9
$ATTMODE
 70
    1
  9
$TEXTSIZE
 40
2.5
  9
$TRACEWID
 40
1
  9
$TEXTSTYLE
  7
Standard
  9
$CLAYER
  8
0
  9
$CELTYPE
  6
ByLayer
  9
$CECOLOR
 62
    1
  9
$CELTSCALE
 40
1
  9
$DISPSILH
 70
    0
  9
$DIMSCALE
 40
1
  9
$DIMASZ
 40
2.5
  9
$DIMEXO
 40
0.625
  9
$DIMDLI
 40
3.75
  9
$DIMRND
 40
0
  9
$DIMDLE
 40
0
  9
$DIMEXE
 40
1.25
  9
$DIMTP
 40
0
  9
$DIMTM
 40
0
  9
$DIMTXT
 40
2.5
  9
$DIMCEN
 40
2.5
  9
$DIMTSZ
 40
0
  9
$DIMTOL
 70
    0
  9
$DIMLIM
 70
    0
  9
$DIMTIH
 70
    0
  9
$DIMTOH
 70
    0
  9
$DIMSE1
 70
    0
  9
$DIMSE2
 70
    0
  9
$DIMTAD
 70
    1
  9
$DIMZIN
 70
    8
  9
$DIMBLK
  1

  9
$DIMASO
 70
    1
  9
$DIMSHO
 70
    1
  9
$DIMPOST
  1

  9
$DIMAPOST
  1

  9
$DIMALT
 70
    0
  9
$DIMALTD
 70
    3
  9
$DIMALTF
 40
0.03937007874016
  9
$DIMLFAC
 40
1
  9
$DIMTOFL
 70
    1
  9
$DIMTVP
 40
0
  9
$DIMTIX
 70
    0
  9
$DIMSOXD
 70
    0
  9
$DIMSAH
 70
    0
  9
$DIMBLK1
  1

  9
$DIMBLK2
  1

  9
$DIMSTYLE
  2
ISO-25
  9
$DIMCLRD
 70
    0
  9
$DIMCLRE
 70
    0
  9
$DIMCLRT
 70
    0
  9
$DIMTFAC
 40
1
  9
$DIMGAP
 40
0.625
  9
$DIMJUST
 70
    0
  9
$DIMSD1
 70
    0
  9
$DIMSD2
 70
    0
  9
$DIMTOLJ
 70
    0
  9
$DIMTZIN
 70
    8
  9
$DIMALTZ
 70
    0
  9
$DIMALTTZ
 70
    0
  9
$DIMUPT
 70
    0
  9
$DIMDEC
 70
    2
  9
$DIMTDEC
 70
    2
  9
$DIMALTU
 70
    2
  9
$DIMALTTD
 70
    3
  9
$DIMTXSTY
  7
Standard
  9
$DIMAUNIT
 70
    0
  9
$DIMADEC
 70
    0
  9
$DIMALTRND
 40
0
  9
$DIMAZIN
 70
    0
  9
$DIMDSEP
 70
   44
  9
$DIMATFIT
 70
    3
  9
$DIMFRAC
 70
    0
  9
$DIMLDRBLK
  1

  9
$DIMLUNIT
 70
    2
  9
$DIMLWD
 70
   -2
  9
$DIMLWE
 70
   -2
  9
$DIMTMOVE
 70
    0
  9
$DIMFXL
 40
1
  9
$DIMFXLON
 70
    0
  9
$DIMJOGANG
 40
0.7853981633974483
  9
$DIMTFILL
 70
    0
  9
$DIMTFILLCLR
 70
    0
  9
$DIMARCSYM
 70
    0
  9
$DIMLTYPE
  6

  9
$DIMLTEX1
  6

  9
$DIMLTEX2
  6

  9
$LUNITS
 70
    2
  9
$LUPREC
 70
    4
  9
$SKETCHINC
 40
1
  9
$FILLETRAD
 40
2
  9
$AUNITS
 70
    0
  9
$AUPREC
 70
    0
  9
$MENU
  1
.
  9
$ELEVATION
 40
0
  9
$PELEVATION
 40
0
  9
$THICKNESS
 40
0
  9
$LIMCHECK
 70
    0
  9
$CHAMFERA
 40
0
  9
$CHAMFERB
 40
0
  9
$CHAMFERC
 40
0
  9
$CHAMFERD
 40
0
  9
$SKPOLY
 70
    0
  9
$USRTIMER
 70
    1
  9
$ANGBASE
 50
0
  9
$ANGDIR
 70
    0
  9
$PDMODE
 70
    0
  9
$PDSIZE
 40
0
  9
$PLINEWID
 40
0
  9
$SPLFRAME
 70
    0
  9
$SPLINETYPE
 70
    6
  9
$SPLINESEGS
 70
    8
  9
$HANDSEED
  5
20000
  9
$SURFTAB1
 70
    6
  9
$SURFTAB2
 70
    6
  9
$SURFTYPE
 70
    6
  9
$SURFU
 70
    6
  9
$SURFV
 70
    6
  9
$UCSBASE
  2

  9
$UCSNAME
  2

  9
$UCSORG
 10
0
 20
0
 30
0
  9
$UCSXDIR
 10
1
 20
0
 30
0
  9
$UCSYDIR
 10
0
 20
1
 30
0
  9
$UCSORTHOREF
  2

  9
$UCSORTHOVIEW
 70
    0
  9
$UCSORGTOP
 10
0
 20
0
 30
0
  9
$UCSORGBOTTOM
 10
0
 20
0
 30
0
  9
$UCSORGLEFT
 10
0
 20
0
 30
0
  9
$UCSORGRIGHT
 10
0
 20
0
 30
0
  9
$UCSORGFRONT
 10
0
 20
0
 30
0
  9
$UCSORGBACK
 10
0
 20
0
 30
0
  9
$PUCSBASE
  2

  9
$PUCSNAME
  2

  9
$PUCSORG
 10
0
 20
0
 30
0
  9
$PUCSXDIR
 10
1
 20
0
 30
0
  9
$PUCSYDIR
 10
0
 20
1
 30
0
  9
$PUCSORTHOREF
  2

  9
$PUCSORTHOVIEW
 70
    0
  9
$PUCSORGTOP
 10
0
 20
0
 30
0
  9
$PUCSORGBOTTOM
 10
0
 20
0
 30
0
  9
$PUCSORGLEFT
 10
0
 20
0
 30
0
  9
$PUCSORGRIGHT
 10
0
 20
0
 30
0
  9
$PUCSORGFRONT
 10
0
 20
0
 30
0
  9
$PUCSORGBACK
 10
0
 20
0
 30
0
  9
$USERI1
 70
    0
  9
$USERI2
 70
    0
  9
$USERI3
 70
    0
  9
$USERI4
 70
    0
  9
$USERI5
 70
    0
  9
$USERR1
 40
0
  9
$USERR2
 40
0
  9
$USERR3
 40
0
  9
$USERR4
 40
0
  9
$USERR5
 40
0
  9
$WORLDVIEW
 70
    1
  9
$SHADEDGE
 70
    3
  9
$SHADEDIF
 70
   70
  9
$TILEMODE
 70
    1
  9
$MAXACTVP
 70
   64
  9
$PINSBASE
 10
0
 20
0
 30
0
  9
$PLIMCHECK
 70
    0
  9
$PEXTMIN
 10
0
 20
0
 30
0
  9
$PEXTMAX
 10
0
 20
0
 30
0
  9
$GRIDMODE
 70
    1
  9
$SNAPSTYLE
 70
    0
  9
$PLIMMIN
 10
0
 20
0
  9
$PLIMMAX
 10
12
 20
9
  9
$UNITMODE
 70
    0
  9
$VISRETAIN
 70
    1
  9
$PLINEGEN
 70
    0
  9
$PSLTSCALE
 70
    1
  9
$TREEDEPTH
 70
 3020
  9
$CMLSTYLE
  2
Standard
  9
$CMLJUST
 70
    0
  9
$CMLSCALE
 40
20
  9
$PROXYGRAPHICS
 70
    1
  9
$MEASUREMENT
 70
    1
  9
$CELWEIGHT
370
   -1
  9
$ENDCAPS
280
    0
  9
$JOINSTYLE
280
    0
  9
$LWDISPLAY
290
    0
  9
$INSUNITS
 70
    4
  9
$HYPERLINKBASE
  1

  9
$STYLESHEET
  1

  9
$XEDIT
290
    1
  9
$CEPSNTYPE
380
    0
  9
$PSTYLEMODE
290
    1
  9
$EXTNAMES
290
    1
  9
$PSVPSCALE
 40
0
  9
$OLESTARTUP
290
    0
  9
$SORTENTS
280
  127
  9
$INDEXCTL
280
    0
  9
$HIDETEXT
280
    1
  9
$XCLIPFRAME
290
    2
  9
$HALOGAP
280
    0
  9
$OBSCOLOR
 70
  257
  9
$OBSLTYPE
280
    0
  9
$INTERSECTIONDISPLAY
280
    0
  9
$INTERSECTIONCOLOR
 70
  257
  9
$DIMASSOC
280
    2
  9
$PROJECTNAME
  1

  9
$CAMERADISPLAY
290
    0
  9
$LENSLENGTH
 40
50
  9
$CAMERAHEIGHT
 40
0
  9
$STEPSPERSEC
 40
2
  9
$STEPSIZE
 40
6
  9
$3DDWFPREC
 40
2
  9
$PSOLWIDTH
 40
5
  9
$PSOLHEIGHT
 40
80
  9
$LOFTANG1
 40
1.570796326794896
  9
$LOFTANG2
 40
1.570796326794896
  9
$LOFTMAG1
 40
0
  9
$LOFTMAG2
 40
0
  9
$LOFTPARAM
 70
    7
  9
$LOFTNORMALS
280
    1
  9
$LATITUDE
 40
37.795
  9
$LONGITUDE
 40
-122.394
  9
$NORTHDIRECTION
 40
0
  9
$TIMEZONE
 70
-8000
  9
$LIGHTGLYPHDISPLAY
280
    1
  9
$TILEMODELIGHTSYNCH
280
    1
  9
$SOLIDHIST
280
    0
  9
$SHOWHIST
280
    1
  9
$DWFFRAME
280
    2
  9
$DGNFRAME
280
    0
  9
$REALWORLDSCALE
290
    1
  9
$INTERFERECOLOR
 62
    1
  9
$CSHADOW
280
    0
  9
$SHADOWPLANELOCATION
 40
0
  0
ENDSEC
  0
SECTION
  2
CLASSES
  0
ENDSEC
  0
SECTION
  2
TABLES
  0
TABLE
  2
VPORT
  5
8
330
0
100
AcDbSymbolTable
 70
    1
  0
VPORT
  5
31
330
2
100
AcDbSymbolTableRecord
100
AcDbViewportTableRecord
  2
*ACTIVE
 70
    0
 10
0
 20
0
 11
1
 21
1
 12
70.57988203634321
 22
136.0832528357337
 13
0
 23
0
 14
10
 24
10
 15
10
 25
10
 16
0
 26
0
 36
1
 17
0
 27
0
 37
0
 40
403.8282809782422
 41
1.576642335766423
 42
50
 43
0
 44
0
 50
0
 51
0
 71
    0
 72
  100
 73
    1
 74
    3
 75
    0
 76
    1
 77
    0
 78
    0
281
    0
 65
    1
110
0
120
0
130
0
111
1
121
0
131
0
112
0
122
1
132
0
 79
    0
146
0
348
10020
 60
    7
 61
    5
292
1
282
    1
141
0
142
0
 63
  250
421
3358443
  0
ENDTAB
  0
TABLE
  2
LTYPE
  5
5
330
0
100
AcDbSymbolTable
 70
    4
  0
LTYPE
  5
14
330
5
100
AcDbSymbolTableRecord
100
AcDbLinetypeTableRecord
  2
ByBlock
 70
    0
  3

 72
   65
 73
    0
 40
0
  0
LTYPE
  5
15
330
5
100
AcDbSymbolTableRecord
100
AcDbLinetypeTableRecord
  2
ByLayer
 70
    0
  3

 72
   65
 73
    0
 40
0
  0
LTYPE
  5
16
330
5
100
AcDbSymbolTableRecord
100
AcDbLinetypeTableRecord
  2
Continuous
 70
    0
  3
Solid line
 72
   65
 73
    0
 40
0
  0
LTYPE
  5
32
330
5
100
AcDbSymbolTableRecord
100
AcDbLinetypeTableRecord
  2
DOT
 70
    0
  3
Dot . . . . . . . . . . . . . . . . . . . . . .
 72
   65
 73
    2
 40
6.35
 49
0
 74
    0
 49
-6.35
 74
    0
  0
LTYPE
  5
33
330
5
100
AcDbSymbolTableRecord
100
AcDbLinetypeTableRecord
  2
DOTTINY
 70
    0
  3
Dot (.15x) .....................................
 72
   65
 73
    2
 40
0.9525
 49
0
 74
    0
 49
-0.9525
 74
    0
  0
LTYPE
  5
34
330
5
100
AcDbSymbolTableRecord
100
AcDbLinetypeTableRecord
  2
DOT2
 70
    0
  3
Dot (.5x) .....................................
 72
   65
 73
    2
 40
3.175
 49
0
 74
    0
 49
-3.175
 74
    0
  0
LTYPE
  5
35
330
5
100
AcDbSymbolTableRecord
100
AcDbLinetypeTableRecord
  2
DOTX2
 70
    0
  3
Dot (2x) .  .  .  .  .  .  .  .  .  .  .  .  .
 72
   65
 73
    2
 40
12.7
 49
0
 74
    0
 49
-12.7
 74
    0
  0
LTYPE
  5
36
330
5
100
AcDbSymbolTableRecord
100
AcDbLinetypeTableRecord
  2
DASHED
 70
    0
  3
Dashed _ _ _ _ _ _ _ _ _ _ _ _ _ _ _ _ _
 72
   65
 73
    2
 40
19.05
 49
12.7
 74
    0
 49
-6.35
 74
    0
  0
LTYPE
  5
37
330
5
100
AcDbSymbolTableRecord
100
AcDbLinetypeTableRecord
  2
DASHEDTINY
 70
    0
  3
Dashed (.15x) _ _ _ _ _ _ _ _ _ _ _ _ _ _ _ _ _
 72
   65
 73
    2
 40
2.8575
 49
1.905
 74
    0
 49
-0.9525
 74
    0
  0
LTYPE
  5
38
330
5
100
AcDbSymbolTableRecord
100
AcDbLinetypeTableRecord
  2
DASHED2
 70
    0
  3
Dashed (.5x) _ _ _ _ _ _ _ _ _ _ _ _ _ _ _ _ _
 72
   65
 73
    2
 40
9.524999999999999
 49
6.35
 74
    0
 49
-3.175
 74
    0
  0
LTYPE
  5
39
330
5
100
AcDbSymbolTableRecord
100
AcDbLinetypeTableRecord
  2
DASHEDX2
 70
    0
  3
Dashed (2x) ____  ____  ____  ____  ____  ___
 72
   65
 73
    2
 40
38.09999999999999
 49
25.4
 74
    0
 49
-12.7
 74
    0
  0
LTYPE
  5
3A
330
5
100
AcDbSymbolTableRecord
100
AcDbLinetypeTableRecord
  2
DASHDOT
 70
    0
  3
Dash dot __ . __ . __ . __ . __ . __ . __ . __
 72
   65
 73
    4
 40
25.4
 49
12.7
 74
    0
 49
-6.35
 74
    0
 49
0
 74
    0
 49
-6.35
 74
    0
  0
LTYPE
  5
3B
330
5
100
AcDbSymbolTableRecord
100
AcDbLinetypeTableRecord
  2
DASHDOTTINY
 70
    0
  3
Dash dot (.15x) _._._._._._._._._._._._._._._.
 72
   65
 73
    4
 40
3.81
 49
1.905
 74
    0
 49
-0.9525
 74
    0
 49
0
 74
    0
 49
-0.9525
 74
    0
  0
LTYPE
  5
3C
330
5
100
AcDbSymbolTableRecord
100
AcDbLinetypeTableRecord
  2
DASHDOT2
 70
    0
  3
Dash dot (.5x) _._._._._._._._._._._._._._._.
 72
   65
 73
    4
 40
12.7
 49
6.35
 74
    0
 49
-3.175
 74
    0
 49
0
 74
    0
 49
-3.175
 74
    0
  0
LTYPE
  5
3D
330
5
100
AcDbSymbolTableRecord
100
AcDbLinetypeTableRecord
  2
DASHDOTX2
 70
    0
  3
Dash dot (2x) ____  .  ____  .  ____  .  ___
 72
   65
 73
    4
 40
50.8
 49
25.4
 74
    0
 49
-12.7
 74
    0
 49
0
 74
    0
 49
-12.7
 74
    0
  0
LTYPE
  5
3E
330
5
100
AcDbSymbolTableRecord
100
AcDbLinetypeTableRecord
  2
DIVIDE
 70
    0
  3
Divide ____ . . ____ . . ____ . . ____ . . ____
 72
   65
 73
    6
 40
31.75
 49
12.7
 74
    0
 49
-6.35
 74
    0
 49
0
 74
    0
 49
-6.35
 74
    0
 49
0
 74
    0
 49
-6.35
 74
    0
  0
LTYPE
  5
3F
330
5
100
AcDbSymbolTableRecord
100
AcDbLinetypeTableRecord
  2
DIVIDETINY
 70
    0
  3
Divide (.15x) __..__..__..__..__..__..__..__.._
 72
   65
 73
    6
 40
4.7625
 49
1.905
 74
    0
 49
-0.9525
 74
    0
 49
0
 74
    0
 49
-0.9525
 74
    0
 49
0
 74
    0
 49
-0.9525
 74
    0
  0
LTYPE
  5
40
330
5
100
AcDbSymbolTableRecord
100
AcDbLinetypeTableRecord
  2
DIVIDE2
 70
    0
  3
Divide (.5x) __..__..__..__..__..__..__..__.._
 72
   65
 73
    6
 40
15.875
 49
6.35
 74
    0
 49
-3.175
 74
    0
 49
0
 74
    0
 49
-3.175
 74
    0
 49
0
 74
    0
 49
-3.175
 74
    0
  0
LTYPE
  5
41
330
5
100
AcDbSymbolTableRecord
100
AcDbLinetypeTableRecord
  2
DIVIDEX2
 70
    0
  3
Divide (2x) ________  .  .  ________  .  .  _
 72
   65
 73
    6
 40
63.5
 49
25.4
 74
    0
 49
-12.7
 74
    0
 49
0
 74
    0
 49
-12.7
 74
    0
 49
0
 74
    0
 49
-12.7
 74
    0
  0
LTYPE
  5
42
330
5
100
AcDbSymbolTableRecord
100
AcDbLinetypeTableRecord
  2
BORDER
 70
    0
  3
Border __ __ . __ __ . __ __ . __ __ . __ __ .
 72
   65
 73
    6
 40
44.45
 49
12.7
 74
    0
 49
-6.35
 74
    0
 49
12.7
 74
    0
 49
-6.35
 74
    0
 49
0
 74
    0
 49
-6.35
 74
    0
  0
LTYPE
  5
43
330
5
100
AcDbSymbolTableRecord
100
AcDbLinetypeTableRecord
  2
BORDERTINY
 70
    0
  3
Border (.15x) __.__.__.__.__.__.__.__.__.__.__.
 72
   65
 73
    6
 40
6.6675
 49
1.905
 74
    0
 49
-0.9525
 74
    0
 49
1.905
 74
    0
 49
-0.9525
 74
    0
 49
0
 74
    0
 49
-0.9525
 74
    0
  0
LTYPE
  5
44
330
5
100
AcDbSymbolTableRecord
100
AcDbLinetypeTableRecord
  2
BORDER2
 70
    0
  3
Border (.5x) __.__.__.__.__.__.__.__.__.__.__.
 72
   65
 73
    6
 40
22.225
 49
6.35
 74
    0
 49
-3.175
 74
    0
 49
6.35
 74
    0
 49
-3.175
 74
    0
 49
0
 74
    0
 49
-3.175
 74
    0
  0
LTYPE
  5
45
330
5
100
AcDbSymbolTableRecord
100
AcDbLinetypeTableRecord
  2
BORDERX2
 70
    0
  3
Border (2x) ____  ____  .  ____  ____  .  ___
 72
   65
 73
    6
 40
88.89999999999999
 49
25.4
 74
    0
 49
-12.7
 74
    0
 49
25.4
 74
    0
 49
-12.7
 74
    0
 49
0
 74
    0
 49
-12.7
 74
    0
  0
LTYPE
  5
46
330
5
100
AcDbSymbolTableRecord
100
AcDbLinetypeTableRecord
  2
CENTER
 70
    0
  3
Center ____ _ ____ _ ____ _ ____ _ ____ _ ____
 72
   65
 73
    4
 40
50.8
 49
31.75
 74
    0
 49
-6.35
 74
    0
 49
6.35
 74
    0
 49
-6.35
 74
    0
  0
LTYPE
  5
47
330
5
100
AcDbSymbolTableRecord
100
AcDbLinetypeTableRecord
  2
CENTERTINY
 70
    0
  3
Center (.15x) ___ _ ___ _ ___ _ ___ _ ___ _ ___
 72
   65
 73
    4
 40
7.619999999999999
 49
4.7625
 74
    0
 49
-0.9525
 74
    0
 49
0.9525
 74
    0
 49
-0.9525
 74
    0
  0
LTYPE
  5
48
330
5
100
AcDbSymbolTableRecord
100
AcDbLinetypeTableRecord
  2
CENTER2
 70
    0
  3
Center (.5x) ___ _ ___ _ ___ _ ___ _ ___ _ ___
 72
   65
 73
    4
 40
28.575
 49
19.05
 74
    0
 49
-3.175
 74
    0
 49
3.175
 74
    0
 49
-3.175
 74
    0
  0
LTYPE
  5
49
330
5
100
AcDbSymbolTableRecord
100
AcDbLinetypeTableRecord
  2
CENTERX2
 70
    0
  3
Center (2x) ________  __  ________  __  _____
 72
   65
 73
    4
 40
101.6
 49
63.5
 74
    0
 49
-12.7
 74
    0
 49
12.7
 74
    0
 49
-12.7
 74
    0
  0
ENDTAB
  0
TABLE
  2
LAYER
  5
2
330
0
100
AcDbSymbolTable
 70
    1
  0
LAYER
  5
10
330
2
100
AcDbSymbolTableRecord
100
AcDbLayerTableRecord
  2
0
 70
    0
 62
    7
  6
CONTINUOUS
370
   -3
390
F
  0
ENDTAB
  0
TABLE
  2
STYLE
  5
3
330
0
100
AcDbSymbolTable
 70
    3
  0
STYLE
  5
4A
330
2
100
AcDbSymbolTableRecord
100
AcDbTextStyleTableRecord
  2
Standard
 70
    0
 40
0
 41
1
 50
0
 71
    0
 42
1
  3
txt
  4

  0
ENDTAB
  0
TABLE
  2
VIEW
  5
6
330
0
100
AcDbSymbolTable
 70
    0
  0
ENDTAB
  0
TABLE
  2
UCS
  5
7
330
0
100
AcDbSymbolTable
 70
    0
  0
ENDTAB
  0
TABLE
  2
APPID
  5
9
330
0
100
AcDbSymbolTable
 70
    1
  0
APPID
  5
12
330
9
100
AcDbSymbolTableRecord
100
AcDbRegAppTableRecord
  2
ACAD
 70
    0
  0
APPID
  5
4B
330
9
100
AcDbSymbolTableRecord
100
AcDbRegAppTableRecord
  2
LibreCad
 70
    0
  0
ENDTAB
  0
TABLE
  2
DIMSTYLE
  5
A
330
0
100
AcDbSymbolTable
 70
    1
100
AcDbDimStyleTable
 71
    1
  0
DIMSTYLE
105
4C
330
A
100
AcDbSymbolTableRecord
100
AcDbDimStyleTableRecord
  2
Standard
 70
    0
 40
1
 41
2.5
 42
0.625
 43
0.38
 44
1.25
 45
0
 46
0
 47
0
 48
0
 49
1
140
2.5
141
0.09
142
0
143
25.4
144
1
145
0
146
1
147
0.625
148
0
 71
    0
 72
    0
 73
    0
 74
    1
 75
    0
 76
    0
 77
    0
 78
    8
 79
    0
170
    0
171
    2
172
    0
173
    0
174
    0
175
    0
176
    0
177
    0
178
    0
179
    0
271
    2
272
    4
273
    2
274
    2
275
    0
276
    0
277
    2
278
   44
279
    0
280
    0
281
    0
282
    0
283
    1
284
    0
285
    0
286
    0
288
    0
289
    3
340
4A
  0
ENDTAB
  0
TABLE
  2
BLOCK_RECORD
  5
1
330
0
100
AcDbSymbolTable
 70
    2
  0
BLOCK_RECORD
  5
1F
330
1
100
AcDbSymbolTableRecord
100
AcDbBlockTableRecord
  2
*Model_Space
 70
    0
280
    1
281
    0
  0
BLOCK_RECORD
  5
1E
330
1
100
AcDbSymbolTableRecord
100
AcDbBlockTableRecord
  2
*Paper_Space
 70
    0
280
    1
281
    0
  0
ENDTAB
  0
ENDSEC
  0
SECTION
  2
BLOCKS
  0
BLOCK
  5
20
330
1F
100
AcDbEntity
  8
0
100
AcDbBlockBegin
  2
*Model_Space
 70
    0
 10
0
 20
0
 30
0
  3
*Model_Space
  1

  0
ENDBLK
  5
21
330
1F
100
AcDbEntity
  8
0
100
AcDbBlockEnd
  0
BLOCK
  5
1C
330
1B
100
AcDbEntity
  8
0
100
AcDbBlockBegin
  2
*Paper_Space
 70
    0
 10
0
 20
0
 30
0
  3
*Paper_Space
  1

  0
ENDBLK
  5
1D
330
1F
100
AcDbEntity
  8
0
100
AcDbBlockEnd
  0
ENDSEC
  0
SECTION
  2
ENTITIES
  0
LINE
  5
4D
100
AcDbEntity
  8
0
  6
ByLayer
 62
    1
370
   -1
100
AcDbLine
 10
-36980.7838582272
 20
14151.56625147976
 11
-37070.58106998628
 21
14176.8381015356
  0
LINE
  5
4E
100
AcDbEntity
  8
0
  6
ByLayer
 62
    1
370
   -1
100
AcDbLine
 10
-37055.13829703571
 20
14160.54907118933
 11
-37016.5687317073
 21
14151.56625147976
  0
LINE
  5
4F
100
AcDbEntity
  8
0
  6
ByLayer
 62
    1
370
   -1
100
AcDbLine
 10
-37070.85375330673
 20
14160.80185669644
 11
-37091.91887283624
 21
14160.80185669644
  0
ARC
  5
50
100
AcDbEntity
  8
0
  6
ByLayer
 62
    1
370
   -1
100
AcDbCircle
 10
-37075.47317861893
 20
14168.90084707123
 40
9.32377258977608
100
AcDbArc
 50
299.6991606862936
 51
58.35249068124318
  0
ARC
  5
51
100
AcDbEntity
  8
0
  6
ByLayer
 62
    1
370
   -1
100
AcDbCircle
 10
-37106.15219276538
 20
14152.95070928945
 40
16.25508879740652
100
AcDbArc
 50
28.88127727963398
 51
84.72462066045691
  0
ARC
  5
52
100
AcDbEntity
  8
0
  6
ByLayer
 62
    1
370
   -1
100
AcDbCircle
 10
-37109.44519187308
 20
14164.72550652779
 40
6.510092316966817
100
AcDbArc
 50
322.9362937537408
 51
42.65879120795612
  0
ARC
  5
53
100
AcDbEntity
  8
0
  6
ByLayer
 62
    1
370
   -1
100
AcDbCircle
 10
-37056.98640116884
 20
14155.48005936203
 40
5.395402653393118
100
AcDbArc
 50
69.96871889425069
 51
120.863557255126
  0
ARC
  5
54
100
AcDbEntity
  8
0
  6
ByLayer
 62
    1
370
   -1
100
AcDbCircle
 10
-37050.71012186082
 20
14151.41400014532
 40
12.54754538887598
100
AcDbArc
 50
136.1194180942045
 51
179.3047586046976
  0
LINE
  5
55
100
AcDbEntity
  8
0
  6
ByLayer
 62
    1
370
   -1
100
AcDbLine
 10
-37104.25036040551
 20
14160.80185669644
 11
-37169.71458327661
 21
14160.80185669644
  0
LINE
  5
56
100
AcDbEntity
  8
0
  6
ByLayer
 62
    1
370
   -1
100
AcDbLine
 10
-36980.7838582272
 20
14151.56625147976
 11
-37070.58106998628
 21
14126.29440142392
  0
LINE
  5
57
100
AcDbEntity
  8
0
  6
ByLayer
 62
    1
370
   -1
100
AcDbLine
 10
-37055.13829703571
 20
14142.58343177018
 11
-37016.5687317073
 21
14151.56625147976
  0
LINE
  5
58
100
AcDbEntity
  8
0
  6
ByLayer
 62
    1
370
   -1
100
AcDbLine
 10
-37070.85375330673
 20
14142.33064626307
 11
-37091.91887283624
 21
14142.33064626307
  0
LINE
  5
59
100
AcDbEntity
  8
0
  6
ByLayer
 62
    1
370
   -1
100
AcDbLine
 10
-37104.25036040551
 20
14142.33064626307
 11
-37187.73114758037
 21
14142.33064626307
  0
ARC
  5
5A
100
AcDbEntity
  8
0
  6
ByLayer
 62
    1
370
   -1
100
AcDbCircle
 10
-37075.47317861893
 20
14134.23165588829
 40
9.32377258977608
100
AcDbArc
 50
301.6475093187657
 51
60.30083931375419
  0
ARC
  5
5B
100
AcDbEntity
  8
0
  6
ByLayer
 62
    1
370
   -1
100
AcDbCircle
 10
-37106.15219276538
 20
14150.18179367006
 40
16.25508879740652
100
AcDbArc
 50
275.2753793395387
 51
331.1187227202868
  0
ARC
  5
5C
100
AcDbEntity
  8
0
  6
ByLayer
 62
    1
370
   -1
100
AcDbCircle
 10
-37109.44519187308
 20
14138.40699643173
 40
6.510092316966817
100
AcDbArc
 50
317.3412087920656
 51
37.06370624625473
  0
ARC
  5
5D
100
AcDbEntity
  8
0
  6
ByLayer
 62
    1
370
   -1
100
AcDbCircle
 10
-37056.98640116884
 20
14147.65244359748
 40
5.395402653393118
100
AcDbArc
 50
239.136442744881
 51
274.8851676521534
  0
ARC
  5
5E
100
AcDbEntity
  8
0
  6
ByLayer
 62
    1
370
   -1
100
AcDbCircle
 10
-37050.71012186082
 20
14151.7185028142
 40
12.54754538887598
100
AcDbArc
 50
180.6952413952522
 51
223.8805819057911
  0
ARC
  5
5F
100
AcDbEntity
  8
0
  6
ByLayer
 62
    1
370
   -1
100
AcDbCircle
 10
-37598.15183970644
 20
14129.11205544715
 40
13.48836593978393
100
AcDbArc
 50
101.4785075600008
 51
315.6706790354042
  0
ARC
  5
60
100
AcDbEntity
  8
0
  6
ByLayer
 62
    1
370
   -1
100
AcDbCircle
 10
-37587.26247112321
 20
14118.69739072316
 40
1.586775236122177
100
AcDbArc
 50
318.6073970263502
 51
141.4328818593098
  0
ARC
  5
61
100
AcDbEntity
  8
0
  6
ByLayer
 62
    1
370
   -1
100
AcDbCircle
 10
-37608.64720866319
 20
14136.2442583086
 40
29.24808096863435
100
AcDbArc
 50
128.9959116319623
 51
320.5203072185974
  0
ARC
  5
62
100
AcDbEntity
  8
0
  6
ByLayer
 62
    1
370
   -1
100
AcDbCircle
 10
-37627.34806845379
 20
14160.94746181725
 40
1.993965056863212
100
AcDbArc
 50
278.5389687264884
 51
71.55452623533488
  0
ARC
  5
63
100
AcDbEntity
  8
0
  6
ByLayer
 62
    1
370
   -1
100
AcDbCircle
 10
-37598.89612389824
 20
14210.5593523919
 40
55.23806717640318
100
AcDbArc
 50
149.774071793416
 51
239.7577455258086
  0
ARC
  5
64
100
AcDbEntity
  8
0
  6
ByLayer
 62
    1
370
   -1
100
AcDbCircle
 10
-37664.56811933872
 20
14246.77441904578
 40
19.81576495124976
100
AcDbArc
 50
334.8943178946736
 51
30.66292021901096
  0
ARC
  5
65
100
AcDbEntity
  8
0
  6
ByLayer
 62
    1
370
   -1
100
AcDbCircle
 10
-37706.57660378414
 20
14221.94999832341
 40
68.61087951668893
100
AcDbArc
 50
30.60427962592714
 51
66.55531426435384
  0
ARC
  5
66
100
AcDbEntity
  8
0
  6
ByLayer
 62
    1
370
   -1
100
AcDbCircle
 10
-37677.88022587655
 20
14286.783743262
 40
2.348855195603694
100
AcDbArc
 50
111.4250315916059
 51
233.4557444665527
  0
ARC
  5
67
100
AcDbEntity
  8
0
  6
ByLayer
 62
    1
370
   -1
100
AcDbCircle
 10
-37673.7928688514
 20
14210.16025122854
 40
78.96504156427723
100
AcDbArc
 50
35.2881484460401
 51
93.59062086494149
  0
ARC
  5
68
100
AcDbEntity
  8
0
  6
ByLayer
 62
    1
370
   -1
100
AcDbCircle
 10
-37604.5311820834
 20
14266.6942548055
 40
11.92782245787387
100
AcDbArc
 50
246.2393997184556
 51
338.4043474616869
  0
ARC
  5
69
100
AcDbEntity
  8
0
  6
ByLayer
 62
    1
370
   -1
100
AcDbCircle
 10
-37595.36788012788
 20
14262.74828004007
 40
1.977747732324314
100
AcDbArc
 50
347.0234399920519
 51
60.04192955617342
  0
ARC
  5
6A
100
AcDbEntity
  8
0
  6
ByLayer
 62
    1
370
   -1
100
AcDbCircle
 10
-37585.46639753525
 20
14279.41185304623
 40
17.40579032425863
100
AcDbArc
 50
140.5732963720717
 51
239.1948198761246
  0
ARC
  5
6B
100
AcDbEntity
  8
0
  6
ByLayer
 62
    1
370
   -1
100
AcDbCircle
 10
-37598.44670199906
 20
14290.05234523213
 40
0.622122496459273
100
AcDbArc
 50
9.116246793998846
 51
138.3115100493548
  0
ARC
  5
6C
100
AcDbEntity
  8
0
  6
ByLayer
 62
    1
370
   -1
100
AcDbCircle
 10
-37587.34415457505
 20
14291.45693441706
 40
10.56928436970049
100
AcDbArc
 50
187.0980451321905
 51
298.501440144493
  0
ARC
  5
6D
100
AcDbEntity
  8
0
  6
ByLayer
 62
    1
370
   -1
100
AcDbCircle
 10
-37593.22634667614
 20
14302.61828586567
 40
23.18533600308249
100
AcDbArc
 50
298.1142418695096
 51
3.389168913548823
  0
ARC
  5
6E
100
AcDbEntity
  8
0
  6
ByLayer
 62
    1
370
   -1
100
AcDbCircle
 10
-37570.93608385498
 20
14303.84023985203
 40
0.8673656116608661
100
AcDbArc
 50
9.872079220490553
 51
101.5999321651241
  0
ARC
  5
6F
100
AcDbEntity
  8
0
  6
ByLayer
 62
    1
370
   -1
100
AcDbCircle
 10
-37571.92679866546
 20
14314.46686546407
 40
9.810994274241557
100
AcDbArc
 50
167.6333801656863
 51
274.7727192869021
  0
ARC
  5
70
100
AcDbEntity
  8
0
  6
ByLayer
 62
    1
370
   -1
100
AcDbCircle
 10
-37579.67102350933
 20
14315.68626967443
 40
2.039589246014537
100
AcDbArc
 50
14.4145182436473
 51
154.3843442553906
  0
ARC
  5
71
100
AcDbEntity
  8
0
  6
ByLayer
 62
    1
370
   -1
100
AcDbCircle
 10
-37572.72993249356
 20
14317.0538337668
 40
5.039600771877212
100
AcDbArc
 50
189.8236571345357
 51
336.6083950793834
  0
ARC
  5
72
100
AcDbEntity
  8
0
  6
ByLayer
 62
    1
370
   -1
100
AcDbCircle
 10
-37571.41973203232
 20
14316.33902322723
 40
3.555890329408068
100
AcDbArc
 50
338.7985955596633
 51
36.17553314443887
  0
ARC
  5
73
100
AcDbEntity
  8
0
  6
ByLayer
 62
    1
370
   -1
100
AcDbCircle
 10
-37564.28686942456
 20
14331.28974320812
 40
13.54024097910234
100
AcDbArc
 50
127.726496078225
 51
251.6510998749079
  0
ARC
  5
74
100
AcDbEntity
  8
0
  6
ByLayer
 62
    1
370
   -1
100
AcDbCircle
 10
-37571.77318270365
 20
14340.64998717977
 40
1.568039502027226
100
AcDbArc
 50
352.5408794708308
 51
120.6283023778145
  0
ARC
  5
75
100
AcDbEntity
  8
0
  6
ByLayer
 62
    1
370
   -1
100
AcDbCircle
 10
-37562.03382734311
 20
14337.15099663339
 40
8.823111016553179
100
AcDbArc
 50
158.0683827910897
 51
272.6272213620375
  0
ARC
  5
76
100
AcDbEntity
  8
0
  6
ByLayer
 62
    1
370
   -1
100
AcDbCircle
 10
-37558.99869217342
 20
14340.60553868547
 40
12.54726007423312
100
AcDbArc
 50
257.8973550751694
 51
321.8784027188607
  0
ARC
  5
77
100
AcDbEntity
  8
0
  6
ByLayer
 62
    1
370
   -1
100
AcDbCircle
 10
-37490.73350644381
 20
14276.01923450662
 40
81.4906440811754
100
AcDbArc
 50
106.9156530607319
 51
135.7724939122672
  0
ARC
  5
78
100
AcDbEntity
  8
0
  6
ByLayer
 62
    1
370
   -1
100
AcDbCircle
 10
-37515.41604576299
 20
14356.33798161572
 40
2.546555896730168
100
AcDbArc
 50
292.431947033668
 51
50.05765371112882
  0
ARC
  5
79
100
AcDbEntity
  8
0
  6
ByLayer
 62
    1
370
   -1
100
AcDbCircle
 10
-37514.3330793915
 20
14361.06532807368
 40
2.829288835229406
100
AcDbArc
 50
188.8028582833602
 51
281.249949337523
  0
ARC
  5
7A
100
AcDbEntity
  8
0
  6
ByLayer
 62
    1
370
   -1
100
AcDbCircle
 10
-37517.55002415279
 20
14360.66140761222
 40
0.4219846394853079
100
AcDbArc
 50
356.051178215111
 51
116.7998590249258
  0
ARC
  5
7B
100
AcDbEntity
  8
0
  6
ByLayer
 62
    1
370
   -1
100
AcDbCircle
 10
-37519.23157967062
 20
14371.38625354983
 40
10.45509201811951
100
AcDbArc
 50
204.7531090735719
 51
278.2005227936185
  0
ARC
  5
7C
100
AcDbEntity
  8
0
  6
ByLayer
 62
    1
370
   -1
100
AcDbCircle
 10
-37529.74251678567
 20
14366.97060730166
 40
1.01716444911567
100
AcDbArc
 50
2.141276768160036
 51
115.950229515802
  0
ARC
  5
7D
100
AcDbEntity
  8
0
  6
ByLayer
 62
    1
370
   -1
100
AcDbCircle
 10
-37532.86171059691
 20
14373.58526377563
 40
6.296135313654419
100
AcDbArc
 50
195.0337754464937
 51
295.1329214039807
  0
ARC
  5
7E
100
AcDbEntity
  8
0
  6
ByLayer
 62
    1
370
   -1
100
AcDbCircle
 10
-37540.69329299889
 20
14372.10670716343
 40
1.757755271059876
100
AcDbArc
 50
354.9545356681662
 51
95.20742611579387
  0
ARC
  5
7F
100
AcDbEntity
  8
0
  6
ByLayer
 62
    1
370
   -1
100
AcDbCircle
 10
-37541.98576859095
 20
14380.30397309965
 40
6.545558523509908
100
AcDbArc
 50
180.76090087352
 51
279.9672434126556
  0
ARC
  5
80
100
AcDbEntity
  8
0
  6
ByLayer
 62
    1
370
   -1
100
AcDbCircle
 10
-37543.71444678158
 20
14390.08843195856
 40
10.98366852475184
100
AcDbArc
 50
189.1848257031208
 51
243.9919917555841
  0
ARC
  5
81
100
AcDbEntity
  8
0
  6
ByLayer
 62
    1
370
   -1
100
AcDbCircle
 10
-37552.63575933228
 20
14393.0144650715
 40
5.058418341612296
100
AcDbArc
 50
173.1434409951788
 51
247.6745128550589
  0
ARC
  5
82
100
AcDbEntity
  8
0
  6
ByLayer
 62
    1
370
   -1
100
AcDbCircle
 10
-37655.87692765625
 20
14404.31148628174
 40
98.79929446903184
100
AcDbArc
 50
353.78666116357
 51
357.1255143413654
  0
ARC
  5
83
100
AcDbEntity
  8
0
  6
ByLayer
 62
    1
370
   -1
100
AcDbCircle
 10
-37558.3382595528
 20
14399.27826593484
 40
1.139032010353228
100
AcDbArc
 50
3.95759857916191
 51
53.05119362278663
  0
ARC
  5
84
100
AcDbEntity
  8
0
  6
ByLayer
 62
    1
370
   -1
100
AcDbCircle
 10
-37556.88212630412
 20
14403.96830901149
 40
3.857684845985956
100
AcDbArc
 50
177.223048370459
 51
258.4642117237328
  0
ARC
  5
85
100
AcDbEntity
  8
0
  6
ByLayer
 62
    1
370
   -1
100
AcDbCircle
 10
-37549.80628942463
 20
14404.74904819341
 40
10.9451134086701
100
AcDbArc
 50
167.7868733908017
 51
183.1101884124482
  0
ARC
  5
86
100
AcDbEntity
  8
0
  6
ByLayer
 62
    1
370
   -1
100
AcDbCircle
 10
-37562.32609546668
 20
14407.64971315151
 40
1.9140738182908
100
AcDbArc
 50
342.1963262142406
 51
106.4839088268964
  0
ARC
  5
87
100
AcDbEntity
  8
0
  6
ByLayer
 62
    1
370
   -1
100
AcDbCircle
 10
-37563.08315658106
 20
14418.04904481863
 40
8.566599426968905
100
AcDbArc
 50
147.4017692294873
 51
271.4311068760462
  0
ARC
  5
88
100
AcDbEntity
  8
0
  6
ByLayer
 62
    1
370
   -1
100
AcDbCircle
 10
-37575.68839655825
 20
14425.89715595518
 40
6.28361000669543
100
AcDbArc
 50
329.0361391001766
 51
60.01058083978829
  0
ARC
  5
89
100
AcDbEntity
  8
0
  6
ByLayer
 62
    1
370
   -1
100
AcDbCircle
 10
-37570.22183797949
 20
14455.92522242701
 40
24.69548145009689
100
AcDbArc
 50
249.7062539397272
 51
264.5960185410434
  0
ARC
  5
8A
100
AcDbEntity
  8
0
  6
ByLayer
 62
    1
370
   -1
100
AcDbCircle
 10
-37577.02666217052
 20
14434.73485867576
 40
2.643578765527629
100
AcDbArc
 50
125.2953807035362
 51
228.2476776412546
  0
ARC
  5
8B
100
AcDbEntity
  8
0
  6
ByLayer
 62
    1
370
   -1
100
AcDbCircle
 10
-37563.69143178704
 20
14417.43944538223
 40
24.4810228162984
100
AcDbArc
 50
92.62020756572232
 51
127.3808139593296
  0
ARC
  5
8C
100
AcDbEntity
  8
0
  6
ByLayer
 62
    1
370
   -1
100
AcDbCircle
 10
-37565.89278463935
 20
14443.79141346369
 40
2.183577446919256
100
AcDbArc
 50
299.7097549077164
 51
73.86601590073174
  0
ARC
  5
8D
100
AcDbEntity
  8
0
  6
ByLayer
 62
    1
370
   -1
100
AcDbCircle
 10
-37590.66635012918
 20
14400.00571405566
 40
52.43507441856197
100
AcDbArc
 50
61.05081170753827
 51
80.20640431023087
  0
ARC
  5
8E
100
AcDbEntity
  8
0
  6
ByLayer
 62
    1
370
   -1
100
AcDbCircle
 10
-37580.70005659332
 20
14454.54523318207
 40
3.053726414946576
100
AcDbArc
 50
132.6404415665325
 51
249.9463729457408
  0
ARC
  5
8F
100
AcDbEntity
  8
0
  6
ByLayer
 62
    1
370
   -1
100
AcDbCircle
 10
-37566.52410955957
 20
14434.28829769892
 40
27.75398803975476
100
AcDbArc
 50
92.47403193220069
 51
125.8244867977261
  0
ARC
  5
90
100
AcDbEntity
  8
0
  6
ByLayer
 62
    1
370
   -1
100
AcDbCircle
 10
-37568.50047185322
 20
14464.46094218844
 40
2.56544081744694
100
AcDbArc
 50
287.6610542440109
 51
72.08406911911928
  0
ARC
  5
91
100
AcDbEntity
  8
0
  6
ByLayer
 62
    1
370
   -1
100
AcDbCircle
 10
-37555.54570540097
 20
14511.97288503944
 40
46.68391264637822
100
AcDbArc
 50
232.8131078189734
 51
254.8946446513483
  0
ARC
  5
92
100
AcDbEntity
  8
0
  6
ByLayer
 62
    1
370
   -1
100
AcDbCircle
 10
-37585.19858957281
 20
14520.92932636056
 40
46.17037798439866
100
AcDbArc
 50
252.4573889684833
 51
271.7827335247069
  0
ARC
  5
93
100
AcDbEntity
  8
0
  6
ByLayer
 62
    1
370
   -1
100
AcDbCircle
 10
-37598.2187525178
 20
14478.1942351285
 40
1.569196010309789
100
AcDbArc
 50
126.341475687031
 51
235.1679785767624
  0
ARC
  5
94
100
AcDbEntity
  8
0
  6
ByLayer
 62
    1
370
   -1
100
AcDbCircle
 10
-37594.46246483491
 20
14473.59362783845
 40
7.506917901434618
100
AcDbArc
 50
89.92463625881258
 51
128.6271032341155
  0
ARC
  5
95
100
AcDbEntity
  8
0
  6
ByLayer
 62
    1
370
   -1
100
AcDbCircle
 10
-37594.68189182478
 20
14482.83048041375
 40
1.745071767587897
100
AcDbArc
 50
277.5504589429648
 51
96.89304528365425
  0
ARC
  5
96
100
AcDbEntity
  8
0
  6
ByLayer
 62
    1
370
   -1
100
AcDbCircle
 10
-37588.10601868895
 20
14535.00403699491
 40
50.89543041036212
100
AcDbArc
 50
234.5073889071558
 51
262.3385930073001
  0
ARC
  5
97
100
AcDbEntity
  8
0
  6
ByLayer
 62
    1
370
   -1
100
AcDbCircle
 10
-37616.25897218205
 20
14495.09024542373
 40
2.067869650114501
100
AcDbArc
 50
121.6949854271096
 51
227.5076214045807
  0
ARC
  5
98
100
AcDbEntity
  8
0
  6
ByLayer
 62
    1
370
   -1
100
AcDbCircle
 10
-37605.20876820449
 20
14472.38729019575
 40
27.30765964663146
100
AcDbArc
 50
87.16320300098798
 51
116.3876108305142
  0
ARC
  5
99
100
AcDbEntity
  8
0
  6
ByLayer
 62
    1
370
   -1
100
AcDbCircle
 10
-37604.25124298552
 20
14501.17602686672
 40
1.564941572772138
100
AcDbArc
 50
284.5807208161017
 51
76.36792036386223
  0
ARC
  5
9A
100
AcDbEntity
  8
0
  6
ByLayer
 62
    1
370
   -1
100
AcDbCircle
 10
-37525.71859265454
 20
14755.53442263999
 40
264.6439184161502
100
AcDbArc
 50
243.2992868658628
 51
252.8211943274563
  0
ARC
  5
9B
100
AcDbEntity
  8
0
  6
ByLayer
 62
    1
370
   -1
100
AcDbCircle
 10
-37643.56885419828
 20
14520.16936553602
 40
1.49976784154695
100
AcDbArc
 50
113.6975162785303
 51
224.9066984471331
  0
ARC
  5
9C
100
AcDbEntity
  8
0
  6
ByLayer
 62
    1
370
   -1
100
AcDbCircle
 10
-37637.48481327402
 20
14549.29489516073
 40
28.54644041930248
100
AcDbArc
 50
256.4529833935101
 51
269.2043239618031
  0
ARC
  5
9D
100
AcDbEntity
  8
0
  6
ByLayer
 62
    1
370
   -1
100
AcDbCircle
 10
-37637.93350214834
 20
14522.54484888012
 40
1.794403075163875
100
AcDbArc
 50
271.6693094518951
 51
79.21349823825607
  0
ARC
  5
9E
100
AcDbEntity
  8
0
  6
ByLayer
 62
    1
370
   -1
100
AcDbCircle
 10
-37621.14827547847
 20
14599.09083371005
 40
76.57103125653335
100
AcDbArc
 50
235.2563431534004
 51
257.5947144270199
  0
ARC
  5
9F
100
AcDbEntity
  8
0
  6
ByLayer
 62
    1
370
   -1
100
AcDbCircle
 10
-37663.36086616159
 20
14537.0224334027
 40
1.660243567362987
100
AcDbArc
 50
70.95165083176445
 51
210.8268708868985
  0
ARC
  5
A0
100
AcDbEntity
  8
0
  6
ByLayer
 62
    1
370
   -1
100
AcDbCircle
 10
-37646.97557214847
 20
14599.35892693775
 40
62.79858628107835
100
AcDbArc
 50
255.3869436961123
 51
273.2049752788244
  0
ARC
  5
A1
100
AcDbEntity
  8
0
  6
ByLayer
 62
    1
370
   -1
100
AcDbCircle
 10
-37644.03067688127
 20
14538.45700178116
 40
1.885419494105857
100
AcDbArc
 50
287.4714636882786
 51
82.06018603653189
  0
ARC
  5
A2
100
AcDbEntity
  8
0
  6
ByLayer
 62
    1
370
   -1
100
AcDbCircle
 10
-37633.11135949835
 20
14603.20563258328
 40
63.77827033332764
100
AcDbArc
 50
223.8941831076804
 51
260.3793562630615
  0
ARC
  5
A3
100
AcDbEntity
  8
0
  6
ByLayer
 62
    1
370
   -1
100
AcDbCircle
 10
-37677.89272761476
 20
14559.67140530571
 40
1.363263109890286
100
AcDbArc
 50
78.22600280960111
 51
210.1673089736717
  0
ARC
  5
A4
100
AcDbEntity
  8
0
  6
ByLayer
 62
    1
370
   -1
100
AcDbCircle
 10
-37643.53193498521
 20
14678.94354898568
 40
122.7635679712357
100
AcDbArc
 50
253.8813067065917
 51
273.1230039952492
  0
ARC
  5
A5
100
AcDbEntity
  8
0
  6
ByLayer
 62
    1
370
   -1
100
AcDbCircle
 10
-37628.26036846404
 20
14448.08521194133
 40
108.6167724995602
100
AcDbArc
 50
84.24249136809939
 51
94.53252580926672
  0
ARC
  5
A6
100
AcDbEntity
  8
0
  6
ByLayer
 62
    1
370
   -1
100
AcDbCircle
 10
-37647.3768988521
 20
14300.31873293793
 40
257.5897504337084
100
AcDbArc
 50
62.09293434893316
 51
83.30904547910757
  0
ARC
  5
A7
100
AcDbEntity
  8
0
  6
ByLayer
 62
    1
370
   -1
100
AcDbCircle
 10
-37524.23105399623
 20
14497.52831309271
 40
30.534043576441
100
AcDbArc
 50
76.65042525389393
 51
94.85428205869135
  0
ARC
  5
A8
100
AcDbEntity
  8
0
  6
ByLayer
 62
    1
370
   -1
100
AcDbCircle
 10
-37616.16512938195
 20
14300.22025312112
 40
247.6582376702491
100
AcDbArc
 50
47.98653767097755
 51
66.4418025870167
  0
ARC
  5
A9
100
AcDbEntity
  8
0
  6
ByLayer
 62
    1
370
   -1
100
AcDbCircle
 10
-37462.99881039104
 20
14470.2133991698
 40
18.84044161149549
100
AcDbArc
 50
342.7184979268357
 51
48.05762968901186
  0
ARC
  5
AA
100
AcDbEntity
  8
0
  6
ByLayer
 62
    1
370
   -1
100
AcDbCircle
 10
-37392.92486557569
 20
14438.88000807409
 40
58.09573172043405
100
AcDbArc
 50
153.7044224987773
 51
194.9070700587079
  0
ARC
  5
AB
100
AcDbEntity
  8
0
  6
ByLayer
 62
    1
370
   -1
100
AcDbCircle
 10
-37407.42440662807
 20
14459.95947723177
 40
55.0613112355182
100
AcDbArc
 50
220.8639772543844
 51
299.3194567461841
  0
ARC
  5
AC
100
AcDbEntity
  8
0
  6
ByLayer
 62
    1
370
   -1
100
AcDbCircle
 10
-37406.39409740644
 20
14431.03023696292
 40
32.19431999374251
100
AcDbArc
 50
323.6570987613833
 51
12.31136575274875
  0
ARC
  5
AD
100
AcDbEntity
  8
0
  6
ByLayer
 62
    1
370
   -1
100
AcDbCircle
 10
-37373.22482470319
 20
14438.25892377761
 40
1.753528475717261
100
AcDbArc
 50
89.49265538350173
 51
191.9832872245445
  0
ARC
  5
AE
100
AcDbEntity
  8
0
  6
ByLayer
 62
    1
370
   -1
100
AcDbCircle
 10
-37372.98275090458
 20
14455.86442762017
 40
15.85366285670453
100
AcDbArc
 50
269.1812228314472
 51
326.6204330349718
  0
ARC
  5
AF
100
AcDbEntity
  8
0
  6
ByLayer
 62
    1
370
   -1
100
AcDbCircle
 10
-37402.8035398759
 20
14472.7605899397
 40
50.10403760803027
100
AcDbArc
 50
329.2490289719652
 51
353.9661723116549
  0
ARC
  5
B0
100
AcDbEntity
  8
0
  6
ByLayer
 62
    1
370
   -1
100
AcDbCircle
 10
-37354.41172260342
 20
14467.32174481362
 40
1.444933437248431
100
AcDbArc
 50
6.841634115641639
 51
155.6405188740294
  0
ARC
  5
B1
100
AcDbEntity
  8
0
  6
ByLayer
 62
    1
370
   -1
100
AcDbCircle
 10
-37392.59072711379
 20
14471.80010205326
 40
37.06658769631678
100
AcDbArc
 50
319.4549603473563
 51
353.9877738309766
  0
ARC
  5
B2
100
AcDbEntity
  8
0
  6
ByLayer
 62
    1
370
   -1
100
AcDbCircle
 10
-37377.35239062015
 20
14460.85851545457
 40
18.4432835623023
100
AcDbArc
 50
263.5285580387611
 51
314.505738643406
  0
ARC
  5
B3
100
AcDbEntity
  8
0
  6
ByLayer
 62
    1
370
   -1
100
AcDbCircle
 10
-37372.83083563591
 20
14430.24574804484
 40
13.94753886879298
100
AcDbArc
 50
118.2435442472701
 51
150.3235175475948
  0
ARC
  5
B4
100
AcDbEntity
  8
0
  6
ByLayer
 62
    1
370
   -1
100
AcDbCircle
 10
-37399.42878491294
 20
14432.98026961115
 40
15.06859371597213
100
AcDbArc
 50
313.6572565004377
 51
16.06910275819035
  0
ARC
  5
B5
100
AcDbEntity
  8
0
  6
ByLayer
 62
    1
370
   -1
100
AcDbCircle
 10
-37396.89688501596
 20
14479.76300774202
 40
58.21906336085783
100
AcDbArc
 50
267.226898605892
 51
277.7695682995633
  0
ARC
  5
B6
100
AcDbEntity
  8
0
  6
ByLayer
 62
    1
370
   -1
100
AcDbCircle
 10
-37402.25498737927
 20
14423.73231009335
 40
3.309680865651608
100
AcDbArc
 50
256.573883903081
 51
320.1632599587993
  0
ARC
  5
B7
100
AcDbEntity
  8
0
  6
ByLayer
 62
    1
370
   -1
100
AcDbCircle
 10
-37402.76249491554
 20
14426.05626552382
 40
5.549323025990701
100
AcDbArc
 50
190.71968007376
 51
267.3045211293906
  0
ARC
  5
B8
100
AcDbEntity
  8
0
  6
ByLayer
 62
    1
370
   -1
100
AcDbCircle
 10
-37333.25327699664
 20
14559.28328693707
 40
153.7686382213265
100
AcDbArc
 50
238.5481469620803
 51
240.823822479853
  0
ARC
  5
B9
100
AcDbEntity
  8
0
  6
ByLayer
 62
    1
370
   -1
100
AcDbCircle
 10
-37402.70034608982
 20
14440.77521920536
 40
16.63873809336568
100
AcDbArc
 50
206.1024636310558
 51
229.5876821541615
  0
ARC
  5
BA
100
AcDbEntity
  8
0
  6
ByLayer
 62
    1
370
   -1
100
AcDbCircle
 10
-37411.55947967502
 20
14436.04329622634
 40
6.610569361443508
100
AcDbArc
 50
146.3932032679684
 51
203.0545935295076
  0
ARC
  5
BB
100
AcDbEntity
  8
0
  6
ByLayer
 62
    1
370
   -1
100
AcDbCircle
 10
-37354.64884011928
 20
14439.72018577305
 40
62.41629178851893
100
AcDbArc
 50
172.8357582834659
 51
180.0165262441581
  0
ARC
  5
BC
100
AcDbEntity
  8
0
  6
ByLayer
 62
    1
370
   -1
100
AcDbCircle
 10
-37431.50477201364
 20
14464.39304451424
 40
22.53976022439123
100
AcDbArc
 50
311.4716457032679
 51
43.49616442115003
  0
ARC
  5
BD
100
AcDbEntity
  8
0
  6
ByLayer
 62
    1
370
   -1
100
AcDbCircle
 10
-37434.61494791485
 20
14477.28732275166
 40
19.63654668063133
100
AcDbArc
 50
7.66746109527679
 51
32.06587562648758
  0
ARC
  5
BE
100
AcDbEntity
  8
0
  6
ByLayer
 62
    1
370
   -1
100
AcDbCircle
 10
-37467.93818039412
 20
14534.50570932485
 40
68.45457466774344
100
AcDbArc
 50
316.8767862148811
 51
326.8585711218946
  0
ARC
  5
BF
100
AcDbEntity
  8
0
  6
ByLayer
 62
    1
370
   -1
100
AcDbCircle
 10
-37428.65221212302
 20
14498.3104564922
 40
18.07452251398629
100
AcDbArc
 50
356.0998858899814
 51
10.55296896211467
  0
ARC
  5
C0
100
AcDbEntity
  8
0
  6
ByLayer
 62
    1
370
   -1
100
AcDbCircle
 10
-37412.83630004399
 20
14509.24766323297
 40
7.873011097029413
100
AcDbArc
 50
217.43668592601
 51
284.3621347153066
  0
ARC
  5
C1
100
AcDbEntity
  8
0
  6
ByLayer
 62
    1
370
   -1
100
AcDbCircle
 10
-37414.60104185369
 20
14506.33564206571
 40
4.862221648218305
100
AcDbArc
 50
139.980103950447
 51
202.6680515205272
  0
ARC
  5
C2
100
AcDbEntity
  8
0
  6
ByLayer
 62
    1
370
   -1
100
AcDbCircle
 10
-37418.02716149914
 20
14508.87177439024
 40
0.661228879219253
100
AcDbArc
 50
15.31989480176512
 51
116.7358944179059
  0
ARC
  5
C3
100
AcDbEntity
  8
0
  6
ByLayer
 62
    1
370
   -1
100
AcDbCircle
 10
-37415.19881051845
 20
14508.27321080118
 40
2.323090283642331
100
AcDbArc
 50
160.5574977545636
 51
259.8637832070904
  0
ARC
  5
C4
100
AcDbEntity
  8
0
  6
ByLayer
 62
    1
370
   -1
100
AcDbCircle
 10
-37414.57651198426
 20
14510.29852842754
 40
4.433720324575154
100
AcDbArc
 50
256.5517532338851
 51
319.6440952439582
  0
ARC
  5
C5
100
AcDbEntity
  8
0
  6
ByLayer
 62
    1
370
   -1
100
AcDbCircle
 10
-37423.27544030221
 20
14513.07694014492
 40
13.33355772154665
100
AcDbArc
 50
334.9317545158606
 51
355.8774831408568
  0
ARC
  5
C6
100
AcDbEntity
  8
0
  6
ByLayer
 62
    1
370
   -1
100
AcDbCircle
 10
-37402.78420373515
 20
14512.66890468648
 40
7.213215749910808
100
AcDbArc
 50
103.4385496348686
 51
184.3770202078253
  0
ARC
  5
C7
100
AcDbEntity
  8
0
  6
ByLayer
 62
    1
370
   -1
100
AcDbCircle
 10
-37409.21765027511
 20
14521.60440696881
 40
5.12985114307531
100
AcDbArc
 50
338.022762727736
 51
52.08063859833693
  0
ARC
  5
C8
100
AcDbEntity
  8
0
  6
ByLayer
 62
    1
370
   -1
100
AcDbCircle
 10
-37403.06802559318
 20
14529.4562281655
 40
4.843598243416798
100
AcDbArc
 50
183.3023154949059
 51
231.7737503839488
  0
ARC
  5
C9
100
AcDbEntity
  8
0
  6
ByLayer
 62
    1
370
   -1
100
AcDbCircle
 10
-37383.29292549986
 20
14532.688541253
 40
24.85988275603722
100
AcDbArc
 50
166.4658620499725
 51
188.1198753781628
  0
ARC
  5
CA
100
AcDbEntity
  8
0
  6
ByLayer
 62
    1
370
   -1
100
AcDbCircle
 10
-37392.42010495775
 20
14547.52643197162
 40
17.53950342760194
100
AcDbArc
 50
210.9487654116057
 51
241.2986162797969
  0
ARC
  5
CB
100
AcDbEntity
  8
0
  6
ByLayer
 62
    1
370
   -1
100
AcDbCircle
 10
-37400.50296962959
 20
14526.27294065775
 40
5.878849203887506
100
AcDbArc
 50
57.91560463681776
 51
93.31931308313622
  0
ARC
  5
CC
100
AcDbEntity
  8
0
  6
ByLayer
 62
    1
370
   -1
100
AcDbCircle
 10
-37406.19505555082
 20
14520.07527996586
 40
14.23590762946345
100
AcDbArc
 50
32.16767034666292
 51
51.74294100139229
  0
ARC
  5
CD
100
AcDbEntity
  8
0
  6
ByLayer
 62
    1
370
   -1
100
AcDbCircle
 10
-37392.75582993392
 20
14530.75086770121
 40
3.393524829246739
100
AcDbArc
 50
245.8456141477714
 51
311.8610801780083
  0
ARC
  5
CE
100
AcDbEntity
  8
0
  6
ByLayer
 62
    1
370
   -1
100
AcDbCircle
 10
-37385.78281536403
 20
14521.80104789948
 40
7.96347991208662
100
AcDbArc
 50
90.99543224029286
 51
126.2459137880537
  0
ARC
  5
CF
100
AcDbEntity
  8
0
  6
ByLayer
 62
    1
370
   -1
100
AcDbCircle
 10
-37379.83430594096
 20
14525.83512204972
 40
7.244350124328538
100
AcDbArc
 50
116.4153633184187
 51
147.163484945133
  0
ARC
  5
D0
100
AcDbEntity
  8
0
  6
ByLayer
 62
    1
370
   -1
100
AcDbCircle
 10
-37381.54718220545
 20
14525.09112187984
 40
7.387935272680659
100
AcDbArc
 50
60.70773348941978
 51
101.7932884400921
  0
ARC
  5
D1
100
AcDbEntity
  8
0
  6
ByLayer
 62
    1
370
   -1
100
AcDbCircle
 10
-37381.11641863865
 20
14521.19136037189
 40
10.82199913689346
100
AcDbArc
 50
34.10083788088849
 51
72.89009268817944
  0
ARC
  5
D2
100
AcDbEntity
  8
0
  6
ByLayer
 62
    1
370
   -1
100
AcDbCircle
 10
-37370.69824750828
 20
14530.39329698564
 40
3.456639847437393
100
AcDbArc
 50
245.0703471401918
 51
309.1631443406
  0
ARC
  5
D3
100
AcDbEntity
  8
0
  6
ByLayer
 62
    1
370
   -1
100
AcDbCircle
 10
-37338.86335937891
 20
14533.08233084026
 40
30.13409523762637
100
AcDbArc
 50
170.5788478755879
 51
190.2634771018604
  0
ARC
  5
D4
100
AcDbEntity
  8
0
  6
ByLayer
 62
    1
370
   -1
100
AcDbCircle
 10
-37373.61676829608
 20
14525.34658480726
 40
13.62889342172785
100
AcDbArc
 50
15.79050537376412
 51
68.36093733831676
  0
ARC
  5
D5
100
AcDbEntity
  8
0
  6
ByLayer
 62
    1
370
   -1
100
AcDbCircle
 10
-37345.79336453448
 20
14529.57927791557
 40
14.71815284588767
100
AcDbArc
 50
182.0402449741155
 51
213.1069202275935
  0
ARC
  5
D6
100
AcDbEntity
  8
0
  6
ByLayer
 62
    1
370
   -1
100
AcDbCircle
 10
-37357.4378648907
 20
14479.916400034
 40
41.62939960018461
100
AcDbArc
 50
74.36985324972741
 51
90.94172839749257
  0
ARC
  5
D7
100
AcDbEntity
  8
0
  6
ByLayer
 62
    1
370
   -1
100
AcDbCircle
 10
-37359.63539927274
 20
14494.90673843152
 40
28.45903824049223
100
AcDbArc
 50
27.12108549493263
 51
61.87933135721417
  0
ARC
  5
D8
100
AcDbEntity
  8
0
  6
ByLayer
 62
    1
370
   -1
100
AcDbCircle
 10
-37331.35666572438
 20
14515.29765553205
 40
7.981933851761867
100
AcDbArc
 50
248.3184485848538
 51
294.2579776219334
  0
ARC
  5
D9
100
AcDbEntity
  8
0
  6
ByLayer
 62
    1
370
   -1
100
AcDbCircle
 10
-37330.48841044136
 20
14511.2345239231
 40
4.017882191535212
100
AcDbArc
 50
306.876304112882
 51
15.59714873683357
  0
ARC
  5
DA
100
AcDbEntity
  8
0
  6
ByLayer
 62
    1
370
   -1
100
AcDbCircle
 10
-37325.84178401612
 20
14510.88373766067
 40
1.628267934824595
100
AcDbArc
 50
27.06700602051219
 51
118.4902556949981
  0
ARC
  5
DB
100
AcDbEntity
  8
0
  6
ByLayer
 62
    1
370
   -1
100
AcDbCircle
 10
-37330.24928699156
 20
14509.3856584507
 40
6.270776268359142
100
AcDbArc
 50
320.4318667585373
 51
20.91926258176724
  0
ARC
  5
DC
100
AcDbEntity
  8
0
  6
ByLayer
 62
    1
370
   -1
100
AcDbCircle
 10
-37342.88929599808
 20
14528.86796573635
 40
29.26597383788515
100
AcDbArc
 50
299.785349263433
 51
306.660613483485
  0
ARC
  5
DD
100
AcDbEntity
  8
0
  6
ByLayer
 62
    1
370
   -1
100
AcDbCircle
 10
-37324.16349966188
 20
14500.92768906313
 40
4.898227675012674
100
AcDbArc
 50
148.7570071075663
 51
210.1378671211536
  0
ARC
  5
DE
100
AcDbEntity
  8
0
  6
ByLayer
 62
    1
370
   -1
100
AcDbCircle
 10
-37296.03724827416
 20
14524.2212502671
 40
41.35857036709653
100
AcDbArc
 50
218.5116127708215
 51
235.0142177609486
  0
ARC
  5
DF
100
AcDbEntity
  8
0
  6
ByLayer
 62
    1
370
   -1
100
AcDbCircle
 10
-37313.10094032987
 20
14503.82116210774
 40
15.03541805886437
100
AcDbArc
 50
243.74912342904
 51
289.5036536435218
  0
ARC
  5
E0
100
AcDbEntity
  8
0
  6
ByLayer
 62
    1
370
   -1
100
AcDbCircle
 10
-37307.2387092574
 20
14488.63092984298
 40
1.320997782964669
100
AcDbArc
 50
310.3429251340847
 51
129.6206022593025
  0
ARC
  5
E1
100
AcDbEntity
  8
0
  6
ByLayer
 62
    1
370
   -1
100
AcDbCircle
 10
-37319.90478300509
 20
14499.00665635055
 40
17.6744649422631
100
AcDbArc
 50
273.6698541020762
 51
319.9083535101965
  0
ARC
  5
E2
100
AcDbEntity
  8
0
  6
ByLayer
 62
    1
370
   -1
100
AcDbCircle
 10
-37317.37540626829
 20
14479.27992047852
 40
2.513269707934626
100
AcDbArc
 50
123.7989549421558
 51
224.5303660766388
  0
ARC
  5
E3
100
AcDbEntity
  8
0
  6
ByLayer
 62
    1
370
   -1
100
AcDbCircle
 10
-37296.5718012503
 20
14501.20848386039
 40
32.7385624834239
100
AcDbArc
 50
226.3562192684442
 51
253.0897742415079
  0
ARC
  5
E4
100
AcDbEntity
  8
0
  6
ByLayer
 62
    1
370
   -1
100
AcDbCircle
 10
-37301.789374808
 20
14481.27726984487
 40
12.17815626717165
100
AcDbArc
 50
249.2973999663989
 51
291.7241874826034
  0
ARC
  5
E5
100
AcDbEntity
  8
0
  6
ByLayer
 62
    1
370
   -1
100
AcDbCircle
 10
-37296.70585091678
 20
14468.72912270647
 40
1.362615990410322
100
AcDbArc
 50
316.3420923833425
 51
115.0021996024269
  0
ARC
  5
E6
100
AcDbEntity
  8
0
  6
ByLayer
 62
    1
370
   -1
100
AcDbCircle
 10
-37312.21554441804
 20
14488.34294252624
 40
26.35506596201309
100
AcDbArc
 50
267.983514964897
 51
308.7479289595178
  0
ARC
  5
E7
100
AcDbEntity
  8
0
  6
ByLayer
 62
    1
370
   -1
100
AcDbCircle
 10
-37312.7725291376
 20
14459.05610609962
 40
2.971265029037668
100
AcDbArc
 50
97.16061813514109
 51
204.2031718943036
  0
ARC
  5
E8
100
AcDbEntity
  8
0
  6
ByLayer
 62
    1
370
   -1
100
AcDbCircle
 10
-37208.810568021
 20
14519.61741676736
 40
123.2705380789191
100
AcDbArc
 50
210.0774126990534
 51
224.9333939253082
  0
ARC
  5
E9
100
AcDbEntity
  8
0
  6
ByLayer
 62
    1
370
   -1
100
AcDbCircle
 10
-37293.89379563969
 20
14435.40792363065
 40
3.593888644575075
100
AcDbArc
 50
232.5872529131531
 51
352.8966538118922
  0
ARC
  5
EA
100
AcDbEntity
  8
0
  6
ByLayer
 62
    1
370
   -1
100
AcDbCircle
 10
-37335.87110329174
 20
14450.71803353689
 40
48.1915528654996
100
AcDbArc
 50
340.9183817030905
 51
21.77362393123377
  0
ARC
  5
EB
100
AcDbEntity
  8
0
  6
ByLayer
 62
    1
370
   -1
100
AcDbCircle
 10
-37249.53145355982
 20
14498.12715786279
 40
51.00597596190504
100
AcDbArc
 50
161.2701082960424
 51
215.3808887793663
  0
ARC
  5
EC
100
AcDbEntity
  8
0
  6
ByLayer
 62
    1
370
   -1
100
AcDbCircle
 10
-37265.39280472329
 20
14498.79775625342
 40
36.0460101501478
100
AcDbArc
 50
91.38564915441238
 51
154.1656757880689
  0
ARC
  5
ED
100
AcDbEntity
  8
0
  6
ByLayer
 62
    1
370
   -1
100
AcDbCircle
 10
-37253.25407060039
 20
14426.81309772826
 40
108.8008195301297
100
AcDbArc
 50
76.02898443488624
 51
96.86785793027776
  0
ARC
  5
EE
100
AcDbEntity
  8
0
  6
ByLayer
 62
    1
370
   -1
100
AcDbCircle
 10
-37139.72955362473
 20
14883.70417364978
 40
361.9828645803384
100
AcDbArc
 50
256.0513727007453
 51
269.1086833340748
  0
ARC
  5
EF
100
AcDbEntity
  8
0
  6
ByLayer
 62
    1
370
   -1
100
AcDbCircle
 10
-37135.54724884551
 20
14632.72054450248
 40
111.3885465568735
100
AcDbArc
 50
264.9457403802283
 51
284.6930975341734
  0
ARC
  5
F0
100
AcDbEntity
  8
0
  6
ByLayer
 62
    1
370
   -1
100
AcDbCircle
 10
-37106.60371724108
 20
14523.6001158666
 40
1.538298735420858
100
AcDbArc
 50
306.7558360338319
 51
116.6831646158128
  0
ARC
  5
F1
100
AcDbEntity
  8
0
  6
ByLayer
 62
    1
370
   -1
100
AcDbCircle
 10
-37127.1724905848
 20
14546.11968707996
 40
32.03044960574619
100
AcDbArc
 50
280.9387980883365
 51
312.1367395039337
  0
ARC
  5
F2
100
AcDbEntity
  8
0
  6
ByLayer
 62
    1
370
   -1
100
AcDbCircle
 10
-37145.78906034946
 20
14765.69066862165
 40
252.2312281135381
100
AcDbArc
 50
265.8198315217663
 51
275.6185392818954
  0
ARC
  5
F3
100
AcDbEntity
  8
0
  6
ByLayer
 62
    1
370
   -1
100
AcDbCircle
 10
-37164.08235163179
 20
14512.17526981331
 40
1.957356077372637
100
AcDbArc
 50
92.71156818290288
 51
246.0191435224242
  0
ARC
  5
F4
100
AcDbEntity
  8
0
  6
ByLayer
 62
    1
370
   -1
100
AcDbCircle
 10
-37136.93418938622
 20
14743.28107630707
 40
234.564620619984
100
AcDbArc
 50
263.1581024748391
 51
279.3891669212571
  0
ARC
  5
F5
100
AcDbEntity
  8
0
  6
ByLayer
 62
    1
370
   -1
100
AcDbCircle
 10
-37098.39566695043
 20
14511.08780192295
 40
0.8176051093078601
100
AcDbArc
 50
312.7598362886443
 51
109.4154840225758
  0
ARC
  5
F6
100
AcDbEntity
  8
0
  6
ByLayer
 62
    1
370
   -1
100
AcDbCircle
 10
-37124.08676616891
 20
14553.92537456369
 40
50.75145926972083
100
AcDbArc
 50
274.715008597523
 51
301.1413729095309
  0
ARC
  5
F7
100
AcDbEntity
  8
0
  6
ByLayer
 62
    1
370
   -1
100
AcDbCircle
 10
-37133.3199137021
 20
14852.26489621909
 40
349.1766342921591
100
AcDbArc
 50
268.1981163307757
 51
272.2001264266195
  0
ARC
  5
F8
100
AcDbEntity
  8
0
  6
ByLayer
 62
    1
370
   -1
100
AcDbCircle
 10
-37144.22254193589
 20
14501.56855688625
 40
1.694102793141848
100
AcDbArc
 50
92.59658999273229
 51
250.1375833936315
  0
ARC
  5
F9
100
AcDbEntity
  8
0
  6
ByLayer
 62
    1
370
   -1
100
AcDbCircle
 10
-37129.41548329455
 20
14596.96607499905
 40
98.20310158335062
100
AcDbArc
 50
260.9880071755347
 51
288.6929321702239
  0
ARC
  5
FA
100
AcDbEntity
  8
0
  6
ByLayer
 62
    1
370
   -1
100
AcDbCircle
 10
-37097.39023396093
 20
14503.19764049304
 40
0.9273918879460815
100
AcDbArc
 50
316.4039984653906
 51
126.4923298289399
  0
ARC
  5
FB
100
AcDbEntity
  8
0
  6
ByLayer
 62
    1
370
   -1
100
AcDbCircle
 10
-37120.45748689742
 20
14530.18817959602
 40
36.42737892253601
100
AcDbArc
 50
271.7016675990232
 51
310.6681677316194
  0
ARC
  5
FC
100
AcDbEntity
  8
0
  6
ByLayer
 62
    1
370
   -1
100
AcDbCircle
 10
-37119.39010749861
 20
14492.06992981516
 40
1.706995735550824
100
AcDbArc
 50
89.51853837921904
 51
260.2907268034725
  0
ARC
  5
FD
100
AcDbEntity
  8
0
  6
ByLayer
 62
    1
370
   -1
100
AcDbCircle
 10
-37116.16689558752
 20
14514.10477892039
 40
23.97587480481965
100
AcDbArc
 50
261.5791609662657
 51
300.157855823984
  0
ARC
  5
FE
100
AcDbEntity
  8
0
  6
ByLayer
 62
    1
370
   -1
100
AcDbCircle
 10
-37103.5605026846
 20
14492.26122791573
 40
1.246470968497034
100
AcDbArc
 50
314.2886378789629
 51
116.7633964634905
  0
ARC
  5
FF
100
AcDbEntity
  8
0
  6
ByLayer
 62
    1
370
   -1
100
AcDbCircle
 10
-37125.10471324126
 20
14525.264196905
 40
40.6361968691159
100
AcDbArc
 50
264.3533278174288
 51
303.4762773826135
  0
ARC
  5
100
100
AcDbEntity
  8
0
  6
ByLayer
 62
    1
370
   -1
100
AcDbCircle
 10
-37124.9200781549
 20
14537.34968656839
 40
52.69080243536631
100
AcDbArc
 50
238.047226233772
 51
265.4466571408585
  0
ARC
  5
101
100
AcDbEntity
  8
0
  6
ByLayer
 62
    1
370
   -1
100
AcDbCircle
 10
-37153.68695444399
 20
14491.14875514111
 40
1.734498355542167
100
AcDbArc
 50
59.44166039814353
 51
219.2904318403425
  0
ARC
  5
102
100
AcDbEntity
  8
0
  6
ByLayer
 62
    1
370
   -1
100
AcDbCircle
 10
-37118.0626135522
 20
14546.91955760225
 40
67.8280454311009
100
AcDbArc
 50
236.9748687420771
 51
268.1328505223567
  0
ARC
  5
103
100
AcDbEntity
  8
0
  6
ByLayer
 62
    1
370
   -1
100
AcDbCircle
 10
-37120.47845651714
 20
14477.73508727648
 40
1.407572533918987
100
AcDbArc
 50
308.692361672913
 51
81.5902175659386
  0
ARC
  5
104
100
AcDbEntity
  8
0
  6
ByLayer
 62
    1
370
   -1
100
AcDbCircle
 10
-37136.48400337862
 20
14522.32474496485
 40
48.70871447331932
100
AcDbArc
 50
262.1613835313722
 51
290.2833015685356
  0
ARC
  5
105
100
AcDbEntity
  8
0
  6
ByLayer
 62
    1
370
   -1
100
AcDbCircle
 10
-37133.84313310853
 20
14543.95406013955
 40
70.49688876001169
100
AcDbArc
 50
228.7869482895231
 51
262.4325825632179
  0
ARC
  5
106
100
AcDbEntity
  8
0
  6
ByLayer
 62
    1
370
   -1
100
AcDbCircle
 10
-37181.35247155762
 20
14489.23881022605
 40
1.989829455878563
100
AcDbArc
 50
57.75349830757807
 51
205.0268366395634
  0
ARC
  5
107
100
AcDbEntity
  8
0
  6
ByLayer
 62
    1
370
   -1
100
AcDbCircle
 10
-37139.69354345519
 20
14530.68884858337
 40
60.64270501035853
100
AcDbArc
 50
224.2182470902809
 51
270.6971870499506
  0
ARC
  5
108
100
AcDbEntity
  8
0
  6
ByLayer
 62
    1
370
   -1
100
AcDbCircle
 10
-37138.41869488728
 20
14468.47331447744
 40
1.666209204852106
100
AcDbArc
 50
294.9243667425125
 51
108.7996937527637
  0
ARC
  5
109
100
AcDbEntity
  8
0
  6
ByLayer
 62
    1
370
   -1
100
AcDbCircle
 10
-37146.43969908992
 20
14511.0332884424
 40
44.92601663919747
100
AcDbArc
 50
243.3481352924211
 51
281.1961061442287
  0
ARC
  5
10A
100
AcDbEntity
  8
0
  6
ByLayer
 62
    1
370
   -1
100
AcDbCircle
 10
-37167.46022418744
 20
14469.700480899
 40
1.465142418962871
100
AcDbArc
 50
53.66338104817811
 51
202.2079753747636
  0
ARC
  5
10B
100
AcDbEntity
  8
0
  6
ByLayer
 62
    1
370
   -1
100
AcDbCircle
 10
-37157.72103656705
 20
14471.33449079033
 40
11.30927546078884
100
AcDbArc
 50
191.1542424275526
 51
235.6852834308551
  0
ARC
  5
10C
100
AcDbEntity
  8
0
  6
ByLayer
 62
    1
370
   -1
100
AcDbCircle
 10
-37166.14879605912
 20
14461.37459014957
 40
2.143596584995921
100
AcDbArc
 50
250.4204964372612
 51
16.78316877408331
  0
ARC
  5
10D
100
AcDbEntity
  8
0
  6
ByLayer
 62
    1
370
   -1
100
AcDbCircle
 10
-37130.89630425594
 20
14552.33414609992
 40
99.69470347543188
100
AcDbArc
 50
225.7165668180263
 51
248.8500530926028
  0
ARC
  5
10E
100
AcDbEntity
  8
0
  6
ByLayer
 62
    1
370
   -1
100
AcDbCircle
 10
-37201.28969369052
 20
14480.14638963417
 40
1.133402070396412
100
AcDbArc
 50
46.11296015271238
 51
195.7581926005657
  0
ARC
  5
10F
100
AcDbEntity
  8
0
  6
ByLayer
 62
    1
370
   -1
100
AcDbCircle
 10
-37194.22630622905
 20
14479.97333730586
 40
8.15530560932908
100
AcDbArc
 50
180.9467742709093
 51
220.039500415859
  0
ARC
  5
110
100
AcDbEntity
  8
0
  6
ByLayer
 62
    1
370
   -1
100
AcDbCircle
 10
-36978.113054743
 20
14762.32975417353
 40
363.5354443223081
100
AcDbArc
 50
232.2909942244323
 51
237.0284857831588
  0
ARC
  5
111
100
AcDbEntity
  8
0
  6
ByLayer
 62
    1
370
   -1
100
AcDbCircle
 10
-37177.03719452373
 20
14456.5781115043
 40
1.324634153469924
100
AcDbArc
 50
262.0848857557836
 51
35.36973586087628
  0
ARC
  5
112
100
AcDbEntity
  8
0
  6
ByLayer
 62
    1
370
   -1
100
AcDbCircle
 10
-37177.90617313115
 20
14473.2107293863
 40
17.95776186699265
100
AcDbArc
 50
236.5460251787938
 51
272.1910905329257
  0
ARC
  5
113
100
AcDbEntity
  8
0
  6
ByLayer
 62
    1
370
   -1
100
AcDbCircle
 10
-37188.66257662656
 20
14457.12477419546
 40
1.396948168477609
100
AcDbArc
 50
52.16451701541645
 51
185.666126313245
  0
ARC
  5
114
100
AcDbEntity
  8
0
  6
ByLayer
 62
    1
370
   -1
100
AcDbCircle
 10
-37183.14816687478
 20
14457.78243406438
 40
6.950217403649605
100
AcDbArc
 50
186.5729833768883
 51
214.7115310871175
  0
ARC
  5
115
100
AcDbEntity
  8
0
  6
ByLayer
 62
    1
370
   -1
100
AcDbCircle
 10
-37176.6541240143
 20
14467.83208957272
 40
18.58027669976669
100
AcDbArc
 50
228.928179342892
 51
243.5229745035979
  0
ARC
  5
116
100
AcDbEntity
  8
0
  6
ByLayer
 62
    1
370
   -1
100
AcDbCircle
 10
-37186.91459611722
 20
14450.31221045458
 40
2.167139844444932
100
AcDbArc
 50
267.3585359854624
 51
24.20195731038116
  0
ARC
  5
117
100
AcDbEntity
  8
0
  6
ByLayer
 62
    1
370
   -1
100
AcDbCircle
 10
-37181.84660350829
 20
14470.08269144375
 40
22.53586111987391
100
AcDbArc
 50
229.5141369766997
 51
256.7431068044734
  0
ARC
  5
118
100
AcDbEntity
  8
0
  6
ByLayer
 62
    1
370
   -1
100
AcDbCircle
 10
-37196.58959340788
 20
14452.39002273517
 40
0.563760215207541
100
AcDbArc
 50
78.60869217140178
 51
169.2634578511197
  0
ARC
  5
119
100
AcDbEntity
  8
0
  6
ByLayer
 62
    1
370
   -1
100
AcDbCircle
 10
-37187.18344615302
 20
14451.98301356108
 40
9.973191233551981
100
AcDbArc
 50
177.057081840144
 51
242.0564883203891
  0
ARC
  5
11A
100
AcDbEntity
  8
0
  6
ByLayer
 62
    1
370
   -1
100
AcDbCircle
 10
-37192.95477700418
 20
14442.28590010478
 40
1.411234325843626
100
AcDbArc
 50
294.2528690922558
 51
38.92574336262251
  0
ARC
  5
11B
100
AcDbEntity
  8
0
  6
ByLayer
 62
    1
370
   -1
100
AcDbCircle
 10
-37192.88581966252
 20
14448.11388025576
 40
7.13296881471688
100
AcDbArc
 50
240.6548938363922
 51
274.1059480066738
  0
ARC
  5
11C
100
AcDbEntity
  8
0
  6
ByLayer
 62
    1
370
   -1
100
AcDbCircle
 10
-37196.74033451749
 20
14441.38459906905
 40
0.6249076889335895
100
AcDbArc
 50
54.95109541775562
 51
179.6530807447502
  0
ARC
  5
11D
100
AcDbEntity
  8
0
  6
ByLayer
 62
    1
370
   -1
100
AcDbCircle
 10
-37200.24153889729
 20
14442.02002691034
 40
2.944846828971317
100
AcDbArc
 50
270.6024023834809
 51
347.614313360241
  0
ARC
  5
11E
100
AcDbEntity
  8
0
  6
ByLayer
 62
    1
370
   -1
100
AcDbCircle
 10
-37200.44127416539
 20
14461.90867149072
 40
22.83449403742828
100
AcDbArc
 50
262.4220914132613
 51
270.5788682156073
  0
ARC
  5
11F
100
AcDbEntity
  8
0
  6
ByLayer
 62
    1
370
   -1
100
AcDbCircle
 10
-37197.79700461167
 20
14450.53159159139
 40
12.59871206367753
100
AcDbArc
 50
206.0297790210717
 51
243.3269284147695
  0
ARC
  5
120
100
AcDbEntity
  8
0
  6
ByLayer
 62
    1
370
   -1
100
AcDbCircle
 10
-37215.00057796929
 20
14440.21609205195
 40
7.584183426043547
100
AcDbArc
 50
39.13448950904257
 51
77.1746010416212
  0
ARC
  5
121
100
AcDbEntity
  8
0
  6
ByLayer
 62
    1
370
   -1
100
AcDbCircle
 10
-37213.54991807444
 20
14446.90776394334
 40
0.740848851429896
100
AcDbArc
 50
71.67866340004156
 51
166.3686086893601
  0
ARC
  5
122
100
AcDbEntity
  8
0
  6
ByLayer
 62
    1
370
   -1
100
AcDbCircle
 10
-37205.31954019232
 20
14446.84618225719
 40
8.953474135643994
100
AcDbArc
 50
178.4884369165539
 51
225.2626961682191
  0
ARC
  5
123
100
AcDbEntity
  8
0
  6
ByLayer
 62
    1
370
   -1
100
AcDbCircle
 10
-37153.49218655517
 20
14514.18481943153
 40
93.86432016272624
100
AcDbArc
 50
231.7356271245203
 51
235.3267783605627
  0
ARC
  5
124
100
AcDbEntity
  8
0
  6
ByLayer
 62
    1
370
   -1
100
AcDbCircle
 10
-37207.92557697411
 20
14435.75526974612
 40
1.610670634789951
100
AcDbArc
 50
337.4093790871306
 51
50.04137845171398
  0
ARC
  5
125
100
AcDbEntity
  8
0
  6
ByLayer
 62
    1
370
   -1
100
AcDbCircle
 10
-37214.43806751616
 20
14437.23404651909
 40
8.269994243203922
100
AcDbArc
 50
297.762923020984
 51
345.3076652714738
  0
ARC
  5
126
100
AcDbEntity
  8
0
  6
ByLayer
 62
    1
370
   -1
100
AcDbCircle
 10
-37213.96960481249
 20
14442.22716179721
 40
12.76765986827551
100
AcDbArc
 50
259.1160778341896
 51
285.3687561931521
  0
ARC
  5
127
100
AcDbEntity
  8
0
  6
ByLayer
 62
    1
370
   -1
100
AcDbCircle
 10
-37216.69133339925
 20
14429.25814729397
 40
0.5314739222403168
100
AcDbArc
 50
54.1932549718902
 51
225.1212676103472
  0
ARC
  5
128
100
AcDbEntity
  8
0
  6
ByLayer
 62
    1
370
   -1
100
AcDbCircle
 10
-37219.62712833474
 20
14428.03313778737
 40
2.6976655274427
100
AcDbArc
 50
265.2054855335131
 51
18.33041530429473
  0
ARC
  5
129
100
AcDbEntity
  8
0
  6
ByLayer
 62
    1
370
   -1
100
AcDbCircle
 10
-37220.89732589043
 20
14422.23501117503
 40
3.280689207890139
100
AcDbArc
 50
71.43107011312848
 51
172.238794172647
  0
ARC
  5
12A
100
AcDbEntity
  8
0
  6
ByLayer
 62
    1
370
   -1
100
AcDbCircle
 10
-37230.13532234804
 20
14421.96598559015
 40
6.029553605378653
100
AcDbArc
 50
261.6732458576613
 51
6.782222166012132
  0
ARC
  5
12B
100
AcDbEntity
  8
0
  6
ByLayer
 62
    1
370
   -1
100
AcDbCircle
 10
-37229.44238202463
 20
14412.5163134743
 40
3.819527636837442
100
AcDbArc
 50
114.2068634581841
 51
196.8134499169339
  0
ARC
  5
12C
100
AcDbEntity
  8
0
  6
ByLayer
 62
    1
370
   -1
100
AcDbCircle
 10
-37236.43562909593
 20
14409.14594464287
 40
4.033392209039006
100
AcDbArc
 50
342.4997255704336
 51
34.1732598945728
  0
ARC
  5
12D
100
AcDbEntity
  8
0
  6
ByLayer
 62
    1
370
   -1
100
AcDbCircle
 10
-37240.20725909712
 20
14412.21562437835
 40
8.739532426815076
100
AcDbArc
 50
277.8533373488588
 51
330.6579767043443
  0
ARC
  5
12E
100
AcDbEntity
  8
0
  6
ByLayer
 62
    1
370
   -1
100
AcDbCircle
 10
-37237.09551396701
 20
14399.49040117475
 40
4.497000357454504
100
AcDbArc
 50
115.2403475056171
 51
182.6211016487541
  0
ARC
  5
12F
100
AcDbEntity
  8
0
  6
ByLayer
 62
    1
370
   -1
100
AcDbCircle
 10
-37248.04143751855
 20
14400.9958486878
 40
6.676614049949238
100
AcDbArc
 50
259.0363830404272
 51
345.1504070297309
  0
ARC
  5
130
100
AcDbEntity
  8
0
  6
ByLayer
 62
    1
370
   -1
100
AcDbCircle
 10
-37250.10998150659
 20
14391.65715999072
 40
2.896255100168437
100
AcDbArc
 50
73.9911111503185
 51
159.0828712375533
  0
ARC
  5
131
100
AcDbEntity
  8
0
  6
ByLayer
 62
    1
370
   -1
100
AcDbCircle
 10
-37258.67727050115
 20
14393.87971684324
 40
5.981182926432063
100
AcDbArc
 50
256.5600575774858
 51
348.5382425616626
  0
ARC
  5
132
100
AcDbEntity
  8
0
  6
ByLayer
 62
    1
370
   -1
100
AcDbCircle
 10
-37260.41946363406
 20
14386.57227457549
 40
1.531074431142783
100
AcDbArc
 50
76.7081724204142
 51
172.2367242333843
  0
ARC
  5
133
100
AcDbEntity
  8
0
  6
ByLayer
 62
    1
370
   -1
100
AcDbCircle
 10
-37268.39278488903
 20
14390.89460073179
 40
7.656432081351384
100
AcDbArc
 50
258.3588829482305
 51
327.4848271350368
  0
ARC
  5
134
100
AcDbEntity
  8
0
  6
ByLayer
 62
    1
370
   -1
100
AcDbCircle
 10
-37270.1565258027
 20
14382.12664918585
 40
1.287734679406836
100
AcDbArc
 50
80.21648276394046
 51
202.4151281237999
  0
ARC
  5
135
100
AcDbEntity
  8
0
  6
ByLayer
 62
    1
370
   -1
100
AcDbCircle
 10
-37298.59593315441
 20
14370.4941183753
 40
29.4387363768546
100
AcDbArc
 50
350.132510452547
 51
22.23856540692884
  0
ARC
  5
136
100
AcDbEntity
  8
0
  6
ByLayer
 62
    1
370
   -1
100
AcDbCircle
 10
-37329.99276880429
 20
14384.84333479063
 40
63.43738457673293
100
AcDbArc
 50
331.4422023636326
 51
342.1984583299787
  0
ARC
  5
137
100
AcDbEntity
  8
0
  6
ByLayer
 62
    1
370
   -1
100
AcDbCircle
 10
-37272.29534517715
 20
14353.30385056335
 40
2.320713544831713
100
AcDbArc
 50
148.4713818700558
 51
343.6532039482817
  0
ARC
  5
138
100
AcDbEntity
  8
0
  6
ByLayer
 62
    1
370
   -1
100
AcDbCircle
 10
-37297.16097911049
 20
14369.76201557564
 40
32.04376801280808
100
AcDbArc
 50
327.7239675397543
 51
353.2740502552064
  0
ARC
  5
139
100
AcDbEntity
  8
0
  6
ByLayer
 62
    1
370
   -1
100
AcDbCircle
 10
-37246.74616143018
 20
14407.05779623862
 40
45.06271229923355
100
AcDbArc
 50
245.6335340071954
 51
260.063411272235
  0
ARC
  5
13A
100
AcDbEntity
  8
0
  6
ByLayer
 62
    1
370
   -1
100
AcDbCircle
 10
-37250.34835937062
 20
14383.40624659923
 40
21.15108250498423
100
AcDbArc
 50
258.6191397512002
 51
301.662895551792
  0
ARC
  5
13B
100
AcDbEntity
  8
0
  6
ByLayer
 62
    1
370
   -1
100
AcDbCircle
 10
-37232.42740567429
 20
14350.06762815976
 40
16.78325602308166
100
AcDbArc
 50
19.49735588535517
 51
113.9699226576405
  0
ARC
  5
13C
100
AcDbEntity
  8
0
  6
ByLayer
 62
    1
370
   -1
100
AcDbCircle
 10
-37248.73629703405
 20
14349.49706667579
 40
32.71721915270591
100
AcDbArc
 50
355.7015673195441
 51
10.874177792514
  0
ARC
  5
13D
100
AcDbEntity
  8
0
  6
ByLayer
 62
    1
370
   -1
100
AcDbCircle
 10
-37222.11549449264
 20
14342.87577353804
 40
7.309856442324329
100
AcDbArc
 50
330.0191861477336
 51
34.77381085354846
  0
ARC
  5
13E
100
AcDbEntity
  8
0
  6
ByLayer
 62
    1
370
   -1
100
AcDbCircle
 10
-37128.8436618172
 20
14263.2736097326
 40
115.442121780281
100
AcDbArc
 50
138.8600998991795
 51
156.7962868142242
  0
ARC
  5
13F
100
AcDbEntity
  8
0
  6
ByLayer
 62
    1
370
   -1
100
AcDbCircle
 10
-37228.22499880802
 20
14305.54496928873
 40
7.451001660201557
100
AcDbArc
 50
154.4551115080685
 51
199.4211616203648
  0
ARC
  5
140
100
AcDbEntity
  8
0
  6
ByLayer
 62
    1
370
   -1
100
AcDbCircle
 10
-37166.42374349597
 20
14162.6919637042
 40
3.795013960788382
100
AcDbArc
 50
127.6647771744277
 51
209.8710779811704
  0
ARC
  5
141
100
AcDbEntity
  8
0
  6
ByLayer
 62
    1
370
   -1
100
AcDbCircle
 10
-37178.7377977504
 20
14206.18980482198
 40
41.70903456179302
100
AcDbArc
 50
283.8652852513448
 51
16.1872464460732
  0
ARC
  5
142
100
AcDbEntity
  8
0
  6
ByLayer
 62
    1
370
   -1
100
AcDbCircle
 10
-37097.75849352192
 20
14281.57212252191
 40
75.75902087900482
100
AcDbArc
 50
195.841496467296
 51
237.3038511474091
  0
ARC
  5
143
100
AcDbEntity
  8
0
  6
ByLayer
 62
    1
370
   -1
100
AcDbCircle
 10
-37117.1728237249
 20
14270.84307322904
 40
54.3856063486316
100
AcDbArc
 50
169.3129586797459
 51
175.7192808458086
  0
ARC
  5
144
100
AcDbEntity
  8
0
  6
ByLayer
 62
    1
370
   -1
100
AcDbCircle
 10
-37145.86985778175
 20
14270.18159728258
 40
26.9782235932994
100
AcDbArc
 50
110.2480587990547
 51
156.5244554939705
  0
ARC
  5
145
100
AcDbEntity
  8
0
  6
ByLayer
 62
    1
370
   -1
100
AcDbCircle
 10
-37152.1909443387
 20
14287.29754076992
 40
8.732360769237996
100
AcDbArc
 50
36.54446153046489
 51
110.2028721343114
  0
ARC
  5
146
100
AcDbEntity
  8
0
  6
ByLayer
 62
    1
370
   -1
100
AcDbCircle
 10
-37148.27154552845
 20
14290.76146269671
 40
3.549482041037505
100
AcDbArc
 50
313.2546863612467
 51
29.27550749761024
  0
ARC
  5
147
100
AcDbEntity
  8
0
  6
ByLayer
 62
    1
370
   -1
100
AcDbCircle
 10
-37147.58416423365
 20
14285.08726080904
 40
3.54780031550129
100
AcDbArc
 50
60.53980402852495
 51
124.4341352950456
  0
ARC
  5
148
100
AcDbEntity
  8
0
  6
ByLayer
 62
    1
370
   -1
100
AcDbCircle
 10
-37143.04150578907
 20
14282.25820213697
 40
8.718315710721155
100
AcDbArc
 50
138.6903854112912
 51
220.0808613614361
  0
ARC
  5
149
100
AcDbEntity
  8
0
  6
ByLayer
 62
    1
370
   -1
100
AcDbCircle
 10
-37144.97508526464
 20
14283.44930936825
 40
8.291095311905245
100
AcDbArc
 50
235.1555393884023
 51
337.444477267444
  0
ARC
  5
14A
100
AcDbEntity
  8
0
  6
ByLayer
 62
    1
370
   -1
100
AcDbCircle
 10
-37151.22765284689
 20
14288.08797429092
 40
15.95647662899239
100
AcDbArc
 50
330.6582748315323
 51
51.01927820475244
  0
ARC
  5
14B
100
AcDbEntity
  8
0
  6
ByLayer
 62
    1
370
   -1
100
AcDbCircle
 10
-37151.50420062828
 20
14282.33763392867
 40
20.87958195644382
100
AcDbArc
 50
60.39743964091016
 51
130.6088221297097
  0
ARC
  5
14C
100
AcDbEntity
  8
0
  6
ByLayer
 62
    1
370
   -1
100
AcDbCircle
 10
-37151.97402970865
 20
14276.84112386443
 40
25.05736065921956
100
AcDbArc
 50
121.5753086880583
 51
172.5809230709629
  0
ARC
  5
14D
100
AcDbEntity
  8
0
  6
ByLayer
 62
    1
370
   -1
100
AcDbCircle
 10
-37121.62201313976
 20
14268.46764536143
 40
56.40714224690789
100
AcDbArc
 50
168.1232093589106
 51
173.4494216077749
  0
ARC
  5
14E
100
AcDbEntity
  8
0
  6
ByLayer
 62
    1
370
   -1
100
AcDbCircle
 10
-37182.31446417481
 20
14221.15455575043
 40
22.08680426847009
100
AcDbArc
 50
314.7639970867038
 51
56.20091161554064
  0
ARC
  5
14F
100
AcDbEntity
  8
0
  6
ByLayer
 62
    1
370
   -1
100
AcDbCircle
 10
-37172.84742925767
 20
14189.81296241381
 40
16.80081523687539
100
AcDbArc
 50
291.6283486520269
 51
68.76105927633827
  0
ARC
  5
150
100
AcDbEntity
  8
0
  6
ByLayer
 62
    1
370
   -1
100
AcDbCircle
 10
-37171.46377590429
 20
14183.86076961413
 40
10.79592019559932
100
AcDbArc
 50
246.1737351332629
 51
296.4510943915453
  0
ARC
  5
151
100
AcDbEntity
  8
0
  6
ByLayer
 62
    1
370
   -1
100
AcDbCircle
 10
-36789.59274422926
 20
14659.0082829666
 40
620.0185165306224
100
AcDbArc
 50
230.5555918712573
 51
231.4691037701178
  0
LINE
  5
152
100
AcDbEntity
  8
0
  6
ByLayer
 62
    1
370
   -1
100
AcDbLine
 10
-37183.50901348621
 20
14180.2543254361
 11
-37184.19459241722
 21
14271.87507276307
  0
LINE
  5
153
100
AcDbEntity
  8
0
  6
ByLayer
 62
    1
370
   -1
100
AcDbLine
 10
-37186.27724099019
 20
14180.83681614524
 11
-37186.51324959257
 21
14271.87507276307
  0
LINE
  5
154
100
AcDbEntity
  8
0
  6
ByLayer
 62
    1
370
   -1
100
AcDbLine
 10
-37186.27724099019
 20
14180.83681614524
 11
-37190.18785259407
 21
14180.81395508586
  0
ARC
  5
155
100
AcDbEntity
  8
0
  6
ByLayer
 62
    1
370
   -1
100
AcDbCircle
 10
-37163.86086027168
 20
14273.96156467701
 40
3.533779279877269
100
AcDbArc
 50
216.1883843234645
 51
164.5561835497205
  0
LINE
  5
156
100
AcDbEntity
  8
0
  6
ByLayer
 62
    1
370
   -1
100
AcDbLine
 10
-37167.2670419928
 20
14274.90258650547
 11
-37171.40671100829
 21
14274.90258650547
  0
LINE
  5
157
100
AcDbEntity
  8
0
  6
ByLayer
 62
    1
370
   -1
100
AcDbLine
 10
-37166.71290295928
 20
14271.87507276307
 11
-37171.54863778658
 21
14271.87507276307
  0
LINE
  5
158
100
AcDbEntity
  8
0
  6
ByLayer
 62
    1
370
   -1
100
AcDbLine
 10
-37190.18815632788
 20
14180.86395416331
 11
-37190.74102959154
 21
14271.87507276307
  0
LINE
  5
159
100
AcDbEntity
  8
0
  6
ByLayer
 62
    1
370
   -1
100
AcDbLine
 10
-37186.51324959257
 20
14271.87507276307
 11
-37190.74102959153
 21
14271.87507276307
  0
LINE
  5
15A
100
AcDbEntity
  8
0
  6
ByLayer
 62
    1
370
   -1
100
AcDbLine
 10
-37177.66090346545
 20
14274.90258650547
 11
-37192.12991474784
 21
14274.90258650547
  0
LINE
  5
15B
100
AcDbEntity
  8
0
  6
ByLayer
 62
    1
370
   -1
100
AcDbLine
 10
-37177.92614384937
 20
14271.87507276307
 11
-37184.19459241722
 21
14271.87507276307
  0
ARC
  5
15C
100
AcDbEntity
  8
0
  6
ByLayer
 62
    1
370
   -1
100
AcDbCircle
 10
-37117.1728237249
 20
14270.84307322904
 40
54.3856063486316
100
AcDbArc
 50
178.9127129257002
 51
190.5433283510374
  0
ARC
  5
15D
100
AcDbEntity
  8
0
  6
ByLayer
 62
    1
370
   -1
100
AcDbCircle
 10
-37121.62201313976
 20
14268.46764536143
 40
56.40714224690789
100
AcDbArc
 50
176.5367835898864
 51
210.8901850659123
  0
ARC
  5
15E
100
AcDbEntity
  8
0
  6
ByLayer
 62
    1
370
   -1
100
AcDbCircle
 10
-37217.83608599972
 20
14162.6919637042
 40
3.795013960788382
100
AcDbArc
 50
330.1289220187433
 51
52.33522282551266
  0
ARC
  5
15F
100
AcDbEntity
  8
0
  6
ByLayer
 62
    1
370
   -1
100
AcDbCircle
 10
-37205.52203174528
 20
14206.18980482198
 40
41.70903456179302
100
AcDbArc
 50
163.8127535538192
 51
256.1347147487653
  0
ARC
  5
160
100
AcDbEntity
  8
0
  6
ByLayer
 62
    1
370
   -1
100
AcDbCircle
 10
-37286.50133597377
 20
14281.57212252191
 40
75.75902087900482
100
AcDbArc
 50
302.6961488524527
 51
344.1585035327469
  0
ARC
  5
161
100
AcDbEntity
  8
0
  6
ByLayer
 62
    1
370
   -1
100
AcDbCircle
 10
-37267.08700577078
 20
14270.84307322904
 40
54.3856063486316
100
AcDbArc
 50
4.280719154189955
 51
10.6870413201824
  0
ARC
  5
162
100
AcDbEntity
  8
0
  6
ByLayer
 62
    1
370
   -1
100
AcDbCircle
 10
-37267.08700577078
 20
14270.84307322904
 40
54.3856063486316
100
AcDbArc
 50
349.4566716489247
 51
1.087287074298182
  0
ARC
  5
163
100
AcDbEntity
  8
0
  6
ByLayer
 62
    1
370
   -1
100
AcDbCircle
 10
-37238.38997171394
 20
14270.18159728258
 40
26.9782235932994
100
AcDbArc
 50
23.47554450598065
 51
69.75194120073211
  0
ARC
  5
164
100
AcDbEntity
  8
0
  6
ByLayer
 62
    1
370
   -1
100
AcDbCircle
 10
-37232.06888515699
 20
14287.29754076992
 40
8.732360769237996
100
AcDbArc
 50
69.79712786546135
 51
143.455538469777
  0
ARC
  5
165
100
AcDbEntity
  8
0
  6
ByLayer
 62
    1
370
   -1
100
AcDbCircle
 10
-37235.98828396724
 20
14290.76146269671
 40
3.549482041037505
100
AcDbArc
 50
150.7244925022675
 51
226.7453136387863
  0
ARC
  5
166
100
AcDbEntity
  8
0
  6
ByLayer
 62
    1
370
   -1
100
AcDbCircle
 10
-37236.67566526203
 20
14285.08726080904
 40
3.54780031550129
100
AcDbArc
 50
55.56586470472929
 51
119.4601959716452
  0
ARC
  5
167
100
AcDbEntity
  8
0
  6
ByLayer
 62
    1
370
   -1
100
AcDbCircle
 10
-37241.21832370661
 20
14282.25820213697
 40
8.718315710721155
100
AcDbArc
 50
319.9191386383179
 51
41.30961458853283
  0
ARC
  5
168
100
AcDbEntity
  8
0
  6
ByLayer
 62
    1
370
   -1
100
AcDbCircle
 10
-37239.28474423105
 20
14283.44930936825
 40
8.291095311905245
100
AcDbArc
 50
202.5555227325516
 51
304.8444606115115
  0
ARC
  5
169
100
AcDbEntity
  8
0
  6
ByLayer
 62
    1
370
   -1
100
AcDbCircle
 10
-37233.0321766488
 20
14288.08797429092
 40
15.95647662899239
100
AcDbArc
 50
174.9564169091569
 51
209.3417251684689
  0
ARC
  5
16A
100
AcDbEntity
  8
0
  6
ByLayer
 62
    1
370
   -1
100
AcDbCircle
 10
-37232.7556288674
 20
14282.33763392867
 40
20.87958195644382
100
AcDbArc
 50
49.39117787037935
 51
96.86683714962514
  0
ARC
  5
16B
100
AcDbEntity
  8
0
  6
ByLayer
 62
    1
370
   -1
100
AcDbCircle
 10
-37232.28579978703
 20
14276.84112386443
 40
25.05736065921956
100
AcDbArc
 50
7.419076929044276
 51
58.42469131194333
  0
ARC
  5
16C
100
AcDbEntity
  8
0
  6
ByLayer
 62
    1
370
   -1
100
AcDbCircle
 10
-37262.63781635593
 20
14268.46764536143
 40
56.40714224690789
100
AcDbArc
 50
6.550578392222801
 51
11.8767906411081
  0
ARC
  5
16D
100
AcDbEntity
  8
0
  6
ByLayer
 62
    1
370
   -1
100
AcDbCircle
 10
-37262.63781635593
 20
14268.46764536143
 40
56.40714224690789
100
AcDbArc
 50
329.109814934273
 51
3.463216410101535
  0
ARC
  5
16E
100
AcDbEntity
  8
0
  6
ByLayer
 62
    1
370
   -1
100
AcDbCircle
 10
-37201.94536532087
 20
14221.15455575043
 40
22.08680426847009
100
AcDbArc
 50
123.799088384692
 51
225.1062969787643
  0
ARC
  5
16F
100
AcDbEntity
  8
0
  6
ByLayer
 62
    1
370
   -1
100
AcDbCircle
 10
-37211.41240023801
 20
14189.81296241381
 40
16.80081523687539
100
AcDbArc
 50
111.238940723663
 51
248.3716513482517
  0
ARC
  5
170
100
AcDbEntity
  8
0
  6
ByLayer
 62
    1
370
   -1
100
AcDbCircle
 10
-37212.7960535914
 20
14183.86076961413
 40
10.79592019559932
100
AcDbArc
 50
243.5489056084958
 51
293.8262648666488
  0
ARC
  5
171
100
AcDbEntity
  8
0
  6
ByLayer
 62
    1
370
   -1
100
AcDbCircle
 10
-37594.66708526642
 20
14659.0082829666
 40
620.0185165306224
100
AcDbArc
 50
308.5308962299154
 51
309.4444081290368
  0
LINE
  5
172
100
AcDbEntity
  8
0
  6
ByLayer
 62
    1
370
   -1
100
AcDbLine
 10
-37200.75119013857
 20
14180.20432683585
 11
-37200.06523707847
 21
14271.87507276307
  0
LINE
  5
173
100
AcDbEntity
  8
0
  6
ByLayer
 62
    1
370
   -1
100
AcDbLine
 10
-37198.19390154766
 20
14180.86395448193
 11
-37197.74657990312
 21
14271.87507276307
  0
LINE
  5
174
100
AcDbEntity
  8
0
  6
ByLayer
 62
    1
370
   -1
100
AcDbLine
 10
-37198.19414729578
 20
14180.81395508586
 11
-37195.0071822122
 21
14180.81395508586
  0
ARC
  5
175
100
AcDbEntity
  8
0
  6
ByLayer
 62
    1
370
   -1
100
AcDbCircle
 10
-37220.39896922401
 20
14273.96156467701
 40
3.533779279877269
100
AcDbArc
 50
15.44381645030751
 51
323.8116156764137
  0
LINE
  5
176
100
AcDbEntity
  8
0
  6
ByLayer
 62
    1
370
   -1
100
AcDbLine
 10
-37216.99278750289
 20
14274.90258650547
 11
-37212.8531184874
 21
14274.90258650547
  0
LINE
  5
177
100
AcDbEntity
  8
0
  6
ByLayer
 62
    1
370
   -1
100
AcDbLine
 10
-37206.59892603023
 20
14274.90258650547
 11
-37192.12991474784
 21
14274.90258650547
  0
LINE
  5
178
100
AcDbEntity
  8
0
  6
ByLayer
 62
    1
370
   -1
100
AcDbLine
 10
-37217.5469265364
 20
14271.87507276307
 11
-37212.7111917091
 21
14271.87507276307
  0
LINE
  5
179
100
AcDbEntity
  8
0
  6
ByLayer
 62
    1
370
   -1
100
AcDbLine
 10
-37206.33368564632
 20
14271.87507276307
 11
-37200.06523707847
 21
14271.87507276307
  0
LINE
  5
17A
100
AcDbEntity
  8
0
  6
ByLayer
 62
    1
370
   -1
100
AcDbLine
 10
-37197.74657990312
 20
14271.87507276307
 11
-37193.43967759575
 21
14271.87507276307
  0
LINE
  5
17B
100
AcDbEntity
  8
0
  6
ByLayer
 62
    1
370
   -1
100
AcDbLine
 10
-37195.0071822122
 20
14180.81395508586
 11
-37193.43967759574
 21
14271.87507276307
  0
ARC
  5
17C
100
AcDbEntity
  8
0
  6
ByLayer
 62
    1
370
   -1
100
AcDbCircle
 10
-37251.52139463497
 20
14299.44409151849
 40
10.28592636594747
100
AcDbArc
 50
264.487980859752
 51
284.6101090590365
  0
ARC
  5
17D
100
AcDbEntity
  8
0
  6
ByLayer
 62
    1
370
   -1
100
AcDbCircle
 10
-37242.41025572204
 20
14263.00969615853
 40
28.07534183823425
100
AcDbArc
 50
111.0827542434233
 51
139.3416440984154
  0
ARC
  5
17E
100
AcDbEntity
  8
0
  6
ByLayer
 62
    1
370
   -1
100
AcDbCircle
 10
-37280.37556295872
 20
14292.17312457935
 40
19.89904792099987
100
AcDbArc
 50
256.7164737790823
 51
326.8858758856986
  0
ARC
  5
17F
100
AcDbEntity
  8
0
  6
ByLayer
 62
    1
370
   -1
100
AcDbCircle
 10
-37259.28291349267
 20
14281.24383620976
 40
27.05879442738964
100
AcDbArc
 50
141.1029845613176
 51
198.1429569191944
  0
ARC
  5
180
100
AcDbEntity
  8
0
  6
ByLayer
 62
    1
370
   -1
100
AcDbCircle
 10
-37274.1449667783
 20
14287.05432268019
 40
12.78298504695915
100
AcDbArc
 50
67.4554201662726
 51
118.9991751598712
  0
ARC
  5
181
100
AcDbEntity
  8
0
  6
ByLayer
 62
    1
370
   -1
100
AcDbCircle
 10
-37265.79758347069
 20
14303.43009081029
 40
5.723547735195323
100
AcDbArc
 50
232.976904284352
 51
23.84445016794626
  0
ARC
  5
182
100
AcDbEntity
  8
0
  6
ByLayer
 62
    1
370
   -1
100
AcDbCircle
 10
-37246.4288184103
 20
14302.184637803
 40
14.57500547572127
100
AcDbArc
 50
95.23237896881174
 51
165.8654004458255
  0
ARC
  5
183
100
AcDbEntity
  8
0
  6
ByLayer
 62
    1
370
   -1
100
AcDbCircle
 10
-37249.54789343505
 20
14325.45253694117
 40
8.934749150787853
100
AcDbArc
 50
281.5562824789296
 51
314.351229664672
  0
ARC
  5
184
100
AcDbEntity
  8
0
  6
ByLayer
 62
    1
370
   -1
100
AcDbCircle
 10
-37255.67018088499
 20
14333.3224301135
 40
18.87554688132802
100
AcDbArc
 50
310.9384714168263
 51
26.29114416283594
  0
ARC
  5
185
100
AcDbEntity
  8
0
  6
ByLayer
 62
    1
370
   -1
100
AcDbCircle
 10
-37240.6528035759
 20
14339.4114164194
 40
2.965041169253416
100
AcDbArc
 50
50.00769191265757
 51
113.4624017424507
  0
ARC
  5
186
100
AcDbEntity
  8
0
  6
ByLayer
 62
    1
370
   -1
100
AcDbCircle
 10
-37225.50365055601
 20
14305.91161988187
 40
39.73064875667457
100
AcDbArc
 50
114.2682685974613
 51
138.4827030273101
  0
ARC
  5
187
100
AcDbEntity
  8
0
  6
ByLayer
 62
    1
370
   -1
100
AcDbCircle
 10
-37263.09571811794
 20
14337.79696303928
 40
9.60852290715734
100
AcDbArc
 50
281.8628765415119
 51
324.716959423315
  0
ARC
  5
188
100
AcDbEntity
  8
0
  6
ByLayer
 62
    1
370
   -1
100
AcDbCircle
 10
-37269.88193153742
 20
14373.60294057115
 40
46.05043200640186
100
AcDbArc
 50
252.8807557400002
 51
280.9678104010116
  0
ARC
  5
189
100
AcDbEntity
  8
0
  6
ByLayer
 62
    1
370
   -1
100
AcDbCircle
 10
-37285.08446638723
 20
14325.18423579128
 40
4.706204232336175
100
AcDbArc
 50
69.51402785945986
 51
128.6446404017146
  0
ARC
  5
18A
100
AcDbEntity
  8
0
  6
ByLayer
 62
    1
370
   -1
100
AcDbCircle
 10
-37304.57163496846
 20
14341.95992607954
 40
21.10574504833522
100
AcDbArc
 50
288.0796272121791
 51
321.6339482576286
  0
ARC
  5
18B
100
AcDbEntity
  8
0
  6
ByLayer
 62
    1
370
   -1
100
AcDbCircle
 10
-37323.38976151639
 20
14351.40142082142
 40
38.91134667987172
100
AcDbArc
 50
283.189277415449
 51
310.6883929609244
  0
ARC
  5
18C
100
AcDbEntity
  8
0
  6
ByLayer
 62
    1
370
   -1
100
AcDbCircle
 10
-37271.73203597044
 20
14323.43802363576
 40
43.91482377838264
100
AcDbArc
 50
176.5111363580955
 51
193.057377435502
  0
ARC
  5
18D
100
AcDbEntity
  8
0
  6
ByLayer
 62
    1
370
   -1
100
AcDbCircle
 10
-37317.63669822587
 20
14325.10326946796
 40
2.303123625558161
100
AcDbArc
 50
25.9321347379767
 51
143.9952549345188
  0
ARC
  5
18E
100
AcDbEntity
  8
0
  6
ByLayer
 62
    1
370
   -1
100
AcDbCircle
 10
-37365.85183152923
 20
14316.4542859447
 40
47.4190213847445
100
AcDbArc
 50
345.2249897666345
 51
12.17782944372042
  0
ARC
  5
18F
100
AcDbEntity
  8
0
  6
ByLayer
 62
    1
370
   -1
100
AcDbCircle
 10
-37361.72630852779
 20
14284.43374610851
 40
46.23992637847429
100
AcDbArc
 50
350.2522356635436
 51
25.52848624500699
  0
ARC
  5
190
100
AcDbEntity
  8
0
  6
ByLayer
 62
    1
370
   -1
100
AcDbCircle
 10
-37351.19750389301
 20
14241.95880569512
 40
49.27875548187485
100
AcDbArc
 50
2.985606678737138
 51
44.67317093713558
  0
ARC
  5
191
100
AcDbEntity
  8
0
  6
ByLayer
 62
    1
370
   -1
100
AcDbCircle
 10
-37232.83857319865
 20
14266.55809622916
 40
72.57239129993613
100
AcDbArc
 50
197.6736449927496
 51
232.4924472968757
  0
ARC
  5
192
100
AcDbEntity
  8
0
  6
ByLayer
 62
    1
370
   -1
100
AcDbCircle
 10
-37286.03334076987
 20
14192.47313675928
 40
18.81210620952382
100
AcDbArc
 50
4.022772789032416
 51
61.39062067836246
  0
ARC
  5
193
100
AcDbEntity
  8
0
  6
ByLayer
 62
    1
370
   -1
100
AcDbCircle
 10
-37197.15956082741
 20
14242.14564345201
 40
85.16528794629497
100
AcDbArc
 50
214.5936298634143
 51
229.4371587076268
  0
ARC
  5
194
100
AcDbEntity
  8
0
  6
ByLayer
 62
    1
370
   -1
100
AcDbCircle
 10
-37279.46510114986
 20
14151.200010184
 40
37.60010652834866
100
AcDbArc
 50
14.79536439894949
 51
44.26946277239625
  0
ARC
  5
195
100
AcDbEntity
  8
0
  6
ByLayer
 62
    1
370
   -1
100
AcDbCircle
 10
-37566.10113933041
 20
14192.20633585652
 40
32.82915187360996
100
AcDbArc
 50
192.4516373187245
 51
253.0586282097516
  0
ARC
  5
196
100
AcDbEntity
  8
0
  6
ByLayer
 62
    1
370
   -1
100
AcDbCircle
 10
-37513.74655950602
 20
14206.42148962335
 40
87.05587821295734
100
AcDbArc
 50
174.2786359500091
 51
194.1580323205005
  0
ARC
  5
197
100
AcDbEntity
  8
0
  6
ByLayer
 62
    1
370
   -1
100
AcDbCircle
 10
-37581.44186062815
 20
14351.04851453488
 40
137.2595481890805
100
AcDbArc
 50
262.0741535136893
 51
268.296466632531
  0
ARC
  5
198
100
AcDbEntity
  8
0
  6
ByLayer
 62
    1
370
   -1
100
AcDbCircle
 10
-37585.10624030134
 20
14208.77143879536
 40
5.095207583246289
100
AcDbArc
 50
28.50269397956373
 51
94.68378415542945
  0
ARC
  5
199
100
AcDbEntity
  8
0
  6
ByLayer
 62
    1
370
   -1
100
AcDbCircle
 10
-37572.89830627137
 20
14213.11628066592
 40
7.963576923815535
100
AcDbArc
 50
193.9024748429984
 51
276.1780244775378
  0
ARC
  5
19A
100
AcDbEntity
  8
0
  6
ByLayer
 62
    1
370
   -1
100
AcDbCircle
 10
-37569.7608312464
 20
14209.99716331217
 40
5.312557734096353
100
AcDbArc
 50
125.4042512740445
 51
244.5796090251537
  0
ARC
  5
19B
100
AcDbEntity
  8
0
  6
ByLayer
 62
    1
370
   -1
100
AcDbCircle
 10
-37585.26404343514
 20
14269.74041438113
 40
56.78907548552642
100
AcDbArc
 50
282.6385367023765
 51
19.01192773906017
  0
ARC
  5
19C
100
AcDbEntity
  8
0
  6
ByLayer
 62
    1
370
   -1
100
AcDbCircle
 10
-37480.41235435947
 20
14296.00145190484
 40
51.74575613256868
100
AcDbArc
 50
132.4618991814631
 51
188.6261222780398
  0
ARC
  5
19D
100
AcDbEntity
  8
0
  6
ByLayer
 62
    1
370
   -1
100
AcDbCircle
 10
-37514.283694445
 20
14332.32525525387
 40
2.13361173361252
100
AcDbArc
 50
335.1861866733725
 51
119.8575460396305
  0
ARC
  5
19E
100
AcDbEntity
  8
0
  6
ByLayer
 62
    1
370
   -1
100
AcDbCircle
 10
-37471.44708072164
 20
14308.8546330954
 40
46.71668597537228
100
AcDbArc
 50
151.1030035010083
 51
209.2253835969697
  0
ARC
  5
19F
100
AcDbEntity
  8
0
  6
ByLayer
 62
    1
370
   -1
100
AcDbCircle
 10
-37555.07543825343
 20
14275.99957994586
 40
44.02003343160845
100
AcDbArc
 50
347.7226394702685
 51
13.19169699774984
  0
ARC
  5
1A0
100
AcDbEntity
  8
0
  6
ByLayer
 62
    1
370
   -1
100
AcDbCircle
 10
-37215.47007504323
 20
14122.21875005942
 40
329.8849244112542
100
AcDbArc
 50
154.0370602005107
 51
157.1680348450202
  0
ARC
  5
1A1
100
AcDbEntity
  8
0
  6
ByLayer
 62
    1
370
   -1
100
AcDbCircle
 10
-37491.84437648277
 20
14243.02724368905
 40
28.58389248640114
100
AcDbArc
 50
165.4174517904737
 51
200.0104934928232
  0
ARC
  5
1A2
100
AcDbEntity
  8
0
  6
ByLayer
 62
    1
370
   -1
100
AcDbCircle
 10
-37542.49629373791
 20
14226.40449591086
 40
24.75770684972675
100
AcDbArc
 50
341.6355750581486
 51
16.04192605984646
  0
ARC
  5
1A3
100
AcDbEntity
  8
0
  6
ByLayer
 62
    1
370
   -1
100
AcDbCircle
 10
-37563.50678162062
 20
14233.78979463894
 40
47.02659363776644
100
AcDbArc
 50
318.6268724906769
 51
341.160870349024
  0
ARC
  5
1A4
100
AcDbEntity
  8
0
  6
ByLayer
 62
    1
370
   -1
100
AcDbCircle
 10
-37512.43781594522
 20
14192.35149993818
 40
18.87384556218761
100
AcDbArc
 50
146.7238725614745
 51
204.1086549822969
  0
ARC
  5
1A5
100
AcDbEntity
  8
0
  6
ByLayer
 62
    1
370
   -1
100
AcDbCircle
 10
-37536.54089119742
 20
14181.31626553388
 40
7.637705738220015
100
AcDbArc
 50
308.2817002204248
 51
25.81415611607188
  0
ARC
  5
1A6
100
AcDbEntity
  8
0
  6
ByLayer
 62
    1
370
   -1
100
AcDbCircle
 10
-37522.97271930039
 20
14160.22535731617
 40
17.4916035988014
100
AcDbArc
 50
120.3432577200287
 51
178.1112672589882
  0
ARC
  5
1A7
100
AcDbEntity
  8
0
  6
ByLayer
 62
    1
370
   -1
100
AcDbCircle
 10
-37512.06409693322
 20
14315.95479294685
 40
60.91593471187653
100
AcDbArc
 50
295.7395157783622
 51
335.3829196630588
  0
ARC
  5
1A8
100
AcDbEntity
  8
0
  6
ByLayer
 62
    1
370
   -1
100
AcDbCircle
 10
-37475.78540605903
 20
14244.97282491424
 40
18.86936618713794
100
AcDbArc
 50
121.3749968315559
 51
173.8519335106209
  0
ARC
  5
1A9
100
AcDbEntity
  8
0
  6
ByLayer
 62
    1
370
   -1
100
AcDbCircle
 10
-37546.82322784169
 20
14258.09207204961
 40
53.44208912007058
100
AcDbArc
 50
322.0172432220626
 51
348.0140984558357
  0
ARC
  5
1AA
100
AcDbEntity
  8
0
  6
ByLayer
 62
    1
370
   -1
100
AcDbCircle
 10
-37412.72561922478
 20
14192.85858760671
 40
97.4960887955373
100
AcDbArc
 50
160.6252232337148
 51
173.1252776333667
  0
ARC
  5
1AB
100
AcDbEntity
  8
0
  6
ByLayer
 62
    1
370
   -1
100
AcDbCircle
 10
-37524.7746718286
 20
14195.77163016609
 40
17.58891265570412
100
AcDbArc
 50
311.8077431519962
 51
29.85968594677068
  0
ARC
  5
1AC
100
AcDbEntity
  8
0
  6
ByLayer
 62
    1
370
   -1
100
AcDbCircle
 10
-37498.96621234946
 20
14175.16827395252
 40
15.95231511659778
100
AcDbArc
 50
151.9850693949335
 51
184.384231454156
  0
ARC
  5
1AD
100
AcDbEntity
  8
0
  6
ByLayer
 62
    1
370
   -1
100
AcDbCircle
 10
-37524.84901047652
 20
14164.59635225904
 40
13.67523830065421
100
AcDbArc
 50
343.8906171486769
 51
43.14891560761438
  0
ARC
  5
1AE
100
AcDbEntity
  8
0
  6
ByLayer
 62
    1
370
   -1
100
AcDbCircle
 10
-37429.75739307086
 20
14338.27938975073
 40
54.77496639899909
100
AcDbArc
 50
212.9434204042622
 51
240.5542909837619
  0
ARC
  5
1AF
100
AcDbEntity
  8
0
  6
ByLayer
 62
    1
370
   -1
100
AcDbCircle
 10
-37474.39585159279
 20
14309.67161678512
 40
1.776978391090722
100
AcDbArc
 50
33.35377291566591
 51
221.5849480250856
  0
ARC
  5
1B0
100
AcDbEntity
  8
0
  6
ByLayer
 62
    1
370
   -1
100
AcDbCircle
 10
-37424.99659023081
 20
14347.11711364738
 40
60.21457950794726
100
AcDbArc
 50
217.2750817979868
 51
263.8006872988278
  0
ARC
  5
1B1
100
AcDbEntity
  8
0
  6
ByLayer
 62
    1
370
   -1
100
AcDbCircle
 10
-37433.05009705595
 20
14285.00226954316
 40
2.734796228040212
100
AcDbArc
 50
271.1786577599742
 51
55.44701760078509
  0
ARC
  5
1B2
100
AcDbEntity
  8
0
  6
ByLayer
 62
    1
370
   -1
100
AcDbCircle
 10
-37422.64574105032
 20
14347.54296819432
 40
66.09007405637092
100
AcDbArc
 50
243.4730211383465
 51
260.9918054503907
  0
ARC
  5
1B3
100
AcDbEntity
  8
0
  6
ByLayer
 62
    1
370
   -1
100
AcDbCircle
 10
-37452.9391896608
 20
14286.54497732866
 40
2.020695069960088
100
AcDbArc
 50
67.40578930800702
 51
229.3198953681387
  0
ARC
  5
1B4
100
AcDbEntity
  8
0
  6
ByLayer
 62
    1
370
   -1
100
AcDbCircle
 10
-37419.24043178994
 20
14328.20980785295
 40
55.60680346865526
100
AcDbArc
 50
230.9715913432283
 51
241.2437781919808
  0
ARC
  5
1B5
100
AcDbEntity
  8
0
  6
ByLayer
 62
    1
370
   -1
100
AcDbCircle
 10
-37447.17588095137
 20
14277.53874061786
 40
2.257369881665902
100
AcDbArc
 50
349.6992084738608
 51
58.36788932605148
  0
ARC
  5
1B6
100
AcDbEntity
  8
0
  6
ByLayer
 62
    1
370
   -1
100
AcDbCircle
 10
-37524.77205245463
 20
14287.09721653701
 40
80.43645188956987
100
AcDbArc
 50
331.4918283057934
 51
352.8855967374513
  0
ARC
  5
1B7
100
AcDbEntity
  8
0
  6
ByLayer
 62
    1
370
   -1
100
AcDbCircle
 10
-37449.08075152685
 20
14246.63804457696
 40
5.4180889086779
100
AcDbArc
 50
157.5604231664601
 51
228.1833175073423
  0
ARC
  5
1B8
100
AcDbEntity
  8
0
  6
ByLayer
 62
    1
370
   -1
100
AcDbCircle
 10
-37489.90018512051
 20
14178.38876226706
 40
74.21215280120458
100
AcDbArc
 50
15.53240631771634
 51
59.91005310508089
  0
ARC
  5
1B9
100
AcDbEntity
  8
0
  6
ByLayer
 62
    1
370
   -1
100
AcDbCircle
 10
-37382.17239518575
 20
14199.98737702217
 40
36.26701489718204
100
AcDbArc
 50
182.7275591501606
 51
210.7076706747793
  0
ARC
  5
1BA
100
AcDbEntity
  8
0
  6
ByLayer
 62
    1
370
   -1
100
AcDbCircle
 10
-37408.77887812593
 20
14186.33117882694
 40
6.677609558977196
100
AcDbArc
 50
226.7508415557689
 51
290.0093114411867
  0
ARC
  5
1BB
100
AcDbEntity
  8
0
  6
ByLayer
 62
    1
370
   -1
100
AcDbCircle
 10
-37405.68859680347
 20
14177.47966580059
 40
2.699905574873377
100
AcDbArc
 50
39.6658103867317
 51
107.3555874335003
  0
ARC
  5
1BC
100
AcDbEntity
  8
0
  6
ByLayer
 62
    1
370
   -1
100
AcDbCircle
 10
-37407.81212901961
 20
14174.49321308907
 40
6.31174655621514
100
AcDbArc
 50
335.6666652749552
 51
48.26227831083752
  0
ARC
  5
1BD
100
AcDbEntity
  8
0
  6
ByLayer
 62
    1
370
   -1
100
AcDbCircle
 10
-37395.47676099692
 20
14161.55547928963
 40
12.25590832546629
100
AcDbArc
 50
122.4957813728357
 51
183.5253732355792
  0
ARC
  5
1BE
100
AcDbEntity
  8
0
  6
ByLayer
 62
    1
370
   -1
100
AcDbCircle
 10
-37396.07506378287
 20
14387.78005195699
 40
96.80938267302153
100
AcDbArc
 50
269.5920695703516
 51
289.2718045025079
  0
ARC
  5
1BF
100
AcDbEntity
  8
0
  6
ByLayer
 62
    1
370
   -1
100
AcDbCircle
 10
-37597.72770369914
 20
14427.00891494258
 40
242.67678193369
100
AcDbArc
 50
316.3177420587408
 51
325.905210469683
  0
ARC
  5
1C0
100
AcDbEntity
  8
0
  6
ByLayer
 62
    1
370
   -1
100
AcDbCircle
 10
-37408.98006399135
 20
14249.3582181478
 40
16.62528300581594
100
AcDbArc
 50
142.833386613364
 51
191.8324882517671
  0
ARC
  5
1C1
100
AcDbEntity
  8
0
  6
ByLayer
 62
    1
370
   -1
100
AcDbCircle
 10
-37411.19359269727
 20
14248.59504616611
 40
14.30530206486786
100
AcDbArc
 50
190.6586018570014
 51
224.9197201587762
  0
ARC
  5
1C2
100
AcDbEntity
  8
0
  6
ByLayer
 62
    1
370
   -1
100
AcDbCircle
 10
-37514.66895650677
 20
14147.0884919325
 40
130.6460217884863
100
AcDbArc
 50
28.69586720905862
 51
44.39823785237688
  0
ARC
  5
1C3
100
AcDbEntity
  8
0
  6
ByLayer
 62
    1
370
   -1
100
AcDbCircle
 10
-37403.82168450745
 20
14198.89403468071
 40
11.55207609536038
100
AcDbArc
 50
344.0721289853544
 51
71.04236904851497
  0
ARC
  5
1C4
100
AcDbEntity
  8
0
  6
ByLayer
 62
    1
370
   -1
100
AcDbCircle
 10
-37380.0233823981
 20
14197.05330044143
 40
12.75918633579696
100
AcDbArc
 50
185.980897960544
 51
216.8059383782543
  0
ARC
  5
1C5
100
AcDbEntity
  8
0
  6
ByLayer
 62
    1
370
   -1
100
AcDbCircle
 10
-36214.47530589249
 20
15436.3571846955
 40
1713.855363885841
100
AcDbArc
 50
226.6829782458275
 51
226.932323581981
  0
ARC
  5
1C6
100
AcDbEntity
  8
0
  6
ByLayer
 62
    1
370
   -1
100
AcDbCircle
 10
-37420.52730075674
 20
14151.29401128069
 40
48.64155947146272
100
AcDbArc
 50
11.33093251192197
 51
42.73760177876166
  0
ARC
  5
1C7
100
AcDbEntity
  8
0
  6
ByLayer
 62
    1
370
   -1
100
AcDbCircle
 10
-37305.47254549562
 20
14334.99442205105
 40
70.21229444241908
100
AcDbArc
 50
197.993145324971
 51
213.3495543853022
  0
ARC
  5
1C8
100
AcDbEntity
  8
0
  6
ByLayer
 62
    1
370
   -1
100
AcDbCircle
 10
-37370.39764213291
 20
14313.63815644434
 40
1.882955119374
100
AcDbArc
 50
48.98075088618612
 51
190.1720203609433
  0
ARC
  5
1C9
100
AcDbEntity
  8
0
  6
ByLayer
 62
    1
370
   -1
100
AcDbCircle
 10
-37274.35692422567
 20
14349.93146187703
 40
101.01520618158
100
AcDbArc
 50
200.1953267589616
 51
232.3496263351032
  0
ARC
  5
1CA
100
AcDbEntity
  8
0
  6
ByLayer
 62
    1
370
   -1
100
AcDbCircle
 10
-37349.49772060051
 20
14257.0283254156
 40
18.6432596999435
100
AcDbArc
 50
3.332886697148111
 51
43.88628080356301
  0
ARC
  5
1CB
100
AcDbEntity
  8
0
  6
ByLayer
 62
    1
370
   -1
100
AcDbCircle
 10
-37312.7799743306
 20
14257.4727011227
 40
18.11730912271602
100
AcDbArc
 50
177.9772053337373
 51
233.9638406558199
  0
ARC
  5
1CC
100
AcDbEntity
  8
0
  6
ByLayer
 62
    1
370
   -1
100
AcDbCircle
 10
-37358.48051576575
 20
14199.70331579037
 40
55.56253754450706
100
AcDbArc
 50
32.38052860395946
 51
50.89965710242642
  0
ARC
  5
1CD
100
AcDbEntity
  8
0
  6
ByLayer
 62
    1
370
   -1
100
AcDbCircle
 10
-37402.27672768361
 20
14160.98976801257
 40
113.6576834839492
100
AcDbArc
 50
18.11523530044765
 51
37.04331230755948
  0
ARC
  5
1CE
100
AcDbEntity
  8
0
  6
ByLayer
 62
    1
370
   -1
100
AcDbCircle
 10
-37281.93960801734
 20
14198.28478474652
 40
12.46741508513991
100
AcDbArc
 50
189.0241705244302
 51
267.4355531600704
  0
ARC
  5
1CF
100
AcDbEntity
  8
0
  6
ByLayer
 62
    1
370
   -1
100
AcDbCircle
 10
-37282.42065744778
 20
14182.6209594664
 40
3.209814453205809
100
AcDbArc
 50
31.84065124266719
 51
91.37069200461499
  0
ARC
  5
1D0
100
AcDbEntity
  8
0
  6
ByLayer
 62
    1
370
   -1
100
AcDbCircle
 10
-37289.9186926514
 20
14176.49257005547
 40
12.87350162446309
100
AcDbArc
 50
350.931781689181
 51
37.41513356579821
  0
ARC
  5
1D1
100
AcDbEntity
  8
0
  6
ByLayer
 62
    1
370
   -1
100
AcDbCircle
 10
-37217.6571513717
 20
14155.24347168835
 40
62.57386539240692
100
AcDbArc
 50
162.1119216880703
 51
174.9037458723899
  0
ARC
  5
1D2
100
AcDbEntity
  8
0
  6
ByLayer
 62
    1
370
   -1
100
AcDbCircle
 10
-37501.24647176469
 20
14277.11546847554
 40
48.10259387705691
100
AcDbArc
 50
162.2984778551777
 51
181.3407670315097
  0
ARC
  5
1D3
100
AcDbEntity
  8
0
  6
ByLayer
 62
    1
370
   -1
100
AcDbCircle
 10
-37572.41735068628
 20
14278.45574891213
 40
23.21279413810668
100
AcDbArc
 50
294.2434290709865
 51
353.9021575589533
  0
ARC
  5
1D4
100
AcDbEntity
  8
0
  6
ByLayer
 62
    1
370
   -1
100
AcDbCircle
 10
-37567.68396356007
 20
14276.07548248406
 40
19.38845311635097
100
AcDbArc
 50
241.954688621437
 51
284.3280247894064
  0
ARC
  5
1D5
100
AcDbEntity
  8
0
  6
ByLayer
 62
    1
370
   -1
100
AcDbCircle
 10
-37577.41799147234
 20
14257.16968007179
 40
1.897532431020286
100
AcDbArc
 50
70.98757731702095
 51
224.7033751241789
  0
ARC
  5
1D6
100
AcDbEntity
  8
0
  6
ByLayer
 62
    1
370
   -1
100
AcDbCircle
 10
-37567.22288412533
 20
14262.94134224808
 40
13.55584338812929
100
AcDbArc
 50
211.6167994274664
 51
289.0125603824054
  0
ARC
  5
1D7
100
AcDbEntity
  8
0
  6
ByLayer
 62
    1
370
   -1
100
AcDbCircle
 10
-37585.69100286808
 20
14263.70132809268
 40
26.60839529930222
100
AcDbArc
 50
245.8953529536584
 51
329.3210535651312
  0
ARC
  5
1D8
100
AcDbEntity
  8
0
  6
ByLayer
 62
    1
370
   -1
100
AcDbCircle
 10
-37597.3148548389
 20
14237.26949600885
 40
2.273350853733827
100
AcDbArc
 50
70.55336853993661
 51
226.1694841751689
  0
ARC
  5
1D9
100
AcDbEntity
  8
0
  6
ByLayer
 62
    1
370
   -1
100
AcDbCircle
 10
-37579.6037847577
 20
14253.85304750803
 40
26.5334635396732
100
AcDbArc
 50
223.3783559561898
 51
280.3381891812581
  0
ARC
  5
1DA
100
AcDbEntity
  8
0
  6
ByLayer
 62
    1
370
   -1
100
AcDbCircle
 10
-37578.92543455096
 20
14260.79662454247
 40
33.29760262564484
100
AcDbArc
 50
277.0439222772581
 51
332.8558768913304
  0
ARC
  5
1DB
100
AcDbEntity
  8
0
  6
ByLayer
 62
    1
370
   -1
100
AcDbCircle
 10
-37565.0615502805
 20
14242.92862892447
 40
16.02192239659609
100
AcDbArc
 50
329.4308972727925
 51
9.778395411588461
  0
ARC
  5
1DC
100
AcDbEntity
  8
0
  6
ByLayer
 62
    1
370
   -1
100
AcDbCircle
 10
-37549.95102833514
 20
14233.9115936516
 40
1.576321557249386
100
AcDbArc
 50
146.5600869905386
 51
299.8926658151366
  0
ARC
  5
1DD
100
AcDbEntity
  8
0
  6
ByLayer
 62
    1
370
   -1
100
AcDbCircle
 10
-37590.47861529379
 20
14264.96667542374
 40
52.5161460168061
100
AcDbArc
 50
321.8759498264114
 51
16.72680491743884
  0
ARC
  5
1DE
100
AcDbEntity
  8
0
  6
ByLayer
 62
    1
370
   -1
100
AcDbCircle
 10
-37484.19404868577
 20
14289.25414949259
 40
56.73690337384428
100
AcDbArc
 50
151.1001719378256
 51
189.3040683904965
  0
ARC
  5
1DF
100
AcDbEntity
  8
0
  6
ByLayer
 62
    1
370
   -1
100
AcDbCircle
 10
-37534.90527413132
 20
14317.73710803543
 40
1.487247916204726
100
AcDbArc
 50
314.3689522544282
 51
151.9554244495155
  0
ARC
  5
1E0
100
AcDbEntity
  8
0
  6
ByLayer
 62
    1
370
   -1
100
AcDbCircle
 10
-37495.4119300323
 20
14286.16234554814
 40
52.0263196777277
100
AcDbArc
 50
141.6590363827173
 51
165.8311417595116
  0
ARC
  5
1E1
100
AcDbEntity
  8
0
  6
ByLayer
 62
    1
370
   -1
100
AcDbCircle
 10
-37548.75354301343
 20
14300.69128893512
 40
3.408314175109259
100
AcDbArc
 50
208.8996689875275
 51
328.2417742753194
  0
ARC
  5
1E2
100
AcDbEntity
  8
0
  6
ByLayer
 62
    1
370
   -1
100
AcDbCircle
 10
-37553.01933813744
 20
14297.20943301174
 40
2.238178634882983
100
AcDbArc
 50
55.05745268747674
 51
212.3675490424951
  0
ARC
  5
1E3
100
AcDbEntity
  8
0
  6
ByLayer
 62
    1
370
   -1
100
AcDbCircle
 10
-37548.42825095797
 20
14298.58030299278
 40
6.972107828828098
100
AcDbArc
 50
201.621845936796
 51
281.2205803403077
  0
ARC
  5
1E4
100
AcDbEntity
  8
0
  6
ByLayer
 62
    1
370
   -1
100
AcDbCircle
 10
-37487.53807637237
 20
14360.44621637727
 40
9.945239124002104
100
AcDbArc
 50
221.1795954611803
 51
293.128192019176
  0
ARC
  5
1E5
100
AcDbEntity
  8
0
  6
ByLayer
 62
    1
370
   -1
100
AcDbCircle
 10
-37475.23105568895
 20
14360.68844947211
 40
11.56627677003952
100
AcDbArc
 50
235.8527040599978
 51
296.8137163011465
  0
ARC
  5
1E6
100
AcDbEntity
  8
0
  6
ByLayer
 62
    1
370
   -1
100
AcDbCircle
 10
-37463.45201623702
 20
14357.21269942112
 40
8.321714831587752
100
AcDbArc
 50
236.7494363510454
 51
329.188265530798
  0
ARC
  5
1E7
100
AcDbEntity
  8
0
  6
ByLayer
 62
    1
370
   -1
100
AcDbCircle
 10
-37450.92031939225
 20
14363.46314444383
 40
10.1061060869913
100
AcDbArc
 50
252.3686251561594
 51
330.5937849064209
  0
ARC
  5
1E8
100
AcDbEntity
  8
0
  6
ByLayer
 62
    1
370
   -1
100
AcDbCircle
 10
-37438.08726083554
 20
14368.9771868191
 40
9.684069468119217
100
AcDbArc
 50
258.7137611329897
 51
282.5715717140167
  0
ARC
  5
1E9
100
AcDbEntity
  8
0
  6
ByLayer
 62
    1
370
   -1
100
AcDbCircle
 10
-37435.14315029453
 20
14357.3664339696
 40
2.315178362123021
100
AcDbArc
 50
323.7948934762863
 51
111.1750588664636
  0
ARC
  5
1EA
100
AcDbEntity
  8
0
  6
ByLayer
 62
    1
370
   -1
100
AcDbCircle
 10
-37438.04510552812
 20
14357.68783688971
 40
5.060260524832874
100
AcDbArc
 50
256.7659883158766
 51
340.5026760106688
  0
ARC
  5
1EB
100
AcDbEntity
  8
0
  6
ByLayer
 62
    1
370
   -1
100
AcDbCircle
 10
-37449.71441327075
 20
14357.48911051704
 40
10.06672236195141
100
AcDbArc
 50
252.2698166586294
 51
326.4204409566511
  0
ARC
  5
1EC
100
AcDbEntity
  8
0
  6
ByLayer
 62
    1
370
   -1
100
AcDbCircle
 10
-37462.233487002
 20
14351.28730685927
 40
8.306553268952673
100
AcDbArc
 50
231.8036055750302
 51
328.7620910926728
  0
ARC
  5
1ED
100
AcDbEntity
  8
0
  6
ByLayer
 62
    1
370
   -1
100
AcDbCircle
 10
-37474.57945541114
 20
14350.41277100815
 40
7.37443983061768
100
AcDbArc
 50
220.9975265228791
 51
309.5787940178934
  0
ARC
  5
1EE
100
AcDbEntity
  8
0
  6
ByLayer
 62
    1
370
   -1
100
AcDbCircle
 10
-37487.70310259027
 20
14356.67565937281
 40
11.80796864766196
100
AcDbArc
 50
205.672220986113
 51
295.9787054125287
  0
ARC
  5
1EF
100
AcDbEntity
  8
0
  6
ByLayer
 62
    1
370
   -1
100
AcDbCircle
 10
-37496.58560783854
 20
14352.58871776615
 40
2.038382786771889
100
AcDbArc
 50
39.96670969984349
 51
210.3036348805515
  0
ARC
  5
1F0
100
AcDbEntity
  8
0
  6
ByLayer
 62
    1
370
   -1
100
AcDbCircle
 10
-37481.65470045943
 20
14344.26289055041
 40
2
100
AcDbArc
 50
40.99752652280925
 51
115.9787054126107
  0
ARC
  5
1F1
100
AcDbEntity
  8
0
  6
ByLayer
 62
    1
370
   -1
100
AcDbCircle
 10
-37468.60663636492
 20
14343.18742985503
 40
2
100
AcDbArc
 50
51.8036055751213
 51
129.5787940179421
  0
ARC
  5
1F2
100
AcDbEntity
  8
0
  6
ByLayer
 62
    1
370
   -1
100
AcDbCircle
 10
-37453.38915111159
 20
14345.99554316998
 40
2
100
AcDbArc
 50
72.26981665866633
 51
149.1069746091173
  0
ARC
  5
1F3
100
AcDbEntity
  8
0
  6
ByLayer
 62
    1
370
   -1
100
AcDbCircle
 10
-37439.66140222758
 20
14350.81507444235
 40
2
100
AcDbArc
 50
76.76598831597366
 51
146.4204409566684
  0
ARC
  5
1F4
100
AcDbEntity
  8
0
  6
ByLayer
 62
    1
370
   -1
100
AcDbCircle
 10
-37440.37395728522
 20
14357.51906748464
 40
2
100
AcDbArc
 50
78.7137611328815
 51
150.593784906433
  0
ARC
  5
1F5
100
AcDbEntity
  8
0
  6
ByLayer
 62
    1
370
   -1
100
AcDbCircle
 10
-37454.58715974301
 20
14351.92572330947
 40
2
100
AcDbArc
 50
72.36862515607834
 51
149.1882655307478
  0
ARC
  5
1F6
100
AcDbEntity
  8
0
  6
ByLayer
 62
    1
370
   -1
100
AcDbCircle
 10
-37469.1114275126
 20
14348.58084787706
 40
2
100
AcDbArc
 50
56.74943635099232
 51
116.8137163011701
  0
ARC
  5
1F7
100
AcDbEntity
  8
0
  6
ByLayer
 62
    1
370
   -1
100
AcDbCircle
 10
-37482.84610994231
 20
14349.46103596233
 40
2
100
AcDbArc
 50
55.85270405994791
 51
113.128192019082
  0
ARC
  5
1F8
100
AcDbEntity
  8
0
  6
ByLayer
 62
    1
370
   -1
100
AcDbCircle
 10
-37433.06852477474
 20
14409.22737758807
 40
36.7057424793221
100
AcDbArc
 50
156.2234424809572
 51
213.0379068338001
  0
ARC
  5
1F9
100
AcDbEntity
  8
0
  6
ByLayer
 62
    1
370
   -1
100
AcDbCircle
 10
-37513.88352881189
 20
14450.58783611514
 40
54.18207603413486
100
AcDbArc
 50
330.6441886225508
 51
32.2218566860222
  0
ARC
  5
1FA
100
AcDbEntity
  8
0
  6
ByLayer
 62
    1
370
   -1
100
AcDbCircle
 10
-37473.95614729501
 20
14465.19704808292
 40
15.4552708197492
100
AcDbArc
 50
26.55877107820541
 51
67.51754392110995
  0
ARC
  5
1FB
100
AcDbEntity
  8
0
  6
ByLayer
 62
    1
370
   -1
100
AcDbCircle
 10
-37459.27283832948
 20
14472.45923143963
 40
0.9282242598181724
100
AcDbArc
 50
202.2780479797552
 51
14.5651570141413
  0
ARC
  5
1FC
100
AcDbEntity
  8
0
  6
ByLayer
 62
    1
370
   -1
100
AcDbCircle
 10
-37521.53455991351
 20
14440.62672018237
 40
70.83378242813173
100
AcDbArc
 50
26.91658159504728
 51
56.11578292280928
  0
ARC
  5
1FD
100
AcDbEntity
  8
0
  6
ByLayer
 62
    1
370
   -1
100
AcDbCircle
 10
-37556.46087947077
 20
14384.33947459133
 40
137.0543096741019
100
AcDbArc
 50
57.11348268280555
 51
75.4129290839972
  0
ARC
  5
1FE
100
AcDbEntity
  8
0
  6
ByLayer
 62
    1
370
   -1
100
AcDbCircle
 10
-37524.2495800125
 20
14509.43096834672
 40
7.889528276416259
100
AcDbArc
 50
73.00540408777697
 51
114.5562559819311
  0
ARC
  5
1FF
100
AcDbEntity
  8
0
  6
ByLayer
 62
    1
370
   -1
100
AcDbCircle
 10
-37529.42957655631
 20
14522.44586207105
 40
6.140675082685463
100
AcDbArc
 50
241.4827907643956
 51
288.0357363870798
  0
ARC
  5
200
100
AcDbEntity
  8
0
  6
ByLayer
 62
    1
370
   -1
100
AcDbCircle
 10
-37687.8492165518
 20
14235.72910586805
 40
321.4312756830052
100
AcDbArc
 50
61.07029550289071
 51
71.03939947084795
  0
ARC
  5
201
100
AcDbEntity
  8
0
  6
ByLayer
 62
    1
370
   -1
100
AcDbCircle
 10
-37584.19856758894
 20
14538.17655544772
 40
1.733231438201781
100
AcDbArc
 50
62.95351407898152
 51
236.8489912357007
  0
ARC
  5
202
100
AcDbEntity
  8
0
  6
ByLayer
 62
    1
370
   -1
100
AcDbCircle
 10
-37449.09746881059
 20
14731.67781724097
 40
237.7303862759069
100
AcDbArc
 50
235.0904628471139
 51
248.4246588954775
  0
ARC
  5
203
100
AcDbEntity
  8
0
  6
ByLayer
 62
    1
370
   -1
100
AcDbCircle
 10
-37538.30055361905
 20
14532.3263334821
 40
21.79540409735479
100
AcDbArc
 50
245.9909395429162
 51
274.69458536754
  0
ARC
  5
204
100
AcDbEntity
  8
0
  6
ByLayer
 62
    1
370
   -1
100
AcDbCircle
 10
-37547.45432280909
 20
14510.49783121116
 40
1.939954780417018
100
AcDbArc
 50
81.53321792846609
 51
237.0303654321423
  0
ARC
  5
205
100
AcDbEntity
  8
0
  6
ByLayer
 62
    1
370
   -1
100
AcDbCircle
 10
-37421.31158665748
 20
14781.10283130017
 40
300.4829491761683
100
AcDbArc
 50
244.9560483678699
 51
248.1732347866098
  0
ARC
  5
206
100
AcDbEntity
  8
0
  6
ByLayer
 62
    1
370
   -1
100
AcDbCircle
 10
-37527.6260662168
 20
14580.01208904969
 40
78.03869776101793
100
AcDbArc
 50
261.3055024207376
 51
266.0280878494996
  0
ARC
  5
207
100
AcDbEntity
  8
0
  6
ByLayer
 62
    1
370
   -1
100
AcDbCircle
 10
-37539.68059371515
 20
14501.39762968951
 40
1.494936057012998
100
AcDbArc
 50
80.07216750615206
 51
245.9083114045443
  0
ARC
  5
208
100
AcDbEntity
  8
0
  6
ByLayer
 62
    1
370
   -1
100
AcDbCircle
 10
-37581.60403851093
 20
14370.90594588786
 40
135.5749062604563
100
AcDbArc
 50
60.16500343064136
 51
72.25831275067303
  0
ARC
  5
209
100
AcDbEntity
  8
0
  6
ByLayer
 62
    1
370
   -1
100
AcDbCircle
 10
-37510.82926317871
 20
14487.40023240109
 40
3.506634457620242
100
AcDbArc
 50
161.5157515515553
 51
287.3148894372529
  0
ARC
  5
20A
100
AcDbEntity
  8
0
  6
ByLayer
 62
    1
370
   -1
100
AcDbCircle
 10
-37508.05046034479
 20
14482.68780624768
 40
2.207519990655842
100
AcDbArc
 50
141.814819832266
 51
299.219011156895
  0
ARC
  5
20B
100
AcDbEntity
  8
0
  6
ByLayer
 62
    1
370
   -1
100
AcDbCircle
 10
-37503.15966520758
 20
14479.27830212059
 40
4.091376546018235
100
AcDbArc
 50
158.7500277789328
 51
287.7937888814198
  0
ARC
  5
20C
100
AcDbEntity
  8
0
  6
ByLayer
 62
    1
370
   -1
100
AcDbCircle
 10
-37500.0445361843
 20
14473.68153424443
 40
2.524163141384628
100
AcDbArc
 50
137.6287885929037
 51
296.2912998826917
  0
ARC
  5
20D
100
AcDbEntity
  8
0
  6
ByLayer
 62
    1
370
   -1
100
AcDbCircle
 10
-37503.92038341933
 20
14470.5354451797
 40
5.071358305654014
100
AcDbArc
 50
318.3323853381306
 51
10.02763928457997
  0
ARC
  5
20E
100
AcDbEntity
  8
0
  6
ByLayer
 62
    1
370
   -1
100
AcDbCircle
 10
-37490.97364925154
 20
14462.99551914987
 40
10.06237846409566
100
AcDbArc
 50
155.5272486021431
 51
211.3725885139023
  0
ARC
  5
20F
100
AcDbEntity
  8
0
  6
ByLayer
 62
    1
370
   -1
100
AcDbCircle
 10
-37218.70807121829
 20
14710.99355079253
 40
378.1656999809239
100
AcDbArc
 50
222.0396202233959
 51
223.5983366606392
  0
ARC
  5
210
100
AcDbEntity
  8
0
  6
ByLayer
 62
    1
370
   -1
100
AcDbCircle
 10
-37413.4490848903
 20
14430.45040707948
 40
81.553746390703
100
AcDbArc
 50
165.9775532596494
 51
210.8215905405209
  0
ARC
  5
211
100
AcDbEntity
  8
0
  6
ByLayer
 62
    1
370
   -1
100
AcDbCircle
 10
-37451.62214552375
 20
14412.20837568918
 40
39.6171127235112
100
AcDbArc
 50
216.4608166848708
 51
285.9609712879845
  0
ARC
  5
212
100
AcDbEntity
  8
0
  6
ByLayer
 62
    1
370
   -1
100
AcDbCircle
 10
-37417.69051387729
 20
14334.57162377985
 40
45.76778259913686
100
AcDbArc
 50
99.6511887288063
 51
120.2224704083142
  0
ARC
  5
213
100
AcDbEntity
  8
0
  6
ByLayer
 62
    1
370
   -1
100
AcDbCircle
 10
-37418.82354768746
 20
14330.22240198023
 40
49.89965836101125
100
AcDbArc
 50
76.39748551714042
 51
97.53092699096769
  0
ARC
  5
214
100
AcDbEntity
  8
0
  6
ByLayer
 62
    1
370
   -1
100
AcDbCircle
 10
-37407.13900305891
 20
14380.6458647623
 40
1.924134423985415
100
AcDbArc
 50
271.5216556324818
 51
57.9304229309985
  0
ARC
  5
215
100
AcDbEntity
  8
0
  6
ByLayer
 62
    1
370
   -1
100
AcDbCircle
 10
-37421.15046460582
 20
14341.36415844466
 40
43.58673688690546
100
AcDbArc
 50
69.82429074696773
 51
102.6566285032492
  0
ARC
  5
216
100
AcDbEntity
  8
0
  6
ByLayer
 62
    1
370
   -1
100
AcDbCircle
 10
-37437.55499344444
 20
14411.8603288979
 40
28.79622210378113
100
AcDbArc
 50
214.5656418244945
 51
283.7702473564151
  0
ARC
  5
217
100
AcDbEntity
  8
0
  6
ByLayer
 62
    1
370
   -1
100
AcDbCircle
 10
-37462.44739568876
 20
14394.44560519945
 40
1.597270966899198
100
AcDbArc
 50
42.40691551602977
 51
197.8365935158082
  0
ARC
  5
218
100
AcDbEntity
  8
0
  6
ByLayer
 62
    1
370
   -1
100
AcDbCircle
 10
-37539.848027749
 20
14389.52628390935
 40
76.00934490748503
100
AcDbArc
 50
359.8035225122479
 51
3.341277898924226
  0
ARC
  5
219
100
AcDbEntity
  8
0
  6
ByLayer
 62
    1
370
   -1
100
AcDbCircle
 10
-37197.2482954886
 20
14673.57051076445
 40
323.7510242180448
100
AcDbArc
 50
240.2246489194534
 51
246.2961694022139
  0
ARC
  5
21A
100
AcDbEntity
  8
0
  6
ByLayer
 62
    1
370
   -1
100
AcDbCircle
 10
-37369.50690172148
 20
14345.1071832667
 40
52.92691009430248
100
AcDbArc
 50
357.2735567271734
 51
37.20770082391373
  0
ARC
  5
21B
100
AcDbEntity
  8
0
  6
ByLayer
 62
    1
370
   -1
100
AcDbCircle
 10
-37313.70174407696
 20
14344.52117373952
 40
3.516221837655892
100
AcDbArc
 50
213.321504363886
 51
321.3588197978072
  0
ARC
  5
21C
100
AcDbEntity
  8
0
  6
ByLayer
 62
    1
370
   -1
100
AcDbCircle
 10
-37379.49091315855
 20
14343.8627472594
 40
68.5528290345023
100
AcDbArc
 50
358.7150763203942
 51
29.50105468270814
  0
ARC
  5
21D
100
AcDbEntity
  8
0
  6
ByLayer
 62
    1
370
   -1
100
AcDbCircle
 10
-37330.96923106914
 20
14370.6448743427
 40
13.14655642729933
100
AcDbArc
 50
32.04824776505062
 51
62.51177366779272
  0
ARC
  5
21E
100
AcDbEntity
  8
0
  6
ByLayer
 62
    1
370
   -1
100
AcDbCircle
 10
-37475.25429108685
 20
14097.81011492984
 40
321.783576745406
100
AcDbArc
 50
62.14412646223835
 51
68.18533700531594
  0
ARC
  5
21F
100
AcDbEntity
  8
0
  6
ByLayer
 62
    1
370
   -1
100
AcDbCircle
 10
-37356.44302071255
 20
14394.31663147646
 40
2.361796022405087
100
AcDbArc
 50
71.0940992693598
 51
228.0040131160685
  0
ARC
  5
220
100
AcDbEntity
  8
0
  6
ByLayer
 62
    1
370
   -1
100
AcDbCircle
 10
-37314.08952071038
 20
14396.58340717791
 40
22.53077042641536
100
AcDbArc
 50
319.3534184408652
 51
0.7158375271880658
  0
ARC
  5
221
100
AcDbEntity
  8
0
  6
ByLayer
 62
    1
370
   -1
100
AcDbCircle
 10
-37294.01342790554
 20
14396.8125108581
 40
2.45347844353439
100
AcDbArc
 50
1.223367388415679
 51
140.6325763444902
  0
ARC
  5
222
100
AcDbEntity
  8
0
  6
ByLayer
 62
    1
370
   -1
100
AcDbCircle
 10
-37333.69162560754
 20
14407.30851818218
 40
38.82468370921468
100
AcDbArc
 50
326.8666397127938
 51
346.6875959112599
  0
ARC
  5
223
100
AcDbEntity
  8
0
  6
ByLayer
 62
    1
370
   -1
100
AcDbCircle
 10
-37295.45321214005
 20
14381.88445975061
 40
7.103394986610527
100
AcDbArc
 50
143.7241605091994
 51
190.6362257950997
  0
ARC
  5
224
100
AcDbEntity
  8
0
  6
ByLayer
 62
    1
370
   -1
100
AcDbCircle
 10
-37357.58235117521
 20
14365.24088214572
 40
57.23952878271564
100
AcDbArc
 50
340.7980501803431
 51
15.53727985836315
  0
ARC
  5
225
100
AcDbEntity
  8
0
  6
ByLayer
 62
    1
370
   -1
100
AcDbCircle
 10
-37300.52839355275
 20
14344.92749708196
 40
3.347524518874582
100
AcDbArc
 50
153.6201299440669
 51
334.5835348947784
  0
ARC
  5
226
100
AcDbEntity
  8
0
  6
ByLayer
 62
    1
370
   -1
100
AcDbCircle
 10
-37342.36132322961
 20
14363.29825101424
 40
49.03507184355458
100
AcDbArc
 50
336.1749400611336
 51
22.24429012476596
  0
ARC
  5
227
100
AcDbEntity
  8
0
  6
ByLayer
 62
    1
370
   -1
100
AcDbCircle
 10
-37387.62353985319
 20
14486.59875668209
 40
15.50565523978226
100
AcDbArc
 50
305.3115558562708
 51
344.5788457023291
  0
ARC
  5
228
100
AcDbEntity
  8
0
  6
ByLayer
 62
    1
370
   -1
100
AcDbCircle
 10
-37376.82958224423
 20
14484.44194874809
 40
4.586969577333802
100
AcDbArc
 50
335.2811911427993
 51
45.01424525996275
  0
ARC
  5
229
100
AcDbEntity
  8
0
  6
ByLayer
 62
    1
370
   -1
100
AcDbCircle
 10
-37374.36060520824
 20
14486.13050265043
 40
1.737497316087844
100
AcDbArc
 50
63.55797443906001
 51
169.6673872166944
  0
ARC
  5
22A
100
AcDbEntity
  8
0
  6
ByLayer
 62
    1
370
   -1
100
AcDbCircle
 10
-37379.75207988553
 20
14484.9042393165
 40
3.990414793635838
100
AcDbArc
 50
254.1128409388272
 51
22.66855690881904
  0
ARC
  5
22B
100
AcDbEntity
  8
0
  6
ByLayer
 62
    1
370
   -1
100
AcDbCircle
 10
-37372.55183920241
 20
14477.0457769813
 40
9.215815632445249
100
AcDbArc
 50
154.1346486881731
 51
197.9140601274844
  0
ARC
  5
22C
100
AcDbEntity
  8
0
  6
ByLayer
 62
    1
370
   -1
100
AcDbCircle
 10
-37379.82342167879
 20
14475.75776442934
 40
2.152800954940093
100
AcDbArc
 50
225.9267143862536
 51
302.6830866325934
  0
ARC
  5
22D
100
AcDbEntity
  8
0
  6
ByLayer
 62
    1
370
   -1
100
AcDbCircle
 10
-37390.42427615419
 20
14435.95714343888
 40
12.14008086297213
100
AcDbArc
 50
130.3763811720417
 51
194.4183714543715
  0
ARC
  5
22E
100
AcDbEntity
  8
0
  6
ByLayer
 62
    1
370
   -1
100
AcDbCircle
 10
-37398.75277699487
 20
14434.39140983077
 40
3.725957851514072
100
AcDbArc
 50
203.0217888767487
 51
270.2748812055077
  0
ARC
  5
22F
100
AcDbEntity
  8
0
  6
ByLayer
 62
    1
370
   -1
100
AcDbCircle
 10
-37398.26207479448
 20
14432.30233819343
 40
1.703766759614959
100
AcDbArc
 50
253.8878473218339
 51
0.9219929057077479
  0
ARC
  5
230
100
AcDbEntity
  8
0
  6
ByLayer
 62
    1
370
   -1
100
AcDbCircle
 10
-37381.31086624163
 20
14437.75416887572
 40
16.18380326203127
100
AcDbArc
 50
167.312169391165
 51
183.4476914177013
  0
ARC
  5
231
100
AcDbEntity
  8
0
  6
ByLayer
 62
    1
370
   -1
100
AcDbCircle
 10
-37396.21293529575
 20
14441.15928361809
 40
0.8990589161521327
100
AcDbArc
 50
73.7853621509737
 51
170.4294270710516
  0
ARC
  5
232
100
AcDbEntity
  8
0
  6
ByLayer
 62
    1
370
   -1
100
AcDbCircle
 10
-37395.67392119122
 20
14442.68427031676
 40
0.7216351260340871
100
AcDbArc
 50
246.481577830773
 51
1.823195357320358
  0
ARC
  5
233
100
AcDbEntity
  8
0
  6
ByLayer
 62
    1
370
   -1
100
AcDbCircle
 10
-37396.78586109329
 20
14443.73579434037
 40
2.10204748535291
100
AcDbArc
 50
330.7043829838304
 51
135.6380280821892
  0
ARC
  5
234
100
AcDbEntity
  8
0
  6
ByLayer
 62
    1
370
   -1
100
AcDbCircle
 10
-37349.87731661627
 20
14517.01871578146
 40
18.12442732543122
100
AcDbArc
 50
142.4041549948575
 51
177.0286750307652
  0
ARC
  5
235
100
AcDbEntity
  8
0
  6
ByLayer
 62
    1
370
   -1
100
AcDbCircle
 10
-37365.45066016653
 20
14518.11834910465
 40
2.531786514619843
100
AcDbArc
 50
183.6263124470785
 51
242.8939311893732
  0
ARC
  5
236
100
AcDbEntity
  8
0
  6
ByLayer
 62
    1
370
   -1
100
AcDbCircle
 10
-37364.72256356234
 20
14522.59347311436
 40
6.986978789967179
100
AcDbArc
 50
254.3766643971249
 51
288.6828738886909
  0
ARC
  5
237
100
AcDbEntity
  8
0
  6
ByLayer
 62
    1
370
   -1
100
AcDbCircle
 10
-37362.98479738078
 20
14517.02880898385
 40
1.17358778187731
100
AcDbArc
 50
297.8184190991096
 51
355.6012119956203
  0
ARC
  5
238
100
AcDbEntity
  8
0
  6
ByLayer
 62
    1
370
   -1
100
AcDbCircle
 10
-37413.94205627709
 20
14522.08308926031
 40
52.38061187581972
100
AcDbArc
 50
354.3639050150198
 51
6.242748061391967
  0
ARC
  5
239
100
AcDbEntity
  8
0
  6
ByLayer
 62
    1
370
   -1
100
AcDbCircle
 10
-37363.08748223272
 20
14527.66891084664
 40
1.220403216912022
100
AcDbArc
 50
5.176107528853651
 51
160.504169946891
  0
ARC
  5
23A
100
AcDbEntity
  8
0
  6
ByLayer
 62
    1
370
   -1
100
AcDbCircle
 10
-37303.91571951345
 20
14498.5994682055
 40
30.02903456572057
100
AcDbArc
 50
205.9746331728406
 51
251.0771623243341
  0
ARC
  5
23B
100
AcDbEntity
  8
0
  6
ByLayer
 62
    1
370
   -1
100
AcDbCircle
 10
-37314.87819106692
 20
14468.14666516879
 40
2.384848656688987
100
AcDbArc
 50
267.2421765155789
 51
59.11392047900427
  0
ARC
  5
23C
100
AcDbEntity
  8
0
  6
ByLayer
 62
    1
370
   -1
100
AcDbCircle
 10
-37314.78881701131
 20
14485.52859674931
 40
19.76507219957008
100
AcDbArc
 50
230.1693311974714
 51
269.4082785885701
  0
ARC
  5
23D
100
AcDbEntity
  8
0
  6
ByLayer
 62
    1
370
   -1
100
AcDbCircle
 10
-37260.39672913065
 20
14487.08170795674
 40
69.10801824146304
100
AcDbArc
 50
194.0109145897551
 51
230.075395304472
  0
ARC
  5
23E
100
AcDbEntity
  8
0
  6
ByLayer
 62
    1
370
   -1
100
AcDbCircle
 10
-37306.14756770237
 20
14433.12623671258
 40
1.694952103113888
100
AcDbArc
 50
250.4539588773811
 51
34.3859605335563
  0
ARC
  5
23F
100
AcDbEntity
  8
0
  6
ByLayer
 62
    1
370
   -1
100
AcDbCircle
 10
-37280.81983160477
 20
14476.84232941402
 40
52.19044429331763
100
AcDbArc
 50
200.9755638786543
 51
240.2537343882306
  0
ARC
  5
240
100
AcDbEntity
  8
0
  6
ByLayer
 62
    1
370
   -1
100
AcDbCircle
 10
-36947.89204279389
 20
14444.15850810542
 40
381.9164700980877
100
AcDbArc
 50
177.9065425626565
 51
179.3038014016888
  0
ARC
  5
241
100
AcDbEntity
  8
0
  6
ByLayer
 62
    1
370
   -1
100
AcDbCircle
 10
-37331.08616161922
 20
14449.22604727562
 40
1.373883504053097
100
AcDbArc
 50
236.830448230755
 51
341.8925746685395
  0
ARC
  5
242
100
AcDbEntity
  8
0
  6
ByLayer
 62
    1
370
   -1
100
AcDbCircle
 10
-37306.73417941223
 20
14475.42766476806
 40
37.12553810001872
100
AcDbArc
 50
181.6823228847136
 51
227.4539123570683
  0
ARC
  5
243
100
AcDbEntity
  8
0
  6
ByLayer
 62
    1
370
   -1
100
AcDbCircle
 10
-37441.26897417519
 20
14488.16731289265
 40
98.40192186750264
100
AcDbArc
 50
351.9208061810834
 51
4.464085324323651
  0
ARC
  5
244
100
AcDbEntity
  8
0
  6
ByLayer
 62
    1
370
   -1
100
AcDbCircle
 10
-37371.89409281107
 20
14493.52895695808
 40
28.82023388527515
100
AcDbArc
 50
4.572152641256093
 51
45.3789403501372
  0
ARC
  5
245
100
AcDbEntity
  8
0
  6
ByLayer
 62
    1
370
   -1
100
AcDbCircle
 10
-37349.9671634457
 20
14514.97343287224
 40
1.923571297854889
100
AcDbArc
 50
64.26748269104409
 51
208.9520696275803
  0
ARC
  5
246
100
AcDbEntity
  8
0
  6
ByLayer
 62
    1
370
   -1
100
AcDbCircle
 10
-37370.11474673526
 20
14487.72647826212
 40
35.77851736480263
100
AcDbArc
 50
33.75412307255034
 51
54.09365876926571
  0
ARC
  5
247
100
AcDbEntity
  8
0
  6
ByLayer
 62
    1
370
   -1
100
AcDbCircle
 10
-37337.35371459997
 20
14510.67170354265
 40
4.298883590524458
100
AcDbArc
 50
225.4890614206793
 51
276.5369529131153
  0
ARC
  5
248
100
AcDbEntity
  8
0
  6
ByLayer
 62
    1
370
   -1
100
AcDbCircle
 10
-37337.20837631246
 20
14503.62580238507
 40
2.796214780267503
100
AcDbArc
 50
0.3010131021926643
 51
82.93205584890531
  0
ARC
  5
249
100
AcDbEntity
  8
0
  6
ByLayer
 62
    1
370
   -1
100
AcDbCircle
 10
-37335.642710865
 20
14503.56968892509
 40
1.23254609071561
100
AcDbArc
 50
246.9797622034631
 51
3.293176923473462
  0
ARC
  5
24A
100
AcDbEntity
  8
0
  6
ByLayer
 62
    1
370
   -1
100
AcDbCircle
 10
-37336.55009421428
 20
14501.97162472736
 40
0.6292415980957567
100
AcDbArc
 50
47.46552774298209
 51
197.8987649545615
  0
ARC
  5
24B
100
AcDbEntity
  8
0
  6
ByLayer
 62
    1
370
   -1
100
AcDbCircle
 10
-37320.218983278
 20
14504.7246495286
 40
17.18437647432997
100
AcDbArc
 50
189.8726506316814
 51
258.4556917709263
  0
ARC
  5
24C
100
AcDbEntity
  8
0
  6
ByLayer
 62
    1
370
   -1
100
AcDbCircle
 10
-37324.28301360959
 20
14486.9484906319
 40
1.128328858129948
100
AcDbArc
 50
287.2891712553136
 51
56.364160533942
  0
ARC
  5
24D
100
AcDbEntity
  8
0
  6
ByLayer
 62
    1
370
   -1
100
AcDbCircle
 10
-37326.13715447783
 20
14499.31323053386
 40
13.61923313965558
100
AcDbArc
 50
252.109656649416
 51
279.2512081125757
  0
ARC
  5
24E
100
AcDbEntity
  8
0
  6
ByLayer
 62
    1
370
   -1
100
AcDbCircle
 10
-37330.46817571119
 20
14485.80345910229
 40
0.5684802205770185
100
AcDbArc
 50
74.9884561749552
 51
218.7600087477421
  0
ARC
  5
24F
100
AcDbEntity
  8
0
  6
ByLayer
 62
    1
370
   -1
100
AcDbCircle
 10
-37293.47769319319
 20
14469.21570378817
 40
36.14655806785237
100
AcDbArc
 50
349.6652023933947
 51
43.84803163513152
  0
ARC
  5
250
100
AcDbEntity
  8
0
  6
ByLayer
 62
    1
370
   -1
100
AcDbCircle
 10
-37256.5356209611
 20
14470.95662932088
 40
8.34088761542362
100
AcDbArc
 50
221.1237421406045
 51
260.4630648217705
  0
ARC
  5
251
100
AcDbEntity
  8
0
  6
ByLayer
 62
    1
370
   -1
100
AcDbCircle
 10
-37284.65812431318
 20
14454.80686868085
 40
24.30393253822104
100
AcDbArc
 50
346.9103943372703
 51
26.02602428542958
  0
ARC
  5
252
100
AcDbEntity
  8
0
  6
ByLayer
 62
    1
370
   -1
100
AcDbCircle
 10
-37262.62540007222
 20
14453.24774373664
 40
4.272293093533817
100
AcDbArc
 50
227.7239414757515
 51
292.5694781112063
  0
ARC
  5
253
100
AcDbEntity
  8
0
  6
ByLayer
 62
    1
370
   -1
100
AcDbCircle
 10
-37290.41420156402
 20
14442.79257647581
 40
25.9605686344637
100
AcDbArc
 50
331.5892716986087
 51
16.31788573752502
  0
ARC
  5
254
100
AcDbEntity
  8
0
  6
ByLayer
 62
    1
370
   -1
100
AcDbCircle
 10
-37266.69821560657
 20
14433.65582218597
 40
3.333817541400383
100
AcDbArc
 50
195.4062211519743
 51
254.6569372470687
  0
ARC
  5
255
100
AcDbEntity
  8
0
  6
ByLayer
 62
    1
370
   -1
100
AcDbCircle
 10
-37319.08277405533
 20
14447.41178894571
 40
51.30418132961489
100
AcDbArc
 50
323.2326302517431
 51
343.4179181494849
  0
ARC
  5
256
100
AcDbEntity
  8
0
  6
ByLayer
 62
    1
370
   -1
100
AcDbCircle
 10
-37279.19528618006
 20
14419.92829266943
 40
3.445313765233955
100
AcDbArc
 50
240.1283032412199
 51
290.5763785726652
  0
ARC
  5
257
100
AcDbEntity
  8
0
  6
ByLayer
 62
    1
370
   -1
100
AcDbCircle
 10
-37318.03254572185
 20
14389.56816040364
 40
46.12208486816101
100
AcDbArc
 50
36.40437822944373
 51
43.72858401472009
  0
ARC
  5
258
100
AcDbEntity
  8
0
  6
ByLayer
 62
    1
370
   -1
100
AcDbCircle
 10
-37281.0434667081
 20
14422.69204062705
 40
3.86530825890397
100
AcDbArc
 50
145.2252633774395
 51
198.7476389430367
  0
ARC
  5
259
100
AcDbEntity
  8
0
  6
ByLayer
 62
    1
370
   -1
100
AcDbCircle
 10
-37330.43592941027
 20
14446.59061366927
 40
51.05571510924569
100
AcDbArc
 50
334.8551509445542
 51
28.80903749839854
  0
ARC
  5
25A
100
AcDbEntity
  8
0
  6
ByLayer
 62
    1
370
   -1
100
AcDbCircle
 10
-37234.81344813191
 20
14496.83235396789
 40
56.97984173286288
100
AcDbArc
 50
189.4258387875366
 51
206.7408424164647
  0
ARC
  5
25B
100
AcDbEntity
  8
0
  6
ByLayer
 62
    1
370
   -1
100
AcDbCircle
 10
-37250.67317981175
 20
14491.1028972847
 40
40.51125858104803
100
AcDbArc
 50
137.4010725093297
 51
185.1013649388124
  0
ARC
  5
25C
100
AcDbEntity
  8
0
  6
ByLayer
 62
    1
370
   -1
100
AcDbCircle
 10
-37251.10846548401
 20
14486.47184016944
 40
43.48343738346026
100
AcDbArc
 50
106.2599219223792
 51
132.515125933959
  0
ARC
  5
25D
100
AcDbEntity
  8
0
  6
ByLayer
 62
    1
370
   -1
100
AcDbCircle
 10
-37247.8397123234
 20
14457.75190001822
 40
72.13670183010161
100
AcDbArc
 50
78.15430712465668
 51
102.3622777131594
  0
ARC
  5
25E
100
AcDbEntity
  8
0
  6
ByLayer
 62
    1
370
   -1
100
AcDbCircle
 10
-37234.45737405344
 20
14525.62276774041
 40
3.079484337606586
100
AcDbArc
 50
282.9174735751815
 51
62.42251414607267
  0
ARC
  5
25F
100
AcDbEntity
  8
0
  6
ByLayer
 62
    1
370
   -1
100
AcDbCircle
 10
-37239.55163241668
 20
14642.96034703166
 40
120.477988806209
100
AcDbArc
 50
264.8841381974471
 51
272.7511239206708
  0
ARC
  5
260
100
AcDbEntity
  8
0
  6
ByLayer
 62
    1
370
   -1
100
AcDbCircle
 10
-37295.64119868419
 20
14459.74013954337
 40
77.80327258173659
100
AcDbArc
 50
50.08543688146762
 51
54.31292702132407
  0
ARC
  5
261
100
AcDbEntity
  8
0
  6
ByLayer
 62
    1
370
   -1
100
AcDbCircle
 10
-37247.36709566752
 20
14518.25152494832
 40
2.017513947663785
100
AcDbArc
 50
281.9767769845422
 51
35.23221661352395
  0
ARC
  5
262
100
AcDbEntity
  8
0
  6
ByLayer
 62
    1
370
   -1
100
AcDbCircle
 10
-37253.60568302109
 20
14531.51200180301
 40
16.62516138417596
100
AcDbArc
 50
255.8507749474883
 51
293.6052085956434
  0
ARC
  5
263
100
AcDbEntity
  8
0
  6
ByLayer
 62
    1
370
   -1
100
AcDbCircle
 10
-37279.22835084717
 20
14474.42049142853
 40
46.2966115301275
100
AcDbArc
 50
51.42861781071289
 51
62.24677959021922
  0
ARC
  5
264
100
AcDbEntity
  8
0
  6
ByLayer
 62
    1
370
   -1
100
AcDbCircle
 10
-37251.63872619938
 20
14509.02796948459
 40
2.037557854078561
100
AcDbArc
 50
290.7622131084545
 51
51.23355950541374
  0
ARC
  5
265
100
AcDbEntity
  8
0
  6
ByLayer
 62
    1
370
   -1
100
AcDbCircle
 10
-37254.75550991904
 20
14528.03926717879
 40
21.26593508660008
100
AcDbArc
 50
256.1051006367085
 51
280.4004654459601
  0
ARC
  5
266
100
AcDbEntity
  8
0
  6
ByLayer
 62
    1
370
   -1
100
AcDbCircle
 10
-37262.39331210771
 20
14503.76643339532
 40
4.424564988872218
100
AcDbArc
 50
259.9408593762754
 51
55.10837777419077
  0
ARC
  5
267
100
AcDbEntity
  8
0
  6
ByLayer
 62
    1
370
   -1
100
AcDbCircle
 10
-37266.62479740733
 20
14499.62774911794
 40
3.46552546517351
100
AcDbArc
 50
262.9651211782753
 51
356.3956248817472
  0
ARC
  5
268
100
AcDbEntity
  8
0
  6
ByLayer
 62
    1
370
   -1
100
AcDbCircle
 10
-37266.33117608294
 20
14495.05474494735
 40
1.34185743803214
100
AcDbArc
 50
122.3521368914981
 51
216.5222247974326
  0
LINE
  5
269
100
AcDbEntity
  8
0
  6
ByLayer
 62
    1
370
   -1
100
AcDbLine
 10
-37279.98365445224
 20
14160.80185669644
 11
-37372.82402850665
 21
14160.80185669644
  0
LINE
  5
26A
100
AcDbEntity
  8
0
  6
ByLayer
 62
    1
370
   -1
100
AcDbLine
 10
-37407.75947704322
 20
14160.80185669644
 11
-37511.7107478058
 21
14160.80185669644
  0
LINE
  5
26B
100
AcDbEntity
  8
0
  6
ByLayer
 62
    1
370
   -1
100
AcDbLine
 10
-37540.50482000146
 20
14160.80185669644
 11
-37575.66732464248
 21
14160.80185669644
  0
LINE
  5
26C
100
AcDbEntity
  8
0
  6
ByLayer
 62
    1
370
   -1
100
AcDbLine
 10
-37214.54524621908
 20
14160.80185669644
 11
-37243.11166177344
 21
14160.80185669644
  0
LINE
  5
26D
100
AcDbEntity
  8
0
  6
CONTINUOUS
 62
    1
370
   -1
100
AcDbLine
 10
-37387.82516670398
 20
14129.50992309357
 11
-37356.68315964248
 21
14102.33064626307
  0
LINE
  5
26E
100
AcDbEntity
  8
0
  6
CONTINUOUS
 62
    1
370
   -1
100
AcDbLine
 10
-37341.93315964247
 20
14102.33064626307
 11
-37356.68315964248
 21
14102.33064626307
  0
LINE
  5
26F
100
AcDbEntity
  8
0
  6
CONTINUOUS
 62
    1
370
   -1
100
AcDbLine
 10
-37341.93315964247
 20
14142.33064626307
 11
-37341.93315964247
 21
14102.33064626307
  0
LINE
  5
270
100
AcDbEntity
  8
0
  6
CONTINUOUS
 62
    1
370
   -1
100
AcDbLine
 10
-37321.43315964247
 20
14142.33064626307
 11
-37321.43315964247
 21
14102.33064626307
  0
LINE
  5
271
100
AcDbEntity
  8
0
  6
CONTINUOUS
 62
    1
370
   -1
100
AcDbLine
 10
-37321.43315964247
 20
14102.33064626307
 11
-37306.68315964248
 21
14102.33064626307
  0
LINE
  5
272
100
AcDbEntity
  8
0
  6
CONTINUOUS
 62
    1
370
   -1
100
AcDbLine
 10
-37275.54115258098
 20
14129.50992309357
 11
-37306.68315964248
 21
14102.33064626307
  0
LINE
  5
273
100
AcDbEntity
  8
0
  6
ByLayer
 62
    1
370
   -1
100
AcDbLine
 10
-37443.76270702169
 20
14124.43215235486
 11
-37405.66874003361
 21
14102.71560421441
  0
ARC
  5
274
100
AcDbEntity
  8
0
  6
ByLayer
 62
    1
370
   -1
100
AcDbCircle
 10
-37411.16577068216
 20
14134.68556612365
 40
23.90755267360463
100
AcDbArc
 50
285.5026741720838
 51
347.4972959412315
  0
ARC
  5
275
100
AcDbEntity
  8
0
  6
ByLayer
 62
    1
370
   -1
100
AcDbCircle
 10
-37438.85546991446
 20
14110.38415631899
 40
34.10315485409311
100
AcDbArc
 50
2.123530504458868
 51
35.37683822656477
  0
ARC
  5
276
100
AcDbEntity
  8
0
  6
ByLayer
 62
    1
370
   -1
100
AcDbCircle
 10
-37424.63907220107
 20
14119.37079294424
 40
17.33236951399941
100
AcDbArc
 50
38.36405768782471
 51
116.3505013524848
  0
ARC
  5
277
100
AcDbEntity
  8
0
  6
ByLayer
 62
    1
370
   -1
100
AcDbCircle
 10
-37421.18891202854
 20
14111.39261800744
 40
26.01685266769661
100
AcDbArc
 50
115.360473817279
 51
149.8875576068345
  0
ARC
  5
278
100
AcDbEntity
  8
0
  6
ByLayer
 62
    1
370
   -1
100
AcDbCircle
 10
-37439.16913602926
 20
14131.62519740413
 40
8.534681689628849
100
AcDbArc
 50
173.0603270599312
 51
237.4371757392983
  0
ARC
  5
279
100
AcDbEntity
  8
0
  6
ByLayer
 62
    1
370
   -1
100
AcDbCircle
 10
-37423.80067516597
 20
14130.83985127014
 40
23.90972259528648
100
AcDbArc
 50
163.5912497653837
 51
175.6427515650127
  0
ARC
  5
27A
100
AcDbEntity
  8
0
  6
ByLayer
 62
    1
370
   -1
100
AcDbCircle
 10
-37457.62134790122
 20
14155.48045160613
 40
20.93801126780157
100
AcDbArc
 50
263.4209406931466
 51
301.3225210825914
  0
ARC
  5
27B
100
AcDbEntity
  8
0
  6
ByLayer
 62
    1
370
   -1
100
AcDbCircle
 10
-37457.74815190612
 20
14159.07865632453
 40
24.50390414381075
100
AcDbArc
 50
223.1164462674272
 51
264.6795477019102
  0
ARC
  5
27C
100
AcDbEntity
  8
0
  6
ByLayer
 62
    1
370
   -1
100
AcDbCircle
 10
-37252.23627995085
 20
14134.65165832233
 40
23.86534159548636
100
AcDbArc
 50
192.4417997835891
 51
254.5582301020693
  0
ARC
  5
27D
100
AcDbEntity
  8
0
  6
ByLayer
 62
    1
370
   -1
100
AcDbCircle
 10
-37226.32144123376
 20
14111.03762758486
 40
32.27491167112739
100
AcDbArc
 50
145.1358843784286
 51
178.9166988572183
  0
ARC
  5
27E
100
AcDbEntity
  8
0
  6
ByLayer
 62
    1
370
   -1
100
AcDbCircle
 10
-37238.67410873905
 20
14119.30002844911
 40
17.41864989165147
100
AcDbArc
 50
61.15765958654557
 51
144.2089148044706
  0
ARC
  5
27F
100
AcDbEntity
  8
0
  6
ByLayer
 62
    1
370
   -1
100
AcDbCircle
 10
-37242.4960723788
 20
14111.12673842403
 40
26.42846396368343
100
AcDbArc
 50
30.15621025994108
 51
62.44760232355577
  0
ARC
  5
280
100
AcDbEntity
  8
0
  6
ByLayer
 62
    1
370
   -1
100
AcDbCircle
 10
-37223.90458745072
 20
14131.48370013989
 40
8.263196334329441
100
AcDbArc
 50
301.0344942742715
 51
8.158828340979994
  0
ARC
  5
281
100
AcDbEntity
  8
0
  6
ByLayer
 62
    1
370
   -1
100
AcDbCircle
 10
-37239.56564411899
 20
14130.83985127014
 40
23.90972259528482
100
AcDbArc
 50
4.3572484349873
 51
16.40875023461622
  0
ARC
  5
282
100
AcDbEntity
  8
0
  6
ByLayer
 62
    1
370
   -1
100
AcDbCircle
 10
-37205.60888268015
 20
14155.85605980622
 40
21.32976899423975
100
AcDbArc
 50
238.8897081151785
 51
284.1300976561337
  0
ARC
  5
283
100
AcDbEntity
  8
0
  6
ByLayer
 62
    1
370
   -1
100
AcDbCircle
 10
-37205.19809133479
 20
14158.45287631564
 40
23.7701583080099
100
AcDbArc
 50
281.6410293870348
 51
317.2925630190247
  0
LINE
  5
284
100
AcDbEntity
  8
0
  6
ByLayer
 62
    1
370
   -1
100
AcDbLine
 10
-37341.93315964247
 20
14142.33064626307
 11
-37321.43315964247
 21
14142.33064626307
  0
LINE
  5
285
100
AcDbEntity
  8
0
  6
ByLayer
 62
    1
370
   -1
100
AcDbLine
 10
-37475.63517170457
 20
14142.33064626307
 11
-37600.83602907509
 21
14142.33064626307
  0
LINE
  5
286
100
AcDbEntity
  8
0
  6
ByLayer
 62
    1
370
   -1
100
AcDbLine
 10
-37056.47713600721
 20
14142.2811291599
 11
-37057.29623826468
 21
14147.21358002046
  0
LINE
  5
287
100
AcDbEntity
  8
0
  6
ByLayer
 62
    1
370
   -1
100
AcDbLine
 10
-37183.50863935712
 20
14180.20432683585
 11
-37180.21916480212
 21
14183.96987555444
  0
LINE
  5
288
100
AcDbEntity
  8
0
  6
ByLayer
 62
    1
370
   -1
100
AcDbLine
 10
-37190.18785259407
 20
14180.81395508586
 11
-37188.727895587
 21
14185.59605980424
  0
LINE
  5
289
100
AcDbEntity
  8
0
  6
ByLayer
 62
    1
370
   -1
100
AcDbLine
 10
-37198.19414729578
 20
14180.81395508586
 11
-37197.11855143831
 21
14185.69689411388
  0
LINE
  5
28A
100
AcDbEntity
  8
0
  6
ByLayer
 62
    1
370
   -1
100
AcDbLine
 10
-37217.4986322262
 20
14205.47262948593
 11
-37212.63497552849
 21
14206.63230337408
  0
LINE
  5
28B
100
AcDbEntity
  8
0
  6
ByLayer
 62
    1
370
   -1
100
AcDbLine
 10
-37284.99641333788
 20
14272.81802576959
 11
-37289.99641333788
 21
14272.81802576959
  0
LINE
  5
28C
100
AcDbEntity
  8
0
  6
ByLayer
 62
    1
370
   -1
100
AcDbLine
 10
-37372.82402850665
 20
14160.80185669644
 11
-37369.91238889778
 21
14164.86662665156
  0
LINE
  5
28D
100
AcDbEntity
  8
0
  6
ByLayer
 62
    1
370
   -1
100
AcDbLine
 10
-37407.70947704322
 20
14160.80185669644
 11
-37411.71998360349
 21
14163.78779660374
  0
LINE
  5
28E
100
AcDbEntity
  8
0
  6
ByLayer
 62
    1
370
   -1
100
AcDbLine
 10
-37540.45482000146
 20
14160.80185669644
 11
-37544.15746841404
 21
14164.16197495817
  0
LINE
  5
28F
100
AcDbEntity
  8
0
  6
ByLayer
 62
    1
370
   -1
100
AcDbLine
 10
-37549.27239421982
 20
14245.64975886883
 11
-37549.27239421982
 21
14250.64975886883
  0
LINE
  5
290
100
AcDbEntity
  8
0
  6
ByLayer
 62
    1
370
   -1
100
AcDbLine
 10
-37455.10540593696
 20
14347.02241676219
 11
-37460.10540593696
 21
14347.02241676219
  0
LINE
  5
291
100
AcDbEntity
  8
0
  6
ByLayer
 62
    1
370
   -1
100
AcDbLine
 10
-37463.83931765211
 20
14389.2156351188
 11
-37462.41595577486
 21
14384.42251077591
  0
LINE
  5
292
100
AcDbEntity
  8
0
  6
ByLayer
 62
    1
370
   -1
100
AcDbLine
 10
-37327.35333563626
 20
14377.11241218995
 11
-37330.70140100285
 21
14380.82596282257
  0
LINE
  5
293
100
AcDbEntity
  8
0
  6
ByLayer
 62
    1
370
   -1
100
AcDbLine
 10
-37296.99447943625
 20
14381.90705954494
 11
-37296.99447943625
 21
14376.90705954494
  0
LINE
  5
294
100
AcDbEntity
  8
0
  6
ByLayer
 62
    1
370
   -1
100
AcDbLine
 10
-37250.29465927382
 20
14522.96229221103
 11
-37255.29465927382
 21
14522.96229221103
  0
LINE
  5
295
100
AcDbEntity
  8
0
  6
ByLayer
 62
    1
370
   -1
100
AcDbLine
 10
-37329.55178123574
 20
14458.15972893392
 11
-37331.8980944435
 21
14462.57502216666
  0
LINE
  5
296
100
AcDbEntity
  8
0
  6
ByLayer
 62
    1
370
   -1
100
AcDbLine
 10
-37397.46537871548
 20
14436.78091928987
 11
-37400.31901222451
 21
14435.33904194762
  0
LINE
  5
297
100
AcDbEntity
  8
0
  6
ByLayer
 62
    1
370
   -1
100
AcDbLine
 10
-37372.66291231954
 20
14482.52383727009
 11
-37376.88076150794
 21
14479.83873983724
  0
LINE
  5
298
100
AcDbEntity
  8
0
  6
ByLayer
 62
    1
370
   -1
100
AcDbLine
 10
-37362.43711801351
 20
14515.99085157025
 11
-37364.39477221698
 21
14520.59167649841
  0
ARC
  5
299
100
AcDbEntity
  8
0
  6
ByLayer
 62
    1
370
   -1
100
AcDbCircle
 10
-37056.98640116884
 20
14147.65244359748
 40
5.395402653393118
100
AcDbArc
 50
275.4161380747364
 51
290.0312811057426
  0
ARC
  5
29A
100
AcDbEntity
  8
0
  6
ByLayer
 62
    1
370
   -1
100
AcDbCircle
 10
-37381.31086624163
 20
14437.75416887572
 40
16.18380326203127
100
AcDbArc
 50
183.6247072939052
 51
199.5832134441951
  0
ENDSEC
  0
SECTION
  2
OBJECTS
  0
DICTIONARY
  5
C
330
0
100
AcDbDictionary
281
    1
  3
ACAD_GROUP
350
D
  0
DICTIONARY
  5
D
330
C
100
AcDbDictionary
281
    1
  0
PLOTSETTINGS
  5
29B
100
AcDbPlotSettings
  6
1x1
 40
0
 41
0
 42
0
 43
0
  0
ENDSEC
  0
EOF
