999
dxfrw 0.6.3
  0
SECTION
  2
HEADER
  9
$ACADVER
  1
AC1021
  9
$DWGCODEPAGE
  3
ANSI_1252
  9
$INSBASE
 10
0
 20
0
 30
0
  9
$EXTMIN
 10
0
 20
0
 30
0
  9
$EXTMAX
 10
99.8126
 20
150.686
 30
0
  9
$LIMMIN
 10
0
 20
0
  9
$LIMMAX
 10
420
 20
297
  9
$ORTHOMODE
 70
    0
  9
$REGENMODE
 70
    1
  9
$FILLMODE
 70
    1
  9
$QTEXTMODE
 70
    0
  9
$MIRRTEXT
 70
    0
  9
$LTSCALE
 40
1
  9
$ATTMODE
 70
    0
  9
$TEXTSIZE
 40
2.5
  9
$TRACEWID
 40
15.68
  9
$TEXTSTYLE
  7
STANDARD
  9
$CLAYER
  8
0
  9
$CELTYPE
  6
BYLAYER
  9
$CECOLOR
 62
  256
  9
$CELTSCALE
 40
1
  9
$DISPSILH
 70
    0
  9
$DIMSCALE
 40
2.5
  9
$DIMASZ
 40
2.5
  9
$DIMEXO
 40
0.625
  9
$DIMDLI
 40
3.75
  9
$DIMRND
 40
0
  9
$DIMDLE
 40
0
  9
$DIMEXE
 40
1.25
  9
$DIMTP
 40
0
  9
$DIMTM
 40
0
  9
$DIMTXT
 40
2.5
  9
$DIMCEN
 40
2.5
  9
$DIMTSZ
 40
0
  9
$DIMTOL
 70
    0
  9
$DIMLIM
 70
    0
  9
$DIMTIH
 70
    0
  9
$DIMTOH
 70
    0
  9
$DIMSE1
 70
    0
  9
$DIMSE2
 70
    0
  9
$DIMTAD
 70
    1
  9
$DIMZIN
 70
    8
  9
$DIMBLK
  1

  9
$DIMASO
 70
    1
  9
$DIMSHO
 70
    1
  9
$DIMPOST
  1

  9
$DIMAPOST
  1

  9
$DIMALT
 70
    0
  9
$DIMALTD
 70
    3
  9
$DIMALTF
 40
0.03937
  9
$DIMLFAC
 40
1
  9
$DIMTOFL
 70
    1
  9
$DIMTVP
 40
0
  9
$DIMTIX
 70
    0
  9
$DIMSOXD
 70
    0
  9
$DIMSAH
 70
    0
  9
$DIMBLK1
  1

  9
$DIMBLK2
  1

  9
$DIMSTYLE
  2
Standard
  9
$DIMCLRD
 70
    0
  9
$DIMCLRE
 70
    0
  9
$DIMCLRT
 70
    0
  9
$DIMTFAC
 40
1
  9
$DIMGAP
 40
0.625
  9
$DIMJUST
 70
    0
  9
$DIMSD1
 70
    0
  9
$DIMSD2
 70
    0
  9
$DIMTOLJ
 70
    0
  9
$DIMTZIN
 70
    8
  9
$DIMALTZ
 70
    0
  9
$DIMALTTZ
 70
    0
  9
$DIMUPT
 70
    0
  9
$DIMDEC
 70
    2
  9
$DIMTDEC
 70
    2
  9
$DIMALTU
 70
    2
  9
$DIMALTTD
 70
    3
  9
$DIMTXSTY
  7
STANDARD
  9
$DIMAUNIT
 70
    0
  9
$DIMADEC
 70
    0
  9
$DIMALTRND
 40
0
  9
$DIMAZIN
 70
    0
  9
$DIMDSEP
 70
   44
  9
$DIMATFIT
 70
    3
  9
$DIMFRAC
 70
    0
  9
$DIMLDRBLK
  1
STANDARD
  9
$DIMLUNIT
 70
    2
  9
$DIMLWD
 70
   -2
  9
$DIMLWE
 70
   -2
  9
$DIMTMOVE
 70
    0
  9
$DIMFXL
 40
1
  9
$DIMFXLON
 70
    0
  9
$DIMJOGANG
 40
0.7854
  9
$DIMTFILL
 70
    0
  9
$DIMTFILLCLR
 70
    0
  9
$DIMARCSYM
 70
    0
  9
$DIMLTYPE
  6

  9
$DIMLTEX1
  6

  9
$DIMLTEX2
  6

  9
$LUNITS
 70
    2
  9
$LUPREC
 70
    4
  9
$SKETCHINC
 40
1
  9
$FILLETRAD
 40
0
  9
$AUNITS
 70
    0
  9
$AUPREC
 70
    2
  9
$MENU
  1
.
  9
$ELEVATION
 40
0
  9
$PELEVATION
 40
0
  9
$THICKNESS
 40
0
  9
$LIMCHECK
 70
    0
  9
$CHAMFERA
 40
0
  9
$CHAMFERB
 40
0
  9
$CHAMFERC
 40
0
  9
$CHAMFERD
 40
0
  9
$SKPOLY
 70
    0
  9
$USRTIMER
 70
    1
  9
$ANGBASE
 50
0
  9
$ANGDIR
 70
    0
  9
$PDMODE
 70
   96
  9
$PDSIZE
 40
-2
  9
$PLINEWID
 40
0
  9
$SPLFRAME
 70
    0
  9
$SPLINETYPE
 70
    2
  9
$SPLINESEGS
 70
    8
  9
$HANDSEED
  5
20000
  9
$SURFTAB1
 70
    6
  9
$SURFTAB2
 70
    6
  9
$SURFTYPE
 70
    6
  9
$SURFU
 70
    6
  9
$SURFV
 70
    6
  9
$UCSBASE
  2

  9
$UCSNAME
  2

  9
$UCSORG
 10
0
 20
0
 30
0
  9
$UCSXDIR
 10
1
 20
0
 30
0
  9
$UCSYDIR
 10
0
 20
1
 30
0
  9
$UCSORTHOREF
  2

  9
$UCSORTHOVIEW
 70
    0
  9
$UCSORGTOP
 10
0
 20
0
 30
0
  9
$UCSORGBOTTOM
 10
0
 20
0
 30
0
  9
$UCSORGLEFT
 10
0
 20
0
 30
0
  9
$UCSORGRIGHT
 10
0
 20
0
 30
0
  9
$UCSORGFRONT
 10
0
 20
0
 30
0
  9
$UCSORGBACK
 10
0
 20
0
 30
0
  9
$PUCSBASE
  2

  9
$PUCSNAME
  2

  9
$PUCSORG
 10
0
 20
0
 30
0
  9
$PUCSXDIR
 10
1
 20
0
 30
0
  9
$PUCSYDIR
 10
0
 20
1
 30
0
  9
$PUCSORTHOREF
  2

  9
$PUCSORTHOVIEW
 70
    0
  9
$PUCSORGTOP
 10
0
 20
0
 30
0
  9
$PUCSORGBOTTOM
 10
0
 20
0
 30
0
  9
$PUCSORGLEFT
 10
0
 20
0
 30
0
  9
$PUCSORGRIGHT
 10
0
 20
0
 30
0
  9
$PUCSORGFRONT
 10
0
 20
0
 30
0
  9
$PUCSORGBACK
 10
0
 20
0
 30
0
  9
$USERI1
 70
    0
  9
$USERI2
 70
    0
  9
$USERI3
 70
    0
  9
$USERI4
 70
    0
  9
$USERI5
 70
    0
  9
$USERR1
 40
0
  9
$USERR2
 40
0
  9
$USERR3
 40
0
  9
$USERR4
 40
0
  9
$USERR5
 40
0
  9
$WORLDVIEW
 70
    1
  9
$SHADEDGE
 70
    3
  9
$SHADEDIF
 70
   70
  9
$TILEMODE
 70
    1
  9
$MAXACTVP
 70
   64
  9
$PINSBASE
 10
0
 20
0
 30
0
  9
$PLIMCHECK
 70
    0
  9
$PEXTMIN
 10
0
 20
0
 30
0
  9
$PEXTMAX
 10
0
 20
0
 30
0
  9
$SNAPSTYLE
 70
    0
  9
$PLIMMIN
 10
0
 20
0
  9
$PLIMMAX
 10
304.8
 20
228.6
  9
$UNITMODE
 70
    0
  9
$VISRETAIN
 70
    1
  9
$PLINEGEN
 70
    0
  9
$PSLTSCALE
 70
    1
  9
$TREEDEPTH
 70
 3020
  9
$CMLSTYLE
  2
Standard
  9
$CMLJUST
 70
    0
  9
$CMLSCALE
 40
20
  9
$PROXYGRAPHICS
 70
    1
  9
$MEASUREMENT
 70
    1
  9
$CELWEIGHT
370
   -1
  9
$ENDCAPS
280
    0
  9
$JOINSTYLE
280
    0
  9
$LWDISPLAY
290
    0
  9
$INSUNITS
 70
    0
  9
$HYPERLINKBASE
  1

  9
$STYLESHEET
  1

  9
$XEDIT
290
    1
  9
$CEPSNTYPE
380
    0
  9
$PSTYLEMODE
290
    1
  9
$EXTNAMES
290
    1
  9
$PSVPSCALE
 40
1
  9
$OLESTARTUP
290
    0
  9
$SORTENTS
280
  127
  9
$INDEXCTL
280
    0
  9
$HIDETEXT
280
    1
  9
$XCLIPFRAME
290
    0
  9
$HALOGAP
280
    0
  9
$OBSCOLOR
 70
  257
  9
$OBSLTYPE
280
    0
  9
$INTERSECTIONDISPLAY
280
    0
  9
$INTERSECTIONCOLOR
 70
  257
  9
$DIMASSOC
280
    1
  9
$PROJECTNAME
  1

  9
$CAMERADISPLAY
290
    0
  9
$LENSLENGTH
 40
50
  9
$CAMERAHEIGHT
 40
0
  9
$STEPSPERSEC
 40
2
  9
$STEPSIZE
 40
50
  9
$3DDWFPREC
 40
2
  9
$PSOLWIDTH
 40
5
  9
$PSOLHEIGHT
 40
80
  9
$LOFTANG1
 40
1.570796326794897
  9
$LOFTANG2
 40
1.570796326794897
  9
$LOFTMAG1
 40
0
  9
$LOFTMAG2
 40
0
  9
$LOFTPARAM
 70
    7
  9
$LOFTNORMALS
280
    1
  9
$LATITUDE
 40
1
  9
$LONGITUDE
 40
1
  9
$NORTHDIRECTION
 40
0
  9
$TIMEZONE
 70
-8000
  9
$LIGHTGLYPHDISPLAY
280
    1
  9
$TILEMODELIGHTSYNCH
280
    1
  9
$SOLIDHIST
280
    1
  9
$SHOWHIST
280
    1
  9
$DWFFRAME
280
    2
  9
$DGNFRAME
280
    0
  9
$REALWORLDSCALE
290
    1
  9
$INTERFERECOLOR
 62
    1
  9
$CSHADOW
280
    0
  9
$SHADOWPLANELOCATION
 40
0
  0
ENDSEC
  0
SECTION
  2
CLASSES
  0
ENDSEC
  0
SECTION
  2
TABLES
  0
TABLE
  2
VPORT
  5
8
330
0
100
AcDbSymbolTable
 70
    1
  0
VPORT
  5
31
330
2
100
AcDbSymbolTableRecord
100
AcDbViewportTableRecord
  2
*ACTIVE
 70
    0
 10
0
 20
0
 11
1
 21
1
 12
250.1508015000001
 22
167.8983738750001
 13
0
 23
0
 14
10
 24
10
 15
10
 25
10
 16
0
 26
0
 36
1
 17
0
 27
0
 37
0
 40
398.4960442500002
 41
1.576642335766423
 42
50
 43
0
 44
0
 50
0
 51
0
 71
    0
 72
  100
 73
    1
 74
    3
 75
    0
 76
    1
 77
    0
 78
    0
281
    0
 65
    1
110
0
120
0
130
0
111
1
121
0
131
0
112
0
122
1
132
0
 79
    0
146
0
348
10020
 60
    7
 61
    5
292
1
282
    1
141
0
142
0
 63
  250
421
3358443
  0
ENDTAB
  0
TABLE
  2
LTYPE
  5
5
330
0
100
AcDbSymbolTable
 70
    4
  0
LTYPE
  5
14
330
5
100
AcDbSymbolTableRecord
100
AcDbLinetypeTableRecord
  2
ByBlock
 70
    0
  3

 72
   65
 73
    0
 40
0
  0
LTYPE
  5
15
330
5
100
AcDbSymbolTableRecord
100
AcDbLinetypeTableRecord
  2
ByLayer
 70
    0
  3

 72
   65
 73
    0
 40
0
  0
LTYPE
  5
16
330
5
100
AcDbSymbolTableRecord
100
AcDbLinetypeTableRecord
  2
Continuous
 70
    0
  3
Solid line
 72
   65
 73
    0
 40
0
  0
LTYPE
  5
32
330
5
100
AcDbSymbolTableRecord
100
AcDbLinetypeTableRecord
  2
DOT
 70
    0
  3
Dot . . . . . . . . . . . . . . . . . . . . . .
 72
   65
 73
    2
 40
6.35
 49
0
 74
    0
 49
-6.35
 74
    0
  0
LTYPE
  5
33
330
5
100
AcDbSymbolTableRecord
100
AcDbLinetypeTableRecord
  2
DOTTINY
 70
    0
  3
Dot (.15x) .....................................
 72
   65
 73
    2
 40
0.9525
 49
0
 74
    0
 49
-0.9525
 74
    0
  0
LTYPE
  5
34
330
5
100
AcDbSymbolTableRecord
100
AcDbLinetypeTableRecord
  2
DOT2
 70
    0
  3
Dot (.5x) .....................................
 72
   65
 73
    2
 40
3.175
 49
0
 74
    0
 49
-3.175
 74
    0
  0
LTYPE
  5
35
330
5
100
AcDbSymbolTableRecord
100
AcDbLinetypeTableRecord
  2
DOTX2
 70
    0
  3
Dot (2x) .  .  .  .  .  .  .  .  .  .  .  .  .
 72
   65
 73
    2
 40
12.7
 49
0
 74
    0
 49
-12.7
 74
    0
  0
LTYPE
  5
36
330
5
100
AcDbSymbolTableRecord
100
AcDbLinetypeTableRecord
  2
DASHED
 70
    0
  3
Dashed _ _ _ _ _ _ _ _ _ _ _ _ _ _ _ _ _
 72
   65
 73
    2
 40
19.05
 49
12.7
 74
    0
 49
-6.35
 74
    0
  0
LTYPE
  5
37
330
5
100
AcDbSymbolTableRecord
100
AcDbLinetypeTableRecord
  2
DASHEDTINY
 70
    0
  3
Dashed (.15x) _ _ _ _ _ _ _ _ _ _ _ _ _ _ _ _ _
 72
   65
 73
    2
 40
2.8575
 49
1.905
 74
    0
 49
-0.9525
 74
    0
  0
LTYPE
  5
38
330
5
100
AcDbSymbolTableRecord
100
AcDbLinetypeTableRecord
  2
DASHED2
 70
    0
  3
Dashed (.5x) _ _ _ _ _ _ _ _ _ _ _ _ _ _ _ _ _
 72
   65
 73
    2
 40
9.524999999999999
 49
6.35
 74
    0
 49
-3.175
 74
    0
  0
LTYPE
  5
39
330
5
100
AcDbSymbolTableRecord
100
AcDbLinetypeTableRecord
  2
DASHEDX2
 70
    0
  3
Dashed (2x) ____  ____  ____  ____  ____  ___
 72
   65
 73
    2
 40
38.09999999999999
 49
25.4
 74
    0
 49
-12.7
 74
    0
  0
LTYPE
  5
3A
330
5
100
AcDbSymbolTableRecord
100
AcDbLinetypeTableRecord
  2
DASHDOT
 70
    0
  3
Dash dot __ . __ . __ . __ . __ . __ . __ . __
 72
   65
 73
    4
 40
25.4
 49
12.7
 74
    0
 49
-6.35
 74
    0
 49
0
 74
    0
 49
-6.35
 74
    0
  0
LTYPE
  5
3B
330
5
100
AcDbSymbolTableRecord
100
AcDbLinetypeTableRecord
  2
DASHDOTTINY
 70
    0
  3
Dash dot (.15x) _._._._._._._._._._._._._._._.
 72
   65
 73
    4
 40
3.81
 49
1.905
 74
    0
 49
-0.9525
 74
    0
 49
0
 74
    0
 49
-0.9525
 74
    0
  0
LTYPE
  5
3C
330
5
100
AcDbSymbolTableRecord
100
AcDbLinetypeTableRecord
  2
DASHDOT2
 70
    0
  3
Dash dot (.5x) _._._._._._._._._._._._._._._.
 72
   65
 73
    4
 40
12.7
 49
6.35
 74
    0
 49
-3.175
 74
    0
 49
0
 74
    0
 49
-3.175
 74
    0
  0
LTYPE
  5
3D
330
5
100
AcDbSymbolTableRecord
100
AcDbLinetypeTableRecord
  2
DASHDOTX2
 70
    0
  3
Dash dot (2x) ____  .  ____  .  ____  .  ___
 72
   65
 73
    4
 40
50.8
 49
25.4
 74
    0
 49
-12.7
 74
    0
 49
0
 74
    0
 49
-12.7
 74
    0
  0
LTYPE
  5
3E
330
5
100
AcDbSymbolTableRecord
100
AcDbLinetypeTableRecord
  2
DIVIDE
 70
    0
  3
Divide ____ . . ____ . . ____ . . ____ . . ____
 72
   65
 73
    6
 40
31.75
 49
12.7
 74
    0
 49
-6.35
 74
    0
 49
0
 74
    0
 49
-6.35
 74
    0
 49
0
 74
    0
 49
-6.35
 74
    0
  0
LTYPE
  5
3F
330
5
100
AcDbSymbolTableRecord
100
AcDbLinetypeTableRecord
  2
DIVIDETINY
 70
    0
  3
Divide (.15x) __..__..__..__..__..__..__..__.._
 72
   65
 73
    6
 40
4.7625
 49
1.905
 74
    0
 49
-0.9525
 74
    0
 49
0
 74
    0
 49
-0.9525
 74
    0
 49
0
 74
    0
 49
-0.9525
 74
    0
  0
LTYPE
  5
40
330
5
100
AcDbSymbolTableRecord
100
AcDbLinetypeTableRecord
  2
DIVIDE2
 70
    0
  3
Divide (.5x) __..__..__..__..__..__..__..__.._
 72
   65
 73
    6
 40
15.875
 49
6.35
 74
    0
 49
-3.175
 74
    0
 49
0
 74
    0
 49
-3.175
 74
    0
 49
0
 74
    0
 49
-3.175
 74
    0
  0
LTYPE
  5
41
330
5
100
AcDbSymbolTableRecord
100
AcDbLinetypeTableRecord
  2
DIVIDEX2
 70
    0
  3
Divide (2x) ________  .  .  ________  .  .  _
 72
   65
 73
    6
 40
63.5
 49
25.4
 74
    0
 49
-12.7
 74
    0
 49
0
 74
    0
 49
-12.7
 74
    0
 49
0
 74
    0
 49
-12.7
 74
    0
  0
LTYPE
  5
42
330
5
100
AcDbSymbolTableRecord
100
AcDbLinetypeTableRecord
  2
BORDER
 70
    0
  3
Border __ __ . __ __ . __ __ . __ __ . __ __ .
 72
   65
 73
    6
 40
44.45
 49
12.7
 74
    0
 49
-6.35
 74
    0
 49
12.7
 74
    0
 49
-6.35
 74
    0
 49
0
 74
    0
 49
-6.35
 74
    0
  0
LTYPE
  5
43
330
5
100
AcDbSymbolTableRecord
100
AcDbLinetypeTableRecord
  2
BORDERTINY
 70
    0
  3
Border (.15x) __.__.__.__.__.__.__.__.__.__.__.
 72
   65
 73
    6
 40
6.6675
 49
1.905
 74
    0
 49
-0.9525
 74
    0
 49
1.905
 74
    0
 49
-0.9525
 74
    0
 49
0
 74
    0
 49
-0.9525
 74
    0
  0
LTYPE
  5
44
330
5
100
AcDbSymbolTableRecord
100
AcDbLinetypeTableRecord
  2
BORDER2
 70
    0
  3
Border (.5x) __.__.__.__.__.__.__.__.__.__.__.
 72
   65
 73
    6
 40
22.225
 49
6.35
 74
    0
 49
-3.175
 74
    0
 49
6.35
 74
    0
 49
-3.175
 74
    0
 49
0
 74
    0
 49
-3.175
 74
    0
  0
LTYPE
  5
45
330
5
100
AcDbSymbolTableRecord
100
AcDbLinetypeTableRecord
  2
BORDERX2
 70
    0
  3
Border (2x) ____  ____  .  ____  ____  .  ___
 72
   65
 73
    6
 40
88.89999999999999
 49
25.4
 74
    0
 49
-12.7
 74
    0
 49
25.4
 74
    0
 49
-12.7
 74
    0
 49
0
 74
    0
 49
-12.7
 74
    0
  0
LTYPE
  5
46
330
5
100
AcDbSymbolTableRecord
100
AcDbLinetypeTableRecord
  2
CENTER
 70
    0
  3
Center ____ _ ____ _ ____ _ ____ _ ____ _ ____
 72
   65
 73
    4
 40
50.8
 49
31.75
 74
    0
 49
-6.35
 74
    0
 49
6.35
 74
    0
 49
-6.35
 74
    0
  0
LTYPE
  5
47
330
5
100
AcDbSymbolTableRecord
100
AcDbLinetypeTableRecord
  2
CENTERTINY
 70
    0
  3
Center (.15x) ___ _ ___ _ ___ _ ___ _ ___ _ ___
 72
   65
 73
    4
 40
7.619999999999999
 49
4.7625
 74
    0
 49
-0.9525
 74
    0
 49
0.9525
 74
    0
 49
-0.9525
 74
    0
  0
LTYPE
  5
48
330
5
100
AcDbSymbolTableRecord
100
AcDbLinetypeTableRecord
  2
CENTER2
 70
    0
  3
Center (.5x) ___ _ ___ _ ___ _ ___ _ ___ _ ___
 72
   65
 73
    4
 40
28.575
 49
19.05
 74
    0
 49
-3.175
 74
    0
 49
3.175
 74
    0
 49
-3.175
 74
    0
  0
LTYPE
  5
49
330
5
100
AcDbSymbolTableRecord
100
AcDbLinetypeTableRecord
  2
CENTERX2
 70
    0
  3
Center (2x) ________  __  ________  __  _____
 72
   65
 73
    4
 40
101.6
 49
63.5
 74
    0
 49
-12.7
 74
    0
 49
12.7
 74
    0
 49
-12.7
 74
    0
  0
ENDTAB
  0
TABLE
  2
LAYER
  5
2
330
0
100
AcDbSymbolTable
 70
    1
  0
LAYER
  5
10
330
2
100
AcDbSymbolTableRecord
100
AcDbLayerTableRecord
  2
0
 70
    0
 62
    7
  6
CONTINUOUS
370
   25
390
F
  0
ENDTAB
  0
TABLE
  2
STYLE
  5
3
330
0
100
AcDbSymbolTable
 70
    3
  0
STYLE
  5
4A
330
2
100
AcDbSymbolTableRecord
100
AcDbTextStyleTableRecord
  2
Standard
 70
    0
 40
0
 41
1
 50
0
 71
    0
 42
1
  3
txt
  4

  0
ENDTAB
  0
TABLE
  2
VIEW
  5
6
330
0
100
AcDbSymbolTable
 70
    0
  0
ENDTAB
  0
TABLE
  2
UCS
  5
7
330
0
100
AcDbSymbolTable
 70
    0
  0
ENDTAB
  0
TABLE
  2
APPID
  5
9
330
0
100
AcDbSymbolTable
 70
    1
  0
APPID
  5
12
330
9
100
AcDbSymbolTableRecord
100
AcDbRegAppTableRecord
  2
ACAD
 70
    0
  0
APPID
  5
4B
330
9
100
AcDbSymbolTableRecord
100
AcDbRegAppTableRecord
  2
LibreCad
 70
    0
  0
ENDTAB
  0
TABLE
  2
DIMSTYLE
  5
A
330
0
100
AcDbSymbolTable
 70
    1
100
AcDbDimStyleTable
 71
    1
  0
DIMSTYLE
105
4C
330
A
100
AcDbSymbolTableRecord
100
AcDbDimStyleTableRecord
  2
Standard
 70
    0
 40
1
 41
2.5
 42
0.625
 43
0.38
 44
1.25
 45
0
 46
0
 47
0
 48
0
 49
1
140
2.5
141
0.09
142
2.5
143
25.4
144
1
145
0
146
1
147
0.625
148
0
 71
    0
 72
    0
 73
    0
 74
    1
 75
    0
 76
    0
 77
    0
 78
    1
 79
    0
170
    0
171
    2
172
    0
173
    0
174
    0
175
    0
176
    0
177
    0
178
    0
179
    0
271
    2
272
    4
273
    2
274
    2
275
    0
276
    0
277
    2
278
    0
279
    0
280
    0
281
    0
282
    0
283
    1
284
    0
285
    0
286
    0
288
    0
289
    3
340
4A
  0
ENDTAB
  0
TABLE
  2
BLOCK_RECORD
  5
1
330
0
100
AcDbSymbolTable
 70
    2
  0
BLOCK_RECORD
  5
1F
330
1
100
AcDbSymbolTableRecord
100
AcDbBlockTableRecord
  2
*Model_Space
 70
    0
280
    1
281
    0
  0
BLOCK_RECORD
  5
1E
330
1
100
AcDbSymbolTableRecord
100
AcDbBlockTableRecord
  2
*Paper_Space
 70
    0
280
    1
281
    0
  0
ENDTAB
  0
ENDSEC
  0
SECTION
  2
BLOCKS
  0
BLOCK
  5
20
330
1F
100
AcDbEntity
  8
0
100
AcDbBlockBegin
  2
*Model_Space
 70
    0
 10
0
 20
0
 30
0
  3
*Model_Space
  1

  0
ENDBLK
  5
21
330
1F
100
AcDbEntity
  8
0
100
AcDbBlockEnd
  0
BLOCK
  5
1C
330
1B
100
AcDbEntity
  8
0
100
AcDbBlockBegin
  2
*Paper_Space
 70
    0
 10
0
 20
0
 30
0
  3
*Paper_Space
  1

  0
ENDBLK
  5
1D
330
1F
100
AcDbEntity
  8
0
100
AcDbBlockEnd
  0
ENDSEC
  0
SECTION
  2
ENTITIES
  0
LWPOLYLINE
  5
4D
100
AcDbEntity
  8
0
  6
ByLayer
 62
  256
370
   -1
100
AcDbPolyline
 90
 1000
 70
    1
 43
0
 10
80.38209999999999
 20
150.686
 10
79.9526
 20
149.669
 10
79.5463
 20
148.701
 10
79.16330000000001
 20
147.783
 10
78.8036
 20
146.915
 10
78.4671
 20
146.096
 10
78.15389999999999
 20
145.327
 10
77.8639
 20
144.607
 10
77.5972
 20
143.937
 10
77.3537
 20
143.317
 10
77.1335
 20
142.746
 10
76.9366
 20
142.225
 10
76.7629
 20
141.754
 10
76.6125
 20
141.332
 10
76.4853
 20
140.96
 10
76.3814
 20
140.637
 10
76.30070000000001
 20
140.364
 10
76.2433
 20
140.141
 10
76.2092
 20
139.968
 10
75.9468
 20
136.653
 10
76.1442
 20
136.604
 10
76.34699999999999
 20
136.591
 10
76.5552
 20
136.613
 10
76.7688
 20
136.672
 10
76.98779999999999
 20
136.765
 10
77.2123
 20
136.895
 10
77.4421
 20
137.06
 10
77.67740000000001
 20
137.261
 10
77.91800000000001
 20
137.498
 10
78.1641
 20
137.771
 10
78.4156
 20
138.079
 10
78.6725
 20
138.423
 10
78.9348
 20
138.803
 10
79.2025
 20
139.218
 10
79.4756
 20
139.669
 10
79.7542
 20
140.156
 10
80.0381
 20
140.679
 10
81.51990000000001
 20
143.784
 10
81.5244
 20
144.22
 10
81.5397
 20
144.617
 10
81.56610000000001
 20
144.977
 10
81.6033
 20
145.298
 10
81.6516
 20
145.581
 10
81.7107
 20
145.826
 10
81.7808
 20
146.034
 10
81.86190000000001
 20
146.203
 10
81.9539
 20
146.333
 10
82.0569
 20
146.426
 10
82.1708
 20
146.481
 10
82.29559999999999
 20
146.498
 10
82.4314
 20
146.476
 10
82.57810000000001
 20
146.417
 10
82.7358
 20
146.319
 10
82.9045
 20
146.184
 10
83.084
 20
146.01
 10
85.18770000000001
 20
143.31
 10
84.9783
 20
142.564
 10
84.7723
 20
141.845
 10
84.5697
 20
141.154
 10
84.3704
 20
140.49
 10
84.1746
 20
139.853
 10
83.9821
 20
139.244
 10
83.7929
 20
138.662
 10
83.60720000000001
 20
138.107
 10
83.4248
 20
137.58
 10
83.2458
 20
137.081
 10
83.0702
 20
136.609
 10
82.89790000000001
 20
136.164
 10
82.729
 20
135.747
 10
82.5635
 20
135.357
 10
82.4014
 20
134.994
 10
82.2426
 20
134.659
 10
82.0872
 20
134.351
 10
80.8596
 20
132.176
 10
80.60250000000001
 20
132.01
 10
80.3677
 20
131.843
 10
80.1554
 20
131.674
 10
79.9654
 20
131.504
 10
79.7978
 20
131.332
 10
79.6525
 20
131.159
 10
79.52970000000001
 20
130.985
 10
79.42919999999999
 20
130.809
 10
79.3511
 20
130.632
 10
79.2954
 20
130.453
 10
79.262
 20
130.273
 10
79.25109999999999
 20
130.091
 10
79.2625
 20
129.908
 10
79.2963
 20
129.723
 10
79.35250000000001
 20
129.537
 10
79.431
 20
129.35
 10
79.53189999999999
 20
129.161
 10
79.65519999999999
 20
128.971
 10
81.54600000000001
 20
127.433
 10
81.9705
 20
128.065
 10
82.37479999999999
 20
128.668
 10
82.7587
 20
129.24
 10
83.12220000000001
 20
129.782
 10
83.4654
 20
130.294
 10
83.78830000000001
 20
130.776
 10
84.0908
 20
131.227
 10
84.373
 20
131.649
 10
84.6349
 20
132.04
 10
84.8764
 20
132.401
 10
85.0975
 20
132.732
 10
85.2983
 20
133.034
 10
85.47880000000001
 20
133.304
 10
85.639
 20
133.545
 10
85.7787
 20
133.755
 10
85.8982
 20
133.936
 10
85.9973
 20
134.086
 10
87.40260000000001
 20
136.443
 10
87.7144
 20
137.226
 10
88.023
 20
137.952
 10
88.3287
 20
138.622
 10
88.6313
 20
139.234
 10
88.9308
 20
139.791
 10
89.2273
 20
140.29
 10
89.52079999999999
 20
140.732
 10
89.8112
 20
141.118
 10
90.0986
 20
141.447
 10
90.383
 20
141.72
 10
90.6643
 20
141.935
 10
90.9425
 20
142.094
 10
91.21769999999999
 20
142.196
 10
91.48990000000001
 20
142.242
 10
91.759
 20
142.23
 10
92.02509999999999
 20
142.162
 10
92.2882
 20
142.038
 10
94.4579
 20
140.026
 10
94.02379999999999
 20
139.212
 10
93.60680000000001
 20
138.434
 10
93.2069
 20
137.691
 10
92.824
 20
136.985
 10
92.45829999999999
 20
136.314
 10
92.1096
 20
135.679
 10
91.7779
 20
135.081
 10
91.46339999999999
 20
134.518
 10
91.16589999999999
 20
133.991
 10
90.8854
 20
133.5
 10
90.6221
 20
133.044
 10
90.3758
 20
132.625
 10
90.14660000000001
 20
132.241
 10
89.9344
 20
131.894
 10
89.7394
 20
131.582
 10
89.5613
 20
131.306
 10
89.4004
 20
131.066
 10
88.4204
 20
129.722
 10
88.01730000000001
 20
129.311
 10
87.6384
 20
128.92
 10
87.2837
 20
128.55
 10
86.9532
 20
128.2
 10
86.6469
 20
127.871
 10
86.3647
 20
127.563
 10
86.10680000000001
 20
127.275
 10
85.87309999999999
 20
127.008
 10
85.6636
 20
126.762
 10
85.4783
 20
126.536
 10
85.3171
 20
126.331
 10
85.1802
 20
126.146
 10
85.0675
 20
125.983
 10
84.979
 20
125.839
 10
84.91459999999999
 20
125.717
 10
84.8745
 20
125.615
 10
84.8586
 20
125.533
 10
84.8668
 20
125.473
 10
85.9045
 20
124.372
 10
86.3507
 20
124.647
 10
86.7814
 20
124.933
 10
87.1966
 20
125.228
 10
87.5964
 20
125.535
 10
87.9806
 20
125.852
 10
88.34950000000001
 20
126.18
 10
88.7028
 20
126.518
 10
89.0407
 20
126.867
 10
89.36320000000001
 20
127.227
 10
89.67010000000001
 20
127.597
 10
89.9616
 20
127.978
 10
90.2377
 20
128.369
 10
90.4982
 20
128.771
 10
90.7433
 20
129.184
 10
90.973
 20
129.607
 10
91.1871
 20
130.04
 10
91.3858
 20
130.485
 10
92.033
 20
132.205
 10
92.07680000000001
 20
132.506
 10
92.1249
 20
132.791
 10
92.17749999999999
 20
133.061
 10
92.23439999999999
 20
133.315
 10
92.2957
 20
133.555
 10
92.3614
 20
133.78
 10
92.4314
 20
133.989
 10
92.5059
 20
134.184
 10
92.5847
 20
134.363
 10
92.6679
 20
134.527
 10
92.75539999999999
 20
134.676
 10
92.84739999999999
 20
134.81
 10
92.94370000000001
 20
134.929
 10
93.0444
 20
135.032
 10
93.1495
 20
135.121
 10
93.2589
 20
135.194
 10
93.3728
 20
135.252
 10
96.5557
 20
135.885
 10
96.13760000000001
 20
134.684
 10
95.7649
 20
133.574
 10
95.43770000000001
 20
132.558
 10
95.15600000000001
 20
131.634
 10
94.91970000000001
 20
130.802
 10
94.72880000000001
 20
130.063
 10
94.5834
 20
129.416
 10
94.48350000000001
 20
128.862
 10
94.42910000000001
 20
128.4
 10
94.42
 20
128.031
 10
94.45650000000001
 20
127.754
 10
94.5384
 20
127.569
 10
94.6657
 20
127.478
 10
94.8386
 20
127.478
 10
95.0568
 20
127.571
 10
95.3206
 20
127.757
 10
95.6297
 20
128.035
 10
97.1665
 20
129.714
 10
97.4237
 20
130.119
 10
97.6671
 20
130.477
 10
97.8968
 20
130.786
 10
98.11279999999999
 20
131.048
 10
98.3151
 20
131.262
 10
98.50360000000001
 20
131.428
 10
98.6785
 20
131.546
 10
98.8396
 20
131.616
 10
98.98699999999999
 20
131.638
 10
99.1206
 20
131.612
 10
99.2406
 20
131.538
 10
99.3468
 20
131.416
 10
99.4393
 20
131.246
 10
99.518
 20
131.028
 10
99.5831
 20
130.763
 10
99.6344
 20
130.449
 10
99.672
 20
130.087
 10
99.78700000000001
 20
127.37
 10
99.80549999999999
 20
127.258
 10
99.8126
 20
127.139
 10
99.8082
 20
127.013
 10
99.7924
 20
126.88
 10
99.7651
 20
126.74
 10
99.7264
 20
126.593
 10
99.6763
 20
126.439
 10
99.6147
 20
126.278
 10
99.54170000000001
 20
126.11
 10
99.4572
 20
125.935
 10
99.3613
 20
125.752
 10
99.2539
 20
125.563
 10
99.13509999999999
 20
125.367
 10
99.0048
 20
125.163
 10
98.8631
 20
124.953
 10
98.70999999999999
 20
124.735
 10
98.5454
 20
124.511
 10
98.3694
 20
124.279
 10
92.82850000000001
 20
117.409
 10
92.3537
 20
117.174
 10
91.8494
 20
116.954
 10
91.3159
 20
116.746
 10
90.7529
 20
116.553
 10
90.1605
 20
116.374
 10
89.53879999999999
 20
116.209
 10
88.8877
 20
116.058
 10
88.2072
 20
115.921
 10
87.4974
 20
115.798
 10
86.7581
 20
115.689
 10
85.98950000000001
 20
115.594
 10
85.1915
 20
115.513
 10
84.36409999999999
 20
115.445
 10
83.5074
 20
115.392
 10
82.6212
 20
115.353
 10
81.70569999999999
 20
115.328
 10
80.7608
 20
115.317
 10
74.742
 20
115.379
 10
73.7998
 20
115.469
 10
72.88720000000001
 20
115.553
 10
72.00409999999999
 20
115.632
 10
71.15049999999999
 20
115.705
 10
70.32640000000001
 20
115.772
 10
69.5318
 20
115.834
 10
68.7668
 20
115.89
 10
68.0314
 20
115.94
 10
67.3254
 20
115.984
 10
66.649
 20
116.023
 10
66.0021
 20
116.056
 10
65.3848
 20
116.084
 10
64.797
 20
116.105
 10
64.23869999999999
 20
116.121
 10
63.7099
 20
116.131
 10
63.2107
 20
116.136
 10
62.741
 20
116.135
 10
59.3331
 20
116.019
 10
59.6251
 20
115.849
 10
59.9049
 20
115.681
 10
60.1723
 20
115.513
 10
60.4275
 20
115.347
 10
60.6703
 20
115.181
 10
60.9009
 20
115.017
 10
61.1191
 20
114.853
 10
61.3251
 20
114.691
 10
61.5187
 20
114.53
 10
61.7001
 20
114.369
 10
61.8692
 20
114.21
 10
62.0259
 20
114.051
 10
62.1704
 20
113.894
 10
62.3026
 20
113.737
 10
62.4225
 20
113.582
 10
62.5301
 20
113.427
 10
62.6254
 20
113.274
 10
63.2902
 20
111.954
 10
63.3119
 20
111.571
 10
63.355
 20
111.195
 10
63.4194
 20
110.826
 10
63.5052
 20
110.463
 10
63.6124
 20
110.108
 10
63.7409
 20
109.759
 10
63.8909
 20
109.417
 10
64.0622
 20
109.082
 10
64.2548
 20
108.754
 10
64.4689
 20
108.433
 10
64.7043
 20
108.119
 10
64.9611
 20
107.811
 10
65.2392
 20
107.511
 10
65.53879999999999
 20
107.217
 10
65.8597
 20
106.93
 10
66.20189999999999
 20
106.651
 10
66.5656
 20
106.378
 10
66.95059999999999
 20
106.112
 10
69.947
 20
104.181
 10
70.08159999999999
 20
104.124
 10
70.2193
 20
104.05
 10
70.3603
 20
103.962
 10
70.50449999999999
 20
103.857
 10
70.65179999999999
 20
103.737
 10
70.80240000000001
 20
103.601
 10
70.9562
 20
103.45
 10
71.11320000000001
 20
103.283
 10
71.2734
 20
103.1
 10
71.43680000000001
 20
102.902
 10
71.6035
 20
102.688
 10
71.77330000000001
 20
102.459
 10
71.94629999999999
 20
102.213
 10
72.12260000000001
 20
101.952
 10
72.30200000000001
 20
101.676
 10
72.4847
 20
101.384
 10
72.67059999999999
 20
101.076
 10
73.9843
 20
99.0352
 10
74.2548
 20
98.8644
 10
74.51049999999999
 20
98.6906
 10
74.75149999999999
 20
98.51390000000001
 10
74.97790000000001
 20
98.3342
 10
75.1896
 20
98.15170000000001
 10
75.3866
 20
97.9662
 10
75.5689
 20
97.7777
 10
75.73650000000001
 20
97.5864
 10
75.88939999999999
 20
97.3921
 10
76.02760000000001
 20
97.1949
 10
76.1511
 20
96.9948
 10
76.26000000000001
 20
96.79170000000001
 10
76.3541
 20
96.5857
 10
76.4336
 20
96.3768
 10
76.4984
 20
96.16500000000001
 10
76.5485
 20
95.9502
 10
76.5838
 20
95.7325
 10
76.9301
 20
92.4675
 10
77.1206
 20
91.678
 10
77.2822
 20
90.92189999999999
 10
77.4151
 20
90.1991
 10
77.51900000000001
 20
89.5097
 10
77.5941
 20
88.8537
 10
77.6404
 20
88.23099999999999
 10
77.6579
 20
87.6417
 10
77.6464
 20
87.08580000000001
 10
77.6062
 20
86.5633
 10
77.5371
 20
86.0742
 10
77.4392
 20
85.61839999999999
 10
77.3124
 20
85.196
 10
77.1567
 20
84.807
 10
76.9723
 20
84.45140000000001
 10
76.7589
 20
84.12909999999999
 10
76.5168
 20
83.8402
 10
76.2458
 20
83.5847
 10
74.9599
 20
82.703
 10
74.7359
 20
82.6234
 10
74.518
 20
82.551
 10
74.30629999999999
 20
82.48560000000001
 10
74.1007
 20
82.4272
 10
73.90130000000001
 20
82.3759
 10
73.708
 20
82.3317
 10
73.52079999999999
 20
82.2945
 10
73.33969999999999
 20
82.26430000000001
 10
73.1648
 20
82.2413
 10
72.9961
 20
82.2252
 10
72.8334
 20
82.2162
 10
72.6769
 20
82.21429999999999
 10
72.5266
 20
82.21939999999999
 10
72.3824
 20
82.2316
 10
72.2443
 20
82.2508
 10
72.1123
 20
82.2771
 10
71.98650000000001
 20
82.3104
 10
71.8668
 20
82.35080000000001
 10
70.1752
 20
83.0095
 10
70.2512
 20
82.9811
 10
70.31399999999999
 20
82.94629999999999
 10
70.36369999999999
 20
82.9049
 10
70.4002
 20
82.857
 10
70.4235
 20
82.8027
 10
70.4337
 20
82.7418
 10
70.4308
 20
82.67449999999999
 10
70.4147
 20
82.6007
 10
70.38549999999999
 20
82.52030000000001
 10
70.34310000000001
 20
82.4335
 10
70.28749999999999
 20
82.3402
 10
70.2189
 20
82.24039999999999
 10
70.137
 20
82.1341
 10
70.042
 20
82.0213
 10
69.93389999999999
 20
81.9021
 10
69.8126
 20
81.77630000000001
 10
69.6782
 20
81.64400000000001
 10
67.7274
 20
80.0551
 10
67.422
 20
80.1427
 10
67.1237
 20
80.24469999999999
 10
66.8325
 20
80.361
 10
66.5483
 20
80.49160000000001
 10
66.27119999999999
 20
80.6366
 10
66.0012
 20
80.7959
 10
65.7383
 20
80.96939999999999
 10
65.4824
 20
81.15730000000001
 10
65.2336
 20
81.3596
 10
64.9919
 20
81.5761
 10
64.7573
 20
81.807
 10
64.52979999999999
 20
82.0522
 10
64.30929999999999
 20
82.3117
 10
64.0959
 20
82.5855
 10
63.8896
 20
82.8736
 10
63.6904
 20
83.17610000000001
 10
63.4982
 20
83.49290000000001
 10
62.2286
 20
85.84990000000001
 10
62.1473
 20
86.1454
 10
62.0542
 20
86.4247
 10
61.9492
 20
86.68770000000001
 10
61.8323
 20
86.9345
 10
61.7036
 20
87.16500000000001
 10
61.563
 20
87.3794
 10
61.4106
 20
87.5775
 10
61.2463
 20
87.7593
 10
61.0701
 20
87.925
 10
60.882
 20
88.0744
 10
60.6821
 20
88.2076
 10
60.4704
 20
88.3245
 10
60.2467
 20
88.4252
 10
60.0112
 20
88.5097
 10
59.7639
 20
88.578
 10
59.5047
 20
88.63
 10
59.2336
 20
88.6658
 10
57.1314
 20
88.7801
 10
56.7855
 20
88.7764
 10
56.4549
 20
88.7616
 10
56.1396
 20
88.73569999999999
 10
55.8396
 20
88.6987
 10
55.5549
 20
88.6506
 10
55.2855
 20
88.59139999999999
 10
55.0313
 20
88.5211
 10
54.7925
 20
88.4397
 10
54.5689
 20
88.3472
 10
54.3606
 20
88.2436
 10
54.1676
 20
88.1289
 10
53.9899
 20
88.0031
 10
53.8275
 20
87.86620000000001
 10
53.6804
 20
87.7182
 10
53.5486
 20
87.5591
 10
53.432
 20
87.38890000000001
 10
53.3308
 20
87.2076
 10
52.0633
 20
84.036
 10
52.1146
 20
83.9911
 10
52.1544
 20
83.95999999999999
 10
52.1828
 20
83.9426
 10
52.1996
 20
83.9388
 10
52.205
 20
83.94880000000001
 10
52.199
 20
83.97239999999999
 10
52.1814
 20
84.0098
 10
52.1523
 20
84.0608
 10
52.1118
 20
84.12560000000001
 10
52.0598
 20
84.20399999999999
 10
51.9963
 20
84.2962
 10
51.9213
 20
84.402
 10
51.8349
 20
84.5215
 10
51.7369
 20
84.65479999999999
 10
51.6275
 20
84.8017
 10
51.5066
 20
84.9623
 10
51.3742
 20
85.1366
 10
51.2304
 20
85.32470000000001
 10
49.6434
 20
86.9481
 10
49.6716
 20
86.3646
 10
49.6877
 20
85.8058
 10
49.6919
 20
85.2717
 10
49.6841
 20
84.7624
 10
49.6644
 20
84.2777
 10
49.6326
 20
83.81780000000001
 10
49.5889
 20
83.38249999999999
 10
49.5332
 20
82.97199999999999
 10
49.4655
 20
82.58620000000001
 10
49.3859
 20
82.2251
 10
49.2943
 20
81.8886
 10
49.1906
 20
81.57689999999999
 10
49.075
 20
81.2899
 10
48.9475
 20
81.0277
 10
48.8079
 20
80.7901
 10
48.6564
 20
80.5772
 10
48.4929
 20
80.389
 10
46.7682
 20
78.9654
 10
46.7515
 20
79.3124
 10
46.7315
 20
79.64490000000001
 10
46.7082
 20
79.9628
 10
46.6817
 20
80.2662
 10
46.6518
 20
80.55500000000001
 10
46.6187
 20
80.8293
 10
46.5822
 20
81.089
 10
46.5425
 20
81.3342
 10
46.4995
 20
81.56480000000001
 10
46.4533
 20
81.7809
 10
46.4037
 20
81.9824
 10
46.3509
 20
82.1694
 10
46.2947
 20
82.34180000000001
 10
46.2353
 20
82.4997
 10
46.1726
 20
82.643
 10
46.1067
 20
82.7718
 10
46.0374
 20
82.886
 10
44.4708
 20
84.81740000000001
 10
44.6339
 20
84.07259999999999
 10
44.7453
 20
83.34829999999999
 10
44.8048
 20
82.64449999999999
 10
44.8125
 20
81.96120000000001
 10
44.7684
 20
81.2984
 10
44.6725
 20
80.6561
 10
44.5247
 20
80.0343
 10
44.3251
 20
79.43300000000001
 10
44.0737
 20
78.8522
 10
43.7705
 20
78.29179999999999
 10
43.4155
 20
77.752
 10
43.0086
 20
77.23260000000001
 10
42.55
 20
76.7338
 10
42.0395
 20
76.25539999999999
 10
41.4771
 20
75.7976
 10
40.863
 20
75.36020000000001
 10
40.197
 20
74.94329999999999
 10
37.3106
 20
73.4556
 10
37.4465
 20
73.9936
 10
37.5695
 20
74.518
 10
37.6797
 20
75.0291
 10
37.777
 20
75.52670000000001
 10
37.8615
 20
76.01090000000001
 10
37.9331
 20
76.4816
 10
37.9919
 20
76.9389
 10
38.0378
 20
77.3827
 10
38.0708
 20
77.81310000000001
 10
38.091
 20
78.23
 10
38.0983
 20
78.6336
 10
38.0928
 20
79.0236
 10
38.0744
 20
79.4002
 10
38.0432
 20
79.7634
 10
37.9991
 20
80.11320000000001
 10
37.9421
 20
80.4495
 10
37.8723
 20
80.7723
 10
37.7897
 20
81.0817
 10
36.8667
 20
82.8386
 10
36.5569
 20
82.4194
 10
36.2579
 20
82.0205
 10
35.9697
 20
81.6418
 10
35.6923
 20
81.2835
 10
35.4257
 20
80.9453
 10
35.1699
 20
80.62739999999999
 10
34.9249
 20
80.32980000000001
 10
34.6908
 20
80.05240000000001
 10
34.4674
 20
79.7953
 10
34.2549
 20
79.55840000000001
 10
34.0531
 20
79.34180000000001
 10
33.8622
 20
79.1454
 10
33.6821
 20
78.9693
 10
33.5127
 20
78.8135
 10
33.3542
 20
78.6778
 10
33.2065
 20
78.5625
 10
33.0696
 20
78.4674
 10
29.7717
 20
76.64830000000001
 10
29.4903
 20
76.7521
 10
29.2242
 20
76.8306
 10
28.9734
 20
76.884
 10
28.738
 20
76.9122
 10
28.5179
 20
76.9153
 10
28.313
 20
76.8931
 10
28.1235
 20
76.8458
 10
27.9493
 20
76.77330000000001
 10
27.7904
 20
76.6756
 10
27.6469
 20
76.5527
 10
27.5186
 20
76.40470000000001
 10
27.4057
 20
76.2315
 10
27.308
 20
76.0331
 10
27.2257
 20
75.8095
 10
27.1587
 20
75.5607
 10
27.107
 20
75.2868
 10
27.0706
 20
74.9877
 10
26.8694
 20
71.0322
 10
26.9328
 20
70.7509
 10
26.9799
 20
70.4659
 10
27.0109
 20
70.1772
 10
27.0256
 20
69.8849
 10
27.024
 20
69.5889
 10
27.0063
 20
69.28919999999999
 10
26.9723
 20
68.9859
 10
26.9221
 20
68.6789
 10
26.8556
 20
68.3682
 10
26.773
 20
68.0538
 10
26.6741
 20
67.7358
 10
26.5589
 20
67.41419999999999
 10
26.4276
 20
67.08880000000001
 10
26.28
 20
66.7598
 10
26.1162
 20
66.4271
 10
25.9361
 20
66.0908
 10
25.7398
 20
65.7508
 10
22.1806
 20
60.0841
 10
22.3235
 20
60.154
 10
22.4954
 20
60.1723
 10
22.6961
 20
60.139
 10
22.9257
 20
60.0541
 10
23.1843
 20
59.9176
 10
23.4717
 20
59.7295
 10
23.788
 20
59.4898
 10
24.1332
 20
59.1984
 10
24.5073
 20
58.8555
 10
24.9103
 20
58.461
 10
25.3422
 20
58.0148
 10
25.803
 20
57.5171
 10
26.2927
 20
56.9677
 10
26.8113
 20
56.3668
 10
27.3588
 20
55.7142
 10
27.9352
 20
55.01
 10
28.5404
 20
54.2543
 10
29.1746
 20
53.4469
 10
35.0667
 20
45.7349
 10
34.9086
 20
45.7356
 10
34.7475
 20
45.6784
 10
34.5834
 20
45.5633
 10
34.4164
 20
45.3903
 10
34.2465
 20
45.1595
 10
34.0736
 20
44.8708
 10
33.8977
 20
44.5242
 10
33.7189
 20
44.1198
 10
33.5372
 20
43.6575
 10
33.3524
 20
43.1374
 10
33.1648
 20
42.5593
 10
32.9741
 20
41.9234
 10
32.7806
 20
41.2297
 10
32.584
 20
40.478
 10
32.3845
 20
39.6685
 10
32.1821
 20
38.8011
 10
31.9767
 20
37.8759
 10
30.1713
 20
27.9144
 10
30.4529
 20
27.2486
 10
30.7058
 20
26.5925
 10
30.9299
 20
25.9462
 10
31.1253
 20
25.3097
 10
31.292
 20
24.683
 10
31.4299
 20
24.0661
 10
31.539
 20
23.459
 10
31.6195
 20
22.8616
 10
31.6711
 20
22.2741
 10
31.6941
 20
21.6963
 10
31.6882
 20
21.1283
 10
31.6537
 20
20.5701
 10
31.5904
 20
20.0217
 10
31.4983
 20
19.4831
 10
31.3775
 20
18.9543
 10
31.228
 20
18.4352
 10
31.0497
 20
17.926
 10
29.5294
 20
14.4788
 10
29.4473
 20
14.7393
 10
29.3579
 20
14.977
 10
29.261
 20
15.1918
 10
29.1568
 20
15.3839
 10
29.0451
 20
15.5532
 10
28.9261
 20
15.6997
 10
28.7996
 20
15.8234
 10
28.6658
 20
15.9243
 10
28.5246
 20
16.0024
 10
28.3759
 20
16.0577
 10
28.2199
 20
16.0902
 10
28.0565
 20
16.0999
 10
27.8857
 20
16.0868
 10
27.7075
 20
16.0509
 10
27.5219
 20
15.9922
 10
27.3289
 20
15.9107
 10
27.1285
 20
15.8064
 10
25.7253
 20
14.8177
 10
25.523
 20
14.3045
 10
25.3101
 20
13.8085
 10
25.0865
 20
13.33
 10
24.8524
 20
12.8688
 10
24.6077
 20
12.4249
 10
24.3523
 20
11.9985
 10
24.0864
 20
11.5893
 10
23.8099
 20
11.1976
 10
23.5227
 20
10.8232
 10
23.225
 20
10.4662
 10
22.9166
 20
10.1265
 10
22.5977
 20
9.8042
 10
22.2681
 20
9.4993
 10
21.9279
 20
9.2117
 10
21.5772
 20
8.9415
 10
21.2158
 20
8.688599999999999
 10
20.8438
 20
8.453099999999999
 10
18.5709
 20
7.2169
 10
18.5884
 20
7.37
 10
18.6048
 20
7.5275
 10
18.62
 20
7.6894
 10
18.6342
 20
7.8557
 10
18.6472
 20
8.026300000000001
 10
18.6591
 20
8.2013
 10
18.6699
 20
8.380599999999999
 10
18.6796
 20
8.564399999999999
 10
18.6881
 20
8.7525
 10
18.6955
 20
8.944900000000001
 10
18.7018
 20
9.1417
 10
18.707
 20
9.3429
 10
18.7111
 20
9.548500000000001
 10
18.714
 20
9.7584
 10
18.7158
 20
9.9727
 10
18.7165
 20
10.1914
 10
18.7161
 20
10.4144
 10
18.7145
 20
10.6418
 10
18.5766
 20
22.8801
 10
18.5844
 20
22.6203
 10
18.6217
 20
22.4037
 10
18.6883
 20
22.2305
 10
18.7843
 20
22.1006
 10
18.9097
 20
22.014
 10
19.0645
 20
21.9708
 10
19.2487
 20
21.9708
 10
19.4622
 20
22.0142
 10
19.7051
 20
22.1009
 10
19.9774
 20
22.2309
 10
20.2791
 20
22.4042
 10
20.6101
 20
22.6209
 10
20.9706
 20
22.8809
 10
21.3604
 20
23.1841
 10
21.7796
 20
23.5307
 10
22.2281
 20
23.9207
 10
22.7061
 20
24.3539
 10
25.3802
 20
26.967
 10
25.3607
 20
27.1514
 10
25.3419
 20
27.351
 10
25.3237
 20
27.5659
 10
25.3062
 20
27.7961
 10
25.2893
 20
28.0415
 10
25.273
 20
28.3022
 10
25.2574
 20
28.5782
 10
25.2425
 20
28.8694
 10
25.2282
 20
29.1759
 10
25.2146
 20
29.4976
 10
25.2016
 20
29.8346
 10
25.1892
 20
30.1869
 10
25.1775
 20
30.5544
 10
25.1665
 20
30.9372
 10
25.1561
 20
31.3353
 10
25.1463
 20
31.7486
 10
25.1372
 20
32.1771
 10
25.076
 20
35.2589
 10
25.0555
 20
35.6712
 10
25.0343
 20
36.0734
 10
25.0123
 20
36.4655
 10
24.9897
 20
36.8476
 10
24.9665
 20
37.2196
 10
24.9425
 20
37.5816
 10
24.9178
 20
37.9335
 10
24.8925
 20
38.2753
 10
24.8665
 20
38.6071
 10
24.8397
 20
38.9289
 10
24.8123
 20
39.2405
 10
24.7842
 20
39.5422
 10
24.7554
 20
39.8337
 10
24.726
 20
40.1152
 10
24.6958
 20
40.3867
 10
24.665
 20
40.6481
 10
24.6334
 20
40.8994
 10
24.3037
 20
43.2839
 10
24.2551
 20
43.3407
 10
24.2007
 20
43.4016
 10
24.1405
 20
43.4666
 10
24.0745
 20
43.5357
 10
24.0027
 20
43.6089
 10
23.9251
 20
43.6863
 10
23.8417
 20
43.7677
 10
23.7525
 20
43.8532
 10
23.6575
 20
43.9428
 10
23.5567
 20
44.0365
 10
23.45
 20
44.1343
 10
23.3376
 20
44.2362
 10
23.2194
 20
44.3422
 10
23.0953
 20
44.4523
 10
22.9655
 20
44.5665
 10
22.8299
 20
44.6848
 10
22.6884
 20
44.8072
 10
22.5412
 20
44.9337
 10
20.9231
 20
46.3046
 10
20.6694
 20
46.5075
 10
20.4174
 20
46.7098
 10
20.1672
 20
46.9112
 10
19.9188
 20
47.112
 10
19.6721
 20
47.312
 10
19.4272
 20
47.5113
 10
19.1841
 20
47.7098
 10
18.9428
 20
47.9076
 10
18.7032
 20
48.1046
 10
18.4654
 20
48.3009
 10
18.2293
 20
48.4965
 10
17.995
 20
48.6913
 10
17.7625
 20
48.8854
 10
17.5318
 20
49.0788
 10
17.3028
 20
49.2714
 10
17.0756
 20
49.4633
 10
16.8501
 20
49.6544
 10
7.0575
 20
58.0576
 10
7.4363
 20
57.7763
 10
7.7794
 20
57.4423
 10
8.0869
 20
57.0558
 10
8.3588
 20
56.6166
 10
8.5952
 20
56.1249
 10
8.7959
 20
55.5805
 10
8.961
 20
54.9836
 10
9.0905
 20
54.3341
 10
9.1844
 20
53.6319
 10
9.242699999999999
 20
52.8772
 10
9.2654
 20
52.0699
 10
9.2524
 20
51.21
 10
9.203900000000001
 20
50.2975
 10
9.1198
 20
49.3323
 10
9.0001
 20
48.3146
 10
8.8447
 20
47.2443
 10
8.6538
 20
46.1214
 10
7.3352
 20
39.692
 10
7.26
 20
40.102
 10
7.1886
 20
40.4296
 10
7.121
 20
40.675
 10
7.0574
 20
40.8381
 10
6.9977
 20
40.9189
 10
6.9419
 20
40.9174
 10
6.89
 20
40.8337
 10
6.8419
 20
40.6677
 10
6.7978
 20
40.4193
 10
6.7576
 20
40.0887
 10
6.7212
 20
39.6759
 10
6.6888
 20
39.1807
 10
6.6602
 20
38.6033
 10
6.6355
 20
37.9435
 10
6.6148
 20
37.2015
 10
6.5979
 20
36.3772
 10
6.5849
 20
35.4707
 10
6.5338
 20
29.8085
 10
6.4983
 20
28.8108
 10
6.4684
 20
27.8437
 10
6.4443
 20
26.9072
 10
6.4258
 20
26.0015
 10
6.413
 20
25.1263
 10
6.4058
 20
24.2818
 10
6.4044
 20
23.4679
 10
6.4086
 20
22.6847
 10
6.4185
 20
21.9321
 10
6.4341
 20
21.2101
 10
6.4554
 20
20.5188
 10
6.4823
 20
19.8581
 10
6.5149
 20
19.2281
 10
6.5532
 20
18.6287
 10
6.5972
 20
18.0599
 10
6.6468
 20
17.5218
 10
6.7022
 20
17.0144
 10
6.7632
 20
16.5375
 10
7.3008
 20
13.3548
 10
7.4078
 20
13.2723
 10
7.514
 20
13.1792
 10
7.6194
 20
13.0754
 10
7.724
 20
12.9609
 10
7.8279
 20
12.8357
 10
7.9309
 20
12.6998
 10
8.033099999999999
 20
12.5533
 10
8.134600000000001
 20
12.3961
 10
8.235300000000001
 20
12.2282
 10
8.335100000000001
 20
12.0496
 10
8.434200000000001
 20
11.8603
 10
8.532500000000001
 20
11.6604
 10
8.630000000000001
 20
11.4498
 10
8.726800000000001
 20
11.2285
 10
8.822699999999999
 20
10.9965
 10
8.9178
 20
10.7538
 10
9.0122
 20
10.5005
 10
10.2474
 20
6.7164
 10
10.0496
 20
6.8775
 10
9.8925
 20
7.0087
 10
9.776199999999999
 20
7.1103
 10
9.700699999999999
 20
7.182
 10
9.665900000000001
 20
7.224
 10
9.671799999999999
 20
7.2363
 10
9.718500000000001
 20
7.2188
 10
9.805899999999999
 20
7.1716
 10
9.934100000000001
 20
7.0946
 10
10.103
 20
6.9879
 10
10.3127
 20
6.8515
 10
10.5631
 20
6.6852
 10
10.8542
 20
6.4893
 10
11.1861
 20
6.2635
 10
11.5588
 20
6.0081
 10
11.9722
 20
5.7229
 10
12.4264
 20
5.4079
 10
14.0098
 20
4.2867
 10
14.2199
 20
4.1034
 10
14.4193
 20
3.9217
 10
14.6082
 20
3.7417
 10
14.7865
 20
3.5633
 10
14.9542
 20
3.3866
 10
15.1113
 20
3.2115
 10
15.2578
 20
3.038
 10
15.3937
 20
2.8662
 10
15.519
 20
2.6961
 10
15.6337
 20
2.5276
 10
15.7379
 20
2.3607
 10
15.8314
 20
2.1955
 10
15.9144
 20
2.0319
 10
15.9868
 20
1.8699
 10
16.0486
 20
1.7096
 10
16.0998
 20
1.5509
 10
16.1404
 20
1.3939
 10
16.1886
 20
0
 10
15.4604
 20
0.033
 10
14.7662
 20
0.0641
 10
14.1059
 20
0.0935
 10
13.4796
 20
0.1211
 10
12.8872
 20
0.1468
 10
12.3287
 20
0.1708
 10
11.8042
 20
0.193
 10
11.3136
 20
0.2134
 10
10.8569
 20
0.232
 10
10.4342
 20
0.2488
 10
10.0454
 20
0.2638
 10
9.6905
 20
0.277
 10
9.3696
 20
0.2884
 10
9.082700000000001
 20
0.298
 10
8.829599999999999
 20
0.3059
 10
8.6105
 20
0.3119
 10
8.4253
 20
0.3161
 10
2.517
 20
0.3978
 10
2.7159
 20
0.5245
 10
2.8879
 20
0.6631
 10
3.0331
 20
0.8136
 10
3.1514
 20
0.9761
 10
3.2428
 20
1.1505
 10
3.3074
 20
1.3369
 10
3.3452
 20
1.5351
 10
3.356
 20
1.7453
 10
3.34
 20
1.9674
 10
3.2972
 20
2.2015
 10
3.2275
 20
2.4474
 10
3.1309
 20
2.7053
 10
3.0075
 20
2.9751
 10
2.8572
 20
3.2569
 10
2.6801
 20
3.5506
 10
2.4761
 20
3.8562
 10
2.2452
 20
4.1737
 10
1.9875
 20
4.5032
 10
0.6934
 20
5.9547
 10
0.5854
 20
5.9512
 10
0.4866
 20
5.9621
 10
0.3968
 20
5.9872
 10
0.3162
 20
6.0267
 10
0.2448
 20
6.0804
 10
0.1824
 20
6.1485
 10
0.1292
 20
6.2309
 10
0.0851
 20
6.3275
 10
0.0501
 20
6.4385
 10
0.0243
 20
6.5638
 10
0.0076
 20
6.7034
 10
0
 20
6.8573
 10
0.0016
 20
7.0255
 10
0.0122
 20
7.2081
 10
0.032
 20
7.4049
 10
0.0609
 20
7.616
 10
0.099
 20
7.8415
 10
0.7514
 20
10.992
 10
0.8439
 20
11.192
 10
0.9267
 20
11.4013
 10
0.9998
 20
11.62
 10
1.0631
 20
11.848
 10
1.1168
 20
12.0854
 10
1.1607
 20
12.3322
 10
1.1949
 20
12.5883
 10
1.2195
 20
12.8537
 10
1.2343
 20
13.1285
 10
1.2393
 20
13.4127
 10
1.2347
 20
13.7062
 10
1.2204
 20
14.0091
 10
1.1963
 20
14.3213
 10
1.1626
 20
14.6429
  0
ENDSEC
  0
SECTION
  2
OBJECTS
  0
DICTIONARY
  5
C
330
0
100
AcDbDictionary
281
    1
  3
ACAD_GROUP
350
D
  0
DICTIONARY
  5
D
330
C
100
AcDbDictionary
281
    1
  0
PLOTSETTINGS
  5
4E
100
AcDbPlotSettings
  6
1x1
 40
0
 41
0
 42
0
 43
0
  0
ENDSEC
  0
EOF
