999
dxfrw 0.6.3
  0
SECTION
  2
HEADER
  9
$ACADVER
  1
AC1021
  9
$DWGCODEPAGE
  3
ANSI_1252
  9
$INSBASE
 10
0
 20
0
 30
0
  9
$EXTMIN
 10
0
 20
0
 30
0
  9
$EXTMAX
 10
796.83
 20
259.394
 30
0
  9
$LIMMIN
 10
0
 20
0
  9
$LIMMAX
 10
420
 20
297
  9
$ORTHOMODE
 70
    0
  9
$REGENMODE
 70
    1
  9
$FILLMODE
 70
    1
  9
$QTEXTMODE
 70
    0
  9
$MIRRTEXT
 70
    0
  9
$LTSCALE
 40
1
  9
$ATTMODE
 70
    0
  9
$TEXTSIZE
 40
2.5
  9
$TRACEWID
 40
15.68
  9
$TEXTSTYLE
  7
STANDARD
  9
$CLAYER
  8
0
  9
$CELTYPE
  6
BYLAYER
  9
$CECOLOR
 62
  256
  9
$CELTSCALE
 40
1
  9
$DISPSILH
 70
    0
  9
$DIMSCALE
 40
2.5
  9
$DIMASZ
 40
2.5
  9
$DIMEXO
 40
0.625
  9
$DIMDLI
 40
3.75
  9
$DIMRND
 40
0
  9
$DIMDLE
 40
0
  9
$DIMEXE
 40
1.25
  9
$DIMTP
 40
0
  9
$DIMTM
 40
0
  9
$DIMTXT
 40
2.5
  9
$DIMCEN
 40
2.5
  9
$DIMTSZ
 40
0
  9
$DIMTOL
 70
    0
  9
$DIMLIM
 70
    0
  9
$DIMTIH
 70
    0
  9
$DIMTOH
 70
    0
  9
$DIMSE1
 70
    0
  9
$DIMSE2
 70
    0
  9
$DIMTAD
 70
    1
  9
$DIMZIN
 70
    8
  9
$DIMBLK
  1

  9
$DIMASO
 70
    1
  9
$DIMSHO
 70
    1
  9
$DIMPOST
  1

  9
$DIMAPOST
  1

  9
$DIMALT
 70
    0
  9
$DIMALTD
 70
    3
  9
$DIMALTF
 40
0.03937
  9
$DIMLFAC
 40
1
  9
$DIMTOFL
 70
    1
  9
$DIMTVP
 40
0
  9
$DIMTIX
 70
    0
  9
$DIMSOXD
 70
    0
  9
$DIMSAH
 70
    0
  9
$DIMBLK1
  1

  9
$DIMBLK2
  1

  9
$DIMSTYLE
  2
Standard
  9
$DIMCLRD
 70
    0
  9
$DIMCLRE
 70
    0
  9
$DIMCLRT
 70
    0
  9
$DIMTFAC
 40
1
  9
$DIMGAP
 40
0.625
  9
$DIMJUST
 70
    0
  9
$DIMSD1
 70
    0
  9
$DIMSD2
 70
    0
  9
$DIMTOLJ
 70
    0
  9
$DIMTZIN
 70
    8
  9
$DIMALTZ
 70
    0
  9
$DIMALTTZ
 70
    0
  9
$DIMUPT
 70
    0
  9
$DIMDEC
 70
    2
  9
$DIMTDEC
 70
    2
  9
$DIMALTU
 70
    2
  9
$DIMALTTD
 70
    3
  9
$DIMTXSTY
  7
STANDARD
  9
$DIMAUNIT
 70
    0
  9
$DIMADEC
 70
    0
  9
$DIMALTRND
 40
0
  9
$DIMAZIN
 70
    0
  9
$DIMDSEP
 70
   44
  9
$DIMATFIT
 70
    3
  9
$DIMFRAC
 70
    0
  9
$DIMLDRBLK
  1
STANDARD
  9
$DIMLUNIT
 70
    2
  9
$DIMLWD
 70
   -2
  9
$DIMLWE
 70
   -2
  9
$DIMTMOVE
 70
    0
  9
$DIMFXL
 40
1
  9
$DIMFXLON
 70
    0
  9
$DIMJOGANG
 40
0.7854
  9
$DIMTFILL
 70
    0
  9
$DIMTFILLCLR
 70
    0
  9
$DIMARCSYM
 70
    0
  9
$DIMLTYPE
  6

  9
$DIMLTEX1
  6

  9
$DIMLTEX2
  6

  9
$LUNITS
 70
    2
  9
$LUPREC
 70
    4
  9
$SKETCHINC
 40
1
  9
$FILLETRAD
 40
0
  9
$AUNITS
 70
    0
  9
$AUPREC
 70
    2
  9
$MENU
  1
.
  9
$ELEVATION
 40
0
  9
$PELEVATION
 40
0
  9
$THICKNESS
 40
0
  9
$LIMCHECK
 70
    0
  9
$CHAMFERA
 40
0
  9
$CHAMFERB
 40
0
  9
$CHAMFERC
 40
0
  9
$CHAMFERD
 40
0
  9
$SKPOLY
 70
    0
  9
$USRTIMER
 70
    1
  9
$ANGBASE
 50
0
  9
$ANGDIR
 70
    0
  9
$PDMODE
 70
   96
  9
$PDSIZE
 40
-2
  9
$PLINEWID
 40
0
  9
$SPLFRAME
 70
    0
  9
$SPLINETYPE
 70
    2
  9
$SPLINESEGS
 70
    8
  9
$HANDSEED
  5
20000
  9
$SURFTAB1
 70
    6
  9
$SURFTAB2
 70
    6
  9
$SURFTYPE
 70
    6
  9
$SURFU
 70
    6
  9
$SURFV
 70
    6
  9
$UCSBASE
  2

  9
$UCSNAME
  2

  9
$UCSORG
 10
0
 20
0
 30
0
  9
$UCSXDIR
 10
1
 20
0
 30
0
  9
$UCSYDIR
 10
0
 20
1
 30
0
  9
$UCSORTHOREF
  2

  9
$UCSORTHOVIEW
 70
    0
  9
$UCSORGTOP
 10
0
 20
0
 30
0
  9
$UCSORGBOTTOM
 10
0
 20
0
 30
0
  9
$UCSORGLEFT
 10
0
 20
0
 30
0
  9
$UCSORGRIGHT
 10
0
 20
0
 30
0
  9
$UCSORGFRONT
 10
0
 20
0
 30
0
  9
$UCSORGBACK
 10
0
 20
0
 30
0
  9
$PUCSBASE
  2

  9
$PUCSNAME
  2

  9
$PUCSORG
 10
0
 20
0
 30
0
  9
$PUCSXDIR
 10
1
 20
0
 30
0
  9
$PUCSYDIR
 10
0
 20
1
 30
0
  9
$PUCSORTHOREF
  2

  9
$PUCSORTHOVIEW
 70
    0
  9
$PUCSORGTOP
 10
0
 20
0
 30
0
  9
$PUCSORGBOTTOM
 10
0
 20
0
 30
0
  9
$PUCSORGLEFT
 10
0
 20
0
 30
0
  9
$PUCSORGRIGHT
 10
0
 20
0
 30
0
  9
$PUCSORGFRONT
 10
0
 20
0
 30
0
  9
$PUCSORGBACK
 10
0
 20
0
 30
0
  9
$USERI1
 70
    0
  9
$USERI2
 70
    0
  9
$USERI3
 70
    0
  9
$USERI4
 70
    0
  9
$USERI5
 70
    0
  9
$USERR1
 40
0
  9
$USERR2
 40
0
  9
$USERR3
 40
0
  9
$USERR4
 40
0
  9
$USERR5
 40
0
  9
$WORLDVIEW
 70
    1
  9
$SHADEDGE
 70
    3
  9
$SHADEDIF
 70
   70
  9
$TILEMODE
 70
    1
  9
$MAXACTVP
 70
   64
  9
$PINSBASE
 10
0
 20
0
 30
0
  9
$PLIMCHECK
 70
    0
  9
$PEXTMIN
 10
0
 20
0
 30
0
  9
$PEXTMAX
 10
0
 20
0
 30
0
  9
$SNAPSTYLE
 70
    0
  9
$PLIMMIN
 10
0
 20
0
  9
$PLIMMAX
 10
304.8
 20
228.6
  9
$UNITMODE
 70
    0
  9
$VISRETAIN
 70
    1
  9
$PLINEGEN
 70
    0
  9
$PSLTSCALE
 70
    1
  9
$TREEDEPTH
 70
 3020
  9
$CMLSTYLE
  2
Standard
  9
$CMLJUST
 70
    0
  9
$CMLSCALE
 40
20
  9
$PROXYGRAPHICS
 70
    1
  9
$MEASUREMENT
 70
    1
  9
$CELWEIGHT
370
   -1
  9
$ENDCAPS
280
    0
  9
$JOINSTYLE
280
    0
  9
$LWDISPLAY
290
    0
  9
$INSUNITS
 70
    0
  9
$HYPERLINKBASE
  1

  9
$STYLESHEET
  1

  9
$XEDIT
290
    1
  9
$CEPSNTYPE
380
    0
  9
$PSTYLEMODE
290
    1
  9
$EXTNAMES
290
    1
  9
$PSVPSCALE
 40
1
  9
$OLESTARTUP
290
    0
  9
$SORTENTS
280
  127
  9
$INDEXCTL
280
    0
  9
$HIDETEXT
280
    1
  9
$XCLIPFRAME
290
    0
  9
$HALOGAP
280
    0
  9
$OBSCOLOR
 70
  257
  9
$OBSLTYPE
280
    0
  9
$INTERSECTIONDISPLAY
280
    0
  9
$INTERSECTIONCOLOR
 70
  257
  9
$DIMASSOC
280
    1
  9
$PROJECTNAME
  1

  9
$CAMERADISPLAY
290
    0
  9
$LENSLENGTH
 40
50
  9
$CAMERAHEIGHT
 40
0
  9
$STEPSPERSEC
 40
2
  9
$STEPSIZE
 40
50
  9
$3DDWFPREC
 40
2
  9
$PSOLWIDTH
 40
5
  9
$PSOLHEIGHT
 40
80
  9
$LOFTANG1
 40
1.570796326794897
  9
$LOFTANG2
 40
1.570796326794897
  9
$LOFTMAG1
 40
0
  9
$LOFTMAG2
 40
0
  9
$LOFTPARAM
 70
    7
  9
$LOFTNORMALS
280
    1
  9
$LATITUDE
 40
1
  9
$LONGITUDE
 40
1
  9
$NORTHDIRECTION
 40
0
  9
$TIMEZONE
 70
-8000
  9
$LIGHTGLYPHDISPLAY
280
    1
  9
$TILEMODELIGHTSYNCH
280
    1
  9
$SOLIDHIST
280
    1
  9
$SHOWHIST
280
    1
  9
$DWFFRAME
280
    2
  9
$DGNFRAME
280
    0
  9
$REALWORLDSCALE
290
    1
  9
$INTERFERECOLOR
 62
    1
  9
$CSHADOW
280
    0
  9
$SHADOWPLANELOCATION
 40
0
  0
ENDSEC
  0
SECTION
  2
CLASSES
  0
ENDSEC
  0
SECTION
  2
TABLES
  0
TABLE
  2
VPORT
  5
8
330
0
100
AcDbSymbolTable
 70
    1
  0
VPORT
  5
31
330
2
100
AcDbSymbolTableRecord
100
AcDbViewportTableRecord
  2
*ACTIVE
 70
    0
 10
0
 20
0
 11
1
 21
1
 12
560.1201661321743
 22
345.7580897952685
 13
0
 23
0
 14
10
 24
10
 15
10
 25
10
 16
0
 26
0
 36
1
 17
0
 27
0
 37
0
 40
978.9201486052032
 41
1.576642335766423
 42
50
 43
0
 44
0
 50
0
 51
0
 71
    0
 72
  100
 73
    1
 74
    3
 75
    0
 76
    1
 77
    0
 78
    0
281
    0
 65
    1
110
0
120
0
130
0
111
1
121
0
131
0
112
0
122
1
132
0
 79
    0
146
0
348
10020
 60
    7
 61
    5
292
1
282
    1
141
0
142
0
 63
  250
421
3358443
  0
ENDTAB
  0
TABLE
  2
LTYPE
  5
5
330
0
100
AcDbSymbolTable
 70
    4
  0
LTYPE
  5
14
330
5
100
AcDbSymbolTableRecord
100
AcDbLinetypeTableRecord
  2
ByBlock
 70
    0
  3

 72
   65
 73
    0
 40
0
  0
LTYPE
  5
15
330
5
100
AcDbSymbolTableRecord
100
AcDbLinetypeTableRecord
  2
ByLayer
 70
    0
  3

 72
   65
 73
    0
 40
0
  0
LTYPE
  5
16
330
5
100
AcDbSymbolTableRecord
100
AcDbLinetypeTableRecord
  2
Continuous
 70
    0
  3
Solid line
 72
   65
 73
    0
 40
0
  0
LTYPE
  5
32
330
5
100
AcDbSymbolTableRecord
100
AcDbLinetypeTableRecord
  2
DOT
 70
    0
  3
Dot . . . . . . . . . . . . . . . . . . . . . .
 72
   65
 73
    2
 40
6.35
 49
0
 74
    0
 49
-6.35
 74
    0
  0
LTYPE
  5
33
330
5
100
AcDbSymbolTableRecord
100
AcDbLinetypeTableRecord
  2
DOTTINY
 70
    0
  3
Dot (.15x) .....................................
 72
   65
 73
    2
 40
0.9525
 49
0
 74
    0
 49
-0.9525
 74
    0
  0
LTYPE
  5
34
330
5
100
AcDbSymbolTableRecord
100
AcDbLinetypeTableRecord
  2
DOT2
 70
    0
  3
Dot (.5x) .....................................
 72
   65
 73
    2
 40
3.175
 49
0
 74
    0
 49
-3.175
 74
    0
  0
LTYPE
  5
35
330
5
100
AcDbSymbolTableRecord
100
AcDbLinetypeTableRecord
  2
DOTX2
 70
    0
  3
Dot (2x) .  .  .  .  .  .  .  .  .  .  .  .  .
 72
   65
 73
    2
 40
12.7
 49
0
 74
    0
 49
-12.7
 74
    0
  0
LTYPE
  5
36
330
5
100
AcDbSymbolTableRecord
100
AcDbLinetypeTableRecord
  2
DASHED
 70
    0
  3
Dashed _ _ _ _ _ _ _ _ _ _ _ _ _ _ _ _ _
 72
   65
 73
    2
 40
19.05
 49
12.7
 74
    0
 49
-6.35
 74
    0
  0
LTYPE
  5
37
330
5
100
AcDbSymbolTableRecord
100
AcDbLinetypeTableRecord
  2
DASHEDTINY
 70
    0
  3
Dashed (.15x) _ _ _ _ _ _ _ _ _ _ _ _ _ _ _ _ _
 72
   65
 73
    2
 40
2.8575
 49
1.905
 74
    0
 49
-0.9525
 74
    0
  0
LTYPE
  5
38
330
5
100
AcDbSymbolTableRecord
100
AcDbLinetypeTableRecord
  2
DASHED2
 70
    0
  3
Dashed (.5x) _ _ _ _ _ _ _ _ _ _ _ _ _ _ _ _ _
 72
   65
 73
    2
 40
9.524999999999999
 49
6.35
 74
    0
 49
-3.175
 74
    0
  0
LTYPE
  5
39
330
5
100
AcDbSymbolTableRecord
100
AcDbLinetypeTableRecord
  2
DASHEDX2
 70
    0
  3
Dashed (2x) ____  ____  ____  ____  ____  ___
 72
   65
 73
    2
 40
38.09999999999999
 49
25.4
 74
    0
 49
-12.7
 74
    0
  0
LTYPE
  5
3A
330
5
100
AcDbSymbolTableRecord
100
AcDbLinetypeTableRecord
  2
DASHDOT
 70
    0
  3
Dash dot __ . __ . __ . __ . __ . __ . __ . __
 72
   65
 73
    4
 40
25.4
 49
12.7
 74
    0
 49
-6.35
 74
    0
 49
0
 74
    0
 49
-6.35
 74
    0
  0
LTYPE
  5
3B
330
5
100
AcDbSymbolTableRecord
100
AcDbLinetypeTableRecord
  2
DASHDOTTINY
 70
    0
  3
Dash dot (.15x) _._._._._._._._._._._._._._._.
 72
   65
 73
    4
 40
3.81
 49
1.905
 74
    0
 49
-0.9525
 74
    0
 49
0
 74
    0
 49
-0.9525
 74
    0
  0
LTYPE
  5
3C
330
5
100
AcDbSymbolTableRecord
100
AcDbLinetypeTableRecord
  2
DASHDOT2
 70
    0
  3
Dash dot (.5x) _._._._._._._._._._._._._._._.
 72
   65
 73
    4
 40
12.7
 49
6.35
 74
    0
 49
-3.175
 74
    0
 49
0
 74
    0
 49
-3.175
 74
    0
  0
LTYPE
  5
3D
330
5
100
AcDbSymbolTableRecord
100
AcDbLinetypeTableRecord
  2
DASHDOTX2
 70
    0
  3
Dash dot (2x) ____  .  ____  .  ____  .  ___
 72
   65
 73
    4
 40
50.8
 49
25.4
 74
    0
 49
-12.7
 74
    0
 49
0
 74
    0
 49
-12.7
 74
    0
  0
LTYPE
  5
3E
330
5
100
AcDbSymbolTableRecord
100
AcDbLinetypeTableRecord
  2
DIVIDE
 70
    0
  3
Divide ____ . . ____ . . ____ . . ____ . . ____
 72
   65
 73
    6
 40
31.75
 49
12.7
 74
    0
 49
-6.35
 74
    0
 49
0
 74
    0
 49
-6.35
 74
    0
 49
0
 74
    0
 49
-6.35
 74
    0
  0
LTYPE
  5
3F
330
5
100
AcDbSymbolTableRecord
100
AcDbLinetypeTableRecord
  2
DIVIDETINY
 70
    0
  3
Divide (.15x) __..__..__..__..__..__..__..__.._
 72
   65
 73
    6
 40
4.7625
 49
1.905
 74
    0
 49
-0.9525
 74
    0
 49
0
 74
    0
 49
-0.9525
 74
    0
 49
0
 74
    0
 49
-0.9525
 74
    0
  0
LTYPE
  5
40
330
5
100
AcDbSymbolTableRecord
100
AcDbLinetypeTableRecord
  2
DIVIDE2
 70
    0
  3
Divide (.5x) __..__..__..__..__..__..__..__.._
 72
   65
 73
    6
 40
15.875
 49
6.35
 74
    0
 49
-3.175
 74
    0
 49
0
 74
    0
 49
-3.175
 74
    0
 49
0
 74
    0
 49
-3.175
 74
    0
  0
LTYPE
  5
41
330
5
100
AcDbSymbolTableRecord
100
AcDbLinetypeTableRecord
  2
DIVIDEX2
 70
    0
  3
Divide (2x) ________  .  .  ________  .  .  _
 72
   65
 73
    6
 40
63.5
 49
25.4
 74
    0
 49
-12.7
 74
    0
 49
0
 74
    0
 49
-12.7
 74
    0
 49
0
 74
    0
 49
-12.7
 74
    0
  0
LTYPE
  5
42
330
5
100
AcDbSymbolTableRecord
100
AcDbLinetypeTableRecord
  2
BORDER
 70
    0
  3
Border __ __ . __ __ . __ __ . __ __ . __ __ .
 72
   65
 73
    6
 40
44.45
 49
12.7
 74
    0
 49
-6.35
 74
    0
 49
12.7
 74
    0
 49
-6.35
 74
    0
 49
0
 74
    0
 49
-6.35
 74
    0
  0
LTYPE
  5
43
330
5
100
AcDbSymbolTableRecord
100
AcDbLinetypeTableRecord
  2
BORDERTINY
 70
    0
  3
Border (.15x) __.__.__.__.__.__.__.__.__.__.__.
 72
   65
 73
    6
 40
6.6675
 49
1.905
 74
    0
 49
-0.9525
 74
    0
 49
1.905
 74
    0
 49
-0.9525
 74
    0
 49
0
 74
    0
 49
-0.9525
 74
    0
  0
LTYPE
  5
44
330
5
100
AcDbSymbolTableRecord
100
AcDbLinetypeTableRecord
  2
BORDER2
 70
    0
  3
Border (.5x) __.__.__.__.__.__.__.__.__.__.__.
 72
   65
 73
    6
 40
22.225
 49
6.35
 74
    0
 49
-3.175
 74
    0
 49
6.35
 74
    0
 49
-3.175
 74
    0
 49
0
 74
    0
 49
-3.175
 74
    0
  0
LTYPE
  5
45
330
5
100
AcDbSymbolTableRecord
100
AcDbLinetypeTableRecord
  2
BORDERX2
 70
    0
  3
Border (2x) ____  ____  .  ____  ____  .  ___
 72
   65
 73
    6
 40
88.89999999999999
 49
25.4
 74
    0
 49
-12.7
 74
    0
 49
25.4
 74
    0
 49
-12.7
 74
    0
 49
0
 74
    0
 49
-12.7
 74
    0
  0
LTYPE
  5
46
330
5
100
AcDbSymbolTableRecord
100
AcDbLinetypeTableRecord
  2
CENTER
 70
    0
  3
Center ____ _ ____ _ ____ _ ____ _ ____ _ ____
 72
   65
 73
    4
 40
50.8
 49
31.75
 74
    0
 49
-6.35
 74
    0
 49
6.35
 74
    0
 49
-6.35
 74
    0
  0
LTYPE
  5
47
330
5
100
AcDbSymbolTableRecord
100
AcDbLinetypeTableRecord
  2
CENTERTINY
 70
    0
  3
Center (.15x) ___ _ ___ _ ___ _ ___ _ ___ _ ___
 72
   65
 73
    4
 40
7.619999999999999
 49
4.7625
 74
    0
 49
-0.9525
 74
    0
 49
0.9525
 74
    0
 49
-0.9525
 74
    0
  0
LTYPE
  5
48
330
5
100
AcDbSymbolTableRecord
100
AcDbLinetypeTableRecord
  2
CENTER2
 70
    0
  3
Center (.5x) ___ _ ___ _ ___ _ ___ _ ___ _ ___
 72
   65
 73
    4
 40
28.575
 49
19.05
 74
    0
 49
-3.175
 74
    0
 49
3.175
 74
    0
 49
-3.175
 74
    0
  0
LTYPE
  5
49
330
5
100
AcDbSymbolTableRecord
100
AcDbLinetypeTableRecord
  2
CENTERX2
 70
    0
  3
Center (2x) ________  __  ________  __  _____
 72
   65
 73
    4
 40
101.6
 49
63.5
 74
    0
 49
-12.7
 74
    0
 49
12.7
 74
    0
 49
-12.7
 74
    0
  0
ENDTAB
  0
TABLE
  2
LAYER
  5
2
330
0
100
AcDbSymbolTable
 70
    1
  0
LAYER
  5
10
330
2
100
AcDbSymbolTableRecord
100
AcDbLayerTableRecord
  2
0
 70
    0
 62
    7
  6
CONTINUOUS
370
   25
390
F
  0
ENDTAB
  0
TABLE
  2
STYLE
  5
3
330
0
100
AcDbSymbolTable
 70
    3
  0
STYLE
  5
4A
330
2
100
AcDbSymbolTableRecord
100
AcDbTextStyleTableRecord
  2
Standard
 70
    0
 40
0
 41
1
 50
0
 71
    0
 42
1
  3
txt
  4

  0
ENDTAB
  0
TABLE
  2
VIEW
  5
6
330
0
100
AcDbSymbolTable
 70
    0
  0
ENDTAB
  0
TABLE
  2
UCS
  5
7
330
0
100
AcDbSymbolTable
 70
    0
  0
ENDTAB
  0
TABLE
  2
APPID
  5
9
330
0
100
AcDbSymbolTable
 70
    1
  0
APPID
  5
12
330
9
100
AcDbSymbolTableRecord
100
AcDbRegAppTableRecord
  2
ACAD
 70
    0
  0
APPID
  5
4B
330
9
100
AcDbSymbolTableRecord
100
AcDbRegAppTableRecord
  2
LibreCad
 70
    0
  0
ENDTAB
  0
TABLE
  2
DIMSTYLE
  5
A
330
0
100
AcDbSymbolTable
 70
    1
100
AcDbDimStyleTable
 71
    1
  0
DIMSTYLE
105
4C
330
A
100
AcDbSymbolTableRecord
100
AcDbDimStyleTableRecord
  2
Standard
 70
    0
 40
1
 41
2.5
 42
0.625
 43
0.38
 44
1.25
 45
0
 46
0
 47
0
 48
0
 49
1
140
2.5
141
0.09
142
2.5
143
25.4
144
1
145
0
146
1
147
0.625
148
0
 71
    0
 72
    0
 73
    0
 74
    1
 75
    0
 76
    0
 77
    0
 78
    1
 79
    0
170
    0
171
    2
172
    0
173
    0
174
    0
175
    0
176
    0
177
    0
178
    0
179
    0
271
    2
272
    4
273
    2
274
    2
275
    0
276
    0
277
    2
278
    0
279
    0
280
    0
281
    0
282
    0
283
    1
284
    0
285
    0
286
    0
288
    0
289
    3
340
4A
  0
ENDTAB
  0
TABLE
  2
BLOCK_RECORD
  5
1
330
0
100
AcDbSymbolTable
 70
    2
  0
BLOCK_RECORD
  5
1F
330
1
100
AcDbSymbolTableRecord
100
AcDbBlockTableRecord
  2
*Model_Space
 70
    0
280
    1
281
    0
  0
BLOCK_RECORD
  5
1E
330
1
100
AcDbSymbolTableRecord
100
AcDbBlockTableRecord
  2
*Paper_Space
 70
    0
280
    1
281
    0
  0
ENDTAB
  0
ENDSEC
  0
SECTION
  2
BLOCKS
  0
BLOCK
  5
20
330
1F
100
AcDbEntity
  8
0
100
AcDbBlockBegin
  2
*Model_Space
 70
    0
 10
0
 20
0
 30
0
  3
*Model_Space
  1

  0
ENDBLK
  5
21
330
1F
100
AcDbEntity
  8
0
100
AcDbBlockEnd
  0
BLOCK
  5
1C
330
1B
100
AcDbEntity
  8
0
100
AcDbBlockBegin
  2
*Paper_Space
 70
    0
 10
0
 20
0
 30
0
  3
*Paper_Space
  1

  0
ENDBLK
  5
1D
330
1F
100
AcDbEntity
  8
0
100
AcDbBlockEnd
  0
ENDSEC
  0
SECTION
  2
ENTITIES
  0
LWPOLYLINE
  5
4D
100
AcDbEntity
  8
0
  6
ByLayer
 62
  256
370
   -1
100
AcDbPolyline
 90
   32
 70
    1
 43
0
 10
8.2341
 20
0
 10
5.0321
 20
0.6481
 10
2.4145
 20
2.4144
 10
0.6481
 20
5.0321
 10
0
 20
8.2341
 10
0
 20
20.8016
 10
0
 20
48.4499
 10
0
 20
76.09829999999999
 10
0
 20
88.6657
 10
0.6481
 20
91.8677
 10
2.4145
 20
94.4854
 10
5.0321
 20
96.2517
 10
8.2341
 20
96.8998
 10
42.6297
 20
96.8998
 10
118.3
 20
96.8998
 10
193.97
 20
96.8998
 10
228.366
 20
96.8998
 10
231.568
 20
96.2517
 10
234.185
 20
94.4854
 10
235.952
 20
91.8677
 10
236.6
 20
88.6657
 10
236.6
 20
76.09829999999999
 10
236.6
 20
48.4499
 10
236.6
 20
20.8016
 10
236.6
 20
8.2341
 10
235.952
 20
5.0321
 10
234.185
 20
2.4144
 10
231.568
 20
0.6481
 10
228.366
 20
0
 10
193.97
 20
0
 10
118.3
 20
0
 10
42.6297
 20
0
  0
LWPOLYLINE
  5
4E
100
AcDbEntity
  8
0
  6
ByLayer
 62
  256
370
   -1
100
AcDbPolyline
 90
   40
 70
    1
 43
0
 10
472.351
 20
54.1411
 10
468.44
 20
47.3655
 10
459.836
 20
32.4593
 10
451.232
 20
17.5532
 10
447.321
 20
10.7776
 10
446.506
 20
9.7164
 10
445.459
 20
8.915800000000001
 10
444.242
 20
8.410299999999999
 10
442.915
 20
8.2341
 10
411.474
 20
8.2341
 10
342.303
 20
8.2341
 10
273.132
 20
8.2341
 10
241.69
 20
8.2341
 10
239.709
 20
8.6341
 10
238.091
 20
9.725
 10
237
 20
11.3431
 10
236.6
 20
13.3247
 10
236.6
 20
26.8746
 10
236.6
 20
56.6846
 10
236.6
 20
86.4945
 10
236.6
 20
100.044
 10
237
 20
102.026
 10
238.091
 20
103.644
 10
239.709
 20
104.735
 10
241.69
 20
105.135
 10
273.132
 20
105.135
 10
342.303
 20
105.135
 10
411.474
 20
105.135
 10
442.915
 20
105.135
 10
444.242
 20
104.959
 10
445.459
 20
104.453
 10
446.506
 20
103.651
 10
447.321
 20
102.588
 10
451.232
 20
95.813
 10
459.836
 20
80.9081
 10
468.44
 20
66.0031
 10
472.351
 20
59.2281
 10
472.863
 20
57.9908
 10
473.033
 20
56.6846
 10
472.863
 20
55.3784
  0
LWPOLYLINE
  5
4F
100
AcDbEntity
  8
0
  6
ByLayer
 62
  256
370
   -1
100
AcDbPolyline
 90
   32
 70
    1
 43
0
 10
697.228
 20
55.3784
 10
662.833
 20
55.3784
 10
587.163
 20
55.3784
 10
511.492
 20
55.3784
 10
477.097
 20
55.3784
 10
475.453
 20
55.7125
 10
474.106
 20
56.6222
 10
473.197
 20
57.9685
 10
472.863
 20
59.6126
 10
472.863
 20
72.18000000000001
 10
472.863
 20
99.8284
 10
472.863
 20
127.477
 10
472.863
 20
140.044
 10
473.197
 20
141.688
 10
474.106
 20
143.035
 10
475.453
 20
143.944
 10
477.097
 20
144.278
 10
511.492
 20
144.278
 10
587.163
 20
144.278
 10
662.833
 20
144.278
 10
697.228
 20
144.278
 10
698.872
 20
143.944
 10
700.2190000000001
 20
143.035
 10
701.129
 20
141.688
 10
701.463
 20
140.044
 10
701.463
 20
127.477
 10
701.463
 20
99.8284
 10
701.463
 20
72.18000000000001
 10
701.463
 20
59.6126
 10
701.129
 20
57.9685
 10
700.2190000000001
 20
56.6222
 10
698.872
 20
55.7125
  0
LWPOLYLINE
  5
50
100
AcDbEntity
  8
0
  6
ByLayer
 62
  256
370
   -1
100
AcDbPolyline
 90
   28
 70
    1
 43
0
 10
236.834
 20
141.35
 10
232.825
 20
134.404
 10
224.005
 20
119.125
 10
215.186
 20
103.845
 10
211.177
 20
96.8998
 10
180.128
 20
96.8998
 10
111.822
 20
96.8998
 10
43.5157
 20
96.8998
 10
12.4674
 20
96.8998
 10
10.8237
 20
97.23439999999999
 10
9.477600000000001
 20
98.1451
 10
8.568099999999999
 20
99.4924
 10
8.2341
 20
101.137
 10
8.2341
 20
113.704
 10
8.2341
 20
141.352
 10
8.2341
 20
168.999
 10
8.2341
 20
181.567
 10
8.568099999999999
 20
183.21
 10
9.477600000000001
 20
184.556
 10
10.8237
 20
185.466
 10
12.4674
 20
185.8
 10
43.5157
 20
185.8
 10
111.822
 20
185.8
 10
180.128
 20
185.8
 10
211.177
 20
185.8
 10
215.186
 20
178.855
 10
224.005
 20
163.575
 10
232.825
 20
148.295
  0
LWPOLYLINE
  5
51
100
AcDbEntity
  8
0
  6
ByLayer
 62
  256
370
   -1
100
AcDbPolyline
 90
  544
 70
    1
 43
0
 10
509.679
 20
254.95
 10
510.645
 20
253.787
 10
510.066
 20
250.56
 10
508.94
 20
246.988
 10
508.264
 20
244.789
 10
508.342
 20
242.872
 10
509.106
 20
242.176
 10
510.441
 20
243.035
 10
512.23
 20
245.785
 10
513.029
 20
247.935
 10
513.6
 20
249.978
 10
514.247
 20
251.159
 10
515.274
 20
250.722
 10
516.129
 20
248.248
 10
515.92
 20
244.883
 10
515.071
 20
241.493
 10
514.0069999999999
 20
238.947
 10
513.025
 20
237.584
 10
512
 20
236.311
 10
511.41
 20
235.069
 10
511.735
 20
233.796
 10
513.254
 20
233.575
 10
515.194
 20
235.193
 10
516.994
 20
237.411
 10
518.0890000000001
 20
238.989
 10
519.256
 20
241.205
 10
520.852
 20
244.203
 10
522.671
 20
246.543
 10
524.506
 20
246.788
 10
525.11
 20
244.642
 10
524.213
 20
241.33
 10
522.671
 20
237.987
 10
521.338
 20
235.746
 10
520.287
 20
234.497
 10
518.761
 20
232.789
 10
517.421
 20
231.204
 10
516.928
 20
230.323
 10
517.972
 20
229.981
 10
519.8049999999999
 20
230.847
 10
521.843
 20
232.739
 10
523.502
 20
235.474
 10
523.899
 20
236.723
 10
524.304
 20
238.169
 10
524.807
 20
239.431
 10
525.494
 20
240.131
 10
526.8150000000001
 20
239.045
 10
526.722
 20
235.75
 10
526.63
 20
232.903
 10
527.954
 20
233.162
 10
529.035
 20
234.48
 10
530.249
 20
235.817
 10
531.265
 20
236.17
 10
531.755
 20
234.536
 10
531.816
 20
233.012
 10
531.736
 20
231.751
 10
531.323
 20
230.519
 10
530.389
 20
229.082
 10
526.65
 20
224.892
 10
522.7809999999999
 20
222.134
 10
518.216
 20
220.623
 10
512.3869999999999
 20
220.17
 10
508.017
 20
220.312
 10
503.034
 20
220.608
 10
498.255
 20
220.889
 10
494.498
 20
220.985
 10
493.088
 20
220.687
 10
493.162
 20
219.985
 10
493.97
 20
219.034
 10
494.761
 20
217.989
 10
495.17
 20
216.738
 10
495.771
 20
214.924
 10
496.942
 20
212.877
 10
499.065
 20
210.929
 10
500.912
 20
209.758
 10
502.348
 20
208.773
 10
503.576
 20
207.587
 10
504.799
 20
205.812
 10
505.827
 20
204.492
 10
507.062
 20
203.207
 10
508.13
 20
201.886
 10
508.657
 20
200.455
 10
509.065
 20
197.635
 10
509.508
 20
194.023
 10
509.377
 20
190.576
 10
508.059
 20
188.252
 10
507.139
 20
187.745
 10
506.011
 20
187.323
 10
504.873
 20
187.104
 10
503.919
 20
187.207
 10
503.012
 20
187.552
 10
502.64
 20
187.556
 10
502.352
 20
187.199
 10
501.696
 20
186.459
 10
500.247
 20
185.679
 10
498.578
 20
185.754
 10
496.909
 20
186.695
 10
495.461
 20
188.517
 10
494.663
 20
190.141
 10
493.822
 20
191.738
 10
492.706
 20
192.979
 10
491.082
 20
193.536
 10
489.52
 20
193.571
 10
487.787
 20
193.417
 10
486.258
 20
192.907
 10
485.306
 20
191.873
 10
484.681
 20
190.103
 10
484.358
 20
189.252
 10
483.996
 20
189.298
 10
483.258
 20
190.219
 10
482.379
 20
190.512
 10
481.87
 20
189.031
 10
481.36
 20
186.882
 10
480.477
 20
185.168
 10
479.499
 20
184.802
 10
478.897
 20
185.574
 10
478.478
 20
186.804
 10
478.049
 20
187.808
 10
477.321
 20
187.891
 10
476.761
 20
185.744
 10
475.236
 20
182.538
 10
471.614
 20
179.44
 10
470.5
 20
179.575
 10
470.189
 20
181.234
 10
470.146
 20
183.629
 10
469.838
 20
185.974
 10
468.991
 20
186.541
 10
467.659
 20
185.686
 10
466.228
 20
184.305
 10
465.083
 20
183.292
 10
462.884
 20
182.353
 10
461.018
 20
181.888
 10
459.693
 20
181.215
 10
459.116
 20
179.654
 10
459.07
 20
177.097
 10
459.034
 20
174.798
 10
458.666
 20
172.594
 10
457.627
 20
170.324
 10
455.923
 20
167.23
 10
455.945
 20
165.122
 10
457.717
 20
162.599
 10
461.265
 20
158.261
 10
464.49
 20
153.777
 10
465.585
 20
150.781
 10
465.198
 20
147.576
 10
463.979
 20
142.463
 10
463.262
 20
136.103
 10
463.463
 20
130.748
 10
463.679
 20
126.266
 10
463.008
 20
122.525
 10
462.073
 20
120.985
 10
461.22
 20
120.751
 10
460.268
 20
120.916
 10
459.035
 20
120.569
 10
458.01
 20
119.35
 10
456.659
 20
117.265
 10
454.871
 20
114.964
 10
452.533
 20
113.096
 10
451.458
 20
112.748
 10
450.947
 20
113.144
 10
450.79
 20
114.128
 10
450.774
 20
115.541
 10
450.731
 20
122.346
 10
451.103
 20
125.518
 10
452.362
 20
127.168
 10
454.978
 20
129.406
 10
456.378
 20
131.048
 10
457.041
 20
132.707
 10
457.225
 20
134.694
 10
457.191
 20
137.321
 10
457.13
 20
139.485
 10
457.02
 20
141.826
 10
456.865
 20
144.076
 10
456.664
 20
145.968
 10
456.408
 20
147.315
 10
456.028
 20
148.256
 10
455.447
 20
149.012
 10
454.583
 20
149.803
 10
453.391
 20
150.8
 10
451.957
 20
151.978
 10
450.398
 20
153.262
 10
448.832
 20
154.574
 10
443.626
 20
159.002
 10
441.75
 20
159.656
 10
441.353
 20
156.701
 10
440.587
 20
150.304
 10
439.803
 20
147.408
 10
439.204
 20
146.151
 10
438.809
 20
144.278
 10
438.637
 20
139.533
 10
438.569
 20
135.314
 10
438.498
 20
130.275
 10
438.544
 20
125.325
 10
438.825
 20
121.375
 10
439.242
 20
119.452
 10
439.802
 20
118.063
 10
440.442
 20
116.807
 10
441.097
 20
115.285
 10
441.612
 20
113.291
 10
441.738
 20
112.423
 10
442.451
 20
111.689
 10
444.726
 20
110.094
 10
445.757
 20
109.311
 10
446.842
 20
108.322
 10
447.744
 20
107.228
 10
448.223
 20
106.135
 10
447.262
 20
105.438
 10
444.832
 20
105.164
 10
442.126
 20
105.135
 10
440.339
 20
105.172
 10
437.267
 20
105.434
 10
435.947
 20
106.17
 10
435.237
 20
107.468
 10
433.996
 20
109.42
 10
433.168
 20
110.233
 10
432.497
 20
110.817
 10
432.121
 20
111.546
 10
432.177
 20
112.793
 10
432.646
 20
114.815
 10
433.066
 20
116.642
 10
433.251
 20
118.533
 10
433.017
 20
120.749
 10
431.652
 20
127.691
 10
430.686
 20
133.758
 10
430.061
 20
139.911
 10
429.717
 20
147.112
 10
429.441
 20
151.136
 10
428.989
 20
152.877
 10
428.462
 20
153.85
 10
427.957
 20
155.571
 10
427.57
 20
158.075
 10
427.14
 20
159.641
 10
426.187
 20
160.261
 10
424.23
 20
159.924
 10
419.203
 20
158.915
 10
413.764
 20
158.821
 10
408.383
 20
159.669
 10
403.527
 20
161.487
 10
401.226
 20
162.706
 10
398.995
 20
163.542
 10
396.921
 20
163.374
 10
395.094
 20
161.578
 10
394.509
 20
160.219
 10
393.222
 20
157.229
 10
391.935
 20
154.239
 10
391.35
 20
152.88
 10
390.388
 20
149.758
 10
390.439
 20
147.123
 10
391.069
 20
144.279
 10
391.843
 20
140.53
 10
392.473
 20
135.606
 10
393.209
 20
130.465
 10
394.546
 20
125.471
 10
396.978
 20
120.988
 10
397.511
 20
120.306
 10
398.068
 20
119.599
 10
398.606
 20
118.895
 10
399.083
 20
118.223
 10
399.996
 20
116.853
 10
400.655
 20
115.992
 10
401.464
 20
115.226
 10
402.827
 20
114.143
 10
404.063
 20
113.14
 10
405.449
 20
111.857
 10
406.613
 20
110.458
 10
407.188
 20
109.107
 10
406.149
 20
108.15
 10
403.559
 20
107.676
 10
400.673
 20
107.51
 10
398.747
 20
107.478
 10
395.955
 20
107.739
 10
394.889
 20
108.687
 10
394.537
 20
110.313
 10
393.892
 20
112.603
 10
393.072
 20
113.233
 10
391.947
 20
113.183
 10
390.879
 20
113.355
 10
390.231
 20
114.653
 10
390.169
 20
115.42
 10
390.139
 20
116.397
 10
390.084
 20
117.607
 10
389.943
 20
119.08
 10
389.375
 20
122.489
 10
388.497
 20
126.213
 10
387.365
 20
129.858
 10
386.034
 20
133.034
 10
384.448
 20
135.786
 10
382.462
 20
138.654
 10
380.304
 20
141.375
 10
378.202
 20
143.69
 10
376.971
 20
144.735
 10
375.776
 20
145.688
 10
375.017
 20
146.654
 10
375.099
 20
147.738
 10
376.007
 20
149.122
 10
376.851
 20
150.214
 10
377.567
 20
151.537
 10
378.094
 20
153.612
 10
378.3
 20
155.44
 10
378.469
 20
158.06
 10
378.457
 20
160.592
 10
378.119
 20
162.153
 10
376.959
 20
161.193
 10
374.902
 20
157.747
 10
372.319
 20
153.495
 10
369.578
 20
150.116
 10
364.703
 20
146.552
 10
359.899
 20
143.475
 10
355.682
 20
139.743
 10
352.57
 20
134.218
 10
351.301
 20
129.783
 10
350.194
 20
123.89
 10
349.948
 20
118.111
 10
351.263
 20
114.018
 10
351.844
 20
113.387
 10
352.518
 20
112.702
 10
353.201
 20
112.005
 10
353.805
 20
111.336
 10
354.272
 20
110.724
 10
354.646
 20
110.155
 10
354.998
 20
109.605
 10
355.4
 20
109.049
 10
356.891
 20
107.413
 10
357.853
 20
106.238
 10
357.477
 20
105.505
 10
354.956
 20
105.198
 10
349.111
 20
105.244
 10
346.442
 20
105.983
 10
345.589
 20
107.695
 10
345.19
 20
110.661
 10
344.353
 20
112.054
 10
343.169
 20
111.977
 10
342.303
 20
111.861
 10
342.42
 20
113.132
 10
342.747
 20
117.501
 10
343.039
 20
122.866
 10
343.219
 20
129.227
 10
343.211
 20
136.583
 10
343.3
 20
139.238
 10
343.715
 20
141.58
 10
344.531
 20
143.792
 10
345.827
 20
146.061
 10
348.394
 20
149.539
 10
350.722
 20
153.046
 10
352.725
 20
156.615
 10
354.317
 20
160.279
 10
356.92
 20
169.186
 10
357.738
 20
176.594
 10
356.859
 20
182.472
 10
354.368
 20
186.791
 10
351.945
 20
184.77
 10
350.426
 20
183.792
 10
349.81
 20
183.857
 10
350.098
 20
184.963
 10
350.433
 20
186.102
 10
350.668
 20
187.358
 10
350.803
 20
188.731
 10
350.838
 20
190.221
 10
351.507
 20
192.604
 10
352.537
 20
194.44
 10
353.889
 20
195.82
 10
355.527
 20
196.836
 10
357.126
 20
197.995
 10
358.378
 20
199.603
 10
359.439
 20
201.53
 10
360.464
 20
203.649
 10
361.358
 20
204.94
 10
362.446
 20
205.725
 10
363.629
 20
206.065
 10
364.809
 20
206.02
 10
366.133
 20
205.948
 10
367.48
 20
206.253
 10
368.848
 20
206.935
 10
370.238
 20
207.993
 10
372.58
 20
209.376
 10
375.064
 20
210.223
 10
377.69
 20
210.536
 10
380.459
 20
210.313
 10
386.837
 20
209.358
 10
391.903
 20
208.993
 10
395.69
 20
209.153
 10
398.231
 20
209.77
 10
401.297
 20
210.912
 10
404.45
 20
211.837
 10
407.653
 20
212.654
 10
410.869
 20
213.474
 10
411.939
 20
214.019
 10
412.631
 20
214.925
 10
413.071
 20
216.143
 10
413.386
 20
217.619
 10
414.108
 20
219.175
 10
415.533
 20
220.234
 10
417.55
 20
220.825
 10
420.051
 20
220.978
 10
424.028
 20
221.434
 10
427.078
 20
222.545
 10
429.145
 20
224.322
 10
430.172
 20
226.778
 10
430.496
 20
227.675
 10
431.133
 20
228.228
 10
432.141
 20
228.438
 10
433.577
 20
228.307
 10
434.712
 20
228.194
 10
435.773
 20
228.264
 10
436.76
 20
228.505
 10
437.676
 20
228.902
 10
438.823
 20
229.37
 10
440.002
 20
229.577
 10
441.215
 20
229.544
 10
442.465
 20
229.295
 10
443.429
 20
229.114
 10
444.415
 20
229.081
 10
445.419
 20
229.173
 10
446.437
 20
229.369
 10
447.915
 20
229.53
 10
449.236
 20
229.366
 10
450.467
 20
229.018
 10
451.673
 20
228.629
 10
455.311
 20
227.81
 10
457.071
 20
227.923
 10
456.88
 20
228.74
 10
454.659
 20
230.035
 10
444.551
 20
235.431
 10
437.818
 20
241.118
 10
434.495
 20
247.175
 10
434.614
 20
253.683
 10
435.101
 20
254.775
 10
435.732
 20
255.086
 10
436.471
 20
254.597
 10
437.281
 20
253.287
 10
439.37
 20
249.356
 10
440.625
 20
248.064
 10
441.12
 20
249.433
 10
440.934
 20
253.486
 10
441.257
 20
255.887
 10
442.396
 20
256.579
 10
443.693
 20
255.576
 10
444.487
 20
252.894
 10
445.627
 20
247.48
 10
447.344
 20
244.047
 10
448.83
 20
242.927
 10
449.276
 20
244.452
 10
448.938
 20
248.515
 10
449.075
 20
251.511
 10
449.819
 20
253.409
 10
451.3
 20
254.178
 10
451.947
 20
254.075
 10
452.391
 20
253.645
 10
452.647
 20
252.939
 10
452.732
 20
252.006
 10
452.989
 20
245.049
 10
453.647
 20
240.824
 10
454.65
 20
239.35
 10
455.941
 20
240.649
 10
457.849
 20
244.102
 10
458.749
 20
244.501
 10
459.27
 20
241.851
 10
460.04
 20
236.157
 10
460.926
 20
234.062
 10
462.293
 20
233.33
 10
463.521
 20
233.704
 10
463.989
 20
234.924
 10
463.853
 20
238.987
 10
464.189
 20
242.159
 10
465.079
 20
244.415
 10
466.606
 20
245.734
 10
467.405
 20
245.867
 10
467.909
 20
245.443
 10
468.081
 20
244.499
 10
467.887
 20
243.069
 10
466.798
 20
237.444
 10
466.5
 20
233.34
 10
466.933
 20
230.596
 10
468.038
 20
229.048
 10
472.997
 20
226.626
 10
476.29
 20
226.447
 10
476.764
 20
227.667
 10
473.271
 20
229.443
 10
470.966
 20
230.592
 10
469.351
 20
232.455
 10
468.412
 20
235.058
 10
468.135
 20
238.428
 10
468.268
 20
239.298
 10
468.655
 20
239.775
 10
469.326
 20
239.875
 10
470.307
 20
239.613
 10
475.446
 20
237.129
 10
479.344
 20
234.077
 10
482.031
 20
230.448
 10
483.538
 20
226.234
 10
484.279
 20
224.432
 10
485.254
 20
223.961
 10
486.05
 20
225.133
 10
486.254
 20
228.259
 10
485.598
 20
232.82
 10
484.167
 20
237.097
 10
481.99
 20
241.127
 10
479.096
 20
244.945
 10
477.66
 20
247.43
 10
477.67
 20
249.345
 10
478.996
 20
249.961
 10
481.513
 20
248.549
 10
482.295
 20
248.18
 10
482.782
 20
248.529
 10
482.721
 20
249.579
 10
481.86
 20
251.314
 10
480.044
 20
255.537
 10
480.342
 20
258.221
 10
481.744
 20
259.217
 10
483.241
 20
258.375
 10
483.785
 20
256.773
 10
484.274
 20
255.096
 10
484.704
 20
253.432
 10
485.069
 20
251.873
 10
485.69
 20
250.409
 10
486.591
 20
249.449
 10
487.4
 20
249.372
 10
487.743
 20
250.557
 10
487.494
 20
252.847
 10
487.196
 20
255.404
 10
487.479
 20
257.747
 10
488.976
 20
259.394
 10
490.619
 20
258.736
 10
492.059
 20
256.521
 10
493.332
 20
254.984
 10
494.473
 20
256.357
 10
495.248
 20
257.794
 10
496.373
 20
258.815
 10
497.476
 20
259.177
 10
498.183
 20
258.637
 10
498.354
 20
256.222
 10
498.373
 20
252.804
 10
498.845
 20
250.384
 10
500.372
 20
250.961
 10
501.159
 20
252.021
 10
502.37
 20
253.472
 10
503.51
 20
254.211
 10
504.084
 20
253.133
 10
504.09
 20
251.716
 10
504.176
 20
250.072
 10
504.597
 20
249.302
 10
505.605
 20
250.508
 10
506.332
 20
251.785
 10
507.269
 20
253.15
 10
508.393
 20
254.305
  0
LWPOLYLINE
  5
52
100
AcDbEntity
  8
0
  6
ByLayer
 62
  256
370
   -1
100
AcDbPolyline
 90
    6
 70
    1
 43
0
 10
314.121
 20
149.585
 10
288.464
 20
105.135
 10
273.132
 20
105.135
 10
298.796
 20
149.585
 10
273.132
 20
194.035
 10
288.464
 20
194.035
  0
LWPOLYLINE
  5
53
100
AcDbEntity
  8
0
  6
ByLayer
 62
  256
370
   -1
100
AcDbPolyline
 90
 1436
 70
    1
 43
0
 10
749.261
 20
93.1444
 10
751.437
 20
94.2664
 10
752.946
 20
92.8163
 10
754.514
 20
90.0697
 10
756.865
 20
87.3023
 10
760.742
 20
83.8321
 10
761.468
 20
82.2547
 10
760.271
 20
81.9563
 10
758.373
 20
82.3232
 10
757.3049999999999
 20
82.6416
 10
756.596
 20
82.75369999999999
 10
755.924
 20
82.4803
 10
754.968
 20
81.6421
 10
754.097
 20
80.74039999999999
 10
753.212
 20
79.8019
 10
752.335
 20
78.97280000000001
 10
751.49
 20
78.39960000000001
 10
749
 20
76.5681
 10
747.326
 20
74.4669
 10
747.123
 20
73.312
 10
749.047
 20
74.3194
 10
750.5890000000001
 20
75.4632
 10
751.538
 20
76.10590000000001
 10
752.477
 20
76.80459999999999
 10
753.986
 20
78.1161
 10
757.139
 20
79.3436
 10
759.881
 20
77.8766
 10
762.115
 20
75.13330000000001
 10
763.746
 20
72.5321
 10
764.4160000000001
 20
71.6417
 10
764.7569999999999
 20
71.51390000000001
 10
764.763
 20
71.9987
 10
764.431
 20
72.9466
 10
763.53
 20
75.0779
 10
762.973
 20
77.8105
 10
763.643
 20
80.9063
 10
766.426
 20
84.12739999999999
 10
768.918
 20
86.6562
 10
770.259
 20
88.15000000000001
 10
771.803
 20
87.65519999999999
 10
774.908
 20
84.2184
 10
777.232
 20
82.76560000000001
 10
779.266
 20
82.60590000000001
 10
780.842
 20
81.3043
 10
781.795
 20
76.42610000000001
 10
782.249
 20
73.38890000000001
 10
782.801
 20
73.3001
 10
783.378
 20
75.07899999999999
 10
783.91
 20
77.6444
 10
784.5700000000001
 20
78.9935
 10
785.453
 20
78.2684
 10
786.472
 20
76.62
 10
787.539
 20
75.19929999999999
 10
790.562
 20
72.03270000000001
 10
791.346
 20
70.46259999999999
 10
792.222
 20
69.5291
 10
795.52
 20
68.27209999999999
 10
796.489
 20
67.8651
 10
796.83
 20
67.196
 10
796.726
 20
65.7646
 10
796.36
 20
63.0709
 10
796.312
 20
62.7401
 10
796.258
 20
62.4477
 10
796.199
 20
62.1913
 10
796.133
 20
61.9689
 10
795.981
 20
61.566
 10
795.802
 20
61.1749
 10
795.569
 20
60.8079
 10
795.256
 20
60.4777
 10
794.977
 20
60.2756
 10
794.6559999999999
 20
60.0983
 10
794.302
 20
59.9467
 10
793.925
 20
59.822
 10
793.825
 20
59.9675
 10
793.746
 20
60.134
 10
793.686
 20
60.3211
 10
793.646
 20
60.5284
 10
793.973
 20
60.5407
 10
794.226
 20
60.6598
 10
794.403
 20
60.8857
 10
794.5069999999999
 20
61.218
 10
794.074
 20
61.6209
 10
793.7619999999999
 20
62.0363
 10
793.571
 20
62.464
 10
793.502
 20
62.9038
 10
793.735
 20
62.9403
 10
793.91
 20
63.1259
 10
794.027
 20
63.4606
 10
794.086
 20
63.9444
 10
793.792
 20
64.10509999999999
 10
793.575
 20
64.32680000000001
 10
793.4349999999999
 20
64.6095
 10
793.371
 20
64.9534
 10
793.47
 20
64.9799
 10
793.552
 20
65.0433
 10
793.616
 20
65.14319999999999
 10
793.663
 20
65.2791
 10
793.511
 20
65.9169
 10
793.36
 20
66.4665
 10
793.2089999999999
 20
66.9285
 10
793.0599999999999
 20
67.30329999999999
 10
792.91
 20
66.9285
 10
792.76
 20
66.4665
 10
792.609
 20
65.9169
 10
792.457
 20
65.2791
 10
792.504
 20
65.14319999999999
 10
792.569
 20
65.0433
 10
792.652
 20
64.9799
 10
792.751
 20
64.9534
 10
792.687
 20
64.6095
 10
792.546
 20
64.32680000000001
 10
792.329
 20
64.10509999999999
 10
792.034
 20
63.9444
 10
792.093
 20
63.4606
 10
792.211
 20
63.1259
 10
792.3869999999999
 20
62.9403
 10
792.62
 20
62.9038
 10
792.55
 20
62.464
 10
792.359
 20
62.0363
 10
792.047
 20
61.6209
 10
791.6130000000001
 20
61.218
 10
791.717
 20
60.8857
 10
791.895
 20
60.6598
 10
792.148
 20
60.5407
 10
792.474
 20
60.5284
 10
792.41
 20
60.2333
 10
792.304
 20
59.9825
 10
792.155
 20
59.7756
 10
791.9640000000001
 20
59.6126
 10
791.723
 20
59.6224
 10
791.4829999999999
 20
59.6353
 10
791.2430000000001
 20
59.6507
 10
791.002
 20
59.6676
 10
790.692
 20
59.6734
 10
790.324
 20
59.6837
 10
789.8920000000001
 20
59.6976
 10
789.3920000000001
 20
59.7141
 10
789.354
 20
59.8185
 10
789.322
 20
59.9288
 10
789.296
 20
60.0455
 10
789.276
 20
60.1689
 10
789.644
 20
60.1828
 10
789.928
 20
60.3167
 10
790.128
 20
60.5707
 10
790.245
 20
60.9451
 10
789.756
 20
61.398
 10
789.405
 20
61.8652
 10
789.191
 20
62.3467
 10
789.1130000000001
 20
62.8424
 10
789.376
 20
62.8836
 10
789.573
 20
63.0928
 10
789.706
 20
63.4697
 10
789.773
 20
64.0142
 10
789.442
 20
64.1956
 10
789.197
 20
64.4447
 10
789.038
 20
64.7621
 10
788.965
 20
65.148
 10
789.077
 20
65.1793
 10
789.17
 20
65.25109999999999
 10
789.242
 20
65.3633
 10
789.295
 20
65.51600000000001
 10
789.124
 20
66.2343
 10
788.954
 20
66.85339999999999
 10
788.784
 20
67.3733
 10
788.616
 20
67.7941
 10
788.448
 20
67.3733
 10
788.279
 20
66.85339999999999
 10
788.11
 20
66.2343
 10
787.939
 20
65.51600000000001
 10
787.992
 20
65.3633
 10
788.064
 20
65.25109999999999
 10
788.1559999999999
 20
65.1793
 10
788.2670000000001
 20
65.148
 10
788.1950000000001
 20
64.7621
 10
788.037
 20
64.4447
 10
787.792
 20
64.1956
 10
787.461
 20
64.0142
 10
787.528
 20
63.4697
 10
787.6609999999999
 20
63.0928
 10
787.8579999999999
 20
62.8836
 10
788.121
 20
62.8424
 10
788.043
 20
62.3467
 10
787.828
 20
61.8652
 10
787.477
 20
61.398
 10
786.989
 20
60.9451
 10
787.016
 20
60.8134
 10
787.052
 20
60.6942
 10
787.097
 20
60.5873
 10
787.15
 20
60.4925
 10
786.5650000000001
 20
60.6766
 10
786.102
 20
60.9962
 10
785.777
 20
61.4589
 10
785.602
 20
62.0725
 10
786.087
 20
62.0908
 10
786.461
 20
62.2666
 10
786.724
 20
62.6002
 10
786.877
 20
63.092
 10
786.236
 20
63.6881
 10
785.774
 20
64.3027
 10
785.491
 20
64.9359
 10
785.388
 20
65.5879
 10
785.734
 20
65.64149999999999
 10
785.9930000000001
 20
65.91630000000001
 10
786.167
 20
66.41249999999999
 10
786.255
 20
67.12990000000001
 10
785.8200000000001
 20
67.36709999999999
 10
785.498
 20
67.69459999999999
 10
785.289
 20
68.1127
 10
785.194
 20
68.6211
 10
785.341
 20
68.6611
 10
785.463
 20
68.75539999999999
 10
785.558
 20
68.9037
 10
785.627
 20
69.10550000000001
 10
785.403
 20
70.04819999999999
 10
785.179
 20
70.8613
 10
784.957
 20
71.5448
 10
784.735
 20
72.0984
 10
784.514
 20
71.5448
 10
784.292
 20
70.8613
 10
784.069
 20
70.04819999999999
 10
783.8440000000001
 20
69.10550000000001
 10
783.914
 20
68.9037
 10
784.009
 20
68.75539999999999
 10
784.131
 20
68.6611
 10
784.278
 20
68.6211
 10
784.183
 20
68.1127
 10
783.974
 20
67.69459999999999
 10
783.652
 20
67.36709999999999
 10
783.216
 20
67.12990000000001
 10
783.3049999999999
 20
66.41249999999999
 10
783.479
 20
65.91630000000001
 10
783.739
 20
65.64149999999999
 10
784.083
 20
65.5879
 10
783.98
 20
64.9359
 10
783.698
 20
64.3027
 10
783.236
 20
63.6881
 10
782.5940000000001
 20
63.092
 10
782.748
 20
62.6002
 10
783.011
 20
62.2666
 10
783.385
 20
62.0908
 10
783.87
 20
62.0725
 10
783.6900000000001
 20
61.4106
 10
783.354
 20
60.9126
 10
782.8630000000001
 20
60.5784
 10
782.218
 20
60.4079
 10
782.253
 20
60.319
 10
782.2910000000001
 20
60.2331
 10
782.33
 20
60.15
 10
782.372
 20
60.0694
 10
782.106
 20
60.2297
 10
781.901
 20
60.4539
 10
781.7569999999999
 20
60.7423
 10
781.674
 20
61.0953
 10
782.004
 20
61.1077
 10
782.259
 20
61.2275
 10
782.439
 20
61.4552
 10
782.543
 20
61.7912
 10
782.105
 20
62.1989
 10
781.79
 20
62.619
 10
781.597
 20
63.0515
 10
781.528
 20
63.496
 10
781.764
 20
63.5333
 10
781.941
 20
63.7213
 10
782.0599999999999
 20
64.06
 10
782.12
 20
64.54940000000001
 10
781.822
 20
64.7116
 10
781.602
 20
64.93510000000001
 10
781.4589999999999
 20
65.2201
 10
781.395
 20
65.5668
 10
781.495
 20
65.5946
 10
781.578
 20
65.6591
 10
781.643
 20
65.76049999999999
 10
781.691
 20
65.8989
 10
781.537
 20
66.54300000000001
 10
781.385
 20
67.0984
 10
781.2329999999999
 20
67.5654
 10
781.082
 20
67.9442
 10
780.931
 20
67.5654
 10
780.779
 20
67.0984
 10
780.626
 20
66.54300000000001
 10
780.473
 20
65.8989
 10
780.52
 20
65.76049999999999
 10
780.585
 20
65.6591
 10
780.668
 20
65.5946
 10
780.769
 20
65.5668
 10
780.703
 20
65.2201
 10
780.561
 20
64.93510000000001
 10
780.341
 20
64.7116
 10
780.043
 20
64.54940000000001
 10
780.104
 20
64.06
 10
780.223
 20
63.7213
 10
780.4
 20
63.5333
 10
780.635
 20
63.496
 10
780.566
 20
63.0515
 10
780.373
 20
62.619
 10
780.057
 20
62.1989
 10
779.6180000000001
 20
61.7912
 10
779.723
 20
61.4552
 10
779.903
 20
61.2275
 10
780.159
 20
61.1077
 10
780.489
 20
61.0953
 10
780.404
 20
60.7355
 10
780.255
 20
60.443
 10
780.042
 20
60.2176
 10
779.766
 20
60.0589
 10
779.29
 20
60.1001
 10
778.825
 20
60.144
 10
778.3680000000001
 20
60.1904
 10
777.92
 20
60.2387
 10
778.194
 20
60.4135
 10
778.453
 20
60.538
 10
778.6609999999999
 20
60.7021
 10
778.783
 20
60.9959
 10
778.3440000000001
 20
61.4036
 10
778.029
 20
61.824
 10
777.836
 20
62.257
 10
777.765
 20
62.7028
 10
778.001
 20
62.7389
 10
778.178
 20
62.9263
 10
778.297
 20
63.2647
 10
778.357
 20
63.7541
 10
778.0599999999999
 20
63.9166
 10
777.84
 20
64.1409
 10
777.697
 20
64.42659999999999
 10
777.6319999999999
 20
64.7736
 10
777.7329999999999
 20
64.8005
 10
777.816
 20
64.8648
 10
777.881
 20
64.9661
 10
777.928
 20
65.1036
 10
777.775
 20
65.74769999999999
 10
777.622
 20
66.3031
 10
777.47
 20
66.7701
 10
777.319
 20
67.1489
 10
777.168
 20
66.7701
 10
777.016
 20
66.3031
 10
776.8630000000001
 20
65.74769999999999
 10
776.71
 20
65.1036
 10
776.758
 20
64.9661
 10
776.823
 20
64.8648
 10
776.905
 20
64.8005
 10
777.006
 20
64.7736
 10
776.941
 20
64.42659999999999
 10
776.8
 20
64.1409
 10
776.58
 20
63.9166
 10
776.282
 20
63.7541
 10
776.342
 20
63.2647
 10
776.461
 20
62.9263
 10
776.639
 20
62.7389
 10
776.875
 20
62.7028
 10
776.804
 20
62.257
 10
776.611
 20
61.824
 10
776.295
 20
61.4036
 10
775.857
 20
60.9959
 10
775.893
 20
60.8349
 10
775.944
 20
60.6948
 10
776.011
 20
60.5756
 10
776.092
 20
60.4777
 10
775.737
 20
60.5312
 10
775.3869999999999
 20
60.5866
 10
775.044
 20
60.6437
 10
774.707
 20
60.7019
 10
774.597
 20
60.8831
 10
774.508
 20
61.0871
 10
774.441
 20
61.3138
 10
774.396
 20
61.5628
 10
774.83
 20
61.5782
 10
775.165
 20
61.7357
 10
775.401
 20
62.0351
 10
775.538
 20
62.4765
 10
774.963
 20
63.0103
 10
774.548
 20
63.5613
 10
774.295
 20
64.1294
 10
774.203
 20
64.7144
 10
774.5119999999999
 20
64.7627
 10
774.745
 20
65.00920000000001
 10
774.901
 20
65.45350000000001
 10
774.979
 20
66.0956
 10
774.5890000000001
 20
66.3086
 10
774.301
 20
66.6022
 10
774.114
 20
66.9766
 10
774.03
 20
67.4324
 10
774.1609999999999
 20
67.468
 10
774.27
 20
67.55240000000001
 10
774.356
 20
67.68519999999999
 10
774.419
 20
67.866
 10
774.217
 20
68.7119
 10
774.016
 20
69.4413
 10
773.817
 20
70.054
 10
773.617
 20
70.5501
 10
773.42
 20
70.054
 10
773.221
 20
69.4413
 10
773.021
 20
68.7119
 10
772.8200000000001
 20
67.866
 10
772.8819999999999
 20
67.68519999999999
 10
772.967
 20
67.55240000000001
 10
773.076
 20
67.468
 10
773.207
 20
67.4324
 10
773.122
 20
66.9766
 10
772.936
 20
66.6022
 10
772.647
 20
66.3086
 10
772.2569999999999
 20
66.0956
 10
772.336
 20
65.45350000000001
 10
772.491
 20
65.00920000000001
 10
772.724
 20
64.7627
 10
773.034
 20
64.7144
 10
772.942
 20
64.1294
 10
772.689
 20
63.5613
 10
772.275
 20
63.0103
 10
771.699
 20
62.4765
 10
771.836
 20
62.0351
 10
772.072
 20
61.7357
 10
772.407
 20
61.5782
 10
772.841
 20
61.5628
 10
772.821
 20
61.4374
 10
772.796
 20
61.3179
 10
772.766
 20
61.204
 10
772.731
 20
61.0953
 10
772.159
 20
61.227
 10
771.607
 20
61.3619
 10
771.074
 20
61.4999
 10
770.559
 20
61.641
 10
770.801
 20
61.8353
 10
771.0119999999999
 20
62.0749
 10
771.194
 20
62.3594
 10
771.346
 20
62.688
 10
770.766
 20
62.8419
 10
770.327
 20
63.142
 10
770.026
 20
63.5884
 10
769.865
 20
64.18129999999999
 10
770.299
 20
64.1968
 10
770.635
 20
64.35429999999999
 10
770.871
 20
64.6537
 10
771.009
 20
65.0951
 10
770.433
 20
65.6289
 10
770.019
 20
66.1799
 10
769.766
 20
66.748
 10
769.675
 20
67.333
 10
769.984
 20
67.3811
 10
770.216
 20
67.627
 10
770.371
 20
68.07129999999999
 10
770.451
 20
68.71420000000001
 10
770.061
 20
68.9272
 10
769.772
 20
69.2208
 10
769.586
 20
69.59520000000001
 10
769.501
 20
70.051
 10
769.6319999999999
 20
70.0866
 10
769.741
 20
70.17100000000001
 10
769.826
 20
70.3038
 10
769.888
 20
70.4846
 10
769.687
 20
71.3305
 10
769.487
 20
72.0598
 10
769.287
 20
72.6726
 10
769.0890000000001
 20
73.1687
 10
768.89
 20
72.6726
 10
768.6900000000001
 20
72.0598
 10
768.49
 20
71.3305
 10
768.289
 20
70.4846
 10
768.351
 20
70.3038
 10
768.437
 20
70.17100000000001
 10
768.546
 20
70.0866
 10
768.678
 20
70.051
 10
768.593
 20
69.59520000000001
 10
768.405
 20
69.2208
 10
768.117
 20
68.9272
 10
767.727
 20
68.71420000000001
 10
767.806
 20
68.07129999999999
 10
767.962
 20
67.627
 10
768.1950000000001
 20
67.3811
 10
768.505
 20
67.333
 10
768.412
 20
66.748
 10
768.159
 20
66.1799
 10
767.745
 20
65.6289
 10
767.17
 20
65.0951
 10
767.307
 20
64.6537
 10
767.543
 20
64.35429999999999
 10
767.878
 20
64.1968
 10
768.312
 20
64.18129999999999
 10
768.181
 20
63.6602
 10
767.947
 20
63.2485
 10
767.609
 20
62.9463
 10
767.1660000000001
 20
62.7536
 10
767.035
 20
62.8028
 10
766.904
 20
62.852
 10
766.775
 20
62.9011
 10
766.648
 20
62.9503
 10
766.761
 20
63.0412
 10
766.852
 20
63.1584
 10
766.922
 20
63.3022
 10
766.9690000000001
 20
63.4728
 10
766.5069999999999
 20
63.8401
 10
766.174
 20
64.2186
 10
765.971
 20
64.6087
 10
765.897
 20
65.01049999999999
 10
766.145
 20
65.0438
 10
766.333
 20
65.2133
 10
766.458
 20
65.5188
 10
766.521
 20
65.9602
 10
766.208
 20
66.1069
 10
765.977
 20
66.30889999999999
 10
765.827
 20
66.56610000000001
 10
765.759
 20
66.87820000000001
 10
765.864
 20
66.90309999999999
 10
765.951
 20
66.9615
 10
766.02
 20
67.0528
 10
766.0700000000001
 20
67.1764
 10
765.909
 20
67.7582
 10
765.748
 20
68.2599
 10
765.588
 20
68.6815
 10
765.427
 20
69.023
 10
765.268
 20
68.6815
 10
765.1079999999999
 20
68.2599
 10
764.948
 20
67.7582
 10
764.7859999999999
 20
67.1764
 10
764.837
 20
67.0528
 10
764.905
 20
66.9615
 10
764.992
 20
66.90309999999999
 10
765.097
 20
66.87820000000001
 10
765.029
 20
66.56610000000001
 10
764.88
 20
66.30889999999999
 10
764.649
 20
66.1069
 10
764.336
 20
65.9602
 10
764.398
 20
65.5188
 10
764.523
 20
65.2133
 10
764.7089999999999
 20
65.0438
 10
764.958
 20
65.01049999999999
 10
764.909
 20
64.6841
 10
764.774
 20
64.3648
 10
764.553
 20
64.0527
 10
764.247
 20
63.7477
 10
763.8200000000001
 20
64.1305
 10
763.5119999999999
 20
64.52370000000001
 10
763.324
 20
64.9277
 10
763.255
 20
65.3426
 10
763.54
 20
65.3798
 10
763.754
 20
65.5737
 10
763.897
 20
65.9238
 10
763.97
 20
66.4298
 10
763.611
 20
66.598
 10
763.345
 20
66.82980000000001
 10
763.173
 20
67.1255
 10
763.0940000000001
 20
67.4853
 10
763.216
 20
67.5129
 10
763.316
 20
67.57940000000001
 10
763.395
 20
67.684
 10
763.452
 20
67.8258
 10
763.266
 20
68.4933
 10
763.082
 20
69.0685
 10
762.898
 20
69.55159999999999
 10
762.716
 20
69.9431
 10
762.533
 20
69.55159999999999
 10
762.349
 20
69.0685
 10
762.165
 20
68.4933
 10
761.98
 20
67.8258
 10
762.037
 20
67.684
 10
762.115
 20
67.57940000000001
 10
762.216
 20
67.5129
 10
762.337
 20
67.4853
 10
762.258
 20
67.1255
 10
762.086
 20
66.82980000000001
 10
761.821
 20
66.598
 10
761.461
 20
66.4298
 10
761.535
 20
65.9238
 10
761.678
 20
65.5737
 10
761.8920000000001
 20
65.3798
 10
762.176
 20
65.3426
 10
762.163
 20
65.1708
 10
762.129
 20
65.0012
 10
762.075
 20
64.8336
 10
762.001
 20
64.6678
 10
761.833
 20
64.71259999999999
 10
761.664
 20
64.7548
 10
761.496
 20
64.79430000000001
 10
761.328
 20
64.83069999999999
 10
761.33
 20
64.8339
 10
761.331
 20
64.83710000000001
 10
761.333
 20
64.8402
 10
761.3339999999999
 20
64.8434
 10
760.801
 20
64.9644
 10
760.395
 20
65.20059999999999
 10
760.1180000000001
 20
65.5522
 10
759.97
 20
66.0194
 10
760.37
 20
66.0325
 10
760.679
 20
66.1572
 10
760.896
 20
66.3933
 10
761.021
 20
66.7407
 10
760.492
 20
67.1627
 10
760.111
 20
67.5976
 10
759.878
 20
68.04559999999999
 10
759.792
 20
68.5069
 10
760.078
 20
68.5441
 10
760.292
 20
68.738
 10
760.436
 20
69.0881
 10
760.51
 20
69.5941
 10
760.15
 20
69.7623
 10
759.885
 20
69.9939
 10
759.712
 20
70.2889
 10
759.634
 20
70.6474
 10
759.755
 20
70.6763
 10
759.855
 20
70.74339999999999
 10
759.933
 20
70.84820000000001
 10
759.991
 20
70.9901
 10
759.806
 20
71.6576
 10
759.622
 20
72.2328
 10
759.438
 20
72.7159
 10
759.255
 20
73.1074
 10
759.072
 20
72.7159
 10
758.888
 20
72.2328
 10
758.703
 20
71.6576
 10
758.5170000000001
 20
70.9901
 10
758.575
 20
70.84820000000001
 10
758.654
 20
70.74339999999999
 10
758.754
 20
70.6763
 10
758.877
 20
70.6474
 10
758.798
 20
70.2889
 10
758.626
 20
69.9939
 10
758.36
 20
69.7623
 10
758.001
 20
69.5941
 10
758.073
 20
69.0881
 10
758.216
 20
68.738
 10
758.431
 20
68.5441
 10
758.716
 20
68.5069
 10
758.631
 20
68.04559999999999
 10
758.398
 20
67.5976
 10
758.0170000000001
 20
67.1627
 10
757.487
 20
66.7407
 10
757.6130000000001
 20
66.3933
 10
757.831
 20
66.1572
 10
758.14
 20
66.0325
 10
758.54
 20
66.0194
 10
758.399
 20
65.5386
 10
758.136
 20
65.1572
 10
757.746
 20
64.8912
 10
757.218
 20
64.7567
 10
757.163
 20
64.744
 10
757.107
 20
64.73099999999999
 10
757.052
 20
64.71769999999999
 10
756.996
 20
64.7038
 10
756.707
 20
64.98390000000001
 10
756.421
 20
65.20140000000001
 10
756.198
 20
65.4926
 10
756.099
 20
65.9941
 10
756.324
 20
66.01819999999999
 10
756.4930000000001
 20
66.14109999999999
 10
756.606
 20
66.3623
 10
756.664
 20
66.6815
 10
756.381
 20
66.78740000000001
 10
756.171
 20
66.9337
 10
756.035
 20
67.12050000000001
 10
755.972
 20
67.34780000000001
 10
756.068
 20
67.3651
 10
756.147
 20
67.4072
 10
756.2089999999999
 20
67.4736
 10
756.254
 20
67.5635
 10
756.1079999999999
 20
67.98480000000001
 10
755.963
 20
68.3477
 10
755.819
 20
68.6528
 10
755.674
 20
68.9003
 10
755.53
 20
68.6528
 10
755.385
 20
68.3477
 10
755.239
 20
67.98480000000001
 10
755.093
 20
67.5635
 10
755.138
 20
67.4736
 10
755.2
 20
67.4072
 10
755.28
 20
67.3651
 10
755.376
 20
67.34780000000001
 10
755.314
 20
67.12050000000001
 10
755.178
 20
66.9337
 10
754.968
 20
66.78740000000001
 10
754.684
 20
66.6815
 10
754.742
 20
66.3623
 10
754.856
 20
66.14109999999999
 10
755.025
 20
66.01819999999999
 10
755.249
 20
65.9941
 10
755.183
 20
65.703
 10
754.999
 20
65.42010000000001
 10
754.698
 20
65.1455
 10
754.28
 20
64.8794
 10
754.38
 20
64.6605
 10
754.551
 20
64.5116
 10
754.795
 20
64.4329
 10
755.11
 20
64.4246
 10
755.098
 20
64.3734
 10
755.0839999999999
 20
64.3241
 10
755.067
 20
64.2765
 10
755.048
 20
64.23
 10
754.456
 20
64.11799999999999
 10
753.893
 20
64.02849999999999
 10
753.357
 20
63.9605
 10
752.846
 20
63.9127
 10
753.068
 20
64.0543
 10
753.264
 20
64.2221
 10
753.4349999999999
 20
64.416
 10
753.58
 20
64.6361
 10
752.9400000000001
 20
64.75190000000001
 10
752.454
 20
64.97880000000001
 10
752.122
 20
65.3167
 10
751.9450000000001
 20
65.76560000000001
 10
752.425
 20
65.7779
 10
752.794
 20
65.8973
 10
753.0549999999999
 20
66.1238
 10
753.206
 20
66.4573
 10
752.571
 20
66.8618
 10
752.1130000000001
 20
67.279
 10
751.833
 20
67.7089
 10
751.732
 20
68.1515
 10
752.073
 20
68.1884
 10
752.331
 20
68.375
 10
752.503
 20
68.711
 10
752.59
 20
69.1964
 10
752.159
 20
69.3583
 10
751.84
 20
69.5809
 10
751.634
 20
69.86450000000001
 10
751.5410000000001
 20
70.20959999999999
 10
751.686
 20
70.2362
 10
751.806
 20
70.2998
 10
751.901
 20
70.4003
 10
751.971
 20
70.53740000000001
 10
751.748
 20
71.1784
 10
751.526
 20
71.7307
 10
751.306
 20
72.19450000000001
 10
751.087
 20
72.5701
 10
750.867
 20
72.19450000000001
 10
750.647
 20
71.7307
 10
750.425
 20
71.1784
 10
750.202
 20
70.53740000000001
 10
750.272
 20
70.4003
 10
750.366
 20
70.2998
 10
750.486
 20
70.2362
 10
750.6319999999999
 20
70.20959999999999
 10
750.539
 20
69.86450000000001
 10
750.332
 20
69.5809
 10
750.014
 20
69.3583
 10
749.583
 20
69.1964
 10
749.669
 20
68.711
 10
749.841
 20
68.375
 10
750.098
 20
68.1884
 10
750.439
 20
68.1515
 10
750.338
 20
67.7089
 10
750.059
 20
67.279
 10
749.601
 20
66.8618
 10
748.965
 20
66.4573
 10
749.116
 20
66.1238
 10
749.377
 20
65.8973
 10
749.748
 20
65.7779
 10
750.228
 20
65.76560000000001
 10
750.05
 20
65.3167
 10
749.7190000000001
 20
64.97880000000001
 10
749.2329999999999
 20
64.75190000000001
 10
748.593
 20
64.6361
 10
748.658
 20
64.5282
 10
748.729
 20
64.4267
 10
748.806
 20
64.33150000000001
 10
748.889
 20
64.2427
 10
748.588
 20
64.3199
 10
748.289
 20
64.4021
 10
747.991
 20
64.48869999999999
 10
747.692
 20
64.57899999999999
 10
747.497
 20
64.67400000000001
 10
747.412
 20
64.74420000000001
 10
747.378
 20
64.85769999999999
 10
747.338
 20
65.08240000000001
 10
747.627
 20
65.0895
 10
747.851
 20
65.1615
 10
748.008
 20
65.29810000000001
 10
748.1
 20
65.4991
 10
747.717
 20
65.7426
 10
747.441
 20
65.99379999999999
 10
747.273
 20
66.2525
 10
747.212
 20
66.51860000000001
 10
747.417
 20
66.5403
 10
747.572
 20
66.6527
 10
747.675
 20
66.855
 10
747.728
 20
67.1468
 10
747.468
 20
67.2444
 10
747.276
 20
67.37869999999999
 10
747.152
 20
67.5498
 10
747.095
 20
67.7581
 10
747.183
 20
67.774
 10
747.255
 20
67.8121
 10
747.313
 20
67.8723
 10
747.355
 20
67.95480000000001
 10
747.221
 20
68.3404
 10
747.087
 20
68.6724
 10
746.954
 20
68.9513
 10
746.822
 20
69.17740000000001
 10
746.6900000000001
 20
68.9513
 10
746.558
 20
68.6724
 10
746.425
 20
68.3404
 10
746.2910000000001
 20
67.95480000000001
 10
746.333
 20
67.8723
 10
746.389
 20
67.8121
 10
746.462
 20
67.774
 10
746.549
 20
67.7581
 10
746.4930000000001
 20
67.5498
 10
746.369
 20
67.37869999999999
 10
746.177
 20
67.2444
 10
745.917
 20
67.1468
 10
745.9690000000001
 20
66.855
 10
746.073
 20
66.6527
 10
746.227
 20
66.5403
 10
746.433
 20
66.51860000000001
 10
746.372
 20
66.2525
 10
746.204
 20
65.99379999999999
 10
745.929
 20
65.7426
 10
745.547
 20
65.4991
 10
745.577
 20
65.4051
 10
745.62
 20
65.32299999999999
 10
745.675
 20
65.25279999999999
 10
745.744
 20
65.19450000000001
 10
745.25
 20
65.3394
 10
744.736
 20
65.48090000000001
 10
744.197
 20
65.6172
 10
743.63
 20
65.7466
 10
743.736
 20
65.8509
 10
743.832
 20
65.9637
 10
743.92
 20
66.0848
 10
744.001
 20
66.214
 10
743.343
 20
66.3327
 10
742.8440000000001
 20
66.5651
 10
742.504
 20
66.9118
 10
742.321
 20
67.37309999999999
 10
742.814
 20
67.3854
 10
743.194
 20
67.5077
 10
743.461
 20
67.73990000000001
 10
743.616
 20
68.0817
 10
742.9640000000001
 20
68.4962
 10
742.495
 20
68.9241
 10
742.208
 20
69.3655
 10
742.103
 20
69.82040000000001
 10
742.455
 20
69.85760000000001
 10
742.7190000000001
 20
70.04859999999999
 10
742.896
 20
70.393
 10
742.985
 20
70.8907
 10
742.542
 20
71.0569
 10
742.215
 20
71.2855
 10
742.003
 20
71.5763
 10
741.907
 20
71.92919999999999
 10
742.056
 20
71.95740000000001
 10
742.1799999999999
 20
72.0231
 10
742.276
 20
72.1264
 10
742.347
 20
72.2677
 10
742.119
 20
72.9237
 10
741.8920000000001
 20
73.4894
 10
741.667
 20
73.9652
 10
741.441
 20
74.3511
 10
741.217
 20
73.9652
 10
740.991
 20
73.4894
 10
740.764
 20
72.9237
 10
740.5359999999999
 20
72.2677
 10
740.606
 20
72.1264
 10
740.703
 20
72.0231
 10
740.826
 20
71.95740000000001
 10
740.976
 20
71.92919999999999
 10
740.88
 20
71.5763
 10
740.668
 20
71.2855
 10
740.341
 20
71.0569
 10
739.897
 20
70.8907
 10
739.9880000000001
 20
70.393
 10
740.164
 20
70.04859999999999
 10
740.428
 20
69.85760000000001
 10
740.779
 20
69.82040000000001
 10
740.675
 20
69.3655
 10
740.388
 20
68.9241
 10
739.918
 20
68.4962
 10
739.2670000000001
 20
68.0817
 10
739.421
 20
67.73990000000001
 10
739.689
 20
67.5077
 10
740.069
 20
67.3854
 10
740.561
 20
67.37309999999999
 10
740.415
 20
66.9722
 10
740.154
 20
66.6545
 10
739.778
 20
66.42010000000001
 10
739.2859999999999
 20
66.26900000000001
 10
738.994
 20
66.2786
 10
738.697
 20
66.2854
 10
738.393
 20
66.2899
 10
738.082
 20
66.2923
 10
738.117
 20
66.3419
 10
738.15
 20
66.3925
 10
738.183
 20
66.4443
 10
738.216
 20
66.4975
 10
737.49
 20
66.62869999999999
 10
736.939
 20
66.88590000000001
 10
736.563
 20
67.2687
 10
736.361
 20
67.7771
 10
736.904
 20
67.7915
 10
737.324
 20
67.9268
 10
737.62
 20
68.1835
 10
737.793
 20
68.56189999999999
 10
737.072
 20
69.01990000000001
 10
736.553
 20
69.4928
 10
736.237
 20
69.9804
 10
736.122
 20
70.4825
 10
736.509
 20
70.52330000000001
 10
736.8
 20
70.73439999999999
 10
736.995
 20
71.11579999999999
 10
737.095
 20
71.667
 10
736.606
 20
71.8494
 10
736.244
 20
72.1014
 10
736.01
 20
72.4228
 10
735.904
 20
72.8134
 10
736.069
 20
72.8439
 10
736.205
 20
72.91630000000001
 10
736.312
 20
73.03019999999999
 10
736.39
 20
73.18559999999999
 10
736.138
 20
73.9111
 10
735.888
 20
74.53619999999999
 10
735.638
 20
75.06140000000001
 10
735.39
 20
75.48699999999999
 10
735.141
 20
75.06140000000001
 10
734.891
 20
74.53619999999999
 10
734.641
 20
73.9111
 10
734.389
 20
73.18559999999999
 10
734.467
 20
73.03019999999999
 10
734.574
 20
72.91630000000001
 10
734.7089999999999
 20
72.8439
 10
734.874
 20
72.8134
 10
734.768
 20
72.4228
 10
734.535
 20
72.1014
 10
734.173
 20
71.8494
 10
733.6849999999999
 20
71.667
 10
733.784
 20
71.11579999999999
 10
733.979
 20
70.73439999999999
 10
734.27
 20
70.52330000000001
 10
734.658
 20
70.4825
 10
734.542
 20
69.9804
 10
734.225
 20
69.4928
 10
733.707
 20
69.01990000000001
 10
732.987
 20
68.56189999999999
 10
733.158
 20
68.1835
 10
733.454
 20
67.9268
 10
733.873
 20
67.7915
 10
734.417
 20
67.7771
 10
734.215
 20
67.2687
 10
733.8390000000001
 20
66.88590000000001
 10
733.289
 20
66.62869999999999
 10
732.564
 20
66.4975
 10
732.628
 20
66.392
 10
732.697
 20
66.2912
 10
732.771
 20
66.1952
 10
732.849
 20
66.104
 10
732.6319999999999
 20
66.0929
 10
732.421
 20
66.08150000000001
 10
732.217
 20
66.0698
 10
732.02
 20
66.0575
 10
731.744
 20
66.1611
 10
731.532
 20
66.3103
 10
731.383
 20
66.5055
 10
731.299
 20
66.7471
 10
731.617
 20
66.75539999999999
 10
731.862
 20
66.83459999999999
 10
732.035
 20
66.9847
 10
732.135
 20
67.206
 10
731.7140000000001
 20
67.47369999999999
 10
731.4109999999999
 20
67.7499
 10
731.225
 20
68.03449999999999
 10
731.157
 20
68.3271
 10
731.384
 20
68.35129999999999
 10
731.554
 20
68.47490000000001
 10
731.668
 20
68.69799999999999
 10
731.726
 20
69.0209
 10
731.441
 20
69.1271
 10
731.23
 20
69.2744
 10
731.093
 20
69.46259999999999
 10
731.03
 20
69.6914
 10
731.127
 20
69.70869999999999
 10
731.207
 20
69.7509
 10
731.269
 20
69.8172
 10
731.316
 20
69.9071
 10
731.168
 20
70.33150000000001
 10
731.021
 20
70.6974
 10
730.875
 20
71.005
 10
730.73
 20
71.25449999999999
 10
730.585
 20
71.005
 10
730.439
 20
70.6974
 10
730.292
 20
70.33150000000001
 10
730.144
 20
69.9071
 10
730.1900000000001
 20
69.8172
 10
730.254
 20
69.7509
 10
730.333
 20
69.70869999999999
 10
730.4299999999999
 20
69.6914
 10
730.367
 20
69.46259999999999
 10
730.23
 20
69.2744
 10
730.019
 20
69.1271
 10
729.734
 20
69.0209
 10
729.792
 20
68.69799999999999
 10
729.9059999999999
 20
68.47490000000001
 10
730.076
 20
68.35129999999999
 10
730.303
 20
68.3271
 10
730.234
 20
68.03449999999999
 10
730.049
 20
67.7499
 10
729.746
 20
67.47369999999999
 10
729.326
 20
67.206
 10
729.425
 20
66.9847
 10
729.598
 20
66.83459999999999
 10
729.843
 20
66.75539999999999
 10
730.1609999999999
 20
66.7471
 10
730.043
 20
66.44929999999999
 10
729.823
 20
66.2252
 10
729.502
 20
66.0749
 10
729.078
 20
65.9983
 10
729.128
 20
65.917
 10
729.183
 20
65.84099999999999
 10
729.2430000000001
 20
65.7702
 10
729.309
 20
65.7043
 10
729.048
 20
65.6271
 10
728.799
 20
65.5406
 10
728.5599999999999
 20
65.4434
 10
728.329
 20
65.33410000000001
 10
728.266
 20
65.444
 10
728.22
 20
65.55459999999999
 10
728.191
 20
65.6661
 10
728.179
 20
65.7783
 10
728.405
 20
65.80249999999999
 10
728.575
 20
65.9259
 10
728.6900000000001
 20
66.14830000000001
 10
728.748
 20
66.47
 10
728.462
 20
66.5774
 10
728.251
 20
66.7251
 10
728.114
 20
66.91289999999999
 10
728.052
 20
67.1405
 10
728.148
 20
67.1591
 10
728.228
 20
67.20180000000001
 10
728.29
 20
67.2684
 10
728.336
 20
67.3583
 10
728.188
 20
67.78270000000001
 10
728.042
 20
68.1486
 10
727.896
 20
68.4562
 10
727.75
 20
68.70569999999999
 10
727.605
 20
68.4562
 10
727.4589999999999
 20
68.1486
 10
727.313
 20
67.78270000000001
 10
727.1660000000001
 20
67.3583
 10
727.211
 20
67.2684
 10
727.273
 20
67.20180000000001
 10
727.353
 20
67.1591
 10
727.449
 20
67.1405
 10
727.388
 20
66.91289999999999
 10
727.251
 20
66.7251
 10
727.04
 20
66.5774
 10
726.753
 20
66.47
 10
726.812
 20
66.14830000000001
 10
726.926
 20
65.9259
 10
727.096
 20
65.80249999999999
 10
727.322
 20
65.7783
 10
727.255
 20
65.48560000000001
 10
727.0700000000001
 20
65.2009
 10
726.7670000000001
 20
64.92400000000001
 10
726.345
 20
64.6551
 10
726.399
 20
64.5103
 10
726.48
 20
64.39279999999999
 10
726.5890000000001
 20
64.30240000000001
 10
726.726
 20
64.2385
 10
726.513
 20
64.0647
 10
726.289
 20
63.8794
 10
726.053
 20
63.6822
 10
725.804
 20
63.4728
 10
725.437
 20
63.7242
 10
725.173
 20
63.9833
 10
725.011
 20
64.25
 10
724.951
 20
64.524
 10
725.178
 20
64.54819999999999
 10
725.348
 20
64.6716
 10
725.462
 20
64.89400000000001
 10
725.52
 20
65.2157
 10
725.235
 20
65.3231
 10
725.024
 20
65.4708
 10
724.8869999999999
 20
65.65860000000001
 10
724.824
 20
65.8862
 10
724.921
 20
65.9045
 10
725.001
 20
65.94670000000001
 10
725.064
 20
66.0132
 10
725.11
 20
66.104
 10
724.962
 20
66.5284
 10
724.8150000000001
 20
66.8943
 10
724.669
 20
67.20189999999999
 10
724.524
 20
67.45140000000001
 10
724.379
 20
67.20189999999999
 10
724.2329999999999
 20
66.8943
 10
724.086
 20
66.5284
 10
723.938
 20
66.104
 10
723.985
 20
66.0132
 10
724.048
 20
65.94670000000001
 10
724.127
 20
65.9045
 10
724.224
 20
65.8862
 10
724.1609999999999
 20
65.65860000000001
 10
724.024
 20
65.4708
 10
723.813
 20
65.3231
 10
723.528
 20
65.2157
 10
723.586
 20
64.89400000000001
 10
723.7
 20
64.6716
 10
723.87
 20
64.54819999999999
 10
724.097
 20
64.524
 10
724.029
 20
64.2302
 10
723.843
 20
63.945
 10
723.54
 20
63.6686
 10
723.12
 20
63.4008
 10
723.2190000000001
 20
63.1804
 10
723.3920000000001
 20
63.0304
 10
723.6369999999999
 20
62.9514
 10
723.955
 20
62.944
 10
723.837
 20
62.6462
 10
723.617
 20
62.4221
 10
723.296
 20
62.2718
 10
722.872
 20
62.1952
 10
723.001
 20
62.0087
 10
723.157
 20
61.852
 10
723.342
 20
61.7246
 10
723.5549999999999
 20
61.6262
 10
722.865
 20
61.186
 10
722.312
 20
61.0009
 10
721.864
 20
61.0328
 10
721.4930000000001
 20
61.2434
 10
721.7619999999999
 20
61.3382
 10
721.9930000000001
 20
61.4732
 10
722.1849999999999
 20
61.6482
 10
722.3390000000001
 20
61.8631
 10
721.915
 20
61.9397
 10
721.593
 20
62.09
 10
721.373
 20
62.3141
 10
721.254
 20
62.6119
 10
721.573
 20
62.6202
 10
721.818
 20
62.6991
 10
721.991
 20
62.8487
 10
722.092
 20
63.0688
 10
721.67
 20
63.3377
 10
721.367
 20
63.6145
 10
721.181
 20
63.8992
 10
721.114
 20
64.1919
 10
721.34
 20
64.2161
 10
721.511
 20
64.3395
 10
721.625
 20
64.56189999999999
 10
721.683
 20
64.8836
 10
721.397
 20
64.991
 10
721.186
 20
65.1387
 10
721.05
 20
65.3265
 10
720.9880000000001
 20
65.55410000000001
 10
721.0839999999999
 20
65.5727
 10
721.163
 20
65.6155
 10
721.226
 20
65.682
 10
721.271
 20
65.77200000000001
 10
721.124
 20
66.1964
 10
720.977
 20
66.5622
 10
720.832
 20
66.8698
 10
720.687
 20
67.1193
 10
720.5410000000001
 20
66.8698
 10
720.395
 20
66.5622
 10
720.248
 20
66.1964
 10
720.101
 20
65.77200000000001
 10
720.146
 20
65.682
 10
720.2089999999999
 20
65.6155
 10
720.288
 20
65.5727
 10
720.385
 20
65.55410000000001
 10
720.323
 20
65.3265
 10
720.187
 20
65.1387
 10
719.975
 20
64.991
 10
719.689
 20
64.8836
 10
719.747
 20
64.56189999999999
 10
719.861
 20
64.3395
 10
720.032
 20
64.2161
 10
720.258
 20
64.1919
 10
720.232
 20
64.0142
 10
720.163
 20
63.8398
 10
720.052
 20
63.6685
 10
719.898
 20
63.5003
 10
719.6900000000001
 20
63.7341
 10
719.462
 20
63.9574
 10
719.21
 20
64.16679999999999
 10
718.934
 20
64.35899999999999
 10
718.9880000000001
 20
64.4273
 10
719.04
 20
64.4987
 10
719.0890000000001
 20
64.5732
 10
719.1369999999999
 20
64.65089999999999
 10
718.504
 20
64.76560000000001
 10
718.023
 20
64.9896
 10
717.6950000000001
 20
65.32340000000001
 10
717.519
 20
65.7677
 10
717.9930000000001
 20
65.7796
 10
718.359
 20
65.89749999999999
 10
718.617
 20
66.12139999999999
 10
718.7670000000001
 20
66.4509
 10
718.138
 20
66.8519
 10
717.686
 20
67.265
 10
717.41
 20
67.6904
 10
717.309
 20
68.1283
 10
717.647
 20
68.1644
 10
717.901
 20
68.3488
 10
718.071
 20
68.6815
 10
718.157
 20
69.1626
 10
717.731
 20
69.3216
 10
717.415
 20
69.5415
 10
717.211
 20
69.822
 10
717.119
 20
70.1631
 10
717.263
 20
70.1896
 10
717.3819999999999
 20
70.2529
 10
717.476
 20
70.3528
 10
717.544
 20
70.4888
 10
717.324
 20
71.12139999999999
 10
717.105
 20
71.66719999999999
 10
716.886
 20
72.1263
 10
716.668
 20
72.4982
 10
716.452
 20
72.1263
 10
716.234
 20
71.66719999999999
 10
716.015
 20
71.12139999999999
 10
715.795
 20
70.4888
 10
715.8630000000001
 20
70.3528
 10
715.957
 20
70.2529
 10
716.075
 20
70.1896
 10
716.22
 20
70.1631
 10
716.127
 20
69.822
 10
715.923
 20
69.5415
 10
715.6079999999999
 20
69.3216
 10
715.181
 20
69.1626
 10
715.268
 20
68.6815
 10
715.438
 20
68.3488
 10
715.692
 20
68.1644
 10
716.03
 20
68.1283
 10
715.9299999999999
 20
67.6904
 10
715.654
 20
67.265
 10
715.201
 20
66.8519
 10
714.572
 20
66.4509
 10
714.722
 20
66.12139999999999
 10
714.98
 20
65.89749999999999
 10
715.346
 20
65.7796
 10
715.8200000000001
 20
65.7677
 10
715.7329999999999
 20
65.3621
 10
715.599
 20
65.07210000000001
 10
715.33
 20
64.8792
 10
714.8390000000001
 20
64.7651
 10
714.4299999999999
 20
64.6807
 10
714.029
 20
64.593
 10
713.636
 20
64.5025
 10
713.25
 20
64.4098
 10
712.898
 20
64.6493
 10
712.645
 20
64.8955
 10
712.491
 20
65.14830000000001
 10
712.434
 20
65.4081
 10
712.647
 20
65.4308
 10
712.808
 20
65.5467
 10
712.915
 20
65.75620000000001
 10
712.9690000000001
 20
66.0596
 10
712.7
 20
66.16079999999999
 10
712.502
 20
66.29940000000001
 10
712.373
 20
66.4757
 10
712.3150000000001
 20
66.68989999999999
 10
712.4059999999999
 20
66.70740000000001
 10
712.48
 20
66.7473
 10
712.539
 20
66.8098
 10
712.582
 20
66.8951
 10
712.444
 20
67.2945
 10
712.306
 20
67.6391
 10
712.169
 20
67.929
 10
712.032
 20
68.16419999999999
 10
711.895
 20
67.929
 10
711.7569999999999
 20
67.6391
 10
711.619
 20
67.2945
 10
711.48
 20
66.8951
 10
711.523
 20
66.8098
 10
711.582
 20
66.7473
 10
711.658
 20
66.70740000000001
 10
711.748
 20
66.68989999999999
 10
711.6900000000001
 20
66.4757
 10
711.561
 20
66.29940000000001
 10
711.362
 20
66.16079999999999
 10
711.093
 20
66.0596
 10
711.147
 20
65.75620000000001
 10
711.255
 20
65.5467
 10
711.415
 20
65.4308
 10
711.628
 20
65.4081
 10
711.564
 20
65.13160000000001
 10
711.39
 20
64.8635
 10
711.105
 20
64.6033
 10
710.71
 20
64.3506
 10
710.785
 20
64.17100000000001
 10
710.908
 20
64.0386
 10
711.081
 20
63.9538
 10
711.302
 20
63.917
 10
710.866
 20
63.8086
 10
710.4400000000001
 20
63.7065
 10
710.022
 20
63.6124
 10
709.612
 20
63.5278
 10
709.4160000000001
 20
63.6515
 10
709.2619999999999
 20
63.8064
 10
709.151
 20
63.9923
 10
709.083
 20
64.2088
 10
709.446
 20
64.2176
 10
709.727
 20
64.3075
 10
709.925
 20
64.4786
 10
710.039
 20
64.7313
 10
709.558
 20
65.0378
 10
709.211
 20
65.35420000000001
 10
708.999
 20
65.6802
 10
708.923
 20
66.01519999999999
 10
709.181
 20
66.04300000000001
 10
709.376
 20
66.18389999999999
 10
709.5069999999999
 20
66.43819999999999
 10
709.574
 20
66.80629999999999
 10
709.247
 20
66.92919999999999
 10
709.005
 20
67.09820000000001
 10
708.848
 20
67.31310000000001
 10
708.777
 20
67.5741
 10
708.8869999999999
 20
67.5943
 10
708.978
 20
67.64230000000001
 10
709.05
 20
67.718
 10
709.102
 20
67.8216
 10
708.934
 20
68.30670000000001
 10
708.7670000000001
 20
68.7247
 10
708.6
 20
69.0762
 10
708.434
 20
69.3614
 10
708.2670000000001
 20
69.0762
 10
708.1
 20
68.7247
 10
707.933
 20
68.30670000000001
 10
707.763
 20
67.8216
 10
707.816
 20
67.718
 10
707.888
 20
67.64230000000001
 10
707.979
 20
67.5943
 10
708.0890000000001
 20
67.5741
 10
708.018
 20
67.31310000000001
 10
707.862
 20
67.09820000000001
 10
707.621
 20
66.92919999999999
 10
707.294
 20
66.80629999999999
 10
707.361
 20
66.43819999999999
 10
707.491
 20
66.18389999999999
 10
707.6849999999999
 20
66.04300000000001
 10
707.943
 20
66.01519999999999
 10
707.866
 20
65.6802
 10
707.655
 20
65.35420000000001
 10
707.309
 20
65.0378
 10
706.829
 20
64.7313
 10
706.943
 20
64.4786
 10
707.14
 20
64.3075
 10
707.42
 20
64.2176
 10
707.785
 20
64.2088
 10
707.665
 20
63.8936
 10
707.448
 20
63.6491
 10
707.133
 20
63.4757
 10
706.721
 20
63.3734
 10
706.331
 20
63.4443
 10
705.946
 20
63.5444
 10
705.5650000000001
 20
63.6759
 10
705.187
 20
63.8408
 10
705.1660000000001
 20
63.8848
 10
705.149
 20
63.9307
 10
705.134
 20
63.9782
 10
705.122
 20
64.0269
 10
705.485
 20
64.0348
 10
705.765
 20
64.1153
 10
705.963
 20
64.2679
 10
706.078
 20
64.4923
 10
705.596
 20
64.7647
 10
705.25
 20
65.0459
 10
705.038
 20
65.3359
 10
704.961
 20
65.6345
 10
705.2190000000001
 20
65.65819999999999
 10
705.414
 20
65.7833
 10
705.544
 20
66.00960000000001
 10
705.61
 20
66.33669999999999
 10
705.284
 20
66.44580000000001
 10
705.043
 20
66.5956
 10
704.886
 20
66.78619999999999
 10
704.8150000000001
 20
67.01779999999999
 10
704.926
 20
67.0365
 10
705.0170000000001
 20
67.0797
 10
705.088
 20
67.14749999999999
 10
705.141
 20
67.23990000000001
 10
704.973
 20
67.67059999999999
 10
704.8049999999999
 20
68.0424
 10
704.638
 20
68.355
 10
704.472
 20
68.6084
 10
704.306
 20
68.355
 10
704.139
 20
68.0424
 10
703.971
 20
67.67059999999999
 10
703.802
 20
67.23990000000001
 10
703.854
 20
67.14749999999999
 10
703.926
 20
67.0797
 10
704.0170000000001
 20
67.0365
 10
704.127
 20
67.01779999999999
 10
704.056
 20
66.78619999999999
 10
703.9
 20
66.5956
 10
703.659
 20
66.44580000000001
 10
703.332
 20
66.33669999999999
 10
703.398
 20
66.00960000000001
 10
703.528
 20
65.7833
 10
703.723
 20
65.65819999999999
 10
703.981
 20
65.6345
 10
703.954
 20
65.4603
 10
703.881
 20
65.2897
 10
703.763
 20
65.1223
 10
703.599
 20
64.9576
 10
703.167
 20
65.39360000000001
 10
702.7329999999999
 20
65.8917
 10
702.298
 20
66.45529999999999
 10
701.86
 20
67.08759999999999
 10
701.4690000000001
 20
67.8883
 10
701.463
 20
68.5103
 10
701.821
 20
68.95350000000001
 10
702.526
 20
69.2176
 10
709.568
 20
71.526
 10
714.659
 20
74.6769
 10
718.198
 20
77.9006
 10
720.5839999999999
 20
80.428
 10
721.526
 20
81.2321
 10
722.254
 20
81.4684
 10
723.004
 20
81.2285
 10
724.014
 20
80.6036
 10
725.597
 20
79.3124
 10
726.566
 20
77.8158
 10
726.818
 20
76.0669
 10
726.248
 20
74.01900000000001
 10
725.271
 20
71.7615
 10
724.95
 20
70.4029
 10
725.646
 20
70.3257
 10
727.718
 20
71.9123
 10
729.234
 20
73.7732
 10
729.889
 20
75.4365
 10
730.677
 20
77.0667
 10
732.591
 20
78.8289
 10
734.107
 20
80.41240000000001
 10
736.504
 20
83.1159
 10
738.9400000000001
 20
85.4632
 10
740.572
 20
85.9782
 10
740.1369999999999
 20
84.3146
 10
738.162
 20
81.6101
 10
735.989
 20
79.0861
 10
734.96
 20
77.96380000000001
 10
735.205
 20
77.63209999999999
 10
736.277
 20
77.78830000000001
 10
737.987
 20
79.0215
 10
740.145
 20
81.9213
 10
741.022
 20
83.2092
 10
741.996
 20
84.45740000000001
 10
742.89
 20
85.6596
 10
743.527
 20
86.8095
 10
744.697
 20
89.20480000000001
 10
745.7670000000001
 20
90.32989999999999
 10
747.151
 20
91.2786
  0
LWPOLYLINE
  5
54
100
AcDbEntity
  8
0
  6
ByLayer
 62
  256
370
   -1
100
AcDbPolyline
 90
    6
 70
    1
 43
0
 10
278.062
 20
149.585
 10
252.404
 20
105.135
 10
241.69
 20
105.135
 10
267.355
 20
149.585
 10
241.69
 20
194.035
 10
252.404
 20
194.035
  0
LWPOLYLINE
  5
55
100
AcDbEntity
  8
0
  6
ByLayer
 62
  256
370
   -1
100
AcDbPolyline
 90
    6
 70
    1
 43
0
 10
724.746
 20
100.635
 10
708.321
 20
72.18000000000001
 10
701.463
 20
72.18000000000001
 10
717.891
 20
100.635
 10
701.463
 20
129.09
 10
708.321
 20
129.09
  0
LWPOLYLINE
  5
56
100
AcDbEntity
  8
0
  6
ByLayer
 62
  256
370
   -1
100
AcDbPolyline
 90
  296
 70
    1
 43
0
 10
754.4349999999999
 20
160.335
 10
755.2190000000001
 20
159.611
 10
756.021
 20
158.889
 10
756.8049999999999
 20
158.151
 10
757.533
 20
157.378
 10
757.808
 20
157.044
 10
758.064
 20
156.701
 10
758.304
 20
156.346
 10
758.532
 20
155.98
 10
758.699
 20
155.691
 10
758.8630000000001
 20
155.4
 10
759.028
 20
155.11
 10
759.198
 20
154.825
 10
759.442
 20
154.453
 10
759.696
 20
154.208
 10
760.01
 20
154.131
 10
760.4349999999999
 20
154.264
 10
761.356
 20
154.892
 10
762.359
 20
155.799
 10
763.317
 20
156.782
 10
764.103
 20
157.642
 10
764.482
 20
158.07
 10
764.861
 20
158.5
 10
765.242
 20
158.927
 10
765.63
 20
159.347
 10
765.928
 20
159.651
 10
766.251
 20
159.949
 10
766.595
 20
160.219
 10
766.958
 20
160.438
 10
767.846
 20
160.649
 10
768.662
 20
160.452
 10
769.41
 20
159.984
 10
770.0890000000001
 20
159.383
 10
771.085
 20
158.371
 10
772.054
 20
157.331
 10
773.042
 20
156.308
 10
774.091
 20
155.347
 10
774.567
 20
154.97
 10
775.057
 20
154.62
 10
775.561
 20
154.289
 10
776.079
 20
153.974
 10
776.542
 20
153.706
 10
777.006
 20
153.439
 10
777.465
 20
153.164
 10
777.915
 20
152.875
 10
778.306
 20
152.594
 10
778.6849999999999
 20
152.3
 10
779.057
 20
151.999
 10
779.4299999999999
 20
151.694
 10
779.718
 20
151.463
 10
780.019
 20
151.236
 10
780.333
 20
151.028
 10
780.659
 20
150.852
 10
781.294
 20
150.634
 10
781.949
 20
150.515
 10
782.611
 20
150.424
 10
783.264
 20
150.294
 10
783.923
 20
150.038
 10
784.481
 20
149.672
 10
784.972
 20
149.214
 10
785.432
 20
148.682
 10
785.925
 20
148.051
 10
786.4160000000001
 20
147.408
 10
786.922
 20
146.778
 10
787.4589999999999
 20
146.188
 10
787.986
 20
145.712
 10
788.535
 20
145.268
 10
789.08
 20
144.815
 10
789.599
 20
144.312
 10
790.213
 20
143.57
 10
790.7859999999999
 20
142.758
 10
791.324
 20
141.918
 10
791.831
 20
141.095
 10
791.9109999999999
 20
140.875
 10
791.901
 20
140.649
 10
791.807
 20
140.442
 10
791.636
 20
140.283
 10
791.417
 20
140.202
 10
791.191
 20
140.211
 10
790.985
 20
140.304
 10
790.826
 20
140.475
 10
790.351
 20
141.249
 10
789.8440000000001
 20
142.047
 10
789.3049999999999
 20
142.818
 10
788.732
 20
143.515
 10
788.229
 20
144
 10
787.691
 20
144.444
 10
787.146
 20
144.883
 10
786.625
 20
145.355
 10
786.064
 20
145.968
 10
785.538
 20
146.619
 10
785.03
 20
147.284
 10
784.5170000000001
 20
147.94
 10
784.186
 20
148.33
 10
783.833
 20
148.679
 10
783.432
 20
148.961
 10
782.958
 20
149.154
 10
782.659
 20
149.221
 10
782.35
 20
149.271
 10
782.039
 20
149.312
 10
781.735
 20
149.353
 10
781.329
 20
149.421
 10
780.9299999999999
 20
149.511
 10
780.54
 20
149.629
 10
780.159
 20
149.784
 10
779.401
 20
150.227
 10
778.677
 20
150.777
 10
777.966
 20
151.36
 10
777.251
 20
151.897
 10
776.819
 20
152.177
 10
776.374
 20
152.442
 10
775.925
 20
152.7
 10
775.478
 20
152.959
 10
774.92
 20
153.3
 10
774.377
 20
153.656
 10
773.849
 20
154.035
 10
773.336
 20
154.442
 10
772.2670000000001
 20
155.419
 10
771.264
 20
156.454
 10
770.2809999999999
 20
157.506
 10
769.27
 20
158.533
 10
768.972
 20
158.811
 10
768.5839999999999
 20
159.128
 10
768.163
 20
159.382
 10
767.769
 20
159.47
 10
767.6950000000001
 20
159.459
 10
767.624
 20
159.44
 10
767.5549999999999
 20
159.414
 10
767.487
 20
159.383
 10
767.22
 20
159.216
 10
766.955
 20
158.999
 10
766.707
 20
158.762
 10
766.487
 20
158.535
 10
766.104
 20
158.121
 10
765.728
 20
157.7
 10
765.354
 20
157.275
 10
764.979
 20
156.853
 10
764.11
 20
155.904
 10
763.083
 20
154.858
 10
762.001
 20
153.899
 10
760.968
 20
153.211
 10
760.092
 20
152.943
 10
759.355
 20
153.06
 10
758.73
 20
153.502
 10
758.193
 20
154.207
 10
757.824
 20
154.832
 10
757.473
 20
155.435
 10
757.095
 20
156.023
 10
756.643
 20
156.606
 10
755.934
 20
157.355
 10
755.167
 20
158.075
 10
754.3819999999999
 20
158.78
 10
753.6180000000001
 20
159.484
 10
752.8579999999999
 20
160.252
 10
752.145
 20
161.046
 10
751.472
 20
161.875
 10
750.83
 20
162.746
 10
750.329
 20
163.493
 10
749.731
 20
164.371
 10
749.093
 20
165.2
 10
748.474
 20
165.798
 10
748.38
 20
165.86
 10
748.28
 20
165.914
 10
748.175
 20
165.955
 10
748.066
 20
165.98
 10
747.595
 20
165.898
 10
747.093
 20
165.609
 10
746.63
 20
165.238
 10
746.276
 20
164.91
 10
745.688
 20
164.318
 10
745.116
 20
163.701
 10
744.558
 20
163.069
 10
744.013
 20
162.437
 10
743.479
 20
161.811
 10
742.948
 20
161.183
 10
742.4160000000001
 20
160.556
 10
741.879
 20
159.933
 10
741.152
 20
159.122
 10
740.429
 20
158.426
 10
739.622
 20
157.838
 10
738.647
 20
157.348
 10
738.13
 20
157.148
 10
737.6079999999999
 20
156.96
 10
737.085
 20
156.773
 10
736.566
 20
156.576
 10
735.9400000000001
 20
156.311
 10
735.3339999999999
 20
156.015
 10
734.747
 20
155.685
 10
734.178
 20
155.313
 10
732.908
 20
154.298
 10
731.7190000000001
 20
153.175
 10
730.5599999999999
 20
152.018
 10
729.378
 20
150.901
 10
728.385
 20
150.119
 10
727.381
 20
149.606
 10
726.2910000000001
 20
149.417
 10
725.042
 20
149.609
 10
723.823
 20
150.072
 10
722.65
 20
150.659
 10
721.491
 20
151.276
 10
720.317
 20
151.83
 10
720.078
 20
151.922
 10
719.828
 20
151.999
 10
719.572
 20
152.049
 10
719.316
 20
152.058
 10
718.845
 20
151.941
 10
718.353
 20
151.698
 10
717.884
 20
151.399
 10
717.485
 20
151.117
 10
715.9930000000001
 20
150.02
 10
714.5170000000001
 20
148.903
 10
713.03
 20
147.798
 10
711.5069999999999
 20
146.743
 10
710.547
 20
146.146
 10
709.578
 20
145.589
 10
708.603
 20
145.045
 10
707.628
 20
144.486
 10
707.399
 20
144.348
 10
707.172
 20
144.207
 10
706.948
 20
144.063
 10
706.727
 20
143.915
 10
705.604
 20
143.074
 10
704.521
 20
142.148
 10
703.475
 20
141.178
 10
702.46
 20
140.207
 10
702.263
 20
140.082
 10
702.04
 20
140.044
 10
701.819
 20
140.092
 10
701.627
 20
140.226
 10
701.501
 20
140.424
 10
701.463
 20
140.647
 10
701.51
 20
140.867
 10
701.644
 20
141.059
 10
702.6950000000001
 20
142.064
 10
703.777
 20
143.064
 10
704.896
 20
144.018
 10
706.058
 20
144.888
 10
706.296
 20
145.047
 10
706.537
 20
145.202
 10
706.7809999999999
 20
145.353
 10
707.027
 20
145.501
 10
707.99
 20
146.052
 10
708.954
 20
146.589
 10
709.912
 20
147.139
 10
710.86
 20
147.728
 10
712.373
 20
148.777
 10
713.85
 20
149.875
 10
715.317
 20
150.987
 10
716.799
 20
152.077
 10
717.776
 20
152.73
 10
718.679
 20
153.135
 10
719.633
 20
153.222
 10
720.765
 20
152.921
 10
721.908
 20
152.38
 10
723.054
 20
151.769
 10
724.208
 20
151.188
 10
725.376
 20
150.74
 10
726.318
 20
150.602
 10
727.1180000000001
 20
150.765
 10
727.852
 20
151.177
 10
728.596
 20
151.783
 10
729.804
 20
152.924
 10
730.9829999999999
 20
154.098
 10
732.194
 20
155.238
 10
733.499
 20
156.278
 10
734.126
 20
156.687
 10
734.773
 20
157.052
 10
735.4400000000001
 20
157.378
 10
736.128
 20
157.672
 10
736.645
 20
157.868
 10
737.167
 20
158.054
 10
737.688
 20
158.241
 10
738.203
 20
158.44
 10
739.044
 20
158.868
 10
739.7380000000001
 20
159.388
 10
740.362
 20
160
 10
740.99
 20
160.707
 10
741.525
 20
161.328
 10
742.056
 20
161.954
 10
742.585
 20
162.58
 10
743.116
 20
163.205
 10
743.6799999999999
 20
163.859
 10
744.258
 20
164.511
 10
744.85
 20
165.149
 10
745.46
 20
165.76
 10
746.278
 20
166.473
 10
747.176
 20
167.001
 10
748.1420000000001
 20
167.158
 10
749.159
 20
166.759
 10
749.886
 20
166.083
 10
750.582
 20
165.205
 10
751.226
 20
164.269
 10
751.797
 20
163.423
 10
752.404
 20
162.597
 10
753.04
 20
161.813
 10
753.7140000000001
 20
161.061
  0
LWPOLYLINE
  5
57
100
AcDbEntity
  8
0
  6
ByLayer
 62
  256
370
   -1
100
AcDbPolyline
 90
   24
 70
    1
 43
0
 10
453.345
 20
110.266
 10
456.028
 20
112.358
 10
459.192
 20
113.255
 10
462.464
 20
112.923
 10
465.469
 20
111.329
 10
463.284
 20
111.603
 10
461.176
 20
111.186
 10
459.299
 20
110.136
 10
457.812
 20
108.512
 10
456.916
 20
106.501
 10
456.701
 20
104.362
 10
457.159
 20
102.262
 10
458.279
 20
100.367
 10
459.943
 20
98.9239
 10
461.928
 20
98.0966
 10
464.07
 20
97.9241
 10
466.209
 20
98.44589999999999
 10
463.406
 20
96.5177
 10
460.194
 20
95.813
 10
456.948
 20
96.34180000000001
 10
454.045
 20
98.1138
 10
452.033
 20
100.858
 10
451.232
 20
104.048
 10
451.662
 20
107.308
  0
LWPOLYLINE
  5
58
100
AcDbEntity
  8
0
  6
ByLayer
 62
  256
370
   -1
100
AcDbPolyline
 90
   32
 70
    1
 43
0
 10
231.792
 20
100.326
 10
232.124
 20
100.225
 10
232.853
 20
100.001
 10
233.582
 20
99.77670000000001
 10
233.914
 20
99.67489999999999
 10
233.582
 20
99.5731
 10
232.853
 20
99.3492
 10
232.124
 20
99.12520000000001
 10
231.792
 20
99.0234
 10
231.691
 20
98.69159999999999
 10
231.466
 20
97.9616
 10
231.243
 20
97.2316
 10
231.141
 20
96.8998
 10
231.039
 20
97.2316
 10
230.814
 20
97.9616
 10
230.589
 20
98.69159999999999
 10
230.487
 20
99.0234
 10
230.156
 20
99.12520000000001
 10
229.426
 20
99.3492
 10
228.697
 20
99.5731
 10
228.366
 20
99.67489999999999
 10
228.697
 20
99.77670000000001
 10
229.426
 20
100.001
 10
230.156
 20
100.225
 10
230.487
 20
100.326
 10
230.589
 20
100.658
 10
230.814
 20
101.388
 10
231.039
 20
102.118
 10
231.141
 20
102.45
 10
231.243
 20
102.118
 10
231.466
 20
101.388
 10
231.691
 20
100.658
  0
LWPOLYLINE
  5
59
100
AcDbEntity
  8
0
  6
ByLayer
 62
  256
370
   -1
100
AcDbPolyline
 90
   32
 70
    1
 43
0
 10
462.761
 20
82.91119999999999
 10
462.674
 20
82.59820000000001
 10
462.483
 20
81.9097
 10
462.292
 20
81.22110000000001
 10
462.205
 20
80.9081
 10
462.118
 20
81.22110000000001
 10
461.927
 20
81.9097
 10
461.736
 20
82.59820000000001
 10
461.649
 20
82.91119999999999
 10
461.365
 20
83.00700000000001
 10
460.742
 20
83.2179
 10
460.119
 20
83.4288
 10
459.836
 20
83.52460000000001
 10
460.119
 20
83.6208
 10
460.742
 20
83.83240000000001
 10
461.365
 20
84.04389999999999
 10
461.649
 20
84.1401
 10
461.736
 20
84.4528
 10
461.927
 20
85.14060000000001
 10
462.118
 20
85.8284
 10
462.205
 20
86.14109999999999
 10
462.292
 20
85.8284
 10
462.483
 20
85.14060000000001
 10
462.674
 20
84.4528
 10
462.761
 20
84.1401
 10
463.044
 20
84.04389999999999
 10
463.667
 20
83.83240000000001
 10
464.291
 20
83.6208
 10
464.574
 20
83.52460000000001
 10
464.291
 20
83.4288
 10
463.667
 20
83.2179
 10
463.044
 20
83.00700000000001
  0
LWPOLYLINE
  5
5A
100
AcDbEntity
  8
0
  6
ByLayer
 62
  256
370
   -1
100
AcDbPolyline
 90
   32
 70
    1
 43
0
 10
470.946
 20
67.71639999999999
 10
470.872
 20
67.4487
 10
470.707
 20
66.85980000000001
 10
470.543
 20
66.27079999999999
 10
470.468
 20
66.0031
 10
470.394
 20
66.27079999999999
 10
470.23
 20
66.85980000000001
 10
470.067
 20
67.4487
 10
469.992
 20
67.71639999999999
 10
469.75
 20
67.7987
 10
469.216
 20
67.9798
 10
468.682
 20
68.16079999999999
 10
468.44
 20
68.2431
 10
468.682
 20
68.3254
 10
469.216
 20
68.5065
 10
469.75
 20
68.6875
 10
469.992
 20
68.7698
 10
470.067
 20
69.0378
 10
470.23
 20
69.6275
 10
470.394
 20
70.21720000000001
 10
470.468
 20
70.48520000000001
 10
470.543
 20
70.21720000000001
 10
470.707
 20
69.6275
 10
470.872
 20
69.0378
 10
470.946
 20
68.7698
 10
471.189
 20
68.6875
 10
471.722
 20
68.5065
 10
472.256
 20
68.3254
 10
472.499
 20
68.2431
 10
472.256
 20
68.16079999999999
 10
471.722
 20
67.9798
 10
471.189
 20
67.7987
  0
LWPOLYLINE
  5
5B
100
AcDbEntity
  8
0
  6
ByLayer
 62
  256
370
   -1
100
AcDbPolyline
 90
   32
 70
    1
 43
0
 10
413.98
 20
107.902
 10
414.223
 20
107.819
 10
414.756
 20
107.638
 10
415.29
 20
107.457
 10
415.533
 20
107.375
 10
415.29
 20
107.293
 10
414.756
 20
107.112
 10
414.223
 20
106.931
 10
413.98
 20
106.848
 10
413.905
 20
106.581
 10
413.741
 20
105.992
 10
413.577
 20
105.403
 10
413.502
 20
105.135
 10
413.428
 20
105.403
 10
413.264
 20
105.992
 10
413.1
 20
106.581
 10
413.026
 20
106.848
 10
412.784
 20
106.931
 10
412.25
 20
107.112
 10
411.716
 20
107.293
 10
411.474
 20
107.375
 10
411.716
 20
107.457
 10
412.25
 20
107.638
 10
412.784
 20
107.819
 10
413.026
 20
107.902
 10
413.1
 20
108.17
 10
413.264
 20
108.759
 10
413.428
 20
109.349
 10
413.502
 20
109.617
 10
413.577
 20
109.349
 10
413.741
 20
108.759
 10
413.905
 20
108.17
  0
LWPOLYLINE
  5
5C
100
AcDbEntity
  8
0
  6
ByLayer
 62
  256
370
   -1
100
AcDbPolyline
 90
   32
 70
    1
 43
0
 10
704.024
 20
62.1741
 10
704.272
 20
62.0981
 10
704.817
 20
61.9309
 10
705.3630000000001
 20
61.7636
 10
705.611
 20
61.6876
 10
705.3630000000001
 20
61.6113
 10
704.817
 20
61.4433
 10
704.272
 20
61.2753
 10
704.024
 20
61.199
 10
703.948
 20
60.9511
 10
703.7809999999999
 20
60.4058
 10
703.614
 20
59.8605
 10
703.538
 20
59.6126
 10
703.461
 20
59.8605
 10
703.293
 20
60.4058
 10
703.125
 20
60.9511
 10
703.049
 20
61.199
 10
702.801
 20
61.2753
 10
702.256
 20
61.4433
 10
701.71
 20
61.6113
 10
701.463
 20
61.6876
 10
701.71
 20
61.7636
 10
702.256
 20
61.9309
 10
702.801
 20
62.0981
 10
703.049
 20
62.1741
 10
703.125
 20
62.422
 10
703.293
 20
62.9673
 10
703.461
 20
63.5126
 10
703.538
 20
63.7605
 10
703.614
 20
63.5126
 10
703.7809999999999
 20
62.9673
 10
703.948
 20
62.422
  0
LWPOLYLINE
  5
5D
100
AcDbEntity
  8
0
  6
ByLayer
 62
  256
370
   -1
100
AcDbPolyline
 90
   32
 70
    1
 43
0
 10
703.535
 20
103.976
 10
703.611
 20
103.728
 10
703.779
 20
103.183
 10
703.946
 20
102.638
 10
704.022
 20
102.39
 10
704.27
 20
102.314
 10
704.8150000000001
 20
102.147
 10
705.361
 20
101.979
 10
705.6079999999999
 20
101.903
 10
705.361
 20
101.827
 10
704.8150000000001
 20
101.659
 10
704.27
 20
101.491
 10
704.022
 20
101.415
 10
703.946
 20
101.167
 10
703.779
 20
100.622
 10
703.611
 20
100.076
 10
703.535
 20
99.8284
 10
703.4589999999999
 20
100.076
 10
703.292
 20
100.622
 10
703.125
 20
101.167
 10
703.049
 20
101.415
 10
702.801
 20
101.491
 10
702.256
 20
101.659
 10
701.71
 20
101.827
 10
701.463
 20
101.903
 10
701.71
 20
101.979
 10
702.256
 20
102.147
 10
702.801
 20
102.314
 10
703.049
 20
102.39
 10
703.125
 20
102.638
 10
703.292
 20
103.183
 10
703.4589999999999
 20
103.728
  0
LWPOLYLINE
  5
5E
100
AcDbEntity
  8
0
  6
ByLayer
 62
  256
370
   -1
100
AcDbPolyline
 90
   32
 70
    1
 43
0
 10
702.292
 20
147.18
 10
702.3680000000001
 20
146.933
 10
702.5359999999999
 20
146.387
 10
702.704
 20
145.842
 10
702.78
 20
145.594
 10
703.028
 20
145.518
 10
703.573
 20
145.351
 10
704.119
 20
145.184
 10
704.367
 20
145.108
 10
704.119
 20
145.032
 10
703.573
 20
144.864
 10
703.028
 20
144.697
 10
702.78
 20
144.621
 10
702.704
 20
144.373
 10
702.5359999999999
 20
143.828
 10
702.3680000000001
 20
143.282
 10
702.292
 20
143.035
 10
702.216
 20
143.282
 10
702.048
 20
143.828
 10
701.881
 20
144.373
 10
701.8049999999999
 20
144.621
 10
701.557
 20
144.697
 10
701.0119999999999
 20
144.864
 10
700.467
 20
145.032
 10
700.2190000000001
 20
145.108
 10
700.467
 20
145.184
 10
701.0119999999999
 20
145.351
 10
701.557
 20
145.518
 10
701.8049999999999
 20
145.594
 10
701.881
 20
145.842
 10
702.048
 20
146.387
 10
702.216
 20
146.933
  0
LWPOLYLINE
  5
5F
100
AcDbEntity
  8
0
  6
ByLayer
 62
  256
370
   -1
100
AcDbPolyline
 90
   32
 70
    1
 43
0
 10
449.529
 20
104.098
 10
449.464
 20
103.862
 10
449.319
 20
103.343
 10
449.174
 20
102.824
 10
449.108
 20
102.588
 10
449.043
 20
102.824
 10
448.898
 20
103.343
 10
448.753
 20
103.862
 10
448.688
 20
104.098
 10
448.474
 20
104.171
 10
448.004
 20
104.33
 10
447.535
 20
104.489
 10
447.321
 20
104.561
 10
447.535
 20
104.634
 10
448.004
 20
104.794
 10
448.474
 20
104.954
 10
448.688
 20
105.027
 10
448.753
 20
105.263
 10
448.898
 20
105.782
 10
449.043
 20
106.301
 10
449.108
 20
106.537
 10
449.174
 20
106.301
 10
449.319
 20
105.782
 10
449.464
 20
105.263
 10
449.529
 20
105.027
 10
449.743
 20
104.954
 10
450.214
 20
104.794
 10
450.684
 20
104.634
 10
450.898
 20
104.561
 10
450.684
 20
104.489
 10
450.214
 20
104.33
 10
449.743
 20
104.171
  0
LWPOLYLINE
  5
60
100
AcDbEntity
  8
0
  6
ByLayer
 62
  256
370
   -1
100
AcDbPolyline
 90
   32
 70
    1
 43
0
 10
344.513
 20
106.647
 10
344.447
 20
106.411
 10
344.303
 20
105.891
 10
344.158
 20
105.371
 10
344.092
 20
105.135
 10
344.026
 20
105.371
 10
343.882
 20
105.891
 10
343.737
 20
106.411
 10
343.671
 20
106.647
 10
343.457
 20
106.72
 10
342.987
 20
106.879
 10
342.517
 20
107.038
 10
342.303
 20
107.111
 10
342.517
 20
107.183
 10
342.987
 20
107.342
 10
343.457
 20
107.501
 10
343.671
 20
107.574
 10
343.737
 20
107.81
 10
343.882
 20
108.33
 10
344.026
 20
108.85
 10
344.092
 20
109.086
 10
344.158
 20
108.85
 10
344.303
 20
108.33
 10
344.447
 20
107.81
 10
344.513
 20
107.574
 10
344.726
 20
107.501
 10
345.196
 20
107.342
 10
345.666
 20
107.183
 10
345.879
 20
107.111
 10
345.666
 20
107.038
 10
345.196
 20
106.879
 10
344.726
 20
106.72
  0
LWPOLYLINE
  5
61
100
AcDbEntity
  8
0
  6
ByLayer
 62
  256
370
   -1
100
AcDbPolyline
 90
   16
 70
    1
 43
0
 10
0
 20
0.9370000000000001
 10
0.0735
 20
1.3024
 10
0.2742
 20
1.6009
 10
0.572
 20
1.8023
 10
0.9371
 20
1.8762
 10
1.3024
 20
1.8023
 10
1.6009
 20
1.6009
 10
1.8023
 20
1.3024
 10
1.8762
 20
0.9370000000000001
 10
1.8023
 20
0.572
 10
1.6009
 20
0.2742
 10
1.3024
 20
0.0735
 10
0.9371
 20
0
 10
0.572
 20
0.0735
 10
0.2742
 20
0.2742
 10
0.0735
 20
0.572
  0
LWPOLYLINE
  5
62
100
AcDbEntity
  8
0
  6
ByLayer
 62
  256
370
   -1
100
AcDbPolyline
 90
   16
 70
    1
 43
0
 10
236.062
 20
95.4224
 10
235.988
 20
95.0574
 10
235.786
 20
94.75960000000001
 10
235.488
 20
94.55889999999999
 10
235.122
 20
94.4854
 10
234.757
 20
94.55889999999999
 10
234.46
 20
94.75960000000001
 10
234.259
 20
95.0574
 10
234.185
 20
95.4224
 10
234.259
 20
95.7878
 10
234.46
 20
96.08629999999999
 10
234.757
 20
96.2877
 10
235.122
 20
96.3616
 10
235.488
 20
96.2877
 10
235.786
 20
96.08629999999999
 10
235.988
 20
95.7878
  0
LWPOLYLINE
  5
63
100
AcDbEntity
  8
0
  6
ByLayer
 62
  256
370
   -1
100
AcDbPolyline
 90
   16
 70
    1
 43
0
 10
231.568
 20
97.1888
 10
231.642
 20
97.55419999999999
 10
231.843
 20
97.8527
 10
232.142
 20
98.054
 10
232.507
 20
98.1279
 10
232.872
 20
98.054
 10
233.17
 20
97.8527
 10
233.37
 20
97.55419999999999
 10
233.444
 20
97.1888
 10
233.37
 20
96.8237
 10
233.17
 20
96.52589999999999
 10
232.872
 20
96.3252
 10
232.507
 20
96.2517
 10
232.142
 20
96.3252
 10
231.843
 20
96.52589999999999
 10
231.642
 20
96.8237
  0
LWPOLYLINE
  5
64
100
AcDbEntity
  8
0
  6
ByLayer
 62
  256
370
   -1
100
AcDbPolyline
 90
   16
 70
    1
 43
0
 10
230.242
 20
97.839
 10
230.168
 20
97.4736
 10
229.966
 20
97.175
 10
229.668
 20
96.97369999999999
 10
229.303
 20
96.8998
 10
228.938
 20
96.97369999999999
 10
228.64
 20
97.175
 10
228.439
 20
97.4736
 10
228.366
 20
97.839
 10
228.439
 20
98.20399999999999
 10
228.64
 20
98.5018
 10
228.938
 20
98.7025
 10
229.303
 20
98.776
 10
229.668
 20
98.7025
 10
229.966
 20
98.5018
 10
230.168
 20
98.20399999999999
  0
LWPOLYLINE
  5
65
100
AcDbEntity
  8
0
  6
ByLayer
 62
  256
370
   -1
100
AcDbPolyline
 90
   16
 70
    1
 43
0
 10
460.773
 20
82.7842
 10
461.138
 20
82.7107
 10
461.437
 20
82.51000000000001
 10
461.638
 20
82.2122
 10
461.712
 20
81.8472
 10
461.638
 20
81.4819
 10
461.437
 20
81.1833
 10
461.138
 20
80.982
 10
460.773
 20
80.9081
 10
460.408
 20
80.982
 10
460.11
 20
81.1833
 10
459.909
 20
81.4819
 10
459.836
 20
81.8472
 10
459.909
 20
82.2122
 10
460.11
 20
82.51000000000001
 10
460.408
 20
82.7107
  0
LWPOLYLINE
  5
66
100
AcDbEntity
  8
0
  6
ByLayer
 62
  256
370
   -1
100
AcDbPolyline
 90
   16
 70
    1
 43
0
 10
451.232
 20
96.75
 10
451.306
 20
97.11539999999999
 10
451.507
 20
97.4139
 10
451.806
 20
97.6152
 10
452.171
 20
97.6891
 10
452.535
 20
97.6152
 10
452.833
 20
97.4139
 10
453.034
 20
97.11539999999999
 10
453.108
 20
96.75
 10
453.034
 20
96.38500000000001
 10
452.833
 20
96.0872
 10
452.535
 20
95.8865
 10
452.171
 20
95.813
 10
451.806
 20
95.8865
 10
451.507
 20
96.0872
 10
451.306
 20
96.38500000000001
  0
LWPOLYLINE
  5
67
100
AcDbEntity
  8
0
  6
ByLayer
 62
  256
370
   -1
100
AcDbPolyline
 90
   16
 70
    1
 43
0
 10
698.168
 20
146.155
 10
698.532
 20
146.081
 10
698.829
 20
145.88
 10
699.0309999999999
 20
145.583
 10
699.104
 20
145.218
 10
699.0309999999999
 20
144.852
 10
698.829
 20
144.554
 10
698.532
 20
144.352
 10
698.168
 20
144.278
 10
697.802
 20
144.352
 10
697.504
 20
144.554
 10
697.302
 20
144.852
 10
697.228
 20
145.218
 10
697.302
 20
145.583
 10
697.504
 20
145.88
 10
697.802
 20
146.081
  0
LWPOLYLINE
  5
68
100
AcDbEntity
  8
0
  6
ByLayer
 62
  256
370
   -1
100
AcDbPolyline
 90
   16
 70
    1
 43
0
 10
663.772
 20
146.155
 10
664.136
 20
146.081
 10
664.434
 20
145.879
 10
664.635
 20
145.581
 10
664.7089999999999
 20
145.215
 10
664.635
 20
144.851
 10
664.434
 20
144.553
 10
664.136
 20
144.352
 10
663.772
 20
144.278
 10
663.407
 20
144.352
 10
663.1079999999999
 20
144.553
 10
662.907
 20
144.851
 10
662.833
 20
145.215
 10
662.907
 20
145.581
 10
663.1079999999999
 20
145.879
 10
663.407
 20
146.081
  0
LWPOLYLINE
  5
69
100
AcDbEntity
  8
0
  6
ByLayer
 62
  256
370
   -1
100
AcDbPolyline
 90
   16
 70
    1
 43
0
 10
587.163
 20
145.218
 10
587.236
 20
145.583
 10
587.437
 20
145.88
 10
587.735
 20
146.081
 10
588.1
 20
146.155
 10
588.465
 20
146.081
 10
588.7619999999999
 20
145.88
 10
588.963
 20
145.583
 10
589.037
 20
145.218
 10
588.963
 20
144.852
 10
588.7619999999999
 20
144.554
 10
588.465
 20
144.352
 10
588.1
 20
144.278
 10
587.735
 20
144.352
 10
587.437
 20
144.554
 10
587.236
 20
144.852
  0
LWPOLYLINE
  5
6A
100
AcDbEntity
  8
0
  6
ByLayer
 62
  256
370
   -1
100
AcDbPolyline
 90
   16
 70
    1
 43
0
 10
511.492
 20
145.215
 10
511.566
 20
145.58
 10
511.768
 20
145.878
 10
512.066
 20
146.079
 10
512.432
 20
146.152
 10
512.797
 20
146.079
 10
513.0940000000001
 20
145.878
 10
513.295
 20
145.58
 10
513.369
 20
145.215
 10
513.295
 20
144.85
 10
513.0940000000001
 20
144.553
 10
512.797
 20
144.352
 10
512.432
 20
144.278
 10
512.066
 20
144.352
 10
511.768
 20
144.553
 10
511.566
 20
144.85
  0
LWPOLYLINE
  5
6B
100
AcDbEntity
  8
0
  6
ByLayer
 62
  256
370
   -1
100
AcDbPolyline
 90
   16
 70
    1
 43
0
 10
478.034
 20
146.155
 10
478.399
 20
146.081
 10
478.697
 20
145.88
 10
478.897
 20
145.583
 10
478.971
 20
145.218
 10
478.897
 20
144.852
 10
478.697
 20
144.554
 10
478.399
 20
144.352
 10
478.034
 20
144.278
 10
477.669
 20
144.352
 10
477.371
 20
144.554
 10
477.17
 20
144.852
 10
477.097
 20
145.218
 10
477.17
 20
145.583
 10
477.371
 20
145.88
 10
477.669
 20
146.081
  0
LWPOLYLINE
  5
6C
100
AcDbEntity
  8
0
  6
ByLayer
 62
  256
370
   -1
100
AcDbPolyline
 90
   32
 70
    1
 43
0
 10
238.822
 20
142.71
 10
238.763
 20
142.497
 10
238.634
 20
142.03
 10
238.505
 20
141.562
 10
238.446
 20
141.35
 10
238.387
 20
141.562
 10
238.257
 20
142.03
 10
238.126
 20
142.497
 10
238.067
 20
142.71
 10
237.875
 20
142.775
 10
237.451
 20
142.919
 10
237.027
 20
143.063
 10
236.834
 20
143.129
 10
237.027
 20
143.194
 10
237.451
 20
143.337
 10
237.875
 20
143.48
 10
238.067
 20
143.545
 10
238.126
 20
143.758
 10
238.257
 20
144.225
 10
238.387
 20
144.693
 10
238.446
 20
144.905
 10
238.505
 20
144.693
 10
238.634
 20
144.225
 10
238.763
 20
143.758
 10
238.822
 20
143.545
 10
239.015
 20
143.48
 10
239.438
 20
143.337
 10
239.861
 20
143.194
 10
240.053
 20
143.129
 10
239.861
 20
143.063
 10
239.438
 20
142.919
 10
239.015
 20
142.775
  0
LWPOLYLINE
  5
6D
100
AcDbEntity
  8
0
  6
ByLayer
 62
  256
370
   -1
100
AcDbPolyline
 90
   32
 70
    1
 43
0
 10
234.316
 20
149.315
 10
234.272
 20
149.155
 10
234.174
 20
148.805
 10
234.077
 20
148.454
 10
234.033
 20
148.295
 10
233.988
 20
148.454
 10
233.891
 20
148.805
 10
233.794
 20
149.155
 10
233.749
 20
149.315
 10
233.605
 20
149.363
 10
233.287
 20
149.471
 10
232.969
 20
149.579
 10
232.825
 20
149.628
 10
232.969
 20
149.677
 10
233.287
 20
149.784
 10
233.605
 20
149.892
 10
233.749
 20
149.941
 10
233.794
 20
150.1
 10
233.891
 20
150.45
 10
233.988
 20
150.801
 10
234.033
 20
150.96
 10
234.077
 20
150.801
 10
234.174
 20
150.45
 10
234.272
 20
150.1
 10
234.316
 20
149.941
 10
234.461
 20
149.892
 10
234.778
 20
149.784
 10
235.096
 20
149.677
 10
235.241
 20
149.628
 10
235.096
 20
149.579
 10
234.778
 20
149.471
 10
234.461
 20
149.363
  0
LWPOLYLINE
  5
6E
100
AcDbEntity
  8
0
  6
ByLayer
 62
  256
370
   -1
100
AcDbPolyline
 90
   16
 70
    1
 43
0
 10
237.829
 20
8.8475
 10
237.78
 20
8.6089
 10
237.649
 20
8.4139
 10
237.453
 20
8.282299999999999
 10
237.213
 20
8.2341
 10
236.975
 20
8.282299999999999
 10
236.78
 20
8.4139
 10
236.648
 20
8.6089
 10
236.6
 20
8.8475
 10
236.648
 20
9.087300000000001
 10
236.78
 20
9.2829
 10
236.975
 20
9.4147
 10
237.213
 20
9.462999999999999
 10
237.453
 20
9.4147
 10
237.649
 20
9.2829
 10
237.78
 20
9.087300000000001
  0
ENDSEC
  0
SECTION
  2
OBJECTS
  0
DICTIONARY
  5
C
330
0
100
AcDbDictionary
281
    1
  3
ACAD_GROUP
350
D
  0
DICTIONARY
  5
D
330
C
100
AcDbDictionary
281
    1
  0
PLOTSETTINGS
  5
6F
100
AcDbPlotSettings
  6
1x1
 40
0
 41
0
 42
0
 43
0
  0
ENDSEC
  0
EOF
