999
dxfrw 0.6.3
  0
SECTION
  2
HEADER
  9
$ACADVER
  1
AC1021
  9
$DWGCODEPAGE
  3
ANSI_1252
  9
$INSBASE
 10
0
 20
0
 30
0
  9
$EXTMIN
 10
0
 20
0
 30
0
  9
$EXTMAX
 10
2000
 20
2000
 30
0
  9
$LIMMIN
 10
0
 20
0
  9
$LIMMAX
 10
420
 20
297
  9
$ORTHOMODE
 70
    0
  9
$REGENMODE
 70
    1
  9
$FILLMODE
 70
    1
  9
$QTEXTMODE
 70
    0
  9
$MIRRTEXT
 70
    0
  9
$LTSCALE
 40
1
  9
$ATTMODE
 70
    0
  9
$TEXTSIZE
 40
2.5
  9
$TRACEWID
 40
15.68
  9
$TEXTSTYLE
  7
STANDARD
  9
$CLAYER
  8
0
  9
$CELTYPE
  6
BYLAYER
  9
$CECOLOR
 62
  256
  9
$CELTSCALE
 40
1
  9
$DISPSILH
 70
    0
  9
$DIMSCALE
 40
2.5
  9
$DIMASZ
 40
2.5
  9
$DIMEXO
 40
0.625
  9
$DIMDLI
 40
3.75
  9
$DIMRND
 40
0
  9
$DIMDLE
 40
0
  9
$DIMEXE
 40
1.25
  9
$DIMTP
 40
0
  9
$DIMTM
 40
0
  9
$DIMTXT
 40
2.5
  9
$DIMCEN
 40
2.5
  9
$DIMTSZ
 40
0
  9
$DIMTOL
 70
    0
  9
$DIMLIM
 70
    0
  9
$DIMTIH
 70
    0
  9
$DIMTOH
 70
    0
  9
$DIMSE1
 70
    0
  9
$DIMSE2
 70
    0
  9
$DIMTAD
 70
    1
  9
$DIMZIN
 70
    8
  9
$DIMBLK
  1

  9
$DIMASO
 70
    1
  9
$DIMSHO
 70
    1
  9
$DIMPOST
  1

  9
$DIMAPOST
  1

  9
$DIMALT
 70
    0
  9
$DIMALTD
 70
    3
  9
$DIMALTF
 40
0.03937
  9
$DIMLFAC
 40
1
  9
$DIMTOFL
 70
    1
  9
$DIMTVP
 40
0
  9
$DIMTIX
 70
    0
  9
$DIMSOXD
 70
    0
  9
$DIMSAH
 70
    0
  9
$DIMBLK1
  1

  9
$DIMBLK2
  1

  9
$DIMSTYLE
  2
Standard
  9
$DIMCLRD
 70
    0
  9
$DIMCLRE
 70
    0
  9
$DIMCLRT
 70
    0
  9
$DIMTFAC
 40
1
  9
$DIMGAP
 40
0.625
  9
$DIMJUST
 70
    0
  9
$DIMSD1
 70
    0
  9
$DIMSD2
 70
    0
  9
$DIMTOLJ
 70
    0
  9
$DIMTZIN
 70
    8
  9
$DIMALTZ
 70
    0
  9
$DIMALTTZ
 70
    0
  9
$DIMUPT
 70
    0
  9
$DIMDEC
 70
    2
  9
$DIMTDEC
 70
    2
  9
$DIMALTU
 70
    2
  9
$DIMALTTD
 70
    3
  9
$DIMTXSTY
  7
STANDARD
  9
$DIMAUNIT
 70
    0
  9
$DIMADEC
 70
    0
  9
$DIMALTRND
 40
0
  9
$DIMAZIN
 70
    0
  9
$DIMDSEP
 70
   44
  9
$DIMATFIT
 70
    3
  9
$DIMFRAC
 70
    0
  9
$DIMLDRBLK
  1
STANDARD
  9
$DIMLUNIT
 70
    2
  9
$DIMLWD
 70
   -2
  9
$DIMLWE
 70
   -2
  9
$DIMTMOVE
 70
    0
  9
$DIMFXL
 40
1
  9
$DIMFXLON
 70
    0
  9
$DIMJOGANG
 40
0.7854
  9
$DIMTFILL
 70
    0
  9
$DIMTFILLCLR
 70
    0
  9
$DIMARCSYM
 70
    0
  9
$DIMLTYPE
  6

  9
$DIMLTEX1
  6

  9
$DIMLTEX2
  6

  9
$LUNITS
 70
    2
  9
$LUPREC
 70
    4
  9
$SKETCHINC
 40
1
  9
$FILLETRAD
 40
0
  9
$AUNITS
 70
    0
  9
$AUPREC
 70
    2
  9
$MENU
  1
.
  9
$ELEVATION
 40
0
  9
$PELEVATION
 40
0
  9
$THICKNESS
 40
0
  9
$LIMCHECK
 70
    0
  9
$CHAMFERA
 40
0
  9
$CHAMFERB
 40
0
  9
$CHAMFERC
 40
0
  9
$CHAMFERD
 40
0
  9
$SKPOLY
 70
    0
  9
$USRTIMER
 70
    1
  9
$ANGBASE
 50
0
  9
$ANGDIR
 70
    0
  9
$PDMODE
 70
   96
  9
$PDSIZE
 40
-2
  9
$PLINEWID
 40
0
  9
$SPLFRAME
 70
    0
  9
$SPLINETYPE
 70
    2
  9
$SPLINESEGS
 70
    8
  9
$HANDSEED
  5
20000
  9
$SURFTAB1
 70
    6
  9
$SURFTAB2
 70
    6
  9
$SURFTYPE
 70
    6
  9
$SURFU
 70
    6
  9
$SURFV
 70
    6
  9
$UCSBASE
  2

  9
$UCSNAME
  2

  9
$UCSORG
 10
0
 20
0
 30
0
  9
$UCSXDIR
 10
1
 20
0
 30
0
  9
$UCSYDIR
 10
0
 20
1
 30
0
  9
$UCSORTHOREF
  2

  9
$UCSORTHOVIEW
 70
    0
  9
$UCSORGTOP
 10
0
 20
0
 30
0
  9
$UCSORGBOTTOM
 10
0
 20
0
 30
0
  9
$UCSORGLEFT
 10
0
 20
0
 30
0
  9
$UCSORGRIGHT
 10
0
 20
0
 30
0
  9
$UCSORGFRONT
 10
0
 20
0
 30
0
  9
$UCSORGBACK
 10
0
 20
0
 30
0
  9
$PUCSBASE
  2

  9
$PUCSNAME
  2

  9
$PUCSORG
 10
0
 20
0
 30
0
  9
$PUCSXDIR
 10
1
 20
0
 30
0
  9
$PUCSYDIR
 10
0
 20
1
 30
0
  9
$PUCSORTHOREF
  2

  9
$PUCSORTHOVIEW
 70
    0
  9
$PUCSORGTOP
 10
0
 20
0
 30
0
  9
$PUCSORGBOTTOM
 10
0
 20
0
 30
0
  9
$PUCSORGLEFT
 10
0
 20
0
 30
0
  9
$PUCSORGRIGHT
 10
0
 20
0
 30
0
  9
$PUCSORGFRONT
 10
0
 20
0
 30
0
  9
$PUCSORGBACK
 10
0
 20
0
 30
0
  9
$USERI1
 70
    0
  9
$USERI2
 70
    0
  9
$USERI3
 70
    0
  9
$USERI4
 70
    0
  9
$USERI5
 70
    0
  9
$USERR1
 40
0
  9
$USERR2
 40
0
  9
$USERR3
 40
0
  9
$USERR4
 40
0
  9
$USERR5
 40
0
  9
$WORLDVIEW
 70
    1
  9
$SHADEDGE
 70
    3
  9
$SHADEDIF
 70
   70
  9
$TILEMODE
 70
    1
  9
$MAXACTVP
 70
   64
  9
$PINSBASE
 10
0
 20
0
 30
0
  9
$PLIMCHECK
 70
    0
  9
$PEXTMIN
 10
0
 20
0
 30
0
  9
$PEXTMAX
 10
0
 20
0
 30
0
  9
$SNAPSTYLE
 70
    0
  9
$PLIMMIN
 10
0
 20
0
  9
$PLIMMAX
 10
304.8
 20
228.6
  9
$UNITMODE
 70
    0
  9
$VISRETAIN
 70
    1
  9
$PLINEGEN
 70
    0
  9
$PSLTSCALE
 70
    1
  9
$TREEDEPTH
 70
 3020
  9
$CMLSTYLE
  2
Standard
  9
$CMLJUST
 70
    0
  9
$CMLSCALE
 40
20
  9
$PROXYGRAPHICS
 70
    1
  9
$MEASUREMENT
 70
    1
  9
$CELWEIGHT
370
   -1
  9
$ENDCAPS
280
    0
  9
$JOINSTYLE
280
    0
  9
$LWDISPLAY
290
    0
  9
$INSUNITS
 70
    0
  9
$HYPERLINKBASE
  1

  9
$STYLESHEET
  1

  9
$XEDIT
290
    1
  9
$CEPSNTYPE
380
    0
  9
$PSTYLEMODE
290
    1
  9
$EXTNAMES
290
    1
  9
$PSVPSCALE
 40
1
  9
$OLESTARTUP
290
    0
  9
$SORTENTS
280
  127
  9
$INDEXCTL
280
    0
  9
$HIDETEXT
280
    1
  9
$XCLIPFRAME
290
    0
  9
$HALOGAP
280
    0
  9
$OBSCOLOR
 70
  257
  9
$OBSLTYPE
280
    0
  9
$INTERSECTIONDISPLAY
280
    0
  9
$INTERSECTIONCOLOR
 70
  257
  9
$DIMASSOC
280
    1
  9
$PROJECTNAME
  1

  9
$CAMERADISPLAY
290
    0
  9
$LENSLENGTH
 40
50
  9
$CAMERAHEIGHT
 40
0
  9
$STEPSPERSEC
 40
2
  9
$STEPSIZE
 40
50
  9
$3DDWFPREC
 40
2
  9
$PSOLWIDTH
 40
5
  9
$PSOLHEIGHT
 40
80
  9
$LOFTANG1
 40
1.570796326794897
  9
$LOFTANG2
 40
1.570796326794897
  9
$LOFTMAG1
 40
0
  9
$LOFTMAG2
 40
0
  9
$LOFTPARAM
 70
    7
  9
$LOFTNORMALS
280
    1
  9
$LATITUDE
 40
1
  9
$LONGITUDE
 40
1
  9
$NORTHDIRECTION
 40
0
  9
$TIMEZONE
 70
-8000
  9
$LIGHTGLYPHDISPLAY
280
    1
  9
$TILEMODELIGHTSYNCH
280
    1
  9
$SOLIDHIST
280
    1
  9
$SHOWHIST
280
    1
  9
$DWFFRAME
280
    2
  9
$DGNFRAME
280
    0
  9
$REALWORLDSCALE
290
    1
  9
$INTERFERECOLOR
 62
    1
  9
$CSHADOW
280
    0
  9
$SHADOWPLANELOCATION
 40
0
  0
ENDSEC
  0
SECTION
  2
CLASSES
  0
ENDSEC
  0
SECTION
  2
TABLES
  0
TABLE
  2
VPORT
  5
8
330
0
100
AcDbSymbolTable
 70
    1
  0
VPORT
  5
31
330
2
100
AcDbSymbolTableRecord
100
AcDbViewportTableRecord
  2
*ACTIVE
 70
    0
 10
0
 20
0
 11
1
 21
1
 12
624.6701448525278
 22
492.8755767189019
 13
0
 23
0
 14
10
 24
10
 15
10
 25
10
 16
0
 26
0
 36
1
 17
0
 27
0
 37
0
 40
1113.032208964114
 41
1.576642335766423
 42
50
 43
0
 44
0
 50
0
 51
0
 71
    0
 72
  100
 73
    1
 74
    3
 75
    0
 76
    1
 77
    0
 78
    0
281
    0
 65
    1
110
0
120
0
130
0
111
1
121
0
131
0
112
0
122
1
132
0
 79
    0
146
0
348
10020
 60
    7
 61
    5
292
1
282
    1
141
0
142
0
 63
  250
421
3358443
  0
ENDTAB
  0
TABLE
  2
LTYPE
  5
5
330
0
100
AcDbSymbolTable
 70
    4
  0
LTYPE
  5
14
330
5
100
AcDbSymbolTableRecord
100
AcDbLinetypeTableRecord
  2
ByBlock
 70
    0
  3

 72
   65
 73
    0
 40
0
  0
LTYPE
  5
15
330
5
100
AcDbSymbolTableRecord
100
AcDbLinetypeTableRecord
  2
ByLayer
 70
    0
  3

 72
   65
 73
    0
 40
0
  0
LTYPE
  5
16
330
5
100
AcDbSymbolTableRecord
100
AcDbLinetypeTableRecord
  2
Continuous
 70
    0
  3
Solid line
 72
   65
 73
    0
 40
0
  0
LTYPE
  5
32
330
5
100
AcDbSymbolTableRecord
100
AcDbLinetypeTableRecord
  2
DOT
 70
    0
  3
Dot . . . . . . . . . . . . . . . . . . . . . .
 72
   65
 73
    2
 40
6.35
 49
0
 74
    0
 49
-6.35
 74
    0
  0
LTYPE
  5
33
330
5
100
AcDbSymbolTableRecord
100
AcDbLinetypeTableRecord
  2
DOTTINY
 70
    0
  3
Dot (.15x) .....................................
 72
   65
 73
    2
 40
0.9525
 49
0
 74
    0
 49
-0.9525
 74
    0
  0
LTYPE
  5
34
330
5
100
AcDbSymbolTableRecord
100
AcDbLinetypeTableRecord
  2
DOT2
 70
    0
  3
Dot (.5x) .....................................
 72
   65
 73
    2
 40
3.175
 49
0
 74
    0
 49
-3.175
 74
    0
  0
LTYPE
  5
35
330
5
100
AcDbSymbolTableRecord
100
AcDbLinetypeTableRecord
  2
DOTX2
 70
    0
  3
Dot (2x) .  .  .  .  .  .  .  .  .  .  .  .  .
 72
   65
 73
    2
 40
12.7
 49
0
 74
    0
 49
-12.7
 74
    0
  0
LTYPE
  5
36
330
5
100
AcDbSymbolTableRecord
100
AcDbLinetypeTableRecord
  2
DASHED
 70
    0
  3
Dashed _ _ _ _ _ _ _ _ _ _ _ _ _ _ _ _ _
 72
   65
 73
    2
 40
19.05
 49
12.7
 74
    0
 49
-6.35
 74
    0
  0
LTYPE
  5
37
330
5
100
AcDbSymbolTableRecord
100
AcDbLinetypeTableRecord
  2
DASHEDTINY
 70
    0
  3
Dashed (.15x) _ _ _ _ _ _ _ _ _ _ _ _ _ _ _ _ _
 72
   65
 73
    2
 40
2.8575
 49
1.905
 74
    0
 49
-0.9525
 74
    0
  0
LTYPE
  5
38
330
5
100
AcDbSymbolTableRecord
100
AcDbLinetypeTableRecord
  2
DASHED2
 70
    0
  3
Dashed (.5x) _ _ _ _ _ _ _ _ _ _ _ _ _ _ _ _ _
 72
   65
 73
    2
 40
9.524999999999999
 49
6.35
 74
    0
 49
-3.175
 74
    0
  0
LTYPE
  5
39
330
5
100
AcDbSymbolTableRecord
100
AcDbLinetypeTableRecord
  2
DASHEDX2
 70
    0
  3
Dashed (2x) ____  ____  ____  ____  ____  ___
 72
   65
 73
    2
 40
38.09999999999999
 49
25.4
 74
    0
 49
-12.7
 74
    0
  0
LTYPE
  5
3A
330
5
100
AcDbSymbolTableRecord
100
AcDbLinetypeTableRecord
  2
DASHDOT
 70
    0
  3
Dash dot __ . __ . __ . __ . __ . __ . __ . __
 72
   65
 73
    4
 40
25.4
 49
12.7
 74
    0
 49
-6.35
 74
    0
 49
0
 74
    0
 49
-6.35
 74
    0
  0
LTYPE
  5
3B
330
5
100
AcDbSymbolTableRecord
100
AcDbLinetypeTableRecord
  2
DASHDOTTINY
 70
    0
  3
Dash dot (.15x) _._._._._._._._._._._._._._._.
 72
   65
 73
    4
 40
3.81
 49
1.905
 74
    0
 49
-0.9525
 74
    0
 49
0
 74
    0
 49
-0.9525
 74
    0
  0
LTYPE
  5
3C
330
5
100
AcDbSymbolTableRecord
100
AcDbLinetypeTableRecord
  2
DASHDOT2
 70
    0
  3
Dash dot (.5x) _._._._._._._._._._._._._._._.
 72
   65
 73
    4
 40
12.7
 49
6.35
 74
    0
 49
-3.175
 74
    0
 49
0
 74
    0
 49
-3.175
 74
    0
  0
LTYPE
  5
3D
330
5
100
AcDbSymbolTableRecord
100
AcDbLinetypeTableRecord
  2
DASHDOTX2
 70
    0
  3
Dash dot (2x) ____  .  ____  .  ____  .  ___
 72
   65
 73
    4
 40
50.8
 49
25.4
 74
    0
 49
-12.7
 74
    0
 49
0
 74
    0
 49
-12.7
 74
    0
  0
LTYPE
  5
3E
330
5
100
AcDbSymbolTableRecord
100
AcDbLinetypeTableRecord
  2
DIVIDE
 70
    0
  3
Divide ____ . . ____ . . ____ . . ____ . . ____
 72
   65
 73
    6
 40
31.75
 49
12.7
 74
    0
 49
-6.35
 74
    0
 49
0
 74
    0
 49
-6.35
 74
    0
 49
0
 74
    0
 49
-6.35
 74
    0
  0
LTYPE
  5
3F
330
5
100
AcDbSymbolTableRecord
100
AcDbLinetypeTableRecord
  2
DIVIDETINY
 70
    0
  3
Divide (.15x) __..__..__..__..__..__..__..__.._
 72
   65
 73
    6
 40
4.7625
 49
1.905
 74
    0
 49
-0.9525
 74
    0
 49
0
 74
    0
 49
-0.9525
 74
    0
 49
0
 74
    0
 49
-0.9525
 74
    0
  0
LTYPE
  5
40
330
5
100
AcDbSymbolTableRecord
100
AcDbLinetypeTableRecord
  2
DIVIDE2
 70
    0
  3
Divide (.5x) __..__..__..__..__..__..__..__.._
 72
   65
 73
    6
 40
15.875
 49
6.35
 74
    0
 49
-3.175
 74
    0
 49
0
 74
    0
 49
-3.175
 74
    0
 49
0
 74
    0
 49
-3.175
 74
    0
  0
LTYPE
  5
41
330
5
100
AcDbSymbolTableRecord
100
AcDbLinetypeTableRecord
  2
DIVIDEX2
 70
    0
  3
Divide (2x) ________  .  .  ________  .  .  _
 72
   65
 73
    6
 40
63.5
 49
25.4
 74
    0
 49
-12.7
 74
    0
 49
0
 74
    0
 49
-12.7
 74
    0
 49
0
 74
    0
 49
-12.7
 74
    0
  0
LTYPE
  5
42
330
5
100
AcDbSymbolTableRecord
100
AcDbLinetypeTableRecord
  2
BORDER
 70
    0
  3
Border __ __ . __ __ . __ __ . __ __ . __ __ .
 72
   65
 73
    6
 40
44.45
 49
12.7
 74
    0
 49
-6.35
 74
    0
 49
12.7
 74
    0
 49
-6.35
 74
    0
 49
0
 74
    0
 49
-6.35
 74
    0
  0
LTYPE
  5
43
330
5
100
AcDbSymbolTableRecord
100
AcDbLinetypeTableRecord
  2
BORDERTINY
 70
    0
  3
Border (.15x) __.__.__.__.__.__.__.__.__.__.__.
 72
   65
 73
    6
 40
6.6675
 49
1.905
 74
    0
 49
-0.9525
 74
    0
 49
1.905
 74
    0
 49
-0.9525
 74
    0
 49
0
 74
    0
 49
-0.9525
 74
    0
  0
LTYPE
  5
44
330
5
100
AcDbSymbolTableRecord
100
AcDbLinetypeTableRecord
  2
BORDER2
 70
    0
  3
Border (.5x) __.__.__.__.__.__.__.__.__.__.__.
 72
   65
 73
    6
 40
22.225
 49
6.35
 74
    0
 49
-3.175
 74
    0
 49
6.35
 74
    0
 49
-3.175
 74
    0
 49
0
 74
    0
 49
-3.175
 74
    0
  0
LTYPE
  5
45
330
5
100
AcDbSymbolTableRecord
100
AcDbLinetypeTableRecord
  2
BORDERX2
 70
    0
  3
Border (2x) ____  ____  .  ____  ____  .  ___
 72
   65
 73
    6
 40
88.89999999999999
 49
25.4
 74
    0
 49
-12.7
 74
    0
 49
25.4
 74
    0
 49
-12.7
 74
    0
 49
0
 74
    0
 49
-12.7
 74
    0
  0
LTYPE
  5
46
330
5
100
AcDbSymbolTableRecord
100
AcDbLinetypeTableRecord
  2
CENTER
 70
    0
  3
Center ____ _ ____ _ ____ _ ____ _ ____ _ ____
 72
   65
 73
    4
 40
50.8
 49
31.75
 74
    0
 49
-6.35
 74
    0
 49
6.35
 74
    0
 49
-6.35
 74
    0
  0
LTYPE
  5
47
330
5
100
AcDbSymbolTableRecord
100
AcDbLinetypeTableRecord
  2
CENTERTINY
 70
    0
  3
Center (.15x) ___ _ ___ _ ___ _ ___ _ ___ _ ___
 72
   65
 73
    4
 40
7.619999999999999
 49
4.7625
 74
    0
 49
-0.9525
 74
    0
 49
0.9525
 74
    0
 49
-0.9525
 74
    0
  0
LTYPE
  5
48
330
5
100
AcDbSymbolTableRecord
100
AcDbLinetypeTableRecord
  2
CENTER2
 70
    0
  3
Center (.5x) ___ _ ___ _ ___ _ ___ _ ___ _ ___
 72
   65
 73
    4
 40
28.575
 49
19.05
 74
    0
 49
-3.175
 74
    0
 49
3.175
 74
    0
 49
-3.175
 74
    0
  0
LTYPE
  5
49
330
5
100
AcDbSymbolTableRecord
100
AcDbLinetypeTableRecord
  2
CENTERX2
 70
    0
  3
Center (2x) ________  __  ________  __  _____
 72
   65
 73
    4
 40
101.6
 49
63.5
 74
    0
 49
-12.7
 74
    0
 49
12.7
 74
    0
 49
-12.7
 74
    0
  0
ENDTAB
  0
TABLE
  2
LAYER
  5
2
330
0
100
AcDbSymbolTable
 70
    1
  0
LAYER
  5
10
330
2
100
AcDbSymbolTableRecord
100
AcDbLayerTableRecord
  2
0
 70
    0
 62
    7
  6
CONTINUOUS
370
   25
390
F
  0
ENDTAB
  0
TABLE
  2
STYLE
  5
3
330
0
100
AcDbSymbolTable
 70
    3
  0
STYLE
  5
4A
330
2
100
AcDbSymbolTableRecord
100
AcDbTextStyleTableRecord
  2
Standard
 70
    0
 40
0
 41
1
 50
0
 71
    0
 42
1
  3
txt
  4

  0
ENDTAB
  0
TABLE
  2
VIEW
  5
6
330
0
100
AcDbSymbolTable
 70
    0
  0
ENDTAB
  0
TABLE
  2
UCS
  5
7
330
0
100
AcDbSymbolTable
 70
    0
  0
ENDTAB
  0
TABLE
  2
APPID
  5
9
330
0
100
AcDbSymbolTable
 70
    1
  0
APPID
  5
12
330
9
100
AcDbSymbolTableRecord
100
AcDbRegAppTableRecord
  2
ACAD
 70
    0
  0
APPID
  5
4B
330
9
100
AcDbSymbolTableRecord
100
AcDbRegAppTableRecord
  2
LibreCad
 70
    0
  0
ENDTAB
  0
TABLE
  2
DIMSTYLE
  5
A
330
0
100
AcDbSymbolTable
 70
    1
100
AcDbDimStyleTable
 71
    1
  0
DIMSTYLE
105
4C
330
A
100
AcDbSymbolTableRecord
100
AcDbDimStyleTableRecord
  2
Standard
 70
    0
 40
1
 41
2.5
 42
0.625
 43
0.38
 44
1.25
 45
0
 46
0
 47
0
 48
0
 49
1
140
2.5
141
0.09
142
2.5
143
25.4
144
1
145
0
146
1
147
0.625
148
0
 71
    0
 72
    0
 73
    0
 74
    1
 75
    0
 76
    0
 77
    0
 78
    1
 79
    0
170
    0
171
    2
172
    0
173
    0
174
    0
175
    0
176
    0
177
    0
178
    0
179
    0
271
    2
272
    4
273
    2
274
    2
275
    0
276
    0
277
    2
278
    0
279
    0
280
    0
281
    0
282
    0
283
    1
284
    0
285
    0
286
    0
288
    0
289
    3
340
4A
  0
ENDTAB
  0
TABLE
  2
BLOCK_RECORD
  5
1
330
0
100
AcDbSymbolTable
 70
    2
  0
BLOCK_RECORD
  5
1F
330
1
100
AcDbSymbolTableRecord
100
AcDbBlockTableRecord
  2
*Model_Space
 70
    0
280
    1
281
    0
  0
BLOCK_RECORD
  5
1E
330
1
100
AcDbSymbolTableRecord
100
AcDbBlockTableRecord
  2
*Paper_Space
 70
    0
280
    1
281
    0
  0
ENDTAB
  0
ENDSEC
  0
SECTION
  2
BLOCKS
  0
BLOCK
  5
20
330
1F
100
AcDbEntity
  8
0
100
AcDbBlockBegin
  2
*Model_Space
 70
    0
 10
0
 20
0
 30
0
  3
*Model_Space
  1

  0
ENDBLK
  5
21
330
1F
100
AcDbEntity
  8
0
100
AcDbBlockEnd
  0
BLOCK
  5
1C
330
1B
100
AcDbEntity
  8
0
100
AcDbBlockBegin
  2
*Paper_Space
 70
    0
 10
0
 20
0
 30
0
  3
*Paper_Space
  1

  0
ENDBLK
  5
1D
330
1F
100
AcDbEntity
  8
0
100
AcDbBlockEnd
  0
ENDSEC
  0
SECTION
  2
ENTITIES
  0
LWPOLYLINE
  5
4D
100
AcDbEntity
  8
0
  6
ByLayer
 62
  256
370
   -1
100
AcDbPolyline
 90
    4
 70
    1
 43
0
 10
0
 20
0
 10
2000
 20
0
 10
2000
 20
2000
 10
0
 20
2000
  0
LWPOLYLINE
  5
4E
100
AcDbEntity
  8
0
  6
ByLayer
 62
  256
370
   -1
100
AcDbPolyline
 90
 6502
 70
    1
 43
0
 10
285.891
 20
175.877
 10
285.772
 20
176.16
 10
285.658
 20
176.438
 10
285.549
 20
176.709
 10
285.445
 20
176.974
 10
285.346
 20
177.233
 10
285.252
 20
177.485
 10
285.163
 20
177.732
 10
285.08
 20
177.971
 10
285.002
 20
178.204
 10
284.928
 20
178.431
 10
284.86
 20
178.65
 10
284.797
 20
178.863
 10
284.739
 20
179.069
 10
284.686
 20
179.268
 10
284.639
 20
179.46
 10
284.596
 20
179.645
 10
284.559
 20
179.822
 10
284.527
 20
179.992
 10
284.5
 20
180.155
 10
284.478
 20
180.31
 10
284.462
 20
180.457
 10
284.45
 20
180.597
 10
284.444
 20
180.729
 10
284.443
 20
180.853
 10
284.448
 20
180.969
 10
284.457
 20
181.077
 10
284.472
 20
181.176
 10
284.492
 20
181.268
 10
284.517
 20
181.351
 10
284.532
 20
181.389
 10
284.548
 20
181.426
 10
284.565
 20
181.46
 10
284.583
 20
181.492
 10
284.603
 20
181.522
 10
284.624
 20
181.549
 10
284.647
 20
181.575
 10
284.671
 20
181.598
 10
284.696
 20
181.619
 10
284.722
 20
181.638
 10
284.75
 20
181.655
 10
284.779
 20
181.67
 10
284.809
 20
181.682
 10
284.841
 20
181.692
 10
284.874
 20
181.7
 10
284.908
 20
181.705
 10
284.944
 20
181.708
 10
284.981
 20
181.709
 10
285.019
 20
181.708
 10
285.059
 20
181.704
 10
285.1
 20
181.698
 10
285.142
 20
181.689
 10
285.231
 20
181.665
 10
285.325
 20
181.632
 10
285.424
 20
181.589
 10
285.529
 20
181.536
 10
285.639
 20
181.474
 10
285.754
 20
181.402
 10
285.874
 20
181.319
 10
286
 20
181.227
 10
286.132
 20
181.125
 10
286.268
 20
181.012
 10
286.41
 20
180.889
 10
286.558
 20
180.756
 10
286.711
 20
180.612
 10
286.869
 20
180.458
 10
287.033
 20
180.293
 10
287.202
 20
180.117
 10
287.376
 20
179.931
 10
287.556
 20
179.733
 10
287.741
 20
179.525
 10
287.932
 20
179.305
 10
288.128
 20
179.074
 10
288.33
 20
178.832
 10
288.537
 20
178.579
 10
288.749
 20
178.314
 10
289.233
 20
177.705
 10
289.714
 20
177.093
 10
290.194
 20
176.478
 10
290.672
 20
175.861
 10
291.147
 20
175.242
 10
291.621
 20
174.619
 10
292.092
 20
173.994
 10
292.56
 20
173.367
 10
293.026
 20
172.737
 10
293.489
 20
172.104
 10
293.948
 20
171.468
 10
294.404
 20
170.83
 10
294.857
 20
170.189
 10
295.307
 20
169.546
 10
295.752
 20
168.899
 10
296.193
 20
168.25
 10
296.631
 20
167.599
 10
297.063
 20
166.944
 10
297.492
 20
166.287
 10
297.916
 20
165.627
 10
298.335
 20
164.964
 10
298.748
 20
164.299
 10
299.157
 20
163.63
 10
299.56
 20
162.959
 10
299.958
 20
162.285
 10
300.351
 20
161.608
 10
300.737
 20
160.929
 10
301.117
 20
160.246
 10
301.491
 20
159.561
 10
301.858
 20
158.873
 10
302.219
 20
158.181
 10
302.574
 20
157.488
 10
302.921
 20
156.791
 10
303.262
 20
156.091
 10
303.594
 20
155.388
 10
303.758
 20
155.035
 10
303.92
 20
154.682
 10
304.08
 20
154.328
 10
304.238
 20
153.973
 10
304.394
 20
153.618
 10
304.548
 20
153.262
 10
304.701
 20
152.905
 10
304.851
 20
152.547
 10
304.999
 20
152.189
 10
305.145
 20
151.829
 10
305.289
 20
151.47
 10
305.431
 20
151.109
 10
305.571
 20
150.747
 10
305.709
 20
150.385
 10
305.844
 20
150.022
 10
305.977
 20
149.659
 10
306.108
 20
149.294
 10
306.237
 20
148.929
 10
306.364
 20
148.563
 10
306.488
 20
148.196
 10
306.611
 20
147.828
 10
306.731
 20
147.46
 10
306.848
 20
147.091
 10
306.963
 20
146.721
 10
307.076
 20
146.351
 10
307.186
 20
145.979
 10
307.294
 20
145.607
 10
307.4
 20
145.234
 10
307.503
 20
144.861
 10
307.603
 20
144.486
 10
307.702
 20
144.111
 10
307.797
 20
143.735
 10
307.89
 20
143.358
 10
307.981
 20
142.981
 10
308.068
 20
142.602
 10
308.154
 20
142.223
 10
308.236
 20
141.843
 10
308.316
 20
141.462
 10
308.394
 20
141.081
 10
308.468
 20
140.698
 10
308.54
 20
140.315
 10
308.61
 20
139.931
 10
308.676
 20
139.547
 10
308.74
 20
139.161
 10
308.8
 20
138.775
 10
308.858
 20
138.388
 10
308.913
 20
138
 10
308.966
 20
137.611
 10
309.015
 20
137.222
 10
309.062
 20
136.831
 10
309.105
 20
136.44
 10
309.146
 20
136.048
 10
309.184
 20
135.656
 10
309.218
 20
135.262
 10
309.25
 20
134.868
 10
309.279
 20
134.472
 10
309.304
 20
134.077
 10
309.327
 20
133.68
 10
309.345
 20
133.313
 10
309.361
 20
132.944
 10
309.375
 20
132.571
 10
309.387
 20
132.194
 10
309.398
 20
131.815
 10
309.406
 20
131.432
 10
309.412
 20
131.046
 10
309.416
 20
130.657
 10
309.419
 20
129.871
 10
309.414
 20
129.073
 10
309.4
 20
128.264
 10
309.379
 20
127.444
 10
309.35
 20
126.615
 10
309.313
 20
125.776
 10
309.268
 20
124.928
 10
309.215
 20
124.072
 10
309.155
 20
123.208
 10
309.086
 20
122.337
 10
309.01
 20
121.459
 10
308.926
 20
120.574
 10
308.834
 20
119.683
 10
308.734
 20
118.787
 10
308.626
 20
117.886
 10
308.511
 20
116.981
 10
308.388
 20
116.072
 10
308.257
 20
115.159
 10
308.118
 20
114.244
 10
307.972
 20
113.326
 10
307.818
 20
112.407
 10
307.656
 20
111.486
 10
307.486
 20
110.564
 10
307.309
 20
109.642
 10
307.124
 20
108.719
 10
306.931
 20
107.798
 10
306.731
 20
106.878
 10
306.523
 20
105.959
 10
306.307
 20
105.043
 10
306.196
 20
104.585
 10
306.084
 20
104.129
 10
305.969
 20
103.673
 10
305.853
 20
103.218
 10
305.734
 20
102.764
 10
305.614
 20
102.311
 10
305.492
 20
101.859
 10
305.368
 20
101.408
 10
305.242
 20
100.959
 10
305.114
 20
100.51
 10
304.984
 20
100.063
 10
304.853
 20
99.617
 10
304.719
 20
99.1726
 10
304.584
 20
98.7296
 10
304.446
 20
98.2882
 10
304.307
 20
97.8485
 10
304.166
 20
97.41030000000001
 10
304.023
 20
96.974
 10
303.878
 20
96.5394
 10
303.731
 20
96.1067
 10
303.583
 20
95.6759
 10
303.432
 20
95.247
 10
303.28
 20
94.8203
 10
303.125
 20
94.3956
 10
302.969
 20
93.9731
 10
302.811
 20
93.55289999999999
 10
302.651
 20
93.1349
 10
302.489
 20
92.7193
 10
302.326
 20
92.3062
 10
302.16
 20
91.8955
 10
301.993
 20
91.4873
 10
301.823
 20
91.0818
 10
301.652
 20
90.679
 10
301.479
 20
90.27889999999999
 10
301.304
 20
89.88160000000001
 10
301.127
 20
89.4871
 10
300.949
 20
89.0956
 10
300.768
 20
88.7071
 10
300.586
 20
88.3216
 10
300.402
 20
87.9393
 10
300.216
 20
87.56010000000001
 10
300.028
 20
87.1842
 10
299.838
 20
86.8115
 10
299.646
 20
86.4423
 10
299.453
 20
86.0765
 10
299.257
 20
85.7141
 10
299.06
 20
85.3553
 10
298.861
 20
85.00020000000001
 10
298.66
 20
84.64870000000001
 10
298.457
 20
84.301
 10
298.253
 20
83.95699999999999
 10
298.046
 20
83.617
 10
297.838
 20
83.2809
 10
297.628
 20
82.9487
 10
297.416
 20
82.6207
 10
297.202
 20
82.2967
 10
296.986
 20
81.9769
 10
296.769
 20
81.6614
 10
296.55
 20
81.3502
 10
296.329
 20
81.04340000000001
 10
296.106
 20
80.741
 10
295.881
 20
80.4431
 10
295.596
 20
80.0765
 10
295.305
 20
79.71210000000001
 10
295.007
 20
79.3496
 10
294.701
 20
78.9893
 10
294.388
 20
78.631
 10
294.068
 20
78.2747
 10
293.742
 20
77.9205
 10
293.408
 20
77.5684
 10
293.066
 20
77.2184
 10
292.718
 20
76.8704
 10
292.363
 20
76.5245
 10
292
 20
76.1806
 10
291.63
 20
75.83880000000001
 10
291.254
 20
75.4991
 10
290.87
 20
75.1614
 10
290.479
 20
74.8258
 10
290.081
 20
74.4922
 10
289.676
 20
74.16079999999999
 10
289.263
 20
73.8313
 10
288.844
 20
73.504
 10
288.417
 20
73.17870000000001
 10
287.984
 20
72.85550000000001
 10
287.543
 20
72.5343
 10
287.095
 20
72.2152
 10
286.64
 20
71.8981
 10
286.178
 20
71.58320000000001
 10
285.709
 20
71.2702
 10
285.232
 20
70.9594
 10
284.749
 20
70.6506
 10
284.258
 20
70.3439
 10
283.76
 20
70.03919999999999
 10
283.255
 20
69.7366
 10
282.743
 20
69.4361
 10
282.224
 20
69.13760000000001
 10
281.698
 20
68.8412
 10
281.165
 20
68.5468
 10
280.625
 20
68.25449999999999
 10
280.077
 20
67.96429999999999
 10
279.522
 20
67.67619999999999
 10
278.961
 20
67.3901
 10
278.392
 20
67.10599999999999
 10
277.816
 20
66.8241
 10
277.233
 20
66.5441
 10
276.642
 20
66.2663
 10
276.045
 20
65.9905
 10
275.441
 20
65.71680000000001
 10
274.829
 20
65.4451
 10
274.21
 20
65.1756
 10
273.585
 20
64.908
 10
272.952
 20
64.6426
 10
272.312
 20
64.3792
 10
271.664
 20
64.1178
 10
271.01
 20
63.8585
 10
270.349
 20
63.6013
 10
269.68
 20
63.3462
 10
269.005
 20
63.0931
 10
268.322
 20
62.8421
 10
267.632
 20
62.5931
 10
266.935
 20
62.3462
 10
266.231
 20
62.1014
 10
265.52
 20
61.8586
 10
264.802
 20
61.6179
 10
264.076
 20
61.3793
 10
263.344
 20
61.1427
 10
262.195
 20
60.7431
 10
261.06
 20
60.3458
 10
259.94
 20
59.9508
 10
258.835
 20
59.5581
 10
257.743
 20
59.1678
 10
256.667
 20
58.7797
 10
255.604
 20
58.394
 10
254.556
 20
58.0106
 10
253.523
 20
57.6296
 10
252.504
 20
57.2508
 10
251.499
 20
56.8744
 10
250.508
 20
56.5002
 10
249.533
 20
56.1284
 10
248.571
 20
55.759
 10
247.624
 20
55.3918
 10
246.691
 20
55.0269
 10
245.773
 20
54.6644
 10
244.869
 20
54.3042
 10
243.98
 20
53.9463
 10
243.105
 20
53.5907
 10
242.244
 20
53.2375
 10
241.398
 20
52.8865
 10
240.566
 20
52.5379
 10
239.749
 20
52.1916
 10
238.946
 20
51.8476
 10
238.157
 20
51.506
 10
237.383
 20
51.1666
 10
236.623
 20
50.8296
 10
235.878
 20
50.4949
 10
235.147
 20
50.1625
 10
234.431
 20
49.8324
 10
233.728
 20
49.5046
 10
233.041
 20
49.1792
 10
232.368
 20
48.8561
 10
231.709
 20
48.5353
 10
231.064
 20
48.2168
 10
230.434
 20
47.9006
 10
229.819
 20
47.5868
 10
229.217
 20
47.2752
 10
228.631
 20
46.966
 10
228.058
 20
46.6591
 10
227.5
 20
46.3546
 10
226.957
 20
46.0523
 10
226.428
 20
45.7524
 10
225.913
 20
45.4547
 10
225.413
 20
45.1594
 10
224.927
 20
44.8665
 10
224.455
 20
44.5758
 10
223.998
 20
44.2874
 10
223.555
 20
44.0014
 10
223.127
 20
43.7177
 10
222.713
 20
43.4363
 10
222.314
 20
43.1572
 10
221.929
 20
42.8805
 10
221.558
 20
42.606
 10
221.202
 20
42.3339
 10
220.86
 20
42.0641
 10
220.533
 20
41.7966
 10
220.22
 20
41.5315
 10
219.922
 20
41.2686
 10
219.778
 20
41.1381
 10
219.637
 20
41.0081
 10
219.501
 20
40.8787
 10
219.368
 20
40.7499
 10
219.238
 20
40.6216
 10
219.113
 20
40.494
 10
218.99
 20
40.3669
 10
218.872
 20
40.2404
 10
246.414
 20
40.1817
 10
266.087
 20
40.1398
 10
277.891
 20
40.1147
 10
281.826
 20
40.1063
 10
281.748
 20
49.521
 10
281.693
 20
56.2458
 10
281.66
 20
60.2806
 10
281.649
 20
61.6256
 10
304.646
 20
50.0501
 10
321.072
 20
41.7818
 10
330.928
 20
36.8209
 10
334.213
 20
35.1672
 10
311.255
 20
23.6303
 10
294.857
 20
15.3896
 10
285.017
 20
10.4451
 10
281.738
 20
8.797000000000001
 10
281.661
 20
18.0574
 10
281.606
 20
24.672
 10
281.572
 20
28.6408
 10
281.561
 20
29.9637
 10
269.968
 20
29.9588
 10
258.702
 20
29.9541
 10
247.765
 20
29.9494
 10
237.155
 20
29.9449
 10
237.155
 20
29.6552
 10
237.155
 20
29.0177
 10
237.155
 20
28.3803
 10
237.155
 20
28.0905
 10
236.967
 20
28.0905
 10
236.553
 20
28.0905
 10
236.138
 20
28.0905
 10
235.95
 20
28.0905
 10
235.744
 20
28.0886
 10
235.548
 20
28.083
 10
235.363
 20
28.0736
 10
235.187
 20
28.0604
 10
235.022
 20
28.0434
 10
234.866
 20
28.0226
 10
234.721
 20
27.9981
 10
234.585
 20
27.9696
 10
234.459
 20
27.9374
 10
234.344
 20
27.9013
 10
234.238
 20
27.8613
 10
234.142
 20
27.8175
 10
234.098
 20
27.7941
 10
234.056
 20
27.7698
 10
234.017
 20
27.7445
 10
233.98
 20
27.7182
 10
233.946
 20
27.6909
 10
233.914
 20
27.6627
 10
233.884
 20
27.6335
 10
233.857
 20
27.6033
 10
233.832
 20
27.5713
 10
233.807
 20
27.5366
 10
233.784
 20
27.4992
 10
233.761
 20
27.4591
 10
233.717
 20
27.371
 10
233.677
 20
27.2722
 10
233.64
 20
27.1628
 10
233.606
 20
27.0427
 10
233.575
 20
26.912
 10
233.548
 20
26.7706
 10
233.524
 20
26.6187
 10
233.503
 20
26.4561
 10
233.485
 20
26.2829
 10
233.471
 20
26.0992
 10
233.459
 20
25.9049
 10
233.451
 20
25.7
 10
233.447
 20
25.4846
 10
233.445
 20
25.2586
 10
233.445
 20
21.4547
 10
233.445
 20
13.0861
 10
233.445
 20
4.7174
 10
233.445
 20
0.9135
 10
232.617
 20
0.9135
 10
230.796
 20
0.9135
 10
228.975
 20
0.9135
 10
228.148
 20
0.9135
 10
226.194
 20
4.815
 10
221.895
 20
13.3982
 10
217.596
 20
21.9813
 10
215.642
 20
25.8828
 10
215.642
 20
22.9662
 10
215.642
 20
16.5498
 10
215.642
 20
10.1333
 10
215.642
 20
7.2167
 10
215.643
 20
6.9881
 10
215.648
 20
6.7703
 10
215.656
 20
6.5634
 10
215.667
 20
6.3675
 10
215.682
 20
6.1824
 10
215.699
 20
6.0081
 10
215.72
 20
5.8448
 10
215.744
 20
5.6923
 10
215.771
 20
5.5507
 10
215.801
 20
5.4201
 10
215.835
 20
5.3002
 10
215.871
 20
5.1913
 10
215.911
 20
5.0933
 10
215.953
 20
5.0061
 10
215.976
 20
4.9666
 10
215.999
 20
4.9298
 10
216.023
 20
4.8957
 10
216.048
 20
4.8644
 10
216.074
 20
4.8349
 10
216.103
 20
4.8063
 10
216.134
 20
4.7787
 10
216.168
 20
4.752
 10
216.204
 20
4.7262
 10
216.243
 20
4.7014
 10
216.284
 20
4.6775
 10
216.328
 20
4.6546
 10
216.422
 20
4.6115
 10
216.527
 20
4.5722
 10
216.641
 20
4.5366
 10
216.765
 20
4.5047
 10
216.899
 20
4.4766
 10
217.043
 20
4.4523
 10
217.197
 20
4.4316
 10
217.361
 20
4.4148
 10
217.535
 20
4.4017
 10
217.718
 20
4.3923
 10
217.912
 20
4.3867
 10
218.115
 20
4.3848
 10
218.385
 20
4.3848
 10
218.978
 20
4.3848
 10
219.57
 20
4.3848
 10
219.84
 20
4.3848
 10
219.84
 20
3.8424
 10
219.84
 20
2.6492
 10
219.84
 20
1.4559
 10
219.84
 20
0.9135
 10
217.907
 20
0.9135
 10
213.655
 20
0.9135
 10
209.404
 20
0.9135
 10
207.471
 20
0.9135
 10
207.471
 20
1.4559
 10
207.471
 20
2.6492
 10
207.471
 20
3.8424
 10
207.471
 20
4.3848
 10
207.746
 20
4.3848
 10
208.352
 20
4.3848
 10
208.957
 20
4.3848
 10
209.233
 20
4.3848
 10
209.436
 20
4.3867
 10
209.63
 20
4.3923
 10
209.813
 20
4.4017
 10
209.987
 20
4.4148
 10
210.151
 20
4.4316
 10
210.305
 20
4.4523
 10
210.449
 20
4.4766
 10
210.583
 20
4.5047
 10
210.707
 20
4.5366
 10
210.821
 20
4.5722
 10
210.926
 20
4.6115
 10
211.02
 20
4.6546
 10
211.064
 20
4.6775
 10
211.105
 20
4.7014
 10
211.144
 20
4.7262
 10
211.18
 20
4.752
 10
211.214
 20
4.7787
 10
211.245
 20
4.8063
 10
211.274
 20
4.8349
 10
211.3
 20
4.8644
 10
211.325
 20
4.8957
 10
211.349
 20
4.9298
 10
211.372
 20
4.9666
 10
211.395
 20
5.0061
 10
211.438
 20
5.0933
 10
211.477
 20
5.1913
 10
211.513
 20
5.3002
 10
211.547
 20
5.4201
 10
211.577
 20
5.5507
 10
211.604
 20
5.6923
 10
211.628
 20
5.8448
 10
211.649
 20
6.0081
 10
211.666
 20
6.1824
 10
211.681
 20
6.3675
 10
211.692
 20
6.5634
 10
211.7
 20
6.7703
 10
211.705
 20
6.9881
 10
211.706
 20
7.2167
 10
211.706
 20
10.0357
 10
211.706
 20
16.2377
 10
211.706
 20
22.4396
 10
211.706
 20
25.2586
 10
211.705
 20
25.4873
 10
211.7
 20
25.705
 10
211.692
 20
25.9119
 10
211.681
 20
26.1079
 10
211.666
 20
26.293
 10
211.649
 20
26.4672
 10
211.628
 20
26.6306
 10
211.604
 20
26.7831
 10
211.577
 20
26.9246
 10
211.547
 20
27.0553
 10
211.513
 20
27.1751
 10
211.477
 20
27.2841
 10
211.438
 20
27.3821
 10
211.395
 20
27.4692
 10
211.372
 20
27.5087
 10
211.349
 20
27.5455
 10
211.325
 20
27.5796
 10
211.3
 20
27.6109
 10
211.274
 20
27.6404
 10
211.245
 20
27.669
 10
211.214
 20
27.6966
 10
211.18
 20
27.7233
 10
211.144
 20
27.7491
 10
211.105
 20
27.7739
 10
211.064
 20
27.7978
 10
211.02
 20
27.8207
 10
210.926
 20
27.8638
 10
210.821
 20
27.9031
 10
210.707
 20
27.9387
 10
210.583
 20
27.9706
 10
210.449
 20
27.9987
 10
210.305
 20
28.023
 10
210.151
 20
28.0437
 10
209.987
 20
28.0605
 10
209.813
 20
28.0736
 10
209.63
 20
28.083
 10
209.436
 20
28.0886
 10
209.233
 20
28.0905
 10
208.98
 20
28.0905
 10
208.424
 20
28.0905
 10
207.868
 20
28.0905
 10
207.615
 20
28.0905
 10
207.615
 20
28.3783
 10
207.615
 20
29.0115
 10
207.615
 20
29.6446
 10
207.615
 20
29.9324
 10
205.644
 20
29.9316
 10
203.688
 20
29.9308
 10
201.746
 20
29.93
 10
199.819
 20
29.9292
 10
199.956
 20
29.8239
 10
200.092
 20
29.7165
 10
200.227
 20
29.6069
 10
200.361
 20
29.4951
 10
200.494
 20
29.3812
 10
200.625
 20
29.2651
 10
200.756
 20
29.1469
 10
200.885
 20
29.0264
 10
201.013
 20
28.9038
 10
201.139
 20
28.779
 10
201.265
 20
28.652
 10
201.389
 20
28.5228
 10
201.512
 20
28.3914
 10
201.634
 20
28.2578
 10
201.755
 20
28.1219
 10
201.874
 20
27.9839
 10
201.992
 20
27.8441
 10
202.108
 20
27.7029
 10
202.222
 20
27.5604
 10
202.334
 20
27.4165
 10
202.444
 20
27.2712
 10
202.553
 20
27.1245
 10
202.659
 20
26.9765
 10
202.764
 20
26.827
 10
202.867
 20
26.6762
 10
202.968
 20
26.524
 10
203.067
 20
26.3705
 10
203.165
 20
26.2156
 10
203.26
 20
26.0593
 10
203.354
 20
25.9016
 10
203.445
 20
25.7425
 10
203.535
 20
25.5821
 10
203.624
 20
25.4203
 10
203.71
 20
25.2571
 10
203.794
 20
25.0925
 10
203.877
 20
24.9266
 10
203.957
 20
24.7592
 10
204.036
 20
24.5905
 10
204.113
 20
24.4205
 10
204.188
 20
24.249
 10
204.261
 20
24.0762
 10
204.333
 20
23.902
 10
204.402
 20
23.7264
 10
204.47
 20
23.5494
 10
204.536
 20
23.3711
 10
204.6
 20
23.1914
 10
204.662
 20
23.0103
 10
204.722
 20
22.8278
 10
204.781
 20
22.6439
 10
204.837
 20
22.4587
 10
204.892
 20
22.2721
 10
204.945
 20
22.0841
 10
204.996
 20
21.8948
 10
205.045
 20
21.704
 10
205.092
 20
21.5119
 10
205.138
 20
21.3184
 10
205.181
 20
21.1235
 10
205.223
 20
20.9272
 10
205.263
 20
20.7296
 10
205.301
 20
20.5306
 10
205.337
 20
20.3302
 10
205.371
 20
20.1284
 10
205.404
 20
19.9253
 10
205.435
 20
19.7207
 10
205.463
 20
19.5148
 10
205.49
 20
19.3075
 10
205.515
 20
19.0988
 10
205.538
 20
18.8888
 10
205.579
 20
18.4645
 10
205.613
 20
18.0348
 10
205.639
 20
17.5995
 10
205.657
 20
17.1587
 10
205.668
 20
16.7124
 10
205.672
 20
16.2605
 10
205.668
 20
15.8072
 10
205.657
 20
15.3596
 10
205.639
 20
14.9174
 10
205.613
 20
14.4809
 10
205.579
 20
14.0499
 10
205.538
 20
13.6245
 10
205.515
 20
13.4139
 10
205.49
 20
13.2046
 10
205.463
 20
12.9968
 10
205.434
 20
12.7903
 10
205.404
 20
12.5853
 10
205.371
 20
12.3816
 10
205.337
 20
12.1793
 10
205.3
 20
11.9784
 10
205.262
 20
11.7789
 10
205.222
 20
11.5807
 10
205.18
 20
11.384
 10
205.137
 20
11.1886
 10
205.091
 20
10.9946
 10
205.044
 20
10.8021
 10
204.994
 20
10.6108
 10
204.943
 20
10.421
 10
204.89
 20
10.2326
 10
204.835
 20
10.0455
 10
204.779
 20
9.8599
 10
204.72
 20
9.675599999999999
 10
204.66
 20
9.492699999999999
 10
204.597
 20
9.311199999999999
 10
204.533
 20
9.131
 10
204.467
 20
8.952299999999999
 10
204.399
 20
8.774900000000001
 10
204.329
 20
8.5989
 10
204.258
 20
8.424300000000001
 10
204.184
 20
8.251099999999999
 10
204.109
 20
8.0792
 10
204.032
 20
7.9087
 10
203.953
 20
7.7396
 10
203.872
 20
7.5719
 10
203.789
 20
7.4056
 10
203.704
 20
7.2406
 10
203.618
 20
7.077
 10
203.53
 20
6.9148
 10
203.439
 20
6.754
 10
203.347
 20
6.5946
 10
203.253
 20
6.4365
 10
203.157
 20
6.2798
 10
203.06
 20
6.1245
 10
202.96
 20
5.9705
 10
202.858
 20
5.8179
 10
202.755
 20
5.6667
 10
202.65
 20
5.5169
 10
202.543
 20
5.3685
 10
202.434
 20
5.2214
 10
202.323
 20
5.0757
 10
202.211
 20
4.9314
 10
202.096
 20
4.7884
 10
201.98
 20
4.6468
 10
201.862
 20
4.5066
 10
201.742
 20
4.3682
 10
201.621
 20
4.2319
 10
201.5
 20
4.0979
 10
201.376
 20
3.966
 10
201.252
 20
3.8363
 10
201.127
 20
3.7088
 10
201
 20
3.5835
 10
200.873
 20
3.4603
 10
200.744
 20
3.3394
 10
200.614
 20
3.2206
 10
200.482
 20
3.104
 10
200.35
 20
2.9896
 10
200.216
 20
2.8774
 10
200.081
 20
2.7674
 10
199.945
 20
2.6595
 10
199.808
 20
2.5539
 10
199.67
 20
2.4504
 10
199.53
 20
2.3491
 10
199.39
 20
2.25
 10
199.248
 20
2.153
 10
199.105
 20
2.0583
 10
198.96
 20
1.9657
 10
198.815
 20
1.8753
 10
198.668
 20
1.7871
 10
198.52
 20
1.7011
 10
198.371
 20
1.6172
 10
198.221
 20
1.5356
 10
198.07
 20
1.4561
 10
197.917
 20
1.3788
 10
197.764
 20
1.3037
 10
197.609
 20
1.2307
 10
197.453
 20
1.16
 10
197.296
 20
1.0914
 10
197.137
 20
1.025
 10
196.978
 20
0.9608
 10
196.817
 20
0.8987000000000001
 10
196.655
 20
0.8389
 10
196.492
 20
0.7812
 10
196.327
 20
0.7257
 10
196.162
 20
0.6723
 10
195.995
 20
0.6212
 10
195.827
 20
0.5722
 10
195.658
 20
0.5254
 10
195.488
 20
0.4808
 10
195.317
 20
0.4384
 10
195.144
 20
0.3981
 10
194.97
 20
0.36
 10
194.795
 20
0.3241
 10
194.619
 20
0.2904
 10
194.442
 20
0.2589
 10
194.263
 20
0.2295
 10
194.084
 20
0.2023
 10
193.903
 20
0.1773
 10
193.721
 20
0.1545
 10
193.537
 20
0.1338
 10
193.353
 20
0.1153
 10
193.168
 20
0.099
 10
192.981
 20
0.0848
 10
192.793
 20
0.07290000000000001
 10
192.604
 20
0.0631
 10
192.413
 20
0.0555
 10
192.222
 20
0.05
 10
192.029
 20
0.0468
 10
191.835
 20
0.0457
 10
191.641
 20
0.0468
 10
191.448
 20
0.0501
 10
191.257
 20
0.0555
 10
191.066
 20
0.06320000000000001
 10
190.877
 20
0.073
 10
190.688
 20
0.08500000000000001
 10
190.501
 20
0.0992
 10
190.315
 20
0.1156
 10
190.131
 20
0.1342
 10
189.947
 20
0.1549
 10
189.765
 20
0.1779
 10
189.584
 20
0.203
 10
189.404
 20
0.2303
 10
189.225
 20
0.2598
 10
189.047
 20
0.2915
 10
188.871
 20
0.3253
 10
188.696
 20
0.3614
 10
188.522
 20
0.3996
 10
188.349
 20
0.44
 10
188.177
 20
0.4826
 10
188.007
 20
0.5274
 10
187.837
 20
0.5743
 10
187.669
 20
0.6234
 10
187.502
 20
0.6747
 10
187.336
 20
0.7282
 10
187.172
 20
0.7839
 10
187.008
 20
0.8418
 10
186.846
 20
0.9018
 10
186.685
 20
0.964
 10
186.525
 20
1.0284
 10
186.366
 20
1.095
 10
186.209
 20
1.1638
 10
186.052
 20
1.2347
 10
185.897
 20
1.3078
 10
185.743
 20
1.3831
 10
185.59
 20
1.4606
 10
185.439
 20
1.5403
 10
185.288
 20
1.6221
 10
185.139
 20
1.7061
 10
184.991
 20
1.7923
 10
184.844
 20
1.8807
 10
184.698
 20
1.9713
 10
184.554
 20
2.064
 10
184.41
 20
2.1589
 10
184.268
 20
2.256
 10
184.127
 20
2.3553
 10
183.987
 20
2.4567
 10
183.849
 20
2.5603
 10
183.711
 20
2.6661
 10
183.575
 20
2.7741
 10
183.44
 20
2.8843
 10
183.306
 20
2.9966
 10
183.173
 20
3.1111
 10
183.042
 20
3.2278
 10
182.911
 20
3.3466
 10
182.782
 20
3.4677
 10
182.654
 20
3.5909
 10
182.527
 20
3.7163
 10
182.401
 20
3.8438
 10
182.277
 20
3.9736
 10
182.154
 20
4.1055
 10
182.031
 20
4.2396
 10
181.911
 20
4.3759
 10
181.791
 20
4.5143
 10
181.673
 20
4.6549
 10
181.556
 20
4.7968
 10
181.441
 20
4.9401
 10
181.329
 20
5.0847
 10
181.218
 20
5.2307
 10
181.109
 20
5.3781
 10
181.002
 20
5.5268
 10
180.897
 20
5.6769
 10
180.793
 20
5.8283
 10
180.692
 20
5.9812
 10
180.592
 20
6.1353
 10
180.494
 20
6.2909
 10
180.398
 20
6.4478
 10
180.304
 20
6.606
 10
180.212
 20
6.7657
 10
180.122
 20
6.9266
 10
180.033
 20
7.089
 10
179.947
 20
7.2527
 10
179.862
 20
7.4178
 10
179.779
 20
7.5842
 10
179.698
 20
7.752
 10
179.619
 20
7.9212
 10
179.541
 20
8.091699999999999
 10
179.466
 20
8.2636
 10
179.392
 20
8.4369
 10
179.32
 20
8.611499999999999
 10
179.25
 20
8.7875
 10
179.183
 20
8.9649
 10
179.116
 20
9.143599999999999
 10
179.052
 20
9.323700000000001
 10
178.989
 20
9.5052
 10
178.929
 20
9.688000000000001
 10
178.87
 20
9.872199999999999
 10
178.813
 20
10.0577
 10
178.758
 20
10.2447
 10
178.705
 20
10.4329
 10
178.654
 20
10.6226
 10
178.605
 20
10.8136
 10
178.557
 20
11.006
 10
178.511
 20
11.1998
 10
178.467
 20
11.3949
 10
178.425
 20
11.5914
 10
178.385
 20
11.7892
 10
178.347
 20
11.9885
 10
178.311
 20
12.189
 10
178.276
 20
12.391
 10
178.244
 20
12.5943
 10
178.213
 20
12.799
 10
178.184
 20
13.0051
 10
178.157
 20
13.2125
 10
178.132
 20
13.4214
 10
178.108
 20
13.6315
 10
178.067
 20
14.056
 10
178.034
 20
14.4859
 10
178.008
 20
14.9213
 10
177.989
 20
15.3622
 10
177.978
 20
15.8086
 10
177.974
 20
16.2605
 10
177.978
 20
16.7123
 10
177.989
 20
17.1587
 10
178.008
 20
17.5995
 10
178.034
 20
18.0347
 10
178.067
 20
18.4645
 10
178.108
 20
18.8887
 10
178.132
 20
19.0987
 10
178.157
 20
19.3074
 10
178.184
 20
19.5146
 10
178.213
 20
19.7205
 10
178.244
 20
19.9251
 10
178.276
 20
20.1282
 10
178.311
 20
20.3299
 10
178.347
 20
20.5303
 10
178.385
 20
20.7293
 10
178.425
 20
20.9269
 10
178.467
 20
21.1232
 10
178.511
 20
21.318
 10
178.557
 20
21.5115
 10
178.605
 20
21.7036
 10
178.654
 20
21.8944
 10
178.705
 20
22.0837
 10
178.758
 20
22.2717
 10
178.813
 20
22.4583
 10
178.87
 20
22.6435
 10
178.929
 20
22.8273
 10
178.989
 20
23.0098
 10
179.052
 20
23.1909
 10
179.116
 20
23.3706
 10
179.183
 20
23.5489
 10
179.25
 20
23.7258
 10
179.32
 20
23.9014
 10
179.392
 20
24.0756
 10
179.466
 20
24.2484
 10
179.541
 20
24.4199
 10
179.619
 20
24.59
 10
179.698
 20
24.7587
 10
179.779
 20
24.926
 10
179.862
 20
25.0919
 10
179.947
 20
25.2565
 10
180.033
 20
25.4197
 10
180.122
 20
25.5815
 10
180.212
 20
25.742
 10
180.304
 20
25.9011
 10
180.398
 20
26.0588
 10
180.494
 20
26.2151
 10
180.592
 20
26.37
 10
180.692
 20
26.5236
 10
180.793
 20
26.6758
 10
180.897
 20
26.8267
 10
181.002
 20
26.9761
 10
181.109
 20
27.1242
 10
181.218
 20
27.2709
 10
181.329
 20
27.4163
 10
181.441
 20
27.5602
 10
181.556
 20
27.7028
 10
181.673
 20
27.844
 10
181.791
 20
27.9839
 10
181.91
 20
28.1212
 10
182.031
 20
28.2563
 10
182.152
 20
28.3893
 10
182.275
 20
28.5201
 10
182.399
 20
28.6488
 10
182.524
 20
28.7754
 10
182.651
 20
28.8998
 10
182.779
 20
29.022
 10
182.907
 20
29.1421
 10
183.037
 20
29.26
 10
183.168
 20
29.3758
 10
183.301
 20
29.4894
 10
183.434
 20
29.6009
 10
183.569
 20
29.7102
 10
183.704
 20
29.8174
 10
183.841
 20
29.9224
 10
181.16
 20
29.9213
 10
178.51
 20
29.9202
 10
175.893
 20
29.9191
 10
173.308
 20
29.918
 10
173.308
 20
28.3621
 10
173.308
 20
24.9391
 10
173.308
 20
21.5161
 10
173.308
 20
19.9602
 10
172.864
 20
19.9602
 10
171.887
 20
19.9602
 10
170.91
 20
19.9602
 10
170.465
 20
19.9602
 10
170.424
 20
20.2189
 10
170.379
 20
20.474
 10
170.332
 20
20.7254
 10
170.282
 20
20.9732
 10
170.229
 20
21.2174
 10
170.173
 20
21.458
 10
170.115
 20
21.695
 10
170.054
 20
21.9283
 10
169.99
 20
22.158
 10
169.924
 20
22.384
 10
169.855
 20
22.6064
 10
169.782
 20
22.8252
 10
169.708
 20
23.0403
 10
169.63
 20
23.2518
 10
169.55
 20
23.4596
 10
169.467
 20
23.6637
 10
169.381
 20
23.8642
 10
169.292
 20
24.0611
 10
169.201
 20
24.2543
 10
169.107
 20
24.4438
 10
169.01
 20
24.6296
 10
168.91
 20
24.8118
 10
168.808
 20
24.9903
 10
168.702
 20
25.1651
 10
168.594
 20
25.3362
 10
168.484
 20
25.5037
 10
168.37
 20
25.6674
 10
168.254
 20
25.8275
 10
168.135
 20
25.9839
 10
168.013
 20
26.1366
 10
167.888
 20
26.2856
 10
167.761
 20
26.4309
 10
167.631
 20
26.5721
 10
167.5
 20
26.7089
 10
167.366
 20
26.8412
 10
167.231
 20
26.969
 10
167.093
 20
27.0924
 10
166.953
 20
27.2113
 10
166.811
 20
27.3257
 10
166.667
 20
27.4357
 10
166.521
 20
27.5412
 10
166.373
 20
27.6422
 10
166.222
 20
27.7387
 10
166.07
 20
27.8308
 10
165.915
 20
27.9184
 10
165.758
 20
28.0015
 10
165.6
 20
28.0801
 10
165.439
 20
28.1542
 10
165.276
 20
28.2239
 10
165.111
 20
28.2891
 10
164.945
 20
28.3498
 10
164.775
 20
28.406
 10
164.605
 20
28.4577
 10
164.431
 20
28.5049
 10
164.256
 20
28.5476
 10
164.079
 20
28.5859
 10
163.9
 20
28.6196
 10
163.719
 20
28.6489
 10
163.535
 20
28.6736
 10
163.35
 20
28.6939
 10
163.162
 20
28.7096
 10
162.973
 20
28.7209
 10
162.782
 20
28.7276
 10
162.588
 20
28.7299
 10
162.448
 20
28.7289
 10
162.309
 20
28.7259
 10
162.172
 20
28.7209
 10
162.037
 20
28.7138
 10
161.904
 20
28.7048
 10
161.774
 20
28.6937
 10
161.645
 20
28.6807
 10
161.518
 20
28.6656
 10
161.393
 20
28.6484
 10
161.27
 20
28.6293
 10
161.149
 20
28.6082
 10
161.03
 20
28.585
 10
160.913
 20
28.5598
 10
160.798
 20
28.5326
 10
160.685
 20
28.5033
 10
160.575
 20
28.4721
 10
160.465
 20
28.4387
 10
160.359
 20
28.4034
 10
160.254
 20
28.366
 10
160.151
 20
28.3266
 10
160.05
 20
28.2852
 10
159.951
 20
28.2417
 10
159.854
 20
28.1962
 10
159.759
 20
28.1486
 10
159.666
 20
28.099
 10
159.575
 20
28.0474
 10
159.486
 20
27.9937
 10
159.399
 20
27.938
 10
159.314
 20
27.8802
 10
159.231
 20
27.8204
 10
159.15
 20
27.7585
 10
159.071
 20
27.6946
 10
158.995
 20
27.6289
 10
158.921
 20
27.5615
 10
158.849
 20
27.4926
 10
158.779
 20
27.422
 10
158.713
 20
27.3499
 10
158.648
 20
27.2761
 10
158.586
 20
27.2007
 10
158.527
 20
27.1238
 10
158.47
 20
27.0453
 10
158.415
 20
26.9651
 10
158.363
 20
26.8834
 10
158.313
 20
26.8001
 10
158.266
 20
26.7152
 10
158.221
 20
26.6287
 10
158.178
 20
26.5406
 10
158.138
 20
26.4509
 10
158.101
 20
26.3597
 10
158.065
 20
26.2668
 10
158.033
 20
26.1724
 10
158.002
 20
26.0764
 10
157.975
 20
25.9789
 10
157.949
 20
25.8797
 10
157.926
 20
25.779
 10
157.906
 20
25.6767
 10
157.887
 20
25.5728
 10
157.872
 20
25.4674
 10
157.858
 20
25.3604
 10
157.848
 20
25.2518
 10
157.839
 20
25.1416
 10
157.833
 20
25.0299
 10
157.829
 20
24.9166
 10
157.828
 20
24.8018
 10
157.832
 20
24.6088
 10
157.842
 20
24.4207
 10
157.859
 20
24.2376
 10
157.883
 20
24.0595
 10
157.914
 20
23.8863
 10
157.952
 20
23.718
 10
157.997
 20
23.5547
 10
158.022
 20
23.4749
 10
158.048
 20
23.3963
 10
158.077
 20
23.319
 10
158.107
 20
23.2428
 10
158.139
 20
23.1679
 10
158.172
 20
23.0943
 10
158.208
 20
23.0218
 10
158.245
 20
22.9506
 10
158.283
 20
22.8805
 10
158.324
 20
22.8117
 10
158.366
 20
22.7441
 10
158.41
 20
22.6777
 10
158.455
 20
22.6126
 10
158.503
 20
22.5486
 10
158.552
 20
22.4859
 10
158.602
 20
22.4243
 10
158.655
 20
22.364
 10
158.709
 20
22.3049
 10
158.823
 20
22.1894
 10
158.946
 20
22.0769
 10
159.076
 20
21.9675
 10
159.215
 20
21.8611
 10
159.362
 20
21.7579
 10
159.518
 20
21.6577
 10
159.681
 20
21.5606
 10
159.853
 20
21.4666
 10
160.033
 20
21.3757
 10
160.221
 20
21.288
 10
160.418
 20
21.2034
 10
160.623
 20
21.122
 10
160.836
 20
21.0438
 10
161.058
 20
20.9687
 10
161.288
 20
20.8968
 10
161.526
 20
20.8281
 10
162.319
 20
20.6057
 10
164.062
 20
20.1163
 10
165.806
 20
19.6269
 10
166.599
 20
19.4045
 10
166.849
 20
19.3333
 10
167.094
 20
19.2597
 10
167.336
 20
19.1836
 10
167.574
 20
19.1051
 10
167.808
 20
19.0241
 10
168.038
 20
18.9407
 10
168.264
 20
18.8548
 10
168.487
 20
18.7665
 10
168.705
 20
18.6757
 10
168.919
 20
18.5824
 10
169.129
 20
18.4867
 10
169.336
 20
18.3886
 10
169.538
 20
18.288
 10
169.736
 20
18.1849
 10
169.931
 20
18.0794
 10
170.121
 20
17.9714
 10
170.308
 20
17.861
 10
170.49
 20
17.7481
 10
170.668
 20
17.6328
 10
170.843
 20
17.515
 10
171.013
 20
17.3948
 10
171.18
 20
17.2721
 10
171.343
 20
17.147
 10
171.501
 20
17.0194
 10
171.656
 20
16.8893
 10
171.807
 20
16.7568
 10
171.953
 20
16.6219
 10
172.096
 20
16.4845
 10
172.235
 20
16.3446
 10
172.369
 20
16.2023
 10
172.5
 20
16.0575
 10
172.627
 20
15.9103
 10
172.75
 20
15.7606
 10
172.868
 20
15.6083
 10
172.983
 20
15.4535
 10
173.094
 20
15.2962
 10
173.202
 20
15.1363
 10
173.305
 20
14.9739
 10
173.404
 20
14.8089
 10
173.499
 20
14.6414
 10
173.591
 20
14.4713
 10
173.679
 20
14.2987
 10
173.762
 20
14.1236
 10
173.842
 20
13.9459
 10
173.918
 20
13.7657
 10
173.99
 20
13.5829
 10
174.058
 20
13.3976
 10
174.122
 20
13.2098
 10
174.182
 20
13.0194
 10
174.239
 20
12.8264
 10
174.291
 20
12.6309
 10
174.34
 20
12.4329
 10
174.384
 20
12.2324
 10
174.425
 20
12.0292
 10
174.462
 20
11.8236
 10
174.495
 20
11.6154
 10
174.524
 20
11.4047
 10
174.549
 20
11.1914
 10
174.571
 20
10.9756
 10
174.588
 20
10.7572
 10
174.602
 20
10.5363
 10
174.612
 20
10.3128
 10
174.618
 20
10.0868
 10
174.619
 20
9.8583
 10
174.617
 20
9.587899999999999
 10
174.609
 20
9.3207
 10
174.596
 20
9.0566
 10
174.578
 20
8.7956
 10
174.555
 20
8.537800000000001
 10
174.527
 20
8.282999999999999
 10
174.494
 20
8.0314
 10
174.456
 20
7.7829
 10
174.412
 20
7.5375
 10
174.363
 20
7.2953
 10
174.31
 20
7.0562
 10
174.251
 20
6.8202
 10
174.187
 20
6.5873
 10
174.118
 20
6.3575
 10
174.044
 20
6.1309
 10
173.964
 20
5.9074
 10
173.88
 20
5.687
 10
173.791
 20
5.4697
 10
173.696
 20
5.2555
 10
173.596
 20
5.0445
 10
173.491
 20
4.8366
 10
173.381
 20
4.6318
 10
173.266
 20
4.4302
 10
173.146
 20
4.2316
 10
173.021
 20
4.0362
 10
172.891
 20
3.8439
 10
172.756
 20
3.6547
 10
172.615
 20
3.4687
 10
172.469
 20
3.2858
 10
172.319
 20
3.106
 10
172.163
 20
2.9293
 10
172.002
 20
2.7557
 10
171.837
 20
2.5864
 10
171.668
 20
2.4224
 10
171.497
 20
2.2638
 10
171.322
 20
2.1106
 10
171.145
 20
1.9627
 10
170.964
 20
1.8201
 10
170.781
 20
1.683
 10
170.594
 20
1.5512
 10
170.405
 20
1.4247
 10
170.212
 20
1.3036
 10
170.016
 20
1.1879
 10
169.818
 20
1.0776
 10
169.616
 20
0.9726
 10
169.411
 20
0.873
 10
169.203
 20
0.7786999999999999
 10
168.993
 20
0.6899
 10
168.779
 20
0.6064000000000001
 10
168.562
 20
0.5283
 10
168.342
 20
0.4555
 10
168.119
 20
0.3882
 10
167.893
 20
0.3262
 10
167.664
 20
0.2696
 10
167.432
 20
0.2184
 10
167.197
 20
0.1726
 10
166.959
 20
0.1321
 10
166.718
 20
0.09710000000000001
 10
166.473
 20
0.0674
 10
166.226
 20
0.0432
 10
165.975
 20
0.0243
 10
165.722
 20
0.0108
 10
165.465
 20
0.0027
 10
165.206
 20
0
 10
164.943
 20
0.0037
 10
164.681
 20
0.0146
 10
164.419
 20
0.0329
 10
164.157
 20
0.0585
 10
163.896
 20
0.0914
 10
163.634
 20
0.1317
 10
163.373
 20
0.1792
 10
163.112
 20
0.2341
 10
162.851
 20
0.2963
 10
162.591
 20
0.3657
 10
162.331
 20
0.4425
 10
162.07
 20
0.5266999999999999
 10
161.811
 20
0.6181
 10
161.551
 20
0.7169
 10
161.292
 20
0.8229
 10
161.033
 20
0.9363
 10
160.774
 20
1.0573
 10
160.514
 20
1.1861
 10
160.255
 20
1.3227
 10
159.995
 20
1.4671
 10
159.734
 20
1.6192
 10
159.474
 20
1.7791
 10
159.213
 20
1.9467
 10
158.951
 20
2.122
 10
158.689
 20
2.305
 10
158.427
 20
2.4956
 10
158.164
 20
2.6939
 10
157.9
 20
2.8997
 10
157.636
 20
3.1131
 10
157.372
 20
3.3341
 10
157.107
 20
3.5627
 10
156.841
 20
3.7987
 10
156.713
 20
3.3479
 10
156.429
 20
2.3561
 10
156.145
 20
1.3643
 10
156.017
 20
0.9135
 10
155.615
 20
0.9135
 10
154.73
 20
0.9135
 10
153.845
 20
0.9135
 10
153.443
 20
0.9135
 10
153.443
 20
2.8904
 10
153.443
 20
7.2396
 10
153.443
 20
11.5887
 10
153.443
 20
13.5656
 10
153.9
 20
13.5656
 10
154.905
 20
13.5656
 10
155.91
 20
13.5656
 10
156.367
 20
13.5656
 10
156.405
 20
13.2822
 10
156.448
 20
13.003
 10
156.493
 20
12.7281
 10
156.541
 20
12.4573
 10
156.593
 20
12.1907
 10
156.647
 20
11.9283
 10
156.705
 20
11.67
 10
156.766
 20
11.416
 10
156.83
 20
11.1662
 10
156.897
 20
10.9205
 10
156.967
 20
10.6791
 10
157.04
 20
10.4418
 10
157.116
 20
10.2088
 10
157.196
 20
9.979900000000001
 10
157.278
 20
9.7552
 10
157.364
 20
9.534800000000001
 10
157.452
 20
9.3185
 10
157.544
 20
9.106400000000001
 10
157.639
 20
8.8985
 10
157.737
 20
8.694800000000001
 10
157.838
 20
8.495200000000001
 10
157.942
 20
8.299899999999999
 10
158.049
 20
8.1088
 10
158.159
 20
7.9218
 10
158.273
 20
7.7391
 10
158.389
 20
7.5605
 10
158.509
 20
7.3862
 10
158.631
 20
7.216
 10
158.757
 20
7.0501
 10
158.886
 20
6.8883
 10
159.018
 20
6.7307
 10
159.153
 20
6.5773
 10
159.29
 20
6.4284
 10
159.429
 20
6.2842
 10
159.572
 20
6.1447
 10
159.716
 20
6.0099
 10
159.864
 20
5.8799
 10
160.014
 20
5.7546
 10
160.166
 20
5.634
 10
160.321
 20
5.5182
 10
160.479
 20
5.4071
 10
160.639
 20
5.3007
 10
160.802
 20
5.199
 10
160.967
 20
5.1021
 10
161.135
 20
5.0099
 10
161.305
 20
4.9224
 10
161.478
 20
4.8397
 10
161.654
 20
4.7617
 10
161.832
 20
4.6884
 10
162.012
 20
4.6198
 10
162.195
 20
4.556
 10
162.381
 20
4.4969
 10
162.569
 20
4.4425
 10
162.76
 20
4.3929
 10
162.953
 20
4.348
 10
163.149
 20
4.3078
 10
163.347
 20
4.2723
 10
163.548
 20
4.2416
 10
163.751
 20
4.2156
 10
163.957
 20
4.1943
 10
164.165
 20
4.1778
 10
164.376
 20
4.166
 10
164.59
 20
4.1589
 10
164.806
 20
4.1565
 10
164.962
 20
4.1575
 10
165.115
 20
4.1605
 10
165.266
 20
4.1655
 10
165.415
 20
4.1726
 10
165.562
 20
4.1816
 10
165.706
 20
4.1926
 10
165.848
 20
4.2057
 10
165.988
 20
4.2207
 10
166.125
 20
4.2378
 10
166.26
 20
4.2568
 10
166.393
 20
4.2779
 10
166.523
 20
4.301
 10
166.651
 20
4.3261
 10
166.777
 20
4.3532
 10
166.9
 20
4.3823
 10
167.021
 20
4.4134
 10
167.14
 20
4.4465
 10
167.256
 20
4.4816
 10
167.37
 20
4.5188
 10
167.482
 20
4.5579
 10
167.592
 20
4.5991
 10
167.699
 20
4.6422
 10
167.804
 20
4.6874
 10
167.906
 20
4.7346
 10
168.006
 20
4.7837
 10
168.104
 20
4.8349
 10
168.199
 20
4.8881
 10
168.292
 20
4.9433
 10
168.383
 20
5.0005
 10
168.472
 20
5.0597
 10
168.558
 20
5.121
 10
168.641
 20
5.1842
 10
168.723
 20
5.2493
 10
168.803
 20
5.3161
 10
168.879
 20
5.3847
 10
168.953
 20
5.4551
 10
169.025
 20
5.5271
 10
169.094
 20
5.601
 10
169.16
 20
5.6766
 10
169.224
 20
5.7539
 10
169.285
 20
5.833
 10
169.343
 20
5.9139
 10
169.399
 20
5.9966
 10
169.452
 20
6.081
 10
169.503
 20
6.1672
 10
169.551
 20
6.2552
 10
169.596
 20
6.3449
 10
169.639
 20
6.4364
 10
169.68
 20
6.5298
 10
169.717
 20
6.6249
 10
169.752
 20
6.7217
 10
169.785
 20
6.8204
 10
169.815
 20
6.9209
 10
169.842
 20
7.0232
 10
169.867
 20
7.1273
 10
169.889
 20
7.2331
 10
169.908
 20
7.3408
 10
169.925
 20
7.4503
 10
169.939
 20
7.5617
 10
169.951
 20
7.6748
 10
169.96
 20
7.7897
 10
169.967
 20
7.9065
 10
169.971
 20
8.0251
 10
169.972
 20
8.1455
 10
169.971
 20
8.254
 10
169.968
 20
8.3613
 10
169.963
 20
8.4673
 10
169.956
 20
8.571899999999999
 10
169.947
 20
8.6753
 10
169.936
 20
8.7774
 10
169.923
 20
8.8782
 10
169.909
 20
8.977600000000001
 10
169.892
 20
9.075799999999999
 10
169.873
 20
9.172700000000001
 10
169.852
 20
9.2684
 10
169.829
 20
9.3627
 10
169.804
 20
9.4557
 10
169.778
 20
9.5474
 10
169.749
 20
9.6379
 10
169.718
 20
9.727
 10
169.685
 20
9.8149
 10
169.651
 20
9.901400000000001
 10
169.614
 20
9.986700000000001
 10
169.575
 20
10.0707
 10
169.534
 20
10.1533
 10
169.492
 20
10.2347
 10
169.447
 20
10.3148
 10
169.4
 20
10.3936
 10
169.351
 20
10.4711
 10
169.3
 20
10.5473
 10
169.248
 20
10.6222
 10
169.193
 20
10.6959
 10
169.136
 20
10.7682
 10
169.077
 20
10.8392
 10
169.017
 20
10.909
 10
168.954
 20
10.9774
 10
168.889
 20
11.0454
 10
168.822
 20
11.1126
 10
168.753
 20
11.1787
 10
168.681
 20
11.244
 10
168.607
 20
11.3083
 10
168.531
 20
11.3717
 10
168.452
 20
11.4341
 10
168.371
 20
11.4956
 10
168.287
 20
11.5562
 10
168.201
 20
11.6159
 10
168.112
 20
11.6747
 10
168.022
 20
11.7325
 10
167.928
 20
11.7894
 10
167.833
 20
11.8454
 10
167.634
 20
11.9546
 10
167.426
 20
12.0602
 10
167.209
 20
12.1621
 10
166.982
 20
12.2604
 10
166.745
 20
12.3551
 10
166.499
 20
12.4462
 10
166.244
 20
12.5336
 10
165.98
 20
12.6175
 10
165.705
 20
12.6978
 10
165.067
 20
12.8786
 10
163.663
 20
13.2764
 10
162.258
 20
13.6741
 10
161.62
 20
13.8549
 10
161.348
 20
13.9336
 10
161.08
 20
14.014
 10
160.818
 20
14.0961
 10
160.56
 20
14.18
 10
160.307
 20
14.2656
 10
160.059
 20
14.353
 10
159.816
 20
14.4421
 10
159.577
 20
14.5329
 10
159.344
 20
14.6255
 10
159.115
 20
14.7198
 10
158.891
 20
14.8159
 10
158.672
 20
14.9137
 10
158.457
 20
15.0132
 10
158.248
 20
15.1145
 10
158.043
 20
15.2175
 10
157.843
 20
15.3223
 10
157.648
 20
15.4288
 10
157.458
 20
15.537
 10
157.272
 20
15.647
 10
157.092
 20
15.7587
 10
156.916
 20
15.8721
 10
156.745
 20
15.9873
 10
156.578
 20
16.1043
 10
156.417
 20
16.2229
 10
156.26
 20
16.3433
 10
156.109
 20
16.4655
 10
155.962
 20
16.5894
 10
155.819
 20
16.715
 10
155.682
 20
16.8424
 10
155.549
 20
16.9715
 10
155.421
 20
17.1023
 10
155.298
 20
17.2349
 10
155.18
 20
17.3691
 10
155.065
 20
17.5061
 10
154.953
 20
17.646
 10
154.846
 20
17.7887
 10
154.742
 20
17.9343
 10
154.642
 20
18.0827
 10
154.546
 20
18.2339
 10
154.454
 20
18.388
 10
154.365
 20
18.5449
 10
154.28
 20
18.7046
 10
154.199
 20
18.8672
 10
154.122
 20
19.0326
 10
154.049
 20
19.2008
 10
153.979
 20
19.3718
 10
153.913
 20
19.5457
 10
153.851
 20
19.7223
 10
153.792
 20
19.9018
 10
153.738
 20
20.0841
 10
153.687
 20
20.2692
 10
153.639
 20
20.457
 10
153.596
 20
20.6477
 10
153.557
 20
20.8412
 10
153.521
 20
21.0375
 10
153.489
 20
21.2365
 10
153.46
 20
21.4384
 10
153.436
 20
21.643
 10
153.415
 20
21.8504
 10
153.398
 20
22.0606
 10
153.385
 20
22.2736
 10
153.376
 20
22.4893
 10
153.37
 20
22.7078
 10
153.368
 20
22.9291
 10
153.37
 20
23.1979
 10
153.378
 20
23.4634
 10
153.39
 20
23.7255
 10
153.407
 20
23.9843
 10
153.429
 20
24.2397
 10
153.455
 20
24.4918
 10
153.487
 20
24.7405
 10
153.523
 20
24.9858
 10
153.564
 20
25.2278
 10
153.61
 20
25.4665
 10
153.66
 20
25.7017
 10
153.716
 20
25.9337
 10
153.776
 20
26.1622
 10
153.842
 20
26.3874
 10
153.912
 20
26.6092
 10
153.987
 20
26.8277
 10
154.066
 20
27.0428
 10
154.151
 20
27.2545
 10
154.24
 20
27.4629
 10
154.334
 20
27.6679
 10
154.433
 20
27.8695
 10
154.537
 20
28.0677
 10
154.646
 20
28.2626
 10
154.76
 20
28.4541
 10
154.878
 20
28.6422
 10
155.001
 20
28.8269
 10
155.129
 20
29.0082
 10
155.262
 20
29.1862
 10
155.4
 20
29.3608
 10
155.542
 20
29.532
 10
155.69
 20
29.6998
 10
155.842
 20
29.8642
 10
155.853
 20
29.8759
 10
155.864
 20
29.8875
 10
155.875
 20
29.8991
 10
155.886
 20
29.9107
 10
151.799
 20
29.909
 10
147.814
 20
29.9073
 10
143.928
 20
29.9057
 10
140.144
 20
29.904
 10
140.144
 20
29.6206
 10
140.144
 20
28.9973
 10
140.144
 20
28.3739
 10
140.144
 20
28.0905
 10
139.869
 20
28.0905
 10
139.263
 20
28.0905
 10
138.657
 20
28.0905
 10
138.382
 20
28.0905
 10
138.176
 20
28.0886
 10
137.98
 20
28.083
 10
137.794
 20
28.0736
 10
137.619
 20
28.0604
 10
137.452
 20
28.0434
 10
137.296
 20
28.0226
 10
137.15
 20
27.9981
 10
137.014
 20
27.9696
 10
136.888
 20
27.9374
 10
136.772
 20
27.9013
 10
136.665
 20
27.8613
 10
136.569
 20
27.8175
 10
136.525
 20
27.7941
 10
136.483
 20
27.7698
 10
136.443
 20
27.7445
 10
136.406
 20
27.7182
 10
136.372
 20
27.6909
 10
136.34
 20
27.6627
 10
136.31
 20
27.6335
 10
136.283
 20
27.6033
 10
136.258
 20
27.5713
 10
136.233
 20
27.5366
 10
136.21
 20
27.4992
 10
136.187
 20
27.4591
 10
136.143
 20
27.371
 10
136.103
 20
27.2722
 10
136.066
 20
27.1628
 10
136.032
 20
27.0427
 10
136.001
 20
26.912
 10
135.974
 20
26.7706
 10
135.95
 20
26.6187
 10
135.929
 20
26.4561
 10
135.911
 20
26.2829
 10
135.897
 20
26.0992
 10
135.885
 20
25.9049
 10
135.877
 20
25.7
 10
135.873
 20
25.4846
 10
135.871
 20
25.2586
 10
135.871
 20
21.9971
 10
135.871
 20
14.8217
 10
135.871
 20
7.6463
 10
135.871
 20
4.3848
 10
136.604
 20
4.3848
 10
138.217
 20
4.3848
 10
139.829
 20
4.3848
 10
140.562
 20
4.3848
 10
140.871
 20
4.3869
 10
141.17
 20
4.393
 10
141.459
 20
4.4033
 10
141.738
 20
4.4176
 10
142.007
 20
4.4361
 10
142.267
 20
4.4587
 10
142.516
 20
4.4853
 10
142.756
 20
4.5161
 10
142.985
 20
4.551
 10
143.205
 20
4.59
 10
143.415
 20
4.6331
 10
143.615
 20
4.6803
 10
143.805
 20
4.7316
 10
143.985
 20
4.787
 10
144.156
 20
4.8465
 10
144.317
 20
4.9101
 10
144.47
 20
4.9785
 10
144.617
 20
5.0525
 10
144.759
 20
5.1319
 10
144.895
 20
5.2169
 10
145.026
 20
5.3073
 10
145.152
 20
5.4032
 10
145.272
 20
5.5046
 10
145.386
 20
5.6114
 10
145.495
 20
5.7237
 10
145.599
 20
5.8414
 10
145.698
 20
5.9645
 10
145.791
 20
6.0931
 10
145.878
 20
6.227
 10
145.961
 20
6.3663
 10
146.038
 20
6.511
 10
146.109
 20
6.661
 10
146.175
 20
6.8114
 10
146.238
 20
6.9657
 10
146.3
 20
7.124
 10
146.359
 20
7.2862
 10
146.416
 20
7.4523
 10
146.47
 20
7.6223
 10
146.523
 20
7.7963
 10
146.573
 20
7.9742
 10
146.621
 20
8.156000000000001
 10
146.667
 20
8.341699999999999
 10
146.711
 20
8.5314
 10
146.752
 20
8.725
 10
146.792
 20
8.922499999999999
 10
146.829
 20
9.123900000000001
 10
146.864
 20
9.3293
 10
146.897
 20
9.538600000000001
 10
146.927
 20
9.7539
 10
146.956
 20
9.974299999999999
 10
146.983
 20
10.1999
 10
147.008
 20
10.4307
 10
147.031
 20
10.6667
 10
147.052
 20
10.9078
 10
147.071
 20
11.1541
 10
147.088
 20
11.4056
 10
147.103
 20
11.6622
 10
147.116
 20
11.9241
 10
147.127
 20
12.1911
 10
147.136
 20
12.4632
 10
147.143
 20
12.7406
 10
147.149
 20
13.0231
 10
147.152
 20
13.3108
 10
147.153
 20
13.6037
 10
147.153
 20
13.6905
 10
147.153
 20
13.8816
 10
147.153
 20
14.0726
 10
147.153
 20
14.1594
 10
147.603
 20
14.1594
 10
148.596
 20
14.1594
 10
149.588
 20
14.1594
 10
150.038
 20
14.1594
 10
150.038
 20
12.0897
 10
150.038
 20
7.5365
 10
150.038
 20
2.9832
 10
150.038
 20
0.9135
 10
146.384
 20
0.9135
 10
138.345
 20
0.9135
 10
130.305
 20
0.9135
 10
126.651
 20
0.9135
 10
126.651
 20
1.4559
 10
126.651
 20
2.6492
 10
126.651
 20
3.8424
 10
126.651
 20
4.3848
 10
126.879
 20
4.3848
 10
127.382
 20
4.3848
 10
127.884
 20
4.3848
 10
128.113
 20
4.3848
 10
128.316
 20
4.3867
 10
128.51
 20
4.3923
 10
128.694
 20
4.4017
 10
128.868
 20
4.4148
 10
129.032
 20
4.4316
 10
129.186
 20
4.4523
 10
129.331
 20
4.4766
 10
129.466
 20
4.5047
 10
129.59
 20
4.5366
 10
129.705
 20
4.5722
 10
129.81
 20
4.6115
 10
129.905
 20
4.6546
 10
129.949
 20
4.6775
 10
129.991
 20
4.7014
 10
130.03
 20
4.7262
 10
130.066
 20
4.752
 10
130.1
 20
4.7787
 10
130.131
 20
4.8063
 10
130.16
 20
4.8349
 10
130.186
 20
4.8644
 10
130.211
 20
4.8957
 10
130.235
 20
4.9298
 10
130.258
 20
4.9666
 10
130.281
 20
5.0061
 10
130.323
 20
5.0933
 10
130.362
 20
5.1913
 10
130.398
 20
5.3002
 10
130.431
 20
5.4201
 10
130.461
 20
5.5507
 10
130.487
 20
5.6923
 10
130.51
 20
5.8448
 10
130.53
 20
6.0081
 10
130.548
 20
6.1824
 10
130.561
 20
6.3675
 10
130.572
 20
6.5634
 10
130.58
 20
6.7703
 10
130.585
 20
6.9881
 10
130.586
 20
7.2167
 10
130.586
 20
10.0357
 10
130.586
 20
16.2377
 10
130.586
 20
22.4396
 10
130.586
 20
25.2586
 10
130.585
 20
25.4873
 10
130.58
 20
25.705
 10
130.572
 20
25.9119
 10
130.561
 20
26.1079
 10
130.548
 20
26.293
 10
130.53
 20
26.4672
 10
130.51
 20
26.6306
 10
130.487
 20
26.7831
 10
130.461
 20
26.9246
 10
130.431
 20
27.0553
 10
130.398
 20
27.1751
 10
130.362
 20
27.2841
 10
130.323
 20
27.3821
 10
130.281
 20
27.4692
 10
130.258
 20
27.5087
 10
130.235
 20
27.5455
 10
130.211
 20
27.5796
 10
130.186
 20
27.6109
 10
130.16
 20
27.6404
 10
130.131
 20
27.669
 10
130.1
 20
27.6966
 10
130.066
 20
27.7233
 10
130.03
 20
27.7491
 10
129.991
 20
27.7739
 10
129.949
 20
27.7978
 10
129.905
 20
27.8207
 10
129.81
 20
27.8638
 10
129.705
 20
27.9031
 10
129.59
 20
27.9387
 10
129.466
 20
27.9706
 10
129.331
 20
27.9987
 10
129.186
 20
28.023
 10
129.032
 20
28.0437
 10
128.868
 20
28.0605
 10
128.694
 20
28.0736
 10
128.51
 20
28.083
 10
128.316
 20
28.0886
 10
128.113
 20
28.0905
 10
127.884
 20
28.0905
 10
127.382
 20
28.0905
 10
126.879
 20
28.0905
 10
126.651
 20
28.0905
 10
126.651
 20
28.373
 10
126.651
 20
28.9945
 10
126.651
 20
29.6159
 10
126.651
 20
29.8984
 10
124.588
 20
29.8976
 10
122.563
 20
29.8967
 10
120.578
 20
29.8958
 10
118.631
 20
29.895
 10
118.766
 20
29.7912
 10
118.899
 20
29.6853
 10
119.031
 20
29.5774
 10
119.161
 20
29.4674
 10
119.291
 20
29.3553
 10
119.42
 20
29.2411
 10
119.547
 20
29.1248
 10
119.673
 20
29.0065
 10
119.798
 20
28.8861
 10
119.922
 20
28.7635
 10
120.045
 20
28.6389
 10
120.167
 20
28.5121
 10
120.287
 20
28.3833
 10
120.406
 20
28.2523
 10
120.525
 20
28.1191
 10
120.641
 20
27.9839
 10
120.759
 20
27.8441
 10
120.875
 20
27.7029
 10
120.989
 20
27.5604
 10
121.101
 20
27.4165
 10
121.212
 20
27.2712
 10
121.32
 20
27.1245
 10
121.427
 20
26.9765
 10
121.531
 20
26.827
 10
121.634
 20
26.6762
 10
121.735
 20
26.524
 10
121.835
 20
26.3705
 10
121.932
 20
26.2156
 10
122.027
 20
26.0593
 10
122.121
 20
25.9016
 10
122.213
 20
25.7425
 10
122.303
 20
25.5821
 10
122.391
 20
25.4203
 10
122.477
 20
25.2571
 10
122.561
 20
25.0925
 10
122.644
 20
24.9266
 10
122.725
 20
24.7592
 10
122.803
 20
24.5905
 10
122.88
 20
24.4205
 10
122.956
 20
24.249
 10
123.029
 20
24.0762
 10
123.1
 20
23.902
 10
123.17
 20
23.7264
 10
123.237
 20
23.5494
 10
123.303
 20
23.3711
 10
123.367
 20
23.1914
 10
123.429
 20
23.0103
 10
123.49
 20
22.8278
 10
123.548
 20
22.6439
 10
123.605
 20
22.4587
 10
123.659
 20
22.2721
 10
123.712
 20
22.0841
 10
123.763
 20
21.8948
 10
123.812
 20
21.704
 10
123.86
 20
21.5119
 10
123.905
 20
21.3184
 10
123.949
 20
21.1235
 10
123.99
 20
20.9272
 10
124.03
 20
20.7296
 10
124.068
 20
20.5306
 10
124.105
 20
20.3302
 10
124.139
 20
20.1284
 10
124.171
 20
19.9253
 10
124.202
 20
19.7207
 10
124.231
 20
19.5148
 10
124.258
 20
19.3075
 10
124.283
 20
19.0988
 10
124.306
 20
18.8888
 10
124.347
 20
18.4645
 10
124.38
 20
18.0348
 10
124.406
 20
17.5995
 10
124.425
 20
17.1587
 10
124.436
 20
16.7124
 10
124.439
 20
16.2605
 10
124.436
 20
15.8072
 10
124.425
 20
15.3596
 10
124.406
 20
14.9174
 10
124.38
 20
14.4809
 10
124.347
 20
14.0499
 10
124.306
 20
13.6245
 10
124.282
 20
13.4139
 10
124.257
 20
13.2046
 10
124.23
 20
12.9968
 10
124.202
 20
12.7903
 10
124.171
 20
12.5853
 10
124.138
 20
12.3816
 10
124.104
 20
12.1793
 10
124.068
 20
11.9784
 10
124.03
 20
11.7789
 10
123.99
 20
11.5807
 10
123.948
 20
11.384
 10
123.904
 20
11.1886
 10
123.859
 20
10.9946
 10
123.811
 20
10.8021
 10
123.762
 20
10.6108
 10
123.711
 20
10.421
 10
123.658
 20
10.2326
 10
123.603
 20
10.0455
 10
123.546
 20
9.8599
 10
123.488
 20
9.675599999999999
 10
123.427
 20
9.492699999999999
 10
123.365
 20
9.311199999999999
 10
123.301
 20
9.131
 10
123.235
 20
8.952299999999999
 10
123.167
 20
8.774900000000001
 10
123.097
 20
8.5989
 10
123.025
 20
8.424300000000001
 10
122.952
 20
8.251099999999999
 10
122.876
 20
8.0792
 10
122.799
 20
7.9087
 10
122.72
 20
7.7396
 10
122.639
 20
7.5719
 10
122.556
 20
7.4056
 10
122.472
 20
7.2406
 10
122.385
 20
7.077
 10
122.297
 20
6.9148
 10
122.207
 20
6.754
 10
122.115
 20
6.5946
 10
122.02
 20
6.4365
 10
121.925
 20
6.2798
 10
121.827
 20
6.1245
 10
121.727
 20
5.9705
 10
121.626
 20
5.8179
 10
121.523
 20
5.6667
 10
121.417
 20
5.5169
 10
121.31
 20
5.3685
 10
121.201
 20
5.2214
 10
121.091
 20
5.0757
 10
120.978
 20
4.9314
 10
120.864
 20
4.7884
 10
120.747
 20
4.6468
 10
120.629
 20
4.5066
 10
120.509
 20
4.3682
 10
120.389
 20
4.2319
 10
120.267
 20
4.0979
 10
120.144
 20
3.966
 10
120.02
 20
3.8363
 10
119.894
 20
3.7088
 10
119.768
 20
3.5835
 10
119.64
 20
3.4603
 10
119.511
 20
3.3394
 10
119.381
 20
3.2206
 10
119.25
 20
3.104
 10
119.117
 20
2.9896
 10
118.984
 20
2.8774
 10
118.849
 20
2.7674
 10
118.713
 20
2.6595
 10
118.576
 20
2.5539
 10
118.437
 20
2.4504
 10
118.298
 20
2.3491
 10
118.157
 20
2.25
 10
118.015
 20
2.153
 10
117.872
 20
2.0583
 10
117.728
 20
1.9657
 10
117.582
 20
1.8753
 10
117.436
 20
1.7871
 10
117.288
 20
1.7011
 10
117.139
 20
1.6172
 10
116.989
 20
1.5356
 10
116.838
 20
1.4561
 10
116.685
 20
1.3788
 10
116.531
 20
1.3037
 10
116.376
 20
1.2307
 10
116.22
 20
1.16
 10
116.063
 20
1.0914
 10
115.905
 20
1.025
 10
115.745
 20
0.9608
 10
115.584
 20
0.8987000000000001
 10
115.422
 20
0.8389
 10
115.259
 20
0.7812
 10
115.095
 20
0.7257
 10
114.929
 20
0.6723
 10
114.763
 20
0.6212
 10
114.595
 20
0.5722
 10
114.426
 20
0.5254
 10
114.255
 20
0.4808
 10
114.084
 20
0.4384
 10
113.911
 20
0.3981
 10
113.738
 20
0.36
 10
113.563
 20
0.3241
 10
113.386
 20
0.2904
 10
113.209
 20
0.2589
 10
113.031
 20
0.2295
 10
112.851
 20
0.2023
 10
112.67
 20
0.1773
 10
112.488
 20
0.1545
 10
112.305
 20
0.1338
 10
112.121
 20
0.1153
 10
111.935
 20
0.099
 10
111.748
 20
0.0848
 10
111.56
 20
0.07290000000000001
 10
111.371
 20
0.0631
 10
111.181
 20
0.0555
 10
110.989
 20
0.05
 10
110.797
 20
0.0468
 10
110.603
 20
0.0457
 10
110.409
 20
0.0468
 10
110.216
 20
0.0501
 10
110.024
 20
0.0555
 10
109.834
 20
0.06320000000000001
 10
109.644
 20
0.073
 10
109.456
 20
0.08500000000000001
 10
109.269
 20
0.0992
 10
109.083
 20
0.1156
 10
108.898
 20
0.1342
 10
108.715
 20
0.1549
 10
108.532
 20
0.1779
 10
108.351
 20
0.203
 10
108.171
 20
0.2303
 10
107.993
 20
0.2598
 10
107.815
 20
0.2915
 10
107.638
 20
0.3253
 10
107.463
 20
0.3614
 10
107.289
 20
0.3996
 10
107.116
 20
0.44
 10
106.945
 20
0.4826
 10
106.774
 20
0.5274
 10
106.605
 20
0.5743
 10
106.436
 20
0.6234
 10
106.269
 20
0.6747
 10
106.104
 20
0.7282
 10
105.939
 20
0.7839
 10
105.776
 20
0.8418
 10
105.613
 20
0.9018
 10
105.452
 20
0.964
 10
105.292
 20
1.0284
 10
105.134
 20
1.095
 10
104.976
 20
1.1638
 10
104.82
 20
1.2347
 10
104.665
 20
1.3078
 10
104.511
 20
1.3831
 10
104.358
 20
1.4606
 10
104.206
 20
1.5403
 10
104.056
 20
1.6221
 10
103.906
 20
1.7061
 10
103.758
 20
1.7923
 10
103.611
 20
1.8807
 10
103.466
 20
1.9713
 10
103.321
 20
2.064
 10
103.178
 20
2.1589
 10
103.036
 20
2.256
 10
102.895
 20
2.3553
 10
102.755
 20
2.4567
 10
102.616
 20
2.5603
 10
102.479
 20
2.6661
 10
102.342
 20
2.7741
 10
102.207
 20
2.8843
 10
102.073
 20
2.9966
 10
101.941
 20
3.1111
 10
101.809
 20
3.2278
 10
101.679
 20
3.3466
 10
101.549
 20
3.4677
 10
101.421
 20
3.5909
 10
101.294
 20
3.7163
 10
101.169
 20
3.8438
 10
101.044
 20
3.9736
 10
100.921
 20
4.1055
 10
100.799
 20
4.2396
 10
100.678
 20
4.3759
 10
100.558
 20
4.5143
 10
100.44
 20
4.6549
 10
100.324
 20
4.7968
 10
100.209
 20
4.9401
 10
100.096
 20
5.0847
 10
99.9855
 20
5.2307
 10
99.8766
 20
5.3781
 10
99.76949999999999
 20
5.5268
 10
99.6643
 20
5.6769
 10
99.5609
 20
5.8283
 10
99.4593
 20
5.9812
 10
99.3597
 20
6.1353
 10
99.2619
 20
6.2909
 10
99.16589999999999
 20
6.4478
 10
99.0718
 20
6.606
 10
98.9796
 20
6.7657
 10
98.88930000000001
 20
6.9266
 10
98.80070000000001
 20
7.089
 10
98.7141
 20
7.2527
 10
98.6293
 20
7.4178
 10
98.54640000000001
 20
7.5842
 10
98.4653
 20
7.752
 10
98.3861
 20
7.9212
 10
98.30880000000001
 20
8.091699999999999
 10
98.2333
 20
8.2636
 10
98.1597
 20
8.4369
 10
98.0879
 20
8.611499999999999
 10
98.018
 20
8.7875
 10
97.9499
 20
8.9649
 10
97.88379999999999
 20
9.143599999999999
 10
97.8194
 20
9.323700000000001
 10
97.75700000000001
 20
9.5052
 10
97.6964
 20
9.688000000000001
 10
97.6377
 20
9.872199999999999
 10
97.5808
 20
10.0577
 10
97.5258
 20
10.2447
 10
97.4726
 20
10.4329
 10
97.42140000000001
 20
10.6226
 10
97.3719
 20
10.8136
 10
97.3244
 20
11.006
 10
97.2787
 20
11.1998
 10
97.2349
 20
11.3949
 10
97.19289999999999
 20
11.5914
 10
97.1528
 20
11.7892
 10
97.1146
 20
11.9885
 10
97.0782
 20
12.189
 10
97.0437
 20
12.391
 10
97.011
 20
12.5943
 10
96.9803
 20
12.799
 10
96.9513
 20
13.0051
 10
96.9243
 20
13.2125
 10
96.8991
 20
13.4214
 10
96.8758
 20
13.6315
 10
96.8347
 20
14.056
 10
96.80110000000001
 20
14.4859
 10
96.77500000000001
 20
14.9213
 10
96.7563
 20
15.3622
 10
96.74509999999999
 20
15.8086
 10
96.7414
 20
16.2605
 10
96.74509999999999
 20
16.7123
 10
96.7563
 20
17.1587
 10
96.77500000000001
 20
17.5995
 10
96.80110000000001
 20
18.0347
 10
96.8347
 20
18.4645
 10
96.8758
 20
18.8887
 10
96.8991
 20
19.0987
 10
96.9243
 20
19.3074
 10
96.9513
 20
19.5146
 10
96.9803
 20
19.7205
 10
97.011
 20
19.9251
 10
97.0437
 20
20.1282
 10
97.0782
 20
20.3299
 10
97.1146
 20
20.5303
 10
97.1528
 20
20.7293
 10
97.19289999999999
 20
20.9269
 10
97.2349
 20
21.1232
 10
97.2787
 20
21.318
 10
97.3244
 20
21.5115
 10
97.3719
 20
21.7036
 10
97.42140000000001
 20
21.8944
 10
97.4726
 20
22.0837
 10
97.5258
 20
22.2717
 10
97.5808
 20
22.4583
 10
97.6377
 20
22.6435
 10
97.6964
 20
22.8273
 10
97.75700000000001
 20
23.0098
 10
97.8194
 20
23.1909
 10
97.88379999999999
 20
23.3706
 10
97.9499
 20
23.5489
 10
98.018
 20
23.7258
 10
98.0879
 20
23.9014
 10
98.1597
 20
24.0756
 10
98.2333
 20
24.2484
 10
98.30880000000001
 20
24.4199
 10
98.3861
 20
24.59
 10
98.4653
 20
24.7587
 10
98.54640000000001
 20
24.926
 10
98.6293
 20
25.0919
 10
98.7141
 20
25.2565
 10
98.80070000000001
 20
25.4197
 10
98.88930000000001
 20
25.5815
 10
98.9796
 20
25.742
 10
99.0718
 20
25.9011
 10
99.16589999999999
 20
26.0588
 10
99.2619
 20
26.2151
 10
99.3597
 20
26.37
 10
99.4593
 20
26.5236
 10
99.5609
 20
26.6758
 10
99.6643
 20
26.8267
 10
99.76949999999999
 20
26.9761
 10
99.8766
 20
27.1242
 10
99.9855
 20
27.2709
 10
100.096
 20
27.4163
 10
100.209
 20
27.5602
 10
100.324
 20
27.7028
 10
100.44
 20
27.844
 10
100.558
 20
27.9839
 10
100.675
 20
28.1184
 10
100.793
 20
28.2508
 10
100.912
 20
28.3812
 10
101.033
 20
28.5095
 10
101.154
 20
28.6358
 10
101.276
 20
28.7599
 10
101.4
 20
28.8821
 10
101.525
 20
29.0021
 10
101.651
 20
29.1201
 10
101.778
 20
29.236
 10
101.906
 20
29.3499
 10
102.035
 20
29.4617
 10
102.166
 20
29.5714
 10
102.297
 20
29.6791
 10
102.43
 20
29.7847
 10
102.564
 20
29.8882
 10
88.6953
 20
29.8824
 10
78.7893
 20
29.8782
 10
72.8456
 20
29.8757
 10
70.8644
 20
29.8748
 10
61.9128
 20
19.3024
 10
55.5187
 20
11.7507
 10
51.6823
 20
7.2196
 10
50.4035
 20
5.7093
 10
46.7765
 20
8.7189
 10
44.1858
 20
10.8686
 10
42.6313
 20
12.1585
 10
42.1132
 20
12.5884
 10
48.5569
 20
20.1125
 10
53.1596
 20
25.4869
 10
55.9212
 20
28.7115
 10
56.8417
 20
29.7864
 10
53.4848
 20
29.825
 10
51.087
 20
29.8526
 10
49.6484
 20
29.8691
 10
49.1688
 20
29.8746
 10
40.41
 20
19.2251
 10
34.1537
 20
11.6183
 10
30.3999
 20
7.0543
 10
29.1486
 20
5.5329
 10
25.6373
 20
8.5425
 10
23.1293
 20
10.6922
 10
21.6245
 20
11.9821
 10
21.1229
 20
12.412
 10
27.528
 20
20.0133
 10
32.1031
 20
25.4428
 10
34.8482
 20
28.7005
 10
35.7632
 20
29.7864
 10
32.5221
 20
29.8249
 10
30.207
 20
29.8525
 10
28.8179
 20
29.869
 10
28.3549
 20
29.8745
 10
19.4609
 20
19.1671
 10
13.1081
 20
11.519
 10
9.2964
 20
6.9301
 10
8.0258
 20
5.4005
 10
4.5145
 20
8.487299999999999
 10
2.0065
 20
10.6922
 10
0.5016
 20
12.0151
 10
0
 20
12.4561
 10
8.372999999999999
 20
22.3725
 10
14.3537
 20
29.4556
 10
17.9422
 20
33.7055
 10
19.1383
 20
35.1221
 10
10.8424
 20
45.077
 10
4.9167
 20
52.1876
 10
1.3613
 20
56.454
 10
0.1762
 20
57.8761
 10
3.6489
 20
60.8471
 10
6.1293
 20
62.9693
 10
7.6176
 20
64.2427
 10
8.1137
 20
64.6671
 10
17.0269
 20
54.0947
 10
23.3935
 20
46.543
 10
27.2134
 20
42.012
 10
28.4867
 20
40.5017
 10
31.6121
 20
40.5017
 10
33.8445
 20
40.5017
 10
35.184
 20
40.5017
 10
35.6305
 20
40.5017
 10
29.264
 20
48.103
 10
24.7164
 20
53.5325
 10
21.9879
 20
56.7902
 10
21.0784
 20
57.8761
 10
24.6282
 20
60.77
 10
27.1638
 20
62.837
 10
28.6852
 20
64.07729999999999
 10
29.1923
 20
64.4907
 10
38.1055
 20
53.9954
 10
44.4721
 20
46.4988
 10
48.292
 20
42.0008
 10
49.5653
 20
40.5015
 10
52.845
 20
40.5015
 10
55.1877
 20
40.5015
 10
56.5933
 20
40.5015
 10
57.0618
 20
40.5015
 10
50.6181
 20
48.0256
 10
46.0154
 20
53.4
 10
43.2538
 20
56.6246
 10
42.3333
 20
57.6995
 10
45.8831
 20
60.7091
 10
48.4187
 20
62.8589
 10
49.9401
 20
64.14870000000001
 10
50.4472
 20
64.5787
 10
59.3603
 20
54.0064
 10
65.7269
 20
46.4547
 10
69.5468
 20
41.9237
 10
70.8201
 20
40.4134
 10
90.21850000000001
 20
40.3377
 10
104.075
 20
40.2837
 10
112.388
 20
40.2512
 10
115.159
 20
40.2404
 10
115.041
 20
40.3669
 10
114.918
 20
40.494
 10
114.793
 20
40.6216
 10
114.663
 20
40.7499
 10
114.53
 20
40.8787
 10
114.394
 20
41.0081
 10
114.253
 20
41.1381
 10
114.109
 20
41.2686
 10
113.811
 20
41.5315
 10
113.498
 20
41.7966
 10
113.171
 20
42.0641
 10
112.829
 20
42.3339
 10
112.473
 20
42.606
 10
112.102
 20
42.8805
 10
111.717
 20
43.1572
 10
111.318
 20
43.4363
 10
110.904
 20
43.7177
 10
110.475
 20
44.0014
 10
110.033
 20
44.2874
 10
109.576
 20
44.5758
 10
109.104
 20
44.8665
 10
108.618
 20
45.1594
 10
108.118
 20
45.4547
 10
107.603
 20
45.7524
 10
107.074
 20
46.0523
 10
106.531
 20
46.3546
 10
105.973
 20
46.6591
 10
105.4
 20
46.966
 10
104.814
 20
47.2752
 10
104.212
 20
47.5868
 10
103.597
 20
47.9006
 10
102.967
 20
48.2168
 10
102.322
 20
48.5353
 10
101.663
 20
48.8561
 10
100.99
 20
49.1792
 10
100.302
 20
49.5046
 10
99.60039999999999
 20
49.8324
 10
98.8839
 20
50.1625
 10
98.15300000000001
 20
50.4949
 10
97.40770000000001
 20
50.8296
 10
96.648
 20
51.1666
 10
95.8738
 20
51.506
 10
95.0853
 20
51.8476
 10
94.28230000000001
 20
52.1916
 10
93.4649
 20
52.5379
 10
92.6331
 20
52.8865
 10
91.7869
 20
53.2375
 10
90.9263
 20
53.5907
 10
90.0513
 20
53.9463
 10
89.1618
 20
54.3042
 10
88.258
 20
54.6644
 10
87.33969999999999
 20
55.0269
 10
86.407
 20
55.3918
 10
85.4599
 20
55.759
 10
84.4984
 20
56.1284
 10
83.52249999999999
 20
56.5002
 10
82.5322
 20
56.8744
 10
81.5274
 20
57.2508
 10
80.50830000000001
 20
57.6296
 10
79.4747
 20
58.0106
 10
78.4267
 20
58.394
 10
77.3643
 20
58.7797
 10
76.28749999999999
 20
59.1678
 10
75.19629999999999
 20
59.5581
 10
74.0907
 20
59.9508
 10
72.9706
 20
60.3458
 10
71.83620000000001
 20
60.7431
 10
70.68729999999999
 20
61.1427
 10
69.95480000000001
 20
61.3793
 10
69.22929999999999
 20
61.6179
 10
68.511
 20
61.8586
 10
67.7998
 20
62.1014
 10
67.0958
 20
62.3462
 10
66.39879999999999
 20
62.5931
 10
65.709
 20
62.8421
 10
65.0262
 20
63.0931
 10
64.3506
 20
63.3462
 10
63.6821
 20
63.6013
 10
63.0207
 20
63.8585
 10
62.3665
 20
64.1178
 10
61.7193
 20
64.3792
 10
61.0793
 20
64.6426
 10
60.4464
 20
64.908
 10
59.8206
 20
65.1756
 10
59.2019
 20
65.4451
 10
58.5903
 20
65.71680000000001
 10
57.9859
 20
65.9905
 10
57.3885
 20
66.2663
 10
56.7983
 20
66.5441
 10
56.2152
 20
66.8241
 10
55.6392
 20
67.10599999999999
 10
55.0703
 20
67.3901
 10
54.5086
 20
67.67619999999999
 10
53.9539
 20
67.96429999999999
 10
53.4064
 20
68.25449999999999
 10
52.866
 20
68.5468
 10
52.3327
 20
68.8412
 10
51.8065
 20
69.13760000000001
 10
51.2875
 20
69.4361
 10
50.7755
 20
69.7366
 10
50.2707
 20
70.03919999999999
 10
49.773
 20
70.3439
 10
49.2824
 20
70.6506
 10
48.7989
 20
70.9594
 10
48.3225
 20
71.2702
 10
47.8533
 20
71.58320000000001
 10
47.3911
 20
71.8981
 10
46.9361
 20
72.2152
 10
46.4882
 20
72.5343
 10
46.0474
 20
72.85550000000001
 10
45.6137
 20
73.17870000000001
 10
45.1872
 20
73.504
 10
44.7677
 20
73.8313
 10
44.3554
 20
74.16079999999999
 10
43.9502
 20
74.4922
 10
43.5521
 20
74.8258
 10
43.1611
 20
75.1614
 10
42.7773
 20
75.4991
 10
42.4005
 20
75.83880000000001
 10
42.0309
 20
76.1806
 10
41.6684
 20
76.5245
 10
41.313
 20
76.8704
 10
40.9647
 20
77.2184
 10
40.6235
 20
77.5684
 10
40.2894
 20
77.9205
 10
39.9625
 20
78.2747
 10
39.6427
 20
78.631
 10
39.33
 20
78.9893
 10
39.0244
 20
79.3496
 10
38.7259
 20
79.71210000000001
 10
38.4345
 20
80.0765
 10
38.1503
 20
80.4431
 10
37.9255
 20
80.741
 10
37.7025
 20
81.04340000000001
 10
37.4813
 20
81.3502
 10
37.262
 20
81.6614
 10
37.0445
 20
81.9769
 10
36.8289
 20
82.2967
 10
36.6151
 20
82.6207
 10
36.4031
 20
82.9487
 10
36.193
 20
83.2809
 10
35.9847
 20
83.617
 10
35.7783
 20
83.95699999999999
 10
35.5737
 20
84.301
 10
35.3709
 20
84.64870000000001
 10
35.17
 20
85.00020000000001
 10
34.9709
 20
85.3553
 10
34.7737
 20
85.7141
 10
34.5784
 20
86.0765
 10
34.3849
 20
86.4423
 10
34.1932
 20
86.8115
 10
34.0034
 20
87.1842
 10
33.8155
 20
87.56010000000001
 10
33.6294
 20
87.9393
 10
33.4452
 20
88.3216
 10
33.2628
 20
88.7071
 10
33.0823
 20
89.0956
 10
32.9037
 20
89.4871
 10
32.7269
 20
89.88160000000001
 10
32.552
 20
90.27889999999999
 10
32.3789
 20
90.679
 10
32.2077
 20
91.0818
 10
32.0384
 20
91.4873
 10
31.871
 20
91.8955
 10
31.7054
 20
92.3062
 10
31.5417
 20
92.7193
 10
31.3799
 20
93.1349
 10
31.22
 20
93.55289999999999
 10
31.0619
 20
93.9731
 10
30.9057
 20
94.3956
 10
30.7514
 20
94.8203
 10
30.599
 20
95.247
 10
30.4484
 20
95.6759
 10
30.2998
 20
96.1067
 10
30.153
 20
96.5394
 10
30.0081
 20
96.974
 10
29.8651
 20
97.41030000000001
 10
29.724
 20
97.8485
 10
29.5848
 20
98.2882
 10
29.4474
 20
98.7296
 10
29.312
 20
99.1726
 10
29.1784
 20
99.617
 10
29.0468
 20
100.063
 10
28.917
 20
100.51
 10
28.7892
 20
100.959
 10
28.6632
 20
101.408
 10
28.5392
 20
101.859
 10
28.417
 20
102.311
 10
28.2968
 20
102.764
 10
28.1784
 20
103.218
 10
28.062
 20
103.673
 10
27.9474
 20
104.129
 10
27.8348
 20
104.585
 10
27.7241
 20
105.043
 10
27.5084
 20
105.959
 10
27.3003
 20
106.878
 10
27.1
 20
107.798
 10
26.9073
 20
108.719
 10
26.7222
 20
109.642
 10
26.5449
 20
110.564
 10
26.3753
 20
111.486
 10
26.2134
 20
112.407
 10
26.0592
 20
113.326
 10
25.9128
 20
114.244
 10
25.7741
 20
115.159
 10
25.6432
 20
116.072
 10
25.52
 20
116.981
 10
25.4046
 20
117.886
 10
25.2971
 20
118.787
 10
25.1973
 20
119.683
 10
25.1053
 20
120.574
 10
25.0211
 20
121.459
 10
24.9448
 20
122.337
 10
24.8763
 20
123.208
 10
24.8157
 20
124.072
 10
24.7629
 20
124.928
 10
24.7181
 20
125.776
 10
24.681
 20
126.615
 10
24.6519
 20
127.444
 10
24.6307
 20
128.264
 10
24.6174
 20
129.073
 10
24.6121
 20
129.871
 10
24.6146
 20
130.657
 10
24.6189
 20
131.046
 10
24.6252
 20
131.432
 10
24.6334
 20
131.815
 10
24.6436
 20
132.194
 10
24.6559
 20
132.571
 10
24.6701
 20
132.944
 10
24.6863
 20
133.313
 10
24.7045
 20
133.68
 10
24.727
 20
134.077
 10
24.7525
 20
134.472
 10
24.7811
 20
134.868
 10
24.8127
 20
135.262
 10
24.8474
 20
135.656
 10
24.885
 20
136.048
 10
24.9257
 20
136.44
 10
24.9692
 20
136.831
 10
25.0158
 20
137.222
 10
25.0652
 20
137.611
 10
25.1175
 20
138
 10
25.1726
 20
138.388
 10
25.2306
 20
138.775
 10
25.2915
 20
139.161
 10
25.3551
 20
139.547
 10
25.4215
 20
139.931
 10
25.4907
 20
140.315
 10
25.5626
 20
140.698
 10
25.6372
 20
141.081
 10
25.7146
 20
141.462
 10
25.7946
 20
141.843
 10
25.8772
 20
142.223
 10
25.9625
 20
142.602
 10
26.0503
 20
142.981
 10
26.1408
 20
143.358
 10
26.2338
 20
143.735
 10
26.3294
 20
144.111
 10
26.4275
 20
144.486
 10
26.5281
 20
144.861
 10
26.6312
 20
145.234
 10
26.7367
 20
145.607
 10
26.8447
 20
145.979
 10
26.9551
 20
146.351
 10
27.0679
 20
146.721
 10
27.183
 20
147.091
 10
27.3005
 20
147.46
 10
27.4203
 20
147.828
 10
27.5425
 20
148.196
 10
27.6669
 20
148.563
 10
27.7936
 20
148.929
 10
27.9225
 20
149.294
 10
28.0536
 20
149.659
 10
28.187
 20
150.022
 10
28.3225
 20
150.385
 10
28.4602
 20
150.747
 10
28.6
 20
151.109
 10
28.7419
 20
151.47
 10
28.8859
 20
151.829
 10
29.032
 20
152.189
 10
29.1802
 20
152.547
 10
29.3303
 20
152.905
 10
29.4825
 20
153.262
 10
29.6367
 20
153.618
 10
29.7928
 20
153.973
 10
29.9508
 20
154.328
 10
30.1108
 20
154.682
 10
30.2727
 20
155.035
 10
30.4365
 20
155.388
 10
30.7695
 20
156.091
 10
31.1098
 20
156.791
 10
31.4572
 20
157.488
 10
31.8115
 20
158.181
 10
32.1725
 20
158.873
 10
32.5401
 20
159.561
 10
32.9141
 20
160.246
 10
33.2943
 20
160.929
 10
33.6805
 20
161.608
 10
34.0726
 20
162.285
 10
34.4705
 20
162.959
 10
34.8738
 20
163.63
 10
35.2825
 20
164.299
 10
35.6964
 20
164.964
 10
36.1153
 20
165.627
 10
36.5391
 20
166.287
 10
36.9675
 20
166.944
 10
37.4004
 20
167.599
 10
37.8377
 20
168.25
 10
38.279
 20
168.899
 10
38.7244
 20
169.546
 10
39.1736
 20
170.189
 10
39.6265
 20
170.83
 10
40.0827
 20
171.468
 10
40.5423
 20
172.104
 10
41.005
 20
172.737
 10
41.4707
 20
173.367
 10
41.9392
 20
173.994
 10
42.4102
 20
174.619
 10
42.8837
 20
175.242
 10
43.3594
 20
175.861
 10
43.8373
 20
176.478
 10
44.317
 20
177.093
 10
44.7985
 20
177.705
 10
45.2816
 20
178.314
 10
45.4941
 20
178.579
 10
45.7012
 20
178.832
 10
45.9028
 20
179.074
 10
46.099
 20
179.305
 10
46.2897
 20
179.525
 10
46.475
 20
179.733
 10
46.6549
 20
179.931
 10
46.8293
 20
180.117
 10
46.9984
 20
180.293
 10
47.162
 20
180.458
 10
47.3203
 20
180.612
 10
47.4731
 20
180.756
 10
47.6206
 20
180.889
 10
47.7626
 20
181.012
 10
47.8993
 20
181.125
 10
48.0307
 20
181.227
 10
48.1566
 20
181.319
 10
48.2772
 20
181.402
 10
48.3925
 20
181.474
 10
48.5024
 20
181.536
 10
48.607
 20
181.589
 10
48.7062
 20
181.632
 10
48.8001
 20
181.665
 10
48.8887
 20
181.689
 10
48.931
 20
181.698
 10
48.972
 20
181.704
 10
49.0116
 20
181.708
 10
49.05
 20
181.709
 10
49.087
 20
181.708
 10
49.1226
 20
181.705
 10
49.157
 20
181.7
 10
49.19
 20
181.692
 10
49.2217
 20
181.682
 10
49.2521
 20
181.67
 10
49.2811
 20
181.655
 10
49.3089
 20
181.638
 10
49.3353
 20
181.619
 10
49.3604
 20
181.598
 10
49.3842
 20
181.575
 10
49.4066
 20
181.549
 10
49.4278
 20
181.522
 10
49.4476
 20
181.492
 10
49.4661
 20
181.46
 10
49.4833
 20
181.426
 10
49.4992
 20
181.389
 10
49.5138
 20
181.351
 10
49.539
 20
181.268
 10
49.559
 20
181.176
 10
49.5738
 20
181.077
 10
49.5833
 20
180.969
 10
49.5876
 20
180.853
 10
49.5867
 20
180.729
 10
49.5805
 20
180.597
 10
49.5692
 20
180.457
 10
49.5527
 20
180.31
 10
49.5309
 20
180.155
 10
49.504
 20
179.992
 10
49.472
 20
179.822
 10
49.4347
 20
179.645
 10
49.3923
 20
179.46
 10
49.3447
 20
179.268
 10
49.2919
 20
179.069
 10
49.234
 20
178.863
 10
49.171
 20
178.65
 10
49.1028
 20
178.431
 10
49.0295
 20
178.204
 10
48.9511
 20
177.971
 10
48.8676
 20
177.732
 10
48.7789
 20
177.485
 10
48.6852
 20
177.233
 10
48.5863
 20
176.974
 10
48.4824
 20
176.709
 10
48.3733
 20
176.438
 10
48.2592
 20
176.16
 10
48.14
 20
175.877
 10
47.9852
 20
175.52
 10
47.8265
 20
175.166
 10
47.6639
 20
174.815
 10
47.4977
 20
174.468
 10
47.3281
 20
174.123
 10
47.1552
 20
173.78
 10
46.9792
 20
173.441
 10
46.8004
 20
173.103
 10
46.6188
 20
172.768
 10
46.4348
 20
172.434
 10
46.2484
 20
172.102
 10
46.0598
 20
171.772
 10
45.8692
 20
171.443
 10
45.6769
 20
171.116
 10
45.2876
 20
170.464
 10
44.8933
 20
169.816
 10
44.4955
 20
169.17
 10
43.6952
 20
167.877
 10
43.2956
 20
167.227
 10
42.8984
 20
166.575
 10
42.505
 20
165.917
 10
42.3101
 20
165.587
 10
42.1168
 20
165.254
 10
41.8826
 20
164.845
 10
41.6516
 20
164.435
 10
41.4238
 20
164.024
 10
41.1992
 20
163.612
 10
40.9779
 20
163.2
 10
40.7597
 20
162.786
 10
40.5447
 20
162.372
 10
40.333
 20
161.957
 10
40.1245
 20
161.541
 10
39.9191
 20
161.123
 10
39.717
 20
160.705
 10
39.5181
 20
160.287
 10
39.3223
 20
159.867
 10
39.1298
 20
159.446
 10
38.9405
 20
159.025
 10
38.7544
 20
158.602
 10
38.5715
 20
158.179
 10
38.3919
 20
157.755
 10
38.2154
 20
157.33
 10
38.0421
 20
156.904
 10
37.872
 20
156.477
 10
37.7052
 20
156.049
 10
37.5415
 20
155.62
 10
37.3811
 20
155.19
 10
37.2239
 20
154.76
 10
37.0698
 20
154.329
 10
36.919
 20
153.896
 10
36.7714
 20
153.463
 10
36.627
 20
153.029
 10
36.4858
 20
152.594
 10
36.3478
 20
152.158
 10
36.213
 20
151.722
 10
36.0814
 20
151.284
 10
35.953
 20
150.845
 10
35.8279
 20
150.406
 10
35.7059
 20
149.966
 10
35.5871
 20
149.524
 10
35.4716
 20
149.082
 10
35.3593
 20
148.639
 10
35.2501
 20
148.195
 10
35.1442
 20
147.75
 10
35.0415
 20
147.305
 10
34.942
 20
146.858
 10
34.8456
 20
146.411
 10
34.7525
 20
145.962
 10
34.6627
 20
145.513
 10
34.576
 20
145.063
 10
34.4925
 20
144.612
 10
34.4122
 20
144.16
 10
34.3352
 20
143.707
 10
34.2613
 20
143.253
 10
34.1906
 20
142.799
 10
34.1232
 20
142.343
 10
34.059
 20
141.887
 10
33.9979
 20
141.429
 10
33.9401
 20
140.971
 10
33.8855
 20
140.512
 10
33.8341
 20
140.052
 10
33.7859
 20
139.591
 10
33.7409
 20
139.129
 10
33.6991
 20
138.667
 10
33.6605
 20
138.203
 10
33.6251
 20
137.738
 10
33.593
 20
137.273
 10
33.564
 20
136.807
 10
33.5382
 20
136.34
 10
33.5157
 20
135.871
 10
33.4963
 20
135.403
 10
33.4802
 20
134.933
 10
33.4673
 20
134.462
 10
33.4576
 20
133.99
 10
33.451
 20
133.518
 10
33.4477
 20
133.044
 10
33.4476
 20
132.57
 10
33.4507
 20
132.095
 10
33.4571
 20
131.619
 10
33.4666
 20
131.142
 10
33.4793
 20
130.664
 10
33.4952
 20
130.185
 10
33.5144
 20
129.705
 10
33.5367
 20
129.225
 10
33.5623
 20
128.743
 10
33.591
 20
128.261
 10
33.623
 20
127.778
 10
33.6582
 20
127.293
 10
33.6966
 20
126.808
 10
33.7382
 20
126.322
 10
33.783
 20
125.835
 10
33.831
 20
125.348
 10
33.8822
 20
124.859
 10
33.9366
 20
124.369
 10
33.9942
 20
123.879
 10
34.0551
 20
123.388
 10
34.1191
 20
122.895
 10
34.1863
 20
122.402
 10
34.2568
 20
121.908
 10
34.3305
 20
121.413
 10
34.4073
 20
120.918
 10
34.4874
 20
120.421
 10
34.5707
 20
119.923
 10
34.6572
 20
119.425
 10
34.7469
 20
118.925
 10
34.8398
 20
118.425
 10
34.9359
 20
117.924
 10
35.0352
 20
117.422
 10
35.1377
 20
116.919
 10
35.2434
 20
116.415
 10
35.3524
 20
115.91
 10
35.4645
 20
115.405
 10
35.5799
 20
114.898
 10
35.6984
 20
114.391
 10
35.8202
 20
113.882
 10
35.9452
 20
113.373
 10
36.0733
 20
112.863
 10
36.2047
 20
112.352
 10
36.3393
 20
111.84
 10
36.4771
 20
111.327
 10
36.6181
 20
110.814
 10
36.7623
 20
110.299
 10
36.9098
 20
109.783
 10
37.0604
 20
109.267
 10
37.2142
 20
108.75
 10
37.3713
 20
108.232
 10
37.5315
 20
107.713
 10
37.695
 20
107.193
 10
37.8617
 20
106.672
 10
38.0315
 20
106.15
 10
38.2046
 20
105.627
 10
38.2832
 20
105.396
 10
38.3628
 20
105.17
 10
38.4436
 20
104.948
 10
38.5254
 20
104.732
 10
38.6082
 20
104.52
 10
38.692
 20
104.312
 10
38.7767
 20
104.11
 10
38.8624
 20
103.912
 10
38.949
 20
103.719
 10
39.0364
 20
103.531
 10
39.1246
 20
103.347
 10
39.2137
 20
103.168
 10
39.3035
 20
102.993
 10
39.3941
 20
102.823
 10
39.4853
 20
102.657
 10
39.5773
 20
102.496
 10
39.6699
 20
102.34
 10
39.7631
 20
102.187
 10
39.8569
 20
102.04
 10
39.9512
 20
101.896
 10
40.0461
 20
101.757
 10
40.1415
 20
101.623
 10
40.2373
 20
101.492
 10
40.3336
 20
101.367
 10
40.4302
 20
101.245
 10
40.5273
 20
101.127
 10
40.6247
 20
101.014
 10
40.7224
 20
100.905
 10
40.8204
 20
100.8
 10
40.9186
 20
100.7
 10
41.0171
 20
100.603
 10
41.1157
 20
100.511
 10
41.2145
 20
100.422
 10
41.3134
 20
100.338
 10
41.4125
 20
100.258
 10
41.5116
 20
100.182
 10
41.6107
 20
100.109
 10
41.7098
 20
100.041
 10
41.809
 20
99.9769
 10
41.908
 20
99.9165
 10
42.007
 20
99.86
 10
42.1059
 20
99.8073
 10
42.2046
 20
99.7585
 10
42.3031
 20
99.7135
 10
42.4015
 20
99.67230000000001
 10
42.4996
 20
99.6348
 10
42.5974
 20
99.6011
 10
42.695
 20
99.5711
 10
42.7922
 20
99.5448
 10
42.889
 20
99.52209999999999
 10
42.9855
 20
99.5031
 10
43.0815
 20
99.4877
 10
43.1771
 20
99.476
 10
43.2722
 20
99.46769999999999
 10
43.3668
 20
99.4631
 10
43.4609
 20
99.4619
 10
43.5543
 20
99.46429999999999
 10
43.6472
 20
99.4701
 10
43.7395
 20
99.47929999999999
 10
43.831
 20
99.492
 10
43.9219
 20
99.5081
 10
44.0121
 20
99.52760000000001
 10
44.1015
 20
99.5504
 10
44.1901
 20
99.5765
 10
44.2779
 20
99.60590000000001
 10
44.3649
 20
99.6386
 10
44.451
 20
99.6746
 10
44.5361
 20
99.71380000000001
 10
44.6204
 20
99.7561
 10
44.7036
 20
99.8017
 10
44.7859
 20
99.85039999999999
 10
44.8671
 20
99.90219999999999
 10
44.9473
 20
99.9572
 10
45.0264
 20
100.015
 10
45.1043
 20
100.076
 10
45.1811
 20
100.14
 10
45.2568
 20
100.207
 10
45.3312
 20
100.278
 10
45.4044
 20
100.351
 10
45.4763
 20
100.427
 10
45.5468
 20
100.505
 10
45.6161
 20
100.587
 10
45.684
 20
100.672
 10
45.7505
 20
100.759
 10
45.8156
 20
100.85
 10
45.8792
 20
100.943
 10
45.9413
 20
101.039
 10
46.0019
 20
101.137
 10
46.061
 20
101.238
 10
46.1184
 20
101.342
 10
46.1743
 20
101.449
 10
46.2285
 20
101.558
 10
46.2811
 20
101.67
 10
46.332
 20
101.784
 10
46.3811
 20
101.902
 10
46.4284
 20
102.021
 10
46.474
 20
102.143
 10
46.5178
 20
102.268
 10
46.5597
 20
102.395
 10
46.5997
 20
102.524
 10
46.6378
 20
102.656
 10
46.6739
 20
102.79
 10
46.7081
 20
102.927
 10
46.7403
 20
103.066
 10
46.7704
 20
103.207
 10
46.7985
 20
103.351
 10
46.8245
 20
103.497
 10
46.8483
 20
103.645
 10
46.87
 20
103.795
 10
46.8895
 20
103.948
 10
46.9067
 20
104.103
 10
46.9218
 20
104.26
 10
46.9345
 20
104.418
 10
46.945
 20
104.58
 10
46.953
 20
104.743
 10
46.9588
 20
104.908
 10
46.9621
 20
105.075
 10
46.963
 20
105.245
 10
46.9614
 20
105.416
 10
46.9573
 20
105.589
 10
46.9507
 20
105.764
 10
46.9416
 20
105.941
 10
46.9298
 20
106.12
 10
46.9155
 20
106.3
 10
46.8985
 20
106.483
 10
46.8788
 20
106.668
 10
46.8564
 20
106.854
 10
46.8313
 20
107.041
 10
46.1606
 20
111.815
 10
45.5859
 20
115.906
 10
45.1072
 20
119.313
 10
44.7246
 20
122.036
 10
44.6526
 20
122.571
 10
44.5863
 20
123.109
 10
44.5259
 20
123.649
 10
44.4711
 20
124.192
 10
44.4221
 20
124.737
 10
44.3788
 20
125.285
 10
44.341
 20
125.836
 10
44.3089
 20
126.388
 10
44.2823
 20
126.943
 10
44.2613
 20
127.501
 10
44.2457
 20
128.06
 10
44.2356
 20
128.622
 10
44.2309
 20
129.185
 10
44.2316
 20
129.751
 10
44.2376
 20
130.319
 10
44.2489
 20
130.888
 10
44.2655
 20
131.459
 10
44.2873
 20
132.032
 10
44.3143
 20
132.607
 10
44.3465
 20
133.184
 10
44.3838
 20
133.762
 10
44.4262
 20
134.341
 10
44.4737
 20
134.922
 10
44.5262
 20
135.504
 10
44.5836
 20
136.088
 10
44.646
 20
136.673
 10
44.7133
 20
137.259
 10
44.7855
 20
137.846
 10
44.8625
 20
138.435
 10
44.9443
 20
139.024
 10
45.0309
 20
139.614
 10
45.1222
 20
140.206
 10
45.2182
 20
140.798
 10
45.3189
 20
141.391
 10
45.4241
 20
141.984
 10
45.534
 20
142.578
 10
45.6484
 20
143.173
 10
45.7674
 20
143.769
 10
45.8908
 20
144.364
 10
46.0186
 20
144.961
 10
46.1509
 20
145.557
 10
46.2875
 20
146.154
 10
46.4284
 20
146.751
 10
46.5737
 20
147.349
 10
46.7232
 20
147.946
 10
46.8769
 20
148.544
 10
47.0348
 20
149.141
 10
47.1969
 20
149.738
 10
47.3631
 20
150.336
 10
47.5334
 20
150.933
 10
47.7077
 20
151.53
 10
47.886
 20
152.126
 10
48.0683
 20
152.722
 10
48.2546
 20
153.318
 10
48.4447
 20
153.913
 10
48.6387
 20
154.508
 10
48.8365
 20
155.102
 10
49.0381
 20
155.695
 10
49.2435
 20
156.287
 10
49.4526
 20
156.879
 10
49.6654
 20
157.47
 10
49.8818
 20
158.06
 10
50.1019
 20
158.649
 10
50.3255
 20
159.237
 10
50.5527
 20
159.824
 10
50.7833
 20
160.409
 10
51.0175
 20
160.994
 10
51.255
 20
161.577
 10
51.496
 20
162.159
 10
51.7403
 20
162.739
 10
51.988
 20
163.318
 10
52.2389
 20
163.895
 10
52.4931
 20
164.471
 10
52.7505
 20
165.045
 10
53.0111
 20
165.617
 10
53.2748
 20
166.188
 10
53.5416
 20
166.757
 10
53.8115
 20
167.323
 10
54.0845
 20
167.888
 10
54.3604
 20
168.451
 10
54.6393
 20
169.012
 10
54.9211
 20
169.571
 10
55.2059
 20
170.127
 10
55.4935
 20
170.681
 10
55.7839
 20
171.233
 10
56.077
 20
171.782
 10
56.373
 20
172.329
 10
56.6716
 20
172.874
 10
56.9729
 20
173.416
 10
57.2769
 20
173.955
 10
57.5835
 20
174.491
 10
57.8926
 20
175.025
 10
58.2043
 20
175.556
 10
58.5184
 20
176.084
 10
58.835
 20
176.609
 10
59.1541
 20
177.131
 10
59.4755
 20
177.65
 10
59.7993
 20
178.167
 10
60.1254
 20
178.679
 10
60.4538
 20
179.189
 10
60.7844
 20
179.695
 10
61.1172
 20
180.198
 10
61.4522
 20
180.697
 10
61.7893
 20
181.193
 10
62.1286
 20
181.686
 10
62.4699
 20
182.174
 10
62.8132
 20
182.659
 10
63.1585
 20
183.141
 10
63.5058
 20
183.618
 10
63.855
 20
184.092
 10
64.206
 20
184.562
 10
64.559
 20
185.028
 10
64.91370000000001
 20
185.489
 10
65.2702
 20
185.947
 10
65.6284
 20
186.401
 10
65.9884
 20
186.85
 10
66.34999999999999
 20
187.295
 10
66.7133
 20
187.736
 10
67.07810000000001
 20
188.172
 10
67.44450000000001
 20
188.604
 10
67.8124
 20
189.031
 10
68.1818
 20
189.454
 10
68.5527
 20
189.872
 10
68.925
 20
190.285
 10
69.29859999999999
 20
190.694
 10
69.67359999999999
 20
191.098
 10
70.04989999999999
 20
191.496
 10
70.42749999999999
 20
191.89
 10
70.6525
 20
192.122
 10
70.871
 20
192.343
 10
71.0829
 20
192.554
 10
71.28830000000001
 20
192.756
 10
71.4873
 20
192.947
 10
71.6798
 20
193.129
 10
71.8659
 20
193.302
 10
72.04559999999999
 20
193.464
 10
72.21899999999999
 20
193.618
 10
72.3861
 20
193.762
 10
72.547
 20
193.897
 10
72.7016
 20
194.022
 10
72.84999999999999
 20
194.138
 10
72.9923
 20
194.246
 10
73.1284
 20
194.344
 10
73.2585
 20
194.434
 10
73.38249999999999
 20
194.514
 10
73.5004
 20
194.586
 10
73.61239999999999
 20
194.649
 10
73.71850000000001
 20
194.704
 10
73.8186
 20
194.75
 10
73.9128
 20
194.788
 10
74.0012
 20
194.818
 10
74.0838
 20
194.839
 10
74.1606
 20
194.852
 10
74.2317
 20
194.857
 10
74.2651
 20
194.857
 10
74.2971
 20
194.855
 10
74.3276
 20
194.85
 10
74.35680000000001
 20
194.844
 10
74.3845
 20
194.835
 10
74.41079999999999
 20
194.825
 10
74.4357
 20
194.813
 10
74.4592
 20
194.799
 10
74.48139999999999
 20
194.783
 10
74.5021
 20
194.765
 10
74.5215
 20
194.745
 10
74.5395
 20
194.723
 10
74.5561
 20
194.7
 10
74.57129999999999
 20
194.674
 10
74.5852
 20
194.647
 10
74.5977
 20
194.618
 10
74.6186
 20
194.554
 10
74.63420000000001
 20
194.483
 10
74.6443
 20
194.405
 10
74.64919999999999
 20
194.32
 10
74.64879999999999
 20
194.227
 10
74.6431
 20
194.128
 10
74.6322
 20
194.022
 10
74.6161
 20
193.91
 10
74.59480000000001
 20
193.79
 10
74.5684
 20
193.664
 10
74.53700000000001
 20
193.531
 10
74.5005
 20
193.393
 10
74.4589
 20
193.247
 10
74.41240000000001
 20
193.096
 10
74.361
 20
192.938
 10
74.30459999999999
 20
192.774
 10
74.24339999999999
 20
192.604
 10
74.1773
 20
192.429
 10
74.10639999999999
 20
192.247
 10
74.0308
 20
192.06
 10
73.9504
 20
191.866
 10
73.8653
 20
191.668
 10
73.77549999999999
 20
191.464
 10
73.6811
 20
191.254
 10
73.4785
 20
190.819
 10
73.2578
 20
190.362
 10
73.0193
 20
189.886
 10
72.8396
 20
189.536
 10
72.65389999999999
 20
189.179
 10
72.4623
 20
188.815
 10
72.2649
 20
188.446
 10
72.0615
 20
188.07
 10
71.8522
 20
187.687
 10
71.6371
 20
187.298
 10
71.416
 20
186.903
 10
70.95610000000001
 20
186.093
 10
70.4726
 20
185.257
 10
69.96550000000001
 20
184.395
 10
69.43470000000001
 20
183.508
 10
68.88039999999999
 20
182.595
 10
68.30240000000001
 20
181.657
 10
67.7008
 20
180.693
 10
67.07559999999999
 20
179.703
 10
66.4268
 20
178.687
 10
65.7543
 20
177.646
 10
65.0583
 20
176.579
 10
64.3386
 20
175.487
 10
64.13160000000001
 20
175.173
 10
63.9268
 20
174.853
 10
63.7242
 20
174.527
 10
63.5238
 20
174.195
 10
63.3257
 20
173.858
 10
63.1298
 20
173.515
 10
62.9361
 20
173.166
 10
62.7446
 20
172.812
 10
62.5553
 20
172.452
 10
62.3682
 20
172.087
 10
62.1833
 20
171.717
 10
62.0006
 20
171.342
 10
61.82
 20
170.962
 10
61.6416
 20
170.577
 10
61.4654
 20
170.187
 10
61.2913
 20
169.793
 10
61.1194
 20
169.394
 10
60.9496
 20
168.99
 10
60.782
 20
168.582
 10
60.6165
 20
168.17
 10
60.4531
 20
167.754
 10
60.2919
 20
167.333
 10
60.1327
 20
166.909
 10
59.9757
 20
166.481
 10
59.8208
 20
166.048
 10
59.668
 20
165.613
 10
59.5173
 20
165.173
 10
59.3687
 20
164.73
 10
59.2221
 20
164.284
 10
59.0777
 20
163.834
 10
58.9353
 20
163.381
 10
58.7949
 20
162.925
 10
58.6567
 20
162.466
 10
58.5205
 20
162.004
 10
58.3863
 20
161.54
 10
58.2542
 20
161.072
 10
58.1241
 20
160.602
 10
57.996
 20
160.13
 10
57.87
 20
159.655
 10
57.746
 20
159.177
 10
57.624
 20
158.698
 10
57.504
 20
158.216
 10
57.386
 20
157.732
 10
57.2701
 20
157.247
 10
57.1561
 20
156.759
 10
57.0441
 20
156.27
 10
56.934
 20
155.779
 10
56.826
 20
155.287
 10
56.7199
 20
154.793
 10
56.6158
 20
154.298
 10
56.5136
 20
153.802
 10
56.4134
 20
153.304
 10
56.3151
 20
152.806
 10
56.2188
 20
152.307
 10
56.1244
 20
151.806
 10
56.032
 20
151.305
 10
55.8528
 20
150.301
 10
55.6813
 20
149.296
 10
55.5173
 20
148.289
 10
55.361
 20
147.282
 10
55.2121
 20
146.276
 10
55.0707
 20
145.271
 10
54.9367
 20
144.268
 10
54.8101
 20
143.268
 10
54.6908
 20
142.272
 10
54.5788
 20
141.28
 10
54.474
 20
140.294
 10
54.3764
 20
139.314
 10
54.2859
 20
138.341
 10
54.2025
 20
137.375
 10
54.1262
 20
136.418
 10
54.0569
 20
135.47
 10
53.9945
 20
134.532
 10
53.939
 20
133.605
 10
53.8904
 20
132.689
 10
53.8487
 20
131.786
 10
53.8137
 20
130.896
 10
53.7854
 20
130.02
 10
53.7638
 20
129.159
 10
53.7488
 20
128.313
 10
53.7404
 20
127.484
 10
53.7386
 20
126.671
 10
53.7433
 20
125.877
 10
53.7544
 20
125.102
 10
53.7719
 20
124.345
 10
53.7958
 20
123.61
 10
53.826
 20
122.895
 10
53.8624
 20
122.202
 10
53.9051
 20
121.532
 10
53.954
 20
120.885
 10
53.9807
 20
120.57
 10
54.0089
 20
120.262
 10
54.0387
 20
119.96
 10
54.07
 20
119.664
 10
54.1038
 20
119.371
 10
54.1402
 20
119.084
 10
54.1792
 20
118.802
 10
54.2208
 20
118.525
 10
54.265
 20
118.254
 10
54.3117
 20
117.989
 10
54.3608
 20
117.729
 10
54.4124
 20
117.475
 10
54.4663
 20
117.226
 10
54.5226
 20
116.982
 10
54.5812
 20
116.744
 10
54.6421
 20
116.511
 10
54.7052
 20
116.284
 10
54.7706
 20
116.062
 10
54.8381
 20
115.845
 10
54.9077
 20
115.634
 10
54.9794
 20
115.427
 10
55.0531
 20
115.227
 10
55.1288
 20
115.031
 10
55.2065
 20
114.84
 10
55.2862
 20
114.655
 10
55.3677
 20
114.475
 10
55.4511
 20
114.3
 10
55.5363
 20
114.13
 10
55.6233
 20
113.966
 10
55.712
 20
113.806
 10
55.8024
 20
113.651
 10
55.8945
 20
113.502
 10
55.9882
 20
113.357
 10
56.0835
 20
113.218
 10
56.1803
 20
113.083
 10
56.2787
 20
112.954
 10
56.3785
 20
112.829
 10
56.4797
 20
112.709
 10
56.5824
 20
112.595
 10
56.6864
 20
112.485
 10
56.7917
 20
112.379
 10
56.8983
 20
112.279
 10
57.0061
 20
112.184
 10
57.1151
 20
112.093
 10
57.2253
 20
112.007
 10
57.3367
 20
111.926
 10
57.4491
 20
111.85
 10
57.5625
 20
111.778
 10
57.677
 20
111.711
 10
57.7925
 20
111.648
 10
57.9088
 20
111.591
 10
58.0261
 20
111.538
 10
58.1442
 20
111.489
 10
58.2632
 20
111.445
 10
58.3829
 20
111.406
 10
58.5034
 20
111.371
 10
58.6246
 20
111.34
 10
58.7464
 20
111.314
 10
58.8689
 20
111.293
 10
58.992
 20
111.276
 10
59.1156
 20
111.264
 10
59.2397
 20
111.255
 10
59.3643
 20
111.252
 10
59.4894
 20
111.252
 10
59.6148
 20
111.257
 10
59.7406
 20
111.267
 10
59.8667
 20
111.28
 10
59.9932
 20
111.298
 10
60.1198
 20
111.32
 10
60.2467
 20
111.346
 10
60.3737
 20
111.377
 10
60.5008
 20
111.412
 10
60.6281
 20
111.451
 10
60.7554
 20
111.494
 10
60.8827
 20
111.541
 10
61.01
 20
111.592
 10
61.1372
 20
111.647
 10
61.2643
 20
111.707
 10
61.3913
 20
111.77
 10
61.5182
 20
111.838
 10
61.6448
 20
111.909
 10
61.7711
 20
111.985
 10
61.8972
 20
112.064
 10
62.0229
 20
112.147
 10
62.1482
 20
112.235
 10
62.2732
 20
112.326
 10
62.3977
 20
112.421
 10
62.5217
 20
112.52
 10
62.6452
 20
112.623
 10
62.7682
 20
112.729
 10
62.8905
 20
112.839
 10
63.0122
 20
112.954
 10
63.1333
 20
113.071
 10
63.2536
 20
113.193
 10
63.3732
 20
113.318
 10
63.492
 20
113.447
 10
63.6099
 20
113.58
 10
63.727
 20
113.716
 10
63.8432
 20
113.856
 10
63.9584
 20
113.999
 10
64.0727
 20
114.146
 10
64.1859
 20
114.297
 10
64.29810000000001
 20
114.451
 10
64.4092
 20
114.608
 10
64.5192
 20
114.769
 10
64.628
 20
114.934
 10
64.7355
 20
115.102
 10
64.8419
 20
115.273
 10
64.9469
 20
115.448
 10
65.0506
 20
115.626
 10
65.15300000000001
 20
115.808
 10
65.2539
 20
115.993
 10
65.35339999999999
 20
116.181
 10
65.4515
 20
116.372
 10
65.548
 20
116.567
 10
65.6429
 20
116.765
 10
65.7363
 20
116.966
 10
65.828
 20
117.171
 10
65.9181
 20
117.379
 10
66.0065
 20
117.589
 10
66.09310000000001
 20
117.803
 10
66.17789999999999
 20
118.02
 10
66.26090000000001
 20
118.241
 10
66.342
 20
118.464
 10
66.4213
 20
118.69
 10
66.4986
 20
118.92
 10
66.57389999999999
 20
119.152
 10
66.6472
 20
119.388
 10
66.7184
 20
119.626
 10
66.7876
 20
119.867
 10
66.8546
 20
120.112
 10
66.9195
 20
120.359
 10
69.9188
 20
132.053
 10
72.0612
 20
140.406
 10
73.3467
 20
145.417
 10
73.7752
 20
147.088
 10
73.9271
 20
147.595
 10
74.08069999999999
 20
148.099
 10
74.2359
 20
148.6
 10
74.3927
 20
149.098
 10
74.55119999999999
 20
149.593
 10
74.71129999999999
 20
150.085
 10
74.873
 20
150.575
 10
75.0364
 20
151.061
 10
75.20140000000001
 20
151.544
 10
75.36799999999999
 20
152.024
 10
75.5363
 20
152.501
 10
75.7062
 20
152.975
 10
75.8777
 20
153.446
 10
76.0508
 20
153.914
 10
76.2256
 20
154.379
 10
76.4021
 20
154.841
 10
76.5801
 20
155.3
 10
76.7598
 20
155.756
 10
76.94110000000001
 20
156.208
 10
77.1241
 20
156.658
 10
77.3087
 20
157.105
 10
77.4949
 20
157.549
 10
77.6828
 20
157.99
 10
77.87220000000001
 20
158.428
 10
78.0634
 20
158.863
 10
78.2561
 20
159.294
 10
78.45050000000001
 20
159.723
 10
78.6465
 20
160.149
 10
78.8442
 20
160.572
 10
79.04349999999999
 20
160.992
 10
79.2444
 20
161.409
 10
79.4469
 20
161.822
 10
79.6511
 20
162.233
 10
79.8569
 20
162.641
 10
80.06440000000001
 20
163.046
 10
80.2735
 20
163.447
 10
80.4842
 20
163.846
 10
80.6965
 20
164.242
 10
80.9105
 20
164.634
 10
81.12609999999999
 20
165.024
 10
81.3434
 20
165.411
 10
81.5622
 20
165.794
 10
81.78279999999999
 20
166.175
 10
82.00490000000001
 20
166.552
 10
82.2287
 20
166.927
 10
82.4541
 20
167.299
 10
82.6811
 20
167.667
 10
82.9098
 20
168.033
 10
83.1401
 20
168.395
 10
83.3721
 20
168.755
 10
83.6056
 20
169.111
 10
83.8408
 20
169.465
 10
84.07769999999999
 20
169.815
 10
84.31619999999999
 20
170.163
 10
84.55629999999999
 20
170.507
 10
84.798
 20
170.849
 10
85.0414
 20
171.187
 10
85.2864
 20
171.523
 10
85.533
 20
171.855
 10
85.7813
 20
172.184
 10
86.0312
 20
172.511
 10
86.28270000000001
 20
172.834
 10
86.5359
 20
173.155
 10
86.7907
 20
173.472
 10
87.004
 20
173.732
 10
87.21169999999999
 20
173.976
 10
87.4134
 20
174.205
 10
87.6086
 20
174.418
 10
87.7971
 20
174.615
 10
87.97839999999999
 20
174.796
 10
88.15219999999999
 20
174.958
 10
88.2362
 20
175.033
 10
88.3181
 20
175.104
 10
88.398
 20
175.17
 10
88.4757
 20
175.231
 10
88.5513
 20
175.288
 10
88.6247
 20
175.34
 10
88.69580000000001
 20
175.388
 10
88.7646
 20
175.43
 10
88.83110000000001
 20
175.468
 10
88.8951
 20
175.501
 10
88.9567
 20
175.53
 10
89.0159
 20
175.553
 10
89.0724
 20
175.571
 10
89.1264
 20
175.584
 10
89.1778
 20
175.591
 10
89.2265
 20
175.594
 10
89.27249999999999
 20
175.592
 10
89.3156
 20
175.584
 10
89.35599999999999
 20
175.571
 10
89.3935
 20
175.552
 10
89.4281
 20
175.528
 10
89.4597
 20
175.498
 10
89.4883
 20
175.463
 10
89.51390000000001
 20
175.422
 10
89.5363
 20
175.376
 10
89.5556
 20
175.324
 10
89.5718
 20
175.266
 10
89.58459999999999
 20
175.202
 10
89.5942
 20
175.133
 10
89.60039999999999
 20
175.057
 10
89.6033
 20
174.976
 10
89.6027
 20
174.888
 10
89.59869999999999
 20
174.794
 10
89.5911
 20
174.695
 10
89.58
 20
174.589
 10
89.5652
 20
174.477
 10
89.5468
 20
174.358
 10
89.5247
 20
174.233
 10
89.4988
 20
174.102
 10
89.4691
 20
173.964
 10
89.4355
 20
173.82
 10
89.398
 20
173.669
 10
89.3566
 20
173.512
 10
89.3113
 20
173.348
 10
89.20829999999999
 20
173
 10
89.08880000000001
 20
172.624
 10
88.9524
 20
172.221
 10
84.70480000000001
 20
159.99
 10
81.6708
 20
151.254
 10
79.8503
 20
146.013
 10
79.2435
 20
144.265
 10
79.09480000000001
 20
143.786
 10
78.9517
 20
143.3
 10
78.8142
 20
142.808
 10
78.6823
 20
142.309
 10
78.55589999999999
 20
141.804
 10
78.43510000000001
 20
141.291
 10
78.3199
 20
140.773
 10
78.2103
 20
140.247
 10
78.1063
 20
139.715
 10
78.0078
 20
139.177
 10
77.9149
 20
138.631
 10
77.8276
 20
138.079
 10
77.74590000000001
 20
137.521
 10
77.6698
 20
136.956
 10
77.5992
 20
136.384
 10
77.5342
 20
135.806
 10
77.4748
 20
135.221
 10
77.42100000000001
 20
134.63
 10
77.37269999999999
 20
134.031
 10
77.3301
 20
133.427
 10
77.29300000000001
 20
132.815
 10
77.2615
 20
132.197
 10
77.23560000000001
 20
131.573
 10
77.2152
 20
130.942
 10
77.20050000000001
 20
130.304
 10
77.1913
 20
129.66
 10
77.18770000000001
 20
129.008
 10
77.1896
 20
128.351
 10
77.1972
 20
127.687
 10
77.2103
 20
127.016
 10
77.229
 20
126.338
 10
77.2533
 20
125.654
 10
77.26560000000001
 20
125.387
 10
77.28100000000001
 20
125.125
 10
77.2997
 20
124.869
 10
77.3215
 20
124.618
 10
77.3464
 20
124.374
 10
77.37439999999999
 20
124.134
 10
77.4054
 20
123.9
 10
77.43940000000001
 20
123.672
 10
77.4764
 20
123.449
 10
77.5164
 20
123.231
 10
77.55929999999999
 20
123.019
 10
77.605
 20
122.811
 10
77.6537
 20
122.609
 10
77.7051
 20
122.412
 10
77.7593
 20
122.22
 10
77.8163
 20
122.034
 10
77.876
 20
121.852
 10
77.9383
 20
121.675
 10
78.0034
 20
121.502
 10
78.071
 20
121.335
 10
78.1412
 20
121.173
 10
78.214
 20
121.015
 10
78.2894
 20
120.862
 10
78.3672
 20
120.713
 10
78.4474
 20
120.57
 10
78.5301
 20
120.43
 10
78.6152
 20
120.296
 10
78.70269999999999
 20
120.165
 10
78.7925
 20
120.039
 10
78.88460000000001
 20
119.917
 10
78.9789
 20
119.8
 10
79.07550000000001
 20
119.687
 10
79.1742
 20
119.578
 10
79.2752
 20
119.473
 10
79.37820000000001
 20
119.372
 10
79.4834
 20
119.275
 10
79.5907
 20
119.183
 10
79.6999
 20
119.094
 10
79.8112
 20
119.009
 10
79.92449999999999
 20
118.928
 10
80.03959999999999
 20
118.85
 10
80.1567
 20
118.777
 10
80.2757
 20
118.707
 10
80.3965
 20
118.641
 10
80.51909999999999
 20
118.578
 10
80.6435
 20
118.519
 10
80.7696
 20
118.463
 10
80.89749999999999
 20
118.411
 10
81.027
 20
118.362
 10
81.1581
 20
118.317
 10
81.29089999999999
 20
118.274
 10
81.42529999999999
 20
118.236
 10
81.5612
 20
118.2
 10
81.6986
 20
118.167
 10
81.83750000000001
 20
118.138
 10
81.9778
 20
118.111
 10
82.11960000000001
 20
118.088
 10
82.2627
 20
118.067
 10
82.4072
 20
118.049
 10
82.553
 20
118.035
 10
82.70010000000001
 20
118.023
 10
82.8485
 20
118.013
 10
82.998
 20
118.007
 10
83.14879999999999
 20
118.003
 10
83.30070000000001
 20
118.002
 10
83.4538
 20
118.003
 10
83.6079
 20
118.007
 10
83.76309999999999
 20
118.013
 10
83.91930000000001
 20
118.021
 10
84.0765
 20
118.032
 10
84.2347
 20
118.046
 10
84.3938
 20
118.061
 10
84.5538
 20
118.079
 10
84.7146
 20
118.099
 10
85.03879999999999
 20
118.144
 10
85.366
 20
118.198
 10
85.696
 20
118.26
 10
86.0286
 20
118.329
 10
86.3634
 20
118.404
 10
86.7003
 20
118.486
 10
87.0389
 20
118.574
 10
87.379
 20
118.668
 10
87.7204
 20
118.766
 10
88.06270000000001
 20
118.87
 10
88.4057
 20
118.978
 10
88.7492
 20
119.091
 10
89.0929
 20
119.206
 10
89.4365
 20
119.325
 10
89.77979999999999
 20
119.447
 10
90.1224
 20
119.572
 10
90.46429999999999
 20
119.698
 10
91.1444
 20
119.955
 10
91.81789999999999
 20
120.216
 10
92.4829
 20
120.478
 10
93.7786
 20
120.988
 10
94.1176
 20
121.122
 10
94.4558
 20
121.257
 10
94.7932
 20
121.395
 10
95.12990000000001
 20
121.535
 10
95.4658
 20
121.677
 10
95.801
 20
121.82
 10
96.1354
 20
121.966
 10
96.46899999999999
 20
122.114
 10
96.8019
 20
122.264
 10
97.134
 20
122.415
 10
97.4653
 20
122.569
 10
97.7958
 20
122.725
 10
98.12560000000001
 20
122.882
 10
98.4547
 20
123.042
 10
98.7829
 20
123.204
 10
99.1104
 20
123.367
 10
99.4372
 20
123.533
 10
99.76309999999999
 20
123.701
 10
100.088
 20
123.87
 10
100.413
 20
124.042
 10
100.737
 20
124.216
 10
101.059
 20
124.391
 10
101.382
 20
124.569
 10
101.703
 20
124.749
 10
102.023
 20
124.93
 10
102.343
 20
125.114
 10
102.662
 20
125.3
 10
102.981
 20
125.487
 10
103.298
 20
125.677
 10
103.615
 20
125.868
 10
103.931
 20
126.062
 10
104.246
 20
126.258
 10
104.561
 20
126.455
 10
104.875
 20
126.655
 10
105.188
 20
126.856
 10
105.5
 20
127.06
 10
105.811
 20
127.266
 10
106.122
 20
127.473
 10
106.432
 20
127.683
 10
106.741
 20
127.894
 10
107.049
 20
128.108
 10
107.357
 20
128.323
 10
107.664
 20
128.541
 10
107.97
 20
128.761
 10
108.275
 20
128.982
 10
108.58
 20
129.206
 10
108.883
 20
129.431
 10
109.186
 20
129.659
 10
109.489
 20
129.888
 10
109.79
 20
130.12
 10
110.091
 20
130.353
 10
110.391
 20
130.589
 10
110.69
 20
130.826
 10
110.989
 20
131.066
 10
111.286
 20
131.307
 10
111.583
 20
131.551
 10
111.879
 20
131.796
 10
112.175
 20
132.044
 10
112.469
 20
132.293
 10
112.763
 20
132.545
 10
113.056
 20
132.798
 10
113.348
 20
133.054
 10
113.64
 20
133.311
 10
113.931
 20
133.571
 10
114.51
 20
134.096
 10
115.086
 20
134.629
 10
115.659
 20
135.169
 10
116.229
 20
135.718
 10
116.796
 20
136.275
 10
117.36
 20
136.84
 10
117.921
 20
137.413
 10
118.479
 20
137.994
 10
119.034
 20
138.582
 10
119.585
 20
139.179
 10
120.134
 20
139.784
 10
120.68
 20
140.397
 10
121.222
 20
141.017
 10
121.762
 20
141.646
 10
122.298
 20
142.283
 10
122.832
 20
142.927
 10
123.362
 20
143.58
 10
123.889
 20
144.24
 10
124.413
 20
144.909
 10
124.934
 20
145.586
 10
125.452
 20
146.27
 10
125.967
 20
146.963
 10
126.479
 20
147.663
 10
126.988
 20
148.372
 10
127.494
 20
149.088
 10
127.997
 20
149.813
 10
128.496
 20
150.545
 10
128.993
 20
151.286
 10
129.487
 20
152.034
 10
129.977
 20
152.79
 10
130.464
 20
153.555
 10
130.949
 20
154.327
 10
131.173
 20
154.683
 10
131.391
 20
155.022
 10
131.603
 20
155.343
 10
131.809
 20
155.646
 10
132.009
 20
155.933
 10
132.203
 20
156.203
 10
132.391
 20
156.456
 10
132.573
 20
156.693
 10
132.749
 20
156.914
 10
132.919
 20
157.119
 10
133.084
 20
157.309
 10
133.242
 20
157.483
 10
133.395
 20
157.643
 10
133.542
 20
157.787
 10
133.684
 20
157.918
 10
133.819
 20
158.034
 10
133.949
 20
158.136
 10
134.074
 20
158.225
 10
134.134
 20
158.264
 10
134.193
 20
158.299
 10
134.25
 20
158.332
 10
134.306
 20
158.361
 10
134.36
 20
158.387
 10
134.413
 20
158.41
 10
134.465
 20
158.43
 10
134.516
 20
158.447
 10
134.565
 20
158.46
 10
134.612
 20
158.47
 10
134.659
 20
158.478
 10
134.704
 20
158.482
 10
134.747
 20
158.484
 10
134.789
 20
158.482
 10
134.83
 20
158.478
 10
134.87
 20
158.47
 10
134.908
 20
158.46
 10
134.945
 20
158.447
 10
134.98
 20
158.432
 10
135.014
 20
158.413
 10
135.047
 20
158.392
 10
135.079
 20
158.368
 10
135.109
 20
158.342
 10
135.138
 20
158.312
 10
135.165
 20
158.281
 10
135.191
 20
158.246
 10
135.216
 20
158.21
 10
135.24
 20
158.171
 10
135.262
 20
158.129
 10
135.283
 20
158.085
 10
135.303
 20
158.038
 10
135.321
 20
157.989
 10
135.354
 20
157.885
 10
135.382
 20
157.771
 10
135.405
 20
157.649
 10
135.423
 20
157.518
 10
135.435
 20
157.378
 10
135.443
 20
157.231
 10
135.446
 20
157.076
 10
135.443
 20
156.914
 10
135.436
 20
156.744
 10
135.424
 20
156.567
 10
135.407
 20
156.384
 10
135.385
 20
156.194
 10
135.359
 20
155.998
 10
135.327
 20
155.796
 10
135.291
 20
155.589
 10
135.25
 20
155.376
 10
135.205
 20
155.157
 10
135.155
 20
154.935
 10
135.1
 20
154.707
 10
135.04
 20
154.475
 10
134.976
 20
154.239
 10
134.908
 20
153.999
 10
134.834
 20
153.755
 10
134.757
 20
153.508
 10
134.675
 20
153.258
 10
134.588
 20
153.005
 10
134.497
 20
152.75
 10
134.402
 20
152.492
 10
134.303
 20
152.232
 10
134.198
 20
151.97
 10
134.025
 20
151.546
 10
133.848
 20
151.122
 10
133.667
 20
150.7
 10
133.483
 20
150.279
 10
133.296
 20
149.858
 10
133.104
 20
149.439
 10
132.91
 20
149.021
 10
132.712
 20
148.603
 10
132.51
 20
148.187
 10
132.305
 20
147.772
 10
132.097
 20
147.358
 10
131.885
 20
146.945
 10
131.669
 20
146.533
 10
131.451
 20
146.121
 10
131.228
 20
145.711
 10
131.002
 20
145.302
 10
130.773
 20
144.894
 10
130.54
 20
144.487
 10
130.304
 20
144.081
 10
130.064
 20
143.677
 10
129.82
 20
143.273
 10
129.574
 20
142.87
 10
129.323
 20
142.468
 10
129.07
 20
142.067
 10
128.812
 20
141.667
 10
128.552
 20
141.268
 10
128.287
 20
140.871
 10
128.02
 20
140.474
 10
127.748
 20
140.078
 10
127.474
 20
139.684
 10
127.196
 20
139.29
 10
126.914
 20
138.897
 10
126.629
 20
138.506
 10
126.34
 20
138.115
 10
126.048
 20
137.726
 10
125.752
 20
137.337
 10
125.453
 20
136.95
 10
125.151
 20
136.563
 10
124.845
 20
136.178
 10
124.535
 20
135.793
 10
124.222
 20
135.41
 10
123.906
 20
135.028
 10
123.586
 20
134.647
 10
123.262
 20
134.266
 10
122.935
 20
133.887
 10
122.605
 20
133.509
 10
122.271
 20
133.131
 10
121.934
 20
132.755
 10
121.593
 20
132.38
 10
121.248
 20
132.006
 10
120.901
 20
131.633
 10
120.549
 20
131.261
 10
120.194
 20
130.89
 10
119.836
 20
130.52
 10
119.474
 20
130.151
 10
119.109
 20
129.783
 10
118.74
 20
129.416
 10
118.368
 20
129.05
 10
117.992
 20
128.685
 10
117.613
 20
128.321
 10
117.231
 20
127.959
 10
116.844
 20
127.597
 10
116.455
 20
127.236
 10
116.061
 20
126.876
 10
115.665
 20
126.517
 10
115.265
 20
126.16
 10
114.861
 20
125.803
 10
114.454
 20
125.448
 10
114.043
 20
125.093
 10
113.629
 20
124.739
 10
113.212
 20
124.387
 10
112.791
 20
124.035
 10
112.366
 20
123.685
 10
111.938
 20
123.335
 10
111.507
 20
122.987
 10
111.072
 20
122.639
 10
110.634
 20
122.293
 10
110.192
 20
121.948
 10
109.746
 20
121.603
 10
109.297
 20
121.26
 10
108.845
 20
120.918
 10
108.389
 20
120.576
 10
107.93
 20
120.236
 10
107.467
 20
119.897
 10
107.001
 20
119.559
 10
106.531
 20
119.222
 10
106.058
 20
118.886
 10
105.581
 20
118.55
 10
105.1
 20
118.216
 10
104.617
 20
117.883
 10
104.13
 20
117.551
 10
103.639
 20
117.22
 10
103.145
 20
116.891
 10
102.647
 20
116.561
 10
102.146
 20
116.234
 10
101.641
 20
115.907
 10
101.133
 20
115.581
 10
100.621
 20
115.256
 10
100.106
 20
114.932
 10
99.5878
 20
114.609
 10
99.0658
 20
114.288
 10
98.5402
 20
113.967
 10
98.0112
 20
113.647
 10
97.4787
 20
113.329
 10
96.9427
 20
113.011
 10
96.4032
 20
112.695
 10
95.86020000000001
 20
112.379
 10
95.3138
 20
112.064
 10
94.7638
 20
111.751
 10
94.21040000000001
 20
111.438
 10
93.65349999999999
 20
111.127
 10
93.09310000000001
 20
110.816
 10
92.52930000000001
 20
110.507
 10
91.9619
 20
110.199
 10
91.39109999999999
 20
109.891
 10
90.8167
 20
109.585
 10
90.2389
 20
109.28
 10
89.6576
 20
108.975
 10
89.0729
 20
108.672
 10
88.4846
 20
108.37
 10
87.8929
 20
108.069
 10
87.2976
 20
107.769
 10
86.69889999999999
 20
107.469
 10
86.0967
 20
107.171
 10
85.491
 20
106.874
 10
84.8819
 20
106.578
 10
84.2692
 20
106.283
 10
83.65309999999999
 20
105.989
 10
81.2257
 20
104.812
 10
78.7863
 20
103.634
 10
76.3349
 20
102.456
 10
73.8715
 20
101.276
 10
71.3961
 20
100.096
 10
68.9087
 20
98.9157
 10
66.4092
 20
97.7343
 10
63.8978
 20
96.5522
 10
62.0404
 20
95.4342
 10
61.1871
 20
94.9205
 10
60.3848
 20
94.43470000000001
 10
59.6342
 20
93.97490000000001
 10
58.9356
 20
93.5394
 10
58.606
 20
93.3302
 10
58.2896
 20
93.1264
 10
57.9866
 20
92.9278
 10
57.6969
 20
92.7341
 10
57.4207
 20
92.54519999999999
 10
57.1579
 20
92.36069999999999
 10
56.9087
 20
92.1806
 10
56.6732
 20
92.00449999999999
 10
56.4514
 20
91.8322
 10
56.2433
 20
91.6636
 10
56.0491
 20
91.4984
 10
55.8688
 20
91.33629999999999
 10
55.7024
 20
91.1771
 10
55.6245
 20
91.0986
 10
55.5502
 20
91.02070000000001
 10
55.4793
 20
90.9434
 10
55.412
 20
90.8668
 10
55.3482
 20
90.7907
 10
55.288
 20
90.71510000000001
 10
55.2313
 20
90.6401
 10
55.1782
 20
90.5655
 10
55.1287
 20
90.4914
 10
55.0828
 20
90.4177
 10
55.0405
 20
90.3445
 10
55.0018
 20
90.27160000000001
 10
54.9667
 20
90.199
 10
54.9352
 20
90.1268
 10
54.9073
 20
90.0548
 10
54.8831
 20
89.9832
 10
54.8626
 20
89.9117
 10
54.8457
 20
89.84050000000001
 10
54.8324
 20
89.7694
 10
54.8228
 20
89.6985
 10
54.8169
 20
89.6277
 10
54.8147
 20
89.557
 10
54.8162
 20
89.4863
 10
54.8214
 20
89.4157
 10
54.8304
 20
89.3451
 10
54.843
 20
89.2745
 10
54.8594
 20
89.2039
 10
54.8795
 20
89.1332
 10
54.9034
 20
89.06229999999999
 10
54.931
 20
88.9914
 10
54.9624
 20
88.9203
 10
54.9975
 20
88.849
 10
55.0365
 20
88.7774
 10
55.0792
 20
88.70569999999999
 10
55.1257
 20
88.6337
 10
55.1761
 20
88.5613
 10
55.2302
 20
88.48869999999999
 10
55.2882
 20
88.4157
 10
55.3501
 20
88.34229999999999
 10
55.4157
 20
88.2685
 10
55.4852
 20
88.1943
 10
55.5586
 20
88.11960000000001
 10
55.6358
 20
88.0445
 10
55.717
 20
87.9688
 10
55.802
 20
87.8925
 10
55.8909
 20
87.81570000000001
 10
56.0804
 20
87.6602
 10
56.2856
 20
87.5021
 10
56.5065
 20
87.3411
 10
56.7432
 20
87.17700000000001
 10
56.9958
 20
87.0097
 10
57.2644
 20
86.8387
 10
57.549
 20
86.6641
 10
57.8496
 20
86.4854
 10
58.1665
 20
86.3026
 10
58.4995
 20
86.1153
 10
58.8488
 20
85.9234
 10
59.2145
 20
85.7266
 10
59.5966
 20
85.5247
 10
59.9952
 20
85.3175
 10
60.4103
 20
85.1048
 10
60.8421
 20
84.88630000000001
 10
62.3163
 20
84.1463
 10
63.8002
 20
83.4051
 10
65.2937
 20
82.6628
 10
66.79689999999999
 20
81.9194
 10
68.30970000000001
 20
81.1748
 10
69.8321
 20
80.42910000000001
 10
71.3642
 20
79.68219999999999
 10
72.90600000000001
 20
78.9342
 10
74.4573
 20
78.185
 10
76.0183
 20
77.4348
 10
77.589
 20
76.6833
 10
79.16930000000001
 20
75.9308
 10
80.75920000000001
 20
75.1771
 10
82.3588
 20
74.4222
 10
83.968
 20
73.6662
 10
85.5868
 20
72.9091
 10
87.2153
 20
72.15089999999999
 10
88.85339999999999
 20
71.39149999999999
 10
90.5012
 20
70.6309
 10
92.15860000000001
 20
69.86920000000001
 10
93.8257
 20
69.10639999999999
 10
95.50230000000001
 20
68.3425
 10
97.1887
 20
67.5774
 10
98.88460000000001
 20
66.8111
 10
100.59
 20
66.0437
 10
102.305
 20
65.2752
 10
104.03
 20
64.5056
 10
105.765
 20
63.7348
 10
107.509
 20
62.9628
 10
109.263
 20
62.1898
 10
111.026
 20
61.4156
 10
112.799
 20
60.6402
 10
113.705
 20
60.2409
 10
113.92
 20
60.1483
 10
114.129
 20
60.0606
 10
114.334
 20
59.9787
 10
114.532
 20
59.9036
 10
114.725
 20
59.8363
 10
114.911
 20
59.7777
 10
115.001
 20
59.7521
 10
115.09
 20
59.7289
 10
115.177
 20
59.7085
 10
115.263
 20
59.6908
 10
115.346
 20
59.6761
 10
115.428
 20
59.6644
 10
115.508
 20
59.6559
 10
115.586
 20
59.6507
 10
115.662
 20
59.6489
 10
115.736
 20
59.6506
 10
115.808
 20
59.656
 10
115.878
 20
59.6652
 10
115.946
 20
59.6783
 10
116.012
 20
59.6954
 10
116.075
 20
59.7166
 10
116.137
 20
59.7421
 10
116.196
 20
59.772
 10
116.253
 20
59.8064
 10
116.307
 20
59.8455
 10
116.36
 20
59.8893
 10
116.409
 20
59.9379
 10
116.457
 20
59.9916
 10
116.502
 20
60.0504
 10
116.544
 20
60.1145
 10
116.584
 20
60.1839
 10
116.622
 20
60.2588
 10
116.656
 20
60.3393
 10
116.689
 20
60.4256
 10
116.718
 20
60.5177
 10
116.745
 20
60.6158
 10
116.769
 20
60.72
 10
116.79
 20
60.8304
 10
116.808
 20
60.9472
 10
116.824
 20
61.0704
 10
116.837
 20
61.2002
 10
116.847
 20
61.3367
 10
116.853
 20
61.4801
 10
116.857
 20
61.6304
 10
116.858
 20
61.7878
 10
116.856
 20
61.9524
 10
116.85
 20
62.1244
 10
116.841
 20
62.3037
 10
116.83
 20
62.4907
 10
116.815
 20
62.6853
 10
116.841
 20
63.2318
 10
116.869
 20
63.7734
 10
116.899
 20
64.31
 10
116.931
 20
64.8417
 10
116.965
 20
65.36839999999999
 10
117.001
 20
65.89019999999999
 10
117.039
 20
66.407
 10
117.079
 20
66.91889999999999
 10
117.121
 20
67.4259
 10
117.165
 20
67.92789999999999
 10
117.21
 20
68.425
 10
117.258
 20
68.9171
 10
117.308
 20
69.40430000000001
 10
117.36
 20
69.8866
 10
117.413
 20
70.3639
 10
117.469
 20
70.83629999999999
 10
117.527
 20
71.30370000000001
 10
117.587
 20
71.7662
 10
117.648
 20
72.22369999999999
 10
117.712
 20
72.6763
 10
117.777
 20
73.124
 10
117.845
 20
73.5667
 10
117.914
 20
74.00449999999999
 10
117.986
 20
74.43729999999999
 10
118.059
 20
74.8652
 10
118.135
 20
75.2882
 10
118.212
 20
75.7062
 10
118.291
 20
76.1193
 10
118.373
 20
76.5274
 10
118.456
 20
76.9306
 10
118.541
 20
77.3288
 10
118.628
 20
77.7221
 10
118.718
 20
78.1105
 10
118.809
 20
78.4939
 10
118.902
 20
78.8724
 10
118.997
 20
79.24590000000001
 10
119.094
 20
79.61450000000001
 10
119.193
 20
79.9781
 10
119.294
 20
80.3369
 10
119.397
 20
80.6906
 10
119.502
 20
81.0394
 10
119.609
 20
81.38330000000001
 10
119.718
 20
81.7223
 10
119.829
 20
82.05629999999999
 10
119.942
 20
82.3853
 10
120.057
 20
82.7094
 10
120.174
 20
83.0286
 10
120.293
 20
83.3428
 10
120.413
 20
83.6521
 10
120.536
 20
83.95650000000001
 10
120.661
 20
84.2559
 10
120.787
 20
84.55029999999999
 10
120.916
 20
84.8398
 10
121.047
 20
85.12439999999999
 10
121.179
 20
85.4041
 10
121.314
 20
85.6788
 10
121.451
 20
85.9485
 10
121.589
 20
86.2133
 10
121.73
 20
86.47320000000001
 10
121.872
 20
86.7281
 10
122.016
 20
86.9781
 10
122.163
 20
87.2231
 10
122.311
 20
87.4632
 10
122.462
 20
87.69840000000001
 10
122.572
 20
87.86539999999999
 10
122.68
 20
88.02500000000001
 10
122.787
 20
88.1773
 10
122.892
 20
88.3224
 10
122.995
 20
88.4603
 10
123.096
 20
88.59099999999999
 10
123.195
 20
88.71469999999999
 10
123.292
 20
88.83150000000001
 10
123.388
 20
88.9413
 10
123.482
 20
89.04430000000001
 10
123.574
 20
89.1405
 10
123.664
 20
89.23009999999999
 10
123.752
 20
89.313
 10
123.838
 20
89.38939999999999
 10
123.922
 20
89.4593
 10
124.004
 20
89.5228
 10
124.085
 20
89.57989999999999
 10
124.163
 20
89.63079999999999
 10
124.24
 20
89.6755
 10
124.314
 20
89.714
 10
124.387
 20
89.7465
 10
124.457
 20
89.773
 10
124.526
 20
89.79349999999999
 10
124.593
 20
89.8082
 10
124.657
 20
89.8172
 10
124.72
 20
89.82040000000001
 10
124.78
 20
89.818
 10
124.839
 20
89.81
 10
124.895
 20
89.79649999999999
 10
124.949
 20
89.77760000000001
 10
125.001
 20
89.7533
 10
125.052
 20
89.72369999999999
 10
125.1
 20
89.6889
 10
125.146
 20
89.649
 10
125.189
 20
89.604
 10
125.231
 20
89.5539
 10
125.271
 20
89.499
 10
125.308
 20
89.4391
 10
125.343
 20
89.3745
 10
125.376
 20
89.3051
 10
125.407
 20
89.2311
 10
125.436
 20
89.1525
 10
125.462
 20
89.0693
 10
125.487
 20
88.9817
 10
125.509
 20
88.88979999999999
 10
125.529
 20
88.79349999999999
 10
125.546
 20
88.693
 10
125.562
 20
88.5883
 10
125.575
 20
88.4795
 10
125.585
 20
88.36669999999999
 10
125.594
 20
88.25
 10
125.6
 20
88.1293
 10
125.604
 20
88.0048
 10
125.606
 20
87.8766
 10
125.605
 20
87.74469999999999
 10
125.602
 20
87.6092
 10
125.597
 20
87.47020000000001
 10
125.589
 20
87.32769999999999
 10
125.579
 20
87.1818
 10
125.567
 20
87.0325
 10
125.552
 20
86.88
 10
125.535
 20
86.7243
 10
125.493
 20
86.4037
 10
125.407
 20
85.7788
 10
125.325
 20
85.14530000000001
 10
125.246
 20
84.5034
 10
125.171
 20
83.85299999999999
 10
125.101
 20
83.19410000000001
 10
125.034
 20
82.52670000000001
 10
124.971
 20
81.85080000000001
 10
124.911
 20
81.1664
 10
124.856
 20
80.4735
 10
124.804
 20
79.77209999999999
 10
124.757
 20
79.0622
 10
124.713
 20
78.3438
 10
124.673
 20
77.617
 10
124.637
 20
76.88160000000001
 10
124.604
 20
76.1378
 10
124.576
 20
75.3854
 10
124.608
 20
75.0966
 10
124.645
 20
74.8189
 10
124.689
 20
74.55240000000001
 10
124.739
 20
74.297
 10
124.766
 20
74.17359999999999
 10
124.794
 20
74.05289999999999
 10
124.824
 20
73.935
 10
124.856
 20
73.8199
 10
124.889
 20
73.7076
 10
124.923
 20
73.598
 10
124.959
 20
73.4913
 10
124.997
 20
73.3874
 10
125.036
 20
73.28619999999999
 10
125.076
 20
73.1879
 10
125.118
 20
73.09229999999999
 10
125.161
 20
72.9995
 10
125.206
 20
72.90949999999999
 10
125.253
 20
72.8223
 10
125.3
 20
72.7379
 10
125.35
 20
72.6563
 10
125.401
 20
72.5775
 10
125.453
 20
72.50149999999999
 10
125.507
 20
72.42829999999999
 10
125.562
 20
72.3578
 10
125.619
 20
72.2902
 10
125.677
 20
72.2253
 10
125.737
 20
72.16330000000001
 10
125.798
 20
72.104
 10
125.861
 20
72.0475
 10
125.925
 20
71.99379999999999
 10
125.991
 20
71.94289999999999
 10
126.058
 20
71.8948
 10
126.127
 20
71.84950000000001
 10
126.197
 20
71.807
 10
126.269
 20
71.7672
 10
126.342
 20
71.7303
 10
126.417
 20
71.6961
 10
126.493
 20
71.6648
 10
126.57
 20
71.6362
 10
126.65
 20
71.6105
 10
126.73
 20
71.58750000000001
 10
126.812
 20
71.5673
 10
126.896
 20
71.54989999999999
 10
126.981
 20
71.53530000000001
 10
127.067
 20
71.5235
 10
127.156
 20
71.51439999999999
 10
127.245
 20
71.5082
 10
127.336
 20
71.5048
 10
127.429
 20
71.50409999999999
 10
127.523
 20
71.50620000000001
 10
127.618
 20
71.5112
 10
127.715
 20
71.5189
 10
127.814
 20
71.5294
 10
127.914
 20
71.5427
 10
128.015
 20
71.55880000000001
 10
128.118
 20
71.57769999999999
 10
128.222
 20
71.5994
 10
128.328
 20
71.62390000000001
 10
128.436
 20
71.6511
 10
128.545
 20
71.6812
 10
128.801
 20
71.7812
 10
129.052
 20
71.8768
 10
129.298
 20
71.968
 10
129.538
 20
72.0548
 10
129.772
 20
72.13720000000001
 10
130.001
 20
72.2152
 10
130.225
 20
72.28879999999999
 10
130.443
 20
72.358
 10
130.656
 20
72.4228
 10
130.863
 20
72.4832
 10
131.065
 20
72.53919999999999
 10
131.261
 20
72.5908
 10
131.452
 20
72.63800000000001
 10
131.637
 20
72.6808
 10
131.817
 20
72.7192
 10
131.991
 20
72.75320000000001
 10
132.16
 20
72.78279999999999
 10
132.324
 20
72.80800000000001
 10
132.482
 20
72.8288
 10
132.634
 20
72.84520000000001
 10
132.781
 20
72.85720000000001
 10
132.923
 20
72.8648
 10
133.059
 20
72.86799999999999
 10
133.189
 20
72.8668
 10
133.314
 20
72.8612
 10
133.434
 20
72.85120000000001
 10
133.548
 20
72.8368
 10
133.657
 20
72.818
 10
133.76
 20
72.7948
 10
133.858
 20
72.76730000000001
 10
133.95
 20
72.7353
 10
134.037
 20
72.69889999999999
 10
134.118
 20
72.6581
 10
134.194
 20
72.6129
 10
134.264
 20
72.5633
 10
134.329
 20
72.5093
 10
134.389
 20
72.45099999999999
 10
134.443
 20
72.3882
 10
134.491
 20
72.321
 10
134.534
 20
72.24939999999999
 10
134.572
 20
72.1734
 10
134.604
 20
72.09310000000001
 10
134.63
 20
72.00830000000001
 10
134.651
 20
71.9191
 10
134.667
 20
71.82550000000001
 10
134.677
 20
71.72750000000001
 10
134.682
 20
71.62520000000001
 10
134.681
 20
71.5184
 10
134.675
 20
71.4072
 10
134.663
 20
71.29170000000001
 10
134.646
 20
71.1717
 10
134.624
 20
71.04730000000001
 10
134.595
 20
70.91849999999999
 10
134.562
 20
70.7854
 10
134.523
 20
70.6478
 10
134.478
 20
70.50579999999999
 10
134.428
 20
70.3595
 10
134.373
 20
70.20869999999999
 10
134.312
 20
70.0535
 10
134.245
 20
69.89400000000001
 10
134.173
 20
69.73
 10
134.096
 20
69.5616
 10
134.013
 20
69.38890000000001
 10
133.925
 20
69.21169999999999
 10
133.81
 20
69.05840000000001
 10
133.692
 20
68.9055
 10
133.571
 20
68.7531
 10
133.446
 20
68.60120000000001
 10
133.318
 20
68.4498
 10
133.186
 20
68.2988
 10
133.051
 20
68.14830000000001
 10
132.912
 20
67.9982
 10
132.77
 20
67.84869999999999
 10
132.625
 20
67.6995
 10
132.476
 20
67.5509
 10
132.323
 20
67.4027
 10
132.167
 20
67.255
 10
132.008
 20
67.1078
 10
131.845
 20
66.961
 10
131.678
 20
66.8147
 10
131.508
 20
66.66889999999999
 10
131.335
 20
66.5235
 10
131.158
 20
66.37860000000001
 10
130.978
 20
66.2342
 10
130.794
 20
66.0902
 10
130.607
 20
65.94670000000001
 10
130.417
 20
65.80370000000001
 10
130.222
 20
65.6611
 10
130.025
 20
65.51900000000001
 10
129.824
 20
65.37739999999999
 10
129.619
 20
65.2362
 10
129.411
 20
65.0955
 10
129.2
 20
64.95529999999999
 10
128.985
 20
64.8155
 10
128.767
 20
64.67619999999999
 10
128.545
 20
64.53740000000001
 10
128.371
 20
64.38420000000001
 10
128.202
 20
64.2313
 10
128.037
 20
64.07859999999999
 10
127.879
 20
63.9261
 10
127.725
 20
63.7738
 10
127.576
 20
63.6218
 10
127.432
 20
63.47
 10
127.293
 20
63.3184
 10
127.159
 20
63.167
 10
127.031
 20
63.0159
 10
126.907
 20
62.865
 10
126.788
 20
62.7143
 10
126.675
 20
62.5638
 10
126.566
 20
62.4136
 10
126.463
 20
62.2636
 10
126.365
 20
62.1138
 10
126.271
 20
61.9642
 10
126.183
 20
61.8149
 10
126.1
 20
61.6658
 10
126.021
 20
61.5169
 10
125.948
 20
61.3682
 10
125.88
 20
61.2198
 10
125.817
 20
61.0716
 10
125.759
 20
60.9236
 10
125.706
 20
60.7758
 10
125.658
 20
60.6283
 10
125.615
 20
60.481
 10
125.577
 20
60.3339
 10
125.544
 20
60.1871
 10
125.516
 20
60.0404
 10
125.494
 20
59.894
 10
125.476
 20
59.7478
 10
125.463
 20
59.6019
 10
125.456
 20
59.4561
 10
125.453
 20
59.3106
 10
125.456
 20
59.1653
 10
125.463
 20
59.0203
 10
125.476
 20
58.8754
 10
125.494
 20
58.7308
 10
125.516
 20
58.5865
 10
125.544
 20
58.4423
 10
125.577
 20
58.2984
 10
125.615
 20
58.1547
 10
125.657
 20
58.0112
 10
125.706
 20
57.8679
 10
125.758
 20
57.7249
 10
125.817
 20
57.5821
 10
125.879
 20
57.4395
 10
125.948
 20
57.2971
 10
126.021
 20
57.155
 10
126.099
 20
57.0131
 10
126.182
 20
56.8714
 10
126.27
 20
56.73
 10
126.364
 20
56.5887
 10
126.462
 20
56.4477
 10
126.566
 20
56.3069
 10
126.674
 20
56.1664
 10
126.788
 20
56.0261
 10
126.906
 20
55.886
 10
127.03
 20
55.7461
 10
127.159
 20
55.6064
 10
127.292
 20
55.467
 10
127.431
 20
55.3278
 10
127.575
 20
55.1888
 10
127.73
 20
55.0295
 10
127.891
 20
54.8677
 10
128.057
 20
54.7036
 10
128.229
 20
54.537
 10
128.407
 20
54.368
 10
128.59
 20
54.1966
 10
128.779
 20
54.0227
 10
128.974
 20
53.8464
 10
129.38
 20
53.4866
 10
129.809
 20
53.1171
 10
130.261
 20
52.7379
 10
130.735
 20
52.349
 10
131.232
 20
51.9504
 10
131.752
 20
51.5421
 10
132.294
 20
51.1241
 10
132.859
 20
50.6964
 10
133.447
 20
50.2591
 10
134.057
 20
49.812
 10
134.69
 20
49.3552
 10
135.346
 20
48.8888
 10
136.024
 20
48.4127
 10
136.725
 20
47.9268
 10
137.449
 20
47.4313
 10
138.195
 20
46.9261
 10
138.964
 20
46.4112
 10
139.756
 20
45.8866
 10
140.57
 20
45.3523
 10
141.407
 20
44.8083
 10
142.266
 20
44.2546
 10
143.149
 20
43.6913
 10
144.054
 20
43.1182
 10
144.981
 20
42.5354
 10
145.931
 20
41.943
 10
146.904
 20
41.3409
 10
147.9
 20
40.729
 10
148.918
 20
40.1075
 10
164.753
 20
40.1075
 10
176.064
 20
40.1075
 10
182.851
 20
40.1075
 10
185.113
 20
40.1075
 10
186.131
 20
40.729
 10
187.127
 20
41.3409
 10
188.1
 20
41.943
 10
189.05
 20
42.5354
 10
189.977
 20
43.1182
 10
190.882
 20
43.6913
 10
191.765
 20
44.2546
 10
192.624
 20
44.8083
 10
193.461
 20
45.3523
 10
194.275
 20
45.8866
 10
195.067
 20
46.4112
 10
195.836
 20
46.9261
 10
196.582
 20
47.4313
 10
197.306
 20
47.9268
 10
198.007
 20
48.4127
 10
198.685
 20
48.8888
 10
199.341
 20
49.3552
 10
199.974
 20
49.812
 10
200.584
 20
50.2591
 10
201.172
 20
50.6964
 10
201.737
 20
51.1241
 10
202.279
 20
51.5421
 10
202.799
 20
51.9504
 10
203.296
 20
52.349
 10
203.77
 20
52.7379
 10
204.222
 20
53.1171
 10
204.651
 20
53.4866
 10
205.057
 20
53.8464
 10
205.252
 20
54.0227
 10
205.441
 20
54.1966
 10
205.624
 20
54.368
 10
205.802
 20
54.537
 10
205.974
 20
54.7036
 10
206.141
 20
54.8677
 10
206.301
 20
55.0295
 10
206.456
 20
55.1888
 10
206.6
 20
55.3278
 10
206.739
 20
55.467
 10
206.873
 20
55.6064
 10
207.001
 20
55.7461
 10
207.125
 20
55.886
 10
207.243
 20
56.0261
 10
207.357
 20
56.1664
 10
207.465
 20
56.3069
 10
207.569
 20
56.4477
 10
207.667
 20
56.5887
 10
207.761
 20
56.73
 10
207.849
 20
56.8714
 10
207.932
 20
57.0131
 10
208.01
 20
57.155
 10
208.083
 20
57.2971
 10
208.151
 20
57.4395
 10
208.214
 20
57.5821
 10
208.273
 20
57.7249
 10
208.326
 20
57.8679
 10
208.374
 20
58.0112
 10
208.416
 20
58.1547
 10
208.454
 20
58.2984
 10
208.487
 20
58.4423
 10
208.515
 20
58.5865
 10
208.537
 20
58.7308
 10
208.555
 20
58.8754
 10
208.568
 20
59.0203
 10
208.575
 20
59.1653
 10
208.578
 20
59.3106
 10
208.575
 20
59.4561
 10
208.568
 20
59.6019
 10
208.555
 20
59.7478
 10
208.537
 20
59.894
 10
208.514
 20
60.0404
 10
208.487
 20
60.1871
 10
208.454
 20
60.3339
 10
208.416
 20
60.481
 10
208.373
 20
60.6283
 10
208.325
 20
60.7758
 10
208.272
 20
60.9236
 10
208.214
 20
61.0716
 10
208.151
 20
61.2198
 10
208.083
 20
61.3682
 10
208.01
 20
61.5169
 10
207.931
 20
61.6658
 10
207.848
 20
61.8149
 10
207.76
 20
61.9642
 10
207.667
 20
62.1138
 10
207.568
 20
62.2636
 10
207.465
 20
62.4136
 10
207.356
 20
62.5638
 10
207.243
 20
62.7143
 10
207.124
 20
62.865
 10
207
 20
63.0159
 10
206.872
 20
63.167
 10
206.738
 20
63.3184
 10
206.599
 20
63.47
 10
206.455
 20
63.6218
 10
206.306
 20
63.7738
 10
206.153
 20
63.9261
 10
205.994
 20
64.07859999999999
 10
205.829
 20
64.2313
 10
205.66
 20
64.38420000000001
 10
205.486
 20
64.53740000000001
 10
205.264
 20
64.67619999999999
 10
205.046
 20
64.8155
 10
204.831
 20
64.95529999999999
 10
204.62
 20
65.0955
 10
204.412
 20
65.2362
 10
204.207
 20
65.37739999999999
 10
204.006
 20
65.51900000000001
 10
203.809
 20
65.6611
 10
203.614
 20
65.80370000000001
 10
203.424
 20
65.94670000000001
 10
203.237
 20
66.0902
 10
203.053
 20
66.2342
 10
202.873
 20
66.37860000000001
 10
202.696
 20
66.5235
 10
202.523
 20
66.66889999999999
 10
202.353
 20
66.8147
 10
202.186
 20
66.961
 10
202.023
 20
67.1078
 10
201.864
 20
67.255
 10
201.708
 20
67.4027
 10
201.555
 20
67.5509
 10
201.406
 20
67.6995
 10
201.261
 20
67.84869999999999
 10
201.119
 20
67.9982
 10
200.98
 20
68.14830000000001
 10
200.845
 20
68.2988
 10
200.713
 20
68.4498
 10
200.585
 20
68.60120000000001
 10
200.46
 20
68.7531
 10
200.339
 20
68.9055
 10
200.221
 20
69.05840000000001
 10
200.106
 20
69.21169999999999
 10
200.018
 20
69.38890000000001
 10
199.935
 20
69.5616
 10
199.858
 20
69.73
 10
199.786
 20
69.89400000000001
 10
199.719
 20
70.0535
 10
199.658
 20
70.20869999999999
 10
199.603
 20
70.3595
 10
199.553
 20
70.50579999999999
 10
199.508
 20
70.6478
 10
199.469
 20
70.7854
 10
199.436
 20
70.91849999999999
 10
199.407
 20
71.04730000000001
 10
199.385
 20
71.1717
 10
199.368
 20
71.29170000000001
 10
199.356
 20
71.4072
 10
199.35
 20
71.5184
 10
199.349
 20
71.62520000000001
 10
199.354
 20
71.72750000000001
 10
199.364
 20
71.82550000000001
 10
199.38
 20
71.9191
 10
199.401
 20
72.00830000000001
 10
199.427
 20
72.09310000000001
 10
199.459
 20
72.1734
 10
199.497
 20
72.24939999999999
 10
199.54
 20
72.321
 10
199.588
 20
72.3882
 10
199.642
 20
72.45099999999999
 10
199.702
 20
72.5093
 10
199.767
 20
72.5633
 10
199.837
 20
72.6129
 10
199.913
 20
72.6581
 10
199.994
 20
72.69889999999999
 10
200.081
 20
72.7353
 10
200.173
 20
72.76730000000001
 10
200.271
 20
72.7948
 10
200.374
 20
72.818
 10
200.483
 20
72.8368
 10
200.597
 20
72.85120000000001
 10
200.717
 20
72.8612
 10
200.842
 20
72.8668
 10
200.972
 20
72.86799999999999
 10
201.108
 20
72.8648
 10
201.25
 20
72.85720000000001
 10
201.397
 20
72.84520000000001
 10
201.549
 20
72.8288
 10
201.707
 20
72.80800000000001
 10
201.871
 20
72.78279999999999
 10
202.04
 20
72.75320000000001
 10
202.214
 20
72.7192
 10
202.394
 20
72.6808
 10
202.579
 20
72.63800000000001
 10
202.77
 20
72.5908
 10
202.966
 20
72.53919999999999
 10
203.168
 20
72.4832
 10
203.375
 20
72.4228
 10
203.588
 20
72.358
 10
203.806
 20
72.28879999999999
 10
204.03
 20
72.2152
 10
204.259
 20
72.13720000000001
 10
204.493
 20
72.0548
 10
204.733
 20
71.968
 10
204.979
 20
71.8768
 10
205.23
 20
71.7812
 10
205.486
 20
71.6812
 10
205.595
 20
71.6511
 10
205.703
 20
71.62390000000001
 10
205.809
 20
71.5994
 10
205.913
 20
71.57769999999999
 10
206.016
 20
71.55880000000001
 10
206.117
 20
71.5427
 10
206.217
 20
71.5294
 10
206.316
 20
71.5189
 10
206.413
 20
71.5112
 10
206.508
 20
71.50620000000001
 10
206.602
 20
71.50409999999999
 10
206.695
 20
71.5048
 10
206.786
 20
71.5082
 10
206.875
 20
71.51439999999999
 10
206.964
 20
71.5235
 10
207.05
 20
71.53530000000001
 10
207.135
 20
71.54989999999999
 10
207.219
 20
71.5673
 10
207.301
 20
71.58750000000001
 10
207.381
 20
71.6105
 10
207.461
 20
71.6362
 10
207.538
 20
71.6648
 10
207.614
 20
71.6961
 10
207.689
 20
71.7303
 10
207.762
 20
71.7672
 10
207.834
 20
71.807
 10
207.904
 20
71.84950000000001
 10
207.973
 20
71.8948
 10
208.04
 20
71.94289999999999
 10
208.106
 20
71.99379999999999
 10
208.17
 20
72.0475
 10
208.233
 20
72.104
 10
208.294
 20
72.16330000000001
 10
208.354
 20
72.2253
 10
208.412
 20
72.2902
 10
208.469
 20
72.3578
 10
208.524
 20
72.42829999999999
 10
208.578
 20
72.50149999999999
 10
208.63
 20
72.5775
 10
208.681
 20
72.6563
 10
208.731
 20
72.7379
 10
208.778
 20
72.8223
 10
208.825
 20
72.90949999999999
 10
208.87
 20
72.9995
 10
208.913
 20
73.09229999999999
 10
208.955
 20
73.1879
 10
208.995
 20
73.28619999999999
 10
209.034
 20
73.3874
 10
209.072
 20
73.4913
 10
209.108
 20
73.598
 10
209.142
 20
73.7076
 10
209.175
 20
73.8199
 10
209.207
 20
73.935
 10
209.237
 20
74.05289999999999
 10
209.265
 20
74.17359999999999
 10
209.292
 20
74.297
 10
209.342
 20
74.55240000000001
 10
209.386
 20
74.8189
 10
209.423
 20
75.0966
 10
209.455
 20
75.3854
 10
209.427
 20
76.1378
 10
209.394
 20
76.88160000000001
 10
209.358
 20
77.617
 10
209.318
 20
78.3438
 10
209.274
 20
79.0622
 10
209.227
 20
79.77209999999999
 10
209.175
 20
80.4735
 10
209.12
 20
81.1664
 10
209.06
 20
81.85080000000001
 10
208.997
 20
82.52670000000001
 10
208.93
 20
83.19410000000001
 10
208.86
 20
83.85299999999999
 10
208.785
 20
84.5034
 10
208.706
 20
85.14530000000001
 10
208.624
 20
85.7788
 10
208.538
 20
86.4037
 10
208.496
 20
86.7243
 10
208.479
 20
86.88
 10
208.464
 20
87.0325
 10
208.452
 20
87.1818
 10
208.442
 20
87.32769999999999
 10
208.434
 20
87.47020000000001
 10
208.429
 20
87.6092
 10
208.426
 20
87.74469999999999
 10
208.425
 20
87.8766
 10
208.427
 20
88.0048
 10
208.431
 20
88.1293
 10
208.437
 20
88.25
 10
208.446
 20
88.36669999999999
 10
208.456
 20
88.4795
 10
208.469
 20
88.5883
 10
208.485
 20
88.693
 10
208.502
 20
88.79349999999999
 10
208.522
 20
88.88979999999999
 10
208.544
 20
88.9817
 10
208.569
 20
89.0693
 10
208.595
 20
89.1525
 10
208.624
 20
89.2311
 10
208.655
 20
89.3051
 10
208.688
 20
89.3745
 10
208.723
 20
89.4391
 10
208.76
 20
89.499
 10
208.8
 20
89.5539
 10
208.842
 20
89.604
 10
208.885
 20
89.649
 10
208.931
 20
89.6889
 10
208.979
 20
89.72369999999999
 10
209.03
 20
89.7533
 10
209.082
 20
89.77760000000001
 10
209.136
 20
89.79649999999999
 10
209.192
 20
89.81
 10
209.251
 20
89.818
 10
209.311
 20
89.82040000000001
 10
209.374
 20
89.8172
 10
209.438
 20
89.8082
 10
209.505
 20
89.79349999999999
 10
209.573
 20
89.773
 10
209.644
 20
89.7465
 10
209.717
 20
89.714
 10
209.791
 20
89.6755
 10
209.868
 20
89.63079999999999
 10
209.946
 20
89.57989999999999
 10
210.026
 20
89.5228
 10
210.109
 20
89.4593
 10
210.193
 20
89.38939999999999
 10
210.279
 20
89.313
 10
210.367
 20
89.23009999999999
 10
210.457
 20
89.1405
 10
210.549
 20
89.04430000000001
 10
210.643
 20
88.9413
 10
210.739
 20
88.83150000000001
 10
210.836
 20
88.71469999999999
 10
210.935
 20
88.59099999999999
 10
211.036
 20
88.4603
 10
211.139
 20
88.3224
 10
211.244
 20
88.1773
 10
211.351
 20
88.02500000000001
 10
211.459
 20
87.86539999999999
 10
211.569
 20
87.69840000000001
 10
211.72
 20
87.4632
 10
211.868
 20
87.2231
 10
212.014
 20
86.9781
 10
212.159
 20
86.7281
 10
212.302
 20
86.47320000000001
 10
212.442
 20
86.2133
 10
212.581
 20
85.9485
 10
212.717
 20
85.6788
 10
212.852
 20
85.4041
 10
212.984
 20
85.12439999999999
 10
213.115
 20
84.8398
 10
213.244
 20
84.55029999999999
 10
213.37
 20
84.2559
 10
213.495
 20
83.95650000000001
 10
213.618
 20
83.6521
 10
213.738
 20
83.3428
 10
213.857
 20
83.0286
 10
213.974
 20
82.7094
 10
214.089
 20
82.3853
 10
214.202
 20
82.05629999999999
 10
214.313
 20
81.7223
 10
214.422
 20
81.38330000000001
 10
214.529
 20
81.0394
 10
214.634
 20
80.6906
 10
214.737
 20
80.3369
 10
214.838
 20
79.9781
 10
214.937
 20
79.61450000000001
 10
215.034
 20
79.24590000000001
 10
215.129
 20
78.8724
 10
215.222
 20
78.4939
 10
215.313
 20
78.1105
 10
215.403
 20
77.7221
 10
215.49
 20
77.3288
 10
215.575
 20
76.9306
 10
215.658
 20
76.5274
 10
215.74
 20
76.1193
 10
215.819
 20
75.7062
 10
215.897
 20
75.2882
 10
215.972
 20
74.8652
 10
216.045
 20
74.43729999999999
 10
216.117
 20
74.00449999999999
 10
216.186
 20
73.5667
 10
216.254
 20
73.124
 10
216.319
 20
72.6763
 10
216.383
 20
72.22369999999999
 10
216.445
 20
71.7662
 10
216.504
 20
71.30370000000001
 10
216.562
 20
70.83629999999999
 10
216.618
 20
70.3639
 10
216.671
 20
69.8866
 10
216.723
 20
69.40430000000001
 10
216.773
 20
68.9171
 10
216.821
 20
68.425
 10
216.866
 20
67.92789999999999
 10
216.91
 20
67.4259
 10
216.952
 20
66.91889999999999
 10
216.992
 20
66.407
 10
217.03
 20
65.89019999999999
 10
217.066
 20
65.36839999999999
 10
217.1
 20
64.8417
 10
217.132
 20
64.31
 10
217.162
 20
63.7734
 10
217.19
 20
63.2318
 10
217.216
 20
62.6853
 10
217.201
 20
62.4907
 10
217.19
 20
62.3037
 10
217.181
 20
62.1244
 10
217.175
 20
61.9524
 10
217.173
 20
61.7878
 10
217.174
 20
61.6304
 10
217.178
 20
61.4801
 10
217.185
 20
61.3367
 10
217.194
 20
61.2002
 10
217.207
 20
61.0704
 10
217.222
 20
60.9472
 10
217.241
 20
60.8304
 10
217.262
 20
60.72
 10
217.286
 20
60.6158
 10
217.313
 20
60.5177
 10
217.342
 20
60.4256
 10
217.375
 20
60.3393
 10
217.409
 20
60.2588
 10
217.447
 20
60.1839
 10
217.487
 20
60.1145
 10
217.529
 20
60.0504
 10
217.574
 20
59.9916
 10
217.622
 20
59.9379
 10
217.671
 20
59.8893
 10
217.724
 20
59.8455
 10
217.778
 20
59.8064
 10
217.835
 20
59.772
 10
217.894
 20
59.7421
 10
217.956
 20
59.7166
 10
218.019
 20
59.6954
 10
218.085
 20
59.6783
 10
218.153
 20
59.6652
 10
218.223
 20
59.656
 10
218.295
 20
59.6506
 10
218.369
 20
59.6489
 10
218.445
 20
59.6507
 10
218.523
 20
59.6559
 10
218.603
 20
59.6644
 10
218.685
 20
59.6761
 10
218.768
 20
59.6908
 10
218.854
 20
59.7085
 10
218.941
 20
59.7289
 10
219.03
 20
59.7521
 10
219.12
 20
59.7777
 10
219.306
 20
59.8363
 10
219.499
 20
59.9036
 10
219.697
 20
59.9787
 10
219.902
 20
60.0606
 10
220.111
 20
60.1483
 10
220.326
 20
60.2409
 10
221.232
 20
60.6402
 10
223.005
 20
61.4156
 10
224.768
 20
62.1898
 10
226.522
 20
62.9628
 10
228.266
 20
63.7348
 10
230.001
 20
64.5056
 10
231.726
 20
65.2752
 10
233.441
 20
66.0437
 10
235.146
 20
66.8111
 10
236.842
 20
67.5774
 10
238.529
 20
68.3425
 10
240.205
 20
69.10639999999999
 10
241.872
 20
69.86920000000001
 10
243.53
 20
70.6309
 10
245.178
 20
71.39149999999999
 10
246.816
 20
72.15089999999999
 10
248.444
 20
72.9091
 10
250.063
 20
73.6662
 10
251.672
 20
74.4222
 10
253.272
 20
75.1771
 10
254.862
 20
75.9308
 10
256.442
 20
76.6833
 10
258.013
 20
77.4348
 10
259.574
 20
78.185
 10
261.125
 20
78.9342
 10
262.667
 20
79.68219999999999
 10
264.199
 20
80.42910000000001
 10
265.721
 20
81.1748
 10
267.234
 20
81.9194
 10
268.737
 20
82.6628
 10
270.231
 20
83.4051
 10
271.715
 20
84.1463
 10
273.189
 20
84.88630000000001
 10
273.621
 20
85.1048
 10
274.036
 20
85.3175
 10
274.434
 20
85.5247
 10
274.817
 20
85.7266
 10
275.182
 20
85.9234
 10
275.531
 20
86.1153
 10
275.865
 20
86.3026
 10
276.181
 20
86.4854
 10
276.482
 20
86.6641
 10
276.767
 20
86.8387
 10
277.035
 20
87.0097
 10
277.288
 20
87.17700000000001
 10
277.524
 20
87.3411
 10
277.745
 20
87.5021
 10
277.951
 20
87.6602
 10
278.14
 20
87.81570000000001
 10
278.229
 20
87.8925
 10
278.314
 20
87.9688
 10
278.395
 20
88.0445
 10
278.472
 20
88.11960000000001
 10
278.546
 20
88.1943
 10
278.615
 20
88.2685
 10
278.681
 20
88.34229999999999
 10
278.743
 20
88.4157
 10
278.801
 20
88.48869999999999
 10
278.855
 20
88.5613
 10
278.905
 20
88.6337
 10
278.952
 20
88.70569999999999
 10
278.995
 20
88.7774
 10
279.034
 20
88.849
 10
279.069
 20
88.9203
 10
279.1
 20
88.9914
 10
279.128
 20
89.06229999999999
 10
279.151
 20
89.1332
 10
279.172
 20
89.2039
 10
279.188
 20
89.2745
 10
279.201
 20
89.3451
 10
279.21
 20
89.4157
 10
279.215
 20
89.4863
 10
279.216
 20
89.557
 10
279.214
 20
89.6277
 10
279.208
 20
89.6985
 10
279.199
 20
89.7694
 10
279.185
 20
89.84050000000001
 10
279.168
 20
89.9117
 10
279.148
 20
89.9832
 10
279.124
 20
90.0548
 10
279.096
 20
90.1268
 10
279.064
 20
90.199
 10
279.029
 20
90.27160000000001
 10
278.99
 20
90.3445
 10
278.948
 20
90.4177
 10
278.902
 20
90.4914
 10
278.853
 20
90.5655
 10
278.8
 20
90.6401
 10
278.743
 20
90.71510000000001
 10
278.683
 20
90.7907
 10
278.619
 20
90.8668
 10
278.552
 20
90.9434
 10
278.481
 20
91.02070000000001
 10
278.406
 20
91.0986
 10
278.329
 20
91.1771
 10
278.162
 20
91.33629999999999
 10
277.982
 20
91.4984
 10
277.788
 20
91.6636
 10
277.58
 20
91.8322
 10
277.358
 20
92.00449999999999
 10
277.122
 20
92.1806
 10
276.873
 20
92.36069999999999
 10
276.61
 20
92.54519999999999
 10
276.334
 20
92.7341
 10
276.044
 20
92.9278
 10
275.741
 20
93.1264
 10
275.425
 20
93.3302
 10
275.095
 20
93.5394
 10
274.397
 20
93.97490000000001
 10
273.646
 20
94.43470000000001
 10
272.844
 20
94.9205
 10
271.991
 20
95.4342
 10
270.133
 20
96.5522
 10
267.622
 20
97.7343
 10
265.122
 20
98.9157
 10
262.635
 20
100.096
 10
260.159
 20
101.276
 10
257.696
 20
102.456
 10
255.245
 20
103.634
 10
252.805
 20
104.812
 10
250.378
 20
105.989
 10
249.762
 20
106.283
 10
249.149
 20
106.578
 10
248.54
 20
106.874
 10
247.934
 20
107.171
 10
247.332
 20
107.469
 10
246.733
 20
107.769
 10
246.138
 20
108.069
 10
245.546
 20
108.37
 10
244.958
 20
108.672
 10
244.373
 20
108.975
 10
243.792
 20
109.28
 10
243.214
 20
109.585
 10
242.64
 20
109.891
 10
242.069
 20
110.199
 10
241.502
 20
110.507
 10
240.938
 20
110.816
 10
240.377
 20
111.127
 10
239.821
 20
111.438
 10
239.267
 20
111.751
 10
238.717
 20
112.064
 10
238.171
 20
112.379
 10
237.628
 20
112.695
 10
237.088
 20
113.011
 10
236.552
 20
113.329
 10
236.02
 20
113.647
 10
235.491
 20
113.967
 10
234.965
 20
114.288
 10
234.443
 20
114.609
 10
233.925
 20
114.932
 10
233.41
 20
115.256
 10
232.898
 20
115.581
 10
232.39
 20
115.907
 10
231.885
 20
116.234
 10
231.384
 20
116.561
 10
230.886
 20
116.891
 10
230.392
 20
117.22
 10
229.901
 20
117.551
 10
229.414
 20
117.883
 10
228.93
 20
118.216
 10
228.45
 20
118.55
 10
227.974
 20
118.886
 10
227.5
 20
119.222
 10
227.03
 20
119.559
 10
226.564
 20
119.897
 10
226.101
 20
120.236
 10
225.642
 20
120.576
 10
225.186
 20
120.918
 10
224.734
 20
121.26
 10
224.285
 20
121.603
 10
223.839
 20
121.948
 10
223.397
 20
122.293
 10
222.959
 20
122.639
 10
222.524
 20
122.987
 10
222.093
 20
123.335
 10
221.665
 20
123.685
 10
221.24
 20
124.035
 10
220.819
 20
124.387
 10
220.401
 20
124.739
 10
219.988
 20
125.093
 10
219.577
 20
125.448
 10
219.17
 20
125.803
 10
218.766
 20
126.16
 10
218.366
 20
126.517
 10
217.97
 20
126.876
 10
217.576
 20
127.236
 10
217.187
 20
127.597
 10
216.8
 20
127.959
 10
216.418
 20
128.321
 10
216.039
 20
128.685
 10
215.663
 20
129.05
 10
215.291
 20
129.416
 10
214.922
 20
129.783
 10
214.557
 20
130.151
 10
214.195
 20
130.52
 10
213.837
 20
130.89
 10
213.482
 20
131.261
 10
213.13
 20
131.633
 10
212.783
 20
132.006
 10
212.438
 20
132.38
 10
212.097
 20
132.755
 10
211.76
 20
133.131
 10
211.426
 20
133.509
 10
211.096
 20
133.887
 10
210.769
 20
134.266
 10
210.445
 20
134.647
 10
210.125
 20
135.028
 10
209.809
 20
135.41
 10
209.496
 20
135.793
 10
209.186
 20
136.178
 10
208.88
 20
136.563
 10
208.578
 20
136.95
 10
208.279
 20
137.337
 10
207.983
 20
137.726
 10
207.691
 20
138.115
 10
207.402
 20
138.506
 10
207.117
 20
138.897
 10
206.835
 20
139.29
 10
206.557
 20
139.684
 10
206.283
 20
140.078
 10
206.011
 20
140.474
 10
205.744
 20
140.871
 10
205.48
 20
141.268
 10
205.219
 20
141.667
 10
204.961
 20
142.067
 10
204.708
 20
142.468
 10
204.457
 20
142.87
 10
204.211
 20
143.273
 10
203.967
 20
143.677
 10
203.727
 20
144.081
 10
203.491
 20
144.487
 10
203.258
 20
144.894
 10
203.029
 20
145.302
 10
202.803
 20
145.711
 10
202.581
 20
146.121
 10
202.362
 20
146.533
 10
202.146
 20
146.945
 10
201.934
 20
147.358
 10
201.726
 20
147.772
 10
201.521
 20
148.187
 10
201.319
 20
148.603
 10
201.121
 20
149.021
 10
200.927
 20
149.439
 10
200.736
 20
149.858
 10
200.548
 20
150.279
 10
200.364
 20
150.7
 10
200.183
 20
151.122
 10
200.006
 20
151.546
 10
199.833
 20
151.97
 10
199.728
 20
152.232
 10
199.629
 20
152.492
 10
199.534
 20
152.75
 10
199.443
 20
153.005
 10
199.356
 20
153.258
 10
199.274
 20
153.508
 10
199.196
 20
153.755
 10
199.123
 20
153.999
 10
199.055
 20
154.239
 10
198.991
 20
154.475
 10
198.931
 20
154.707
 10
198.876
 20
154.935
 10
198.826
 20
155.157
 10
198.781
 20
155.376
 10
198.74
 20
155.589
 10
198.704
 20
155.796
 10
198.672
 20
155.998
 10
198.646
 20
156.194
 10
198.624
 20
156.384
 10
198.607
 20
156.567
 10
198.595
 20
156.744
 10
198.588
 20
156.914
 10
198.585
 20
157.076
 10
198.588
 20
157.231
 10
198.596
 20
157.378
 10
198.608
 20
157.518
 10
198.626
 20
157.649
 10
198.649
 20
157.771
 10
198.677
 20
157.885
 10
198.71
 20
157.989
 10
198.728
 20
158.038
 10
198.748
 20
158.085
 10
198.769
 20
158.129
 10
198.791
 20
158.171
 10
198.815
 20
158.21
 10
198.84
 20
158.246
 10
198.866
 20
158.281
 10
198.893
 20
158.312
 10
198.922
 20
158.342
 10
198.952
 20
158.368
 10
198.984
 20
158.392
 10
199.017
 20
158.413
 10
199.051
 20
158.432
 10
199.086
 20
158.447
 10
199.123
 20
158.46
 10
199.161
 20
158.47
 10
199.201
 20
158.478
 10
199.242
 20
158.482
 10
199.284
 20
158.484
 10
199.327
 20
158.482
 10
199.372
 20
158.478
 10
199.419
 20
158.47
 10
199.466
 20
158.46
 10
199.515
 20
158.447
 10
199.566
 20
158.43
 10
199.618
 20
158.41
 10
199.671
 20
158.387
 10
199.725
 20
158.361
 10
199.781
 20
158.332
 10
199.838
 20
158.299
 10
199.897
 20
158.264
 10
199.957
 20
158.225
 10
200.082
 20
158.136
 10
200.212
 20
158.034
 10
200.347
 20
157.918
 10
200.489
 20
157.787
 10
200.636
 20
157.643
 10
200.789
 20
157.483
 10
200.947
 20
157.309
 10
201.112
 20
157.119
 10
201.282
 20
156.914
 10
201.458
 20
156.693
 10
201.64
 20
156.456
 10
201.828
 20
156.203
 10
202.022
 20
155.933
 10
202.222
 20
155.646
 10
202.428
 20
155.343
 10
202.64
 20
155.022
 10
202.858
 20
154.683
 10
203.082
 20
154.327
 10
203.567
 20
153.555
 10
204.054
 20
152.79
 10
204.544
 20
152.034
 10
205.038
 20
151.286
 10
205.535
 20
150.545
 10
206.034
 20
149.813
 10
206.537
 20
149.088
 10
207.043
 20
148.372
 10
207.552
 20
147.663
 10
208.064
 20
146.963
 10
208.579
 20
146.27
 10
209.097
 20
145.586
 10
209.618
 20
144.909
 10
210.142
 20
144.24
 10
210.669
 20
143.58
 10
211.2
 20
142.927
 10
211.733
 20
142.283
 10
212.269
 20
141.646
 10
212.809
 20
141.017
 10
213.351
 20
140.397
 10
213.897
 20
139.784
 10
214.446
 20
139.179
 10
214.997
 20
138.582
 10
215.552
 20
137.994
 10
216.11
 20
137.413
 10
216.671
 20
136.84
 10
217.235
 20
136.275
 10
217.802
 20
135.718
 10
218.372
 20
135.169
 10
218.945
 20
134.629
 10
219.521
 20
134.096
 10
220.1
 20
133.571
 10
220.391
 20
133.311
 10
220.683
 20
133.054
 10
220.975
 20
132.798
 10
221.268
 20
132.545
 10
221.562
 20
132.293
 10
221.856
 20
132.044
 10
222.152
 20
131.796
 10
222.448
 20
131.551
 10
222.745
 20
131.307
 10
223.042
 20
131.066
 10
223.341
 20
130.826
 10
223.64
 20
130.589
 10
223.94
 20
130.353
 10
224.241
 20
130.12
 10
224.542
 20
129.888
 10
224.845
 20
129.659
 10
225.148
 20
129.431
 10
225.451
 20
129.206
 10
225.756
 20
128.982
 10
226.061
 20
128.761
 10
226.367
 20
128.541
 10
226.674
 20
128.323
 10
226.982
 20
128.108
 10
227.29
 20
127.894
 10
227.599
 20
127.683
 10
227.909
 20
127.473
 10
228.22
 20
127.266
 10
228.531
 20
127.06
 10
228.843
 20
126.856
 10
229.156
 20
126.655
 10
229.47
 20
126.455
 10
229.785
 20
126.258
 10
230.1
 20
126.062
 10
230.416
 20
125.868
 10
230.733
 20
125.677
 10
231.05
 20
125.487
 10
231.369
 20
125.3
 10
231.688
 20
125.114
 10
232.007
 20
124.93
 10
232.328
 20
124.749
 10
232.649
 20
124.569
 10
232.972
 20
124.391
 10
233.294
 20
124.216
 10
233.618
 20
124.042
 10
233.943
 20
123.87
 10
234.268
 20
123.701
 10
234.594
 20
123.533
 10
234.921
 20
123.367
 10
235.248
 20
123.204
 10
235.576
 20
123.042
 10
235.905
 20
122.882
 10
236.235
 20
122.725
 10
236.566
 20
122.569
 10
236.897
 20
122.415
 10
237.229
 20
122.264
 10
237.562
 20
122.114
 10
237.896
 20
121.966
 10
238.23
 20
121.82
 10
238.565
 20
121.677
 10
238.901
 20
121.535
 10
239.238
 20
121.395
 10
239.575
 20
121.257
 10
239.913
 20
121.122
 10
240.252
 20
120.988
 10
241.548
 20
120.478
 10
242.213
 20
120.216
 10
242.887
 20
119.955
 10
243.567
 20
119.698
 10
243.909
 20
119.572
 10
244.251
 20
119.447
 10
244.595
 20
119.325
 10
244.938
 20
119.206
 10
245.282
 20
119.091
 10
245.625
 20
118.978
 10
245.968
 20
118.87
 10
246.311
 20
118.766
 10
246.652
 20
118.668
 10
246.992
 20
118.574
 10
247.331
 20
118.486
 10
247.668
 20
118.404
 10
248.002
 20
118.329
 10
248.335
 20
118.26
 10
248.665
 20
118.198
 10
248.992
 20
118.144
 10
249.316
 20
118.099
 10
249.477
 20
118.079
 10
249.637
 20
118.061
 10
249.796
 20
118.046
 10
249.954
 20
118.032
 10
250.112
 20
118.021
 10
250.268
 20
118.013
 10
250.423
 20
118.007
 10
250.577
 20
118.003
 10
250.73
 20
118.002
 10
250.882
 20
118.003
 10
251.033
 20
118.007
 10
251.183
 20
118.013
 10
251.331
 20
118.023
 10
251.478
 20
118.035
 10
251.624
 20
118.049
 10
251.768
 20
118.067
 10
251.911
 20
118.088
 10
252.053
 20
118.111
 10
252.194
 20
118.138
 10
252.332
 20
118.167
 10
252.47
 20
118.2
 10
252.606
 20
118.236
 10
252.74
 20
118.274
 10
252.873
 20
118.317
 10
253.004
 20
118.362
 10
253.133
 20
118.411
 10
253.261
 20
118.463
 10
253.387
 20
118.519
 10
253.512
 20
118.578
 10
253.635
 20
118.641
 10
253.755
 20
118.707
 10
253.874
 20
118.777
 10
253.991
 20
118.85
 10
254.107
 20
118.928
 10
254.22
 20
119.009
 10
254.331
 20
119.094
 10
254.44
 20
119.183
 10
254.548
 20
119.275
 10
254.653
 20
119.372
 10
254.756
 20
119.473
 10
254.857
 20
119.578
 10
254.956
 20
119.687
 10
255.052
 20
119.8
 10
255.146
 20
119.917
 10
255.238
 20
120.039
 10
255.328
 20
120.165
 10
255.416
 20
120.296
 10
255.501
 20
120.43
 10
255.584
 20
120.57
 10
255.664
 20
120.713
 10
255.742
 20
120.862
 10
255.817
 20
121.015
 10
255.89
 20
121.173
 10
255.96
 20
121.335
 10
256.028
 20
121.502
 10
256.093
 20
121.675
 10
256.155
 20
121.852
 10
256.215
 20
122.034
 10
256.272
 20
122.22
 10
256.326
 20
122.412
 10
256.377
 20
122.609
 10
256.426
 20
122.811
 10
256.472
 20
123.019
 10
256.515
 20
123.231
 10
256.555
 20
123.449
 10
256.592
 20
123.672
 10
256.626
 20
123.9
 10
256.657
 20
124.134
 10
256.685
 20
124.374
 10
256.709
 20
124.618
 10
256.731
 20
124.869
 10
256.75
 20
125.125
 10
256.765
 20
125.387
 10
256.778
 20
125.654
 10
256.802
 20
126.338
 10
256.821
 20
127.016
 10
256.834
 20
127.687
 10
256.841
 20
128.351
 10
256.843
 20
129.008
 10
256.84
 20
129.66
 10
256.83
 20
130.304
 10
256.816
 20
130.942
 10
256.795
 20
131.573
 10
256.769
 20
132.197
 10
256.738
 20
132.815
 10
256.701
 20
133.427
 10
256.658
 20
134.031
 10
256.61
 20
134.63
 10
256.556
 20
135.221
 10
256.497
 20
135.806
 10
256.432
 20
136.384
 10
256.361
 20
136.956
 10
256.285
 20
137.521
 10
256.203
 20
138.079
 10
256.116
 20
138.631
 10
256.023
 20
139.177
 10
255.925
 20
139.715
 10
255.821
 20
140.247
 10
255.711
 20
140.773
 10
255.596
 20
141.291
 10
255.475
 20
141.804
 10
255.349
 20
142.309
 10
255.217
 20
142.808
 10
255.079
 20
143.3
 10
254.936
 20
143.786
 10
254.787
 20
144.265
 10
254.181
 20
146.013
 10
252.36
 20
151.254
 10
249.326
 20
159.99
 10
245.079
 20
172.221
 10
244.942
 20
172.624
 10
244.823
 20
173
 10
244.72
 20
173.348
 10
244.674
 20
173.512
 10
244.633
 20
173.669
 10
244.595
 20
173.82
 10
244.562
 20
173.964
 10
244.532
 20
174.102
 10
244.506
 20
174.233
 10
244.484
 20
174.358
 10
244.466
 20
174.477
 10
244.451
 20
174.589
 10
244.44
 20
174.695
 10
244.432
 20
174.794
 10
244.428
 20
174.888
 10
244.428
 20
174.976
 10
244.431
 20
175.057
 10
244.437
 20
175.133
 10
244.446
 20
175.202
 10
244.459
 20
175.266
 10
244.475
 20
175.324
 10
244.495
 20
175.376
 10
244.517
 20
175.422
 10
244.543
 20
175.463
 10
244.571
 20
175.498
 10
244.603
 20
175.528
 10
244.637
 20
175.552
 10
244.675
 20
175.571
 10
244.715
 20
175.584
 10
244.758
 20
175.592
 10
244.804
 20
175.594
 10
244.853
 20
175.591
 10
244.905
 20
175.584
 10
244.959
 20
175.571
 10
245.015
 20
175.553
 10
245.074
 20
175.53
 10
245.136
 20
175.501
 10
245.2
 20
175.468
 10
245.266
 20
175.43
 10
245.335
 20
175.388
 10
245.406
 20
175.34
 10
245.48
 20
175.288
 10
245.555
 20
175.231
 10
245.633
 20
175.17
 10
245.713
 20
175.104
 10
245.795
 20
175.033
 10
245.879
 20
174.958
 10
246.053
 20
174.796
 10
246.234
 20
174.615
 10
246.422
 20
174.418
 10
246.618
 20
174.205
 10
246.819
 20
173.976
 10
247.027
 20
173.732
 10
247.24
 20
173.472
 10
247.495
 20
173.155
 10
247.748
 20
172.834
 10
248
 20
172.511
 10
248.25
 20
172.184
 10
248.498
 20
171.855
 10
248.745
 20
171.523
 10
248.99
 20
171.187
 10
249.233
 20
170.849
 10
249.475
 20
170.507
 10
249.715
 20
170.163
 10
249.953
 20
169.815
 10
250.19
 20
169.465
 10
250.425
 20
169.111
 10
250.659
 20
168.755
 10
250.891
 20
168.395
 10
251.121
 20
168.033
 10
251.35
 20
167.667
 10
251.577
 20
167.299
 10
251.802
 20
166.927
 10
252.026
 20
166.552
 10
252.248
 20
166.175
 10
252.469
 20
165.794
 10
252.688
 20
165.411
 10
252.905
 20
165.024
 10
253.12
 20
164.634
 10
253.334
 20
164.242
 10
253.547
 20
163.846
 10
253.757
 20
163.447
 10
253.967
 20
163.046
 10
254.174
 20
162.641
 10
254.38
 20
162.233
 10
254.584
 20
161.822
 10
254.787
 20
161.409
 10
254.988
 20
160.992
 10
255.187
 20
160.572
 10
255.385
 20
160.149
 10
255.581
 20
159.723
 10
255.775
 20
159.294
 10
255.968
 20
158.863
 10
256.159
 20
158.428
 10
256.348
 20
157.99
 10
256.536
 20
157.549
 10
256.722
 20
157.105
 10
256.907
 20
156.658
 10
257.09
 20
156.208
 10
257.271
 20
155.756
 10
257.451
 20
155.3
 10
257.629
 20
154.841
 10
257.805
 20
154.379
 10
257.98
 20
153.914
 10
258.153
 20
153.446
 10
258.325
 20
152.975
 10
258.495
 20
152.501
 10
258.663
 20
152.024
 10
258.83
 20
151.544
 10
258.995
 20
151.061
 10
259.158
 20
150.575
 10
259.32
 20
150.085
 10
259.48
 20
149.593
 10
259.638
 20
149.098
 10
259.795
 20
148.6
 10
259.95
 20
148.099
 10
260.104
 20
147.595
 10
260.256
 20
147.088
 10
260.684
 20
145.417
 10
261.97
 20
140.406
 10
264.112
 20
132.053
 10
267.111
 20
120.359
 10
267.176
 20
120.112
 10
267.243
 20
119.867
 10
267.313
 20
119.626
 10
267.384
 20
119.388
 10
267.457
 20
119.152
 10
267.532
 20
118.92
 10
267.61
 20
118.69
 10
267.689
 20
118.464
 10
267.77
 20
118.241
 10
267.853
 20
118.02
 10
267.938
 20
117.803
 10
268.024
 20
117.589
 10
268.113
 20
117.379
 10
268.203
 20
117.171
 10
268.295
 20
116.966
 10
268.388
 20
116.765
 10
268.483
 20
116.567
 10
268.579
 20
116.372
 10
268.678
 20
116.181
 10
268.777
 20
115.993
 10
268.878
 20
115.808
 10
268.98
 20
115.626
 10
269.084
 20
115.448
 10
269.189
 20
115.273
 10
269.296
 20
115.102
 10
269.403
 20
114.934
 10
269.512
 20
114.769
 10
269.622
 20
114.608
 10
269.733
 20
114.451
 10
269.845
 20
114.297
 10
269.958
 20
114.146
 10
270.073
 20
113.999
 10
270.188
 20
113.856
 10
270.304
 20
113.716
 10
270.421
 20
113.58
 10
270.539
 20
113.447
 10
270.658
 20
113.318
 10
270.777
 20
113.193
 10
270.898
 20
113.071
 10
271.019
 20
112.954
 10
271.14
 20
112.839
 10
271.263
 20
112.729
 10
271.386
 20
112.623
 10
271.509
 20
112.52
 10
271.633
 20
112.421
 10
271.758
 20
112.326
 10
271.883
 20
112.235
 10
272.008
 20
112.147
 10
272.134
 20
112.064
 10
272.26
 20
111.985
 10
272.386
 20
111.909
 10
272.513
 20
111.838
 10
272.64
 20
111.77
 10
272.767
 20
111.707
 10
272.894
 20
111.647
 10
273.021
 20
111.592
 10
273.148
 20
111.541
 10
273.276
 20
111.494
 10
273.403
 20
111.451
 10
273.53
 20
111.412
 10
273.657
 20
111.377
 10
273.784
 20
111.346
 10
273.911
 20
111.32
 10
274.038
 20
111.298
 10
274.164
 20
111.28
 10
274.29
 20
111.267
 10
274.416
 20
111.257
 10
274.542
 20
111.252
 10
274.667
 20
111.252
 10
274.791
 20
111.255
 10
274.915
 20
111.264
 10
275.039
 20
111.276
 10
275.162
 20
111.293
 10
275.285
 20
111.314
 10
275.406
 20
111.34
 10
275.528
 20
111.371
 10
275.648
 20
111.406
 10
275.768
 20
111.445
 10
275.887
 20
111.489
 10
276.005
 20
111.538
 10
276.122
 20
111.591
 10
276.238
 20
111.648
 10
276.354
 20
111.711
 10
276.469
 20
111.778
 10
276.582
 20
111.85
 10
276.694
 20
111.926
 10
276.806
 20
112.007
 10
276.916
 20
112.093
 10
277.025
 20
112.184
 10
277.133
 20
112.279
 10
277.239
 20
112.379
 10
277.345
 20
112.485
 10
277.449
 20
112.595
 10
277.551
 20
112.709
 10
277.652
 20
112.829
 10
277.752
 20
112.954
 10
277.851
 20
113.083
 10
277.947
 20
113.218
 10
278.043
 20
113.357
 10
278.137
 20
113.502
 10
278.229
 20
113.651
 10
278.319
 20
113.806
 10
278.408
 20
113.966
 10
278.495
 20
114.13
 10
278.58
 20
114.3
 10
278.663
 20
114.475
 10
278.745
 20
114.655
 10
278.825
 20
114.84
 10
278.902
 20
115.031
 10
278.978
 20
115.227
 10
279.052
 20
115.427
 10
279.123
 20
115.634
 10
279.193
 20
115.845
 10
279.26
 20
116.062
 10
279.326
 20
116.284
 10
279.389
 20
116.511
 10
279.45
 20
116.744
 10
279.508
 20
116.982
 10
279.565
 20
117.226
 10
279.619
 20
117.475
 10
279.67
 20
117.729
 10
279.719
 20
117.989
 10
279.766
 20
118.254
 10
279.81
 20
118.525
 10
279.852
 20
118.802
 10
279.891
 20
119.084
 10
279.927
 20
119.371
 10
279.961
 20
119.664
 10
279.992
 20
119.96
 10
280.022
 20
120.262
 10
280.05
 20
120.57
 10
280.077
 20
120.885
 10
280.126
 20
121.532
 10
280.169
 20
122.202
 10
280.205
 20
122.895
 10
280.235
 20
123.61
 10
280.259
 20
124.345
 10
280.277
 20
125.102
 10
280.288
 20
125.877
 10
280.292
 20
126.671
 10
280.291
 20
127.484
 10
280.282
 20
128.313
 10
280.267
 20
129.159
 10
280.246
 20
130.02
 10
280.217
 20
130.896
 10
280.182
 20
131.786
 10
280.141
 20
132.689
 10
280.092
 20
133.605
 10
280.036
 20
134.532
 10
279.974
 20
135.47
 10
279.905
 20
136.418
 10
279.829
 20
137.375
 10
279.745
 20
138.341
 10
279.655
 20
139.314
 10
279.557
 20
140.294
 10
279.452
 20
141.28
 10
279.34
 20
142.272
 10
279.221
 20
143.268
 10
279.094
 20
144.268
 10
278.96
 20
145.271
 10
278.819
 20
146.276
 10
278.67
 20
147.282
 10
278.514
 20
148.289
 10
278.35
 20
149.296
 10
278.178
 20
150.301
 10
277.999
 20
151.305
 10
277.907
 20
151.806
 10
277.812
 20
152.307
 10
277.716
 20
152.806
 10
277.618
 20
153.304
 10
277.517
 20
153.802
 10
277.415
 20
154.298
 10
277.311
 20
154.793
 10
277.205
 20
155.287
 10
277.097
 20
155.779
 10
276.987
 20
156.27
 10
276.875
 20
156.759
 10
276.761
 20
157.247
 10
276.645
 20
157.732
 10
276.527
 20
158.216
 10
276.407
 20
158.698
 10
276.285
 20
159.177
 10
276.161
 20
159.655
 10
276.035
 20
160.13
 10
275.907
 20
160.602
 10
275.777
 20
161.072
 10
275.645
 20
161.54
 10
275.51
 20
162.004
 10
275.374
 20
162.466
 10
275.236
 20
162.925
 10
275.096
 20
163.381
 10
274.953
 20
163.834
 10
274.809
 20
164.284
 10
274.662
 20
164.73
 10
274.514
 20
165.173
 10
274.363
 20
165.613
 10
274.21
 20
166.048
 10
274.055
 20
166.481
 10
273.898
 20
166.909
 10
273.739
 20
167.333
 10
273.578
 20
167.754
 10
273.414
 20
168.17
 10
273.249
 20
168.582
 10
273.081
 20
168.99
 10
272.912
 20
169.394
 10
272.74
 20
169.793
 10
272.566
 20
170.187
 10
272.389
 20
170.577
 10
272.211
 20
170.962
 10
272.03
 20
171.342
 10
271.848
 20
171.717
 10
271.663
 20
172.087
 10
271.476
 20
172.452
 10
271.286
 20
172.812
 10
271.095
 20
173.166
 10
270.901
 20
173.515
 10
270.705
 20
173.858
 10
270.507
 20
174.195
 10
270.307
 20
174.527
 10
270.104
 20
174.853
 10
269.899
 20
175.173
 10
269.692
 20
175.487
 10
268.973
 20
176.579
 10
268.277
 20
177.646
 10
267.604
 20
178.687
 10
266.955
 20
179.703
 10
266.33
 20
180.693
 10
265.729
 20
181.657
 10
265.151
 20
182.595
 10
264.596
 20
183.508
 10
264.065
 20
184.395
 10
263.558
 20
185.257
 10
263.075
 20
186.093
 10
262.615
 20
186.903
 10
262.394
 20
187.298
 10
262.179
 20
187.687
 10
261.969
 20
188.07
 10
261.766
 20
188.446
 10
261.569
 20
188.815
 10
261.377
 20
189.179
 10
261.191
 20
189.536
 10
261.012
 20
189.886
 10
260.773
 20
190.362
 10
260.553
 20
190.819
 10
260.35
 20
191.254
 10
260.255
 20
191.464
 10
260.166
 20
191.668
 10
260.081
 20
191.866
 10
260
 20
192.06
 10
259.925
 20
192.247
 10
259.854
 20
192.429
 10
259.788
 20
192.604
 10
259.726
 20
192.774
 10
259.67
 20
192.938
 10
259.619
 20
193.096
 10
259.572
 20
193.247
 10
259.531
 20
193.393
 10
259.494
 20
193.531
 10
259.463
 20
193.664
 10
259.436
 20
193.79
 10
259.415
 20
193.91
 10
259.399
 20
194.022
 10
259.388
 20
194.128
 10
259.382
 20
194.227
 10
259.382
 20
194.32
 10
259.387
 20
194.405
 10
259.397
 20
194.483
 10
259.412
 20
194.554
 10
259.433
 20
194.618
 10
259.446
 20
194.647
 10
259.46
 20
194.674
 10
259.475
 20
194.7
 10
259.491
 20
194.723
 10
259.51
 20
194.745
 10
259.529
 20
194.765
 10
259.55
 20
194.783
 10
259.572
 20
194.799
 10
259.595
 20
194.813
 10
259.62
 20
194.825
 10
259.647
 20
194.835
 10
259.674
 20
194.844
 10
259.703
 20
194.85
 10
259.734
 20
194.855
 10
259.766
 20
194.857
 10
259.799
 20
194.857
 10
259.87
 20
194.852
 10
259.947
 20
194.839
 10
260.03
 20
194.818
 10
260.118
 20
194.788
 10
260.212
 20
194.75
 10
260.312
 20
194.704
 10
260.419
 20
194.649
 10
260.531
 20
194.586
 10
260.649
 20
194.514
 10
260.772
 20
194.434
 10
260.903
 20
194.344
 10
261.039
 20
194.246
 10
261.181
 20
194.138
 10
261.329
 20
194.022
 10
261.484
 20
193.897
 10
261.645
 20
193.762
 10
261.812
 20
193.618
 10
261.985
 20
193.464
 10
262.165
 20
193.302
 10
262.351
 20
193.129
 10
262.544
 20
192.947
 10
262.743
 20
192.756
 10
262.948
 20
192.554
 10
263.16
 20
192.343
 10
263.378
 20
192.122
 10
263.603
 20
191.89
 10
263.981
 20
191.496
 10
264.357
 20
191.098
 10
264.732
 20
190.694
 10
265.106
 20
190.285
 10
265.478
 20
189.872
 10
265.849
 20
189.454
 10
266.219
 20
189.031
 10
266.587
 20
188.604
 10
266.953
 20
188.172
 10
267.318
 20
187.736
 10
267.681
 20
187.295
 10
268.043
 20
186.85
 10
268.403
 20
186.401
 10
268.761
 20
185.947
 10
269.117
 20
185.489
 10
269.472
 20
185.028
 10
269.825
 20
184.562
 10
270.176
 20
184.092
 10
270.525
 20
183.618
 10
270.873
 20
183.141
 10
271.218
 20
182.659
 10
271.561
 20
182.174
 10
271.902
 20
181.686
 10
272.242
 20
181.193
 10
272.579
 20
180.697
 10
272.914
 20
180.198
 10
273.247
 20
179.695
 10
273.577
 20
179.189
 10
273.906
 20
178.679
 10
274.232
 20
178.167
 10
274.555
 20
177.65
 10
274.877
 20
177.131
 10
275.196
 20
176.609
 10
275.513
 20
176.084
 10
275.827
 20
175.556
 10
276.138
 20
175.025
 10
276.447
 20
174.491
 10
276.754
 20
173.955
 10
277.058
 20
173.416
 10
277.359
 20
172.874
 10
277.658
 20
172.329
 10
277.954
 20
171.782
 10
278.247
 20
171.233
 10
278.538
 20
170.681
 10
278.825
 20
170.127
 10
279.11
 20
169.571
 10
279.392
 20
169.012
 10
279.671
 20
168.451
 10
279.947
 20
167.888
 10
280.219
 20
167.323
 10
280.489
 20
166.757
 10
280.756
 20
166.188
 10
281.02
 20
165.617
 10
281.281
 20
165.045
 10
281.538
 20
164.471
 10
281.792
 20
163.895
 10
282.043
 20
163.318
 10
282.291
 20
162.739
 10
282.535
 20
162.159
 10
282.776
 20
161.577
 10
283.014
 20
160.994
 10
283.248
 20
160.409
 10
283.478
 20
159.824
 10
283.705
 20
159.237
 10
283.929
 20
158.649
 10
284.149
 20
158.06
 10
284.366
 20
157.47
 10
284.578
 20
156.879
 10
284.788
 20
156.287
 10
284.993
 20
155.695
 10
285.195
 20
155.102
 10
285.392
 20
154.508
 10
285.586
 20
153.913
 10
285.776
 20
153.318
 10
285.963
 20
152.722
 10
286.145
 20
152.126
 10
286.323
 20
151.53
 10
286.498
 20
150.933
 10
286.668
 20
150.336
 10
286.834
 20
149.738
 10
286.996
 20
149.141
 10
287.154
 20
148.544
 10
287.308
 20
147.946
 10
287.457
 20
147.349
 10
287.603
 20
146.751
 10
287.743
 20
146.154
 10
287.88
 20
145.557
 10
288.012
 20
144.961
 10
288.14
 20
144.364
 10
288.264
 20
143.769
 10
288.383
 20
143.173
 10
288.497
 20
142.578
 10
288.607
 20
141.984
 10
288.712
 20
141.391
 10
288.813
 20
140.798
 10
288.909
 20
140.206
 10
289
 20
139.614
 10
289.087
 20
139.024
 10
289.168
 20
138.435
 10
289.245
 20
137.846
 10
289.318
 20
137.259
 10
289.385
 20
136.673
 10
289.447
 20
136.088
 10
289.505
 20
135.504
 10
289.557
 20
134.922
 10
289.605
 20
134.341
 10
289.647
 20
133.762
 10
289.685
 20
133.184
 10
289.717
 20
132.607
 10
289.744
 20
132.032
 10
289.765
 20
131.459
 10
289.782
 20
130.888
 10
289.793
 20
130.319
 10
289.799
 20
129.751
 10
289.8
 20
129.185
 10
289.795
 20
128.622
 10
289.785
 20
128.06
 10
289.77
 20
127.501
 10
289.749
 20
126.943
 10
289.722
 20
126.388
 10
289.69
 20
125.836
 10
289.652
 20
125.285
 10
289.609
 20
124.737
 10
289.56
 20
124.192
 10
289.505
 20
123.649
 10
289.445
 20
123.109
 10
289.378
 20
122.571
 10
289.306
 20
122.036
 10
288.924
 20
119.313
 10
288.445
 20
115.906
 10
287.87
 20
111.815
 10
287.2
 20
107.041
 10
287.175
 20
106.854
 10
287.152
 20
106.668
 10
287.132
 20
106.483
 10
287.115
 20
106.3
 10
287.101
 20
106.12
 10
287.089
 20
105.941
 10
287.08
 20
105.764
 10
287.074
 20
105.589
 10
287.07
 20
105.416
 10
287.068
 20
105.245
 10
287.069
 20
105.075
 10
287.072
 20
104.908
 10
287.078
 20
104.743
 10
287.086
 20
104.58
 10
287.096
 20
104.418
 10
287.109
 20
104.26
 10
287.124
 20
104.103
 10
287.142
 20
103.948
 10
287.161
 20
103.795
 10
287.183
 20
103.645
 10
287.207
 20
103.497
 10
287.233
 20
103.351
 10
287.261
 20
103.207
 10
287.291
 20
103.066
 10
287.323
 20
102.927
 10
287.357
 20
102.79
 10
287.393
 20
102.656
 10
287.431
 20
102.524
 10
287.471
 20
102.395
 10
287.513
 20
102.268
 10
287.557
 20
102.143
 10
287.603
 20
102.021
 10
287.65
 20
101.902
 10
287.699
 20
101.784
 10
287.75
 20
101.67
 10
287.803
 20
101.558
 10
287.857
 20
101.449
 10
287.913
 20
101.342
 10
287.97
 20
101.238
 10
288.029
 20
101.137
 10
288.09
 20
101.039
 10
288.152
 20
100.943
 10
288.215
 20
100.85
 10
288.281
 20
100.759
 10
288.347
 20
100.672
 10
288.415
 20
100.587
 10
288.484
 20
100.505
 10
288.555
 20
100.427
 10
288.627
 20
100.351
 10
288.7
 20
100.278
 10
288.774
 20
100.207
 10
288.85
 20
100.14
 10
288.927
 20
100.076
 10
289.005
 20
100.015
 10
289.084
 20
99.9572
 10
289.164
 20
99.90219999999999
 10
289.245
 20
99.85039999999999
 10
289.327
 20
99.8017
 10
289.411
 20
99.7561
 10
289.495
 20
99.71380000000001
 10
289.58
 20
99.6746
 10
289.666
 20
99.6386
 10
289.753
 20
99.60590000000001
 10
289.841
 20
99.5765
 10
289.93
 20
99.5504
 10
290.019
 20
99.52760000000001
 10
290.109
 20
99.5081
 10
290.2
 20
99.492
 10
290.291
 20
99.47929999999999
 10
290.384
 20
99.4701
 10
290.477
 20
99.46429999999999
 10
290.57
 20
99.4619
 10
290.664
 20
99.4631
 10
290.759
 20
99.46769999999999
 10
290.854
 20
99.476
 10
290.95
 20
99.4877
 10
291.046
 20
99.5031
 10
291.142
 20
99.52209999999999
 10
291.239
 20
99.5448
 10
291.336
 20
99.5711
 10
291.434
 20
99.6011
 10
291.531
 20
99.6348
 10
291.63
 20
99.67230000000001
 10
291.728
 20
99.7135
 10
291.826
 20
99.7585
 10
291.925
 20
99.8073
 10
292.024
 20
99.86
 10
292.123
 20
99.9165
 10
292.222
 20
99.9769
 10
292.321
 20
100.041
 10
292.42
 20
100.109
 10
292.519
 20
100.182
 10
292.618
 20
100.258
 10
292.718
 20
100.338
 10
292.817
 20
100.422
 10
292.915
 20
100.511
 10
293.014
 20
100.603
 10
293.112
 20
100.7
 10
293.211
 20
100.8
 10
293.309
 20
100.905
 10
293.406
 20
101.014
 10
293.504
 20
101.127
 10
293.601
 20
101.245
 10
293.697
 20
101.367
 10
293.794
 20
101.492
 10
293.889
 20
101.623
 10
293.985
 20
101.757
 10
294.08
 20
101.896
 10
294.174
 20
102.04
 10
294.268
 20
102.187
 10
294.361
 20
102.34
 10
294.454
 20
102.496
 10
294.546
 20
102.657
 10
294.637
 20
102.823
 10
294.728
 20
102.993
 10
294.817
 20
103.168
 10
294.906
 20
103.347
 10
294.995
 20
103.531
 10
295.082
 20
103.719
 10
295.169
 20
103.912
 10
295.254
 20
104.11
 10
295.339
 20
104.312
 10
295.423
 20
104.52
 10
295.506
 20
104.732
 10
295.587
 20
104.948
 10
295.668
 20
105.17
 10
295.748
 20
105.396
 10
295.826
 20
105.627
 10
296
 20
106.15
 10
296.169
 20
106.672
 10
296.336
 20
107.193
 10
296.5
 20
107.713
 10
296.66
 20
108.232
 10
296.817
 20
108.75
 10
296.971
 20
109.267
 10
297.121
 20
109.783
 10
297.269
 20
110.299
 10
297.413
 20
110.814
 10
297.554
 20
111.327
 10
297.692
 20
111.84
 10
297.826
 20
112.352
 10
297.958
 20
112.863
 10
298.086
 20
113.373
 10
298.211
 20
113.882
 10
298.333
 20
114.391
 10
298.451
 20
114.898
 10
298.567
 20
115.405
 10
298.679
 20
115.91
 10
298.788
 20
116.415
 10
298.893
 20
116.919
 10
298.996
 20
117.422
 10
299.095
 20
117.924
 10
299.191
 20
118.425
 10
299.284
 20
118.925
 10
299.374
 20
119.425
 10
299.46
 20
119.923
 10
299.544
 20
120.421
 10
299.624
 20
120.918
 10
299.7
 20
121.413
 10
299.774
 20
121.908
 10
299.845
 20
122.402
 10
299.912
 20
122.895
 10
299.976
 20
123.388
 10
300.037
 20
123.879
 10
300.094
 20
124.369
 10
300.149
 20
124.859
 10
300.2
 20
125.348
 10
300.248
 20
125.835
 10
300.293
 20
126.322
 10
300.334
 20
126.808
 10
300.373
 20
127.293
 10
300.408
 20
127.778
 10
300.44
 20
128.261
 10
300.469
 20
128.743
 10
300.494
 20
129.225
 10
300.517
 20
129.705
 10
300.536
 20
130.185
 10
300.552
 20
130.664
 10
300.564
 20
131.142
 10
300.574
 20
131.619
 10
300.58
 20
132.095
 10
300.583
 20
132.57
 10
300.583
 20
133.044
 10
300.58
 20
133.518
 10
300.573
 20
133.99
 10
300.564
 20
134.462
 10
300.551
 20
134.933
 10
300.535
 20
135.403
 10
300.515
 20
135.871
 10
300.493
 20
136.34
 10
300.467
 20
136.807
 10
300.438
 20
137.273
 10
300.406
 20
137.738
 10
300.37
 20
138.203
 10
300.332
 20
138.667
 10
300.29
 20
139.129
 10
300.245
 20
139.591
 10
300.197
 20
140.052
 10
300.146
 20
140.512
 10
300.091
 20
140.971
 10
300.033
 20
141.429
 10
299.972
 20
141.887
 10
299.908
 20
142.343
 10
299.84
 20
142.799
 10
299.77
 20
143.253
 10
299.696
 20
143.707
 10
299.619
 20
144.16
 10
299.538
 20
144.612
 10
299.455
 20
145.063
 10
299.368
 20
145.513
 10
299.279
 20
145.962
 10
299.185
 20
146.411
 10
299.089
 20
146.858
 10
298.99
 20
147.305
 10
298.887
 20
147.75
 10
298.781
 20
148.195
 10
298.672
 20
148.639
 10
298.559
 20
149.082
 10
298.444
 20
149.524
 10
298.325
 20
149.966
 10
298.203
 20
150.406
 10
298.078
 20
150.845
 10
297.95
 20
151.284
 10
297.818
 20
151.722
 10
297.683
 20
152.158
 10
297.545
 20
152.594
 10
297.404
 20
153.029
 10
297.26
 20
153.463
 10
297.112
 20
153.896
 10
296.961
 20
154.329
 10
296.807
 20
154.76
 10
296.65
 20
155.19
 10
296.49
 20
155.62
 10
296.326
 20
156.049
 10
296.159
 20
156.477
 10
295.989
 20
156.904
 10
295.816
 20
157.33
 10
295.639
 20
157.755
 10
295.459
 20
158.179
 10
295.277
 20
158.602
 10
295.091
 20
159.025
 10
294.901
 20
159.446
 10
294.709
 20
159.867
 10
294.513
 20
160.287
 10
294.314
 20
160.705
 10
294.112
 20
161.123
 10
293.906
 20
161.541
 10
293.698
 20
161.957
 10
293.486
 20
162.372
 10
293.271
 20
162.786
 10
293.053
 20
163.2
 10
292.832
 20
163.612
 10
292.607
 20
164.024
 10
292.379
 20
164.435
 10
292.148
 20
164.845
 10
291.914
 20
165.254
 10
291.721
 20
165.587
 10
291.526
 20
165.917
 10
291.133
 20
166.575
 10
290.735
 20
167.227
 10
290.336
 20
167.877
 10
289.536
 20
169.17
 10
289.138
 20
169.816
 10
288.743
 20
170.464
 10
288.354
 20
171.116
 10
288.162
 20
171.443
 10
287.971
 20
171.772
 10
287.783
 20
172.102
 10
287.596
 20
172.434
 10
287.412
 20
172.768
 10
287.231
 20
173.103
 10
287.052
 20
173.441
 10
286.876
 20
173.78
 10
286.703
 20
174.123
 10
286.533
 20
174.468
 10
286.367
 20
174.815
 10
286.204
 20
175.166
 10
286.046
 20
175.52
  0
LWPOLYLINE
  5
4F
100
AcDbEntity
  8
0
  6
ByLayer
 62
  256
370
   -1
100
AcDbPolyline
 90
   58
 70
    1
 43
0
 10
334.213
 20
20.6271
 10
335.723
 20
20.6277
 10
337.24
 20
20.6284
 10
338.764
 20
20.6291
 10
340.297
 20
20.6297
 10
340.297
 20
20.3407
 10
340.297
 20
19.705
 10
340.297
 20
19.0693
 10
340.297
 20
18.7803
 10
340.574
 20
18.7803
 10
341.184
 20
18.7803
 10
341.794
 20
18.7803
 10
342.071
 20
18.7803
 10
342.273
 20
18.7784
 10
342.466
 20
18.7728
 10
342.649
 20
18.7634
 10
342.822
 20
18.7503
 10
342.985
 20
18.7335
 10
343.138
 20
18.7128
 10
343.282
 20
18.6885
 10
343.416
 20
18.6604
 10
343.54
 20
18.6285
 10
343.654
 20
18.5929
 10
343.758
 20
18.5536
 10
343.852
 20
18.5105
 10
343.896
 20
18.4876
 10
343.937
 20
18.4637
 10
343.976
 20
18.4389
 10
344.012
 20
18.4131
 10
344.046
 20
18.3864
 10
344.077
 20
18.3588
 10
344.106
 20
18.3302
 10
344.132
 20
18.3007
 10
344.157
 20
18.2694
 10
344.181
 20
18.2353
 10
344.204
 20
18.1985
 10
344.227
 20
18.159
 10
344.269
 20
18.0719
 10
344.308
 20
17.9739
 10
344.344
 20
17.8649
 10
344.377
 20
17.7451
 10
344.407
 20
17.6144
 10
344.433
 20
17.4729
 10
344.456
 20
17.3204
 10
344.477
 20
17.157
 10
344.494
 20
16.9828
 10
344.508
 20
16.7977
 10
344.518
 20
16.6017
 10
344.526
 20
16.3948
 10
344.531
 20
16.1771
 10
344.532
 20
15.9484
 10
344.532
 20
13.4565
 10
344.532
 20
7.9742
 10
344.532
 20
2.4919
 10
344.532
 20
0
 10
342.92
 20
3.223
 10
339.373
 20
10.3136
 10
335.826
 20
17.4041
  0
LWPOLYLINE
  5
50
100
AcDbEntity
  8
0
  6
ByLayer
 62
  256
370
   -1
100
AcDbPolyline
 90
  256
 70
    1
 43
0
 10
358.3
 20
21.7873
 10
358.429
 20
21.5792
 10
358.553
 20
21.3659
 10
358.673
 20
21.1474
 10
358.79
 20
20.9237
 10
358.902
 20
20.6949
 10
359.01
 20
20.4609
 10
359.114
 20
20.2217
 10
359.214
 20
19.9774
 10
359.31
 20
19.7279
 10
359.401
 20
19.4732
 10
359.489
 20
19.2133
 10
359.572
 20
18.9482
 10
359.652
 20
18.678
 10
359.727
 20
18.4026
 10
359.798
 20
18.1221
 10
359.866
 20
17.8363
 10
359.929
 20
17.5454
 10
359.988
 20
17.2493
 10
360.043
 20
16.9481
 10
360.094
 20
16.6416
 10
360.14
 20
16.33
 10
360.183
 20
16.0132
 10
360.222
 20
15.6913
 10
360.256
 20
15.3642
 10
360.287
 20
15.0318
 10
360.313
 20
14.6944
 10
360.336
 20
14.3517
 10
360.354
 20
14.0039
 10
360.368
 20
13.6509
 10
360.378
 20
13.2927
 10
360.384
 20
12.9293
 10
360.386
 20
12.5608
 10
360.384
 20
12.1909
 10
360.378
 20
11.8261
 10
360.368
 20
11.4666
 10
360.354
 20
11.1124
 10
360.335
 20
10.7633
 10
360.313
 20
10.4194
 10
360.286
 20
10.0808
 10
360.255
 20
9.747299999999999
 10
360.221
 20
9.4191
 10
360.182
 20
9.0961
 10
360.139
 20
8.7783
 10
360.092
 20
8.4656
 10
360.04
 20
8.158200000000001
 10
359.985
 20
7.856
 10
359.926
 20
7.559
 10
359.863
 20
7.2672
 10
359.795
 20
6.9806
 10
359.723
 20
6.6991
 10
359.648
 20
6.4229
 10
359.568
 20
6.1519
 10
359.484
 20
5.886
 10
359.396
 20
5.6254
 10
359.305
 20
5.3699
 10
359.208
 20
5.1196
 10
359.108
 20
4.8745
 10
359.004
 20
4.6346
 10
358.896
 20
4.3999
 10
358.784
 20
4.1703
 10
358.667
 20
3.9459
 10
358.547
 20
3.7268
 10
358.422
 20
3.5127
 10
358.294
 20
3.3039
 10
358.161
 20
3.1009
 10
358.025
 20
2.9042
 10
357.886
 20
2.714
 10
357.744
 20
2.5303
 10
357.599
 20
2.3529
 10
357.45
 20
2.182
 10
357.298
 20
2.0175
 10
357.143
 20
1.8595
 10
356.985
 20
1.7079
 10
356.824
 20
1.5627
 10
356.66
 20
1.424
 10
356.492
 20
1.2917
 10
356.322
 20
1.1658
 10
356.148
 20
1.0464
 10
355.971
 20
0.9334
 10
355.79
 20
0.8269
 10
355.607
 20
0.7268
 10
355.42
 20
0.6332
 10
355.231
 20
0.546
 10
355.038
 20
0.4653
 10
354.841
 20
0.391
 10
354.642
 20
0.3232
 10
354.439
 20
0.2618
 10
354.234
 20
0.2068
 10
354.025
 20
0.1584
 10
353.812
 20
0.1164
 10
353.597
 20
0.0808
 10
353.378
 20
0.0517
 10
353.157
 20
0.0291
 10
352.932
 20
0.0129
 10
352.703
 20
0.0032
 10
352.472
 20
0
 10
352.24
 20
0.0032
 10
352.011
 20
0.0129
 10
351.785
 20
0.0291
 10
351.563
 20
0.0517
 10
351.344
 20
0.0808
 10
351.128
 20
0.1164
 10
350.915
 20
0.1585
 10
350.706
 20
0.207
 10
350.499
 20
0.2619
 10
350.296
 20
0.3234
 10
350.096
 20
0.3913
 10
349.899
 20
0.4657
 10
349.706
 20
0.5465
 10
349.516
 20
0.6338
 10
349.329
 20
0.7276
 10
349.145
 20
0.8279
 10
348.964
 20
0.9346
 10
348.787
 20
1.0478
 10
348.612
 20
1.1674
 10
348.441
 20
1.2935
 10
348.273
 20
1.4261
 10
348.109
 20
1.5652
 10
347.947
 20
1.7107
 10
347.789
 20
1.8627
 10
347.634
 20
2.0212
 10
347.482
 20
2.1861
 10
347.333
 20
2.3575
 10
347.188
 20
2.5354
 10
347.045
 20
2.7197
 10
346.906
 20
2.9105
 10
346.77
 20
3.1078
 10
346.637
 20
3.3115
 10
346.508
 20
3.521
 10
346.382
 20
3.7357
 10
346.261
 20
3.9555
 10
346.143
 20
4.1804
 10
346.03
 20
4.4104
 10
345.921
 20
4.6456
 10
345.816
 20
4.8859
 10
345.716
 20
5.1314
 10
345.619
 20
5.3819
 10
345.526
 20
5.6376
 10
345.438
 20
5.8984
 10
345.354
 20
6.1644
 10
345.274
 20
6.4355
 10
345.198
 20
6.7117
 10
345.126
 20
6.993
 10
345.058
 20
7.2795
 10
344.994
 20
7.5711
 10
344.935
 20
7.8679
 10
344.879
 20
8.169700000000001
 10
344.828
 20
8.476699999999999
 10
344.781
 20
8.7889
 10
344.738
 20
9.1061
 10
344.699
 20
9.4285
 10
344.664
 20
9.756
 10
344.633
 20
10.0887
 10
344.606
 20
10.4264
 10
344.584
 20
10.7693
 10
344.565
 20
11.1174
 10
344.551
 20
11.4705
 10
344.541
 20
11.8288
 10
344.534
 20
12.1922
 10
344.532
 20
12.5608
 10
344.534
 20
12.9293
 10
344.541
 20
13.2927
 10
344.551
 20
13.6509
 10
344.565
 20
14.0039
 10
344.584
 20
14.3517
 10
344.606
 20
14.6944
 10
344.633
 20
15.0318
 10
344.664
 20
15.3642
 10
344.699
 20
15.6913
 10
344.738
 20
16.0132
 10
344.781
 20
16.33
 10
344.828
 20
16.6416
 10
344.879
 20
16.9481
 10
344.935
 20
17.2493
 10
344.994
 20
17.5454
 10
345.058
 20
17.8363
 10
345.126
 20
18.1221
 10
345.198
 20
18.4026
 10
345.274
 20
18.678
 10
345.354
 20
18.9482
 10
345.438
 20
19.2133
 10
345.526
 20
19.4732
 10
345.619
 20
19.7279
 10
345.716
 20
19.9774
 10
345.816
 20
20.2217
 10
345.921
 20
20.4609
 10
346.03
 20
20.6949
 10
346.143
 20
20.9237
 10
346.261
 20
21.1474
 10
346.382
 20
21.3659
 10
346.508
 20
21.5792
 10
346.637
 20
21.7873
 10
346.77
 20
21.9896
 10
346.906
 20
22.1855
 10
347.045
 20
22.375
 10
347.188
 20
22.5581
 10
347.333
 20
22.7347
 10
347.482
 20
22.9049
 10
347.634
 20
23.0687
 10
347.789
 20
23.2261
 10
347.947
 20
23.377
 10
348.109
 20
23.5215
 10
348.273
 20
23.6596
 10
348.441
 20
23.7913
 10
348.612
 20
23.9165
 10
348.787
 20
24.0354
 10
348.964
 20
24.1478
 10
349.145
 20
24.2538
 10
349.329
 20
24.3533
 10
349.516
 20
24.4464
 10
349.706
 20
24.5332
 10
349.899
 20
24.6134
 10
350.096
 20
24.6873
 10
350.296
 20
24.7547
 10
350.499
 20
24.8158
 10
350.706
 20
24.8704
 10
350.915
 20
24.9185
 10
351.128
 20
24.9603
 10
351.344
 20
24.9956
 10
351.563
 20
25.0245
 10
351.785
 20
25.047
 10
352.011
 20
25.0631
 10
352.24
 20
25.0727
 10
352.472
 20
25.0759
 10
352.704
 20
25.0727
 10
352.934
 20
25.0631
 10
353.16
 20
25.047
 10
353.383
 20
25.0245
 10
353.602
 20
24.9956
 10
353.819
 20
24.9603
 10
354.032
 20
24.9185
 10
354.242
 20
24.8704
 10
354.448
 20
24.8158
 10
354.651
 20
24.7547
 10
354.852
 20
24.6873
 10
355.048
 20
24.6134
 10
355.242
 20
24.5332
 10
355.432
 20
24.4464
 10
355.619
 20
24.3533
 10
355.803
 20
24.2538
 10
355.983
 20
24.1478
 10
356.161
 20
24.0354
 10
356.335
 20
23.9165
 10
356.505
 20
23.7913
 10
356.673
 20
23.6596
 10
356.837
 20
23.5215
 10
356.998
 20
23.377
 10
357.156
 20
23.2261
 10
357.31
 20
23.0687
 10
357.461
 20
22.9049
 10
357.609
 20
22.7347
 10
357.754
 20
22.5581
 10
357.895
 20
22.375
 10
358.034
 20
22.1855
 10
358.168
 20
21.9896
  0
LWPOLYLINE
  5
51
100
AcDbEntity
  8
0
  6
ByLayer
 62
  256
370
   -1
100
AcDbPolyline
 90
  256
 70
    1
 43
0
 10
368.326
 20
25.0759
 10
368.559
 20
25.0727
 10
368.788
 20
25.0631
 10
369.014
 20
25.047
 10
369.237
 20
25.0245
 10
369.457
 20
24.9956
 10
369.673
 20
24.9603
 10
369.886
 20
24.9185
 10
370.096
 20
24.8704
 10
370.302
 20
24.8158
 10
370.506
 20
24.7547
 10
370.706
 20
24.6873
 10
370.902
 20
24.6134
 10
371.096
 20
24.5332
 10
371.286
 20
24.4464
 10
371.473
 20
24.3533
 10
371.657
 20
24.2538
 10
371.838
 20
24.1478
 10
372.015
 20
24.0354
 10
372.189
 20
23.9165
 10
372.359
 20
23.7913
 10
372.527
 20
23.6596
 10
372.691
 20
23.5215
 10
372.852
 20
23.377
 10
373.01
 20
23.2261
 10
373.164
 20
23.0687
 10
373.315
 20
22.9049
 10
373.463
 20
22.7347
 10
373.608
 20
22.5581
 10
373.749
 20
22.375
 10
373.888
 20
22.1855
 10
374.023
 20
21.9896
 10
374.154
 20
21.7873
 10
374.283
 20
21.5792
 10
374.407
 20
21.3659
 10
374.527
 20
21.1474
 10
374.644
 20
20.9237
 10
374.756
 20
20.6949
 10
374.864
 20
20.4609
 10
374.968
 20
20.2217
 10
375.068
 20
19.9774
 10
375.164
 20
19.7279
 10
375.255
 20
19.4732
 10
375.343
 20
19.2133
 10
375.426
 20
18.9482
 10
375.506
 20
18.678
 10
375.581
 20
18.4026
 10
375.653
 20
18.1221
 10
375.72
 20
17.8363
 10
375.783
 20
17.5454
 10
375.842
 20
17.2493
 10
375.897
 20
16.9481
 10
375.948
 20
16.6416
 10
375.994
 20
16.33
 10
376.037
 20
16.0132
 10
376.076
 20
15.6913
 10
376.111
 20
15.3642
 10
376.141
 20
15.0318
 10
376.167
 20
14.6944
 10
376.19
 20
14.3517
 10
376.208
 20
14.0039
 10
376.222
 20
13.6509
 10
376.232
 20
13.2927
 10
376.239
 20
12.9293
 10
376.241
 20
12.5608
 10
376.239
 20
12.1909
 10
376.232
 20
11.8261
 10
376.222
 20
11.4666
 10
376.208
 20
11.1124
 10
376.189
 20
10.7633
 10
376.167
 20
10.4194
 10
376.14
 20
10.0808
 10
376.109
 20
9.747299999999999
 10
376.075
 20
9.4191
 10
376.036
 20
9.0961
 10
375.993
 20
8.7783
 10
375.946
 20
8.4656
 10
375.895
 20
8.158200000000001
 10
375.839
 20
7.856
 10
375.78
 20
7.559
 10
375.717
 20
7.2672
 10
375.649
 20
6.9806
 10
375.578
 20
6.6991
 10
375.502
 20
6.4229
 10
375.422
 20
6.1519
 10
375.338
 20
5.886
 10
375.25
 20
5.6254
 10
375.159
 20
5.3699
 10
375.063
 20
5.1196
 10
374.962
 20
4.8745
 10
374.858
 20
4.6346
 10
374.75
 20
4.3999
 10
374.638
 20
4.1703
 10
374.521
 20
3.9459
 10
374.401
 20
3.7268
 10
374.276
 20
3.5127
 10
374.148
 20
3.3039
 10
374.015
 20
3.1009
 10
373.879
 20
2.9042
 10
373.74
 20
2.714
 10
373.598
 20
2.5303
 10
373.453
 20
2.3529
 10
373.304
 20
2.182
 10
373.152
 20
2.0175
 10
372.998
 20
1.8595
 10
372.839
 20
1.7079
 10
372.678
 20
1.5627
 10
372.514
 20
1.424
 10
372.346
 20
1.2917
 10
372.176
 20
1.1658
 10
372.002
 20
1.0464
 10
371.825
 20
0.9334
 10
371.645
 20
0.8269
 10
371.461
 20
0.7268
 10
371.274
 20
0.6332
 10
371.085
 20
0.546
 10
370.892
 20
0.4653
 10
370.695
 20
0.391
 10
370.496
 20
0.3232
 10
370.294
 20
0.2618
 10
370.088
 20
0.2068
 10
369.879
 20
0.1584
 10
369.667
 20
0.1164
 10
369.451
 20
0.0808
 10
369.233
 20
0.0517
 10
369.011
 20
0.0291
 10
368.786
 20
0.0129
 10
368.558
 20
0.0032
 10
368.326
 20
0
 10
368.094
 20
0.0032
 10
367.865
 20
0.0129
 10
367.639
 20
0.0291
 10
367.417
 20
0.0517
 10
367.198
 20
0.0808
 10
366.982
 20
0.1164
 10
366.769
 20
0.1585
 10
366.56
 20
0.207
 10
366.353
 20
0.2619
 10
366.15
 20
0.3234
 10
365.95
 20
0.3913
 10
365.754
 20
0.4657
 10
365.56
 20
0.5465
 10
365.37
 20
0.6338
 10
365.183
 20
0.7276
 10
364.999
 20
0.8279
 10
364.818
 20
0.9346
 10
364.641
 20
1.0478
 10
364.466
 20
1.1674
 10
364.295
 20
1.2935
 10
364.127
 20
1.4261
 10
363.963
 20
1.5652
 10
363.801
 20
1.7107
 10
363.643
 20
1.8627
 10
363.488
 20
2.0212
 10
363.336
 20
2.1861
 10
363.187
 20
2.3575
 10
363.042
 20
2.5354
 10
362.899
 20
2.7197
 10
362.76
 20
2.9105
 10
362.624
 20
3.1078
 10
362.491
 20
3.3115
 10
362.362
 20
3.521
 10
362.236
 20
3.7357
 10
362.115
 20
3.9555
 10
361.998
 20
4.1804
 10
361.884
 20
4.4104
 10
361.775
 20
4.6456
 10
361.67
 20
4.8859
 10
361.57
 20
5.1314
 10
361.473
 20
5.3819
 10
361.38
 20
5.6376
 10
361.292
 20
5.8984
 10
361.208
 20
6.1644
 10
361.128
 20
6.4355
 10
361.052
 20
6.7117
 10
360.98
 20
6.993
 10
360.912
 20
7.2795
 10
360.848
 20
7.5711
 10
360.789
 20
7.8679
 10
360.733
 20
8.169700000000001
 10
360.682
 20
8.476699999999999
 10
360.635
 20
8.7889
 10
360.592
 20
9.1061
 10
360.553
 20
9.4285
 10
360.518
 20
9.756
 10
360.487
 20
10.0887
 10
360.46
 20
10.4264
 10
360.438
 20
10.7693
 10
360.419
 20
11.1174
 10
360.405
 20
11.4705
 10
360.395
 20
11.8288
 10
360.388
 20
12.1922
 10
360.386
 20
12.5608
 10
360.388
 20
12.9293
 10
360.395
 20
13.2927
 10
360.405
 20
13.6509
 10
360.419
 20
14.0039
 10
360.438
 20
14.3517
 10
360.46
 20
14.6944
 10
360.487
 20
15.0318
 10
360.518
 20
15.3642
 10
360.553
 20
15.6913
 10
360.592
 20
16.0132
 10
360.635
 20
16.33
 10
360.682
 20
16.6416
 10
360.733
 20
16.9481
 10
360.789
 20
17.2493
 10
360.848
 20
17.5454
 10
360.912
 20
17.8363
 10
360.98
 20
18.1221
 10
361.052
 20
18.4026
 10
361.128
 20
18.678
 10
361.208
 20
18.9482
 10
361.292
 20
19.2133
 10
361.38
 20
19.4732
 10
361.473
 20
19.7279
 10
361.57
 20
19.9774
 10
361.67
 20
20.2217
 10
361.775
 20
20.4609
 10
361.884
 20
20.6949
 10
361.998
 20
20.9237
 10
362.115
 20
21.1474
 10
362.236
 20
21.3659
 10
362.362
 20
21.5792
 10
362.491
 20
21.7873
 10
362.624
 20
21.9896
 10
362.76
 20
22.1855
 10
362.899
 20
22.375
 10
363.042
 20
22.5581
 10
363.187
 20
22.7347
 10
363.336
 20
22.9049
 10
363.488
 20
23.0687
 10
363.643
 20
23.2261
 10
363.801
 20
23.377
 10
363.963
 20
23.5215
 10
364.127
 20
23.6596
 10
364.295
 20
23.7913
 10
364.466
 20
23.9165
 10
364.641
 20
24.0354
 10
364.818
 20
24.1478
 10
364.999
 20
24.2538
 10
365.183
 20
24.3533
 10
365.37
 20
24.4464
 10
365.56
 20
24.5332
 10
365.754
 20
24.6134
 10
365.95
 20
24.6873
 10
366.15
 20
24.7547
 10
366.353
 20
24.8158
 10
366.56
 20
24.8704
 10
366.769
 20
24.9185
 10
366.982
 20
24.9603
 10
367.198
 20
24.9956
 10
367.417
 20
25.0245
 10
367.639
 20
25.047
 10
367.865
 20
25.0631
 10
368.094
 20
25.0727
  0
ENDSEC
  0
SECTION
  2
OBJECTS
  0
DICTIONARY
  5
C
330
0
100
AcDbDictionary
281
    1
  3
ACAD_GROUP
350
D
  0
DICTIONARY
  5
D
330
C
100
AcDbDictionary
281
    1
  0
PLOTSETTINGS
  5
52
100
AcDbPlotSettings
  6
1x1
 40
0
 41
0
 42
0
 43
0
  0
ENDSEC
  0
EOF
