999
dxfrw 0.6.3
  0
SECTION
  2
HEADER
  9
$ACADVER
  1
AC1021
  9
$DWGCODEPAGE
  3
ANSI_1252
  9
$INSBASE
 10
0
 20
0
 30
0
  9
$EXTMIN
 10
0
 20
0
 30
0
  9
$EXTMAX
 10
7.4612
 20
6.0732
 30
0
  9
$LIMMIN
 10
0
 20
0
  9
$LIMMAX
 10
420
 20
297
  9
$ORTHOMODE
 70
    0
  9
$REGENMODE
 70
    1
  9
$FILLMODE
 70
    1
  9
$QTEXTMODE
 70
    0
  9
$MIRRTEXT
 70
    0
  9
$LTSCALE
 40
1
  9
$ATTMODE
 70
    0
  9
$TEXTSIZE
 40
2.5
  9
$TRACEWID
 40
15.68
  9
$TEXTSTYLE
  7
STANDARD
  9
$CLAYER
  8
0
  9
$CELTYPE
  6
BYLAYER
  9
$CECOLOR
 62
  256
  9
$CELTSCALE
 40
1
  9
$DISPSILH
 70
    0
  9
$DIMSCALE
 40
2.5
  9
$DIMASZ
 40
2.5
  9
$DIMEXO
 40
0.625
  9
$DIMDLI
 40
3.75
  9
$DIMRND
 40
0
  9
$DIMDLE
 40
0
  9
$DIMEXE
 40
1.25
  9
$DIMTP
 40
0
  9
$DIMTM
 40
0
  9
$DIMTXT
 40
2.5
  9
$DIMCEN
 40
2.5
  9
$DIMTSZ
 40
0
  9
$DIMTOL
 70
    0
  9
$DIMLIM
 70
    0
  9
$DIMTIH
 70
    0
  9
$DIMTOH
 70
    0
  9
$DIMSE1
 70
    0
  9
$DIMSE2
 70
    0
  9
$DIMTAD
 70
    1
  9
$DIMZIN
 70
    8
  9
$DIMBLK
  1

  9
$DIMASO
 70
    1
  9
$DIMSHO
 70
    1
  9
$DIMPOST
  1

  9
$DIMAPOST
  1

  9
$DIMALT
 70
    0
  9
$DIMALTD
 70
    3
  9
$DIMALTF
 40
0.03937
  9
$DIMLFAC
 40
1
  9
$DIMTOFL
 70
    1
  9
$DIMTVP
 40
0
  9
$DIMTIX
 70
    0
  9
$DIMSOXD
 70
    0
  9
$DIMSAH
 70
    0
  9
$DIMBLK1
  1

  9
$DIMBLK2
  1

  9
$DIMSTYLE
  2
Standard
  9
$DIMCLRD
 70
    0
  9
$DIMCLRE
 70
    0
  9
$DIMCLRT
 70
    0
  9
$DIMTFAC
 40
1
  9
$DIMGAP
 40
0.625
  9
$DIMJUST
 70
    0
  9
$DIMSD1
 70
    0
  9
$DIMSD2
 70
    0
  9
$DIMTOLJ
 70
    0
  9
$DIMTZIN
 70
    8
  9
$DIMALTZ
 70
    0
  9
$DIMALTTZ
 70
    0
  9
$DIMUPT
 70
    0
  9
$DIMDEC
 70
    2
  9
$DIMTDEC
 70
    2
  9
$DIMALTU
 70
    2
  9
$DIMALTTD
 70
    3
  9
$DIMTXSTY
  7
STANDARD
  9
$DIMAUNIT
 70
    0
  9
$DIMADEC
 70
    0
  9
$DIMALTRND
 40
0
  9
$DIMAZIN
 70
    0
  9
$DIMDSEP
 70
   44
  9
$DIMATFIT
 70
    3
  9
$DIMFRAC
 70
    0
  9
$DIMLDRBLK
  1
STANDARD
  9
$DIMLUNIT
 70
    2
  9
$DIMLWD
 70
   -2
  9
$DIMLWE
 70
   -2
  9
$DIMTMOVE
 70
    0
  9
$DIMFXL
 40
1
  9
$DIMFXLON
 70
    0
  9
$DIMJOGANG
 40
0.7854
  9
$DIMTFILL
 70
    0
  9
$DIMTFILLCLR
 70
    0
  9
$DIMARCSYM
 70
    0
  9
$DIMLTYPE
  6

  9
$DIMLTEX1
  6

  9
$DIMLTEX2
  6

  9
$LUNITS
 70
    2
  9
$LUPREC
 70
    4
  9
$SKETCHINC
 40
1
  9
$FILLETRAD
 40
0
  9
$AUNITS
 70
    0
  9
$AUPREC
 70
    2
  9
$MENU
  1
.
  9
$ELEVATION
 40
0
  9
$PELEVATION
 40
0
  9
$THICKNESS
 40
0
  9
$LIMCHECK
 70
    0
  9
$CHAMFERA
 40
0
  9
$CHAMFERB
 40
0
  9
$CHAMFERC
 40
0
  9
$CHAMFERD
 40
0
  9
$SKPOLY
 70
    0
  9
$USRTIMER
 70
    1
  9
$ANGBASE
 50
0
  9
$ANGDIR
 70
    0
  9
$PDMODE
 70
   96
  9
$PDSIZE
 40
-2
  9
$PLINEWID
 40
0
  9
$SPLFRAME
 70
    0
  9
$SPLINETYPE
 70
    2
  9
$SPLINESEGS
 70
    8
  9
$HANDSEED
  5
20000
  9
$SURFTAB1
 70
    6
  9
$SURFTAB2
 70
    6
  9
$SURFTYPE
 70
    6
  9
$SURFU
 70
    6
  9
$SURFV
 70
    6
  9
$UCSBASE
  2

  9
$UCSNAME
  2

  9
$UCSORG
 10
0
 20
0
 30
0
  9
$UCSXDIR
 10
1
 20
0
 30
0
  9
$UCSYDIR
 10
0
 20
1
 30
0
  9
$UCSORTHOREF
  2

  9
$UCSORTHOVIEW
 70
    0
  9
$UCSORGTOP
 10
0
 20
0
 30
0
  9
$UCSORGBOTTOM
 10
0
 20
0
 30
0
  9
$UCSORGLEFT
 10
0
 20
0
 30
0
  9
$UCSORGRIGHT
 10
0
 20
0
 30
0
  9
$UCSORGFRONT
 10
0
 20
0
 30
0
  9
$UCSORGBACK
 10
0
 20
0
 30
0
  9
$PUCSBASE
  2

  9
$PUCSNAME
  2

  9
$PUCSORG
 10
0
 20
0
 30
0
  9
$PUCSXDIR
 10
1
 20
0
 30
0
  9
$PUCSYDIR
 10
0
 20
1
 30
0
  9
$PUCSORTHOREF
  2

  9
$PUCSORTHOVIEW
 70
    0
  9
$PUCSORGTOP
 10
0
 20
0
 30
0
  9
$PUCSORGBOTTOM
 10
0
 20
0
 30
0
  9
$PUCSORGLEFT
 10
0
 20
0
 30
0
  9
$PUCSORGRIGHT
 10
0
 20
0
 30
0
  9
$PUCSORGFRONT
 10
0
 20
0
 30
0
  9
$PUCSORGBACK
 10
0
 20
0
 30
0
  9
$USERI1
 70
    0
  9
$USERI2
 70
    0
  9
$USERI3
 70
    0
  9
$USERI4
 70
    0
  9
$USERI5
 70
    0
  9
$USERR1
 40
0
  9
$USERR2
 40
0
  9
$USERR3
 40
0
  9
$USERR4
 40
0
  9
$USERR5
 40
0
  9
$WORLDVIEW
 70
    1
  9
$SHADEDGE
 70
    3
  9
$SHADEDIF
 70
   70
  9
$TILEMODE
 70
    1
  9
$MAXACTVP
 70
   64
  9
$PINSBASE
 10
0
 20
0
 30
0
  9
$PLIMCHECK
 70
    0
  9
$PEXTMIN
 10
0
 20
0
 30
0
  9
$PEXTMAX
 10
0
 20
0
 30
0
  9
$SNAPSTYLE
 70
    0
  9
$PLIMMIN
 10
0
 20
0
  9
$PLIMMAX
 10
304.8
 20
228.6
  9
$UNITMODE
 70
    0
  9
$VISRETAIN
 70
    1
  9
$PLINEGEN
 70
    0
  9
$PSLTSCALE
 70
    1
  9
$TREEDEPTH
 70
 3020
  9
$CMLSTYLE
  2
Standard
  9
$CMLJUST
 70
    0
  9
$CMLSCALE
 40
20
  9
$PROXYGRAPHICS
 70
    1
  9
$MEASUREMENT
 70
    1
  9
$CELWEIGHT
370
   -1
  9
$ENDCAPS
280
    0
  9
$JOINSTYLE
280
    0
  9
$LWDISPLAY
290
    0
  9
$INSUNITS
 70
    0
  9
$HYPERLINKBASE
  1

  9
$STYLESHEET
  1

  9
$XEDIT
290
    1
  9
$CEPSNTYPE
380
    0
  9
$PSTYLEMODE
290
    1
  9
$EXTNAMES
290
    1
  9
$PSVPSCALE
 40
1
  9
$OLESTARTUP
290
    0
  9
$SORTENTS
280
  127
  9
$INDEXCTL
280
    0
  9
$HIDETEXT
280
    1
  9
$XCLIPFRAME
290
    0
  9
$HALOGAP
280
    0
  9
$OBSCOLOR
 70
  257
  9
$OBSLTYPE
280
    0
  9
$INTERSECTIONDISPLAY
280
    0
  9
$INTERSECTIONCOLOR
 70
  257
  9
$DIMASSOC
280
    1
  9
$PROJECTNAME
  1

  9
$CAMERADISPLAY
290
    0
  9
$LENSLENGTH
 40
50
  9
$CAMERAHEIGHT
 40
0
  9
$STEPSPERSEC
 40
2
  9
$STEPSIZE
 40
50
  9
$3DDWFPREC
 40
2
  9
$PSOLWIDTH
 40
5
  9
$PSOLHEIGHT
 40
80
  9
$LOFTANG1
 40
1.570796326794897
  9
$LOFTANG2
 40
1.570796326794897
  9
$LOFTMAG1
 40
0
  9
$LOFTMAG2
 40
0
  9
$LOFTPARAM
 70
    7
  9
$LOFTNORMALS
280
    1
  9
$LATITUDE
 40
1
  9
$LONGITUDE
 40
1
  9
$NORTHDIRECTION
 40
0
  9
$TIMEZONE
 70
-8000
  9
$LIGHTGLYPHDISPLAY
280
    1
  9
$TILEMODELIGHTSYNCH
280
    1
  9
$SOLIDHIST
280
    1
  9
$SHOWHIST
280
    1
  9
$DWFFRAME
280
    2
  9
$DGNFRAME
280
    0
  9
$REALWORLDSCALE
290
    1
  9
$INTERFERECOLOR
 62
    1
  9
$CSHADOW
280
    0
  9
$SHADOWPLANELOCATION
 40
0
  0
ENDSEC
  0
SECTION
  2
CLASSES
  0
ENDSEC
  0
SECTION
  2
TABLES
  0
TABLE
  2
VPORT
  5
8
330
0
100
AcDbSymbolTable
 70
    1
  0
VPORT
  5
31
330
2
100
AcDbSymbolTableRecord
100
AcDbViewportTableRecord
  2
*ACTIVE
 70
    0
 10
0
 20
0
 11
1
 21
1
 12
208.9929639401935
 22
33.97097625329815
 13
0
 23
0
 14
10
 24
10
 15
10
 25
10
 16
0
 26
0
 36
1
 17
0
 27
0
 37
0
 40
271.1081794195251
 41
1.576642335766423
 42
50
 43
0
 44
0
 50
0
 51
0
 71
    0
 72
  100
 73
    1
 74
    3
 75
    0
 76
    1
 77
    0
 78
    0
281
    0
 65
    1
110
0
120
0
130
0
111
1
121
0
131
0
112
0
122
1
132
0
 79
    0
146
0
348
10020
 60
    7
 61
    5
292
1
282
    1
141
0
142
0
 63
  250
421
3358443
  0
ENDTAB
  0
TABLE
  2
LTYPE
  5
5
330
0
100
AcDbSymbolTable
 70
    4
  0
LTYPE
  5
14
330
5
100
AcDbSymbolTableRecord
100
AcDbLinetypeTableRecord
  2
ByBlock
 70
    0
  3

 72
   65
 73
    0
 40
0
  0
LTYPE
  5
15
330
5
100
AcDbSymbolTableRecord
100
AcDbLinetypeTableRecord
  2
ByLayer
 70
    0
  3

 72
   65
 73
    0
 40
0
  0
LTYPE
  5
16
330
5
100
AcDbSymbolTableRecord
100
AcDbLinetypeTableRecord
  2
Continuous
 70
    0
  3
Solid line
 72
   65
 73
    0
 40
0
  0
LTYPE
  5
32
330
5
100
AcDbSymbolTableRecord
100
AcDbLinetypeTableRecord
  2
DOT
 70
    0
  3
Dot . . . . . . . . . . . . . . . . . . . . . .
 72
   65
 73
    2
 40
6.35
 49
0
 74
    0
 49
-6.35
 74
    0
  0
LTYPE
  5
33
330
5
100
AcDbSymbolTableRecord
100
AcDbLinetypeTableRecord
  2
DOTTINY
 70
    0
  3
Dot (.15x) .....................................
 72
   65
 73
    2
 40
0.9525
 49
0
 74
    0
 49
-0.9525
 74
    0
  0
LTYPE
  5
34
330
5
100
AcDbSymbolTableRecord
100
AcDbLinetypeTableRecord
  2
DOT2
 70
    0
  3
Dot (.5x) .....................................
 72
   65
 73
    2
 40
3.175
 49
0
 74
    0
 49
-3.175
 74
    0
  0
LTYPE
  5
35
330
5
100
AcDbSymbolTableRecord
100
AcDbLinetypeTableRecord
  2
DOTX2
 70
    0
  3
Dot (2x) .  .  .  .  .  .  .  .  .  .  .  .  .
 72
   65
 73
    2
 40
12.7
 49
0
 74
    0
 49
-12.7
 74
    0
  0
LTYPE
  5
36
330
5
100
AcDbSymbolTableRecord
100
AcDbLinetypeTableRecord
  2
DASHED
 70
    0
  3
Dashed _ _ _ _ _ _ _ _ _ _ _ _ _ _ _ _ _
 72
   65
 73
    2
 40
19.05
 49
12.7
 74
    0
 49
-6.35
 74
    0
  0
LTYPE
  5
37
330
5
100
AcDbSymbolTableRecord
100
AcDbLinetypeTableRecord
  2
DASHEDTINY
 70
    0
  3
Dashed (.15x) _ _ _ _ _ _ _ _ _ _ _ _ _ _ _ _ _
 72
   65
 73
    2
 40
2.8575
 49
1.905
 74
    0
 49
-0.9525
 74
    0
  0
LTYPE
  5
38
330
5
100
AcDbSymbolTableRecord
100
AcDbLinetypeTableRecord
  2
DASHED2
 70
    0
  3
Dashed (.5x) _ _ _ _ _ _ _ _ _ _ _ _ _ _ _ _ _
 72
   65
 73
    2
 40
9.524999999999999
 49
6.35
 74
    0
 49
-3.175
 74
    0
  0
LTYPE
  5
39
330
5
100
AcDbSymbolTableRecord
100
AcDbLinetypeTableRecord
  2
DASHEDX2
 70
    0
  3
Dashed (2x) ____  ____  ____  ____  ____  ___
 72
   65
 73
    2
 40
38.09999999999999
 49
25.4
 74
    0
 49
-12.7
 74
    0
  0
LTYPE
  5
3A
330
5
100
AcDbSymbolTableRecord
100
AcDbLinetypeTableRecord
  2
DASHDOT
 70
    0
  3
Dash dot __ . __ . __ . __ . __ . __ . __ . __
 72
   65
 73
    4
 40
25.4
 49
12.7
 74
    0
 49
-6.35
 74
    0
 49
0
 74
    0
 49
-6.35
 74
    0
  0
LTYPE
  5
3B
330
5
100
AcDbSymbolTableRecord
100
AcDbLinetypeTableRecord
  2
DASHDOTTINY
 70
    0
  3
Dash dot (.15x) _._._._._._._._._._._._._._._.
 72
   65
 73
    4
 40
3.81
 49
1.905
 74
    0
 49
-0.9525
 74
    0
 49
0
 74
    0
 49
-0.9525
 74
    0
  0
LTYPE
  5
3C
330
5
100
AcDbSymbolTableRecord
100
AcDbLinetypeTableRecord
  2
DASHDOT2
 70
    0
  3
Dash dot (.5x) _._._._._._._._._._._._._._._.
 72
   65
 73
    4
 40
12.7
 49
6.35
 74
    0
 49
-3.175
 74
    0
 49
0
 74
    0
 49
-3.175
 74
    0
  0
LTYPE
  5
3D
330
5
100
AcDbSymbolTableRecord
100
AcDbLinetypeTableRecord
  2
DASHDOTX2
 70
    0
  3
Dash dot (2x) ____  .  ____  .  ____  .  ___
 72
   65
 73
    4
 40
50.8
 49
25.4
 74
    0
 49
-12.7
 74
    0
 49
0
 74
    0
 49
-12.7
 74
    0
  0
LTYPE
  5
3E
330
5
100
AcDbSymbolTableRecord
100
AcDbLinetypeTableRecord
  2
DIVIDE
 70
    0
  3
Divide ____ . . ____ . . ____ . . ____ . . ____
 72
   65
 73
    6
 40
31.75
 49
12.7
 74
    0
 49
-6.35
 74
    0
 49
0
 74
    0
 49
-6.35
 74
    0
 49
0
 74
    0
 49
-6.35
 74
    0
  0
LTYPE
  5
3F
330
5
100
AcDbSymbolTableRecord
100
AcDbLinetypeTableRecord
  2
DIVIDETINY
 70
    0
  3
Divide (.15x) __..__..__..__..__..__..__..__.._
 72
   65
 73
    6
 40
4.7625
 49
1.905
 74
    0
 49
-0.9525
 74
    0
 49
0
 74
    0
 49
-0.9525
 74
    0
 49
0
 74
    0
 49
-0.9525
 74
    0
  0
LTYPE
  5
40
330
5
100
AcDbSymbolTableRecord
100
AcDbLinetypeTableRecord
  2
DIVIDE2
 70
    0
  3
Divide (.5x) __..__..__..__..__..__..__..__.._
 72
   65
 73
    6
 40
15.875
 49
6.35
 74
    0
 49
-3.175
 74
    0
 49
0
 74
    0
 49
-3.175
 74
    0
 49
0
 74
    0
 49
-3.175
 74
    0
  0
LTYPE
  5
41
330
5
100
AcDbSymbolTableRecord
100
AcDbLinetypeTableRecord
  2
DIVIDEX2
 70
    0
  3
Divide (2x) ________  .  .  ________  .  .  _
 72
   65
 73
    6
 40
63.5
 49
25.4
 74
    0
 49
-12.7
 74
    0
 49
0
 74
    0
 49
-12.7
 74
    0
 49
0
 74
    0
 49
-12.7
 74
    0
  0
LTYPE
  5
42
330
5
100
AcDbSymbolTableRecord
100
AcDbLinetypeTableRecord
  2
BORDER
 70
    0
  3
Border __ __ . __ __ . __ __ . __ __ . __ __ .
 72
   65
 73
    6
 40
44.45
 49
12.7
 74
    0
 49
-6.35
 74
    0
 49
12.7
 74
    0
 49
-6.35
 74
    0
 49
0
 74
    0
 49
-6.35
 74
    0
  0
LTYPE
  5
43
330
5
100
AcDbSymbolTableRecord
100
AcDbLinetypeTableRecord
  2
BORDERTINY
 70
    0
  3
Border (.15x) __.__.__.__.__.__.__.__.__.__.__.
 72
   65
 73
    6
 40
6.6675
 49
1.905
 74
    0
 49
-0.9525
 74
    0
 49
1.905
 74
    0
 49
-0.9525
 74
    0
 49
0
 74
    0
 49
-0.9525
 74
    0
  0
LTYPE
  5
44
330
5
100
AcDbSymbolTableRecord
100
AcDbLinetypeTableRecord
  2
BORDER2
 70
    0
  3
Border (.5x) __.__.__.__.__.__.__.__.__.__.__.
 72
   65
 73
    6
 40
22.225
 49
6.35
 74
    0
 49
-3.175
 74
    0
 49
6.35
 74
    0
 49
-3.175
 74
    0
 49
0
 74
    0
 49
-3.175
 74
    0
  0
LTYPE
  5
45
330
5
100
AcDbSymbolTableRecord
100
AcDbLinetypeTableRecord
  2
BORDERX2
 70
    0
  3
Border (2x) ____  ____  .  ____  ____  .  ___
 72
   65
 73
    6
 40
88.89999999999999
 49
25.4
 74
    0
 49
-12.7
 74
    0
 49
25.4
 74
    0
 49
-12.7
 74
    0
 49
0
 74
    0
 49
-12.7
 74
    0
  0
LTYPE
  5
46
330
5
100
AcDbSymbolTableRecord
100
AcDbLinetypeTableRecord
  2
CENTER
 70
    0
  3
Center ____ _ ____ _ ____ _ ____ _ ____ _ ____
 72
   65
 73
    4
 40
50.8
 49
31.75
 74
    0
 49
-6.35
 74
    0
 49
6.35
 74
    0
 49
-6.35
 74
    0
  0
LTYPE
  5
47
330
5
100
AcDbSymbolTableRecord
100
AcDbLinetypeTableRecord
  2
CENTERTINY
 70
    0
  3
Center (.15x) ___ _ ___ _ ___ _ ___ _ ___ _ ___
 72
   65
 73
    4
 40
7.619999999999999
 49
4.7625
 74
    0
 49
-0.9525
 74
    0
 49
0.9525
 74
    0
 49
-0.9525
 74
    0
  0
LTYPE
  5
48
330
5
100
AcDbSymbolTableRecord
100
AcDbLinetypeTableRecord
  2
CENTER2
 70
    0
  3
Center (.5x) ___ _ ___ _ ___ _ ___ _ ___ _ ___
 72
   65
 73
    4
 40
28.575
 49
19.05
 74
    0
 49
-3.175
 74
    0
 49
3.175
 74
    0
 49
-3.175
 74
    0
  0
LTYPE
  5
49
330
5
100
AcDbSymbolTableRecord
100
AcDbLinetypeTableRecord
  2
CENTERX2
 70
    0
  3
Center (2x) ________  __  ________  __  _____
 72
   65
 73
    4
 40
101.6
 49
63.5
 74
    0
 49
-12.7
 74
    0
 49
12.7
 74
    0
 49
-12.7
 74
    0
  0
ENDTAB
  0
TABLE
  2
LAYER
  5
2
330
0
100
AcDbSymbolTable
 70
    1
  0
LAYER
  5
10
330
2
100
AcDbSymbolTableRecord
100
AcDbLayerTableRecord
  2
0
 70
    0
 62
    7
  6
CONTINUOUS
370
   25
390
F
  0
ENDTAB
  0
TABLE
  2
STYLE
  5
3
330
0
100
AcDbSymbolTable
 70
    3
  0
STYLE
  5
4A
330
2
100
AcDbSymbolTableRecord
100
AcDbTextStyleTableRecord
  2
Standard
 70
    0
 40
0
 41
1
 50
0
 71
    0
 42
1
  3
txt
  4

  0
ENDTAB
  0
TABLE
  2
VIEW
  5
6
330
0
100
AcDbSymbolTable
 70
    0
  0
ENDTAB
  0
TABLE
  2
UCS
  5
7
330
0
100
AcDbSymbolTable
 70
    0
  0
ENDTAB
  0
TABLE
  2
APPID
  5
9
330
0
100
AcDbSymbolTable
 70
    1
  0
APPID
  5
12
330
9
100
AcDbSymbolTableRecord
100
AcDbRegAppTableRecord
  2
ACAD
 70
    0
  0
APPID
  5
4B
330
9
100
AcDbSymbolTableRecord
100
AcDbRegAppTableRecord
  2
LibreCad
 70
    0
  0
ENDTAB
  0
TABLE
  2
DIMSTYLE
  5
A
330
0
100
AcDbSymbolTable
 70
    1
100
AcDbDimStyleTable
 71
    1
  0
DIMSTYLE
105
4C
330
A
100
AcDbSymbolTableRecord
100
AcDbDimStyleTableRecord
  2
Standard
 70
    0
 40
1
 41
2.5
 42
0.625
 43
0.38
 44
1.25
 45
0
 46
0
 47
0
 48
0
 49
1
140
2.5
141
0.09
142
2.5
143
25.4
144
1
145
0
146
1
147
0.625
148
0
 71
    0
 72
    0
 73
    0
 74
    1
 75
    0
 76
    0
 77
    0
 78
    1
 79
    0
170
    0
171
    2
172
    0
173
    0
174
    0
175
    0
176
    0
177
    0
178
    0
179
    0
271
    2
272
    4
273
    2
274
    2
275
    0
276
    0
277
    2
278
    0
279
    0
280
    0
281
    0
282
    0
283
    1
284
    0
285
    0
286
    0
288
    0
289
    3
340
4A
  0
ENDTAB
  0
TABLE
  2
BLOCK_RECORD
  5
1
330
0
100
AcDbSymbolTable
 70
    2
  0
BLOCK_RECORD
  5
1F
330
1
100
AcDbSymbolTableRecord
100
AcDbBlockTableRecord
  2
*Model_Space
 70
    0
280
    1
281
    0
  0
BLOCK_RECORD
  5
1E
330
1
100
AcDbSymbolTableRecord
100
AcDbBlockTableRecord
  2
*Paper_Space
 70
    0
280
    1
281
    0
  0
ENDTAB
  0
ENDSEC
  0
SECTION
  2
BLOCKS
  0
BLOCK
  5
20
330
1F
100
AcDbEntity
  8
0
100
AcDbBlockBegin
  2
*Model_Space
 70
    0
 10
0
 20
0
 30
0
  3
*Model_Space
  1

  0
ENDBLK
  5
21
330
1F
100
AcDbEntity
  8
0
100
AcDbBlockEnd
  0
BLOCK
  5
1C
330
1B
100
AcDbEntity
  8
0
100
AcDbBlockBegin
  2
*Paper_Space
 70
    0
 10
0
 20
0
 30
0
  3
*Paper_Space
  1

  0
ENDBLK
  5
1D
330
1F
100
AcDbEntity
  8
0
100
AcDbBlockEnd
  0
ENDSEC
  0
SECTION
  2
ENTITIES
  0
LWPOLYLINE
  5
4D
100
AcDbEntity
  8
0
  6
ByLayer
 62
  256
370
   -1
100
AcDbPolyline
 90
  544
 70
    1
 43
0
 10
6.5896
 20
5.8982
 10
6.6277
 20
5.8524
 10
6.6049
 20
5.7254
 10
6.5605
 20
5.5847
 10
6.5339
 20
5.4982
 10
6.537
 20
5.4227
 10
6.5671
 20
5.3953
 10
6.6197
 20
5.4291
 10
6.6901
 20
5.5374
 10
6.7215
 20
5.622
 10
6.744
 20
5.7025
 10
6.7695
 20
5.749
 10
6.8099
 20
5.7318
 10
6.8436
 20
5.6343
 10
6.8353
 20
5.5019
 10
6.8019
 20
5.3684
 10
6.76
 20
5.2682
 10
6.7214
 20
5.2145
 10
6.681
 20
5.1644
 10
6.6578
 20
5.1155
 10
6.6706
 20
5.0654
 10
6.7304
 20
5.0567
 10
6.8068
 20
5.1204
 10
6.8776
 20
5.2077
 10
6.9208
 20
5.2698
 10
6.9667
 20
5.3571
 10
7.0295
 20
5.4751
 10
7.1011
 20
5.5672
 10
7.1734
 20
5.5769
 10
7.1972
 20
5.4924
 10
7.1619
 20
5.362
 10
7.1012
 20
5.2304
 10
7.0487
 20
5.1422
 10
7.0073
 20
5.093
 10
6.9472
 20
5.0257
 10
6.8944
 20
4.9633
 10
6.875
 20
4.9287
 10
6.9162
 20
4.9152
 10
6.9883
 20
4.9493
 10
7.0686
 20
5.0238
 10
7.1339
 20
5.1314
 10
7.1495
 20
5.1806
 10
7.1655
 20
5.2375
 10
7.1852
 20
5.2872
 10
7.2123
 20
5.3148
 10
7.2643
 20
5.272
 10
7.2606
 20
5.1423
 10
7.257
 20
5.0302
 10
7.3091
 20
5.0404
 10
7.3517
 20
5.0923
 10
7.3995
 20
5.145
 10
7.4395
 20
5.1588
 10
7.4588
 20
5.0945
 10
7.4612
 20
5.0345
 10
7.458
 20
4.9849
 10
7.4418
 20
4.9364
 10
7.405
 20
4.8798
 10
7.2578
 20
4.7148
 10
7.1055
 20
4.6063
 10
6.9257
 20
4.5468
 10
6.6962
 20
4.5289
 10
6.5242
 20
4.5345
 10
6.328
 20
4.5462
 10
6.1399
 20
4.5572
 10
5.992
 20
4.561
 10
5.9365
 20
4.5493
 10
5.9394
 20
4.5217
 10
5.9712
 20
4.4842
 10
6.0023
 20
4.4431
 10
6.0184
 20
4.3938
 10
6.0421
 20
4.3224
 10
6.0882
 20
4.2418
 10
6.1718
 20
4.1651
 10
6.2445
 20
4.119
 10
6.301
 20
4.0802
 10
6.3494
 20
4.0335
 10
6.3975
 20
3.9637
 10
6.438
 20
3.9117
 10
6.4866
 20
3.8611
 10
6.5287
 20
3.8091
 10
6.5494
 20
3.7527
 10
6.5655
 20
3.6417
 10
6.5829
 20
3.4995
 10
6.5777
 20
3.3638
 10
6.5259
 20
3.2723
 10
6.4896
 20
3.2523
 10
6.4453
 20
3.2357
 10
6.4004
 20
3.2271
 10
6.3629
 20
3.2312
 10
6.3272
 20
3.2448
 10
6.3125
 20
3.2449
 10
6.3012
 20
3.2309
 10
6.2754
 20
3.2017
 10
6.2183
 20
3.171
 10
6.1526
 20
3.174
 10
6.0869
 20
3.211
 10
6.0299
 20
3.2827
 10
5.9985
 20
3.3467
 10
5.9654
 20
3.4096
 10
5.9214
 20
3.4584
 10
5.8575
 20
3.4803
 10
5.796
 20
3.4817
 10
5.7278
 20
3.4757
 10
5.6675
 20
3.4556
 10
5.6301
 20
3.4149
 10
5.6055
 20
3.3452
 10
5.5927
 20
3.3117
 10
5.5785
 20
3.3135
 10
5.5495
 20
3.3498
 10
5.5148
 20
3.3613
 10
5.4948
 20
3.303
 10
5.4747
 20
3.2184
 10
5.44
 20
3.1509
 10
5.4015
 20
3.1365
 10
5.3778
 20
3.1669
 10
5.3613
 20
3.2153
 10
5.3444
 20
3.2548
 10
5.3157
 20
3.2581
 10
5.2937
 20
3.1736
 10
5.2336
 20
3.0474
 10
5.091
 20
2.9254
 10
5.0472
 20
2.9307
 10
5.0349
 20
2.996
 10
5.0332
 20
3.0903
 10
5.0211
 20
3.1826
 10
4.9878
 20
3.2049
 10
4.9353
 20
3.1713
 10
4.879
 20
3.1169
 10
4.8339
 20
3.077
 10
4.7473
 20
3.0401
 10
4.6739
 20
3.0218
 10
4.6217
 20
2.9953
 10
4.599
 20
2.9338
 10
4.5972
 20
2.8331
 10
4.5957
 20
2.7426
 10
4.5813
 20
2.6559
 10
4.5403
 20
2.5665
 10
4.4733
 20
2.4447
 10
4.4742
 20
2.3617
 10
4.5439
 20
2.2624
 10
4.6836
 20
2.0916
 10
4.8106
 20
1.915
 10
4.8537
 20
1.7971
 10
4.8384
 20
1.6709
 10
4.7904
 20
1.4696
 10
4.7622
 20
1.2192
 10
4.7701
 20
1.0084
 10
4.7786
 20
0.8319
 10
4.7522
 20
0.6846
 10
4.7154
 20
0.624
 10
4.6818
 20
0.6148
 10
4.6443
 20
0.6213
 10
4.5958
 20
0.6076
 10
4.5554
 20
0.5596
 10
4.5023
 20
0.4776
 10
4.4318
 20
0.387
 10
4.3398
 20
0.3134
 10
4.2975
 20
0.2997
 10
4.2774
 20
0.3153
 10
4.2712
 20
0.354
 10
4.2705
 20
0.4097
 10
4.2689
 20
0.6776
 10
4.2835
 20
0.8025
 10
4.3331
 20
0.8673999999999999
 10
4.4361
 20
0.9555
 10
4.4912
 20
1.0202
 10
4.5173
 20
1.0855
 10
4.5245
 20
1.1637
 10
4.5232
 20
1.2672
 10
4.5208
 20
1.3524
 10
4.5165
 20
1.4445
 10
4.5103
 20
1.5331
 10
4.5025
 20
1.6076
 10
4.4923
 20
1.6606
 10
4.4774
 20
1.6977
 10
4.4545
 20
1.7274
 10
4.4205
 20
1.7586
 10
4.3736
 20
1.7978
 10
4.3171
 20
1.8442
 10
4.2558
 20
1.8947
 10
4.1941
 20
1.9464
 10
3.9892
 20
2.1207
 10
3.9153
 20
2.1465
 10
3.8997
 20
2.0302
 10
3.8695
 20
1.7783
 10
3.8386
 20
1.6643
 10
3.815
 20
1.6148
 10
3.7995
 20
1.5411
 10
3.7927
 20
1.3543
 10
3.79
 20
1.1881
 10
3.7873
 20
0.9897
 10
3.7891
 20
0.7949000000000001
 10
3.8001
 20
0.6393
 10
3.8165
 20
0.5637
 10
3.8386
 20
0.509
 10
3.8638
 20
0.4595
 10
3.8896
 20
0.3996
 10
3.9099
 20
0.3211
 10
3.9148
 20
0.2869
 10
3.9429
 20
0.258
 10
4.0325
 20
0.1952
 10
4.0731
 20
0.1644
 10
4.1158
 20
0.1254
 10
4.1512
 20
0.0824
 10
4.1701
 20
0.0394
 10
4.1323
 20
0.0119
 10
4.0366
 20
0.0011
 10
3.9301
 20
0
 10
3.8597
 20
0.0015
 10
3.7388
 20
0.0118
 10
3.6868
 20
0.0407
 10
3.6589
 20
0.09180000000000001
 10
3.61
 20
0.1687
 10
3.5774
 20
0.2007
 10
3.551
 20
0.2237
 10
3.5362
 20
0.2524
 10
3.5384
 20
0.3015
 10
3.5568
 20
0.3811
 10
3.5734
 20
0.453
 10
3.5807
 20
0.5275
 10
3.5714
 20
0.6147
 10
3.5177
 20
0.888
 10
3.4797
 20
1.1269
 10
3.4551
 20
1.3691
 10
3.4415
 20
1.6526
 10
3.4307
 20
1.811
 10
3.4129
 20
1.8796
 10
3.3921
 20
1.9179
 10
3.3723
 20
1.9856
 10
3.357
 20
2.0842
 10
3.3401
 20
2.1459
 10
3.3026
 20
2.1703
 10
3.2255
 20
2.157
 10
3.0276
 20
2.1173
 10
2.8135
 20
2.1136
 10
2.6016
 20
2.147
 10
2.4104
 20
2.2186
 10
2.3198
 20
2.2666
 10
2.232
 20
2.2995
 10
2.1504
 20
2.2929
 10
2.0784
 20
2.2221
 10
2.0554
 20
2.1686
 10
2.0047
 20
2.0509
 10
1.9541
 20
1.9332
 10
1.931
 20
1.8797
 10
1.8931
 20
1.7568
 10
1.8952
 20
1.6531
 10
1.92
 20
1.5411
 10
1.9504
 20
1.3935
 10
1.9752
 20
1.1997
 10
2.0042
 20
0.9972
 10
2.0568
 20
0.8006
 10
2.1526
 20
0.6241
 10
2.1736
 20
0.5973000000000001
 10
2.1955
 20
0.5694
 10
2.2167
 20
0.5417
 10
2.2355
 20
0.5153
 10
2.2714
 20
0.4613
 10
2.2974
 20
0.4274
 10
2.3292
 20
0.3973
 10
2.3829
 20
0.3546
 10
2.4316
 20
0.3151
 10
2.4861
 20
0.2646
 10
2.5319
 20
0.2096
 10
2.5546
 20
0.1564
 10
2.5137
 20
0.1187
 10
2.4117
 20
0.1
 10
2.2981
 20
0.0935
 10
2.2222
 20
0.0922
 10
2.1123
 20
0.1025
 10
2.0703
 20
0.1398
 10
2.0565
 20
0.2038
 10
2.0311
 20
0.294
 10
1.9988
 20
0.3188
 10
1.9545
 20
0.3168
 10
1.9125
 20
0.3236
 10
1.887
 20
0.3747
 10
1.8845
 20
0.4049
 10
1.8834
 20
0.4434
 10
1.8812
 20
0.491
 10
1.8756
 20
0.549
 10
1.8533
 20
0.6832
 10
1.8187
 20
0.8298
 10
1.7741
 20
0.9733000000000001
 10
1.7218
 20
1.0984
 10
1.6593
 20
1.2067
 10
1.5811
 20
1.3196
 10
1.4962
 20
1.4268
 10
1.4134
 20
1.5179
 10
1.3649
 20
1.559
 10
1.3179
 20
1.5966
 10
1.288
 20
1.6346
 10
1.2912
 20
1.6773
 10
1.327
 20
1.7318
 10
1.3602
 20
1.7748
 10
1.3884
 20
1.8268
 10
1.4091
 20
1.9085
 10
1.4173
 20
1.9805
 10
1.4239
 20
2.0837
 10
1.4234
 20
2.1833
 10
1.4101
 20
2.2448
 10
1.3644
 20
2.207
 10
1.2835
 20
2.0713
 10
1.1818
 20
1.9039
 10
1.0739
 20
1.7709
 10
0.8819
 20
1.6306
 10
0.6928
 20
1.5094
 10
0.5268
 20
1.3625
 10
0.4043
 20
1.145
 10
0.3543
 20
0.9704
 10
0.3107
 20
0.7383999999999999
 10
0.301
 20
0.5108
 10
0.3528
 20
0.3497
 10
0.3757
 20
0.3249
 10
0.4022
 20
0.2979
 10
0.4291
 20
0.2705
 10
0.4529
 20
0.2441
 10
0.4713
 20
0.22
 10
0.486
 20
0.1976
 10
0.4999
 20
0.176
 10
0.5157
 20
0.1541
 10
0.5744
 20
0.0897
 10
0.6122
 20
0.0434
 10
0.5974
 20
0.0146
 10
0.4982
 20
0.0025
 10
0.2681
 20
0.0043
 10
0.163
 20
0.0334
 10
0.1294
 20
0.1008
 10
0.1137
 20
0.2176
 10
0.08069999999999999
 20
0.2724
 10
0.0341
 20
0.2694
 10
0
 20
0.2648
 10
0.0046
 20
0.3148
 10
0.0175
 20
0.4868
 10
0.029
 20
0.6981000000000001
 10
0.0361
 20
0.9485
 10
0.0358
 20
1.2381
 10
0.0393
 20
1.3426
 10
0.0556
 20
1.4348
 10
0.0878
 20
1.5219
 10
0.1388
 20
1.6112
 10
0.2399
 20
1.7482
 10
0.3315
 20
1.8863
 10
0.4103
 20
2.0268
 10
0.473
 20
2.171
 10
0.5755
 20
2.5217
 10
0.6077
 20
2.8133
 10
0.5731000000000001
 20
3.0448
 10
0.475
 20
3.2148
 10
0.3797
 20
3.1352
 10
0.3198
 20
3.0967
 10
0.2956
 20
3.0993
 10
0.3069
 20
3.1428
 10
0.3201
 20
3.1877
 10
0.3294
 20
3.2371
 10
0.3347
 20
3.2912
 10
0.3361
 20
3.3499
 10
0.3624
 20
3.4436
 10
0.403
 20
3.5159
 10
0.4562
 20
3.5703
 10
0.5207000000000001
 20
3.6103
 10
0.5836
 20
3.6559
 10
0.6329
 20
3.7192
 10
0.6747
 20
3.7951
 10
0.715
 20
3.8785
 10
0.7502
 20
3.9293
 10
0.7931
 20
3.9602
 10
0.8397
 20
3.9736
 10
0.8861
 20
3.9718
 10
0.9382
 20
3.969
 10
0.9913
 20
3.981
 10
1.0451
 20
4.0079
 10
1.0999
 20
4.0495
 10
1.192
 20
4.104
 10
1.2898
 20
4.1373
 10
1.3932
 20
4.1496
 10
1.5022
 20
4.1409
 10
1.7534
 20
4.1032
 10
1.9528
 20
4.0889
 10
2.1019
 20
4.0952
 10
2.2019
 20
4.1195
 10
2.3226
 20
4.1645
 10
2.4468
 20
4.2008
 10
2.5729
 20
4.233
 10
2.6995
 20
4.2653
 10
2.7416
 20
4.2868
 10
2.7689
 20
4.3224
 10
2.7862
 20
4.3704
 10
2.7986
 20
4.4285
 10
2.827
 20
4.4898
 10
2.8831
 20
4.5314
 10
2.9625
 20
4.5547
 10
3.061
 20
4.5607
 10
3.2176
 20
4.5787
 10
3.3377
 20
4.6224
 10
3.419
 20
4.6924
 10
3.4594
 20
4.7891
 10
3.4722
 20
4.8244
 10
3.4973
 20
4.8462
 10
3.537
 20
4.8544
 10
3.5935
 20
4.8493
 10
3.6382
 20
4.8448
 10
3.68
 20
4.8476
 10
3.7188
 20
4.8571
 10
3.7549
 20
4.8727
 10
3.8
 20
4.8911
 10
3.8465
 20
4.8993
 10
3.8942
 20
4.898
 10
3.9434
 20
4.8882
 10
3.9814
 20
4.8811
 10
4.0202
 20
4.8797
 10
4.0597
 20
4.8834
 10
4.0998
 20
4.8911
 10
4.158
 20
4.8974
 10
4.21
 20
4.891
 10
4.2585
 20
4.8773
 10
4.3059
 20
4.862
 10
4.4492
 20
4.8297
 10
4.5185
 20
4.8341
 10
4.5109
 20
4.8663
 10
4.4235
 20
4.9173
 10
4.0255
 20
5.1298
 10
3.7605
 20
5.3536
 10
3.6296
 20
5.5921
 10
3.6343
 20
5.8483
 10
3.6535
 20
5.8913
 10
3.6784
 20
5.9036
 10
3.7074
 20
5.8843
 10
3.7393
 20
5.8328
 10
3.8216
 20
5.678
 10
3.871
 20
5.6271
 10
3.8905
 20
5.681
 10
3.8831
 20
5.8406
 10
3.8959
 20
5.9351
 10
3.9407
 20
5.9623
 10
3.9918
 20
5.9229
 10
4.023
 20
5.8173
 10
4.0679
 20
5.6041
 10
4.1355
 20
5.469
 10
4.194
 20
5.4249
 10
4.2116
 20
5.4849
 10
4.1983
 20
5.6449
 10
4.2037
 20
5.7628
 10
4.233
 20
5.8375
 10
4.2913
 20
5.8678
 10
4.3167
 20
5.8638
 10
4.3342
 20
5.8469
 10
4.3443
 20
5.819
 10
4.3476
 20
5.7823
 10
4.3578
 20
5.5084
 10
4.3837
 20
5.3421
 10
4.4231
 20
5.284
 10
4.474
 20
5.3352
 10
4.5491
 20
5.4711
 10
4.5845
 20
5.4868
 10
4.605
 20
5.3825
 10
4.6354
 20
5.1583
 10
4.6702
 20
5.0758
 10
4.7241
 20
5.0471
 10
4.7724
 20
5.0618
 10
4.7908
 20
5.1098
 10
4.7855
 20
5.2698
 10
4.7987
 20
5.3946
 10
4.8338
 20
5.4835
 10
4.8938
 20
5.5354
 10
4.9253
 20
5.5406
 10
4.9452
 20
5.5239
 10
4.9519
 20
5.4868
 10
4.9443
 20
5.4305
 10
4.9014
 20
5.209
 10
4.8897
 20
5.0474
 10
4.9067
 20
4.9394
 10
4.9502
 20
4.8784
 10
5.1455
 20
4.7831
 10
5.2751
 20
4.7761
 10
5.2938
 20
4.8241
 10
5.1562
 20
4.894
 10
5.0655
 20
4.9393
 10
5.0019
 20
5.0126
 10
4.965
 20
5.1151
 10
4.9541
 20
5.2478
 10
4.9593
 20
5.282
 10
4.9746
 20
5.3008
 10
5.001
 20
5.3047
 10
5.0396
 20
5.2944
 10
5.2419
 20
5.1966
 10
5.3954
 20
5.0764
 10
5.5011
 20
4.9336
 10
5.5605
 20
4.7677
 10
5.5897
 20
4.6967
 10
5.628
 20
4.6782
 10
5.6594
 20
4.7243
 10
5.6674
 20
4.8474
 10
5.6416
 20
5.0269
 10
5.5852
 20
5.1953
 10
5.4995
 20
5.354
 10
5.3856
 20
5.5043
 10
5.3291
 20
5.6022
 10
5.3294
 20
5.6776
 10
5.3817
 20
5.7018
 10
5.4808
 20
5.6462
 10
5.5116
 20
5.6317
 10
5.5307
 20
5.6454
 10
5.5283
 20
5.6868
 10
5.4944
 20
5.7551
 10
5.4229
 20
5.9213
 10
5.4346
 20
6.027
 10
5.4898
 20
6.0662
 10
5.5488
 20
6.033
 10
5.5702
 20
5.97
 10
5.5895
 20
5.904
 10
5.6064
 20
5.8385
 10
5.6208
 20
5.7771
 10
5.6452
 20
5.7194
 10
5.6807
 20
5.6816
 10
5.7125
 20
5.6786
 10
5.726
 20
5.7253
 10
5.7162
 20
5.8154
 10
5.7045
 20
5.9161
 10
5.7156
 20
6.0083
 10
5.7746
 20
6.0732
 10
5.8393
 20
6.0473
 10
5.896
 20
5.9601
 10
5.946
 20
5.8996
 10
5.991
 20
5.9536
 10
6.0215
 20
6.0102
 10
6.0658
 20
6.0504
 10
6.1092
 20
6.0646
 10
6.1371
 20
6.0434
 10
6.1438
 20
5.9483
 10
6.1445
 20
5.8137
 10
6.1631
 20
5.7184
 10
6.2232
 20
5.7412
 10
6.2542
 20
5.7829
 10
6.3019
 20
5.84
 10
6.3468
 20
5.8691
 10
6.3694
 20
5.8267
 10
6.3696
 20
5.7709
 10
6.373
 20
5.7062
 10
6.3896
 20
5.6758
 10
6.4293
 20
5.7233
 10
6.4579
 20
5.7736
 10
6.4948
 20
5.8274
 10
6.539
 20
5.8728
  0
LWPOLYLINE
  5
4E
100
AcDbEntity
  8
0
  6
ByLayer
 62
  256
370
   -1
100
AcDbPolyline
 90
   32
 70
    1
 43
0
 10
0.08690000000000001
 20
0.0595
 10
0.0843
 20
0.0502
 10
0.0786
 20
0.0297
 10
0.07290000000000001
 20
0.009299999999999999
 10
0.0703
 20
0
 10
0.0678
 20
0.009299999999999999
 10
0.0621
 20
0.0297
 10
0.0564
 20
0.0502
 10
0.0538
 20
0.0595
 10
0.0454
 20
0.0623
 10
0.0269
 20
0.06859999999999999
 10
0.008399999999999999
 20
0.07489999999999999
 10
0
 20
0.07770000000000001
 10
0.008399999999999999
 20
0.0806
 10
0.0269
 20
0.08690000000000001
 10
0.0454
 20
0.09320000000000001
 10
0.0538
 20
0.096
 10
0.0564
 20
0.1053
 10
0.0621
 20
0.1258
 10
0.0678
 20
0.1462
 10
0.0703
 20
0.1555
 10
0.07290000000000001
 20
0.1462
 10
0.0786
 20
0.1258
 10
0.0843
 20
0.1053
 10
0.08690000000000001
 20
0.096
 10
0.0953
 20
0.09320000000000001
 10
0.1139
 20
0.08690000000000001
 10
0.1324
 20
0.0806
 10
0.1408
 20
0.07770000000000001
 10
0.1324
 20
0.07489999999999999
 10
0.1139
 20
0.06859999999999999
 10
0.0953
 20
0.0623
  0
LWPOLYLINE
  5
4F
100
AcDbEntity
  8
0
  6
ByLayer
 62
  256
370
   -1
100
AcDbPolyline
 90
  296
 70
    1
 43
0
 10
2.0855
 20
0.7988
 10
2.1164
 20
0.7703
 10
2.148
 20
0.7419
 10
2.1788
 20
0.7128
 10
2.2075
 20
0.6824
 10
2.2183
 20
0.6693
 10
2.2284
 20
0.6558
 10
2.2379
 20
0.6418
 10
2.2468
 20
0.6274
 10
2.2534
 20
0.616
 10
2.2599
 20
0.6045
 10
2.2664
 20
0.5931
 10
2.2731
 20
0.5819
 10
2.2827
 20
0.5673
 10
2.2927
 20
0.5576
 10
2.305
 20
0.5546
 10
2.3218
 20
0.5598
 10
2.358
 20
0.5846
 10
2.3975
 20
0.6202
 10
2.4352
 20
0.659
 10
2.4662
 20
0.6928
 10
2.4811
 20
0.7097
 10
2.496
 20
0.7266
 10
2.511
 20
0.7433999999999999
 10
2.5263
 20
0.7599
 10
2.538
 20
0.7719
 10
2.5507
 20
0.7837
 10
2.5643
 20
0.7943
 10
2.5786
 20
0.8028999999999999
 10
2.6135
 20
0.8112
 10
2.6457
 20
0.8034
 10
2.6751
 20
0.785
 10
2.7018
 20
0.7614
 10
2.741
 20
0.7215
 10
2.7792
 20
0.6806
 10
2.8181
 20
0.6403
 10
2.8594
 20
0.6025
 10
2.8782
 20
0.5876
 10
2.8974
 20
0.5738
 10
2.9173
 20
0.5608
 10
2.9377
 20
0.5484
 10
2.9559
 20
0.5379
 10
2.9742
 20
0.5273
 10
2.9923
 20
0.5165
 10
3.01
 20
0.5051
 10
3.0254
 20
0.4941
 10
3.0403
 20
0.4825
 10
3.0549
 20
0.4707
 10
3.0696
 20
0.4587
 10
3.0809
 20
0.4496
 10
3.0928
 20
0.4406
 10
3.1052
 20
0.4324
 10
3.118
 20
0.4255
 10
3.143
 20
0.4169
 10
3.1688
 20
0.4122
 10
3.1948
 20
0.4087
 10
3.2206
 20
0.4035
 10
3.2465
 20
0.3935
 10
3.2685
 20
0.3791
 10
3.2878
 20
0.361
 10
3.3059
 20
0.3401
 10
3.3253
 20
0.3152
 10
3.3446
 20
0.2899
 10
3.3645
 20
0.2651
 10
3.3857
 20
0.2419
 10
3.4065
 20
0.2231
 10
3.428
 20
0.2057
 10
3.4495
 20
0.1878
 10
3.47
 20
0.168
 10
3.4941
 20
0.1388
 10
3.5167
 20
0.1068
 10
3.5379
 20
0.0738
 10
3.5578
 20
0.0414
 10
3.561
 20
0.0327
 10
3.5606
 20
0.0238
 10
3.5569
 20
0.0157
 10
3.5502
 20
0.0094
 10
3.5415
 20
0.0062
 10
3.5327
 20
0.0066
 10
3.5245
 20
0.0102
 10
3.5183
 20
0.017
 10
3.4996
 20
0.0474
 10
3.4796
 20
0.0788
 10
3.4584
 20
0.1092
 10
3.4358
 20
0.1366
 10
3.416
 20
0.1557
 10
3.3948
 20
0.1732
 10
3.3734
 20
0.1905
 10
3.3529
 20
0.2091
 10
3.3308
 20
0.2332
 10
3.3101
 20
0.2588
 10
3.2901
 20
0.285
 10
3.2699
 20
0.3108
 10
3.2569
 20
0.3262
 10
3.2429
 20
0.3399
 10
3.2271
 20
0.3511
 10
3.2085
 20
0.3586
 10
3.1967
 20
0.3613
 10
3.1846
 20
0.3632
 10
3.1723
 20
0.3649
 10
3.1603
 20
0.3665
 10
3.1444
 20
0.3692
 10
3.1287
 20
0.3727
 10
3.1133
 20
0.3774
 10
3.0983
 20
0.3835
 10
3.0685
 20
0.4009
 10
3.0399
 20
0.4226
 10
3.012
 20
0.4455
 10
2.9838
 20
0.4667
 10
2.9668
 20
0.4776
 10
2.9493
 20
0.4881
 10
2.9316
 20
0.4983
 10
2.914
 20
0.5085
 10
2.892
 20
0.5219
 10
2.8707
 20
0.5359
 10
2.8499
 20
0.5508
 10
2.8297
 20
0.5668
 10
2.7876
 20
0.6052999999999999
 10
2.7481
 20
0.646
 10
2.7094
 20
0.6875
 10
2.6696
 20
0.7279
 10
2.6579
 20
0.7389
 10
2.6426
 20
0.7513
 10
2.626
 20
0.7613
 10
2.6105
 20
0.7648
 10
2.6076
 20
0.7644
 10
2.6048
 20
0.7635999999999999
 10
2.6021
 20
0.7625999999999999
 10
2.5994
 20
0.7614
 10
2.5889
 20
0.7548
 10
2.5785
 20
0.7463
 10
2.5687
 20
0.7369
 10
2.56
 20
0.728
 10
2.545
 20
0.7117
 10
2.5301
 20
0.6951000000000001
 10
2.5154
 20
0.6784
 10
2.5006
 20
0.6618000000000001
 10
2.4664
 20
0.6244
 10
2.426
 20
0.5832000000000001
 10
2.3834
 20
0.5455
 10
2.3428
 20
0.5184
 10
2.3083
 20
0.5078
 10
2.2792
 20
0.5124
 10
2.2546
 20
0.5298
 10
2.2335
 20
0.5576
 10
2.219
 20
0.5822000000000001
 10
2.2052
 20
0.6059
 10
2.1903
 20
0.6291
 10
2.1725
 20
0.652
 10
2.1446
 20
0.6815
 10
2.1144
 20
0.7098
 10
2.0834
 20
0.7376
 10
2.0534
 20
0.7654
 10
2.0234
 20
0.7956
 10
1.9954
 20
0.8268
 10
1.9689
 20
0.8595
 10
1.9436
 20
0.8938
 10
1.9239
 20
0.9232
 10
1.9003
 20
0.9578
 10
1.8752
 20
0.9903999999999999
 10
1.8509
 20
1.0139
 10
1.8472
 20
1.0164
 10
1.8432
 20
1.0185
 10
1.8391
 20
1.0201
 10
1.8348
 20
1.0211
 10
1.8163
 20
1.0179
 10
1.7965
 20
1.0065
 10
1.7783
 20
0.9919
 10
1.7643
 20
0.979
 10
1.7412
 20
0.9557
 10
1.7187
 20
0.9313
 10
1.6967
 20
0.9065
 10
1.6752
 20
0.8816000000000001
 10
1.6542
 20
0.8569
 10
1.6333
 20
0.8322000000000001
 10
1.6124
 20
0.8075
 10
1.5912
 20
0.783
 10
1.5626
 20
0.7511
 10
1.5341
 20
0.7237
 10
1.5024
 20
0.7005
 10
1.464
 20
0.6813
 10
1.4436
 20
0.6734
 10
1.4231
 20
0.666
 10
1.4025
 20
0.6586
 10
1.382
 20
0.6509
 10
1.3574
 20
0.6404
 10
1.3335
 20
0.6288
 10
1.3104
 20
0.6158
 10
1.288
 20
0.6011
 10
1.238
 20
0.5612
 10
1.1912
 20
0.517
 10
1.1456
 20
0.4714
 10
1.0991
 20
0.4274
 10
1.06
 20
0.3966
 10
1.0204
 20
0.3764
 10
0.9775
 20
0.369
 10
0.9283
 20
0.3766
 10
0.8804
 20
0.3948
 10
0.8342000000000001
 20
0.4179
 10
0.7886
 20
0.4422
 10
0.7423
 20
0.464
 10
0.7329
 20
0.4676
 10
0.723
 20
0.4707
 10
0.713
 20
0.4726
 10
0.7029
 20
0.473
 10
0.6844
 20
0.4684
 10
0.665
 20
0.4588
 10
0.6465
 20
0.447
 10
0.6308
 20
0.4359
 10
0.5721000000000001
 20
0.3928
 10
0.514
 20
0.3488
 10
0.4554
 20
0.3053
 10
0.3955
 20
0.2637
 10
0.3577
 20
0.2402
 10
0.3195
 20
0.2183
 10
0.2811
 20
0.1969
 10
0.2427
 20
0.1749
 10
0.2337
 20
0.1694
 10
0.2248
 20
0.1639
 10
0.216
 20
0.1582
 10
0.2073
 20
0.1524
 10
0.1631
 20
0.1193
 10
0.1204
 20
0.0828
 10
0.07920000000000001
 20
0.0446
 10
0.0393
 20
0.0064
 10
0.0315
 20
0.0015
 10
0.0227
 20
0
 10
0.014
 20
0.0019
 10
0.0065
 20
0.0071
 10
0.0015
 20
0.0149
 10
0
 20
0.0237
 10
0.0019
 20
0.0324
 10
0.0072
 20
0.04
 10
0.0485
 20
0.0795
 10
0.0911
 20
0.1189
 10
0.1352
 20
0.1565
 10
0.181
 20
0.1907
 10
0.1903
 20
0.197
 10
0.1998
 20
0.2031
 10
0.2094
 20
0.209
 10
0.2191
 20
0.2148
 10
0.257
 20
0.2365
 10
0.2949
 20
0.2577
 10
0.3327
 20
0.2793
 10
0.37
 20
0.3025
 10
0.4295
 20
0.3438
 10
0.4877
 20
0.387
 10
0.5455
 20
0.4308
 10
0.6038
 20
0.4737
 10
0.6423
 20
0.4994
 10
0.6778
 20
0.5154
 10
0.7154
 20
0.5188
 10
0.76
 20
0.507
 10
0.805
 20
0.4857
 10
0.8501
 20
0.4616
 10
0.8955
 20
0.4387
 10
0.9415
 20
0.4211
 10
0.9786
 20
0.4156
 10
1.0101
 20
0.4221
 10
1.039
 20
0.4383
 10
1.0682
 20
0.4622
 10
1.1158
 20
0.5071
 10
1.1622
 20
0.5533
 10
1.2099
 20
0.5982
 10
1.2613
 20
0.6391
 10
1.286
 20
0.6552
 10
1.3114
 20
0.6696
 10
1.3377
 20
0.6824
 10
1.3648
 20
0.694
 10
1.3852
 20
0.7017
 10
1.4057
 20
0.709
 10
1.4262
 20
0.7164
 10
1.4465
 20
0.7242
 10
1.4796
 20
0.7411
 10
1.5069
 20
0.7616000000000001
 10
1.5315
 20
0.7857
 10
1.5562
 20
0.8135
 10
1.5773
 20
0.838
 10
1.5982
 20
0.8626
 10
1.619
 20
0.8872
 10
1.6399
 20
0.9118000000000001
 10
1.6621
 20
0.9376
 10
1.6849
 20
0.9633
 10
1.7082
 20
0.9883999999999999
 10
1.7322
 20
1.0124
 10
1.7644
 20
1.0405
 10
1.7998
 20
1.0613
 10
1.8378
 20
1.0675
 10
1.8778
 20
1.0517
 10
1.9065
 20
1.0252
 10
1.9339
 20
0.9906
 10
1.9592
 20
0.9537
 10
1.9817
 20
0.9204
 10
2.0056
 20
0.8879
 10
2.0306
 20
0.857
 10
2.0572
 20
0.8274
  0
LWPOLYLINE
  5
50
100
AcDbEntity
  8
0
  6
ByLayer
 62
  256
370
   -1
100
AcDbPolyline
 90
 1436
 70
    1
 43
0
 10
1.8818
 20
1.3202
 10
1.9675
 20
1.3644
 10
2.0269
 20
1.3073
 10
2.0886
 20
1.1991
 10
2.1812
 20
1.0902
 10
2.3338
 20
0.9536
 10
2.3624
 20
0.8915
 10
2.3152
 20
0.8797
 10
2.2405
 20
0.8942
 10
2.1985
 20
0.9067
 10
2.1706
 20
0.9111
 10
2.1441
 20
0.9003
 10
2.1065
 20
0.8673
 10
2.0722
 20
0.8318
 10
2.0373
 20
0.7949000000000001
 10
2.0028
 20
0.7623
 10
1.9696
 20
0.7397
 10
1.8715
 20
0.6676
 10
1.8056
 20
0.5849
 10
1.7976
 20
0.5394
 10
1.8734
 20
0.5790999999999999
 10
1.9341
 20
0.6241
 10
1.9714
 20
0.6494
 10
2.0084
 20
0.6768999999999999
 10
2.0678
 20
0.7285
 10
2.1919
 20
0.7769
 10
2.2999
 20
0.7191
 10
2.3879
 20
0.6111
 10
2.4521
 20
0.5087
 10
2.4785
 20
0.4736
 10
2.4919
 20
0.4686
 10
2.4921
 20
0.4877
 10
2.479
 20
0.525
 10
2.4436
 20
0.6089
 10
2.4216
 20
0.7165
 10
2.448
 20
0.8384
 10
2.5576
 20
0.9651999999999999
 10
2.6557
 20
1.0648
 10
2.7085
 20
1.1236
 10
2.7693
 20
1.1041
 10
2.8915
 20
0.9688
 10
2.983
 20
0.9116
 10
3.0631
 20
0.9053
 10
3.1251
 20
0.8541
 10
3.1626
 20
0.662
 10
3.1805
 20
0.5424
 10
3.2022
 20
0.5389
 10
3.225
 20
0.609
 10
3.2459
 20
0.71
 10
3.2719
 20
0.7631
 10
3.3067
 20
0.7345
 10
3.3468
 20
0.6696
 10
3.3888
 20
0.6137
 10
3.5078
 20
0.489
 10
3.5387
 20
0.4272
 10
3.5732
 20
0.3905
 10
3.703
 20
0.341
 10
3.7411
 20
0.3249
 10
3.7546
 20
0.2986
 10
3.7505
 20
0.2423
 10
3.7361
 20
0.1362
 10
3.7342
 20
0.1232
 10
3.7321
 20
0.1117
 10
3.7297
 20
0.1016
 10
3.7272
 20
0.09279999999999999
 10
3.7212
 20
0.077
 10
3.7141
 20
0.0616
 10
3.705
 20
0.0471
 10
3.6926
 20
0.0341
 10
3.6816
 20
0.0261
 10
3.669
 20
0.0192
 10
3.6551
 20
0.0132
 10
3.6402
 20
0.0083
 10
3.6363
 20
0.014
 10
3.6332
 20
0.0206
 10
3.6308
 20
0.0279
 10
3.6292
 20
0.0361
 10
3.6421
 20
0.0366
 10
3.652
 20
0.0413
 10
3.659
 20
0.0502
 10
3.6631
 20
0.0633
 10
3.6461
 20
0.0791
 10
3.6338
 20
0.0955
 10
3.6263
 20
0.1123
 10
3.6236
 20
0.1296
 10
3.6327
 20
0.1311
 10
3.6396
 20
0.1384
 10
3.6442
 20
0.1515
 10
3.6465
 20
0.1706
 10
3.635
 20
0.1769
 10
3.6264
 20
0.1856
 10
3.6209
 20
0.1968
 10
3.6184
 20
0.2103
 10
3.6223
 20
0.2114
 10
3.6255
 20
0.2139
 10
3.628
 20
0.2178
 10
3.6299
 20
0.2231
 10
3.6239
 20
0.2482
 10
3.618
 20
0.2699
 10
3.612
 20
0.2881
 10
3.6062
 20
0.3028
 10
3.6003
 20
0.2881
 10
3.5944
 20
0.2699
 10
3.5884
 20
0.2482
 10
3.5824
 20
0.2231
 10
3.5843
 20
0.2178
 10
3.5868
 20
0.2139
 10
3.5901
 20
0.2114
 10
3.594
 20
0.2103
 10
3.5915
 20
0.1968
 10
3.5859
 20
0.1856
 10
3.5774
 20
0.1769
 10
3.5658
 20
0.1706
 10
3.5681
 20
0.1515
 10
3.5727
 20
0.1384
 10
3.5797
 20
0.1311
 10
3.5888
 20
0.1296
 10
3.5861
 20
0.1123
 10
3.5786
 20
0.0955
 10
3.5663
 20
0.0791
 10
3.5492
 20
0.0633
 10
3.5533
 20
0.0502
 10
3.5603
 20
0.0413
 10
3.5702
 20
0.0366
 10
3.5831
 20
0.0361
 10
3.5806
 20
0.0245
 10
3.5764
 20
0.0146
 10
3.5706
 20
0.0065
 10
3.563
 20
0
 10
3.5535
 20
0.0004
 10
3.5441
 20
0.0009
 10
3.5346
 20
0.0015
 10
3.5251
 20
0.0022
 10
3.5129
 20
0.0024
 10
3.4984
 20
0.0028
 10
3.4815
 20
0.0034
 10
3.4618
 20
0.004
 10
3.4603
 20
0.008200000000000001
 10
3.459
 20
0.0125
 10
3.458
 20
0.0171
 10
3.4572
 20
0.0219
 10
3.4717
 20
0.0225
 10
3.4829
 20
0.0278
 10
3.4907
 20
0.0378
 10
3.4953
 20
0.0525
 10
3.4761
 20
0.0703
 10
3.4623
 20
0.0887
 10
3.4538
 20
0.1077
 10
3.4508
 20
0.1272
 10
3.4611
 20
0.1288
 10
3.4689
 20
0.1371
 10
3.4741
 20
0.1519
 10
3.4767
 20
0.1733
 10
3.4637
 20
0.1805
 10
3.4541
 20
0.1903
 10
3.4478
 20
0.2028
 10
3.4449
 20
0.218
 10
3.4494
 20
0.2192
 10
3.453
 20
0.222
 10
3.4559
 20
0.2265
 10
3.4579
 20
0.2325
 10
3.4512
 20
0.2607
 10
3.4445
 20
0.2851
 10
3.4378
 20
0.3056
 10
3.4312
 20
0.3222
 10
3.4246
 20
0.3056
 10
3.4179
 20
0.2851
 10
3.4113
 20
0.2607
 10
3.4046
 20
0.2325
 10
3.4066
 20
0.2265
 10
3.4095
 20
0.222
 10
3.4131
 20
0.2192
 10
3.4175
 20
0.218
 10
3.4146
 20
0.2028
 10
3.4084
 20
0.1903
 10
3.3988
 20
0.1805
 10
3.3857
 20
0.1733
 10
3.3884
 20
0.1519
 10
3.3936
 20
0.1371
 10
3.4014
 20
0.1288
 10
3.4117
 20
0.1272
 10
3.4086
 20
0.1077
 10
3.4002
 20
0.0887
 10
3.3863
 20
0.0703
 10
3.3672
 20
0.0525
 10
3.3682
 20
0.0473
 10
3.3696
 20
0.0426
 10
3.3714
 20
0.0384
 10
3.3735
 20
0.0347
 10
3.3504
 20
0.0419
 10
3.3322
 20
0.0545
 10
3.3194
 20
0.0727
 10
3.3125
 20
0.0969
 10
3.3316
 20
0.09760000000000001
 10
3.3464
 20
0.1045
 10
3.3567
 20
0.1177
 10
3.3627
 20
0.137
 10
3.3375
 20
0.1605
 10
3.3193
 20
0.1847
 10
3.3082
 20
0.2096
 10
3.3041
 20
0.2353
 10
3.3177
 20
0.2374
 10
3.3279
 20
0.2482
 10
3.3348
 20
0.2678
 10
3.3383
 20
0.296
 10
3.3211
 20
0.3053
 10
3.3084
 20
0.3182
 10
3.3002
 20
0.3347
 10
3.2965
 20
0.3547
 10
3.3023
 20
0.3563
 10
3.3071
 20
0.36
 10
3.3108
 20
0.3658
 10
3.3135
 20
0.3738
 10
3.3047
 20
0.4109
 10
3.2959
 20
0.4429
 10
3.2871
 20
0.4698
 10
3.2784
 20
0.4916
 10
3.2697
 20
0.4698
 10
3.261
 20
0.4429
 10
3.2522
 20
0.4109
 10
3.2433
 20
0.3738
 10
3.2461
 20
0.3658
 10
3.2498
 20
0.36
 10
3.2546
 20
0.3563
 10
3.2604
 20
0.3547
 10
3.2567
 20
0.3347
 10
3.2485
 20
0.3182
 10
3.2358
 20
0.3053
 10
3.2186
 20
0.296
 10
3.2221
 20
0.2678
 10
3.229
 20
0.2482
 10
3.2392
 20
0.2374
 10
3.2527
 20
0.2353
 10
3.2487
 20
0.2096
 10
3.2376
 20
0.1847
 10
3.2194
 20
0.1605
 10
3.1941
 20
0.137
 10
3.2002
 20
0.1177
 10
3.2105
 20
0.1045
 10
3.2253
 20
0.09760000000000001
 10
3.2443
 20
0.0969
 10
3.2373
 20
0.0708
 10
3.2241
 20
0.0512
 10
3.2047
 20
0.0381
 10
3.1793
 20
0.0314
 10
3.1807
 20
0.0279
 10
3.1822
 20
0.0245
 10
3.1837
 20
0.0212
 10
3.1854
 20
0.018
 10
3.1749
 20
0.0243
 10
3.1668
 20
0.0332
 10
3.1612
 20
0.0445
 10
3.1579
 20
0.0584
 10
3.1709
 20
0.0589
 10
3.1809
 20
0.0636
 10
3.188
 20
0.0726
 10
3.1921
 20
0.0858
 10
3.1749
 20
0.1019
 10
3.1625
 20
0.1184
 10
3.1549
 20
0.1354
 10
3.1521
 20
0.1529
 10
3.1614
 20
0.1544
 10
3.1684
 20
0.1618
 10
3.1731
 20
0.1751
 10
3.1755
 20
0.1944
 10
3.1637
 20
0.2008
 10
3.1551
 20
0.2096
 10
3.1494
 20
0.2208
 10
3.1469
 20
0.2345
 10
3.1509
 20
0.2356
 10
3.1541
 20
0.2381
 10
3.1567
 20
0.2421
 10
3.1586
 20
0.2475
 10
3.1525
 20
0.2729
 10
3.1465
 20
0.2948
 10
3.1405
 20
0.3131
 10
3.1346
 20
0.3281
 10
3.1286
 20
0.3131
 10
3.1226
 20
0.2948
 10
3.1166
 20
0.2729
 10
3.1106
 20
0.2475
 10
3.1124
 20
0.2421
 10
3.115
 20
0.2381
 10
3.1183
 20
0.2356
 10
3.1222
 20
0.2345
 10
3.1197
 20
0.2208
 10
3.1141
 20
0.2096
 10
3.1054
 20
0.2008
 10
3.0937
 20
0.1944
 10
3.0961
 20
0.1751
 10
3.1008
 20
0.1618
 10
3.1077
 20
0.1544
 10
3.117
 20
0.1529
 10
3.1143
 20
0.1354
 10
3.1067
 20
0.1184
 10
3.0942
 20
0.1019
 10
3.0769
 20
0.0858
 10
3.0811
 20
0.0726
 10
3.0882
 20
0.0636
 10
3.0982
 20
0.0589
 10
3.1113
 20
0.0584
 10
3.1079
 20
0.0443
 10
3.102
 20
0.0327
 10
3.0936
 20
0.0239
 10
3.0828
 20
0.0176
 10
3.0641
 20
0.0192
 10
3.0457
 20
0.021
 10
3.0277
 20
0.0228
 10
3.0101
 20
0.0247
 10
3.0209
 20
0.0316
 10
3.0311
 20
0.0365
 10
3.0393
 20
0.0429
 10
3.0441
 20
0.0545
 10
3.0268
 20
0.0706
 10
3.0144
 20
0.0871
 10
3.0068
 20
0.1042
 10
3.004
 20
0.1217
 10
3.0133
 20
0.1231
 10
3.0202
 20
0.1305
 10
3.0249
 20
0.1438
 10
3.0273
 20
0.1631
 10
3.0156
 20
0.1695
 10
3.0069
 20
0.1783
 10
3.0013
 20
0.1896
 10
2.9988
 20
0.2032
 10
3.0027
 20
0.2043
 10
3.006
 20
0.2068
 10
3.0086
 20
0.2108
 10
3.0104
 20
0.2162
 10
3.0044
 20
0.2416
 10
2.9984
 20
0.2635
 10
2.9924
 20
0.2818
 10
2.9864
 20
0.2968
 10
2.9805
 20
0.2818
 10
2.9745
 20
0.2635
 10
2.9685
 20
0.2416
 10
2.9624
 20
0.2162
 10
2.9643
 20
0.2108
 10
2.9669
 20
0.2068
 10
2.9702
 20
0.2043
 10
2.9741
 20
0.2032
 10
2.9716
 20
0.1896
 10
2.966
 20
0.1783
 10
2.9573
 20
0.1695
 10
2.9456
 20
0.1631
 10
2.948
 20
0.1438
 10
2.9527
 20
0.1305
 10
2.9597
 20
0.1231
 10
2.9689
 20
0.1217
 10
2.9662
 20
0.1042
 10
2.9586
 20
0.0871
 10
2.9461
 20
0.0706
 10
2.9289
 20
0.0545
 10
2.9303
 20
0.0482
 10
2.9323
 20
0.0427
 10
2.9349
 20
0.038
 10
2.9381
 20
0.0341
 10
2.9241
 20
0.0362
 10
2.9104
 20
0.0384
 10
2.8969
 20
0.0406
 10
2.8836
 20
0.0429
 10
2.8793
 20
0.0501
 10
2.8758
 20
0.0581
 10
2.8731
 20
0.067
 10
2.8713
 20
0.07679999999999999
 10
2.8884
 20
0.0774
 10
2.9016
 20
0.08359999999999999
 10
2.9109
 20
0.0954
 10
2.9163
 20
0.1128
 10
2.8937
 20
0.1338
 10
2.8774
 20
0.1555
 10
2.8674
 20
0.1779
 10
2.8638
 20
0.2009
 10
2.8759
 20
0.2028
 10
2.8851
 20
0.2125
 10
2.8912
 20
0.23
 10
2.8943
 20
0.2553
 10
2.879
 20
0.2637
 10
2.8676
 20
0.2752
 10
2.8603
 20
0.29
 10
2.8569
 20
0.3079
 10
2.8621
 20
0.3093
 10
2.8664
 20
0.3126
 10
2.8698
 20
0.3179
 10
2.8723
 20
0.325
 10
2.8643
 20
0.3583
 10
2.8564
 20
0.387
 10
2.8486
 20
0.4111
 10
2.8407
 20
0.4307
 10
2.8329
 20
0.4111
 10
2.8251
 20
0.387
 10
2.8172
 20
0.3583
 10
2.8093
 20
0.325
 10
2.8118
 20
0.3179
 10
2.8151
 20
0.3126
 10
2.8194
 20
0.3093
 10
2.8245
 20
0.3079
 10
2.8212
 20
0.29
 10
2.8139
 20
0.2752
 10
2.8025
 20
0.2637
 10
2.7872
 20
0.2553
 10
2.7902
 20
0.23
 10
2.7964
 20
0.2125
 10
2.8055
 20
0.2028
 10
2.8177
 20
0.2009
 10
2.8141
 20
0.1779
 10
2.8041
 20
0.1555
 10
2.7878
 20
0.1338
 10
2.7652
 20
0.1128
 10
2.7706
 20
0.0954
 10
2.7798
 20
0.08359999999999999
 10
2.793
 20
0.0774
 10
2.8101
 20
0.07679999999999999
 10
2.8094
 20
0.07190000000000001
 10
2.8084
 20
0.0672
 10
2.8072
 20
0.06270000000000001
 10
2.8058
 20
0.0584
 10
2.7833
 20
0.0636
 10
2.7615
 20
0.0689
 10
2.7406
 20
0.0743
 10
2.7203
 20
0.0799
 10
2.7298
 20
0.0876
 10
2.7381
 20
0.097
 10
2.7453
 20
0.1082
 10
2.7513
 20
0.1211
 10
2.7285
 20
0.1272
 10
2.7112
 20
0.139
 10
2.6993
 20
0.1566
 10
2.693
 20
0.1799
 10
2.7101
 20
0.1805
 10
2.7233
 20
0.1867
 10
2.7326
 20
0.1985
 10
2.738
 20
0.2159
 10
2.7153
 20
0.2369
 10
2.699
 20
0.2586
 10
2.6891
 20
0.281
 10
2.6855
 20
0.304
 10
2.6976
 20
0.3059
 10
2.7068
 20
0.3156
 10
2.7129
 20
0.3331
 10
2.716
 20
0.3584
 10
2.7007
 20
0.3668
 10
2.6893
 20
0.3783
 10
2.682
 20
0.3931
 10
2.6786
 20
0.411
 10
2.6838
 20
0.4124
 10
2.6881
 20
0.4157
 10
2.6914
 20
0.421
 10
2.6939
 20
0.4281
 10
2.686
 20
0.4614
 10
2.6781
 20
0.4901
 10
2.6702
 20
0.5142
 10
2.6624
 20
0.5338000000000001
 10
2.6546
 20
0.5142
 10
2.6467
 20
0.4901
 10
2.6388
 20
0.4614
 10
2.6309
 20
0.4281
 10
2.6334
 20
0.421
 10
2.6367
 20
0.4157
 10
2.641
 20
0.4124
 10
2.6463
 20
0.411
 10
2.6429
 20
0.3931
 10
2.6355
 20
0.3783
 10
2.6241
 20
0.3668
 10
2.6088
 20
0.3584
 10
2.6119
 20
0.3331
 10
2.618
 20
0.3156
 10
2.6272
 20
0.3059
 10
2.6394
 20
0.304
 10
2.6358
 20
0.281
 10
2.6258
 20
0.2586
 10
2.6095
 20
0.2369
 10
2.5869
 20
0.2159
 10
2.5923
 20
0.1985
 10
2.6016
 20
0.1867
 10
2.6147
 20
0.1805
 10
2.6318
 20
0.1799
 10
2.6267
 20
0.1594
 10
2.6175
 20
0.1432
 10
2.6041
 20
0.1313
 10
2.5867
 20
0.1237
 10
2.5815
 20
0.1256
 10
2.5764
 20
0.1276
 10
2.5713
 20
0.1295
 10
2.5663
 20
0.1315
 10
2.5708
 20
0.135
 10
2.5744
 20
0.1396
 10
2.5771
 20
0.1453
 10
2.579
 20
0.152
 10
2.5608
 20
0.1665
 10
2.5477
 20
0.1814
 10
2.5397
 20
0.1967
 10
2.5367
 20
0.2126
 10
2.5465
 20
0.2139
 10
2.5539
 20
0.2205
 10
2.5588
 20
0.2326
 10
2.5613
 20
0.25
 10
2.549
 20
0.2557
 10
2.5399
 20
0.2637
 10
2.534
 20
0.2738
 10
2.5313
 20
0.2861
 10
2.5355
 20
0.2871
 10
2.5389
 20
0.2894
 10
2.5416
 20
0.293
 10
2.5436
 20
0.2978
 10
2.5372
 20
0.3207
 10
2.5309
 20
0.3405
 10
2.5246
 20
0.3571
 10
2.5183
 20
0.3705
 10
2.512
 20
0.3571
 10
2.5057
 20
0.3405
 10
2.4994
 20
0.3207
 10
2.493
 20
0.2978
 10
2.495
 20
0.293
 10
2.4977
 20
0.2894
 10
2.5011
 20
0.2871
 10
2.5053
 20
0.2861
 10
2.5026
 20
0.2738
 10
2.4967
 20
0.2637
 10
2.4876
 20
0.2557
 10
2.4753
 20
0.25
 10
2.4778
 20
0.2326
 10
2.4827
 20
0.2205
 10
2.49
 20
0.2139
 10
2.4998
 20
0.2126
 10
2.4978
 20
0.1997
 10
2.4925
 20
0.1871
 10
2.4838
 20
0.1749
 10
2.4718
 20
0.1628
 10
2.455
 20
0.1779
 10
2.4429
 20
0.1934
 10
2.4355
 20
0.2093
 10
2.4327
 20
0.2256
 10
2.444
 20
0.2271
 10
2.4524
 20
0.2347
 10
2.458
 20
0.2485
 10
2.4609
 20
0.2684
 10
2.4467
 20
0.2751
 10
2.4363
 20
0.2842
 10
2.4295
 20
0.2958
 10
2.4264
 20
0.31
 10
2.4312
 20
0.3111
 10
2.4351
 20
0.3137
 10
2.4382
 20
0.3178
 10
2.4405
 20
0.3234
 10
2.4332
 20
0.3497
 10
2.4259
 20
0.3723
 10
2.4187
 20
0.3913
 10
2.4115
 20
0.4068
 10
2.4043
 20
0.3913
 10
2.3971
 20
0.3723
 10
2.3898
 20
0.3497
 10
2.3825
 20
0.3234
 10
2.3848
 20
0.3178
 10
2.3879
 20
0.3137
 10
2.3918
 20
0.3111
 10
2.3966
 20
0.31
 10
2.3935
 20
0.2958
 10
2.3867
 20
0.2842
 10
2.3763
 20
0.2751
 10
2.3621
 20
0.2684
 10
2.365
 20
0.2485
 10
2.3707
 20
0.2347
 10
2.3791
 20
0.2271
 10
2.3903
 20
0.2256
 10
2.3897
 20
0.2189
 10
2.3884
 20
0.2122
 10
2.3863
 20
0.2056
 10
2.3834
 20
0.1991
 10
2.3767
 20
0.2008
 10
2.3701
 20
0.2025
 10
2.3635
 20
0.204
 10
2.3569
 20
0.2055
 10
2.3569
 20
0.2056
 10
2.357
 20
0.2057
 10
2.3571
 20
0.2059
 10
2.3571
 20
0.206
 10
2.3361
 20
0.2107
 10
2.3201
 20
0.22
 10
2.3092
 20
0.2339
 10
2.3034
 20
0.2523
 10
2.3192
 20
0.2528
 10
2.3313
 20
0.2577
 10
2.3399
 20
0.267
 10
2.3448
 20
0.2807
 10
2.324
 20
0.2973
 10
2.309
 20
0.3144
 10
2.2998
 20
0.3321
 10
2.2964
 20
0.3502
 10
2.3076
 20
0.3517
 10
2.3161
 20
0.3593
 10
2.3218
 20
0.3731
 10
2.3246
 20
0.393
 10
2.3105
 20
0.3996
 10
2.3
 20
0.4088
 10
2.2933
 20
0.4204
 10
2.2902
 20
0.4345
 10
2.2949
 20
0.4356
 10
2.2989
 20
0.4383
 10
2.302
 20
0.4424
 10
2.3042
 20
0.448
 10
2.297
 20
0.4743
 10
2.2897
 20
0.4969
 10
2.2825
 20
0.5159
 10
2.2753
 20
0.5313
 10
2.2681
 20
0.5159
 10
2.2608
 20
0.4969
 10
2.2535
 20
0.4743
 10
2.2462
 20
0.448
 10
2.2485
 20
0.4424
 10
2.2516
 20
0.4383
 10
2.2555
 20
0.4356
 10
2.2604
 20
0.4345
 10
2.2573
 20
0.4204
 10
2.2505
 20
0.4088
 10
2.24
 20
0.3996
 10
2.2259
 20
0.393
 10
2.2287
 20
0.3731
 10
2.2344
 20
0.3593
 10
2.2428
 20
0.3517
 10
2.254
 20
0.3502
 10
2.2507
 20
0.3321
 10
2.2415
 20
0.3144
 10
2.2265
 20
0.2973
 10
2.2056
 20
0.2807
 10
2.2106
 20
0.267
 10
2.2192
 20
0.2577
 10
2.2314
 20
0.2528
 10
2.2471
 20
0.2523
 10
2.2415
 20
0.2334
 10
2.2312
 20
0.2183
 10
2.2158
 20
0.2079
 10
2.1951
 20
0.2026
 10
2.1929
 20
0.2021
 10
2.1907
 20
0.2016
 10
2.1885
 20
0.201
 10
2.1863
 20
0.2005
 10
2.1749
 20
0.2115
 10
2.1637
 20
0.2201
 10
2.1549
 20
0.2315
 10
2.151
 20
0.2513
 10
2.1599
 20
0.2522
 10
2.1665
 20
0.2571
 10
2.171
 20
0.2658
 10
2.1733
 20
0.2783
 10
2.1621
 20
0.2825
 10
2.1538
 20
0.2883
 10
2.1485
 20
0.2956
 10
2.146
 20
0.3046
 10
2.1498
 20
0.3053
 10
2.1529
 20
0.3069
 10
2.1553
 20
0.3095
 10
2.1571
 20
0.3131
 10
2.1514
 20
0.3297
 10
2.1457
 20
0.3439
 10
2.14
 20
0.356
 10
2.1343
 20
0.3657
 10
2.1286
 20
0.356
 10
2.1229
 20
0.3439
 10
2.1172
 20
0.3297
 10
2.1114
 20
0.3131
 10
2.1132
 20
0.3095
 10
2.1156
 20
0.3069
 10
2.1187
 20
0.3053
 10
2.1225
 20
0.3046
 10
2.1201
 20
0.2956
 10
2.1147
 20
0.2883
 10
2.1065
 20
0.2825
 10
2.0953
 20
0.2783
 10
2.0976
 20
0.2658
 10
2.1021
 20
0.2571
 10
2.1087
 20
0.2522
 10
2.1175
 20
0.2513
 10
2.1149
 20
0.2398
 10
2.1077
 20
0.2287
 10
2.0958
 20
0.2179
 10
2.0794
 20
0.2074
 10
2.0833
 20
0.1988
 10
2.0901
 20
0.1929
 10
2.0996
 20
0.1898
 10
2.112
 20
0.1895
 10
2.1116
 20
0.1875
 10
2.111
 20
0.1855
 10
2.1104
 20
0.1837
 10
2.1096
 20
0.1818
 10
2.0863
 20
0.1774
 10
2.0642
 20
0.1739
 10
2.0431
 20
0.1712
 10
2.0229
 20
0.1693
 10
2.0317
 20
0.1749
 10
2.0394
 20
0.1815
 10
2.0461
 20
0.1892
 10
2.0518
 20
0.1978
 10
2.0266
 20
0.2024
 10
2.0075
 20
0.2113
 10
1.9944
 20
0.2246
 10
1.9875
 20
0.2423
 10
2.0063
 20
0.2428
 10
2.0209
 20
0.2475
 10
2.0311
 20
0.2564
 10
2.0371
 20
0.2695
 10
2.0121
 20
0.2854
 10
1.9941
 20
0.3019
 10
1.9831
 20
0.3188
 10
1.9791
 20
0.3362
 10
1.9925
 20
0.3377
 10
2.0026
 20
0.345
 10
2.0094
 20
0.3583
 10
2.0129
 20
0.3774
 10
1.9959
 20
0.3837
 10
1.9833
 20
0.3925
 10
1.9752
 20
0.4037
 10
1.9716
 20
0.4173
 10
1.9773
 20
0.4183
 10
1.982
 20
0.4208
 10
1.9857
 20
0.4248
 10
1.9885
 20
0.4302
 10
1.9797
 20
0.4554
 10
1.971
 20
0.4771
 10
1.9623
 20
0.4954
 10
1.9537
 20
0.5102
 10
1.945
 20
0.4954
 10
1.9363
 20
0.4771
 10
1.9276
 20
0.4554
 10
1.9188
 20
0.4302
 10
1.9216
 20
0.4248
 10
1.9253
 20
0.4208
 10
1.93
 20
0.4183
 10
1.9358
 20
0.4173
 10
1.9321
 20
0.4037
 10
1.924
 20
0.3925
 10
1.9114
 20
0.3837
 10
1.8944
 20
0.3774
 10
1.8979
 20
0.3583
 10
1.9046
 20
0.345
 10
1.9147
 20
0.3377
 10
1.9282
 20
0.3362
 10
1.9242
 20
0.3188
 10
1.9132
 20
0.3019
 10
1.8952
 20
0.2854
 10
1.8701
 20
0.2695
 10
1.8761
 20
0.2564
 10
1.8864
 20
0.2475
 10
1.901
 20
0.2428
 10
1.9198
 20
0.2423
 10
1.9129
 20
0.2246
 10
1.8998
 20
0.2113
 10
1.8807
 20
0.2024
 10
1.8555
 20
0.1978
 10
1.858
 20
0.1936
 10
1.8608
 20
0.1896
 10
1.8639
 20
0.1858
 10
1.8671
 20
0.1823
 10
1.8553
 20
0.1854
 10
1.8435
 20
0.1886
 10
1.8318
 20
0.192
 10
1.82
 20
0.1956
 10
1.8123
 20
0.1993
 10
1.809
 20
0.2021
 10
1.8077
 20
0.2065
 10
1.8061
 20
0.2154
 10
1.8175
 20
0.2157
 10
1.8263
 20
0.2185
 10
1.8325
 20
0.2239
 10
1.8361
 20
0.2318
 10
1.821
 20
0.2414
 10
1.8102
 20
0.2513
 10
1.8035
 20
0.2615
 10
1.8011
 20
0.2719
 10
1.8092
 20
0.2728
 10
1.8153
 20
0.2772
 10
1.8194
 20
0.2852
 10
1.8214
 20
0.2967
 10
1.8112
 20
0.3005
 10
1.8037
 20
0.3058
 10
1.7988
 20
0.3125
 10
1.7965
 20
0.3207
 10
1.8
 20
0.3214
 10
1.8028
 20
0.3229
 10
1.8051
 20
0.3252
 10
1.8068
 20
0.3285
 10
1.8015
 20
0.3437
 10
1.7962
 20
0.3567
 10
1.791
 20
0.3677
 10
1.7858
 20
0.3766
 10
1.7806
 20
0.3677
 10
1.7754
 20
0.3567
 10
1.7701
 20
0.3437
 10
1.7649
 20
0.3285
 10
1.7665
 20
0.3252
 10
1.7687
 20
0.3229
 10
1.7716
 20
0.3214
 10
1.775
 20
0.3207
 10
1.7728
 20
0.3125
 10
1.7679
 20
0.3058
 10
1.7604
 20
0.3005
 10
1.7501
 20
0.2967
 10
1.7522
 20
0.2852
 10
1.7563
 20
0.2772
 10
1.7623
 20
0.2728
 10
1.7705
 20
0.2719
 10
1.768
 20
0.2615
 10
1.7614
 20
0.2513
 10
1.7506
 20
0.2414
 10
1.7356
 20
0.2318
 10
1.7367
 20
0.2281
 10
1.7384
 20
0.2249
 10
1.7406
 20
0.2221
 10
1.7433
 20
0.2198
 10
1.7239
 20
0.2255
 10
1.7036
 20
0.2311
 10
1.6824
 20
0.2364
 10
1.6601
 20
0.2415
 10
1.6643
 20
0.2456
 10
1.6681
 20
0.2501
 10
1.6715
 20
0.2549
 10
1.6747
 20
0.2599
 10
1.6488
 20
0.2646
 10
1.6292
 20
0.2738
 10
1.6157
 20
0.2874
 10
1.6086
 20
0.3056
 10
1.628
 20
0.3061
 10
1.6429
 20
0.3109
 10
1.6534
 20
0.32
 10
1.6595
 20
0.3335
 10
1.6339
 20
0.3498
 10
1.6154
 20
0.3666
 10
1.6041
 20
0.384
 10
1.6
 20
0.4019
 10
1.6138
 20
0.4034
 10
1.6242
 20
0.4109
 10
1.6312
 20
0.4245
 10
1.6347
 20
0.4441
 10
1.6173
 20
0.4506
 10
1.6044
 20
0.4596
 10
1.5961
 20
0.4711
 10
1.5922
 20
0.485
 10
1.5981
 20
0.4861
 10
1.603
 20
0.4886
 10
1.6068
 20
0.4927
 10
1.6096
 20
0.4983
 10
1.6006
 20
0.5241
 10
1.5917
 20
0.5464
 10
1.5828
 20
0.5651
 10
1.5739
 20
0.5803
 10
1.5651
 20
0.5651
 10
1.5562
 20
0.5464
 10
1.5473
 20
0.5241
 10
1.5383
 20
0.4983
 10
1.541
 20
0.4927
 10
1.5449
 20
0.4886
 10
1.5497
 20
0.4861
 10
1.5556
 20
0.485
 10
1.5518
 20
0.4711
 10
1.5435
 20
0.4596
 10
1.5306
 20
0.4506
 10
1.5131
 20
0.4441
 10
1.5167
 20
0.4245
 10
1.5237
 20
0.4109
 10
1.534
 20
0.4034
 10
1.5479
 20
0.4019
 10
1.5438
 20
0.384
 10
1.5325
 20
0.3666
 10
1.514
 20
0.3498
 10
1.4883
 20
0.3335
 10
1.4944
 20
0.32
 10
1.5049
 20
0.3109
 10
1.5199
 20
0.3061
 10
1.5393
 20
0.3056
 10
1.5335
 20
0.2898
 10
1.5233
 20
0.2773
 10
1.5084
 20
0.2681
 10
1.4891
 20
0.2621
 10
1.4776
 20
0.2625
 10
1.4659
 20
0.2628
 10
1.4539
 20
0.2629
 10
1.4417
 20
0.263
 10
1.443
 20
0.265
 10
1.4444
 20
0.267
 10
1.4457
 20
0.269
 10
1.4469
 20
0.2711
 10
1.4184
 20
0.2763
 10
1.3967
 20
0.2864
 10
1.3819
 20
0.3015
 10
1.3739
 20
0.3215
 10
1.3953
 20
0.322
 10
1.4118
 20
0.3274
 10
1.4235
 20
0.3375
 10
1.4303
 20
0.3524
 10
1.4019
 20
0.3704
 10
1.3815
 20
0.389
 10
1.369
 20
0.4082
 10
1.3645
 20
0.428
 10
1.3797
 20
0.4296
 10
1.3912
 20
0.4379
 10
1.3989
 20
0.4529
 10
1.4028
 20
0.4746
 10
1.3836
 20
0.4818
 10
1.3693
 20
0.4917
 10
1.3601
 20
0.5044
 10
1.3559
 20
0.5198
 10
1.3624
 20
0.521
 10
1.3678
 20
0.5238
 10
1.372
 20
0.5283
 10
1.3751
 20
0.5344
 10
1.3652
 20
0.5629999999999999
 10
1.3553
 20
0.5876
 10
1.3454
 20
0.6083
 10
1.3357
 20
0.625
 10
1.3259
 20
0.6083
 10
1.316
 20
0.5876
 10
1.3062
 20
0.5629999999999999
 10
1.2963
 20
0.5344
 10
1.2993
 20
0.5283
 10
1.3035
 20
0.5238
 10
1.3089
 20
0.521
 10
1.3154
 20
0.5198
 10
1.3112
 20
0.5044
 10
1.302
 20
0.4917
 10
1.2878
 20
0.4818
 10
1.2686
 20
0.4746
 10
1.2724
 20
0.4529
 10
1.2801
 20
0.4379
 10
1.2916
 20
0.4296
 10
1.3069
 20
0.428
 10
1.3023
 20
0.4082
 10
1.2898
 20
0.389
 10
1.2694
 20
0.3704
 10
1.2411
 20
0.3524
 10
1.2478
 20
0.3375
 10
1.2594
 20
0.3274
 10
1.276
 20
0.322
 10
1.2974
 20
0.3215
 10
1.2894
 20
0.3015
 10
1.2746
 20
0.2864
 10
1.253
 20
0.2763
 10
1.2244
 20
0.2711
 10
1.227
 20
0.267
 10
1.2297
 20
0.263
 10
1.2326
 20
0.2592
 10
1.2357
 20
0.2556
 10
1.2271
 20
0.2552
 10
1.2188
 20
0.2547
 10
1.2108
 20
0.2543
 10
1.203
 20
0.2538
 10
1.1922
 20
0.2579
 10
1.1838
 20
0.2637
 10
1.1779
 20
0.2714
 10
1.1746
 20
0.2809
 10
1.1871
 20
0.2813
 10
1.1968
 20
0.2844
 10
1.2036
 20
0.2903
 10
1.2075
 20
0.299
 10
1.191
 20
0.3095
 10
1.179
 20
0.3204
 10
1.1717
 20
0.3316
 10
1.169
 20
0.3431
 10
1.178
 20
0.3441
 10
1.1847
 20
0.349
 10
1.1892
 20
0.3577
 10
1.1914
 20
0.3705
 10
1.1802
 20
0.3746
 10
1.1719
 20
0.3804
 10
1.1665
 20
0.3878
 10
1.164
 20
0.3968
 10
1.1678
 20
0.3975
 10
1.171
 20
0.3992
 10
1.1735
 20
0.4018
 10
1.1753
 20
0.4053
 10
1.1695
 20
0.4221
 10
1.1637
 20
0.4365
 10
1.1579
 20
0.4486
 10
1.1522
 20
0.4584
 10
1.1465
 20
0.4486
 10
1.1408
 20
0.4365
 10
1.135
 20
0.4221
 10
1.1292
 20
0.4053
 10
1.131
 20
0.4018
 10
1.1335
 20
0.3992
 10
1.1366
 20
0.3975
 10
1.1404
 20
0.3968
 10
1.1379
 20
0.3878
 10
1.1325
 20
0.3804
 10
1.1242
 20
0.3746
 10
1.113
 20
0.3705
 10
1.1153
 20
0.3577
 10
1.1198
 20
0.349
 10
1.1265
 20
0.3441
 10
1.1354
 20
0.3431
 10
1.1327
 20
0.3316
 10
1.1254
 20
0.3204
 10
1.1135
 20
0.3095
 10
1.0969
 20
0.299
 10
1.1009
 20
0.2903
 10
1.1077
 20
0.2844
 10
1.1173
 20
0.2813
 10
1.1298
 20
0.2809
 10
1.1252
 20
0.2692
 10
1.1165
 20
0.2604
 10
1.1039
 20
0.2545
 10
1.0872
 20
0.2515
 10
1.0892
 20
0.2482
 10
1.0913
 20
0.2453
 10
1.0937
 20
0.2425
 10
1.0963
 20
0.2399
 10
1.086
 20
0.2368
 10
1.0762
 20
0.2334
 10
1.0668
 20
0.2296
 10
1.0577
 20
0.2253
 10
1.0552
 20
0.2296
 10
1.0534
 20
0.234
 10
1.0523
 20
0.2384
 10
1.0518
 20
0.2428
 10
1.0607
 20
0.2437
 10
1.0674
 20
0.2486
 10
1.0719
 20
0.2574
 10
1.0742
 20
0.27
 10
1.0629
 20
0.2743
 10
1.0546
 20
0.2801
 10
1.0493
 20
0.2875
 10
1.0468
 20
0.2964
 10
1.0506
 20
0.2971
 10
1.0537
 20
0.2988
 10
1.0562
 20
0.3015
 10
1.058
 20
0.305
 10
1.0522
 20
0.3217
 10
1.0464
 20
0.3361
 10
1.0406
 20
0.3482
 10
1.0349
 20
0.358
 10
1.0292
 20
0.3482
 10
1.0235
 20
0.3361
 10
1.0177
 20
0.3217
 10
1.0119
 20
0.305
 10
1.0137
 20
0.3015
 10
1.0161
 20
0.2988
 10
1.0193
 20
0.2971
 10
1.0231
 20
0.2964
 10
1.0206
 20
0.2875
 10
1.0153
 20
0.2801
 10
1.0069
 20
0.2743
 10
0.9957
 20
0.27
 10
0.998
 20
0.2574
 10
1.0025
 20
0.2486
 10
1.0092
 20
0.2437
 10
1.0181
 20
0.2428
 10
1.0154
 20
0.2313
 10
1.0081
 20
0.2201
 10
0.9962
 20
0.2092
 10
0.9796
 20
0.1986
 10
0.9817
 20
0.1929
 10
0.9849
 20
0.1882
 10
0.9892
 20
0.1847
 10
0.9946
 20
0.1822
 10
0.9862
 20
0.1753
 10
0.9774
 20
0.168
 10
0.9681
 20
0.1603
 10
0.9583
 20
0.152
 10
0.9439
 20
0.1619
 10
0.9334
 20
0.1721
 10
0.9271
 20
0.1826
 10
0.9247
 20
0.1934
 10
0.9336
 20
0.1944
 10
0.9404
 20
0.1992
 10
0.9448
 20
0.208
 10
0.9471000000000001
 20
0.2206
 10
0.9359
 20
0.2249
 10
0.9276
 20
0.2307
 10
0.9222
 20
0.2381
 10
0.9197
 20
0.247
 10
0.9235
 20
0.2478
 10
0.9267
 20
0.2494
 10
0.9291
 20
0.252
 10
0.931
 20
0.2556
 10
0.9252
 20
0.2723
 10
0.9194
 20
0.2867
 10
0.9136
 20
0.2988
 10
0.9079
 20
0.3087
 10
0.9022
 20
0.2988
 10
0.8964
 20
0.2867
 10
0.8905999999999999
 20
0.2723
 10
0.8848
 20
0.2556
 10
0.8867
 20
0.252
 10
0.8891
 20
0.2494
 10
0.8923
 20
0.2478
 10
0.8961
 20
0.247
 10
0.8935999999999999
 20
0.2381
 10
0.8882
 20
0.2307
 10
0.8799
 20
0.2249
 10
0.8687
 20
0.2206
 10
0.871
 20
0.208
 10
0.8754
 20
0.1992
 10
0.8821
 20
0.1944
 10
0.8911
 20
0.1934
 10
0.8884
 20
0.1818
 10
0.8811
 20
0.1706
 10
0.8692
 20
0.1597
 10
0.8526
 20
0.1492
 10
0.8565
 20
0.1405
 10
0.8633
 20
0.1346
 10
0.873
 20
0.1315
 10
0.8855
 20
0.1312
 10
0.8809
 20
0.1195
 10
0.8722
 20
0.1107
 10
0.8595
 20
0.1047
 10
0.8429
 20
0.1017
 10
0.8479
 20
0.0944
 10
0.8541
 20
0.0882
 10
0.8614000000000001
 20
0.0832
 10
0.8698
 20
0.0793
 10
0.8426
 20
0.062
 10
0.8208
 20
0.0547
 10
0.8032
 20
0.056
 10
0.7886
 20
0.0643
 10
0.7992
 20
0.068
 10
0.8082
 20
0.0733
 10
0.8158
 20
0.08019999999999999
 10
0.8219
 20
0.0886
 10
0.8052
 20
0.0917
 10
0.7925
 20
0.09760000000000001
 10
0.7838000000000001
 20
0.1064
 10
0.7792
 20
0.1181
 10
0.7917
 20
0.1185
 10
0.8014
 20
0.1216
 10
0.8082
 20
0.1274
 10
0.8121
 20
0.1361
 10
0.7955
 20
0.1467
 10
0.7836
 20
0.1576
 10
0.7763
 20
0.1688
 10
0.7737000000000001
 20
0.1803
 10
0.7826
 20
0.1813
 10
0.7893
 20
0.1861
 10
0.7938
 20
0.1949
 10
0.7961
 20
0.2076
 10
0.7848000000000001
 20
0.2118
 10
0.7765
 20
0.2176
 10
0.7711
 20
0.225
 10
0.7687
 20
0.234
 10
0.7725
 20
0.2347
 10
0.7756
 20
0.2364
 10
0.778
 20
0.239
 10
0.7798
 20
0.2425
 10
0.774
 20
0.2592
 10
0.7683
 20
0.2737
 10
0.7625
 20
0.2858
 10
0.7568
 20
0.2956
 10
0.7511
 20
0.2858
 10
0.7453
 20
0.2737
 10
0.7396
 20
0.2592
 10
0.7338
 20
0.2425
 10
0.7355
 20
0.239
 10
0.738
 20
0.2364
 10
0.7411
 20
0.2347
 10
0.7449
 20
0.234
 10
0.7425
 20
0.225
 10
0.7371
 20
0.2176
 10
0.7288
 20
0.2118
 10
0.7175
 20
0.2076
 10
0.7198
 20
0.1949
 10
0.7243000000000001
 20
0.1861
 10
0.731
 20
0.1813
 10
0.7399
 20
0.1803
 10
0.7389
 20
0.1733
 10
0.7362
 20
0.1665
 10
0.7318
 20
0.1597
 10
0.7258
 20
0.1531
 10
0.7176
 20
0.1623
 10
0.7086
 20
0.1711
 10
0.6987
 20
0.1793
 10
0.6878
 20
0.1869
 10
0.6899
 20
0.1896
 10
0.6919999999999999
 20
0.1924
 10
0.6939
 20
0.1953
 10
0.6958
 20
0.1984
 10
0.6709000000000001
 20
0.2029
 10
0.652
 20
0.2117
 10
0.639
 20
0.2249
 10
0.6321
 20
0.2424
 10
0.6508
 20
0.2428
 10
0.6652
 20
0.2475
 10
0.6753
 20
0.2563
 10
0.6812
 20
0.2693
 10
0.6565
 20
0.2851
 10
0.6387
 20
0.3013
 10
0.6278
 20
0.3181
 10
0.6238
 20
0.3353
 10
0.6371
 20
0.3367
 10
0.6471
 20
0.344
 10
0.6538
 20
0.3571
 10
0.6572
 20
0.376
 10
0.6404
 20
0.3823
 10
0.628
 20
0.3909
 10
0.62
 20
0.402
 10
0.6163999999999999
 20
0.4154
 10
0.622
 20
0.4165
 10
0.6267
 20
0.419
 10
0.6304
 20
0.4229
 10
0.6331
 20
0.4282
 10
0.6244
 20
0.4531
 10
0.6158
 20
0.4746
 10
0.6072
 20
0.4927
 10
0.5986
 20
0.5074
 10
0.5901
 20
0.4927
 10
0.5815
 20
0.4746
 10
0.5729
 20
0.4531
 10
0.5642
 20
0.4282
 10
0.5669
 20
0.4229
 10
0.5706
 20
0.419
 10
0.5753
 20
0.4165
 10
0.581
 20
0.4154
 10
0.5773
 20
0.402
 10
0.5693
 20
0.3909
 10
0.5569
 20
0.3823
 10
0.5401
 20
0.376
 10
0.5435
 20
0.3571
 10
0.5502
 20
0.344
 10
0.5602
 20
0.3367
 10
0.5735
 20
0.3353
 10
0.5695
 20
0.3181
 10
0.5587
 20
0.3013
 10
0.5409
 20
0.2851
 10
0.5161
 20
0.2693
 10
0.522
 20
0.2563
 10
0.5321
 20
0.2475
 10
0.5465
 20
0.2428
 10
0.5652
 20
0.2424
 10
0.5618
 20
0.2264
 10
0.5565
 20
0.215
 10
0.5459000000000001
 20
0.2074
 10
0.5266
 20
0.2029
 10
0.5105
 20
0.1996
 10
0.4947
 20
0.1961
 10
0.4792
 20
0.1926
 10
0.464
 20
0.1889
 10
0.4502
 20
0.1983
 10
0.4402
 20
0.208
 10
0.4341
 20
0.218
 10
0.4319
 20
0.2282
 10
0.4403
 20
0.2291
 10
0.4466
 20
0.2337
 10
0.4508
 20
0.2419
 10
0.453
 20
0.2539
 10
0.4424
 20
0.2578
 10
0.4346
 20
0.2633
 10
0.4295
 20
0.2702
 10
0.4272
 20
0.2787
 10
0.4308
 20
0.2794
 10
0.4337
 20
0.2809
 10
0.436
 20
0.2834
 10
0.4377
 20
0.2868
 10
0.4323
 20
0.3025
 10
0.4269
 20
0.3161
 10
0.4215
 20
0.3275
 10
0.4161
 20
0.3367
 10
0.4107
 20
0.3275
 10
0.4053
 20
0.3161
 10
0.3998
 20
0.3025
 10
0.3943
 20
0.2868
 10
0.396
 20
0.2834
 10
0.3984
 20
0.2809
 10
0.4013
 20
0.2794
 10
0.4049
 20
0.2787
 10
0.4026
 20
0.2702
 10
0.3975
 20
0.2633
 10
0.3897
 20
0.2578
 10
0.3791
 20
0.2539
 10
0.3813
 20
0.2419
 10
0.3855
 20
0.2337
 10
0.3918
 20
0.2291
 10
0.4002
 20
0.2282
 10
0.3977
 20
0.2173
 10
0.3908
 20
0.2068
 10
0.3796
 20
0.1965
 10
0.364
 20
0.1866
 10
0.367
 20
0.1795
 10
0.3718
 20
0.1743
 10
0.3786
 20
0.171
 10
0.3873
 20
0.1695
 10
0.3702
 20
0.1652
 10
0.3534
 20
0.1612
 10
0.3369
 20
0.1575
 10
0.3208
 20
0.1542
 10
0.3131
 20
0.1591
 10
0.307
 20
0.1652
 10
0.3027
 20
0.1725
 10
0.3
 20
0.181
 10
0.3143
 20
0.1813
 10
0.3253
 20
0.1849
 10
0.3331
 20
0.1916
 10
0.3376
 20
0.2016
 10
0.3187
 20
0.2136
 10
0.305
 20
0.2261
 10
0.2967
 20
0.2389
 10
0.2937
 20
0.2521
 10
0.3038
 20
0.2532
 10
0.3115
 20
0.2588
 10
0.3167
 20
0.2688
 10
0.3193
 20
0.2833
 10
0.3064
 20
0.2881
 10
0.2969
 20
0.2948
 10
0.2907
 20
0.3032
 10
0.2879
 20
0.3135
 10
0.2923
 20
0.3143
 10
0.2959
 20
0.3162
 10
0.2987
 20
0.3192
 10
0.3007
 20
0.3232
 10
0.2941
 20
0.3423
 10
0.2875
 20
0.3588
 10
0.2809
 20
0.3726
 10
0.2744
 20
0.3839
 10
0.2679
 20
0.3726
 10
0.2613
 20
0.3588
 10
0.2547
 20
0.3423
 10
0.248
 20
0.3232
 10
0.2501
 20
0.3192
 10
0.2529
 20
0.3162
 10
0.2565
 20
0.3143
 10
0.2609
 20
0.3135
 10
0.2581
 20
0.3032
 10
0.2519
 20
0.2948
 10
0.2424
 20
0.2881
 10
0.2295
 20
0.2833
 10
0.2322
 20
0.2688
 10
0.2373
 20
0.2588
 10
0.2449
 20
0.2532
 10
0.2551
 20
0.2521
 10
0.2521
 20
0.2389
 10
0.2437
 20
0.2261
 10
0.2301
 20
0.2136
 10
0.2112
 20
0.2016
 10
0.2157
 20
0.1916
 10
0.2235
 20
0.1849
 10
0.2345
 20
0.1813
 10
0.2489
 20
0.181
 10
0.2441
 20
0.1686
 10
0.2356
 20
0.159
 10
0.2232
 20
0.1521
 10
0.207
 20
0.1481
 10
0.1916
 20
0.1509
 10
0.1765
 20
0.1548
 10
0.1615
 20
0.16
 10
0.1466
 20
0.1665
 10
0.1458
 20
0.1682
 10
0.1451
 20
0.17
 10
0.1445
 20
0.1719
 10
0.144
 20
0.1738
 10
0.1583
 20
0.1741
 10
0.1694
 20
0.1773
 10
0.1771
 20
0.1833
 10
0.1817
 20
0.1922
 10
0.1627
 20
0.2029
 10
0.1491
 20
0.214
 10
0.1407
 20
0.2254
 10
0.1377
 20
0.2371
 10
0.1479
 20
0.2381
 10
0.1555
 20
0.243
 10
0.1607
 20
0.2519
 10
0.1633
 20
0.2648
 10
0.1504
 20
0.2691
 10
0.1409
 20
0.275
 10
0.1347
 20
0.2825
 10
0.1319
 20
0.2916
 10
0.1363
 20
0.2923
 10
0.1399
 20
0.294
 10
0.1427
 20
0.2967
 10
0.1448
 20
0.3003
 10
0.1381
 20
0.3173
 10
0.1315
 20
0.3319
 10
0.125
 20
0.3442
 10
0.1185
 20
0.3542
 10
0.1119
 20
0.3442
 10
0.1053
 20
0.3319
 10
0.0987
 20
0.3173
 10
0.0921
 20
0.3003
 10
0.0941
 20
0.2967
 10
0.0969
 20
0.294
 10
0.1005
 20
0.2923
 10
0.1049
 20
0.2916
 10
0.1021
 20
0.2825
 10
0.0959
 20
0.275
 10
0.0864
 20
0.2691
 10
0.0736
 20
0.2648
 10
0.0762
 20
0.2519
 10
0.0813
 20
0.243
 10
0.089
 20
0.2381
 10
0.09909999999999999
 20
0.2371
 10
0.09810000000000001
 20
0.2303
 10
0.09520000000000001
 20
0.2236
 10
0.0905
 20
0.217
 10
0.08409999999999999
 20
0.2105
 10
0.06710000000000001
 20
0.2276
 10
0.05
 20
0.2473
 10
0.0328
 20
0.2694
 10
0.0156
 20
0.2943
 10
0.0002
 20
0.3259
 10
0
 20
0.3503
 10
0.0141
 20
0.3678
 10
0.0418
 20
0.3782
 10
0.3191
 20
0.4691
 10
0.5195
 20
0.5931
 10
0.6588000000000001
 20
0.72
 10
0.7528
 20
0.8195
 10
0.7899
 20
0.8512
 10
0.8185
 20
0.8605
 10
0.848
 20
0.8511
 10
0.8878
 20
0.8265
 10
0.9500999999999999
 20
0.7756
 10
0.9883
 20
0.7167
 10
0.9982
 20
0.6479
 10
0.9758
 20
0.5672
 10
0.9373
 20
0.4783
 10
0.9247
 20
0.4249
 10
0.952
 20
0.4218
 10
1.0336
 20
0.4843
 10
1.0933
 20
0.5576
 10
1.1191
 20
0.623
 10
1.1501
 20
0.6872
 10
1.2255
 20
0.7566000000000001
 10
1.2852
 20
0.8189
 10
1.3795
 20
0.9254
 10
1.4755
 20
1.0178
 10
1.5397
 20
1.0381
 10
1.5226
 20
0.9726
 10
1.4448
 20
0.8661
 10
1.3593
 20
0.7667
 10
1.3188
 20
0.7225
 10
1.3284
 20
0.7095
 10
1.3706
 20
0.7156
 10
1.4379
 20
0.7642
 10
1.5229
 20
0.8783
 10
1.5574
 20
0.929
 10
1.5958
 20
0.9782
 10
1.631
 20
1.0255
 10
1.656
 20
1.0708
 10
1.7021
 20
1.1651
 10
1.7442
 20
1.2094
 10
1.7987
 20
1.2467
  0
LWPOLYLINE
  5
51
100
AcDbEntity
  8
0
  6
ByLayer
 62
  256
370
   -1
100
AcDbPolyline
 90
   32
 70
    1
 43
0
 10
0.0987
 20
0.1089
 10
0.1082
 20
0.1057
 10
0.1292
 20
0.09859999999999999
 10
0.1502
 20
0.0915
 10
0.1598
 20
0.0882
 10
0.1502
 20
0.08500000000000001
 10
0.1292
 20
0.07779999999999999
 10
0.1082
 20
0.0707
 10
0.0987
 20
0.0675
 10
0.09569999999999999
 20
0.0569
 10
0.0892
 20
0.0337
 10
0.0828
 20
0.0106
 10
0.0798
 20
0
 10
0.0769
 20
0.0106
 10
0.07049999999999999
 20
0.0337
 10
0.064
 20
0.0569
 10
0.0611
 20
0.0675
 10
0.0515
 20
0.0707
 10
0.0305
 20
0.07779999999999999
 10
0.0095
 20
0.08500000000000001
 10
0
 20
0.0882
 10
0.0095
 20
0.0915
 10
0.0305
 20
0.09859999999999999
 10
0.0515
 20
0.1057
 10
0.0611
 20
0.1089
 10
0.064
 20
0.1195
 10
0.07049999999999999
 20
0.1427
 10
0.0769
 20
0.1659
 10
0.0798
 20
0.1765
 10
0.0828
 20
0.1659
 10
0.0892
 20
0.1427
 10
0.09569999999999999
 20
0.1195
  0
LWPOLYLINE
  5
52
100
AcDbEntity
  8
0
  6
ByLayer
 62
  256
370
   -1
100
AcDbPolyline
 90
   24
 70
    1
 43
0
 10
0.0832
 20
0.569
 10
0.1888
 20
0.6514
 10
0.3134
 20
0.6867
 10
0.4422
 20
0.6736
 10
0.5605
 20
0.6109
 10
0.4745
 20
0.6217
 10
0.3915
 20
0.6052
 10
0.3176
 20
0.5639
 10
0.2591
 20
0.5
 10
0.2238
 20
0.4208
 10
0.2153
 20
0.3366
 10
0.2334
 20
0.2539
 10
0.2775
 20
0.1793
 10
0.343
 20
0.1225
 10
0.4211
 20
0.08989999999999999
 10
0.5054999999999999
 20
0.08309999999999999
 10
0.5897
 20
0.1037
 10
0.4793
 20
0.0278
 10
0.3528
 20
0
 10
0.2251
 20
0.0208
 10
0.1108
 20
0.0906
 10
0.0316
 20
0.1986
 10
0
 20
0.3242
 10
0.0169
 20
0.4526
  0
LWPOLYLINE
  5
53
100
AcDbEntity
  8
0
  6
ByLayer
 62
  256
370
   -1
100
AcDbPolyline
 90
   16
 70
    1
 43
0
 10
0
 20
0.0369
 10
0.0029
 20
0.0513
 10
0.0108
 20
0.063
 10
0.0226
 20
0.07099999999999999
 10
0.037
 20
0.07389999999999999
 10
0.0513
 20
0.07099999999999999
 10
0.0631
 20
0.063
 10
0.07099999999999999
 20
0.0513
 10
0.07389999999999999
 20
0.0369
 10
0.07099999999999999
 20
0.0225
 10
0.0631
 20
0.0108
 10
0.0513
 20
0.0029
 10
0.037
 20
0
 10
0.0226
 20
0.0029
 10
0.0108
 20
0.0108
 10
0.0029
 20
0.0225
  0
LWPOLYLINE
  5
54
100
AcDbEntity
  8
0
  6
ByLayer
 62
  256
370
   -1
100
AcDbPolyline
 90
   16
 70
    1
 43
0
 10
0.0369
 20
0.07389999999999999
 10
0.0513
 20
0.07099999999999999
 10
0.063
 20
0.0631
 10
0.0709
 20
0.0514
 10
0.0738
 20
0.037
 10
0.0709
 20
0.0226
 10
0.063
 20
0.0109
 10
0.0513
 20
0.0029
 10
0.0369
 20
0
 10
0.0225
 20
0.0029
 10
0.0108
 20
0.0109
 10
0.0029
 20
0.0226
 10
0
 20
0.037
 10
0.0029
 20
0.0514
 10
0.0108
 20
0.0631
 10
0.0225
 20
0.07099999999999999
  0
LWPOLYLINE
  5
55
100
AcDbEntity
  8
0
  6
ByLayer
 62
  256
370
   -1
100
AcDbPolyline
 90
   32
 70
    1
 43
0
 10
0.0987
 20
0.0674
 10
0.0958
 20
0.0569
 10
0.0893
 20
0.0337
 10
0.0828
 20
0.0105
 10
0.0799
 20
0
 10
0.077
 20
0.0105
 10
0.07049999999999999
 20
0.0337
 10
0.0641
 20
0.0569
 10
0.0612
 20
0.0674
 10
0.0516
 20
0.0707
 10
0.0306
 20
0.07779999999999999
 10
0.009599999999999999
 20
0.0849
 10
0
 20
0.0882
 10
0.009599999999999999
 20
0.0914
 10
0.0306
 20
0.09859999999999999
 10
0.0516
 20
0.1057
 10
0.0612
 20
0.1089
 10
0.0641
 20
0.1195
 10
0.07049999999999999
 20
0.1427
 10
0.077
 20
0.1659
 10
0.0799
 20
0.1765
 10
0.0828
 20
0.1659
 10
0.0893
 20
0.1427
 10
0.0958
 20
0.1195
 10
0.0987
 20
0.1089
 10
0.1083
 20
0.1057
 10
0.1293
 20
0.09859999999999999
 10
0.1503
 20
0.0914
 10
0.1598
 20
0.0882
 10
0.1503
 20
0.0849
 10
0.1293
 20
0.07779999999999999
 10
0.1083
 20
0.0707
  0
LWPOLYLINE
  5
56
100
AcDbEntity
  8
0
  6
ByLayer
 62
  256
370
   -1
100
AcDbPolyline
 90
   16
 70
    1
 43
0
 10
0.07389999999999999
 20
0.037
 10
0.07099999999999999
 20
0.0226
 10
0.063
 20
0.0109
 10
0.0513
 20
0.0029
 10
0.0369
 20
0
 10
0.0225
 20
0.0029
 10
0.0108
 20
0.0109
 10
0.0029
 20
0.0226
 10
0
 20
0.037
 10
0.0029
 20
0.0514
 10
0.0108
 20
0.0631
 10
0.0225
 20
0.07099999999999999
 10
0.0369
 20
0.07389999999999999
 10
0.0513
 20
0.07099999999999999
 10
0.063
 20
0.0631
 10
0.07099999999999999
 20
0.0514
  0
LWPOLYLINE
  5
57
100
AcDbEntity
  8
0
  6
ByLayer
 62
  256
370
   -1
100
AcDbPolyline
 90
   32
 70
    1
 43
0
 10
0.0587
 20
0.0402
 10
0.0569
 20
0.0339
 10
0.0531
 20
0.0201
 10
0.0492
 20
0.0063
 10
0.0475
 20
0
 10
0.0458
 20
0.0063
 10
0.0419
 20
0.0201
 10
0.0381
 20
0.0339
 10
0.0363
 20
0.0402
 10
0.0307
 20
0.0421
 10
0.0182
 20
0.0463
 10
0.0056
 20
0.0506
 10
0
 20
0.0525
 10
0.0056
 20
0.0544
 10
0.0182
 20
0.0587
 10
0.0307
 20
0.0629
 10
0.0363
 20
0.0648
 10
0.0381
 20
0.0711
 10
0.0419
 20
0.0849
 10
0.0458
 20
0.0987
 10
0.0475
 20
0.105
 10
0.0492
 20
0.0987
 10
0.0531
 20
0.0849
 10
0.0569
 20
0.0711
 10
0.0587
 20
0.0648
 10
0.0644
 20
0.0629
 10
0.0769
 20
0.0587
 10
0.08939999999999999
 20
0.0544
 10
0.0951
 20
0.0525
 10
0.08939999999999999
 20
0.0506
 10
0.0769
 20
0.0463
 10
0.0644
 20
0.0421
  0
LWPOLYLINE
  5
58
100
AcDbEntity
  8
0
  6
ByLayer
 62
  256
370
   -1
100
AcDbPolyline
 90
   16
 70
    1
 43
0
 10
0.037
 20
0.07389999999999999
 10
0.0513
 20
0.07099999999999999
 10
0.0631
 20
0.063
 10
0.07099999999999999
 20
0.0513
 10
0.07389999999999999
 20
0.0369
 10
0.07099999999999999
 20
0.0226
 10
0.0631
 20
0.0108
 10
0.0513
 20
0.0029
 10
0.037
 20
0
 10
0.0226
 20
0.0029
 10
0.0108
 20
0.0108
 10
0.0029
 20
0.0226
 10
0
 20
0.0369
 10
0.0029
 20
0.0513
 10
0.0108
 20
0.063
 10
0.0226
 20
0.07099999999999999
  0
LWPOLYLINE
  5
59
100
AcDbEntity
  8
0
  6
ByLayer
 62
  256
370
   -1
100
AcDbPolyline
 90
   16
 70
    1
 43
0
 10
0
 20
0.0369
 10
0.0029
 20
0.0513
 10
0.0109
 20
0.063
 10
0.0226
 20
0.0709
 10
0.037
 20
0.07389999999999999
 10
0.0513
 20
0.0709
 10
0.0631
 20
0.063
 10
0.07099999999999999
 20
0.0513
 10
0.07389999999999999
 20
0.0369
 10
0.07099999999999999
 20
0.0225
 10
0.0631
 20
0.0108
 10
0.0513
 20
0.0029
 10
0.037
 20
0
 10
0.0226
 20
0.0029
 10
0.0109
 20
0.0108
 10
0.0029
 20
0.0225
  0
LWPOLYLINE
  5
5A
100
AcDbEntity
  8
0
  6
ByLayer
 62
  256
370
   -1
100
AcDbPolyline
 90
   16
 70
    1
 43
0
 10
0
 20
0.0369
 10
0.0029
 20
0.0513
 10
0.0108
 20
0.0631
 10
0.0225
 20
0.07099999999999999
 10
0.0369
 20
0.07389999999999999
 10
0.0513
 20
0.07099999999999999
 10
0.063
 20
0.0631
 10
0.0709
 20
0.0513
 10
0.0738
 20
0.0369
 10
0.0709
 20
0.0225
 10
0.063
 20
0.0108
 10
0.0513
 20
0.0029
 10
0.0369
 20
0
 10
0.0225
 20
0.0029
 10
0.0108
 20
0.0108
 10
0.0029
 20
0.0225
  0
LWPOLYLINE
  5
5B
100
AcDbEntity
  8
0
  6
ByLayer
 62
  256
370
   -1
100
AcDbPolyline
 90
   16
 70
    1
 43
0
 10
0.0369
 20
0.0738
 10
0.0513
 20
0.0709
 10
0.063
 20
0.063
 10
0.07099999999999999
 20
0.0513
 10
0.07389999999999999
 20
0.0369
 10
0.07099999999999999
 20
0.0225
 10
0.063
 20
0.0108
 10
0.0513
 20
0.0029
 10
0.0369
 20
0
 10
0.0225
 20
0.0029
 10
0.0108
 20
0.0108
 10
0.0029
 20
0.0225
 10
0
 20
0.0369
 10
0.0029
 20
0.0513
 10
0.0108
 20
0.063
 10
0.0225
 20
0.0709
  0
LWPOLYLINE
  5
5C
100
AcDbEntity
  8
0
  6
ByLayer
 62
  256
370
   -1
100
AcDbPolyline
 90
   16
 70
    1
 43
0
 10
0.07389999999999999
 20
0.0369
 10
0.07099999999999999
 20
0.0226
 10
0.0631
 20
0.0108
 10
0.0513
 20
0.0029
 10
0.0369
 20
0
 10
0.0225
 20
0.0029
 10
0.0108
 20
0.0108
 10
0.0029
 20
0.0226
 10
0
 20
0.0369
 10
0.0029
 20
0.0513
 10
0.0108
 20
0.0631
 10
0.0225
 20
0.07099999999999999
 10
0.0369
 20
0.07389999999999999
 10
0.0513
 20
0.07099999999999999
 10
0.0631
 20
0.0631
 10
0.07099999999999999
 20
0.0513
  0
LWPOLYLINE
  5
5D
100
AcDbEntity
  8
0
  6
ByLayer
 62
  256
370
   -1
100
AcDbPolyline
 90
   32
 70
    1
 43
0
 10
0.08699999999999999
 20
0.0595
 10
0.0844
 20
0.0502
 10
0.0788
 20
0.0297
 10
0.0731
 20
0.009299999999999999
 10
0.07049999999999999
 20
0
 10
0.0679
 20
0.009299999999999999
 10
0.0622
 20
0.0297
 10
0.0565
 20
0.0502
 10
0.0539
 20
0.0595
 10
0.0455
 20
0.0623
 10
0.027
 20
0.06859999999999999
 10
0.008399999999999999
 20
0.07489999999999999
 10
0
 20
0.07770000000000001
 10
0.008399999999999999
 20
0.0806
 10
0.027
 20
0.08690000000000001
 10
0.0455
 20
0.0931
 10
0.0539
 20
0.096
 10
0.0565
 20
0.1053
 10
0.0622
 20
0.1257
 10
0.0679
 20
0.1462
 10
0.07049999999999999
 20
0.1555
 10
0.0731
 20
0.1462
 10
0.0788
 20
0.1257
 10
0.0844
 20
0.1053
 10
0.08699999999999999
 20
0.096
 10
0.0954
 20
0.0931
 10
0.1139
 20
0.08690000000000001
 10
0.1324
 20
0.0806
 10
0.1408
 20
0.07770000000000001
 10
0.1324
 20
0.07489999999999999
 10
0.1139
 20
0.06859999999999999
 10
0.0954
 20
0.0623
  0
LWPOLYLINE
  5
5E
100
AcDbEntity
  8
0
  6
ByLayer
 62
  256
370
   -1
100
AcDbPolyline
 90
   32
 70
    1
 43
0
 10
0.1152
 20
0.0789
 10
0.1118
 20
0.06660000000000001
 10
0.1043
 20
0.0395
 10
0.09669999999999999
 20
0.0124
 10
0.09329999999999999
 20
0
 10
0.08989999999999999
 20
0.0124
 10
0.0824
 20
0.0395
 10
0.07480000000000001
 20
0.06660000000000001
 10
0.07140000000000001
 20
0.0789
 10
0.0602
 20
0.0827
 10
0.0357
 20
0.091
 10
0.0112
 20
0.0993
 10
0
 20
0.1031
 10
0.0112
 20
0.1068
 10
0.0357
 20
0.1152
 10
0.0602
 20
0.1235
 10
0.07140000000000001
 20
0.1273
 10
0.07480000000000001
 20
0.1396
 10
0.0824
 20
0.1667
 10
0.08989999999999999
 20
0.1938
 10
0.09329999999999999
 20
0.2061
 10
0.09669999999999999
 20
0.1938
 10
0.1043
 20
0.1667
 10
0.1118
 20
0.1396
 10
0.1152
 20
0.1273
 10
0.1264
 20
0.1235
 10
0.1509
 20
0.1152
 10
0.1754
 20
0.1068
 10
0.1866
 20
0.1031
 10
0.1754
 20
0.0993
 10
0.1509
 20
0.091
 10
0.1264
 20
0.0827
  0
LWPOLYLINE
  5
5F
100
AcDbEntity
  8
0
  6
ByLayer
 62
  256
370
   -1
100
AcDbPolyline
 90
   32
 70
    1
 43
0
 10
0.08160000000000001
 20
0.1632
 10
0.08459999999999999
 20
0.1535
 10
0.09130000000000001
 20
0.132
 10
0.0979
 20
0.1105
 10
0.1009
 20
0.1008
 10
0.1106
 20
0.0978
 10
0.1321
 20
0.0912
 10
0.1536
 20
0.08459999999999999
 10
0.1633
 20
0.08160000000000001
 10
0.1536
 20
0.0786
 10
0.1321
 20
0.07199999999999999
 10
0.1106
 20
0.0655
 10
0.1009
 20
0.0625
 10
0.0979
 20
0.0527
 10
0.09130000000000001
 20
0.0312
 10
0.08459999999999999
 20
0.0098
 10
0.08160000000000001
 20
0
 10
0.07870000000000001
 20
0.0098
 10
0.0721
 20
0.0312
 10
0.0655
 20
0.0527
 10
0.0625
 20
0.0625
 10
0.0527
 20
0.0655
 10
0.0313
 20
0.07199999999999999
 10
0.0098
 20
0.0786
 10
0
 20
0.08160000000000001
 10
0.0098
 20
0.08459999999999999
 10
0.0313
 20
0.0912
 10
0.0527
 20
0.0978
 10
0.0625
 20
0.1008
 10
0.0655
 20
0.1105
 10
0.0721
 20
0.132
 10
0.07870000000000001
 20
0.1535
  0
LWPOLYLINE
  5
60
100
AcDbEntity
  8
0
  6
ByLayer
 62
  256
370
   -1
100
AcDbPolyline
 90
   32
 70
    1
 43
0
 10
0.08160000000000001
 20
0.1633
 10
0.08459999999999999
 20
0.1535
 10
0.0912
 20
0.1321
 10
0.0977
 20
0.1106
 10
0.1007
 20
0.1008
 10
0.1105
 20
0.0978
 10
0.132
 20
0.09130000000000001
 10
0.1534
 20
0.0847
 10
0.1632
 20
0.08169999999999999
 10
0.1534
 20
0.07870000000000001
 10
0.132
 20
0.0721
 10
0.1105
 20
0.0655
 10
0.1007
 20
0.0624
 10
0.0977
 20
0.0527
 10
0.0912
 20
0.0312
 10
0.08459999999999999
 20
0.0097
 10
0.08160000000000001
 20
0
 10
0.0786
 20
0.0097
 10
0.07199999999999999
 20
0.0312
 10
0.0654
 20
0.0527
 10
0.0624
 20
0.0624
 10
0.0527
 20
0.0655
 10
0.0312
 20
0.0721
 10
0.0097
 20
0.07870000000000001
 10
0
 20
0.08169999999999999
 10
0.0097
 20
0.0847
 10
0.0312
 20
0.09130000000000001
 10
0.0527
 20
0.0978
 10
0.0624
 20
0.1008
 10
0.0654
 20
0.1106
 10
0.07199999999999999
 20
0.1321
 10
0.0786
 20
0.1535
  0
LWPOLYLINE
  5
61
100
AcDbEntity
  8
0
  6
ByLayer
 62
  256
370
   -1
100
AcDbPolyline
 90
   32
 70
    1
 43
0
 10
0.1349
 20
0.1349
 10
0.148
 20
0.1309
 10
0.1767
 20
0.1221
 10
0.2054
 20
0.1133
 10
0.2184
 20
0.1093
 10
0.2054
 20
0.1053
 10
0.1767
 20
0.0964
 10
0.148
 20
0.0876
 10
0.1349
 20
0.08359999999999999
 10
0.1309
 20
0.0706
 10
0.1221
 20
0.0418
 10
0.1133
 20
0.0131
 10
0.1093
 20
0
 10
0.1052
 20
0.0131
 10
0.0964
 20
0.0418
 10
0.08749999999999999
 20
0.0706
 10
0.0835
 20
0.08359999999999999
 10
0.07049999999999999
 20
0.0876
 10
0.0418
 20
0.0964
 10
0.013
 20
0.1053
 10
0
 20
0.1093
 10
0.013
 20
0.1133
 10
0.0418
 20
0.1221
 10
0.07049999999999999
 20
0.1309
 10
0.0835
 20
0.1349
 10
0.08749999999999999
 20
0.148
 10
0.0964
 20
0.1767
 10
0.1052
 20
0.2055
 10
0.1093
 20
0.2185
 10
0.1133
 20
0.2055
 10
0.1221
 20
0.1767
 10
0.1309
 20
0.148
  0
LWPOLYLINE
  5
62
100
AcDbEntity
  8
0
  6
ByLayer
 62
  256
370
   -1
100
AcDbPolyline
 90
   32
 70
    1
 43
0
 10
0.1008
 20
0.1008
 10
0.1106
 20
0.0978
 10
0.1321
 20
0.0912
 10
0.1535
 20
0.08459999999999999
 10
0.1633
 20
0.08169999999999999
 10
0.1535
 20
0.0786
 10
0.1321
 20
0.07199999999999999
 10
0.1106
 20
0.0654
 10
0.1008
 20
0.0624
 10
0.0978
 20
0.0527
 10
0.09130000000000001
 20
0.0312
 10
0.0847
 20
0.0097
 10
0.08169999999999999
 20
0
 10
0.07870000000000001
 20
0.0097
 10
0.0721
 20
0.0312
 10
0.0654
 20
0.0527
 10
0.0624
 20
0.0624
 10
0.0527
 20
0.0654
 10
0.0312
 20
0.07199999999999999
 10
0.0097
 20
0.0786
 10
0
 20
0.08169999999999999
 10
0.0097
 20
0.08459999999999999
 10
0.0312
 20
0.0912
 10
0.0527
 20
0.0978
 10
0.0624
 20
0.1008
 10
0.0654
 20
0.1106
 10
0.0721
 20
0.132
 10
0.07870000000000001
 20
0.1535
 10
0.08169999999999999
 20
0.1633
 10
0.0847
 20
0.1535
 10
0.09130000000000001
 20
0.132
 10
0.0978
 20
0.1106
  0
LWPOLYLINE
  5
63
100
AcDbEntity
  8
0
  6
ByLayer
 62
  256
370
   -1
100
AcDbPolyline
 90
   16
 70
    1
 43
0
 10
0
 20
0.0369
 10
0.0029
 20
0.0513
 10
0.0108
 20
0.063
 10
0.0226
 20
0.0709
 10
0.037
 20
0.0738
 10
0.0513
 20
0.0709
 10
0.0631
 20
0.063
 10
0.07099999999999999
 20
0.0513
 10
0.07389999999999999
 20
0.0369
 10
0.07099999999999999
 20
0.0226
 10
0.0631
 20
0.0108
 10
0.0513
 20
0.0029
 10
0.037
 20
0
 10
0.0226
 20
0.0029
 10
0.0108
 20
0.0108
 10
0.0029
 20
0.0226
  0
LWPOLYLINE
  5
64
100
AcDbEntity
  8
0
  6
ByLayer
 62
  256
370
   -1
100
AcDbPolyline
 90
   16
 70
    1
 43
0
 10
0.0369
 20
0.07389999999999999
 10
0.0513
 20
0.07099999999999999
 10
0.063
 20
0.0631
 10
0.0709
 20
0.0514
 10
0.0738
 20
0.037
 10
0.0709
 20
0.0226
 10
0.063
 20
0.0109
 10
0.0513
 20
0.003
 10
0.0369
 20
0
 10
0.0225
 20
0.003
 10
0.0108
 20
0.0109
 10
0.0029
 20
0.0226
 10
0
 20
0.037
 10
0.0029
 20
0.0514
 10
0.0108
 20
0.0631
 10
0.0225
 20
0.07099999999999999
  0
LWPOLYLINE
  5
65
100
AcDbEntity
  8
0
  6
ByLayer
 62
  256
370
   -1
100
AcDbPolyline
 90
   16
 70
    1
 43
0
 10
0
 20
0.037
 10
0.0028
 20
0.0514
 10
0.0107
 20
0.0631
 10
0.0225
 20
0.07099999999999999
 10
0.0368
 20
0.07389999999999999
 10
0.0512
 20
0.07099999999999999
 10
0.0629
 20
0.0631
 10
0.0708
 20
0.0514
 10
0.0737
 20
0.037
 10
0.0708
 20
0.0226
 10
0.0629
 20
0.0108
 10
0.0512
 20
0.0029
 10
0.0368
 20
0
 10
0.0225
 20
0.0029
 10
0.0107
 20
0.0108
 10
0.0028
 20
0.0226
  0
LWPOLYLINE
  5
66
100
AcDbEntity
  8
0
  6
ByLayer
 62
  256
370
   -1
100
AcDbPolyline
 90
   32
 70
    1
 43
0
 10
0.07829999999999999
 20
0.0536
 10
0.076
 20
0.0452
 10
0.0709
 20
0.0268
 10
0.0658
 20
0.008399999999999999
 10
0.0635
 20
0
 10
0.0611
 20
0.008399999999999999
 10
0.056
 20
0.0268
 10
0.0509
 20
0.0452
 10
0.0486
 20
0.0536
 10
0.041
 20
0.0562
 10
0.0243
 20
0.0618
 10
0.0076
 20
0.0675
 10
0
 20
0.0701
 10
0.0076
 20
0.0726
 10
0.0243
 20
0.07829999999999999
 10
0.041
 20
0.0839
 10
0.0486
 20
0.08649999999999999
 10
0.0509
 20
0.0949
 10
0.056
 20
0.1133
 10
0.0611
 20
0.1317
 10
0.0635
 20
0.14
 10
0.0658
 20
0.1317
 10
0.0709
 20
0.1133
 10
0.076
 20
0.0949
 10
0.07829999999999999
 20
0.08649999999999999
 10
0.0859
 20
0.0839
 10
0.1025
 20
0.07829999999999999
 10
0.1192
 20
0.0726
 10
0.1268
 20
0.0701
 10
0.1192
 20
0.0675
 10
0.1025
 20
0.0618
 10
0.0859
 20
0.0562
  0
LWPOLYLINE
  5
67
100
AcDbEntity
  8
0
  6
ByLayer
 62
  256
370
   -1
100
AcDbPolyline
 90
   16
 70
    1
 43
0
 10
0.0484
 20
0.0241
 10
0.0465
 20
0.0147
 10
0.0413
 20
0.0071
 10
0.0336
 20
0.0019
 10
0.0242
 20
0
 10
0.0148
 20
0.0019
 10
0.0071
 20
0.0071
 10
0.0019
 20
0.0147
 10
0
 20
0.0241
 10
0.0019
 20
0.0336
 10
0.0071
 20
0.0413
 10
0.0148
 20
0.0465
 10
0.0242
 20
0.0484
 10
0.0336
 20
0.0465
 10
0.0413
 20
0.0413
 10
0.0465
 20
0.0336
  0
ENDSEC
  0
SECTION
  2
OBJECTS
  0
DICTIONARY
  5
C
330
0
100
AcDbDictionary
281
    1
  3
ACAD_GROUP
350
D
  0
DICTIONARY
  5
D
330
C
100
AcDbDictionary
281
    1
  0
PLOTSETTINGS
  5
68
100
AcDbPlotSettings
  6
1x1
 40
0
 41
0
 42
0
 43
0
  0
ENDSEC
  0
EOF
