999
dxfrw 0.6.3
  0
SECTION
  2
HEADER
  9
$ACADVER
  1
AC1021
  9
$DWGCODEPAGE
  3
ANSI_1252
  9
$INSBASE
 10
0
 20
0
 30
0
  9
$EXTMIN
 10
15.95541720920139
 20
-13.38276672363281
 30
0
  9
$EXTMAX
 10
17.5691663953993
 20
-5.957082960340712
 30
0
  9
$LIMMIN
 10
0
 20
0
  9
$LIMMAX
 10
12
 20
9
  9
$ORTHOMODE
 70
    0
  9
$REGENMODE
 70
    1
  9
$FILLMODE
 70
    1
  9
$QTEXTMODE
 70
    0
  9
$MIRRTEXT
 70
    1
  9
$LTSCALE
 40
1
  9
$ATTMODE
 70
    1
  9
$TEXTSIZE
 40
0.2
  9
$TRACEWID
 40
0.05
  9
$TEXTSTYLE
  7
Standard
  9
$CLAYER
  8
0
  9
$CELTYPE
  6
ByLayer
  9
$CECOLOR
 62
  256
  9
$CELTSCALE
 40
1
  9
$DISPSILH
 70
    0
  9
$DIMSCALE
 40
1
  9
$DIMASZ
 40
0.18
  9
$DIMEXO
 40
0.0625
  9
$DIMDLI
 40
0.38
  9
$DIMRND
 40
0
  9
$DIMDLE
 40
0
  9
$DIMEXE
 40
0.18
  9
$DIMTP
 40
0
  9
$DIMTM
 40
0
  9
$DIMTXT
 40
0.18
  9
$DIMCEN
 40
0.09
  9
$DIMTSZ
 40
0
  9
$DIMTOL
 70
    0
  9
$DIMLIM
 70
    0
  9
$DIMTIH
 70
    1
  9
$DIMTOH
 70
    1
  9
$DIMSE1
 70
    0
  9
$DIMSE2
 70
    0
  9
$DIMTAD
 70
    0
  9
$DIMZIN
 70
    0
  9
$DIMBLK
  1

  9
$DIMASO
 70
    1
  9
$DIMSHO
 70
    1
  9
$DIMPOST
  1

  9
$DIMAPOST
  1

  9
$DIMALT
 70
    0
  9
$DIMALTD
 70
    2
  9
$DIMALTF
 40
25.4
  9
$DIMLFAC
 40
1
  9
$DIMTOFL
 70
    0
  9
$DIMTVP
 40
0
  9
$DIMTIX
 70
    0
  9
$DIMSOXD
 70
    0
  9
$DIMSAH
 70
    0
  9
$DIMBLK1
  1

  9
$DIMBLK2
  1

  9
$DIMSTYLE
  2
Standard
  9
$DIMCLRD
 70
    0
  9
$DIMCLRE
 70
    0
  9
$DIMCLRT
 70
    0
  9
$DIMTFAC
 40
1
  9
$DIMGAP
 40
0.09
  9
$DIMJUST
 70
    0
  9
$DIMSD1
 70
    0
  9
$DIMSD2
 70
    0
  9
$DIMTOLJ
 70
    1
  9
$DIMTZIN
 70
    0
  9
$DIMALTZ
 70
    0
  9
$DIMALTTZ
 70
    0
  9
$DIMUPT
 70
    0
  9
$DIMDEC
 70
    4
  9
$DIMTDEC
 70
    4
  9
$DIMALTU
 70
    2
  9
$DIMALTTD
 70
    2
  9
$DIMTXSTY
  7
Standard
  9
$DIMAUNIT
 70
    0
  9
$DIMADEC
 70
    0
  9
$DIMALTRND
 40
0
  9
$DIMAZIN
 70
    0
  9
$DIMDSEP
 70
   46
  9
$DIMATFIT
 70
    3
  9
$DIMFRAC
 70
    0
  9
$DIMLDRBLK
  1

  9
$DIMLUNIT
 70
    2
  9
$DIMLWD
 70
   -2
  9
$DIMLWE
 70
   -2
  9
$DIMTMOVE
 70
    0
  9
$DIMFXL
 40
1
  9
$DIMFXLON
 70
    0
  9
$DIMJOGANG
 40
0.7853981633974483
  9
$DIMTFILL
 70
    0
  9
$DIMTFILLCLR
 70
    0
  9
$DIMARCSYM
 70
    0
  9
$DIMLTYPE
  6

  9
$DIMLTEX1
  6

  9
$DIMLTEX2
  6

  9
$LUNITS
 70
    2
  9
$LUPREC
 70
    4
  9
$SKETCHINC
 40
0.1
  9
$FILLETRAD
 40
0.5
  9
$AUNITS
 70
    0
  9
$AUPREC
 70
    0
  9
$MENU
  1
.
  9
$ELEVATION
 40
0
  9
$PELEVATION
 40
0
  9
$THICKNESS
 40
0
  9
$LIMCHECK
 70
    0
  9
$CHAMFERA
 40
0.5
  9
$CHAMFERB
 40
0.5
  9
$CHAMFERC
 40
1
  9
$CHAMFERD
 40
0
  9
$SKPOLY
 70
    0
  9
$USRTIMER
 70
    1
  9
$ANGBASE
 50
0
  9
$ANGDIR
 70
    0
  9
$PDMODE
 70
    0
  9
$PDSIZE
 40
0
  9
$PLINEWID
 40
0
  9
$SPLFRAME
 70
    0
  9
$SPLINETYPE
 70
    6
  9
$SPLINESEGS
 70
    8
  9
$HANDSEED
  5
20000
  9
$SURFTAB1
 70
    6
  9
$SURFTAB2
 70
    6
  9
$SURFTYPE
 70
    6
  9
$SURFU
 70
    6
  9
$SURFV
 70
    6
  9
$UCSBASE
  2

  9
$UCSNAME
  2

  9
$UCSORG
 10
0
 20
0
 30
0
  9
$UCSXDIR
 10
1
 20
0
 30
0
  9
$UCSYDIR
 10
0
 20
1
 30
0
  9
$UCSORTHOREF
  2

  9
$UCSORTHOVIEW
 70
    0
  9
$UCSORGTOP
 10
0
 20
0
 30
0
  9
$UCSORGBOTTOM
 10
0
 20
0
 30
0
  9
$UCSORGLEFT
 10
0
 20
0
 30
0
  9
$UCSORGRIGHT
 10
0
 20
0
 30
0
  9
$UCSORGFRONT
 10
0
 20
0
 30
0
  9
$UCSORGBACK
 10
0
 20
0
 30
0
  9
$PUCSBASE
  2

  9
$PUCSNAME
  2

  9
$PUCSORG
 10
0
 20
0
 30
0
  9
$PUCSXDIR
 10
1
 20
0
 30
0
  9
$PUCSYDIR
 10
0
 20
1
 30
0
  9
$PUCSORTHOREF
  2

  9
$PUCSORTHOVIEW
 70
    0
  9
$PUCSORGTOP
 10
0
 20
0
 30
0
  9
$PUCSORGBOTTOM
 10
0
 20
0
 30
0
  9
$PUCSORGLEFT
 10
0
 20
0
 30
0
  9
$PUCSORGRIGHT
 10
0
 20
0
 30
0
  9
$PUCSORGFRONT
 10
0
 20
0
 30
0
  9
$PUCSORGBACK
 10
0
 20
0
 30
0
  9
$USERI1
 70
    0
  9
$USERI2
 70
    0
  9
$USERI3
 70
    0
  9
$USERI4
 70
    0
  9
$USERI5
 70
    0
  9
$USERR1
 40
0
  9
$USERR2
 40
0
  9
$USERR3
 40
0
  9
$USERR4
 40
0
  9
$USERR5
 40
0
  9
$WORLDVIEW
 70
    1
  9
$SHADEDGE
 70
    3
  9
$SHADEDIF
 70
   70
  9
$TILEMODE
 70
    1
  9
$MAXACTVP
 70
   64
  9
$PINSBASE
 10
0
 20
0
 30
0
  9
$PLIMCHECK
 70
    0
  9
$PEXTMIN
 10
1e+20
 20
1e+20
 30
1e+20
  9
$PEXTMAX
 10
-1e+20
 20
-1e+20
 30
-1e+20
  9
$GRIDMODE
 70
    0
  9
$SNAPSTYLE
 70
    0
  9
$PLIMMIN
 10
0
 20
0
  9
$PLIMMAX
 10
12
 20
9
  9
$UNITMODE
 70
    0
  9
$VISRETAIN
 70
    1
  9
$PLINEGEN
 70
    0
  9
$PSLTSCALE
 70
    1
  9
$TREEDEPTH
 70
 3020
  9
$CMLSTYLE
  2
Standard
  9
$CMLJUST
 70
    0
  9
$CMLSCALE
 40
1
  9
$PROXYGRAPHICS
 70
    1
  9
$MEASUREMENT
 70
    0
  9
$CELWEIGHT
370
   -1
  9
$ENDCAPS
280
    0
  9
$JOINSTYLE
280
    0
  9
$LWDISPLAY
290
    1
  9
$INSUNITS
 70
    1
  9
$HYPERLINKBASE
  1

  9
$STYLESHEET
  1

  9
$XEDIT
290
    1
  9
$CEPSNTYPE
380
    0
  9
$PSTYLEMODE
290
    1
  9
$EXTNAMES
290
    1
  9
$PSVPSCALE
 40
0
  9
$OLESTARTUP
290
    0
  9
$SORTENTS
280
  127
  9
$INDEXCTL
280
    0
  9
$HIDETEXT
280
    1
  9
$XCLIPFRAME
290
    2
  9
$HALOGAP
280
    0
  9
$OBSCOLOR
 70
  257
  9
$OBSLTYPE
280
    0
  9
$INTERSECTIONDISPLAY
280
    0
  9
$INTERSECTIONCOLOR
 70
  257
  9
$DIMASSOC
280
    2
  9
$PROJECTNAME
  1

  9
$CAMERADISPLAY
290
    0
  9
$LENSLENGTH
 40
50
  9
$CAMERAHEIGHT
 40
0
  9
$STEPSPERSEC
 40
2
  9
$STEPSIZE
 40
6
  9
$3DDWFPREC
 40
2
  9
$PSOLWIDTH
 40
0.25
  9
$PSOLHEIGHT
 40
4
  9
$LOFTANG1
 40
1.570796326794897
  9
$LOFTANG2
 40
1.570796326794897
  9
$LOFTMAG1
 40
0
  9
$LOFTMAG2
 40
0
  9
$LOFTPARAM
 70
    7
  9
$LOFTNORMALS
280
    1
  9
$LATITUDE
 40
37.795
  9
$LONGITUDE
 40
-122.394
  9
$NORTHDIRECTION
 40
0
  9
$TIMEZONE
 70
-8000
  9
$LIGHTGLYPHDISPLAY
280
    1
  9
$TILEMODELIGHTSYNCH
280
    1
  9
$SOLIDHIST
280
    1
  9
$SHOWHIST
280
    1
  9
$DWFFRAME
280
    2
  9
$DGNFRAME
280
    2
  9
$REALWORLDSCALE
290
    1
  9
$INTERFERECOLOR
 62
  256
  9
$CSHADOW
280
    0
  9
$SHADOWPLANELOCATION
 40
0
  0
ENDSEC
  0
SECTION
  2
CLASSES
  0
ENDSEC
  0
SECTION
  2
TABLES
  0
TABLE
  2
VPORT
  5
8
330
0
100
AcDbSymbolTable
 70
    1
  0
VPORT
  5
31
330
2
100
AcDbSymbolTableRecord
100
AcDbViewportTableRecord
  2
*ACTIVE
 70
    0
 10
0
 20
0
 11
1
 21
1
 12
13.96263690744273
 22
7.452904203575391
 13
0
 23
0
 14
10
 24
10
 15
10
 25
10
 16
0
 26
0
 36
1
 17
0
 27
0
 37
0
 40
45.60511604470698
 41
1.576642335766423
 42
50
 43
0
 44
0
 50
0
 51
0
 71
    0
 72
  100
 73
    1
 74
    3
 75
    0
 76
    0
 77
    0
 78
    0
281
    0
 65
    1
110
0
120
0
130
0
111
1
121
0
131
0
112
0
122
1
132
0
 79
    0
146
0
348
10020
 60
    7
 61
    5
292
1
282
    1
141
0
142
0
 63
  250
421
3358443
  0
ENDTAB
  0
TABLE
  2
LTYPE
  5
5
330
0
100
AcDbSymbolTable
 70
    4
  0
LTYPE
  5
14
330
5
100
AcDbSymbolTableRecord
100
AcDbLinetypeTableRecord
  2
ByBlock
 70
    0
  3

 72
   65
 73
    0
 40
0
  0
LTYPE
  5
15
330
5
100
AcDbSymbolTableRecord
100
AcDbLinetypeTableRecord
  2
ByLayer
 70
    0
  3

 72
   65
 73
    0
 40
0
  0
LTYPE
  5
16
330
5
100
AcDbSymbolTableRecord
100
AcDbLinetypeTableRecord
  2
Continuous
 70
    0
  3
Solid line
 72
   65
 73
    0
 40
0
  0
LTYPE
  5
32
330
5
100
AcDbSymbolTableRecord
100
AcDbLinetypeTableRecord
  2
DOT
 70
    0
  3
Dot . . . . . . . . . . . . . . . . . . . . . .
 72
   65
 73
    2
 40
6.35
 49
0
 74
    0
 49
-6.35
 74
    0
  0
LTYPE
  5
33
330
5
100
AcDbSymbolTableRecord
100
AcDbLinetypeTableRecord
  2
DOTTINY
 70
    0
  3
Dot (.15x) .....................................
 72
   65
 73
    2
 40
0.9525
 49
0
 74
    0
 49
-0.9525
 74
    0
  0
LTYPE
  5
34
330
5
100
AcDbSymbolTableRecord
100
AcDbLinetypeTableRecord
  2
DOT2
 70
    0
  3
Dot (.5x) .....................................
 72
   65
 73
    2
 40
3.175
 49
0
 74
    0
 49
-3.175
 74
    0
  0
LTYPE
  5
35
330
5
100
AcDbSymbolTableRecord
100
AcDbLinetypeTableRecord
  2
DOTX2
 70
    0
  3
Dot (2x) .  .  .  .  .  .  .  .  .  .  .  .  .
 72
   65
 73
    2
 40
12.7
 49
0
 74
    0
 49
-12.7
 74
    0
  0
LTYPE
  5
36
330
5
100
AcDbSymbolTableRecord
100
AcDbLinetypeTableRecord
  2
DASHED
 70
    0
  3
Dashed _ _ _ _ _ _ _ _ _ _ _ _ _ _ _ _ _
 72
   65
 73
    2
 40
19.05
 49
12.7
 74
    0
 49
-6.35
 74
    0
  0
LTYPE
  5
37
330
5
100
AcDbSymbolTableRecord
100
AcDbLinetypeTableRecord
  2
DASHEDTINY
 70
    0
  3
Dashed (.15x) _ _ _ _ _ _ _ _ _ _ _ _ _ _ _ _ _
 72
   65
 73
    2
 40
2.8575
 49
1.905
 74
    0
 49
-0.9525
 74
    0
  0
LTYPE
  5
38
330
5
100
AcDbSymbolTableRecord
100
AcDbLinetypeTableRecord
  2
DASHED2
 70
    0
  3
Dashed (.5x) _ _ _ _ _ _ _ _ _ _ _ _ _ _ _ _ _
 72
   65
 73
    2
 40
9.524999999999999
 49
6.35
 74
    0
 49
-3.175
 74
    0
  0
LTYPE
  5
39
330
5
100
AcDbSymbolTableRecord
100
AcDbLinetypeTableRecord
  2
DASHEDX2
 70
    0
  3
Dashed (2x) ____  ____  ____  ____  ____  ___
 72
   65
 73
    2
 40
38.09999999999999
 49
25.4
 74
    0
 49
-12.7
 74
    0
  0
LTYPE
  5
3A
330
5
100
AcDbSymbolTableRecord
100
AcDbLinetypeTableRecord
  2
DASHDOT
 70
    0
  3
Dash dot __ . __ . __ . __ . __ . __ . __ . __
 72
   65
 73
    4
 40
25.4
 49
12.7
 74
    0
 49
-6.35
 74
    0
 49
0
 74
    0
 49
-6.35
 74
    0
  0
LTYPE
  5
3B
330
5
100
AcDbSymbolTableRecord
100
AcDbLinetypeTableRecord
  2
DASHDOTTINY
 70
    0
  3
Dash dot (.15x) _._._._._._._._._._._._._._._.
 72
   65
 73
    4
 40
3.81
 49
1.905
 74
    0
 49
-0.9525
 74
    0
 49
0
 74
    0
 49
-0.9525
 74
    0
  0
LTYPE
  5
3C
330
5
100
AcDbSymbolTableRecord
100
AcDbLinetypeTableRecord
  2
DASHDOT2
 70
    0
  3
Dash dot (.5x) _._._._._._._._._._._._._._._.
 72
   65
 73
    4
 40
12.7
 49
6.35
 74
    0
 49
-3.175
 74
    0
 49
0
 74
    0
 49
-3.175
 74
    0
  0
LTYPE
  5
3D
330
5
100
AcDbSymbolTableRecord
100
AcDbLinetypeTableRecord
  2
DASHDOTX2
 70
    0
  3
Dash dot (2x) ____  .  ____  .  ____  .  ___
 72
   65
 73
    4
 40
50.8
 49
25.4
 74
    0
 49
-12.7
 74
    0
 49
0
 74
    0
 49
-12.7
 74
    0
  0
LTYPE
  5
3E
330
5
100
AcDbSymbolTableRecord
100
AcDbLinetypeTableRecord
  2
DIVIDE
 70
    0
  3
Divide ____ . . ____ . . ____ . . ____ . . ____
 72
   65
 73
    6
 40
31.75
 49
12.7
 74
    0
 49
-6.35
 74
    0
 49
0
 74
    0
 49
-6.35
 74
    0
 49
0
 74
    0
 49
-6.35
 74
    0
  0
LTYPE
  5
3F
330
5
100
AcDbSymbolTableRecord
100
AcDbLinetypeTableRecord
  2
DIVIDETINY
 70
    0
  3
Divide (.15x) __..__..__..__..__..__..__..__.._
 72
   65
 73
    6
 40
4.7625
 49
1.905
 74
    0
 49
-0.9525
 74
    0
 49
0
 74
    0
 49
-0.9525
 74
    0
 49
0
 74
    0
 49
-0.9525
 74
    0
  0
LTYPE
  5
40
330
5
100
AcDbSymbolTableRecord
100
AcDbLinetypeTableRecord
  2
DIVIDE2
 70
    0
  3
Divide (.5x) __..__..__..__..__..__..__..__.._
 72
   65
 73
    6
 40
15.875
 49
6.35
 74
    0
 49
-3.175
 74
    0
 49
0
 74
    0
 49
-3.175
 74
    0
 49
0
 74
    0
 49
-3.175
 74
    0
  0
LTYPE
  5
41
330
5
100
AcDbSymbolTableRecord
100
AcDbLinetypeTableRecord
  2
DIVIDEX2
 70
    0
  3
Divide (2x) ________  .  .  ________  .  .  _
 72
   65
 73
    6
 40
63.5
 49
25.4
 74
    0
 49
-12.7
 74
    0
 49
0
 74
    0
 49
-12.7
 74
    0
 49
0
 74
    0
 49
-12.7
 74
    0
  0
LTYPE
  5
42
330
5
100
AcDbSymbolTableRecord
100
AcDbLinetypeTableRecord
  2
BORDER
 70
    0
  3
Border __ __ . __ __ . __ __ . __ __ . __ __ .
 72
   65
 73
    6
 40
44.45
 49
12.7
 74
    0
 49
-6.35
 74
    0
 49
12.7
 74
    0
 49
-6.35
 74
    0
 49
0
 74
    0
 49
-6.35
 74
    0
  0
LTYPE
  5
43
330
5
100
AcDbSymbolTableRecord
100
AcDbLinetypeTableRecord
  2
BORDERTINY
 70
    0
  3
Border (.15x) __.__.__.__.__.__.__.__.__.__.__.
 72
   65
 73
    6
 40
6.6675
 49
1.905
 74
    0
 49
-0.9525
 74
    0
 49
1.905
 74
    0
 49
-0.9525
 74
    0
 49
0
 74
    0
 49
-0.9525
 74
    0
  0
LTYPE
  5
44
330
5
100
AcDbSymbolTableRecord
100
AcDbLinetypeTableRecord
  2
BORDER2
 70
    0
  3
Border (.5x) __.__.__.__.__.__.__.__.__.__.__.
 72
   65
 73
    6
 40
22.225
 49
6.35
 74
    0
 49
-3.175
 74
    0
 49
6.35
 74
    0
 49
-3.175
 74
    0
 49
0
 74
    0
 49
-3.175
 74
    0
  0
LTYPE
  5
45
330
5
100
AcDbSymbolTableRecord
100
AcDbLinetypeTableRecord
  2
BORDERX2
 70
    0
  3
Border (2x) ____  ____  .  ____  ____  .  ___
 72
   65
 73
    6
 40
88.89999999999999
 49
25.4
 74
    0
 49
-12.7
 74
    0
 49
25.4
 74
    0
 49
-12.7
 74
    0
 49
0
 74
    0
 49
-12.7
 74
    0
  0
LTYPE
  5
46
330
5
100
AcDbSymbolTableRecord
100
AcDbLinetypeTableRecord
  2
CENTER
 70
    0
  3
Center ____ _ ____ _ ____ _ ____ _ ____ _ ____
 72
   65
 73
    4
 40
50.8
 49
31.75
 74
    0
 49
-6.35
 74
    0
 49
6.35
 74
    0
 49
-6.35
 74
    0
  0
LTYPE
  5
47
330
5
100
AcDbSymbolTableRecord
100
AcDbLinetypeTableRecord
  2
CENTERTINY
 70
    0
  3
Center (.15x) ___ _ ___ _ ___ _ ___ _ ___ _ ___
 72
   65
 73
    4
 40
7.619999999999999
 49
4.7625
 74
    0
 49
-0.9525
 74
    0
 49
0.9525
 74
    0
 49
-0.9525
 74
    0
  0
LTYPE
  5
48
330
5
100
AcDbSymbolTableRecord
100
AcDbLinetypeTableRecord
  2
CENTER2
 70
    0
  3
Center (.5x) ___ _ ___ _ ___ _ ___ _ ___ _ ___
 72
   65
 73
    4
 40
28.575
 49
19.05
 74
    0
 49
-3.175
 74
    0
 49
3.175
 74
    0
 49
-3.175
 74
    0
  0
LTYPE
  5
49
330
5
100
AcDbSymbolTableRecord
100
AcDbLinetypeTableRecord
  2
CENTERX2
 70
    0
  3
Center (2x) ________  __  ________  __  _____
 72
   65
 73
    4
 40
101.6
 49
63.5
 74
    0
 49
-12.7
 74
    0
 49
12.7
 74
    0
 49
-12.7
 74
    0
  0
ENDTAB
  0
TABLE
  2
LAYER
  5
2
330
0
100
AcDbSymbolTable
 70
    1
  0
LAYER
  5
10
330
2
100
AcDbSymbolTableRecord
100
AcDbLayerTableRecord
  2
0
 70
    0
 62
    7
  6
CONTINUOUS
370
   -3
390
F
  0
LAYER
  5
4A
330
2
100
AcDbSymbolTableRecord
100
AcDbLayerTableRecord
  2
Layer 1
 70
    0
 62
    7
  6
CONTINUOUS
370
   -3
390
F
  0
ENDTAB
  0
TABLE
  2
STYLE
  5
3
330
0
100
AcDbSymbolTable
 70
    3
  0
STYLE
  5
4B
330
2
100
AcDbSymbolTableRecord
100
AcDbTextStyleTableRecord
  2
Standard
 70
    0
 40
0
 41
1
 50
0
 71
    0
 42
1
  3
txt
  4

  0
ENDTAB
  0
TABLE
  2
VIEW
  5
6
330
0
100
AcDbSymbolTable
 70
    0
  0
ENDTAB
  0
TABLE
  2
UCS
  5
7
330
0
100
AcDbSymbolTable
 70
    0
  0
ENDTAB
  0
TABLE
  2
APPID
  5
9
330
0
100
AcDbSymbolTable
 70
    1
  0
APPID
  5
12
330
9
100
AcDbSymbolTableRecord
100
AcDbRegAppTableRecord
  2
ACAD
 70
    0
  0
APPID
  5
4C
330
9
100
AcDbSymbolTableRecord
100
AcDbRegAppTableRecord
  2
LibreCad
 70
    0
  0
ENDTAB
  0
TABLE
  2
DIMSTYLE
  5
A
330
0
100
AcDbSymbolTable
 70
    1
100
AcDbDimStyleTable
 71
    1
  0
DIMSTYLE
105
4D
330
A
100
AcDbSymbolTableRecord
100
AcDbDimStyleTableRecord
  2
Standard
 70
    0
 40
1
 41
0.18
 42
0.0625
 43
0.38
 44
0.18
 45
0
 46
0
 47
0
 48
0
 49
1
140
0.18
141
0.09
142
0
143
25.4
144
1
145
0
146
1
147
0.09
148
0
 71
    0
 72
    0
 73
    1
 74
    1
 75
    0
 76
    0
 77
    0
 78
    0
 79
    0
170
    0
171
    2
172
    0
173
    0
174
    0
175
    0
176
    0
177
    0
178
    0
179
    0
271
    4
272
    4
273
    2
274
    2
275
    0
276
    0
277
    2
278
   46
279
    0
280
    0
281
    0
282
    0
283
    1
284
    0
285
    0
286
    0
288
    0
289
    3
340
4B
  0
ENDTAB
  0
TABLE
  2
BLOCK_RECORD
  5
1
330
0
100
AcDbSymbolTable
 70
    2
  0
BLOCK_RECORD
  5
1F
330
1
100
AcDbSymbolTableRecord
100
AcDbBlockTableRecord
  2
*Model_Space
 70
    0
280
    1
281
    0
  0
BLOCK_RECORD
  5
1E
330
1
100
AcDbSymbolTableRecord
100
AcDbBlockTableRecord
  2
*Paper_Space
 70
    0
280
    1
281
    0
  0
BLOCK_RECORD
  5
4E
330
1
100
AcDbSymbolTableRecord
100
AcDbBlockTableRecord
  2
block 2
 70
    0
280
    1
281
    0
  0
BLOCK_RECORD
  5
51
330
1
100
AcDbSymbolTableRecord
100
AcDbBlockTableRecord
  2
block 3
 70
    0
280
    1
281
    0
  0
ENDTAB
  0
ENDSEC
  0
SECTION
  2
BLOCKS
  0
BLOCK
  5
20
330
1F
100
AcDbEntity
  8
0
100
AcDbBlockBegin
  2
*Model_Space
 70
    0
 10
0
 20
0
 30
0
  3
*Model_Space
  1

  0
ENDBLK
  5
21
330
1F
100
AcDbEntity
  8
0
100
AcDbBlockEnd
  0
BLOCK
  5
1C
330
1B
100
AcDbEntity
  8
0
100
AcDbBlockBegin
  2
*Paper_Space
 70
    0
 10
0
 20
0
 30
0
  3
*Paper_Space
  1

  0
ENDBLK
  5
1D
330
1F
100
AcDbEntity
  8
0
100
AcDbBlockEnd
  0
BLOCK
  5
4F
330
4E
100
AcDbEntity
  8
0
100
AcDbBlockBegin
  2
block 2
 70
    0
 10
0
 20
0
  3
block 2
  1

  0
LWPOLYLINE
  5
54
100
AcDbEntity
  8
Layer 1
  6
ByLayer
 62
  255
370
    9
100
AcDbPolyline
 90
   13
 70
    0
 43
0
 10
8.704861111111111
 20
-7.875
 10
8.781941731770832
 20
-6.379163953993055
 10
9.269443088107638
 20
-6.379163953993055
 10
9.2611083984375
 20
-6.560411241319444
 10
8.969441731770832
 20
-6.560411241319444
 10
8.944444444444445
 20
-7.014580620659721
 10
9.202779134114582
 20
-7.014580620659721
 10
9.194444444444445
 20
-7.195827907986111
 10
8.936109754774305
 20
-7.195827907986111
 10
8.909030490451388
 20
-7.693752712673611
 10
9.200697157118055
 20
-7.693752712673611
 10
9.192362467447916
 20
-7.875
 10
8.704861111111111
 20
-7.875
  0
LWPOLYLINE
  5
55
100
AcDbEntity
  8
Layer 1
  6
ByLayer
 62
  255
370
    9
100
AcDbPolyline
 90
   12
 70
    0
 43
0
 10
9.77777099609375
 20
-7.102077907986111
 10
9.815266927083332
 20
-6.379163953993055
 10
10.01110161675347
 20
-6.379163953993055
 10
9.93402099609375
 20
-7.875
 10
9.738186306423611
 20
-7.875
 10
9.752766927083332
 20
-7.577080620659721
 10
9.577772352430555
 20
-6.895833333333333
 10
9.52777099609375
 20
-7.875
 10
9.331936306423611
 20
-7.875
 10
9.409016927083332
 20
-6.379163953993055
 10
9.604851616753471
 20
-6.379163953993055
 10
9.77777099609375
 20
-7.102077907986111
  0
SPLINE
  5
56
100
AcDbEntity
  8
Layer 1
  6
ByLayer
 62
  255
370
    9
100
AcDbSpline
210
0
220
0
230
0
 70
 4096
 71
    3
 72
   65
 73
   61
 74
    0
 42
1e-07
 43
1e-07
 40
0
 40
0
 40
0
 40
0
 40
1
 40
1
 40
1
 40
2
 40
2
 40
2
 40
3
 40
3
 40
3
 40
4
 40
4
 40
4
 40
5
 40
5
 40
5
 40
6
 40
6
 40
6
 40
7
 40
7
 40
7
 40
8
 40
8
 40
8
 40
9
 40
9
 40
9
 40
10
 40
10
 40
10
 40
11
 40
11
 40
11
 40
12
 40
12
 40
12
 40
13
 40
13
 40
13
 40
14
 40
14
 40
14
 40
15
 40
15
 40
15
 40
16
 40
16
 40
16
 40
17
 40
17
 40
17
 40
18
 40
18
 40
18
 40
19
 40
19
 40
19
 40
20
 40
20
 40
20
 40
20
 10
10.44651963975694
 20
-7.327080620659721
 30
0
 10
10.44651963975694
 20
-7.327080620659721
 30
0
 10
10.45693630642361
 20
-7.145833333333333
 30
0
 10
10.45693630642361
 20
-7.145833333333333
 30
0
 10
10.45693630642361
 20
-7.145833333333333
 30
0
 10
10.75484890407986
 20
-7.145833333333333
 30
0
 10
10.75484890407986
 20
-7.145833333333333
 30
0
 10
10.75484890407986
 20
-7.145833333333333
 30
0
 10
10.71735297309028
 20
-7.875
 30
0
 10
10.71735297309028
 20
-7.875
 30
0
 10
10.71735297309028
 20
-7.875
 30
0
 10
10.33401828342014
 20
-7.875
 30
0
 10
10.33401828342014
 20
-7.875
 30
0
 10
10.1826171875
 20
-7.875
 30
0
 10
10.11109754774306
 20
-7.790988498263888
 30
0
 10
10.11943223741319
 20
-7.622911241319444
 30
0
 10
10.11943223741319
 20
-7.622911241319444
 30
0
 10
10.17151557074653
 20
-6.635416666666666
 30
0
 10
10.17151557074653
 20
-6.635416666666666
 30
0
 10
10.17985026041667
 20
-6.464586046006944
 30
0
 10
10.25969780815972
 20
-6.379163953993055
 30
0
 10
10.41109890407986
 20
-6.379163953993055
 30
0
 10
10.41109890407986
 20
-6.379163953993055
 30
0
 10
10.54443359375
 20
-6.379163953993055
 30
0
 10
10.54443359375
 20
-6.379163953993055
 30
0
 10
10.71110026041667
 20
-6.379163953993055
 30
0
 10
10.79026963975694
 20
-6.465983072916666
 30
0
 10
10.78193495008681
 20
-6.639580620659721
 30
0
 10
10.78193495008681
 20
-6.639580620659721
 30
0
 10
10.77360026041667
 20
-6.802083333333333
 30
0
 10
10.77360026041667
 20
-6.802083333333333
 30
0
 10
10.77360026041667
 20
-6.802083333333333
 30
0
 10
10.57776557074653
 20
-6.802083333333333
 30
0
 10
10.57776557074653
 20
-6.802083333333333
 30
0
 10
10.57776557074653
 20
-6.802083333333333
 30
0
 10
10.58401828342014
 20
-6.668755425347221
 30
0
 10
10.58401828342014
 20
-6.668755425347221
 30
0
 10
10.58818223741319
 20
-6.596544053819444
 30
0
 10
10.56246609157986
 20
-6.560411241319444
 30
0
 10
10.50693088107639
 20
-6.560411241319444
 30
0
 10
10.50693088107639
 20
-6.560411241319444
 30
0
 10
10.45693630642361
 20
-6.560411241319444
 30
0
 10
10.45693630642361
 20
-6.560411241319444
 30
0
 10
10.39997016059028
 20
-6.560411241319444
 30
0
 10
10.36943223741319
 20
-6.596544053819444
 30
0
 10
10.36526828342014
 20
-6.668755425347221
 30
0
 10
10.36526828342014
 20
-6.668755425347221
 30
0
 10
10.31734890407986
 20
-7.585422092013888
 30
0
 10
10.31734890407986
 20
-7.585422092013888
 30
0
 10
10.31318495008681
 20
-7.657647026909721
 30
0
 10
10.33955213758681
 20
-7.693752712673611
 30
0
 10
10.39651828342014
 20
-7.693752712673611
 30
0
 10
10.39651828342014
 20
-7.693752712673611
 30
0
 10
10.52985297309028
 20
-7.693752712673611
 30
0
 10
10.52985297309028
 20
-7.693752712673611
 30
0
 10
10.52985297309028
 20
-7.693752712673611
 30
0
 10
10.54859754774306
 20
-7.327080620659721
 30
0
 10
10.54859754774306
 20
-7.327080620659721
 30
0
 10
10.54859754774306
 20
-7.327080620659721
 30
0
 10
10.44651963975694
 20
-7.327080620659721
 30
0
 10
10.44651963975694
 20
-7.327080620659721
 30
0
  0
LWPOLYLINE
  5
57
100
AcDbEntity
  8
Layer 1
  6
ByLayer
 62
  255
370
    9
100
AcDbPolyline
 90
    5
 70
    0
 43
0
 10
10.87774658203125
 20
-7.875
 10
10.95482720269097
 20
-6.379163953993055
 10
11.15066189236111
 20
-6.379163953993055
 10
11.07358127170139
 20
-7.875
 10
10.87774658203125
 20
-7.875
  0
LWPOLYLINE
  5
58
100
AcDbEntity
  8
Layer 1
  6
ByLayer
 62
  255
370
    9
100
AcDbPolyline
 90
   12
 70
    0
 43
0
 10
11.70273166232639
 20
-7.102077907986111
 10
11.74022759331597
 20
-6.379163953993055
 10
11.93606228298611
 20
-6.379163953993055
 10
11.85898166232639
 20
-7.875
 10
11.66314697265625
 20
-7.875
 10
11.67772759331597
 20
-7.577080620659721
 10
11.50273301866319
 20
-6.895833333333333
 10
11.45273166232639
 20
-7.875
 10
11.25689697265625
 20
-7.875
 10
11.33397759331597
 20
-6.379163953993055
 10
11.52981228298611
 20
-6.379163953993055
 10
11.70273166232639
 20
-7.102077907986111
  0
LWPOLYLINE
  5
59
100
AcDbEntity
  8
Layer 1
  6
ByLayer
 62
  255
370
    9
100
AcDbPolyline
 90
   13
 70
    0
 43
0
 10
12.04231092664931
 20
-7.875
 10
12.11939154730903
 20
-6.379163953993055
 10
12.60689290364583
 20
-6.379163953993055
 10
12.59855821397569
 20
-6.560411241319444
 10
12.30689154730903
 20
-6.560411241319444
 10
12.28189425998264
 20
-7.014580620659721
 10
12.54022894965278
 20
-7.014580620659721
 10
12.53189425998264
 20
-7.195827907986111
 10
12.2735595703125
 20
-7.195827907986111
 10
12.24648030598958
 20
-7.693752712673611
 10
12.53814697265625
 20
-7.693752712673611
 10
12.52981228298611
 20
-7.875
 10
12.04231092664931
 20
-7.875
  0
LWPOLYLINE
  5
5A
100
AcDbEntity
  8
Layer 1
  6
ByLayer
 62
  255
370
    9
100
AcDbPolyline
 90
   13
 70
    0
 43
0
 10
12.66938612196181
 20
-7.875
 10
12.74646674262153
 20
-6.379163953993055
 10
13.23396809895833
 20
-6.379163953993055
 10
13.22563340928819
 20
-6.560411241319444
 10
12.93396674262153
 20
-6.560411241319444
 10
12.90896945529514
 20
-7.014580620659721
 10
13.16730414496528
 20
-7.014580620659721
 10
13.15896945529514
 20
-7.195827907986111
 10
12.900634765625
 20
-7.195827907986111
 10
12.87355550130208
 20
-7.693752712673611
 10
13.16522216796875
 20
-7.693752712673611
 10
13.15688747829861
 20
-7.875
 10
12.66938612196181
 20
-7.875
  0
SPLINE
  5
5B
100
AcDbEntity
  8
Layer 1
  6
ByLayer
 62
  255
370
    9
100
AcDbSpline
210
0
220
0
230
0
 70
 4096
 71
    3
 72
   38
 73
   34
 74
    0
 42
1e-07
 43
1e-07
 40
0
 40
0
 40
0
 40
0
 40
1
 40
1
 40
1
 40
2
 40
2
 40
2
 40
3
 40
3
 40
3
 40
4
 40
4
 40
4
 40
5
 40
5
 40
5
 40
6
 40
6
 40
6
 40
7
 40
7
 40
7
 40
8
 40
8
 40
8
 40
9
 40
9
 40
9
 40
10
 40
10
 40
10
 40
11
 40
11
 40
11
 40
11
 10
13.37354193793403
 20
-6.379163953993055
 30
0
 10
13.37354193793403
 20
-6.379163953993055
 30
0
 10
13.75687662760417
 20
-6.379163953993055
 30
0
 10
13.75687662760417
 20
-6.379163953993055
 30
0
 10
13.90688069661458
 20
-6.379163953993055
 30
0
 10
13.97770860460069
 20
-6.464586046006944
 30
0
 10
13.96938069661458
 20
-6.635416666666666
 30
0
 10
13.96938069661458
 20
-6.635416666666666
 30
0
 10
13.95062934027778
 20
-7.004163953993055
 30
0
 10
13.95062934027778
 20
-7.004163953993055
 30
0
 10
13.94366455078125
 20
-7.134738498263888
 30
0
 10
13.89990912543403
 20
-7.217380099826388
 30
0
 10
13.81937662760417
 20
-7.252088758680555
 30
0
 10
13.81937662760417
 20
-7.252088758680555
 30
0
 10
13.92562527126736
 20
-7.875
 30
0
 10
13.92562527126736
 20
-7.875
 30
0
 10
13.92562527126736
 20
-7.875
 30
0
 10
13.74021402994792
 20
-7.875
 30
0
 10
13.74021402994792
 20
-7.875
 30
0
 10
13.74021402994792
 20
-7.875
 30
0
 10
13.64229329427083
 20
-7.270833333333333
 30
0
 10
13.64229329427083
 20
-7.270833333333333
 30
0
 10
13.64229329427083
 20
-7.270833333333333
 30
0
 10
13.52354600694444
 20
-7.270833333333333
 30
0
 10
13.52354600694444
 20
-7.270833333333333
 30
0
 10
13.52354600694444
 20
-7.270833333333333
 30
0
 10
13.49229600694444
 20
-7.875
 30
0
 10
13.49229600694444
 20
-7.875
 30
0
 10
13.49229600694444
 20
-7.875
 30
0
 10
13.29646131727431
 20
-7.875
 30
0
 10
13.29646131727431
 20
-7.875
 30
0
 10
13.29646131727431
 20
-7.875
 30
0
 10
13.37354193793403
 20
-6.379163953993055
 30
0
 10
13.37354193793403
 20
-6.379163953993055
 30
0
  0
SPLINE
  5
5C
100
AcDbEntity
  8
Layer 1
  6
ByLayer
 62
  255
370
    9
100
AcDbSpline
210
0
220
0
230
0
 70
 4096
 71
    3
 72
   23
 73
   19
 74
    0
 42
1e-07
 43
1e-07
 40
0
 40
0
 40
0
 40
0
 40
1
 40
1
 40
1
 40
2
 40
2
 40
2
 40
3
 40
3
 40
3
 40
4
 40
4
 40
4
 40
5
 40
5
 40
5
 40
6
 40
6
 40
6
 40
6
 10
13.53188069661458
 20
-7.100002712673611
 30
0
 10
13.53188069661458
 20
-7.100002712673611
 30
0
 10
13.66104465060764
 20
-7.100002712673611
 30
0
 10
13.66104465060764
 20
-7.100002712673611
 30
0
 10
13.71938069661458
 20
-7.100002712673611
 30
0
 10
13.75063069661458
 20
-7.063897026909721
 30
0
 10
13.75479465060764
 20
-6.991672092013888
 30
0
 10
13.75479465060764
 20
-6.991672092013888
 30
0
 10
13.77146402994792
 20
-6.668755425347221
 30
0
 10
13.77146402994792
 20
-6.668755425347221
 30
0
 10
13.77562798394097
 20
-6.596544053819444
 30
0
 10
13.74854193793403
 20
-6.560411241319444
 30
0
 10
13.69021267361111
 20
-6.560411241319444
 30
0
 10
13.69021267361111
 20
-6.560411241319444
 30
0
 10
13.56104193793403
 20
-6.560411241319444
 30
0
 10
13.56104193793403
 20
-6.560411241319444
 30
0
 10
13.56104193793403
 20
-6.560411241319444
 30
0
 10
13.53188069661458
 20
-7.100002712673611
 30
0
 10
13.53188069661458
 20
-7.100002712673611
 30
0
  0
LWPOLYLINE
  5
5D
100
AcDbEntity
  8
Layer 1
  6
ByLayer
 62
  255
370
    9
100
AcDbPolyline
 90
    5
 70
    0
 43
0
 10
14.06728786892361
 20
-7.875
 10
14.14436848958333
 20
-6.379163953993055
 10
14.34020317925347
 20
-6.379163953993055
 10
14.26312255859375
 20
-7.875
 10
14.06728786892361
 20
-7.875
  0
LWPOLYLINE
  5
5E
100
AcDbEntity
  8
Layer 1
  6
ByLayer
 62
  255
370
    9
100
AcDbPolyline
 90
   12
 70
    0
 43
0
 10
14.89226616753472
 20
-7.102077907986111
 10
14.92976888020833
 20
-6.379163953993055
 10
15.1256103515625
 20
-6.379163953993055
 10
15.04851616753472
 20
-7.875
 10
14.85268825954861
 20
-7.875
 10
14.86726888020833
 20
-7.577080620659721
 10
14.69227430555556
 20
-6.895833333333333
 10
14.64227294921875
 20
-7.875
 10
14.44643825954861
 20
-7.875
 10
14.52351888020833
 20
-6.379163953993055
 10
14.7193603515625
 20
-6.379163953993055
 10
14.89226616753472
 20
-7.102077907986111
  0
SPLINE
  5
5F
100
AcDbEntity
  8
Layer 1
  6
ByLayer
 62
  255
370
    9
100
AcDbSpline
210
0
220
0
230
0
 70
 4096
 71
    3
 72
   65
 73
   61
 74
    0
 42
1e-07
 43
1e-07
 40
0
 40
0
 40
0
 40
0
 40
1
 40
1
 40
1
 40
2
 40
2
 40
2
 40
3
 40
3
 40
3
 40
4
 40
4
 40
4
 40
5
 40
5
 40
5
 40
6
 40
6
 40
6
 40
7
 40
7
 40
7
 40
8
 40
8
 40
8
 40
9
 40
9
 40
9
 40
10
 40
10
 40
10
 40
11
 40
11
 40
11
 40
12
 40
12
 40
12
 40
13
 40
13
 40
13
 40
14
 40
14
 40
14
 40
15
 40
15
 40
15
 40
16
 40
16
 40
16
 40
17
 40
17
 40
17
 40
18
 40
18
 40
18
 40
19
 40
19
 40
19
 40
20
 40
20
 40
20
 40
20
 10
15.56102159288194
 20
-7.327080620659721
 30
0
 10
15.56102159288194
 20
-7.327080620659721
 30
0
 10
15.57143825954861
 20
-7.145833333333333
 30
0
 10
15.57143825954861
 20
-7.145833333333333
 30
0
 10
15.57143825954861
 20
-7.145833333333333
 30
0
 10
15.86935763888889
 20
-7.145833333333333
 30
0
 10
15.86935763888889
 20
-7.145833333333333
 30
0
 10
15.86935763888889
 20
-7.145833333333333
 30
0
 10
15.83185492621528
 20
-7.875
 30
0
 10
15.83185492621528
 20
-7.875
 30
0
 10
15.83185492621528
 20
-7.875
 30
0
 10
15.44851345486111
 20
-7.875
 30
0
 10
15.44851345486111
 20
-7.875
 30
0
 10
15.297119140625
 20
-7.875
 30
0
 10
15.22559950086806
 20
-7.790988498263888
 30
0
 10
15.23394097222222
 20
-7.622911241319444
 30
0
 10
15.23394097222222
 20
-7.622911241319444
 30
0
 10
15.28602430555556
 20
-6.635416666666666
 30
0
 10
15.28602430555556
 20
-6.635416666666666
 30
0
 10
15.29435221354167
 20
-6.464586046006944
 30
0
 10
15.37419976128472
 20
-6.379163953993055
 30
0
 10
15.52560763888889
 20
-6.379163953993055
 30
0
 10
15.52560763888889
 20
-6.379163953993055
 30
0
 10
15.658935546875
 20
-6.379163953993055
 30
0
 10
15.658935546875
 20
-6.379163953993055
 30
0
 10
15.82560221354167
 20
-6.379163953993055
 30
0
 10
15.90477159288194
 20
-6.465983072916666
 30
0
 10
15.89643012152778
 20
-6.639580620659721
 30
0
 10
15.89643012152778
 20
-6.639580620659721
 30
0
 10
15.88810221354167
 20
-6.802083333333333
 30
0
 10
15.88810221354167
 20
-6.802083333333333
 30
0
 10
15.88810221354167
 20
-6.802083333333333
 30
0
 10
15.69227430555556
 20
-6.802083333333333
 30
0
 10
15.69227430555556
 20
-6.802083333333333
 30
0
 10
15.69227430555556
 20
-6.802083333333333
 30
0
 10
15.69851345486111
 20
-6.668755425347221
 30
0
 10
15.69851345486111
 20
-6.668755425347221
 30
0
 10
15.70269097222222
 20
-6.596544053819444
 30
0
 10
15.67697482638889
 20
-6.560411241319444
 30
0
 10
15.62143283420139
 20
-6.560411241319444
 30
0
 10
15.62143283420139
 20
-6.560411241319444
 30
0
 10
15.57143825954861
 20
-6.560411241319444
 30
0
 10
15.57143825954861
 20
-6.560411241319444
 30
0
 10
15.51447211371528
 20
-6.560411241319444
 30
0
 10
15.48394097222222
 20
-6.596544053819444
 30
0
 10
15.47976345486111
 20
-6.668755425347221
 30
0
 10
15.47976345486111
 20
-6.668755425347221
 30
0
 10
15.43185763888889
 20
-7.585422092013888
 30
0
 10
15.43185763888889
 20
-7.585422092013888
 30
0
 10
15.42768012152778
 20
-7.657647026909721
 30
0
 10
15.45404730902778
 20
-7.693752712673611
 30
0
 10
15.51101345486111
 20
-7.693752712673611
 30
0
 10
15.51101345486111
 20
-7.693752712673611
 30
0
 10
15.64435492621528
 20
-7.693752712673611
 30
0
 10
15.64435492621528
 20
-7.693752712673611
 30
0
 10
15.64435492621528
 20
-7.693752712673611
 30
0
 10
15.66309950086806
 20
-7.327080620659721
 30
0
 10
15.66309950086806
 20
-7.327080620659721
 30
0
 10
15.66309950086806
 20
-7.327080620659721
 30
0
 10
15.56102159288194
 20
-7.327080620659721
 30
0
 10
15.56102159288194
 20
-7.327080620659721
 30
0
  0
ENDBLK
  5
50
330
4E
100
AcDbEntity
  8
0
100
AcDbBlockEnd
  0
BLOCK
  5
52
330
51
100
AcDbEntity
  8
0
100
AcDbBlockBegin
  2
block 3
 70
    0
 10
0
 20
0
  3
block 3
  1

  0
LWPOLYLINE
  5
60
100
AcDbEntity
  8
Layer 1
  6
ByLayer
 62
  255
370
    9
100
AcDbPolyline
 90
   13
 70
    0
 43
0
 10
9.024027506510416
 20
-12.41048177083333
 10
9.101108127170138
 20
-10.91464572482639
 10
9.588609483506945
 20
-10.91464572482639
 10
9.580274793836805
 20
-11.09589301215278
 10
9.288608127170138
 20
-11.09589301215278
 10
9.26361083984375
 20
-11.55006239149306
 10
9.521945529513888
 20
-11.55006239149306
 10
9.51361083984375
 20
-11.73130967881944
 10
9.255276150173611
 20
-11.73130967881944
 10
9.228196885850695
 20
-12.22923448350694
 10
9.519863552517361
 20
-12.22923448350694
 10
9.511528862847221
 20
-12.41048177083333
 10
9.024027506510416
 20
-12.41048177083333
  0
LWPOLYLINE
  5
61
100
AcDbEntity
  8
Layer 1
  6
ByLayer
 62
  255
370
    9
100
AcDbPolyline
 90
   12
 70
    0
 43
0
 10
10.09693739149306
 20
-11.63755967881944
 10
10.13443332248264
 20
-10.91464572482639
 10
10.33026801215278
 20
-10.91464572482639
 10
10.25318739149306
 20
-12.41048177083333
 10
10.05735270182292
 20
-12.41048177083333
 10
10.07193332248264
 20
-12.11256239149306
 10
9.896938747829861
 20
-11.43131510416667
 10
9.846937391493055
 20
-12.41048177083333
 10
9.651102701822916
 20
-12.41048177083333
 10
9.728183322482638
 20
-10.91464572482639
 10
9.924018012152777
 20
-10.91464572482639
 10
10.09693739149306
 20
-11.63755967881944
  0
SPLINE
  5
62
100
AcDbEntity
  8
Layer 1
  6
ByLayer
 62
  255
370
    9
100
AcDbSpline
210
0
220
0
230
0
 70
 4096
 71
    3
 72
   65
 73
   61
 74
    0
 42
1e-07
 43
1e-07
 40
0
 40
0
 40
0
 40
0
 40
1
 40
1
 40
1
 40
2
 40
2
 40
2
 40
3
 40
3
 40
3
 40
4
 40
4
 40
4
 40
5
 40
5
 40
5
 40
6
 40
6
 40
6
 40
7
 40
7
 40
7
 40
8
 40
8
 40
8
 40
9
 40
9
 40
9
 40
10
 40
10
 40
10
 40
11
 40
11
 40
11
 40
12
 40
12
 40
12
 40
13
 40
13
 40
13
 40
14
 40
14
 40
14
 40
15
 40
15
 40
15
 40
16
 40
16
 40
16
 40
17
 40
17
 40
17
 40
18
 40
18
 40
18
 40
19
 40
19
 40
19
 40
20
 40
20
 40
20
 40
20
 10
10.76568603515625
 20
-11.86256239149306
 30
0
 10
10.76568603515625
 20
-11.86256239149306
 30
0
 10
10.77610270182292
 20
-11.68131510416667
 30
0
 10
10.77610270182292
 20
-11.68131510416667
 30
0
 10
10.77610270182292
 20
-11.68131510416667
 30
0
 10
11.07401529947917
 20
-11.68131510416667
 30
0
 10
11.07401529947917
 20
-11.68131510416667
 30
0
 10
11.07401529947917
 20
-11.68131510416667
 30
0
 10
11.03651936848958
 20
-12.41048177083333
 30
0
 10
11.03651936848958
 20
-12.41048177083333
 30
0
 10
11.03651936848958
 20
-12.41048177083333
 30
0
 10
10.65318467881944
 20
-12.41048177083333
 30
0
 10
10.65318467881944
 20
-12.41048177083333
 30
0
 10
10.50178358289931
 20
-12.41048177083333
 30
0
 10
10.43026394314236
 20
-12.32647026909722
 30
0
 10
10.4385986328125
 20
-12.15839301215278
 30
0
 10
10.4385986328125
 20
-12.15839301215278
 30
0
 10
10.49068196614583
 20
-11.1708984375
 30
0
 10
10.49068196614583
 20
-11.1708984375
 30
0
 10
10.49901665581597
 20
-11.00006781684028
 30
0
 10
10.57886420355903
 20
-10.91464572482639
 30
0
 10
10.73026529947917
 20
-10.91464572482639
 30
0
 10
10.73026529947917
 20
-10.91464572482639
 30
0
 10
10.86359998914931
 20
-10.91464572482639
 30
0
 10
10.86359998914931
 20
-10.91464572482639
 30
0
 10
11.03026665581597
 20
-10.91464572482639
 30
0
 10
11.10943603515625
 20
-11.00146484375
 30
0
 10
11.10110134548611
 20
-11.17506239149306
 30
0
 10
11.10110134548611
 20
-11.17506239149306
 30
0
 10
11.09276665581597
 20
-11.33756510416667
 30
0
 10
11.09276665581597
 20
-11.33756510416667
 30
0
 10
11.09276665581597
 20
-11.33756510416667
 30
0
 10
10.89693196614583
 20
-11.33756510416667
 30
0
 10
10.89693196614583
 20
-11.33756510416667
 30
0
 10
10.89693196614583
 20
-11.33756510416667
 30
0
 10
10.90318467881944
 20
-11.20423719618056
 30
0
 10
10.90318467881944
 20
-11.20423719618056
 30
0
 10
10.9073486328125
 20
-11.13202582465278
 30
0
 10
10.88163248697917
 20
-11.09589301215278
 30
0
 10
10.82609727647569
 20
-11.09589301215278
 30
0
 10
10.82609727647569
 20
-11.09589301215278
 30
0
 10
10.77610270182292
 20
-11.09589301215278
 30
0
 10
10.77610270182292
 20
-11.09589301215278
 30
0
 10
10.71913655598958
 20
-11.09589301215278
 30
0
 10
10.6885986328125
 20
-11.13202582465278
 30
0
 10
10.68443467881944
 20
-11.20423719618056
 30
0
 10
10.68443467881944
 20
-11.20423719618056
 30
0
 10
10.63651529947917
 20
-12.12090386284722
 30
0
 10
10.63651529947917
 20
-12.12090386284722
 30
0
 10
10.63235134548611
 20
-12.19312879774306
 30
0
 10
10.65871853298611
 20
-12.22923448350694
 30
0
 10
10.71568467881944
 20
-12.22923448350694
 30
0
 10
10.71568467881944
 20
-12.22923448350694
 30
0
 10
10.84901936848958
 20
-12.22923448350694
 30
0
 10
10.84901936848958
 20
-12.22923448350694
 30
0
 10
10.84901936848958
 20
-12.22923448350694
 30
0
 10
10.86776394314236
 20
-11.86256239149306
 30
0
 10
10.86776394314236
 20
-11.86256239149306
 30
0
 10
10.86776394314236
 20
-11.86256239149306
 30
0
 10
10.76568603515625
 20
-11.86256239149306
 30
0
 10
10.76568603515625
 20
-11.86256239149306
 30
0
  0
LWPOLYLINE
  5
63
100
AcDbEntity
  8
Layer 1
  6
ByLayer
 62
  255
370
    9
100
AcDbPolyline
 90
    5
 70
    0
 43
0
 10
11.19691297743056
 20
-12.41048177083333
 10
11.27399359809028
 20
-10.91464572482639
 10
11.46982828776042
 20
-10.91464572482639
 10
11.39274766710069
 20
-12.41048177083333
 10
11.19691297743056
 20
-12.41048177083333
  0
LWPOLYLINE
  5
64
100
AcDbEntity
  8
Layer 1
  6
ByLayer
 62
  255
370
    9
100
AcDbPolyline
 90
   12
 70
    0
 43
0
 10
12.02189805772569
 20
-11.63755967881944
 10
12.05939398871528
 20
-10.91464572482639
 10
12.25522867838542
 20
-10.91464572482639
 10
12.17814805772569
 20
-12.41048177083333
 10
11.98231336805556
 20
-12.41048177083333
 10
11.99689398871528
 20
-12.11256239149306
 10
11.8218994140625
 20
-11.43131510416667
 10
11.77189805772569
 20
-12.41048177083333
 10
11.57606336805556
 20
-12.41048177083333
 10
11.65314398871528
 20
-10.91464572482639
 10
11.84897867838542
 20
-10.91464572482639
 10
12.02189805772569
 20
-11.63755967881944
  0
LWPOLYLINE
  5
65
100
AcDbEntity
  8
Layer 1
  6
ByLayer
 62
  255
370
    9
100
AcDbPolyline
 90
   13
 70
    0
 43
0
 10
12.36147732204861
 20
-12.41048177083333
 10
12.43855794270833
 20
-10.91464572482639
 10
12.92605929904514
 20
-10.91464572482639
 10
12.917724609375
 20
-11.09589301215278
 10
12.62605794270833
 20
-11.09589301215278
 10
12.60106065538194
 20
-11.55006239149306
 10
12.85939534505208
 20
-11.55006239149306
 10
12.85106065538194
 20
-11.73130967881944
 10
12.59272596571181
 20
-11.73130967881944
 10
12.56564670138889
 20
-12.22923448350694
 10
12.85731336805556
 20
-12.22923448350694
 10
12.84897867838542
 20
-12.41048177083333
 10
12.36147732204861
 20
-12.41048177083333
  0
LWPOLYLINE
  5
66
100
AcDbEntity
  8
Layer 1
  6
ByLayer
 62
  255
370
    9
100
AcDbPolyline
 90
   13
 70
    0
 43
0
 10
12.98855251736111
 20
-12.41048177083333
 10
13.06563313802083
 20
-10.91464572482639
 10
13.55313449435764
 20
-10.91464572482639
 10
13.5447998046875
 20
-11.09589301215278
 10
13.25313313802083
 20
-11.09589301215278
 10
13.22813585069444
 20
-11.55006239149306
 10
13.48647054036458
 20
-11.55006239149306
 10
13.47813585069444
 20
-11.73130967881944
 10
13.21980116102431
 20
-11.73130967881944
 10
13.19272189670139
 20
-12.22923448350694
 10
13.48438856336806
 20
-12.22923448350694
 10
13.47605387369792
 20
-12.41048177083333
 10
12.98855251736111
 20
-12.41048177083333
  0
SPLINE
  5
67
100
AcDbEntity
  8
Layer 1
  6
ByLayer
 62
  255
370
    9
100
AcDbSpline
210
0
220
0
230
0
 70
 4096
 71
    3
 72
   38
 73
   34
 74
    0
 42
1e-07
 43
1e-07
 40
0
 40
0
 40
0
 40
0
 40
1
 40
1
 40
1
 40
2
 40
2
 40
2
 40
3
 40
3
 40
3
 40
4
 40
4
 40
4
 40
5
 40
5
 40
5
 40
6
 40
6
 40
6
 40
7
 40
7
 40
7
 40
8
 40
8
 40
8
 40
9
 40
9
 40
9
 40
10
 40
10
 40
10
 40
11
 40
11
 40
11
 40
11
 10
13.69270833333333
 20
-10.91464572482639
 30
0
 10
13.69270833333333
 20
-10.91464572482639
 30
0
 10
14.07604302300347
 20
-10.91464572482639
 30
0
 10
14.07604302300347
 20
-10.91464572482639
 30
0
 10
14.22604709201389
 20
-10.91464572482639
 30
0
 10
14.296875
 20
-11.00006781684028
 30
0
 10
14.28854709201389
 20
-11.1708984375
 30
0
 10
14.28854709201389
 20
-11.1708984375
 30
0
 10
14.26979573567708
 20
-11.53964572482639
 30
0
 10
14.26979573567708
 20
-11.53964572482639
 30
0
 10
14.26283094618056
 20
-11.67022026909722
 30
0
 10
14.21907552083333
 20
-11.75286187065972
 30
0
 10
14.13854302300347
 20
-11.78757052951389
 30
0
 10
14.13854302300347
 20
-11.78757052951389
 30
0
 10
14.24479166666667
 20
-12.41048177083333
 30
0
 10
14.24479166666667
 20
-12.41048177083333
 30
0
 10
14.24479166666667
 20
-12.41048177083333
 30
0
 10
14.05938042534722
 20
-12.41048177083333
 30
0
 10
14.05938042534722
 20
-12.41048177083333
 30
0
 10
14.05938042534722
 20
-12.41048177083333
 30
0
 10
13.96145968967014
 20
-11.80631510416667
 30
0
 10
13.96145968967014
 20
-11.80631510416667
 30
0
 10
13.96145968967014
 20
-11.80631510416667
 30
0
 10
13.84271240234375
 20
-11.80631510416667
 30
0
 10
13.84271240234375
 20
-11.80631510416667
 30
0
 10
13.84271240234375
 20
-11.80631510416667
 30
0
 10
13.81146240234375
 20
-12.41048177083333
 30
0
 10
13.81146240234375
 20
-12.41048177083333
 30
0
 10
13.81146240234375
 20
-12.41048177083333
 30
0
 10
13.61562771267361
 20
-12.41048177083333
 30
0
 10
13.61562771267361
 20
-12.41048177083333
 30
0
 10
13.61562771267361
 20
-12.41048177083333
 30
0
 10
13.69270833333333
 20
-10.91464572482639
 30
0
 10
13.69270833333333
 20
-10.91464572482639
 30
0
  0
SPLINE
  5
68
100
AcDbEntity
  8
Layer 1
  6
ByLayer
 62
  255
370
    9
100
AcDbSpline
210
0
220
0
230
0
 70
 4096
 71
    3
 72
   23
 73
   19
 74
    0
 42
1e-07
 43
1e-07
 40
0
 40
0
 40
0
 40
0
 40
1
 40
1
 40
1
 40
2
 40
2
 40
2
 40
3
 40
3
 40
3
 40
4
 40
4
 40
4
 40
5
 40
5
 40
5
 40
6
 40
6
 40
6
 40
6
 10
13.85104709201389
 20
-11.63548448350694
 30
0
 10
13.85104709201389
 20
-11.63548448350694
 30
0
 10
13.98021104600694
 20
-11.63548448350694
 30
0
 10
13.98021104600694
 20
-11.63548448350694
 30
0
 10
14.03854709201389
 20
-11.63548448350694
 30
0
 10
14.06979709201389
 20
-11.59937879774306
 30
0
 10
14.07396104600694
 20
-11.52715386284722
 30
0
 10
14.07396104600694
 20
-11.52715386284722
 30
0
 10
14.09063042534722
 20
-11.20423719618056
 30
0
 10
14.09063042534722
 20
-11.20423719618056
 30
0
 10
14.09479437934028
 20
-11.13202582465278
 30
0
 10
14.06770833333333
 20
-11.09589301215278
 30
0
 10
14.00937906901042
 20
-11.09589301215278
 30
0
 10
14.00937906901042
 20
-11.09589301215278
 30
0
 10
13.88020833333333
 20
-11.09589301215278
 30
0
 10
13.88020833333333
 20
-11.09589301215278
 30
0
 10
13.88020833333333
 20
-11.09589301215278
 30
0
 10
13.85104709201389
 20
-11.63548448350694
 30
0
 10
13.85104709201389
 20
-11.63548448350694
 30
0
  0
LWPOLYLINE
  5
69
100
AcDbEntity
  8
Layer 1
  6
ByLayer
 62
  255
370
    9
100
AcDbPolyline
 90
    5
 70
    0
 43
0
 10
14.38645426432292
 20
-12.41048177083333
 10
14.46353488498264
 20
-10.91464572482639
 10
14.65936957465278
 20
-10.91464572482639
 10
14.58228895399306
 20
-12.41048177083333
 10
14.38645426432292
 20
-12.41048177083333
  0
LWPOLYLINE
  5
6A
100
AcDbEntity
  8
Layer 1
  6
ByLayer
 62
  255
370
    9
100
AcDbPolyline
 90
   12
 70
    0
 43
0
 10
15.21143256293403
 20
-11.63755967881944
 10
15.24893527560764
 20
-10.91464572482639
 10
15.44477674696181
 20
-10.91464572482639
 10
15.36768256293403
 20
-12.41048177083333
 10
15.17185465494792
 20
-12.41048177083333
 10
15.18643527560764
 20
-12.11256239149306
 10
15.01144070095486
 20
-11.43131510416667
 10
14.96143934461806
 20
-12.41048177083333
 10
14.76560465494792
 20
-12.41048177083333
 10
14.84268527560764
 20
-10.91464572482639
 10
15.03852674696181
 20
-10.91464572482639
 10
15.21143256293403
 20
-11.63755967881944
  0
SPLINE
  5
6B
100
AcDbEntity
  8
Layer 1
  6
ByLayer
 62
  255
370
    9
100
AcDbSpline
210
0
220
0
230
0
 70
 4096
 71
    3
 72
   65
 73
   61
 74
    0
 42
1e-07
 43
1e-07
 40
0
 40
0
 40
0
 40
0
 40
1
 40
1
 40
1
 40
2
 40
2
 40
2
 40
3
 40
3
 40
3
 40
4
 40
4
 40
4
 40
5
 40
5
 40
5
 40
6
 40
6
 40
6
 40
7
 40
7
 40
7
 40
8
 40
8
 40
8
 40
9
 40
9
 40
9
 40
10
 40
10
 40
10
 40
11
 40
11
 40
11
 40
12
 40
12
 40
12
 40
13
 40
13
 40
13
 40
14
 40
14
 40
14
 40
15
 40
15
 40
15
 40
16
 40
16
 40
16
 40
17
 40
17
 40
17
 40
18
 40
18
 40
18
 40
19
 40
19
 40
19
 40
20
 40
20
 40
20
 40
20
 10
15.88018798828125
 20
-11.86256239149306
 30
0
 10
15.88018798828125
 20
-11.86256239149306
 30
0
 10
15.89060465494792
 20
-11.68131510416667
 30
0
 10
15.89060465494792
 20
-11.68131510416667
 30
0
 10
15.89060465494792
 20
-11.68131510416667
 30
0
 10
16.18852403428819
 20
-11.68131510416667
 30
0
 10
16.18852403428819
 20
-11.68131510416667
 30
0
 10
16.18852403428819
 20
-11.68131510416667
 30
0
 10
16.15102132161458
 20
-12.41048177083333
 30
0
 10
16.15102132161458
 20
-12.41048177083333
 30
0
 10
16.15102132161458
 20
-12.41048177083333
 30
0
 10
15.76767985026042
 20
-12.41048177083333
 30
0
 10
15.76767985026042
 20
-12.41048177083333
 30
0
 10
15.61628553602431
 20
-12.41048177083333
 30
0
 10
15.54476589626736
 20
-12.32647026909722
 30
0
 10
15.55310736762153
 20
-12.15839301215278
 30
0
 10
15.55310736762153
 20
-12.15839301215278
 30
0
 10
15.60519070095486
 20
-11.1708984375
 30
0
 10
15.60519070095486
 20
-11.1708984375
 30
0
 10
15.61351860894097
 20
-11.00006781684028
 30
0
 10
15.69336615668403
 20
-10.91464572482639
 30
0
 10
15.84477403428819
 20
-10.91464572482639
 30
0
 10
15.84477403428819
 20
-10.91464572482639
 30
0
 10
15.97810194227431
 20
-10.91464572482639
 30
0
 10
15.97810194227431
 20
-10.91464572482639
 30
0
 10
16.14476860894097
 20
-10.91464572482639
 30
0
 10
16.22393798828125
 20
-11.00146484375
 30
0
 10
16.21559651692708
 20
-11.17506239149306
 30
0
 10
16.21559651692708
 20
-11.17506239149306
 30
0
 10
16.20726860894097
 20
-11.33756510416667
 30
0
 10
16.20726860894097
 20
-11.33756510416667
 30
0
 10
16.20726860894097
 20
-11.33756510416667
 30
0
 10
16.01144070095486
 20
-11.33756510416667
 30
0
 10
16.01144070095486
 20
-11.33756510416667
 30
0
 10
16.01144070095486
 20
-11.33756510416667
 30
0
 10
16.01767985026041
 20
-11.20423719618056
 30
0
 10
16.01767985026041
 20
-11.20423719618056
 30
0
 10
16.02185736762153
 20
-11.13202582465278
 30
0
 10
15.99614122178819
 20
-11.09589301215278
 30
0
 10
15.94059922960069
 20
-11.09589301215278
 30
0
 10
15.94059922960069
 20
-11.09589301215278
 30
0
 10
15.89060465494792
 20
-11.09589301215278
 30
0
 10
15.89060465494792
 20
-11.09589301215278
 30
0
 10
15.83363850911458
 20
-11.09589301215278
 30
0
 10
15.80310736762153
 20
-11.13202582465278
 30
0
 10
15.79892985026042
 20
-11.20423719618056
 30
0
 10
15.79892985026042
 20
-11.20423719618056
 30
0
 10
15.75102403428819
 20
-12.12090386284722
 30
0
 10
15.75102403428819
 20
-12.12090386284722
 30
0
 10
15.74684651692708
 20
-12.19312879774306
 30
0
 10
15.77321370442708
 20
-12.22923448350694
 30
0
 10
15.83017985026042
 20
-12.22923448350694
 30
0
 10
15.83017985026042
 20
-12.22923448350694
 30
0
 10
15.96352132161458
 20
-12.22923448350694
 30
0
 10
15.96352132161458
 20
-12.22923448350694
 30
0
 10
15.96352132161458
 20
-12.22923448350694
 30
0
 10
15.98226589626736
 20
-11.86256239149306
 30
0
 10
15.98226589626736
 20
-11.86256239149306
 30
0
 10
15.98226589626736
 20
-11.86256239149306
 30
0
 10
15.88018798828125
 20
-11.86256239149306
 30
0
 10
15.88018798828125
 20
-11.86256239149306
 30
0
  0
ENDBLK
  5
53
330
51
100
AcDbEntity
  8
0
100
AcDbBlockEnd
  0
ENDSEC
  0
SECTION
  2
ENTITIES
  0
SPLINE
  5
6C
100
AcDbEntity
  8
Layer 1
  6
ByLayer
 62
    1
370
    9
100
AcDbSpline
210
0
220
0
230
0
 70
 4096
 71
    3
 72
   29
 73
   25
 74
    0
 42
1e-07
 43
1e-07
 40
0
 40
0
 40
0
 40
0
 40
1
 40
1
 40
1
 40
2
 40
2
 40
2
 40
3
 40
3
 40
3
 40
4
 40
4
 40
4
 40
5
 40
5
 40
5
 40
6
 40
6
 40
6
 40
7
 40
7
 40
7
 40
8
 40
8
 40
8
 40
8
 10
8.416700575086805
 20
-9.00469970703125
 30
0
 10
8.237948947482639
 20
-9.00469970703125
 30
0
 10
8.092522515190971
 20
-8.859273274739582
 30
0
 10
8.092522515190971
 20
-8.680521647135416
 30
0
 10
8.092522515190971
 20
-8.680521647135416
 30
0
 10
8.092522515190971
 20
-5.513922797309028
 30
0
 10
8.092522515190971
 20
-5.513922797309028
 30
0
 10
8.092522515190971
 20
-5.335171169704861
 30
0
 10
8.237948947482639
 20
-5.189744737413194
 30
0
 10
8.416700575086805
 20
-5.189744737413194
 30
0
 10
8.416700575086805
 20
-5.189744737413194
 30
0
 10
17.08329942491319
 20
-5.189744737413194
 30
0
 10
17.08329942491319
 20
-5.189744737413194
 30
0
 10
17.26205105251736
 20
-5.189744737413194
 30
0
 10
17.40747748480903
 20
-5.335171169704861
 30
0
 10
17.40747748480903
 20
-5.513922797309028
 30
0
 10
17.40747748480903
 20
-5.513922797309028
 30
0
 10
17.40747748480903
 20
-8.680521647135416
 30
0
 10
17.40747748480903
 20
-8.680521647135416
 30
0
 10
17.40747748480903
 20
-8.859273274739582
 30
0
 10
17.26205105251736
 20
-9.00469970703125
 30
0
 10
17.08329942491319
 20
-9.00469970703125
 30
0
 10
17.08329942491319
 20
-9.00469970703125
 30
0
 10
8.416700575086805
 20
-9.00469970703125
 30
0
 10
8.416700575086805
 20
-9.00469970703125
 30
0
  0
SPLINE
  5
6D
100
AcDbEntity
  8
Layer 1
  6
ByLayer
 62
  255
370
    9
100
AcDbSpline
210
0
220
0
230
0
 70
 4096
 71
    3
 72
   29
 73
   25
 74
    0
 42
1e-07
 43
1e-07
 40
0
 40
0
 40
0
 40
0
 40
1
 40
1
 40
1
 40
2
 40
2
 40
2
 40
3
 40
3
 40
3
 40
4
 40
4
 40
4
 40
5
 40
5
 40
5
 40
6
 40
6
 40
6
 40
7
 40
7
 40
7
 40
8
 40
8
 40
8
 40
8
 10
17.08330000000001
 20
-8.847222222222221
 30
0
 10
17.08330000000001
 20
-8.847222222222221
 30
0
 10
8.416699999999992
 20
-8.847222222222221
 30
0
 10
8.416699999999992
 20
-8.847222222222221
 30
0
 10
8.325014999999995
 20
-8.847222222222221
 30
0
 10
8.25
 20
-8.772207222222226
 30
0
 10
8.25
 20
-8.68052222222223
 30
0
 10
8.25
 20
-8.68052222222223
 30
0
 10
8.25
 20
-5.513922222222226
 30
0
 10
8.25
 20
-5.513922222222226
 30
0
 10
8.25
 20
-5.422237222222217
 30
0
 10
8.325014999999995
 20
-5.347222222222222
 30
0
 10
8.416699999999992
 20
-5.347222222222222
 30
0
 10
8.416699999999992
 20
-5.347222222222222
 30
0
 10
17.08330000000001
 20
-5.347222222222222
 30
0
 10
17.08330000000001
 20
-5.347222222222222
 30
0
 10
17.174985
 20
-5.347222222222222
 30
0
 10
17.25
 20
-5.422237222222217
 30
0
 10
17.25
 20
-5.513922222222226
 30
0
 10
17.25
 20
-5.513922222222226
 30
0
 10
17.25
 20
-8.68052222222223
 30
0
 10
17.25
 20
-8.68052222222223
 30
0
 10
17.25
 20
-8.772207222222226
 30
0
 10
17.174985
 20
-8.847222222222221
 30
0
 10
17.08330000000001
 20
-8.847222222222221
 30
0
  0
INSERT
  5
6E
100
AcDbEntity
  8
Layer 1
  6
ByLayer
 62
  256
370
   -1
100
AcDbBlockReference
  2
block 2
 10
0
 20
0
 30
0
 41
1
 42
1
 43
0
 50
0
 70
    1
 71
    1
 44
0
 45
0
  0
LWPOLYLINE
  5
6F
100
AcDbEntity
  8
Layer 1
  6
ByLayer
 62
  255
370
    9
100
AcDbPolyline
 90
    7
 70
    0
 43
0
 10
17.07958306206597
 20
-7.077361212836371
 10
16.43291558159722
 20
-8.197638617621527
 10
16.1629163953993
 20
-8.197638617621527
 10
16.8097229003907
 20
-7.077361212836371
 10
16.1629163953993
 20
-5.957082960340712
 10
16.43291558159722
 20
-5.957082960340712
 10
17.07958306206597
 20
-7.077361212836371
  0
SPLINE
  5
70
100
AcDbEntity
  8
Layer 1
  6
ByLayer
 62
  255
370
    9
100
AcDbSpline
210
0
220
0
230
0
 70
 4096
 71
    3
 72
   26
 73
   22
 74
    0
 42
1e-07
 43
1e-07
 40
0
 40
0
 40
0
 40
0
 40
1
 40
1
 40
1
 40
2
 40
2
 40
2
 40
3
 40
3
 40
3
 40
4
 40
4
 40
4
 40
5
 40
5
 40
5
 40
6
 40
6
 40
6
 40
7
 40
7
 40
7
 40
7
 10
17.5691663953993
 20
-11.63276672363281
 30
0
 10
17.5691663953993
 20
-11.63276672363281
 30
0
 10
16.55902777777778
 20
-13.38276672363281
 30
0
 10
16.55902777777778
 20
-13.38276672363281
 30
0
 10
16.55902777777778
 20
-13.38276672363281
 30
0
 10
8.735833062065971
 20
-13.38276672363281
 30
0
 10
8.735833062065971
 20
-13.38276672363281
 30
0
 10
8.644166734483507
 20
-13.38276672363281
 30
0
 10
8.569166395399305
 20
-13.30762736002604
 30
0
 10
8.569166395399305
 20
-13.21596103244358
 30
0
 10
8.569166395399305
 20
-13.21596103244358
 30
0
 10
8.569166395399305
 20
-10.04943339029948
 30
0
 10
8.569166395399305
 20
-10.04943339029948
 30
0
 10
8.569166395399305
 20
-9.957767062717013
 30
0
 10
8.644166734483507
 20
-9.882766723632812
 30
0
 10
8.735833062065971
 20
-9.882766723632812
 30
0
 10
8.735833062065971
 20
-9.882766723632812
 30
0
 10
16.55902777777778
 20
-9.882766723632812
 30
0
 10
16.55902777777778
 20
-9.882766723632812
 30
0
 10
16.55902777777778
 20
-9.882766723632812
 30
0
 10
17.5691663953993
 20
-11.63276672363281
 30
0
 10
17.5691663953993
 20
-11.63276672363281
 30
0
  0
INSERT
  5
71
100
AcDbEntity
  8
Layer 1
  6
ByLayer
 62
  256
370
   -1
100
AcDbBlockReference
  2
block 3
 10
0
 20
0
 30
0
 41
1
 42
1
 43
0
 50
0
 70
    1
 71
    1
 44
0
 45
0
  0
LWPOLYLINE
  5
72
100
AcDbEntity
  8
Layer 1
  6
ByLayer
 62
  255
370
    9
100
AcDbPolyline
 90
    7
 70
    0
 43
0
 10
17.5691663953993
 20
-11.63276672363281
 10
16.55902777777778
 20
-13.38276672363281
 10
15.95541720920139
 20
-13.38276672363281
 10
16.96583387586805
 20
-11.63276672363281
 10
15.95541720920139
 20
-9.882766723632812
 10
16.55902777777778
 20
-9.882766723632812
 10
17.5691663953993
 20
-11.63276672363281
  0
LWPOLYLINE
  5
73
100
AcDbEntity
  8
Layer 1
  6
ByLayer
 62
  255
370
    9
100
AcDbPolyline
 90
    7
 70
    0
 43
0
 10
17.5691663953993
 20
-11.63276672363281
 10
16.55902777777778
 20
-13.38276672363281
 10
16.13722229003902
 20
-13.38276672363281
 10
17.14763895670569
 20
-11.63276672363281
 10
16.13722229003902
 20
-9.882766723632812
 10
16.55902777777778
 20
-9.882766723632812
 10
17.5691663953993
 20
-11.63276672363281
  0
SPLINE
  5
74
100
AcDbEntity
  8
Layer 1
  6
ByLayer
 62
    1
370
    9
100
AcDbSpline
210
0
220
0
230
0
 70
 4096
 71
    3
 72
   35
 73
   31
 74
    0
 42
1e-07
 43
1e-07
 40
0
 40
0
 40
0
 40
0
 40
1
 40
1
 40
1
 40
2
 40
2
 40
2
 40
3
 40
3
 40
3
 40
4
 40
4
 40
4
 40
5
 40
5
 40
5
 40
6
 40
6
 40
6
 40
7
 40
7
 40
7
 40
8
 40
8
 40
8
 40
9
 40
9
 40
9
 40
10
 40
10
 40
10
 40
10
 10
17.6931932237414
 20
-11.73290506998698
 30
0
 10
17.6931932237414
 20
-11.73290506998698
 30
0
 10
16.70777723524305
 20
-13.44012790256076
 30
0
 10
16.70777723524305
 20
-13.44012790256076
 30
0
 10
16.67208353678389
 20
-13.50207180447049
 30
0
 10
16.60583326551653
 20
-13.54026624891493
 30
0
 10
16.53430514865459
 20
-13.54026624891493
 30
0
 10
16.53430514865459
 20
-13.54026624891493
 30
0
 10
8.612083435058594
 20
-13.54026624891493
 30
0
 10
8.612083435058594
 20
-13.54026624891493
 30
0
 10
8.501388549804688
 20
-13.54026624891493
 30
0
 10
8.411666870117188
 20
-13.45054456922743
 30
0
 10
8.411666870117188
 20
-13.33985053168403
 30
0
 10
8.411666870117188
 20
-13.33985053168403
 30
0
 10
8.411666870117188
 20
-9.925682915581596
 30
0
 10
8.411666870117188
 20
-9.925682915581596
 30
0
 10
8.411666870117188
 20
-9.814988878038195
 30
0
 10
8.501388549804688
 20
-9.725267198350695
 30
0
 10
8.612083435058594
 20
-9.725267198350695
 30
0
 10
8.612083435058594
 20
-9.725267198350695
 30
0
 10
16.53430514865459
 20
-9.725267198350695
 30
0
 10
16.53430514865459
 20
-9.725267198350695
 30
0
 10
16.60583326551653
 20
-9.725267198350695
 30
0
 10
16.67208353678389
 20
-9.763461642795138
 30
0
 10
16.70777723524305
 20
-9.82554456922743
 30
0
 10
16.70777723524305
 20
-9.82554456922743
 30
0
 10
17.6931932237414
 20
-11.53262668185764
 30
0
 10
17.6931932237414
 20
-11.53262668185764
 30
0
 10
17.72902764214417
 20
-11.59457227918837
 30
0
 10
17.72902764214417
 20
-11.67096116807726
 30
0
 10
17.6931932237414
 20
-11.73290506998698
 30
0
  0
ENDSEC
  0
SECTION
  2
OBJECTS
  0
DICTIONARY
  5
C
330
0
100
AcDbDictionary
281
    1
  3
ACAD_GROUP
350
D
  0
DICTIONARY
  5
D
330
C
100
AcDbDictionary
281
    1
  0
PLOTSETTINGS
  5
75
100
AcDbPlotSettings
  6
1x1
 40
0
 41
0
 42
0
 43
0
  0
ENDSEC
  0
EOF
