999
dxfrw 0.6.3
  0
SECTION
  2
HEADER
  9
$ACADVER
  1
AC1021
  9
$DWGCODEPAGE
  3
ANSI_1252
  9
$INSBASE
 10
0
 20
0
 30
0
  9
$EXTMIN
 10
10000000000
 20
10000000000
 30
0
  9
$EXTMAX
 10
-10000000000
 20
-10000000000
 30
0
  9
$LIMMIN
 10
0
 20
0
  9
$LIMMAX
 10
12
 20
9
  9
$ORTHOMODE
 70
    0
  9
$REGENMODE
 70
    1
  9
$FILLMODE
 70
    1
  9
$QTEXTMODE
 70
    0
  9
$MIRRTEXT
 70
    1
  9
$LTSCALE
 40
1
  9
$ATTMODE
 70
    1
  9
$TEXTSIZE
 40
0.2
  9
$TRACEWID
 40
0.05
  9
$TEXTSTYLE
  7
Standard
  9
$CLAYER
  8
0
  9
$CELTYPE
  6
ByLayer
  9
$CECOLOR
 62
  256
  9
$CELTSCALE
 40
1
  9
$DISPSILH
 70
    0
  9
$DIMSCALE
 40
1
  9
$DIMASZ
 40
0.18
  9
$DIMEXO
 40
0.0625
  9
$DIMDLI
 40
0.38
  9
$DIMRND
 40
0
  9
$DIMDLE
 40
0
  9
$DIMEXE
 40
0.18
  9
$DIMTP
 40
0
  9
$DIMTM
 40
0
  9
$DIMTXT
 40
0.18
  9
$DIMCEN
 40
0.09
  9
$DIMTSZ
 40
0
  9
$DIMTOL
 70
    0
  9
$DIMLIM
 70
    0
  9
$DIMTIH
 70
    1
  9
$DIMTOH
 70
    1
  9
$DIMSE1
 70
    0
  9
$DIMSE2
 70
    0
  9
$DIMTAD
 70
    0
  9
$DIMZIN
 70
    0
  9
$DIMBLK
  1

  9
$DIMASO
 70
    1
  9
$DIMSHO
 70
    1
  9
$DIMPOST
  1

  9
$DIMAPOST
  1

  9
$DIMALT
 70
    0
  9
$DIMALTD
 70
    2
  9
$DIMALTF
 40
25.4
  9
$DIMLFAC
 40
1
  9
$DIMTOFL
 70
    0
  9
$DIMTVP
 40
0
  9
$DIMTIX
 70
    0
  9
$DIMSOXD
 70
    0
  9
$DIMSAH
 70
    0
  9
$DIMBLK1
  1

  9
$DIMBLK2
  1

  9
$DIMSTYLE
  2
Standard
  9
$DIMCLRD
 70
    0
  9
$DIMCLRE
 70
    0
  9
$DIMCLRT
 70
    0
  9
$DIMTFAC
 40
1
  9
$DIMGAP
 40
0.09
  9
$DIMJUST
 70
    0
  9
$DIMSD1
 70
    0
  9
$DIMSD2
 70
    0
  9
$DIMTOLJ
 70
    1
  9
$DIMTZIN
 70
    0
  9
$DIMALTZ
 70
    0
  9
$DIMALTTZ
 70
    0
  9
$DIMUPT
 70
    0
  9
$DIMDEC
 70
    4
  9
$DIMTDEC
 70
    4
  9
$DIMALTU
 70
    2
  9
$DIMALTTD
 70
    2
  9
$DIMTXSTY
  7
Standard
  9
$DIMAUNIT
 70
    0
  9
$DIMADEC
 70
    0
  9
$DIMALTRND
 40
0
  9
$DIMAZIN
 70
    0
  9
$DIMDSEP
 70
   46
  9
$DIMATFIT
 70
    3
  9
$DIMFRAC
 70
    0
  9
$DIMLDRBLK
  1

  9
$DIMLUNIT
 70
    2
  9
$DIMLWD
 70
   -2
  9
$DIMLWE
 70
   -2
  9
$DIMTMOVE
 70
    0
  9
$DIMFXL
 40
1
  9
$DIMFXLON
 70
    0
  9
$DIMJOGANG
 40
0.7853981633974483
  9
$DIMTFILL
 70
    0
  9
$DIMTFILLCLR
 70
    0
  9
$DIMARCSYM
 70
    0
  9
$DIMLTYPE
  6

  9
$DIMLTEX1
  6

  9
$DIMLTEX2
  6

  9
$LUNITS
 70
    2
  9
$LUPREC
 70
    4
  9
$SKETCHINC
 40
0.1
  9
$FILLETRAD
 40
0.5
  9
$AUNITS
 70
    0
  9
$AUPREC
 70
    0
  9
$MENU
  1
.
  9
$ELEVATION
 40
0
  9
$PELEVATION
 40
0
  9
$THICKNESS
 40
0
  9
$LIMCHECK
 70
    0
  9
$CHAMFERA
 40
0
  9
$CHAMFERB
 40
0
  9
$CHAMFERC
 40
0
  9
$CHAMFERD
 40
0
  9
$SKPOLY
 70
    0
  9
$USRTIMER
 70
    1
  9
$ANGBASE
 50
0
  9
$ANGDIR
 70
    0
  9
$PDMODE
 70
    0
  9
$PDSIZE
 40
0
  9
$PLINEWID
 40
0
  9
$SPLFRAME
 70
    0
  9
$SPLINETYPE
 70
    6
  9
$SPLINESEGS
 70
    8
  9
$HANDSEED
  5
20000
  9
$SURFTAB1
 70
    6
  9
$SURFTAB2
 70
    6
  9
$SURFTYPE
 70
    6
  9
$SURFU
 70
    6
  9
$SURFV
 70
    6
  9
$UCSBASE
  2

  9
$UCSNAME
  2

  9
$UCSORG
 10
0
 20
0
 30
0
  9
$UCSXDIR
 10
1
 20
0
 30
0
  9
$UCSYDIR
 10
0
 20
1
 30
0
  9
$UCSORTHOREF
  2

  9
$UCSORTHOVIEW
 70
    0
  9
$UCSORGTOP
 10
0
 20
0
 30
0
  9
$UCSORGBOTTOM
 10
0
 20
0
 30
0
  9
$UCSORGLEFT
 10
0
 20
0
 30
0
  9
$UCSORGRIGHT
 10
0
 20
0
 30
0
  9
$UCSORGFRONT
 10
0
 20
0
 30
0
  9
$UCSORGBACK
 10
0
 20
0
 30
0
  9
$PUCSBASE
  2

  9
$PUCSNAME
  2

  9
$PUCSORG
 10
0
 20
0
 30
0
  9
$PUCSXDIR
 10
1
 20
0
 30
0
  9
$PUCSYDIR
 10
0
 20
1
 30
0
  9
$PUCSORTHOREF
  2

  9
$PUCSORTHOVIEW
 70
    0
  9
$PUCSORGTOP
 10
0
 20
0
 30
0
  9
$PUCSORGBOTTOM
 10
0
 20
0
 30
0
  9
$PUCSORGLEFT
 10
0
 20
0
 30
0
  9
$PUCSORGRIGHT
 10
0
 20
0
 30
0
  9
$PUCSORGFRONT
 10
0
 20
0
 30
0
  9
$PUCSORGBACK
 10
0
 20
0
 30
0
  9
$USERI1
 70
    0
  9
$USERI2
 70
    0
  9
$USERI3
 70
    0
  9
$USERI4
 70
    0
  9
$USERI5
 70
    0
  9
$USERR1
 40
0
  9
$USERR2
 40
0
  9
$USERR3
 40
0
  9
$USERR4
 40
0
  9
$USERR5
 40
0
  9
$WORLDVIEW
 70
    1
  9
$SHADEDGE
 70
    3
  9
$SHADEDIF
 70
   70
  9
$TILEMODE
 70
    1
  9
$MAXACTVP
 70
   64
  9
$PINSBASE
 10
0
 20
0
 30
0
  9
$PLIMCHECK
 70
    0
  9
$PEXTMIN
 10
1e+20
 20
1e+20
 30
1e+20
  9
$PEXTMAX
 10
-1e+20
 20
-1e+20
 30
-1e+20
  9
$GRIDMODE
 70
    0
  9
$SNAPSTYLE
 70
    0
  9
$PLIMMIN
 10
0
 20
0
  9
$PLIMMAX
 10
12
 20
9
  9
$UNITMODE
 70
    0
  9
$VISRETAIN
 70
    1
  9
$PLINEGEN
 70
    0
  9
$PSLTSCALE
 70
    1
  9
$TREEDEPTH
 70
 3020
  9
$CMLSTYLE
  2
Standard
  9
$CMLJUST
 70
    0
  9
$CMLSCALE
 40
1
  9
$PROXYGRAPHICS
 70
    1
  9
$MEASUREMENT
 70
    0
  9
$CELWEIGHT
370
   -1
  9
$ENDCAPS
280
    0
  9
$JOINSTYLE
280
    0
  9
$LWDISPLAY
290
    0
  9
$INSUNITS
 70
    1
  9
$HYPERLINKBASE
  1

  9
$STYLESHEET
  1

  9
$XEDIT
290
    1
  9
$CEPSNTYPE
380
    0
  9
$PSTYLEMODE
290
    1
  9
$EXTNAMES
290
    1
  9
$PSVPSCALE
 40
0
  9
$OLESTARTUP
290
    0
  9
$SORTENTS
280
  127
  9
$INDEXCTL
280
    0
  9
$HIDETEXT
280
    1
  9
$XCLIPFRAME
290
    0
  9
$HALOGAP
280
    0
  9
$OBSCOLOR
 70
  257
  9
$OBSLTYPE
280
    0
  9
$INTERSECTIONDISPLAY
280
    0
  9
$INTERSECTIONCOLOR
 70
  257
  9
$DIMASSOC
280
    2
  9
$PROJECTNAME
  1

  9
$CAMERADISPLAY
290
    0
  9
$LENSLENGTH
 40
50
  9
$CAMERAHEIGHT
 40
0
  9
$STEPSPERSEC
 40
2
  9
$STEPSIZE
 40
6
  9
$3DDWFPREC
 40
2
  9
$PSOLWIDTH
 40
0.25
  9
$PSOLHEIGHT
 40
4
  9
$LOFTANG1
 40
1.570796326794897
  9
$LOFTANG2
 40
1.570796326794897
  9
$LOFTMAG1
 40
0
  9
$LOFTMAG2
 40
0
  9
$LOFTPARAM
 70
    7
  9
$LOFTNORMALS
280
    1
  9
$LATITUDE
 40
37.795
  9
$LONGITUDE
 40
-122.394
  9
$NORTHDIRECTION
 40
0
  9
$TIMEZONE
 70
-8000
  9
$LIGHTGLYPHDISPLAY
280
    1
  9
$TILEMODELIGHTSYNCH
280
    1
  9
$SOLIDHIST
280
    0
  9
$SHOWHIST
280
    1
  9
$DWFFRAME
280
    2
  9
$DGNFRAME
280
    2
  9
$REALWORLDSCALE
290
    1
  9
$INTERFERECOLOR
 62
  256
  9
$CSHADOW
280
    0
  9
$SHADOWPLANELOCATION
 40
0
  0
ENDSEC
  0
SECTION
  2
CLASSES
  0
ENDSEC
  0
SECTION
  2
TABLES
  0
TABLE
  2
VPORT
  5
8
330
0
100
AcDbSymbolTable
 70
    1
  0
VPORT
  5
31
330
2
100
AcDbSymbolTableRecord
100
AcDbViewportTableRecord
  2
*ACTIVE
 70
    0
 10
0
 20
0
 11
1
 21
1
 12
6.709159598112306
 22
6.854181250403698
 13
0
 23
0
 14
10
 24
10
 15
10
 25
10
 16
0
 26
0
 36
1
 17
0
 27
0
 37
0
 40
18.82228392371439
 41
1.576642335766423
 42
50
 43
0
 44
0
 50
0
 51
0
 71
    0
 72
  100
 73
    1
 74
    3
 75
    0
 76
    0
 77
    0
 78
    0
281
    0
 65
    1
110
0
120
0
130
0
111
1
121
0
131
0
112
0
122
1
132
0
 79
    0
146
0
348
10020
 60
    7
 61
    5
292
1
282
    1
141
0
142
0
 63
  250
421
3358443
  0
ENDTAB
  0
TABLE
  2
LTYPE
  5
5
330
0
100
AcDbSymbolTable
 70
    4
  0
LTYPE
  5
14
330
5
100
AcDbSymbolTableRecord
100
AcDbLinetypeTableRecord
  2
ByBlock
 70
    0
  3

 72
   65
 73
    0
 40
0
  0
LTYPE
  5
15
330
5
100
AcDbSymbolTableRecord
100
AcDbLinetypeTableRecord
  2
ByLayer
 70
    0
  3

 72
   65
 73
    0
 40
0
  0
LTYPE
  5
16
330
5
100
AcDbSymbolTableRecord
100
AcDbLinetypeTableRecord
  2
Continuous
 70
    0
  3
Solid line
 72
   65
 73
    0
 40
0
  0
LTYPE
  5
32
330
5
100
AcDbSymbolTableRecord
100
AcDbLinetypeTableRecord
  2
DOT
 70
    0
  3
Dot . . . . . . . . . . . . . . . . . . . . . .
 72
   65
 73
    2
 40
6.35
 49
0
 74
    0
 49
-6.35
 74
    0
  0
LTYPE
  5
33
330
5
100
AcDbSymbolTableRecord
100
AcDbLinetypeTableRecord
  2
DOTTINY
 70
    0
  3
Dot (.15x) .....................................
 72
   65
 73
    2
 40
0.9525
 49
0
 74
    0
 49
-0.9525
 74
    0
  0
LTYPE
  5
34
330
5
100
AcDbSymbolTableRecord
100
AcDbLinetypeTableRecord
  2
DOT2
 70
    0
  3
Dot (.5x) .....................................
 72
   65
 73
    2
 40
3.175
 49
0
 74
    0
 49
-3.175
 74
    0
  0
LTYPE
  5
35
330
5
100
AcDbSymbolTableRecord
100
AcDbLinetypeTableRecord
  2
DOTX2
 70
    0
  3
Dot (2x) .  .  .  .  .  .  .  .  .  .  .  .  .
 72
   65
 73
    2
 40
12.7
 49
0
 74
    0
 49
-12.7
 74
    0
  0
LTYPE
  5
36
330
5
100
AcDbSymbolTableRecord
100
AcDbLinetypeTableRecord
  2
DASHED
 70
    0
  3
Dashed _ _ _ _ _ _ _ _ _ _ _ _ _ _ _ _ _
 72
   65
 73
    2
 40
19.05
 49
12.7
 74
    0
 49
-6.35
 74
    0
  0
LTYPE
  5
37
330
5
100
AcDbSymbolTableRecord
100
AcDbLinetypeTableRecord
  2
DASHEDTINY
 70
    0
  3
Dashed (.15x) _ _ _ _ _ _ _ _ _ _ _ _ _ _ _ _ _
 72
   65
 73
    2
 40
2.8575
 49
1.905
 74
    0
 49
-0.9525
 74
    0
  0
LTYPE
  5
38
330
5
100
AcDbSymbolTableRecord
100
AcDbLinetypeTableRecord
  2
DASHED2
 70
    0
  3
Dashed (.5x) _ _ _ _ _ _ _ _ _ _ _ _ _ _ _ _ _
 72
   65
 73
    2
 40
9.524999999999999
 49
6.35
 74
    0
 49
-3.175
 74
    0
  0
LTYPE
  5
39
330
5
100
AcDbSymbolTableRecord
100
AcDbLinetypeTableRecord
  2
DASHEDX2
 70
    0
  3
Dashed (2x) ____  ____  ____  ____  ____  ___
 72
   65
 73
    2
 40
38.09999999999999
 49
25.4
 74
    0
 49
-12.7
 74
    0
  0
LTYPE
  5
3A
330
5
100
AcDbSymbolTableRecord
100
AcDbLinetypeTableRecord
  2
DASHDOT
 70
    0
  3
Dash dot __ . __ . __ . __ . __ . __ . __ . __
 72
   65
 73
    4
 40
25.4
 49
12.7
 74
    0
 49
-6.35
 74
    0
 49
0
 74
    0
 49
-6.35
 74
    0
  0
LTYPE
  5
3B
330
5
100
AcDbSymbolTableRecord
100
AcDbLinetypeTableRecord
  2
DASHDOTTINY
 70
    0
  3
Dash dot (.15x) _._._._._._._._._._._._._._._.
 72
   65
 73
    4
 40
3.81
 49
1.905
 74
    0
 49
-0.9525
 74
    0
 49
0
 74
    0
 49
-0.9525
 74
    0
  0
LTYPE
  5
3C
330
5
100
AcDbSymbolTableRecord
100
AcDbLinetypeTableRecord
  2
DASHDOT2
 70
    0
  3
Dash dot (.5x) _._._._._._._._._._._._._._._.
 72
   65
 73
    4
 40
12.7
 49
6.35
 74
    0
 49
-3.175
 74
    0
 49
0
 74
    0
 49
-3.175
 74
    0
  0
LTYPE
  5
3D
330
5
100
AcDbSymbolTableRecord
100
AcDbLinetypeTableRecord
  2
DASHDOTX2
 70
    0
  3
Dash dot (2x) ____  .  ____  .  ____  .  ___
 72
   65
 73
    4
 40
50.8
 49
25.4
 74
    0
 49
-12.7
 74
    0
 49
0
 74
    0
 49
-12.7
 74
    0
  0
LTYPE
  5
3E
330
5
100
AcDbSymbolTableRecord
100
AcDbLinetypeTableRecord
  2
DIVIDE
 70
    0
  3
Divide ____ . . ____ . . ____ . . ____ . . ____
 72
   65
 73
    6
 40
31.75
 49
12.7
 74
    0
 49
-6.35
 74
    0
 49
0
 74
    0
 49
-6.35
 74
    0
 49
0
 74
    0
 49
-6.35
 74
    0
  0
LTYPE
  5
3F
330
5
100
AcDbSymbolTableRecord
100
AcDbLinetypeTableRecord
  2
DIVIDETINY
 70
    0
  3
Divide (.15x) __..__..__..__..__..__..__..__.._
 72
   65
 73
    6
 40
4.7625
 49
1.905
 74
    0
 49
-0.9525
 74
    0
 49
0
 74
    0
 49
-0.9525
 74
    0
 49
0
 74
    0
 49
-0.9525
 74
    0
  0
LTYPE
  5
40
330
5
100
AcDbSymbolTableRecord
100
AcDbLinetypeTableRecord
  2
DIVIDE2
 70
    0
  3
Divide (.5x) __..__..__..__..__..__..__..__.._
 72
   65
 73
    6
 40
15.875
 49
6.35
 74
    0
 49
-3.175
 74
    0
 49
0
 74
    0
 49
-3.175
 74
    0
 49
0
 74
    0
 49
-3.175
 74
    0
  0
LTYPE
  5
41
330
5
100
AcDbSymbolTableRecord
100
AcDbLinetypeTableRecord
  2
DIVIDEX2
 70
    0
  3
Divide (2x) ________  .  .  ________  .  .  _
 72
   65
 73
    6
 40
63.5
 49
25.4
 74
    0
 49
-12.7
 74
    0
 49
0
 74
    0
 49
-12.7
 74
    0
 49
0
 74
    0
 49
-12.7
 74
    0
  0
LTYPE
  5
42
330
5
100
AcDbSymbolTableRecord
100
AcDbLinetypeTableRecord
  2
BORDER
 70
    0
  3
Border __ __ . __ __ . __ __ . __ __ . __ __ .
 72
   65
 73
    6
 40
44.45
 49
12.7
 74
    0
 49
-6.35
 74
    0
 49
12.7
 74
    0
 49
-6.35
 74
    0
 49
0
 74
    0
 49
-6.35
 74
    0
  0
LTYPE
  5
43
330
5
100
AcDbSymbolTableRecord
100
AcDbLinetypeTableRecord
  2
BORDERTINY
 70
    0
  3
Border (.15x) __.__.__.__.__.__.__.__.__.__.__.
 72
   65
 73
    6
 40
6.6675
 49
1.905
 74
    0
 49
-0.9525
 74
    0
 49
1.905
 74
    0
 49
-0.9525
 74
    0
 49
0
 74
    0
 49
-0.9525
 74
    0
  0
LTYPE
  5
44
330
5
100
AcDbSymbolTableRecord
100
AcDbLinetypeTableRecord
  2
BORDER2
 70
    0
  3
Border (.5x) __.__.__.__.__.__.__.__.__.__.__.
 72
   65
 73
    6
 40
22.225
 49
6.35
 74
    0
 49
-3.175
 74
    0
 49
6.35
 74
    0
 49
-3.175
 74
    0
 49
0
 74
    0
 49
-3.175
 74
    0
  0
LTYPE
  5
45
330
5
100
AcDbSymbolTableRecord
100
AcDbLinetypeTableRecord
  2
BORDERX2
 70
    0
  3
Border (2x) ____  ____  .  ____  ____  .  ___
 72
   65
 73
    6
 40
88.89999999999999
 49
25.4
 74
    0
 49
-12.7
 74
    0
 49
25.4
 74
    0
 49
-12.7
 74
    0
 49
0
 74
    0
 49
-12.7
 74
    0
  0
LTYPE
  5
46
330
5
100
AcDbSymbolTableRecord
100
AcDbLinetypeTableRecord
  2
CENTER
 70
    0
  3
Center ____ _ ____ _ ____ _ ____ _ ____ _ ____
 72
   65
 73
    4
 40
50.8
 49
31.75
 74
    0
 49
-6.35
 74
    0
 49
6.35
 74
    0
 49
-6.35
 74
    0
  0
LTYPE
  5
47
330
5
100
AcDbSymbolTableRecord
100
AcDbLinetypeTableRecord
  2
CENTERTINY
 70
    0
  3
Center (.15x) ___ _ ___ _ ___ _ ___ _ ___ _ ___
 72
   65
 73
    4
 40
7.619999999999999
 49
4.7625
 74
    0
 49
-0.9525
 74
    0
 49
0.9525
 74
    0
 49
-0.9525
 74
    0
  0
LTYPE
  5
48
330
5
100
AcDbSymbolTableRecord
100
AcDbLinetypeTableRecord
  2
CENTER2
 70
    0
  3
Center (.5x) ___ _ ___ _ ___ _ ___ _ ___ _ ___
 72
   65
 73
    4
 40
28.575
 49
19.05
 74
    0
 49
-3.175
 74
    0
 49
3.175
 74
    0
 49
-3.175
 74
    0
  0
LTYPE
  5
49
330
5
100
AcDbSymbolTableRecord
100
AcDbLinetypeTableRecord
  2
CENTERX2
 70
    0
  3
Center (2x) ________  __  ________  __  _____
 72
   65
 73
    4
 40
101.6
 49
63.5
 74
    0
 49
-12.7
 74
    0
 49
12.7
 74
    0
 49
-12.7
 74
    0
  0
ENDTAB
  0
TABLE
  2
LAYER
  5
2
330
0
100
AcDbSymbolTable
 70
    1
  0
LAYER
  5
10
330
2
100
AcDbSymbolTableRecord
100
AcDbLayerTableRecord
  2
0
 70
    0
 62
    7
  6
CONTINUOUS
370
   -3
390
F
  0
LAYER
  5
4A
330
2
100
AcDbSymbolTableRecord
100
AcDbLayerTableRecord
  2
Layer 1
 70
    0
 62
    7
  6
CONTINUOUS
370
   -3
390
F
  0
ENDTAB
  0
TABLE
  2
STYLE
  5
3
330
0
100
AcDbSymbolTable
 70
    3
  0
STYLE
  5
4B
330
2
100
AcDbSymbolTableRecord
100
AcDbTextStyleTableRecord
  2
Standard
 70
    0
 40
0
 41
1
 50
0
 71
    0
 42
1
  3
txt
  4

  0
ENDTAB
  0
TABLE
  2
VIEW
  5
6
330
0
100
AcDbSymbolTable
 70
    0
  0
ENDTAB
  0
TABLE
  2
UCS
  5
7
330
0
100
AcDbSymbolTable
 70
    0
  0
ENDTAB
  0
TABLE
  2
APPID
  5
9
330
0
100
AcDbSymbolTable
 70
    1
  0
APPID
  5
12
330
9
100
AcDbSymbolTableRecord
100
AcDbRegAppTableRecord
  2
ACAD
 70
    0
  0
APPID
  5
4C
330
9
100
AcDbSymbolTableRecord
100
AcDbRegAppTableRecord
  2
LibreCad
 70
    0
  0
ENDTAB
  0
TABLE
  2
DIMSTYLE
  5
A
330
0
100
AcDbSymbolTable
 70
    1
100
AcDbDimStyleTable
 71
    1
  0
DIMSTYLE
105
4D
330
A
100
AcDbSymbolTableRecord
100
AcDbDimStyleTableRecord
  2
Standard
 70
    0
 40
1
 41
0.18
 42
0.0625
 43
0.38
 44
0.18
 45
0
 46
0
 47
0
 48
0
 49
1
140
0.18
141
0.09
142
0
143
25.4
144
1
145
0
146
1
147
0.09
148
0
 71
    0
 72
    0
 73
    1
 74
    1
 75
    0
 76
    0
 77
    0
 78
    0
 79
    0
170
    0
171
    2
172
    0
173
    0
174
    0
175
    0
176
    0
177
    0
178
    0
179
    0
271
    4
272
    4
273
    2
274
    2
275
    0
276
    0
277
    2
278
   46
279
    0
280
    0
281
    0
282
    0
283
    1
284
    0
285
    0
286
    0
288
    0
289
    3
340
4B
  0
ENDTAB
  0
TABLE
  2
BLOCK_RECORD
  5
1
330
0
100
AcDbSymbolTable
 70
    2
  0
BLOCK_RECORD
  5
1F
330
1
100
AcDbSymbolTableRecord
100
AcDbBlockTableRecord
  2
*Model_Space
 70
    0
280
    1
281
    0
  0
BLOCK_RECORD
  5
1E
330
1
100
AcDbSymbolTableRecord
100
AcDbBlockTableRecord
  2
*Paper_Space
 70
    0
280
    1
281
    0
  0
ENDTAB
  0
ENDSEC
  0
SECTION
  2
BLOCKS
  0
BLOCK
  5
20
330
1F
100
AcDbEntity
  8
0
100
AcDbBlockBegin
  2
*Model_Space
 70
    0
 10
0
 20
0
 30
0
  3
*Model_Space
  1

  0
ENDBLK
  5
21
330
1F
100
AcDbEntity
  8
0
100
AcDbBlockEnd
  0
BLOCK
  5
1C
330
1B
100
AcDbEntity
  8
0
100
AcDbBlockBegin
  2
*Paper_Space
 70
    0
 10
0
 20
0
 30
0
  3
*Paper_Space
  1

  0
ENDBLK
  5
1D
330
1F
100
AcDbEntity
  8
0
100
AcDbBlockEnd
  0
ENDSEC
  0
SECTION
  2
ENTITIES
  0
SPLINE
  5
4E
100
AcDbEntity
  8
Layer 1
  6
ByLayer
 62
  256
370
    0
100
AcDbSpline
210
0
220
0
230
0
 70
 4096
 71
    3
 72
   52
 73
   48
 74
    0
 42
1e-07
 43
1e-07
 40
0
 40
0
 40
0
 40
0
 40
0.07692307700000001
 40
0.07692307700000001
 40
0.07692307700000001
 40
0.07692307700000001
 40
0.153846154
 40
0.153846154
 40
0.153846154
 40
0.153846154
 40
0.230769231
 40
0.230769231
 40
0.230769231
 40
0.230769231
 40
0.307692308
 40
0.307692308
 40
0.307692308
 40
0.307692308
 40
0.384615385
 40
0.384615385
 40
0.384615385
 40
0.384615385
 40
0.461538462
 40
0.461538462
 40
0.461538462
 40
0.461538462
 40
0.5384615380000001
 40
0.5384615380000001
 40
0.5384615380000001
 40
0.5384615380000001
 40
0.6153846150000001
 40
0.6153846150000001
 40
0.6153846150000001
 40
0.6153846150000001
 40
0.6923076920000001
 40
0.6923076920000001
 40
0.6923076920000001
 40
0.6923076920000001
 40
0.7692307690000001
 40
0.7692307690000001
 40
0.7692307690000001
 40
0.7692307690000001
 40
0.8461538460000001
 40
0.8461538460000001
 40
0.8461538460000001
 40
0.8461538460000001
 40
1
 40
1
 40
1
 40
1
 10
-2.545311023622047
 20
2.311751968503937
 30
0
 10
-2.556051181102362
 20
2.315275590551181
 30
0
 10
-2.568299212598425
 20
2.320287401574803
 30
0
 10
-2.581334645669291
 20
2.326224409448819
 30
0
 10
-2.581334645669291
 20
2.326224409448819
 30
0
 10
-2.593507874015748
 20
2.333444881889764
 30
0
 10
-2.606055118110236
 20
2.341976377952756
 30
0
 10
-2.618177165354331
 20
2.351122047244095
 30
0
 10
-2.618177165354331
 20
2.351122047244095
 30
0
 10
-2.628988188976378
 20
2.361826771653543
 30
0
 10
-2.639185039370079
 20
2.373074803149606
 30
0
 10
-2.648031496062992
 20
2.384129921259842
 30
0
 10
-2.648031496062992
 20
2.384129921259842
 30
0
 10
-2.655755905511811
 20
2.396181102362205
 30
0
 10
-2.662484251968504
 20
2.407551181102362
 30
0
 10
-2.667444881889764
 20
2.417696850393701
 30
0
 10
-2.667444881889764
 20
2.417696850393701
 30
0
 10
-2.675027559055118
 20
2.439629921259843
 30
0
 10
-2.677937007874016
 20
2.454346456692913
 30
0
 10
-2.677937007874016
 20
2.454346456692913
 30
0
 10
-2.677937007874016
 20
2.454346456692913
 30
0
 10
-2.677937007874016
 20
2.454346456692913
 30
0
 10
-2.66705905511811
 20
2.443712598425197
 30
0
 10
-2.64938188976378
 20
2.430799212598425
 30
0
 10
-2.64938188976378
 20
2.430799212598425
 30
0
 10
-2.641917322834646
 20
2.423318897637795
 30
0
 10
-2.632629921259842
 20
2.415279527559055
 30
0
 10
-2.622503937007874
 20
2.407185039370079
 30
0
 10
-2.622503937007874
 20
2.407185039370079
 30
0
 10
-2.613291338582677
 20
2.398283464566929
 30
0
 10
-2.602917322834646
 20
2.389385826771654
 30
0
 10
-2.592161417322834
 20
2.38109842519685
 30
0
 10
-2.592161417322834
 20
2.38109842519685
 30
0
 10
-2.582456692913386
 20
2.371653543307087
 30
0
 10
-2.572188976377953
 20
2.362685039370079
 30
0
 10
-2.562062992125984
 20
2.354834645669291
 30
0
 10
-2.562062992125984
 20
2.354834645669291
 30
0
 10
-2.552602362204724
 20
2.345933070866142
 30
0
 10
-2.543334645669291
 20
2.337842519685039
 30
0
 10
-2.534925196850394
 20
2.331535433070866
 30
0
 10
-2.534925196850394
 20
2.331535433070866
 30
0
 10
-2.519594488188976
 20
2.315905511811024
 30
0
 10
-2.507610236220473
 20
2.306566929133858
 30
0
 10
-2.507610236220473
 20
2.306566929133858
 30
0
 10
-2.507610236220473
 20
2.306566929133858
 30
0
 10
-2.507610236220473
 20
2.306566929133858
 30
0
 10
-2.522503937007874
 20
2.307374015748032
 30
0
 10
-2.545311023622047
 20
2.311751968503937
 30
0
  0
SPLINE
  5
4F
100
AcDbEntity
  8
Layer 1
  6
ByLayer
 62
  256
370
    0
100
AcDbSpline
210
0
220
0
230
0
 70
 4096
 71
    3
 72
   52
 73
   48
 74
    0
 42
1e-07
 43
1e-07
 40
0
 40
0
 40
0
 40
0
 40
0.07692307700000001
 40
0.07692307700000001
 40
0.07692307700000001
 40
0.07692307700000001
 40
0.153846154
 40
0.153846154
 40
0.153846154
 40
0.153846154
 40
0.230769231
 40
0.230769231
 40
0.230769231
 40
0.230769231
 40
0.307692308
 40
0.307692308
 40
0.307692308
 40
0.307692308
 40
0.384615385
 40
0.384615385
 40
0.384615385
 40
0.384615385
 40
0.461538462
 40
0.461538462
 40
0.461538462
 40
0.461538462
 40
0.5384615380000001
 40
0.5384615380000001
 40
0.5384615380000001
 40
0.5384615380000001
 40
0.6153846150000001
 40
0.6153846150000001
 40
0.6153846150000001
 40
0.6153846150000001
 40
0.6923076920000001
 40
0.6923076920000001
 40
0.6923076920000001
 40
0.6923076920000001
 40
0.7692307690000001
 40
0.7692307690000001
 40
0.7692307690000001
 40
0.7692307690000001
 40
0.8461538460000001
 40
0.8461538460000001
 40
0.8461538460000001
 40
0.8461538460000001
 40
1
 40
1
 40
1
 40
1
 10
-2.812681102362205
 20
2.333444881889764
 30
0
 10
-2.82344094488189
 20
2.33698031496063
 30
0
 10
-2.835669291338583
 20
2.341976377952756
 30
0
 10
-2.848720472440945
 20
2.347842519685039
 30
0
 10
-2.848720472440945
 20
2.347842519685039
 30
0
 10
-2.860826771653543
 20
2.355149606299213
 30
0
 10
-2.87344094488189
 20
2.363614173228346
 30
0
 10
-2.885547244094488
 20
2.372826771653543
 30
0
 10
-2.885547244094488
 20
2.372826771653543
 30
0
 10
-2.896358267716535
 20
2.383515748031496
 30
0
 10
-2.9065
 20
2.394763779527559
 30
0
 10
-2.91540157480315
 20
2.405763779527559
 30
0
 10
-2.91540157480315
 20
2.405763779527559
 30
0
 10
-2.923125984251969
 20
2.417870078740158
 30
0
 10
-2.929803149606299
 20
2.429240157480315
 30
0
 10
-2.934744094488189
 20
2.439385826771653
 30
0
 10
-2.934744094488189
 20
2.439385826771653
 30
0
 10
-2.942417322834646
 20
2.461318897637795
 30
0
 10
-2.945307086614173
 20
2.476035433070866
 30
0
 10
-2.945307086614173
 20
2.476035433070866
 30
0
 10
-2.945307086614173
 20
2.476035433070866
 30
0
 10
-2.945307086614173
 20
2.476035433070866
 30
0
 10
-2.934374015748031
 20
2.465401574803149
 30
0
 10
-2.916767716535433
 20
2.452492125984252
 30
0
 10
-2.916767716535433
 20
2.452492125984252
 30
0
 10
-2.909287401574803
 20
2.445007874015748
 30
0
 10
-2.899948818897638
 20
2.436968503937008
 30
0
 10
-2.889874015748032
 20
2.428874015748031
 30
0
 10
-2.889874015748032
 20
2.428874015748031
 30
0
 10
-2.880606299212598
 20
2.419972440944882
 30
0
 10
-2.870287401574803
 20
2.411074803149606
 30
0
 10
-2.859531496062992
 20
2.402803149606299
 30
0
 10
-2.859531496062992
 20
2.402803149606299
 30
0
 10
-2.849755905511811
 20
2.39334251968504
 30
0
 10
-2.839503937007874
 20
2.384318897637795
 30
0
 10
-2.829433070866142
 20
2.376472440944882
 30
0
 10
-2.829433070866142
 20
2.376472440944882
 30
0
 10
-2.819972440944882
 20
2.367625984251969
 30
0
 10
-2.810700787401575
 20
2.359531496062992
 30
0
 10
-2.802240157480315
 20
2.353224409448819
 30
0
 10
-2.802240157480315
 20
2.353224409448819
 30
0
 10
-2.786909448818898
 20
2.337523622047244
 30
0
 10
-2.774909448818898
 20
2.328204724409449
 30
0
 10
-2.774909448818898
 20
2.328204724409449
 30
0
 10
-2.774909448818898
 20
2.328204724409449
 30
0
 10
-2.774909448818898
 20
2.328204724409449
 30
0
 10
-2.789870078740158
 20
2.329062992125984
 30
0
 10
-2.812681102362205
 20
2.333444881889764
 30
0
  0
SPLINE
  5
50
100
AcDbEntity
  8
Layer 1
  6
ByLayer
 62
  256
370
    0
100
AcDbSpline
210
0
220
0
230
0
 70
 4096
 71
    3
 72
   52
 73
   48
 74
    0
 42
1e-07
 43
1e-07
 40
0
 40
0
 40
0
 40
0
 40
0.07692307700000001
 40
0.07692307700000001
 40
0.07692307700000001
 40
0.07692307700000001
 40
0.153846154
 40
0.153846154
 40
0.153846154
 40
0.153846154
 40
0.230769231
 40
0.230769231
 40
0.230769231
 40
0.230769231
 40
0.307692308
 40
0.307692308
 40
0.307692308
 40
0.307692308
 40
0.384615385
 40
0.384615385
 40
0.384615385
 40
0.384615385
 40
0.461538462
 40
0.461538462
 40
0.461538462
 40
0.461538462
 40
0.5384615380000001
 40
0.5384615380000001
 40
0.5384615380000001
 40
0.5384615380000001
 40
0.6153846150000001
 40
0.6153846150000001
 40
0.6153846150000001
 40
0.6153846150000001
 40
0.6923076920000001
 40
0.6923076920000001
 40
0.6923076920000001
 40
0.6923076920000001
 40
0.7692307690000001
 40
0.7692307690000001
 40
0.7692307690000001
 40
0.7692307690000001
 40
0.8461538460000001
 40
0.8461538460000001
 40
0.8461538460000001
 40
0.8461538460000001
 40
1
 40
1
 40
1
 40
1
 10
-3.080051181102362
 20
2.35507874015748
 30
0
 10
-3.090811023622047
 20
2.358602362204724
 30
0
 10
-3.102984251968504
 20
2.363614173228346
 30
0
 10
-3.11601968503937
 20
2.369551181102362
 30
0
 10
-3.11601968503937
 20
2.369551181102362
 30
0
 10
-3.128196850393701
 20
2.376838582677165
 30
0
 10
-3.140740157480315
 20
2.385303149606299
 30
0
 10
-3.152917322834646
 20
2.394448818897638
 30
0
 10
-3.152917322834646
 20
2.394448818897638
 30
0
 10
-3.163673228346457
 20
2.405204724409449
 30
0
 10
-3.173870078740157
 20
2.416452755905512
 30
0
 10
-3.182716535433071
 20
2.427452755905512
 30
0
 10
-3.182716535433071
 20
2.427452755905512
 30
0
 10
-3.190444881889764
 20
2.439507874015748
 30
0
 10
-3.197173228346457
 20
2.450877952755905
 30
0
 10
-3.202114173228346
 20
2.461023622047244
 30
0
 10
-3.202114173228346
 20
2.461023622047244
 30
0
 10
-3.209716535433071
 20
2.482956692913386
 30
0
 10
-3.212692913385827
 20
2.497673228346457
 30
0
 10
-3.212692913385827
 20
2.497673228346457
 30
0
 10
-3.212692913385827
 20
2.497673228346457
 30
0
 10
-3.212692913385827
 20
2.497673228346457
 30
0
 10
-3.201744094488189
 20
2.487090551181102
 30
0
 10
-3.184066929133858
 20
2.474125984251969
 30
0
 10
-3.184066929133858
 20
2.474125984251969
 30
0
 10
-3.176657480314961
 20
2.466645669291339
 30
0
 10
-3.167318897637795
 20
2.458606299212598
 30
0
 10
-3.157192913385827
 20
2.45057874015748
 30
0
 10
-3.157192913385827
 20
2.45057874015748
 30
0
 10
-3.147976377952756
 20
2.441610236220472
 30
0
 10
-3.137657480314961
 20
2.432779527559055
 30
0
 10
-3.126846456692913
 20
2.424492125984252
 30
0
 10
-3.126846456692913
 20
2.424492125984252
 30
0
 10
-3.117141732283465
 20
2.415031496062992
 30
0
 10
-3.106874015748032
 20
2.406011811023622
 30
0
 10
-3.096748031496063
 20
2.398161417322834
 30
0
 10
-3.096748031496063
 20
2.398161417322834
 30
0
 10
-3.087338582677166
 20
2.389259842519685
 30
0
 10
-3.078070866141732
 20
2.381165354330709
 30
0
 10
-3.069610236220472
 20
2.374858267716535
 30
0
 10
-3.069610236220472
 20
2.374858267716535
 30
0
 10
-3.054279527559055
 20
2.359232283464567
 30
0
 10
-3.042295275590551
 20
2.349893700787402
 30
0
 10
-3.042295275590551
 20
2.349893700787402
 30
0
 10
-3.042295275590551
 20
2.349893700787402
 30
0
 10
-3.042295275590551
 20
2.349893700787402
 30
0
 10
-3.057240157480315
 20
2.350700787401575
 30
0
 10
-3.080051181102362
 20
2.35507874015748
 30
0
  0
SPLINE
  5
51
100
AcDbEntity
  8
Layer 1
  6
ByLayer
 62
  256
370
    0
100
AcDbSpline
210
0
220
0
230
0
 70
 4096
 71
    3
 72
   52
 73
   48
 74
    0
 42
1e-07
 43
1e-07
 40
0
 40
0
 40
0
 40
0
 40
0.07692307700000001
 40
0.07692307700000001
 40
0.07692307700000001
 40
0.07692307700000001
 40
0.153846154
 40
0.153846154
 40
0.153846154
 40
0.153846154
 40
0.230769231
 40
0.230769231
 40
0.230769231
 40
0.230769231
 40
0.307692308
 40
0.307692308
 40
0.307692308
 40
0.307692308
 40
0.384615385
 40
0.384615385
 40
0.384615385
 40
0.384615385
 40
0.461538462
 40
0.461538462
 40
0.461538462
 40
0.461538462
 40
0.5384615380000001
 40
0.5384615380000001
 40
0.5384615380000001
 40
0.5384615380000001
 40
0.6153846150000001
 40
0.6153846150000001
 40
0.6153846150000001
 40
0.6153846150000001
 40
0.6923076920000001
 40
0.6923076920000001
 40
0.6923076920000001
 40
0.6923076920000001
 40
0.7692307690000001
 40
0.7692307690000001
 40
0.7692307690000001
 40
0.7692307690000001
 40
0.8461538460000001
 40
0.8461538460000001
 40
0.8461538460000001
 40
0.8461538460000001
 40
1
 40
1
 40
1
 40
1
 10
-3.34742125984252
 20
2.376767716535433
 30
0
 10
-3.358110236220472
 20
2.380291338582677
 30
0
 10
-3.370354330708662
 20
2.385303149606299
 30
0
 10
-3.383389763779527
 20
2.391169291338583
 30
0
 10
-3.383389763779527
 20
2.391169291338583
 30
0
 10
-3.395566929133858
 20
2.398476377952756
 30
0
 10
-3.408110236220472
 20
2.406937007874016
 30
0
 10
-3.420232283464567
 20
2.416153543307086
 30
0
 10
-3.420232283464567
 20
2.416153543307086
 30
0
 10
-3.431043307086614
 20
2.426842519685039
 30
0
 10
-3.441240157480315
 20
2.438090551181102
 30
0
 10
-3.450086614173228
 20
2.449090551181103
 30
0
 10
-3.450086614173228
 20
2.449090551181103
 30
0
 10
-3.457814960629921
 20
2.461196850393701
 30
0
 10
-3.464488188976378
 20
2.472566929133858
 30
0
 10
-3.4695
 20
2.482712598425197
 30
0
 10
-3.4695
 20
2.482712598425197
 30
0
 10
-3.477086614173228
 20
2.504645669291338
 30
0
 10
-3.480062992125984
 20
2.519291338582677
 30
0
 10
-3.480062992125984
 20
2.519291338582677
 30
0
 10
-3.480062992125984
 20
2.519291338582677
 30
0
 10
-3.480062992125984
 20
2.519291338582677
 30
0
 10
-3.469114173228347
 20
2.508728346456693
 30
0
 10
-3.451437007874016
 20
2.495814960629921
 30
0
 10
-3.451437007874016
 20
2.495814960629921
 30
0
 10
-3.444027559055118
 20
2.488334645669291
 30
0
 10
-3.434688976377953
 20
2.480295275590551
 30
0
 10
-3.424562992125984
 20
2.472200787401575
 30
0
 10
-3.424562992125984
 20
2.472200787401575
 30
0
 10
-3.415346456692913
 20
2.463299212598425
 30
0
 10
-3.404976377952756
 20
2.45440157480315
 30
0
 10
-3.394216535433071
 20
2.446129921259843
 30
0
 10
-3.394216535433071
 20
2.446129921259843
 30
0
 10
-3.384511811023622
 20
2.436669291338583
 30
0
 10
-3.374244094488189
 20
2.427700787401575
 30
0
 10
-3.364118110236221
 20
2.419799212598425
 30
0
 10
-3.364118110236221
 20
2.419799212598425
 30
0
 10
-3.354657480314961
 20
2.410952755905512
 30
0
 10
-3.345389763779528
 20
2.402858267716535
 30
0
 10
-3.33698031496063
 20
2.396551181102362
 30
0
 10
-3.33698031496063
 20
2.396551181102362
 30
0
 10
-3.321649606299212
 20
2.38092125984252
 30
0
 10
-3.309665354330709
 20
2.371582677165355
 30
0
 10
-3.309665354330709
 20
2.371582677165355
 30
0
 10
-3.309665354330709
 20
2.371582677165355
 30
0
 10
-3.309665354330709
 20
2.371582677165355
 30
0
 10
-3.32455905511811
 20
2.372389763779528
 30
0
 10
-3.34742125984252
 20
2.376767716535433
 30
0
  0
SPLINE
  5
52
100
AcDbEntity
  8
Layer 1
  6
ByLayer
 62
  256
370
    0
100
AcDbSpline
210
0
220
0
230
0
 70
 4096
 71
    3
 72
   52
 73
   48
 74
    0
 42
1e-07
 43
1e-07
 40
0
 40
0
 40
0
 40
0
 40
0.07692307700000001
 40
0.07692307700000001
 40
0.07692307700000001
 40
0.07692307700000001
 40
0.153846154
 40
0.153846154
 40
0.153846154
 40
0.153846154
 40
0.230769231
 40
0.230769231
 40
0.230769231
 40
0.230769231
 40
0.307692308
 40
0.307692308
 40
0.307692308
 40
0.307692308
 40
0.384615385
 40
0.384615385
 40
0.384615385
 40
0.384615385
 40
0.461538462
 40
0.461538462
 40
0.461538462
 40
0.461538462
 40
0.5384615380000001
 40
0.5384615380000001
 40
0.5384615380000001
 40
0.5384615380000001
 40
0.6153846150000001
 40
0.6153846150000001
 40
0.6153846150000001
 40
0.6153846150000001
 40
0.6923076920000001
 40
0.6923076920000001
 40
0.6923076920000001
 40
0.6923076920000001
 40
0.7692307690000001
 40
0.7692307690000001
 40
0.7692307690000001
 40
0.7692307690000001
 40
0.8461538460000001
 40
0.8461538460000001
 40
0.8461538460000001
 40
0.8461538460000001
 40
1
 40
1
 40
1
 40
1
 10
-3.614740157480315
 20
2.398476377952756
 30
0
 10
-3.625496062992126
 20
2.401929133858268
 30
0
 10
-3.637724409448819
 20
2.406937007874016
 30
0
 10
-3.650759842519685
 20
2.412929133858268
 30
0
 10
-3.650759842519685
 20
2.412929133858268
 30
0
 10
-3.662937007874016
 20
2.420165354330709
 30
0
 10
-3.675496062992126
 20
2.428629921259843
 30
0
 10
-3.687602362204724
 20
2.437842519685039
 30
0
 10
-3.687602362204724
 20
2.437842519685039
 30
0
 10
-3.698413385826772
 20
2.448531496062992
 30
0
 10
-3.70855905511811
 20
2.459779527559055
 30
0
 10
-3.717456692913386
 20
2.470779527559055
 30
0
 10
-3.717456692913386
 20
2.470779527559055
 30
0
 10
-3.725185039370079
 20
2.482905511811023
 30
0
 10
-3.731858267716536
 20
2.494275590551181
 30
0
 10
-3.736799212598425
 20
2.50440157480315
 30
0
 10
-3.736799212598425
 20
2.50440157480315
 30
0
 10
-3.744472440944882
 20
2.526283464566929
 30
0
 10
-3.747362204724409
 20
2.541
 30
0
 10
-3.747362204724409
 20
2.541
 30
0
 10
-3.747362204724409
 20
2.541
 30
0
 10
-3.747362204724409
 20
2.541
 30
0
 10
-3.736433070866142
 20
2.530417322834646
 30
0
 10
-3.718822834645669
 20
2.517452755905512
 30
0
 10
-3.718822834645669
 20
2.517452755905512
 30
0
 10
-3.71134251968504
 20
2.509972440944882
 30
0
 10
-3.702003937007874
 20
2.502
 30
0
 10
-3.691933070866142
 20
2.493905511811024
 30
0
 10
-3.691933070866142
 20
2.493905511811024
 30
0
 10
-3.682661417322834
 20
2.485007874015748
 30
0
 10
-3.672342519685039
 20
2.476106299212598
 30
0
 10
-3.661586614173229
 20
2.467818897637795
 30
0
 10
-3.661586614173229
 20
2.467818897637795
 30
0
 10
-3.651811023622047
 20
2.458358267716536
 30
0
 10
-3.641562992125984
 20
2.449338582677165
 30
0
 10
-3.631488188976378
 20
2.441488188976378
 30
0
 10
-3.631488188976378
 20
2.441488188976378
 30
0
 10
-3.622027559055118
 20
2.432586614173228
 30
0
 10
-3.612759842519685
 20
2.424492125984252
 30
0
 10
-3.604295275590551
 20
2.418185039370079
 30
0
 10
-3.604295275590551
 20
2.418185039370079
 30
0
 10
-3.588968503937008
 20
2.40253937007874
 30
0
 10
-3.576964566929134
 20
2.393220472440945
 30
0
 10
-3.576964566929134
 20
2.393220472440945
 30
0
 10
-3.576964566929134
 20
2.393220472440945
 30
0
 10
-3.576964566929134
 20
2.393220472440945
 30
0
 10
-3.591929133858268
 20
2.394027559055118
 30
0
 10
-3.614740157480315
 20
2.398476377952756
 30
0
  0
SPLINE
  5
53
100
AcDbEntity
  8
Layer 1
  6
ByLayer
 62
  256
370
    0
100
AcDbSpline
210
0
220
0
230
0
 70
 4096
 71
    3
 72
   52
 73
   48
 74
    0
 42
1e-07
 43
1e-07
 40
0
 40
0
 40
0
 40
0
 40
0.07692307700000001
 40
0.07692307700000001
 40
0.07692307700000001
 40
0.07692307700000001
 40
0.153846154
 40
0.153846154
 40
0.153846154
 40
0.153846154
 40
0.230769231
 40
0.230769231
 40
0.230769231
 40
0.230769231
 40
0.307692308
 40
0.307692308
 40
0.307692308
 40
0.307692308
 40
0.384615385
 40
0.384615385
 40
0.384615385
 40
0.384615385
 40
0.461538462
 40
0.461538462
 40
0.461538462
 40
0.461538462
 40
0.5384615380000001
 40
0.5384615380000001
 40
0.5384615380000001
 40
0.5384615380000001
 40
0.6153846150000001
 40
0.6153846150000001
 40
0.6153846150000001
 40
0.6153846150000001
 40
0.6923076920000001
 40
0.6923076920000001
 40
0.6923076920000001
 40
0.6923076920000001
 40
0.7692307690000001
 40
0.7692307690000001
 40
0.7692307690000001
 40
0.7692307690000001
 40
0.8461538460000001
 40
0.8461538460000001
 40
0.8461538460000001
 40
0.8461538460000001
 40
1
 40
1
 40
1
 40
1
 10
-3.882110236220472
 20
2.420094488188977
 30
0
 10
-3.892866141732283
 20
2.42361811023622
 30
0
 10
-3.905043307086614
 20
2.428629921259843
 30
0
 10
-3.91807874015748
 20
2.434566929133858
 30
0
 10
-3.91807874015748
 20
2.434566929133858
 30
0
 10
-3.930251968503937
 20
2.441803149606299
 30
0
 10
-3.942799212598425
 20
2.450318897637795
 30
0
 10
-3.95492125984252
 20
2.45948031496063
 30
0
 10
-3.95492125984252
 20
2.45948031496063
 30
0
 10
-3.965732283464567
 20
2.470169291338583
 30
0
 10
-3.975929133858268
 20
2.481468503937008
 30
0
 10
-3.984826771653543
 20
2.492468503937008
 30
0
 10
-3.984826771653543
 20
2.492468503937008
 30
0
 10
-3.992555118110236
 20
2.504523622047244
 30
0
 10
-3.999177165354331
 20
2.515893700787402
 30
0
 10
-4.004169291338583
 20
2.52603937007874
 30
0
 10
-4.004169291338583
 20
2.52603937007874
 30
0
 10
-4.01184251968504
 20
2.547972440944882
 30
0
 10
-4.014751968503937
 20
2.562688976377953
 30
0
 10
-4.014751968503937
 20
2.562688976377953
 30
0
 10
-4.014751968503937
 20
2.562688976377953
 30
0
 10
-4.014751968503937
 20
2.562688976377953
 30
0
 10
-4.003803149606299
 20
2.552125984251969
 30
0
 10
-3.986192913385827
 20
2.539141732283464
 30
0
 10
-3.986192913385827
 20
2.539141732283464
 30
0
 10
-3.978712598425197
 20
2.531661417322835
 30
0
 10
-3.969374015748032
 20
2.523622047244094
 30
0
 10
-3.959248031496063
 20
2.515527559055118
 30
0
 10
-3.959248031496063
 20
2.515527559055118
 30
0
 10
-3.950031496062992
 20
2.506625984251968
 30
0
 10
-3.939712598425197
 20
2.497795275590551
 30
0
 10
-3.928956692913386
 20
2.489456692913386
 30
0
 10
-3.928956692913386
 20
2.489456692913386
 30
0
 10
-3.919196850393701
 20
2.479996062992126
 30
0
 10
-3.908933070866142
 20
2.471027559055118
 30
0
 10
-3.898787401574803
 20
2.463125984251969
 30
0
 10
-3.898787401574803
 20
2.463125984251969
 30
0
 10
-3.889397637795275
 20
2.454275590551181
 30
0
 10
-3.880129921259842
 20
2.446185039370079
 30
0
 10
-3.871665354330708
 20
2.439877952755905
 30
0
 10
-3.871665354330708
 20
2.439877952755905
 30
0
 10
-3.856338582677165
 20
2.424248031496063
 30
0
 10
-3.844334645669291
 20
2.414858267716535
 30
0
 10
-3.844334645669291
 20
2.414858267716535
 30
0
 10
-3.844334645669291
 20
2.414858267716535
 30
0
 10
-3.844334645669291
 20
2.414858267716535
 30
0
 10
-3.859299212598425
 20
2.415716535433071
 30
0
 10
-3.882110236220472
 20
2.420094488188977
 30
0
  0
SPLINE
  5
54
100
AcDbEntity
  8
Layer 1
  6
ByLayer
 62
  256
370
    0
100
AcDbSpline
210
0
220
0
230
0
 70
 4096
 71
    3
 72
  176
 73
  172
 74
    0
 42
1e-07
 43
1e-07
 40
0
 40
0
 40
0
 40
0
 40
0.022727273
 40
0.022727273
 40
0.022727273
 40
0.022727273
 40
0.04545454500000001
 40
0.04545454500000001
 40
0.04545454500000001
 40
0.04545454500000001
 40
0.06818181800000001
 40
0.06818181800000001
 40
0.06818181800000001
 40
0.06818181800000001
 40
0.09090909100000001
 40
0.09090909100000001
 40
0.09090909100000001
 40
0.09090909100000001
 40
0.113636364
 40
0.113636364
 40
0.113636364
 40
0.113636364
 40
0.136363636
 40
0.136363636
 40
0.136363636
 40
0.136363636
 40
0.159090909
 40
0.159090909
 40
0.159090909
 40
0.159090909
 40
0.181818182
 40
0.181818182
 40
0.181818182
 40
0.181818182
 40
0.204545455
 40
0.204545455
 40
0.204545455
 40
0.204545455
 40
0.227272727
 40
0.227272727
 40
0.227272727
 40
0.227272727
 40
0.25
 40
0.25
 40
0.25
 40
0.25
 40
0.272727273
 40
0.272727273
 40
0.272727273
 40
0.272727273
 40
0.295454545
 40
0.295454545
 40
0.295454545
 40
0.295454545
 40
0.318181818
 40
0.318181818
 40
0.318181818
 40
0.318181818
 40
0.340909091
 40
0.340909091
 40
0.340909091
 40
0.340909091
 40
0.363636364
 40
0.363636364
 40
0.363636364
 40
0.363636364
 40
0.386363636
 40
0.386363636
 40
0.386363636
 40
0.386363636
 40
0.409090909
 40
0.409090909
 40
0.409090909
 40
0.409090909
 40
0.4318181820000001
 40
0.4318181820000001
 40
0.4318181820000001
 40
0.4318181820000001
 40
0.454545455
 40
0.454545455
 40
0.454545455
 40
0.454545455
 40
0.477272727
 40
0.477272727
 40
0.477272727
 40
0.477272727
 40
0.5
 40
0.5
 40
0.5
 40
0.5
 40
0.522727273
 40
0.522727273
 40
0.522727273
 40
0.522727273
 40
0.545454545
 40
0.545454545
 40
0.545454545
 40
0.545454545
 40
0.568181818
 40
0.568181818
 40
0.568181818
 40
0.568181818
 40
0.590909091
 40
0.590909091
 40
0.590909091
 40
0.590909091
 40
0.613636364
 40
0.613636364
 40
0.613636364
 40
0.613636364
 40
0.636363636
 40
0.636363636
 40
0.636363636
 40
0.636363636
 40
0.659090909
 40
0.659090909
 40
0.659090909
 40
0.659090909
 40
0.681818182
 40
0.681818182
 40
0.681818182
 40
0.681818182
 40
0.7045454550000001
 40
0.7045454550000001
 40
0.7045454550000001
 40
0.7045454550000001
 40
0.727272727
 40
0.727272727
 40
0.727272727
 40
0.727272727
 40
0.75
 40
0.75
 40
0.75
 40
0.75
 40
0.7727272730000001
 40
0.7727272730000001
 40
0.7727272730000001
 40
0.7727272730000001
 40
0.795454545
 40
0.795454545
 40
0.795454545
 40
0.795454545
 40
0.818181818
 40
0.818181818
 40
0.818181818
 40
0.818181818
 40
0.840909091
 40
0.840909091
 40
0.840909091
 40
0.840909091
 40
0.8636363640000001
 40
0.8636363640000001
 40
0.8636363640000001
 40
0.8636363640000001
 40
0.886363636
 40
0.886363636
 40
0.886363636
 40
0.886363636
 40
0.909090909
 40
0.909090909
 40
0.909090909
 40
0.909090909
 40
0.9318181820000001
 40
0.9318181820000001
 40
0.9318181820000001
 40
0.9318181820000001
 40
0.9545454550000001
 40
0.9545454550000001
 40
0.9545454550000001
 40
0.9545454550000001
 40
1
 40
1
 40
1
 40
1
 10
1.005633858267716
 20
0.4972637795275591
 30
0
 10
0.938007874015748
 20
0.625751968503937
 30
0
 10
0.8934566929133858
 20
0.877740157480315
 30
0
 10
0.8539685039370079
 20
1.026870078740157
 30
0
 10
0.8539685039370079
 20
1.026870078740157
 30
0
 10
1.181220472440945
 20
0.9749566929133858
 30
0
 10
1.512448818897638
 20
0.9485748031496063
 30
0
 10
1.843905511811024
 20
0.9478188976377953
 30
0
 10
1.843905511811024
 20
0.9478188976377953
 30
0
 10
1.755834645669291
 20
0.9413897637795275
 30
0
 10
1.657318897637795
 20
0.9356417322834646
 30
0
 10
1.558492125984252
 20
0.9324370078740157
 30
0
 10
1.558492125984252
 20
0.9324370078740157
 30
0
 10
1.482472440944882
 20
0.9300905511811024
 30
0
 10
1.406381889763779
 20
0.9285984251968504
 30
0
 10
1.334937007874016
 20
0.9290905511811024
 30
0
 10
1.334937007874016
 20
0.9290905511811024
 30
0
 10
1.263543307086614
 20
0.9292125984251969
 30
0
 10
1.196917322834646
 20
0.9313149606299213
 30
0
 10
1.139748031496063
 20
0.9337874015748031
 30
0
 10
1.139748031496063
 20
0.9337874015748031
 30
0
 10
1.082582677165354
 20
0.9368188976377952
 30
0
 10
1.034929133858268
 20
0.9397244094488189
 30
0
 10
1.001748031496063
 20
0.9431259842519685
 30
0
 10
1.001748031496063
 20
0.9431259842519685
 30
0
 10
0.9683700787401575
 20
0.9460314960629921
 30
0
 10
0.9493267716535433
 20
0.9476968503937008
 30
0
 10
0.9493267716535433
 20
0.9476968503937008
 30
0
 10
0.9493267716535433
 20
0.9476968503937008
 30
0
 10
0.9493267716535433
 20
0.9476968503937008
 30
0
 10
0.9680551181102363
 20
0.9438582677165355
 30
0
 10
1.000818897637795
 20
0.9371850393700787
 30
0
 10
1.000818897637795
 20
0.9371850393700787
 30
0
 10
1.033562992125984
 20
0.9298976377952756
 30
0
 10
1.080653543307087
 20
0.921488188976378
 30
0
 10
1.13740157480315
 20
0.9119724409448818
 30
0
 10
1.13740157480315
 20
0.9119724409448818
 30
0
 10
1.194200787401575
 20
0.9028818897637795
 30
0
 10
1.260704724409449
 20
0.8930708661417323
 30
0
 10
1.332153543307087
 20
0.8846614173228347
 30
0
 10
1.332153543307087
 20
0.8846614173228347
 30
0
 10
1.403720472440945
 20
0.8759370078740157
 30
0
 10
1.480177165354331
 20
0.8685944881889763
 30
0
 10
1.556807086614173
 20
0.8620944881889764
 30
0
 10
1.556807086614173
 20
0.8620944881889764
 30
0
 10
1.693779527559055
 20
0.8507244094488189
 30
0
 10
1.830992125984252
 20
0.8443661417322834
 30
0
 10
1.941192913385827
 20
0.8409645669291339
 30
0
 10
1.941192913385827
 20
0.8409645669291339
 30
0
 10
1.941492125984252
 20
0.7713070866141732
 30
0
 10
1.957066929133858
 20
0.6954645669291338
 30
0
 10
1.974129921259842
 20
0.6028188976377953
 30
0
 10
1.974129921259842
 20
0.6028188976377953
 30
0
 10
2.02394094488189
 20
0.3332244094488189
 30
0
 10
2.106141732283465
 20
0.1923661417322835
 30
0
 10
2.21888188976378
 20
-0.1496023622047244
 30
0
 10
2.21888188976378
 20
-0.1496023622047244
 30
0
 10
2.21888188976378
 20
-0.1496023622047244
 30
0
 10
1.772338582677165
 20
-0.1779133858267717
 30
0
 10
1.772338582677165
 20
-0.1779133858267717
 30
0
 10
1.772338582677165
 20
-0.1779133858267717
 30
0
 10
1.740311023622047
 20
-0.0766692913385827
 30
0
 10
1.70138188976378
 20
0.0203031496062992
 30
0
 10
1.668007874015748
 20
0.1114606299212598
 30
0
 10
1.668007874015748
 20
0.1114606299212598
 30
0
 10
1.632720472440945
 20
0.2063976377952756
 30
0
 10
1.598594488188976
 20
0.2937874015748032
 30
0
 10
1.579251968503937
 20
0.3717322834645669
 30
0
 10
1.579251968503937
 20
0.3717322834645669
 30
0
 10
1.559295275590551
 20
0.449240157480315
 30
0
 10
1.547051181102362
 20
0.5154842519685039
 30
0
 10
1.544700787401575
 20
0.5627165354330709
 30
0
 10
1.544700787401575
 20
0.5627165354330709
 30
0
 10
1.541673228346457
 20
0.5863149606299213
 30
0
 10
1.541988188976378
 20
0.604992125984252
 30
0
 10
1.541374015748032
 20
0.6177834645669291
 30
0
 10
1.541374015748032
 20
0.6177834645669291
 30
0
 10
1.540937007874016
 20
0.6305708661417323
 30
0
 10
1.540744094488189
 20
0.6374370078740157
 30
0
 10
1.540744094488189
 20
0.6374370078740157
 30
0
 10
1.540744094488189
 20
0.6374370078740157
 30
0
 10
1.540744094488189
 20
0.6374370078740157
 30
0
 10
1.539570866141732
 20
0.6306929133858268
 30
0
 10
1.537413385826772
 20
0.6180275590551181
 30
0
 10
1.537413385826772
 20
0.6180275590551181
 30
0
 10
1.535311023622047
 20
0.6054133858267716
 30
0
 10
1.531161417322835
 20
0.5868779527559055
 30
0
 10
1.529318897637795
 20
0.5628385826771654
 30
0
 10
1.529318897637795
 20
0.5628385826771654
 30
0
 10
1.525236220472441
 20
0.5151141732283464
 30
0
 10
1.522015748031496
 20
0.4449645669291338
 30
0
 10
1.53555905511811
 20
0.3627637795275591
 30
0
 10
1.53555905511811
 20
0.3627637795275591
 30
0
 10
1.549031496062992
 20
0.2808740157480315
 30
0
 10
1.570157480314961
 20
0.1858149606299213
 30
0
 10
1.602992125984252
 20
0.0887204724409449
 30
0
 10
1.602992125984252
 20
0.0887204724409449
 30
0
 10
1.631968503937008
 20
0.0009606299212598
 30
0
 10
1.664732283464567
 20
-0.090507874015748
 30
0
 10
1.691555118110236
 20
-0.1830472440944882
 30
0
 10
1.691555118110236
 20
-0.1830472440944882
 30
0
 10
1.691555118110236
 20
-0.1830472440944882
 30
0
 10
1.26638188976378
 20
-0.209992125984252
 30
0
 10
1.26638188976378
 20
-0.209992125984252
 30
0
 10
1.26638188976378
 20
-0.209992125984252
 30
0
 10
1.26638188976378
 20
-0.209992125984252
 30
0
 10
1.70761811023622
 20
-0.2379212598425197
 30
0
 10
1.70761811023622
 20
-0.2379212598425197
 30
0
 10
1.70761811023622
 20
-0.2379212598425197
 30
0
 10
1.735685039370079
 20
-0.3318622047244095
 30
0
 10
1.756515748031496
 20
-0.4275354330708662
 30
0
 10
1.770165354330709
 20
-0.5187086614173229
 30
0
 10
1.770165354330709
 20
-0.5187086614173229
 30
0
 10
1.784267716535433
 20
-0.6178385826771654
 30
0
 10
1.797110236220473
 20
-0.7111653543307087
 30
0
 10
1.799897637795276
 20
-0.7919488188976378
 30
0
 10
1.799897637795276
 20
-0.7919488188976378
 30
0
 10
1.802996062992126
 20
-0.8724881889763779
 30
0
 10
1.806326771653543
 20
-0.9404133858267717
 30
0
 10
1.804590551181102
 20
-0.9878740157480315
 30
0
 10
1.804590551181102
 20
-0.9878740157480315
 30
0
 10
1.804834645669291
 20
-1.035527559055118
 30
0
 10
1.803783464566929
 20
-1.062909448818898
 30
0
 10
1.803783464566929
 20
-1.062909448818898
 30
0
 10
1.803783464566929
 20
-1.062909448818898
 30
0
 10
1.803783464566929
 20
-1.062909448818898
 30
0
 10
1.810409448818898
 20
-1.03640157480315
 30
0
 10
1.819992125984252
 20
-0.9894133858267716
 30
0
 10
1.819992125984252
 20
-0.9894133858267716
 30
0
 10
1.828137795275591
 20
-0.9423228346456692
 30
0
 10
1.840700787401575
 20
-0.8745196850393701
 30
0
 10
1.844590551181102
 20
-0.79201968503937
 30
0
 10
1.844590551181102
 20
-0.79201968503937
 30
0
 10
1.848354330708661
 20
-0.709748031496063
 30
0
 10
1.850456692913386
 20
-0.6127755905511811
 30
0
 10
1.83859842519685
 20
-0.509740157480315
 30
0
 10
1.83859842519685
 20
-0.509740157480315
 30
0
 10
1.828523622047244
 20
-0.4235236220472441
 30
0
 10
1.812318897637795
 20
-0.3330354330708661
 30
0
 10
1.790015748031496
 20
-0.2431220472440945
 30
0
 10
1.790015748031496
 20
-0.2431220472440945
 30
0
 10
1.790015748031496
 20
-0.2431220472440945
 30
0
 10
2.258074803149607
 20
-0.2727834645669291
 30
0
 10
2.258074803149607
 20
-0.2727834645669291
 30
0
 10
2.258074803149607
 20
-0.2727834645669291
 30
0
 10
2.266098425196851
 20
-0.2991692913385827
 30
0
 10
2.274263779527559
 20
-0.3262362204724409
 30
0
 10
2.282547244094488
 20
-0.3548661417322835
 30
0
 10
2.282547244094488
 20
-0.3548661417322835
 30
0
 10
2.353803149606299
 20
-0.5996692913385827
 30
0
 10
2.392433070866142
 20
-0.9253267716535433
 30
0
 10
2.358496062992126
 20
-1.20357874015748
 30
0
 10
2.358496062992126
 20
-1.20357874015748
 30
0
 10
2.358496062992126
 20
-1.20357874015748
 30
0
 10
1.206866141732283
 20
-1.276511811023622
 30
0
 10
1.206866141732283
 20
-1.276511811023622
 30
0
 10
1.206866141732283
 20
-1.276511811023622
 30
0
 10
1.206866141732283
 20
-1.276511811023622
 30
0
 10
1.873322834645669
 20
-1.318787401574803
 30
0
 10
1.873322834645669
 20
-1.318787401574803
 30
0
 10
1.873322834645669
 20
-1.318787401574803
 30
0
 10
1.873322834645669
 20
-1.318787401574803
 30
0
 10
1.107795275590551
 20
-1.318787401574803
 30
0
 10
1.107795275590551
 20
-1.318787401574803
 30
0
 10
1.107795275590551
 20
-1.318787401574803
 30
0
 10
1.184125984251968
 20
-1.202594488188976
 30
0
 10
1.23092125984252
 20
-0.9915866141732284
 30
0
 10
1.23092125984252
 20
-0.6090787401574803
 30
0
 10
1.23092125984252
 20
-0.6090787401574803
 30
0
 10
1.23092125984252
 20
0.2057874015748032
 30
0
 10
1.005633858267716
 20
0.4972637795275591
 30
0
 10
1.005633858267716
 20
0.4972637795275591
 30
0
  0
SPLINE
  5
55
100
AcDbEntity
  8
Layer 1
  6
ByLayer
 62
  256
370
    0
100
AcDbSpline
210
0
220
0
230
0
 70
 4096
 71
    3
 72
  248
 73
  244
 74
    0
 42
1e-07
 43
1e-07
 40
0
 40
0
 40
0
 40
0
 40
0.016129032
 40
0.016129032
 40
0.016129032
 40
0.016129032
 40
0.032258065
 40
0.032258065
 40
0.032258065
 40
0.032258065
 40
0.048387097
 40
0.048387097
 40
0.048387097
 40
0.048387097
 40
0.06451612900000001
 40
0.06451612900000001
 40
0.06451612900000001
 40
0.06451612900000001
 40
0.08064516100000001
 40
0.08064516100000001
 40
0.08064516100000001
 40
0.08064516100000001
 40
0.09677419400000001
 40
0.09677419400000001
 40
0.09677419400000001
 40
0.09677419400000001
 40
0.112903226
 40
0.112903226
 40
0.112903226
 40
0.112903226
 40
0.129032258
 40
0.129032258
 40
0.129032258
 40
0.129032258
 40
0.14516129
 40
0.14516129
 40
0.14516129
 40
0.14516129
 40
0.161290323
 40
0.161290323
 40
0.161290323
 40
0.161290323
 40
0.177419355
 40
0.177419355
 40
0.177419355
 40
0.177419355
 40
0.193548387
 40
0.193548387
 40
0.193548387
 40
0.193548387
 40
0.209677419
 40
0.209677419
 40
0.209677419
 40
0.209677419
 40
0.225806452
 40
0.225806452
 40
0.225806452
 40
0.225806452
 40
0.241935484
 40
0.241935484
 40
0.241935484
 40
0.241935484
 40
0.258064516
 40
0.258064516
 40
0.258064516
 40
0.258064516
 40
0.274193548
 40
0.274193548
 40
0.274193548
 40
0.274193548
 40
0.290322581
 40
0.290322581
 40
0.290322581
 40
0.290322581
 40
0.306451613
 40
0.306451613
 40
0.306451613
 40
0.306451613
 40
0.322580645
 40
0.322580645
 40
0.322580645
 40
0.322580645
 40
0.338709677
 40
0.338709677
 40
0.338709677
 40
0.338709677
 40
0.35483871
 40
0.35483871
 40
0.35483871
 40
0.35483871
 40
0.370967742
 40
0.370967742
 40
0.370967742
 40
0.370967742
 40
0.387096774
 40
0.387096774
 40
0.387096774
 40
0.387096774
 40
0.403225806
 40
0.403225806
 40
0.403225806
 40
0.403225806
 40
0.419354839
 40
0.419354839
 40
0.419354839
 40
0.419354839
 40
0.435483871
 40
0.435483871
 40
0.435483871
 40
0.435483871
 40
0.451612903
 40
0.451612903
 40
0.451612903
 40
0.451612903
 40
0.4677419350000001
 40
0.4677419350000001
 40
0.4677419350000001
 40
0.4677419350000001
 40
0.483870968
 40
0.483870968
 40
0.483870968
 40
0.483870968
 40
0.5
 40
0.5
 40
0.5
 40
0.5
 40
0.516129032
 40
0.516129032
 40
0.516129032
 40
0.516129032
 40
0.5322580650000001
 40
0.5322580650000001
 40
0.5322580650000001
 40
0.5322580650000001
 40
0.548387097
 40
0.548387097
 40
0.548387097
 40
0.548387097
 40
0.564516129
 40
0.564516129
 40
0.564516129
 40
0.564516129
 40
0.5806451610000001
 40
0.5806451610000001
 40
0.5806451610000001
 40
0.5806451610000001
 40
0.5967741940000001
 40
0.5967741940000001
 40
0.5967741940000001
 40
0.5967741940000001
 40
0.612903226
 40
0.612903226
 40
0.612903226
 40
0.612903226
 40
0.6290322580000001
 40
0.6290322580000001
 40
0.6290322580000001
 40
0.6290322580000001
 40
0.64516129
 40
0.64516129
 40
0.64516129
 40
0.64516129
 40
0.661290323
 40
0.661290323
 40
0.661290323
 40
0.661290323
 40
0.6774193550000001
 40
0.6774193550000001
 40
0.6774193550000001
 40
0.6774193550000001
 40
0.693548387
 40
0.693548387
 40
0.693548387
 40
0.693548387
 40
0.709677419
 40
0.709677419
 40
0.709677419
 40
0.709677419
 40
0.725806452
 40
0.725806452
 40
0.725806452
 40
0.725806452
 40
0.7419354840000001
 40
0.7419354840000001
 40
0.7419354840000001
 40
0.7419354840000001
 40
0.758064516
 40
0.758064516
 40
0.758064516
 40
0.758064516
 40
0.7741935480000001
 40
0.7741935480000001
 40
0.7741935480000001
 40
0.7741935480000001
 40
0.7903225810000001
 40
0.7903225810000001
 40
0.7903225810000001
 40
0.7903225810000001
 40
0.806451613
 40
0.806451613
 40
0.806451613
 40
0.806451613
 40
0.8225806450000001
 40
0.8225806450000001
 40
0.8225806450000001
 40
0.8225806450000001
 40
0.8387096770000001
 40
0.8387096770000001
 40
0.8387096770000001
 40
0.8387096770000001
 40
0.85483871
 40
0.85483871
 40
0.85483871
 40
0.85483871
 40
0.870967742
 40
0.870967742
 40
0.870967742
 40
0.870967742
 40
0.8870967740000001
 40
0.8870967740000001
 40
0.8870967740000001
 40
0.8870967740000001
 40
0.903225806
 40
0.903225806
 40
0.903225806
 40
0.903225806
 40
0.919354839
 40
0.919354839
 40
0.919354839
 40
0.919354839
 40
0.9354838710000001
 40
0.9354838710000001
 40
0.9354838710000001
 40
0.9354838710000001
 40
0.951612903
 40
0.951612903
 40
0.951612903
 40
0.951612903
 40
0.9677419350000001
 40
0.9677419350000001
 40
0.9677419350000001
 40
0.9677419350000001
 40
1
 40
1
 40
1
 40
1
 10
-2.286771653543307
 20
2.367255905511811
 30
0
 10
-2.272562992125984
 20
2.558606299212598
 30
0
 10
-2.242586614173228
 20
2.825610236220472
 30
0
 10
-1.395472440944882
 20
2.825555118110236
 30
0
 10
-1.395472440944882
 20
2.825555118110236
 30
0
 10
-1.277543307086614
 20
2.825555118110236
 30
0
 10
-1.143677165354331
 20
2.820354330708661
 30
0
 10
-0.9918149606299212
 20
2.809106299212599
 30
0
 10
-0.9918149606299212
 20
2.809106299212599
 30
0
 10
-0.9918149606299212
 20
2.809106299212599
 30
0
 10
-0.9619606299212599
 20
3.092437007874016
 30
0
 10
0.3748346456692913
 20
3.092437007874016
 30
0
 10
0.3748346456692913
 20
3.092437007874016
 30
0
 10
0.5491377952755906
 20
3.092437007874016
 30
0
 10
0.7459212598425197
 20
3.087602362204724
 30
0
 10
0.9676181102362205
 20
3.076720472440945
 30
0
 10
0.9676181102362205
 20
3.076720472440945
 30
0
 10
0.9699645669291339
 20
3.076669291338582
 30
0
 10
0.972259842519685
 20
3.07659842519685
 30
0
 10
0.9746614173228346
 20
3.076547244094488
 30
0
 10
0.9746614173228346
 20
3.076547244094488
 30
0
 10
1.059527559055118
 20
3.073586614173228
 30
0
 10
1.144937007874016
 20
3.068503937007874
 30
0
 10
1.231220472440945
 20
3.063562992125984
 30
0
 10
1.231220472440945
 20
3.063562992125984
 30
0
 10
1.40359842519685
 20
3.054610236220472
 30
0
 10
1.580181102362205
 20
3.042173228346457
 30
0
 10
1.754834645669291
 20
3.029381889763779
 30
0
 10
1.754834645669291
 20
3.029381889763779
 30
0
 10
1.929996062992126
 20
3.015295275590551
 30
0
 10
2.105161417322835
 20
3.000334645669291
 30
0
 10
2.27753937007874
 20
2.983464566929134
 30
0
 10
2.27753937007874
 20
2.983464566929134
 30
0
 10
2.449968503937008
 20
2.967082677165354
 30
0
 10
2.619385826771654
 20
2.946322834645669
 30
0
 10
2.783299212598425
 20
2.923192913385827
 30
0
 10
2.783299212598425
 20
2.923192913385827
 30
0
 10
2.947145669291339
 20
2.900208661417323
 30
0
 10
3.105122047244095
 20
2.871720472440945
 30
0
 10
3.253759842519685
 20
2.836
 30
0
 10
3.253759842519685
 20
2.836
 30
0
 10
3.402275590551181
 20
2.800889763779527
 30
0
 10
3.541661417322834
 20
2.754094488188976
 30
0
 10
3.661937007874016
 20
2.689444881889764
 30
0
 10
3.661937007874016
 20
2.689444881889764
 30
0
 10
3.721448818897638
 20
2.655826771653544
 30
0
 10
3.775708661417323
 20
2.61701968503937
 30
0
 10
3.819913385826772
 20
2.571641732283465
 30
0
 10
3.819913385826772
 20
2.571641732283465
 30
0
 10
3.864779527559055
 20
2.526842519685039
 30
0
 10
3.89698031496063
 20
2.474425196850394
 30
0
 10
3.918862204724409
 20
2.423196850393701
 30
0
 10
3.918862204724409
 20
2.423196850393701
 30
0
 10
3.93103937007874
 20
2.397917322834646
 30
0
 10
3.937452755905512
 20
2.371653543307087
 30
0
 10
3.945492125984252
 20
2.347110236220472
 30
0
 10
3.945492125984252
 20
2.347110236220472
 30
0
 10
3.950555118110236
 20
2.321775590551181
 30
0
 10
3.957354330708661
 20
2.297791338582677
 30
0
 10
3.959405511811024
 20
2.274173228346457
 30
0
 10
3.959405511811024
 20
2.274173228346457
 30
0
 10
3.962681102362205
 20
2.250696850393701
 30
0
 10
3.965204724409449
 20
2.228255905511811
 30
0
 10
3.965956692913386
 20
2.206688976377953
 30
0
 10
3.965956692913386
 20
2.206688976377953
 30
0
 10
3.967551181102362
 20
2.185244094488189
 30
0
 10
3.967988188976378
 20
2.164728346456693
 30
0
 10
3.967744094488189
 20
2.145314960629921
 30
0
 10
3.967744094488189
 20
2.145314960629921
 30
0
 10
3.968181102362205
 20
2.067807086614173
 30
0
 10
3.961066929133858
 20
2.007417322834645
 30
0
 10
3.957110236220473
 20
1.966507874015748
 30
0
 10
3.957110236220473
 20
1.966507874015748
 30
0
 10
3.952291338582677
 20
1.92559842519685
 30
0
 10
3.949751968503937
 20
1.903771653543307
 30
0
 10
3.949751968503937
 20
1.903771653543307
 30
0
 10
3.949751968503937
 20
1.903771653543307
 30
0
 10
3.949751968503937
 20
1.903771653543307
 30
0
 10
3.950137795275591
 20
1.925720472440945
 30
0
 10
3.950803149606299
 20
1.966877952755905
 30
0
 10
3.950803149606299
 20
1.966877952755905
 30
0
 10
3.950996062992126
 20
2.008047244094488
 30
0
 10
3.950870078740158
 20
2.068370078740157
 30
0
 10
3.944688976377953
 20
2.144318897637795
 30
0
 10
3.944688976377953
 20
2.144318897637795
 30
0
 10
3.943389763779527
 20
2.163291338582677
 30
0
 10
3.941287401574803
 20
2.183192913385827
 30
0
 10
3.93796062992126
 20
2.20390157480315
 30
0
 10
3.93796062992126
 20
2.20390157480315
 30
0
 10
3.935614173228347
 20
2.224732283464567
 30
0
 10
3.931338582677165
 20
2.246055118110236
 30
0
 10
3.926397637795275
 20
2.268181102362205
 30
0
 10
3.926397637795275
 20
2.268181102362205
 30
0
 10
3.92255905511811
 20
2.290555118110236
 30
0
 10
3.914220472440945
 20
2.312507874015748
 30
0
 10
3.908035433070866
 20
2.335929133858268
 30
0
 10
3.908035433070866
 20
2.335929133858268
 30
0
 10
3.89896062992126
 20
2.358232283464567
 30
0
 10
3.89148031496063
 20
2.382149606299213
 30
0
 10
3.878688976377953
 20
2.404346456692914
 30
0
 10
3.878688976377953
 20
2.404346456692914
 30
0
 10
3.834437007874016
 20
2.497236220472441
 30
0
 10
3.744751968503937
 20
2.574866141732283
 30
0
 10
3.631204724409449
 20
2.630370078740158
 30
0
 10
3.631204724409449
 20
2.630370078740158
 30
0
 10
3.551177165354331
 20
2.667877952755906
 30
0
 10
3.460877952755906
 20
2.697240157480315
 30
0
 10
3.36451968503937
 20
2.721716535433071
 30
0
 10
3.36451968503937
 20
2.721716535433071
 30
0
 10
3.424035433070866
 20
2.675728346456693
 30
0
 10
3.475279527559055
 20
2.620417322834645
 30
0
 10
3.514645669291339
 20
2.552933070866142
 30
0
 10
3.514645669291339
 20
2.552933070866142
 30
0
 10
3.617681102362205
 20
2.376279527559055
 30
0
 10
3.611374015748031
 20
2.158716535433071
 30
0
 10
3.596535433070866
 20
1.954771653543307
 30
0
 10
3.596535433070866
 20
1.954771653543307
 30
0
 10
3.590102362204724
 20
1.865944881889764
 30
0
 10
3.580783464566929
 20
1.774106299212598
 30
0
 10
3.557728346456693
 20
1.68813779527559
 30
0
 10
3.557728346456693
 20
1.68813779527559
 30
0
 10
3.554870078740158
 20
1.684177165354331
 30
0
 10
3.55240157480315
 20
1.680464566929134
 30
0
 10
3.549196850393701
 20
1.676448818897638
 30
0
 10
3.549196850393701
 20
1.676448818897638
 30
0
 10
3.526015748031496
 20
1.647086614173228
 30
0
 10
3.491346456692913
 20
1.613413385826772
 30
0
 10
3.443444881889764
 20
1.583736220472441
 30
0
 10
3.443444881889764
 20
1.583736220472441
 30
0
 10
3.396106299212598
 20
1.554145669291339
 30
0
 10
3.333736220472441
 20
1.528181102362205
 30
0
 10
3.260137795275591
 20
1.509082677165354
 30
0
 10
3.260137795275591
 20
1.509082677165354
 30
0
 10
3.186763779527559
 20
1.489425196850394
 30
0
 10
3.100303149606299
 20
1.47663779527559
 30
0
 10
3.008444881889764
 20
1.463779527559055
 30
0
 10
3.008444881889764
 20
1.463779527559055
 30
0
 10
2.916732283464567
 20
1.451724409448819
 30
0
 10
2.819318897637795
 20
1.442141732283465
 30
0
 10
2.717968503937008
 20
1.435220472440945
 30
0
 10
2.717968503937008
 20
1.435220472440945
 30
0
 10
2.51542125984252
 20
1.421062992125984
 30
0
 10
2.297370078740157
 20
1.419645669291339
 30
0
 10
2.078704724409449
 20
1.423673228346457
 30
0
 10
2.078704724409449
 20
1.423673228346457
 30
0
 10
1.641114173228347
 20
1.435413385826772
 30
0
 10
1.201803149606299
 20
1.447641732283464
 30
0
 10
0.8752874015748031
 20
1.479299212598425
 30
0
 10
0.8752874015748031
 20
1.479299212598425
 30
0
 10
0.7117401574803149
 20
1.49455905511811
 30
0
 10
0.5762086614173229
 20
1.514637795275591
 30
0
 10
0.4817598425196851
 20
1.531090551181102
 30
0
 10
0.4817598425196851
 20
1.531090551181102
 30
0
 10
0.434488188976378
 20
1.539374015748032
 30
0
 10
0.3974015748031496
 20
1.546417322834646
 30
0
 10
0.372244094488189
 20
1.551728346456693
 30
0
 10
0.372244094488189
 20
1.551728346456693
 30
0
 10
0.3470314960629921
 20
1.556791338582677
 30
0
 10
0.3336102362204724
 20
1.559452755905512
 30
0
 10
0.3336102362204724
 20
1.559452755905512
 30
0
 10
0.3336102362204724
 20
1.559452755905512
 30
0
 10
0.3336102362204724
 20
1.559452755905512
 30
0
 10
0.3469094488188976
 20
1.556055118110236
 30
0
 10
0.371751968503937
 20
1.549570866141732
 30
0
 10
0.371751968503937
 20
1.549570866141732
 30
0
 10
0.3966653543307087
 20
1.542775590551181
 30
0
 10
0.4331771653543307
 20
1.533751968503937
 30
0
 10
0.4799724409448819
 20
1.522748031496063
 30
0
 10
0.4799724409448819
 20
1.522748031496063
 30
0
 10
0.5736141732283464
 20
1.50092125984252
 30
0
 10
0.7082913385826771
 20
1.473114173228346
 30
0
 10
0.8714527559055119
 20
1.448448818897638
 30
0
 10
0.8714527559055119
 20
1.448448818897638
 30
0
 10
1.198161417322835
 20
1.398027559055118
 30
0
 10
1.635614173228346
 20
1.361110236220472
 30
0
 10
2.074062992125984
 20
1.32446062992126
 30
0
 10
2.074062992125984
 20
1.32446062992126
 30
0
 10
2.293728346456693
 20
1.307905511811024
 30
0
 10
2.514755905511811
 20
1.296779527559055
 30
0
 10
2.723224409448819
 20
1.29944094488189
 30
0
 10
2.723224409448819
 20
1.29944094488189
 30
0
 10
2.827484251968504
 20
1.300669291338583
 30
0
 10
2.928417322834646
 20
1.304818897637795
 30
0
 10
3.024283464566929
 20
1.311917322834646
 30
0
 10
3.024283464566929
 20
1.311917322834646
 30
0
 10
3.114704724409449
 20
1.319468503937008
 30
0
 10
3.200972440944882
 20
1.327244094488189
 30
0
 10
3.283736220472441
 20
1.343259842519685
 30
0
 10
3.283736220472441
 20
1.343259842519685
 30
0
 10
3.097763779527559
 20
1.259811023622047
 30
0
 10
2.822106299212598
 20
1.27557874015748
 30
0
 10
2.630318897637795
 20
1.274842519685039
 30
0
 10
2.630318897637795
 20
1.274842519685039
 30
0
 10
1.791555118110236
 20
1.271688976377953
 30
0
 10
0.9422125984251969
 20
1.275456692913386
 30
0
 10
0.1362677165354331
 20
1.502897637795276
 30
0
 10
0.1362677165354331
 20
1.502897637795276
 30
0
 10
0.1362677165354331
 20
1.502897637795276
 30
0
 10
0.1346574803149606
 20
2.959181102362205
 30
0
 10
0.1346574803149606
 20
2.959181102362205
 30
0
 10
0.1346574803149606
 20
2.959181102362205
 30
0
 10
0.1346574803149606
 20
2.959181102362205
 30
0
 10
-0.0125629921259843
 20
1.639062992125984
 30
0
 10
-0.0125629921259843
 20
1.639062992125984
 30
0
 10
-0.0125629921259843
 20
1.639062992125984
 30
0
 10
-0.1841338582677165
 20
1.626204724409449
 30
0
 10
-0.3679527559055118
 20
1.62892125984252
 30
0
 10
-0.5312874015748031
 20
1.661751968503937
 30
0
 10
-0.5312874015748031
 20
1.661751968503937
 30
0
 10
-0.7777755905511811
 20
1.711314960629921
 30
0
 10
-0.8926181102362205
 20
1.775649606299213
 30
0
 10
-1.005602362204724
 20
1.843397637795276
 30
0
 10
-1.005602362204724
 20
1.843397637795276
 30
0
 10
-1.005602362204724
 20
1.843397637795276
 30
0
 10
-1.000346456692913
 20
2.755582677165354
 30
0
 10
-1.000346456692913
 20
2.755582677165354
 30
0
 10
-1.000346456692913
 20
2.755582677165354
 30
0
 10
-1.000346456692913
 20
2.755582677165354
 30
0
 10
-1.150035433070866
 20
1.915141732283465
 30
0
 10
-1.150035433070866
 20
1.915141732283465
 30
0
 10
-1.150035433070866
 20
1.915141732283465
 30
0
 10
-1.430633858267716
 20
1.913669291338583
 30
0
 10
-1.711228346456693
 20
1.946850393700787
 30
0
 10
-1.983188976377953
 20
2.011377952755906
 30
0
 10
-1.983188976377953
 20
2.011377952755906
 30
0
 10
-2.053952755905512
 20
2.028196850393701
 30
0
 10
-2.125204724409449
 20
2.048763779527559
 30
0
 10
-2.186035433070866
 20
2.085799212598425
 30
0
 10
-2.186035433070866
 20
2.085799212598425
 30
0
 10
-2.186035433070866
 20
2.085799212598425
 30
0
 10
-2.183055118110236
 20
2.601566929133858
 30
0
 10
-2.183055118110236
 20
2.601566929133858
 30
0
 10
-2.183055118110236
 20
2.601566929133858
 30
0
 10
-2.183055118110236
 20
2.601566929133858
 30
0
 10
-2.261562992125984
 20
2.160696850393701
 30
0
 10
-2.261562992125984
 20
2.160696850393701
 30
0
 10
-2.261562992125984
 20
2.160696850393701
 30
0
 10
-2.268413385826772
 20
2.172874015748032
 30
0
 10
-2.274279527559055
 20
2.185295275590551
 30
0
 10
-2.28009842519685
 20
2.197787401574803
 30
0
 10
-2.28009842519685
 20
2.197787401574803
 30
0
 10
-2.294062992125984
 20
2.257055118110236
 30
0
 10
-2.290661417322835
 20
2.315031496062992
 30
0
 10
-2.286771653543307
 20
2.367255905511811
 30
0
  0
SPLINE
  5
56
100
AcDbEntity
  8
Layer 1
  6
ByLayer
 62
  256
370
    0
100
AcDbSpline
210
0
220
0
230
0
 70
 4096
 71
    3
 72
   68
 73
   64
 74
    0
 42
1e-07
 43
1e-07
 40
0
 40
0
 40
0
 40
0
 40
0.05882352900000001
 40
0.05882352900000001
 40
0.05882352900000001
 40
0.05882352900000001
 40
0.117647059
 40
0.117647059
 40
0.117647059
 40
0.117647059
 40
0.176470588
 40
0.176470588
 40
0.176470588
 40
0.176470588
 40
0.235294118
 40
0.235294118
 40
0.235294118
 40
0.235294118
 40
0.294117647
 40
0.294117647
 40
0.294117647
 40
0.294117647
 40
0.352941176
 40
0.352941176
 40
0.352941176
 40
0.352941176
 40
0.411764706
 40
0.411764706
 40
0.411764706
 40
0.411764706
 40
0.470588235
 40
0.470588235
 40
0.470588235
 40
0.470588235
 40
0.529411765
 40
0.529411765
 40
0.529411765
 40
0.529411765
 40
0.5882352940000001
 40
0.5882352940000001
 40
0.5882352940000001
 40
0.5882352940000001
 40
0.647058824
 40
0.647058824
 40
0.647058824
 40
0.647058824
 40
0.705882353
 40
0.705882353
 40
0.705882353
 40
0.705882353
 40
0.764705882
 40
0.764705882
 40
0.764705882
 40
0.764705882
 40
0.8235294120000001
 40
0.8235294120000001
 40
0.8235294120000001
 40
0.8235294120000001
 40
0.8823529410000001
 40
0.8823529410000001
 40
0.8823529410000001
 40
0.8823529410000001
 40
1
 40
1
 40
1
 40
1
 10
0.6372637795275591
 20
0.4614173228346456
 30
0
 10
0.6236692913385827
 20
0.4839133858267717
 30
0
 10
0.6197086614173228
 20
0.5097362204724409
 30
0
 10
0.617992125984252
 20
0.5334055118110236
 30
0
 10
0.617992125984252
 20
0.5334055118110236
 30
0
 10
0.6168700787401575
 20
0.5562165354330708
 30
0
 10
0.6157677165354331
 20
0.5793976377952756
 30
0
 10
0.6146456692913386
 20
0.602503937007874
 30
0
 10
0.6146456692913386
 20
0.602503937007874
 30
0
 10
0.6134015748031496
 20
0.6479330708661417
 30
0
 10
0.6086535433070867
 20
0.693240157480315
 30
0
 10
0.6015433070866142
 20
0.7353385826771653
 30
0
 10
0.6015433070866142
 20
0.7353385826771653
 30
0
 10
0.595988188976378
 20
0.7776653543307087
 30
0
 10
0.587507874015748
 20
0.8169133858267716
 30
0
 10
0.5789251968503937
 20
0.8501653543307086
 30
0
 10
0.5789251968503937
 20
0.8501653543307086
 30
0
 10
0.564523622047244
 20
0.9177204724409449
 30
0
 10
0.5483346456692914
 20
0.9616614173228346
 30
0
 10
0.5483346456692914
 20
0.9616614173228346
 30
0
 10
0.5483346456692914
 20
0.9616614173228346
 30
0
 10
0.5483346456692914
 20
0.9616614173228346
 30
0
 10
0.5724921259842519
 20
0.9218740157480315
 30
0
 10
0.6001929133858268
 20
0.8568385826771654
 30
0
 10
0.6001929133858268
 20
0.8568385826771654
 30
0
 10
0.6124212598425197
 20
0.8239015748031496
 30
0
 10
0.6251574803149607
 20
0.7847086614173229
 30
0
 10
0.6354055118110237
 20
0.7416456692913386
 30
0
 10
0.6354055118110237
 20
0.7416456692913386
 30
0
 10
0.6443779527559055
 20
0.6984409448818898
 30
0
 10
0.6511732283464567
 20
0.6516456692913386
 30
0
 10
0.6543267716535434
 20
0.604484251968504
 30
0
 10
0.6543267716535434
 20
0.604484251968504
 30
0
 10
0.6565551181102363
 20
0.5569015748031496
 30
0
 10
0.6496338582677166
 20
0.5097362204724409
 30
0
 10
0.6671181102362205
 20
0.4785866141732283
 30
0
 10
0.6671181102362205
 20
0.4785866141732283
 30
0
 10
0.6823267716535433
 20
0.4466299212598425
 30
0
 10
0.7226889763779527
 20
0.4339094488188976
 30
0
 10
0.7547677165354331
 20
0.4301456692913386
 30
0
 10
0.7547677165354331
 20
0.4301456692913386
 30
0
 10
0.7879527559055118
 20
0.4249409448818898
 30
0
 10
0.8178582677165355
 20
0.4243818897637796
 30
0
 10
0.8380748031496063
 20
0.4208070866141732
 30
0
 10
0.8380748031496063
 20
0.4208070866141732
 30
0
 10
0.8584173228346457
 20
0.4177047244094488
 30
0
 10
0.8694724409448819
 20
0.4138149606299212
 30
0
 10
0.8694724409448819
 20
0.4138149606299212
 30
0
 10
0.8694724409448819
 20
0.4138149606299212
 30
0
 10
0.8694724409448819
 20
0.4138149606299212
 30
0
 10
0.8578543307086615
 20
0.4154803149606299
 30
0
 10
0.8377086614173228
 20
0.4146929133858268
 30
0
 10
0.8377086614173228
 20
0.4146929133858268
 30
0
 10
0.8174370078740157
 20
0.4143070866141732
 30
0
 10
0.7893700787401575
 20
0.409244094488189
 30
0
 10
0.7531574803149607
 20
0.4078228346456693
 30
0
 10
0.7531574803149607
 20
0.4078228346456693
 30
0
 10
0.7350433070866141
 20
0.408263779527559
 30
0
 10
0.7148937007874016
 20
0.4104173228346457
 30
0
 10
0.6940629921259842
 20
0.4177047244094488
 30
0
 10
0.6940629921259842
 20
0.4177047244094488
 30
0
 10
0.6734763779527559
 20
0.4248188976377953
 30
0
 10
0.6511732283464567
 20
0.4388503937007874
 30
0
 10
0.6372637795275591
 20
0.4614173228346456
 30
0
  0
SPLINE
  5
57
100
AcDbEntity
  8
Layer 1
  6
ByLayer
 62
  256
370
    0
100
AcDbSpline
210
0
220
0
230
0
 70
 4096
 71
    3
 72
   72
 73
   68
 74
    0
 42
1e-07
 43
1e-07
 40
0
 40
0
 40
0
 40
0
 40
0.05555555600000001
 40
0.05555555600000001
 40
0.05555555600000001
 40
0.05555555600000001
 40
0.111111111
 40
0.111111111
 40
0.111111111
 40
0.111111111
 40
0.166666667
 40
0.166666667
 40
0.166666667
 40
0.166666667
 40
0.222222222
 40
0.222222222
 40
0.222222222
 40
0.222222222
 40
0.277777778
 40
0.277777778
 40
0.277777778
 40
0.277777778
 40
0.333333333
 40
0.333333333
 40
0.333333333
 40
0.333333333
 40
0.388888889
 40
0.388888889
 40
0.388888889
 40
0.388888889
 40
0.444444444
 40
0.444444444
 40
0.444444444
 40
0.444444444
 40
0.5
 40
0.5
 40
0.5
 40
0.5
 40
0.5555555560000001
 40
0.5555555560000001
 40
0.5555555560000001
 40
0.5555555560000001
 40
0.611111111
 40
0.611111111
 40
0.611111111
 40
0.611111111
 40
0.666666667
 40
0.666666667
 40
0.666666667
 40
0.666666667
 40
0.7222222220000001
 40
0.7222222220000001
 40
0.7222222220000001
 40
0.7222222220000001
 40
0.777777778
 40
0.777777778
 40
0.777777778
 40
0.777777778
 40
0.833333333
 40
0.833333333
 40
0.833333333
 40
0.833333333
 40
0.8888888890000001
 40
0.8888888890000001
 40
0.8888888890000001
 40
0.8888888890000001
 40
1
 40
1
 40
1
 40
1
 10
-0.2961220472440945
 20
-1.852547244094488
 30
0
 10
-0.2961220472440945
 20
-1.635913385826772
 30
0
 10
-0.1205905511811024
 20
-1.460330708661417
 30
0
 10
0.0960236220472441
 20
-1.460330708661417
 30
0
 10
0.0960236220472441
 20
-1.460330708661417
 30
0
 10
0.0960236220472441
 20
-1.460330708661417
 30
0
 10
0.4972125984251968
 20
-1.460330708661417
 30
0
 10
0.4972125984251968
 20
-1.460330708661417
 30
0
 10
0.4972125984251968
 20
-1.460330708661417
 30
0
 10
0.4972125984251968
 20
-1.460330708661417
 30
0
 10
0.4938818897637795
 20
-1.461188976377953
 30
0
 10
0.4938818897637795
 20
-1.461188976377953
 30
0
 10
0.4938818897637795
 20
-1.461188976377953
 30
0
 10
0.4938818897637795
 20
-1.461188976377953
 30
0
 10
1.94155905511811
 20
-1.461188976377953
 30
0
 10
1.94155905511811
 20
-1.461188976377953
 30
0
 10
1.94155905511811
 20
-1.461188976377953
 30
0
 10
1.94155905511811
 20
-1.461188976377953
 30
0
 10
0.0171692913385827
 20
-1.513346456692913
 30
0
 10
0.0171692913385827
 20
-1.513346456692913
 30
0
 10
0.0171692913385827
 20
-1.513346456692913
 30
0
 10
0.0171692913385827
 20
-1.513346456692913
 30
0
 10
2.692562992125984
 20
-1.585913385826772
 30
0
 10
2.692562992125984
 20
-1.585913385826772
 30
0
 10
2.692562992125984
 20
-1.585913385826772
 30
0
 10
2.72494094488189
 20
-1.636720472440945
 30
0
 10
2.741637795275591
 20
-1.689874015748031
 30
0
 10
2.749610236220473
 20
-1.753523622047244
 30
0
 10
2.749610236220473
 20
-1.753523622047244
 30
0
 10
2.753566929133858
 20
-1.785551181102362
 30
0
 10
2.756846456692913
 20
-1.817437007874016
 30
0
 10
2.759751968503937
 20
-1.849393700787402
 30
0
 10
2.759751968503937
 20
-1.849393700787402
 30
0
 10
2.759751968503937
 20
-1.849393700787402
 30
0
 10
-0.1835196850393701
 20
-1.926582677165354
 30
0
 10
-0.1835196850393701
 20
-1.926582677165354
 30
0
 10
-0.1835196850393701
 20
-1.926582677165354
 30
0
 10
-0.1835196850393701
 20
-1.926582677165354
 30
0
 10
2.770196850393701
 20
-2.004090551181102
 30
0
 10
2.770196850393701
 20
-2.004090551181102
 30
0
 10
2.770196850393701
 20
-2.004090551181102
 30
0
 10
2.77611811023622
 20
-2.137909448818898
 30
0
 10
2.77494094488189
 20
-2.271653543307087
 30
0
 10
2.771929133858268
 20
-2.406889763779528
 30
0
 10
2.771929133858268
 20
-2.406889763779528
 30
0
 10
2.76790157480315
 20
-2.590129921259842
 30
0
 10
2.752515748031496
 20
-2.785192913385827
 30
0
 10
2.690271653543307
 20
-2.962090551181102
 30
0
 10
2.690271653543307
 20
-2.962090551181102
 30
0
 10
2.690271653543307
 20
-2.962090551181102
 30
0
 10
0.0171692913385827
 20
-3.034590551181102
 30
0
 10
0.0171692913385827
 20
-3.034590551181102
 30
0
 10
0.0171692913385827
 20
-3.034590551181102
 30
0
 10
0.0171692913385827
 20
-3.034590551181102
 30
0
 10
2.15448031496063
 20
-3.092562992125984
 30
0
 10
2.15448031496063
 20
-3.092562992125984
 30
0
 10
2.15448031496063
 20
-3.092562992125984
 30
0
 10
2.15448031496063
 20
-3.092562992125984
 30
0
 10
0.0960236220472441
 20
-3.092562992125984
 30
0
 10
0.0960236220472441
 20
-3.092562992125984
 30
0
 10
0.0960236220472441
 20
-3.092562992125984
 30
0
 10
-0.1205905511811024
 20
-3.092562992125984
 30
0
 10
-0.2961220472440945
 20
-2.91696062992126
 30
0
 10
-0.2961220472440945
 20
-2.700397637795275
 30
0
 10
-0.2961220472440945
 20
-2.700397637795275
 30
0
 10
-0.2961220472440945
 20
-2.700397637795275
 30
0
 10
-0.2961220472440945
 20
-1.852547244094488
 30
0
 10
-0.2961220472440945
 20
-1.852547244094488
 30
0
  0
SPLINE
  5
58
100
AcDbEntity
  8
Layer 1
  6
ByLayer
 62
  256
370
    0
100
AcDbSpline
210
0
220
0
230
0
 70
 4096
 71
    3
 72
  148
 73
  144
 74
    0
 42
1e-07
 43
1e-07
 40
0
 40
0
 40
0
 40
0
 40
0.027027027
 40
0.027027027
 40
0.027027027
 40
0.027027027
 40
0.054054054
 40
0.054054054
 40
0.054054054
 40
0.054054054
 40
0.081081081
 40
0.081081081
 40
0.081081081
 40
0.081081081
 40
0.108108108
 40
0.108108108
 40
0.108108108
 40
0.108108108
 40
0.135135135
 40
0.135135135
 40
0.135135135
 40
0.135135135
 40
0.162162162
 40
0.162162162
 40
0.162162162
 40
0.162162162
 40
0.189189189
 40
0.189189189
 40
0.189189189
 40
0.189189189
 40
0.216216216
 40
0.216216216
 40
0.216216216
 40
0.216216216
 40
0.243243243
 40
0.243243243
 40
0.243243243
 40
0.243243243
 40
0.27027027
 40
0.27027027
 40
0.27027027
 40
0.27027027
 40
0.297297297
 40
0.297297297
 40
0.297297297
 40
0.297297297
 40
0.324324324
 40
0.324324324
 40
0.324324324
 40
0.324324324
 40
0.351351351
 40
0.351351351
 40
0.351351351
 40
0.351351351
 40
0.378378378
 40
0.378378378
 40
0.378378378
 40
0.378378378
 40
0.4054054050000001
 40
0.4054054050000001
 40
0.4054054050000001
 40
0.4054054050000001
 40
0.432432432
 40
0.432432432
 40
0.432432432
 40
0.432432432
 40
0.459459459
 40
0.459459459
 40
0.459459459
 40
0.459459459
 40
0.4864864860000001
 40
0.4864864860000001
 40
0.4864864860000001
 40
0.4864864860000001
 40
0.513513514
 40
0.513513514
 40
0.513513514
 40
0.513513514
 40
0.540540541
 40
0.540540541
 40
0.540540541
 40
0.540540541
 40
0.5675675680000001
 40
0.5675675680000001
 40
0.5675675680000001
 40
0.5675675680000001
 40
0.594594595
 40
0.594594595
 40
0.594594595
 40
0.594594595
 40
0.621621622
 40
0.621621622
 40
0.621621622
 40
0.621621622
 40
0.6486486490000001
 40
0.6486486490000001
 40
0.6486486490000001
 40
0.6486486490000001
 40
0.675675676
 40
0.675675676
 40
0.675675676
 40
0.675675676
 40
0.702702703
 40
0.702702703
 40
0.702702703
 40
0.702702703
 40
0.7297297300000001
 40
0.7297297300000001
 40
0.7297297300000001
 40
0.7297297300000001
 40
0.756756757
 40
0.756756757
 40
0.756756757
 40
0.756756757
 40
0.783783784
 40
0.783783784
 40
0.783783784
 40
0.783783784
 40
0.8108108110000001
 40
0.8108108110000001
 40
0.8108108110000001
 40
0.8108108110000001
 40
0.837837838
 40
0.837837838
 40
0.837837838
 40
0.837837838
 40
0.864864865
 40
0.864864865
 40
0.864864865
 40
0.864864865
 40
0.8918918920000001
 40
0.8918918920000001
 40
0.8918918920000001
 40
0.8918918920000001
 40
0.9189189190000001
 40
0.9189189190000001
 40
0.9189189190000001
 40
0.9189189190000001
 40
0.945945946
 40
0.945945946
 40
0.945945946
 40
0.945945946
 40
1
 40
1
 40
1
 40
1
 10
3.648271653543307
 20
2.872948818897638
 30
0
 10
3.271192913385827
 20
3.044027559055118
 30
0
 10
2.600724409448819
 20
3.120047244094488
 30
0
 10
1.416090551181102
 20
3.208066929133858
 30
0
 10
1.416090551181102
 20
3.208066929133858
 30
0
 10
1.028692913385827
 20
3.236870078740158
 30
0
 10
0.6783661417322835
 20
3.251515748031496
 30
0
 10
0.3748346456692913
 20
3.251515748031496
 30
0
 10
0.3748346456692913
 20
3.251515748031496
 30
0
 10
-0.2002007874015748
 20
3.251515748031496
 30
0
 10
-0.6188188976377953
 20
3.199850393700788
 30
0
 10
-0.8695629921259842
 20
3.098114173228347
 30
0
 10
-0.8695629921259842
 20
3.098114173228347
 30
0
 10
-0.9657283464566929
 20
3.059114173228346
 30
0
 10
-1.029448818897638
 20
3.015665354330709
 30
0
 10
-1.071476377952756
 20
2.973877952755906
 30
0
 10
-1.071476377952756
 20
2.973877952755906
 30
0
 10
-1.187685039370079
 20
2.980992125984252
 30
0
 10
-1.296326771653543
 20
2.984515748031496
 30
0
 10
-1.395472440944882
 20
2.984582677165355
 30
0
 10
-1.395472440944882
 20
2.984582677165355
 30
0
 10
-2.18515748031496
 20
2.984582677165355
 30
0
 10
-2.383185039370079
 20
2.751870078740157
 30
0
 10
-2.433062992125984
 20
2.477771653543307
 30
0
 10
-2.433062992125984
 20
2.477771653543307
 30
0
 10
-2.433062992125984
 20
2.477771653543307
 30
0
 10
-4.010354330708662
 20
2.595015748031496
 30
0
 10
-4.010354330708662
 20
2.595015748031496
 30
0
 10
-4.010354330708662
 20
2.595015748031496
 30
0
 10
-4.064751968503937
 20
2.599220472440945
 30
0
 10
-4.112704724409449
 20
2.557996062992126
 30
0
 10
-4.116787401574803
 20
2.503228346456693
 30
0
 10
-4.116787401574803
 20
2.503228346456693
 30
0
 10
-4.120870078740158
 20
2.448531496062992
 30
0
 10
-4.079818897637796
 20
2.400877952755906
 30
0
 10
-4.025070866141732
 20
2.396795275590551
 30
0
 10
-4.025070866141732
 20
2.396795275590551
 30
0
 10
-4.025070866141732
 20
2.396795275590551
 30
0
 10
-2.449267716535433
 20
2.279673228346457
 30
0
 10
-2.449267716535433
 20
2.279673228346457
 30
0
 10
-2.449267716535433
 20
2.279673228346457
 30
0
 10
-2.447291338582677
 20
2.16392125984252
 30
0
 10
-2.415385826771653
 20
2.0115
 30
0
 10
-2.249141732283464
 20
1.880905511811024
 30
0
 10
-2.249141732283464
 20
1.880905511811024
 30
0
 10
-2.054688976377953
 20
1.72811811023622
 30
0
 10
-1.711862204724409
 20
1.634366141732283
 30
0
 10
-1.174389763779528
 20
1.587641732283465
 30
0
 10
-1.174389763779528
 20
1.587641732283465
 30
0
 10
-1.133409448818898
 20
1.532700787401575
 30
0
 10
-1.064066929133858
 20
1.471452755905512
 30
0
 10
-0.9488543307086614
 20
1.410255905511811
 30
0
 10
-0.9488543307086614
 20
1.410255905511811
 30
0
 10
-0.6785236220472441
 20
1.266874015748032
 30
0
 10
-0.2142322834645669
 20
1.152275590551181
 30
0
 10
0.432003937007874
 20
1.069267716535433
 30
0
 10
0.432003937007874
 20
1.069267716535433
 30
0
 10
0.4846653543307087
 20
0.9241496062992126
 30
0
 10
0.5352834645669291
 20
0.7253897637795276
 30
0
 10
0.5352834645669291
 20
0.4972637795275591
 30
0
 10
0.5352834645669291
 20
0.4972637795275591
 30
0
 10
0.5352834645669291
 20
0.4094370078740158
 30
0
 10
0.6064291338582677
 20
0.3382874015748031
 30
0
 10
0.694255905511811
 20
0.3382874015748031
 30
0
 10
0.694255905511811
 20
0.3382874015748031
 30
0
 10
0.694255905511811
 20
0.3382874015748031
 30
0
 10
0.9131141732283464
 20
0.3382874015748031
 30
0
 10
0.9131141732283464
 20
0.3382874015748031
 30
0
 10
0.9131141732283464
 20
0.3382874015748031
 30
0
 10
0.9688622047244094
 20
0.2200629921259843
 30
0
 10
1.071826771653543
 20
-0.0711141732283465
 30
0
 10
1.071826771653543
 20
-0.6090787401574803
 30
0
 10
1.071826771653543
 20
-0.6090787401574803
 30
0
 10
1.071826771653543
 20
-1.020023622047244
 30
0
 10
1.014586614173228
 20
-1.180905511811024
 30
0
 10
0.9665157480314961
 20
-1.24338188976378
 30
0
 10
0.9665157480314961
 20
-1.24338188976378
 30
0
 10
0.9315275590551181
 20
-1.288933070866142
 30
0
 10
0.8872716535433071
 20
-1.301354330708661
 30
0
 10
0.760515748031496
 20
-1.301354330708661
 30
0
 10
0.760515748031496
 20
-1.301354330708661
 30
0
 10
0.760515748031496
 20
-1.301354330708661
 30
0
 10
0.0960236220472441
 20
-1.301354330708661
 30
0
 10
0.0960236220472441
 20
-1.301354330708661
 30
0
 10
0.0960236220472441
 20
-1.301354330708661
 30
0
 10
-0.2079251968503937
 20
-1.301354330708661
 30
0
 10
-0.4551496062992126
 20
-1.54857874015748
 30
0
 10
-0.4551496062992126
 20
-1.852547244094488
 30
0
 10
-0.4551496062992126
 20
-1.852547244094488
 30
0
 10
-0.4551496062992126
 20
-1.852547244094488
 30
0
 10
-0.4551496062992126
 20
-2.700397637795275
 30
0
 10
-0.4551496062992126
 20
-2.700397637795275
 30
0
 10
-0.4551496062992126
 20
-2.700397637795275
 30
0
 10
-0.4551496062992126
 20
-3.004299212598425
 30
0
 10
-0.2079251968503937
 20
-3.25151968503937
 30
0
 10
0.0960236220472441
 20
-3.25151968503937
 30
0
 10
0.0960236220472441
 20
-3.25151968503937
 30
0
 10
0.0960236220472441
 20
-3.25151968503937
 30
0
 10
2.600901574803149
 20
-3.25151968503937
 30
0
 10
2.600901574803149
 20
-3.25151968503937
 30
0
 10
2.600901574803149
 20
-3.25151968503937
 30
0
 10
2.904799212598425
 20
-3.25151968503937
 30
0
 10
3.152090551181102
 20
-3.004299212598425
 30
0
 10
3.152090551181102
 20
-2.700397637795275
 30
0
 10
3.152090551181102
 20
-2.700397637795275
 30
0
 10
3.152090551181102
 20
-2.700397637795275
 30
0
 10
3.152090551181102
 20
-1.852547244094488
 30
0
 10
3.152090551181102
 20
-1.852547244094488
 30
0
 10
3.152090551181102
 20
-1.852547244094488
 30
0
 10
3.152090551181102
 20
-1.609456692913386
 30
0
 10
2.995901574803149
 20
-1.403145669291339
 30
0
 10
2.776311023622047
 20
-1.330106299212598
 30
0
 10
2.776311023622047
 20
-1.330106299212598
 30
0
 10
2.776311023622047
 20
-1.330106299212598
 30
0
 10
2.776311023622047
 20
-0.4501023622047244
 30
0
 10
2.776311023622047
 20
-0.4501023622047244
 30
0
 10
2.776311023622047
 20
-0.4501023622047244
 30
0
 10
2.776311023622047
 20
-0.1531259842519685
 30
0
 10
2.662779527559055
 20
0.1233897637795276
 30
0
 10
2.562653543307087
 20
0.3673346456692914
 30
0
 10
2.562653543307087
 20
0.3673346456692914
 30
0
 10
2.480751968503937
 20
0.5666574803149607
 30
0
 10
2.403437007874016
 20
0.7550511811023622
 30
0
 10
2.403437007874016
 20
0.9146377952755905
 30
0
 10
2.403437007874016
 20
0.9146377952755905
 30
0
 10
2.403437007874016
 20
0.9161771653543307
 30
0
 10
2.403437007874016
 20
0.9177913385826771
 30
0
 10
2.403503937007874
 20
0.9193307086614173
 30
0
 10
2.403503937007874
 20
0.9193307086614173
 30
0
 10
2.526303149606299
 20
0.9151968503937008
 30
0
 10
2.636204724409449
 20
0.9131496062992126
 30
0
 10
2.737188976377953
 20
0.9131496062992126
 30
0
 10
2.737188976377953
 20
0.9131496062992126
 30
0
 10
3.290972440944882
 20
0.9131496062992126
 30
0
 10
3.599003937007874
 20
0.9756929133858268
 30
0
 10
3.800429133858268
 20
1.128972440944882
 30
0
 10
3.800429133858268
 20
1.128972440944882
 30
0
 10
4.021389763779528
 20
1.297094488188976
 30
0
 10
4.083322834645669
 20
1.555562992125984
 30
0
 10
4.108287401574803
 20
1.89198031496063
 30
0
 10
4.108287401574803
 20
1.89198031496063
 30
0
 10
4.136405511811024
 20
2.269968503937008
 30
0
 10
4.123984251968504
 20
2.657122047244095
 30
0
 10
3.648271653543307
 20
2.872948818897638
 30
0
  0
SPLINE
  5
59
100
AcDbEntity
  8
Layer 1
  6
ByLayer
 62
  256
370
    0
100
AcDbSpline
210
0
220
0
230
0
 70
 4096
 71
    3
 72
   68
 73
   64
 74
    0
 42
1e-07
 43
1e-07
 40
0
 40
0
 40
0
 40
0
 40
0.05882352900000001
 40
0.05882352900000001
 40
0.05882352900000001
 40
0.05882352900000001
 40
0.117647059
 40
0.117647059
 40
0.117647059
 40
0.117647059
 40
0.176470588
 40
0.176470588
 40
0.176470588
 40
0.176470588
 40
0.235294118
 40
0.235294118
 40
0.235294118
 40
0.235294118
 40
0.294117647
 40
0.294117647
 40
0.294117647
 40
0.294117647
 40
0.352941176
 40
0.352941176
 40
0.352941176
 40
0.352941176
 40
0.411764706
 40
0.411764706
 40
0.411764706
 40
0.411764706
 40
0.470588235
 40
0.470588235
 40
0.470588235
 40
0.470588235
 40
0.529411765
 40
0.529411765
 40
0.529411765
 40
0.529411765
 40
0.5882352940000001
 40
0.5882352940000001
 40
0.5882352940000001
 40
0.5882352940000001
 40
0.647058824
 40
0.647058824
 40
0.647058824
 40
0.647058824
 40
0.705882353
 40
0.705882353
 40
0.705882353
 40
0.705882353
 40
0.764705882
 40
0.764705882
 40
0.764705882
 40
0.764705882
 40
0.8235294120000001
 40
0.8235294120000001
 40
0.8235294120000001
 40
0.8235294120000001
 40
0.8823529410000001
 40
0.8823529410000001
 40
0.8823529410000001
 40
0.8823529410000001
 40
1
 40
1
 40
1
 40
1
 10
-1.599925196850394
 20
2.047854330708661
 30
0
 10
-1.629586614173228
 20
2.051181102362205
 30
0
 10
-1.663767716535433
 20
2.058051181102362
 30
0
 10
-1.700614173228346
 20
2.062551181102362
 30
0
 10
-1.700614173228346
 20
2.062551181102362
 30
0
 10
-1.737318897637795
 20
2.067492125984252
 30
0
 10
-1.776437007874016
 20
2.073748031496063
 30
0
 10
-1.815314960629921
 20
2.08084251968504
 30
0
 10
-1.815314960629921
 20
2.08084251968504
 30
0
 10
-1.854437007874016
 20
2.086413385826772
 30
0
 10
-1.893437007874016
 20
2.092964566929134
 30
0
 10
-1.929913385826772
 20
2.09994094488189
 30
0
 10
-1.929913385826772
 20
2.09994094488189
 30
0
 10
-1.966248031496063
 20
2.107244094488189
 30
0
 10
-2.000850393700787
 20
2.111696850393701
 30
0
 10
-2.03003937007874
 20
2.117933070866142
 30
0
 10
-2.03003937007874
 20
2.117933070866142
 30
0
 10
-2.05938188976378
 20
2.12311811023622
 30
0
 10
-2.084102362204725
 20
2.127515748031496
 30
0
 10
-2.101291338582677
 20
2.130547244094488
 30
0
 10
-2.101291338582677
 20
2.130547244094488
 30
0
 10
-2.118653543307087
 20
2.133263779527559
 30
0
 10
-2.128602362204724
 20
2.134803149606299
 30
0
 10
-2.128602362204724
 20
2.134803149606299
 30
0
 10
-2.128602362204724
 20
2.134803149606299
 30
0
 10
-2.128602362204724
 20
2.134803149606299
 30
0
 10
-2.11946062992126
 20
2.130598425196851
 30
0
 10
-2.103515748031496
 20
2.123188976377953
 30
0
 10
-2.103515748031496
 20
2.123188976377953
 30
0
 10
-2.087255905511811
 20
2.116566929133858
 30
0
 10
-2.064322834645669
 20
2.105755905511811
 30
0
 10
-2.035712598425197
 20
2.096366141732283
 30
0
 10
-2.035712598425197
 20
2.096366141732283
 30
0
 10
-2.007157480314961
 20
2.086976377952756
 30
0
 10
-1.973850393700787
 20
2.075220472440945
 30
0
 10
-1.937200787401575
 20
2.066318897637795
 30
0
 10
-1.937200787401575
 20
2.066318897637795
 30
0
 10
-1.900547244094488
 20
2.057543307086614
 30
0
 10
-1.861236220472441
 20
2.049149606299213
 30
0
 10
-1.821673228346457
 20
2.041669291338583
 30
0
 10
-1.821673228346457
 20
2.041669291338583
 30
0
 10
-1.781818897637795
 20
2.036165354330709
 30
0
 10
-1.741838582677165
 20
2.031645669291338
 30
0
 10
-1.704311023622047
 20
2.028318897637795
 30
0
 10
-1.704311023622047
 20
2.028318897637795
 30
0
 10
-1.666799212598425
 20
2.025043307086614
 30
0
 10
-1.631444881889764
 20
2.025653543307087
 30
0
 10
-1.601397637795276
 20
2.025531496062992
 30
0
 10
-1.601397637795276
 20
2.025531496062992
 30
0
 10
-1.571248031496063
 20
2.025287401574803
 30
0
 10
-1.546086614173228
 20
2.028318897637795
 30
0
 10
-1.528602362204724
 20
2.029370078740158
 30
0
 10
-1.528602362204724
 20
2.029370078740158
 30
0
 10
-1.511102362204724
 20
2.031350393700787
 30
0
 10
-1.501027559055118
 20
2.032523622047244
 30
0
 10
-1.501027559055118
 20
2.032523622047244
 30
0
 10
-1.501027559055118
 20
2.032523622047244
 30
0
 10
-1.501027559055118
 20
2.032523622047244
 30
0
 10
-1.51098031496063
 20
2.03411811023622
 30
0
 10
-1.528358267716535
 20
2.037094488188977
 30
0
 10
-1.528358267716535
 20
2.037094488188977
 30
0
 10
-1.54559842519685
 20
2.039688976377953
 30
0
 10
-1.57044094488189
 20
2.04340157480315
 30
0
 10
-1.599925196850394
 20
2.047854330708661
 30
0
  0
SPLINE
  5
5A
100
AcDbEntity
  8
Layer 1
  6
ByLayer
 62
  256
370
    0
100
AcDbSpline
210
0
220
0
230
0
 70
 4096
 71
    3
 72
   68
 73
   64
 74
    0
 42
1e-07
 43
1e-07
 40
0
 40
0
 40
0
 40
0
 40
0.05882352900000001
 40
0.05882352900000001
 40
0.05882352900000001
 40
0.05882352900000001
 40
0.117647059
 40
0.117647059
 40
0.117647059
 40
0.117647059
 40
0.176470588
 40
0.176470588
 40
0.176470588
 40
0.176470588
 40
0.235294118
 40
0.235294118
 40
0.235294118
 40
0.235294118
 40
0.294117647
 40
0.294117647
 40
0.294117647
 40
0.294117647
 40
0.352941176
 40
0.352941176
 40
0.352941176
 40
0.352941176
 40
0.411764706
 40
0.411764706
 40
0.411764706
 40
0.411764706
 40
0.470588235
 40
0.470588235
 40
0.470588235
 40
0.470588235
 40
0.529411765
 40
0.529411765
 40
0.529411765
 40
0.529411765
 40
0.5882352940000001
 40
0.5882352940000001
 40
0.5882352940000001
 40
0.5882352940000001
 40
0.647058824
 40
0.647058824
 40
0.647058824
 40
0.647058824
 40
0.705882353
 40
0.705882353
 40
0.705882353
 40
0.705882353
 40
0.764705882
 40
0.764705882
 40
0.764705882
 40
0.764705882
 40
0.8235294120000001
 40
0.8235294120000001
 40
0.8235294120000001
 40
0.8235294120000001
 40
0.8823529410000001
 40
0.8823529410000001
 40
0.8823529410000001
 40
0.8823529410000001
 40
1
 40
1
 40
1
 40
1
 10
-1.490409448818898
 20
2.139622047244095
 30
0
 10
-1.515673228346457
 20
2.144826771653543
 30
0
 10
-1.544862204724409
 20
2.152850393700787
 30
0
 10
-1.576625984251969
 20
2.158051181102362
 30
0
 10
-1.576625984251969
 20
2.158051181102362
 30
0
 10
-1.608334645669291
 20
2.163429133858268
 30
0
 10
-1.642200787401575
 20
2.169177165354331
 30
0
 10
-1.676066929133858
 20
2.174854330708662
 30
0
 10
-1.676066929133858
 20
2.174854330708662
 30
0
 10
-1.710125984251968
 20
2.178814960629921
 30
0
 10
-1.744307086614173
 20
2.182826771653543
 30
0
 10
-1.776263779527559
 20
2.186468503937008
 30
0
 10
-1.776263779527559
 20
2.186468503937008
 30
0
 10
-1.808200787401575
 20
2.190307086614173
 30
0
 10
-1.838425196850394
 20
2.190866141732283
 30
0
 10
-1.864141732283465
 20
2.192897637795276
 30
0
 10
-1.864141732283465
 20
2.192897637795276
 30
0
 10
-1.889913385826772
 20
2.194755905511811
 30
0
 10
-1.911673228346457
 20
2.193948818897638
 30
0
 10
-1.926759842519685
 20
2.19444094488189
 30
0
 10
-1.926759842519685
 20
2.19444094488189
 30
0
 10
-1.941948818897638
 20
2.194141732283465
 30
0
 10
-1.950673228346457
 20
2.193948818897638
 30
0
 10
-1.950673228346457
 20
2.193948818897638
 30
0
 10
-1.950673228346457
 20
2.193948818897638
 30
0
 10
-1.950673228346457
 20
2.193948818897638
 30
0
 10
-1.942385826771654
 20
2.191429133858268
 30
0
 10
-1.927862204724409
 20
2.186854330708661
 30
0
 10
-1.927862204724409
 20
2.186854330708661
 30
0
 10
-1.913216535433071
 20
2.183141732283465
 30
0
 10
-1.892507874015748
 20
2.176271653543307
 30
0
 10
-1.867295275590551
 20
2.170842519685039
 30
0
 10
-1.867295275590551
 20
2.170842519685039
 30
0
 10
-1.842086614173228
 20
2.165586614173229
 30
0
 10
-1.812846456692913
 20
2.157736220472441
 30
0
 10
-1.781082677165354
 20
2.152429133858268
 30
0
 10
-1.781082677165354
 20
2.152429133858268
 30
0
 10
-1.749370078740157
 20
2.147051181102362
 30
0
 10
-1.715503937007874
 20
2.141303149606299
 30
0
 10
-1.681622047244095
 20
2.13553937007874
 30
0
 10
-1.681622047244095
 20
2.13553937007874
 30
0
 10
-1.64757874015748
 20
2.13159842519685
 30
0
 10
-1.613452755905512
 20
2.127637795275591
 30
0
 10
-1.581496062992126
 20
2.123925196850394
 30
0
 10
-1.581496062992126
 20
2.123925196850394
 30
0
 10
-1.54955905511811
 20
2.120035433070866
 30
0
 10
-1.519263779527559
 20
2.119472440944882
 30
0
 10
-1.493547244094488
 20
2.117496062992126
 30
0
 10
-1.493547244094488
 20
2.117496062992126
 30
0
 10
-1.467846456692913
 20
2.115582677165354
 30
0
 10
-1.446031496062992
 20
2.116444881889764
 30
0
 10
-1.430948818897638
 20
2.115952755905512
 30
0
 10
-1.430948818897638
 20
2.115952755905512
 30
0
 10
-1.415740157480315
 20
2.116267716535433
 30
0
 10
-1.407086614173228
 20
2.116444881889764
 30
0
 10
-1.407086614173228
 20
2.116444881889764
 30
0
 10
-1.407086614173228
 20
2.116444881889764
 30
0
 10
-1.407086614173228
 20
2.116444881889764
 30
0
 10
-1.415374015748031
 20
2.119055118110236
 30
0
 10
-1.429897637795276
 20
2.123555118110236
 30
0
 10
-1.429897637795276
 20
2.123555118110236
 30
0
 10
-1.444472440944882
 20
2.127271653543307
 30
0
 10
-1.465181102362205
 20
2.134244094488189
 30
0
 10
-1.490409448818898
 20
2.139622047244095
 30
0
  0
SPLINE
  5
5B
100
AcDbEntity
  8
Layer 1
  6
ByLayer
 62
  256
370
    0
100
AcDbSpline
210
0
220
0
230
0
 70
 4096
 71
    3
 72
   68
 73
   64
 74
    0
 42
1e-07
 43
1e-07
 40
0
 40
0
 40
0
 40
0
 40
0.05882352900000001
 40
0.05882352900000001
 40
0.05882352900000001
 40
0.05882352900000001
 40
0.117647059
 40
0.117647059
 40
0.117647059
 40
0.117647059
 40
0.176470588
 40
0.176470588
 40
0.176470588
 40
0.176470588
 40
0.235294118
 40
0.235294118
 40
0.235294118
 40
0.235294118
 40
0.294117647
 40
0.294117647
 40
0.294117647
 40
0.294117647
 40
0.352941176
 40
0.352941176
 40
0.352941176
 40
0.352941176
 40
0.411764706
 40
0.411764706
 40
0.411764706
 40
0.411764706
 40
0.470588235
 40
0.470588235
 40
0.470588235
 40
0.470588235
 40
0.529411765
 40
0.529411765
 40
0.529411765
 40
0.529411765
 40
0.5882352940000001
 40
0.5882352940000001
 40
0.5882352940000001
 40
0.5882352940000001
 40
0.647058824
 40
0.647058824
 40
0.647058824
 40
0.647058824
 40
0.705882353
 40
0.705882353
 40
0.705882353
 40
0.705882353
 40
0.764705882
 40
0.764705882
 40
0.764705882
 40
0.764705882
 40
0.8235294120000001
 40
0.8235294120000001
 40
0.8235294120000001
 40
0.8235294120000001
 40
0.8823529410000001
 40
0.8823529410000001
 40
0.8823529410000001
 40
0.8823529410000001
 40
1
 40
1
 40
1
 40
1
 10
-1.623842519685039
 20
2.260649606299213
 30
0
 10
-1.63755905511811
 20
2.260334645669291
 30
0
 10
-1.649244094488189
 20
2.257740157480315
 30
0
 10
-1.657338582677165
 20
2.257003937007874
 30
0
 10
-1.657338582677165
 20
2.257003937007874
 30
0
 10
-1.665503937007874
 20
2.255393700787402
 30
0
 10
-1.670129921259843
 20
2.254515748031496
 30
0
 10
-1.670129921259843
 20
2.254515748031496
 30
0
 10
-1.670129921259843
 20
2.254515748031496
 30
0
 10
-1.670129921259843
 20
2.254515748031496
 30
0
 10
-1.665803149606299
 20
2.252606299212598
 30
0
 10
-1.658145669291339
 20
2.249330708661417
 30
0
 10
-1.658145669291339
 20
2.249330708661417
 30
0
 10
-1.650417322834646
 20
2.246929133858268
 30
0
 10
-1.639610236220473
 20
2.241795275590551
 30
0
 10
-1.626311023622047
 20
2.23851968503937
 30
0
 10
-1.626311023622047
 20
2.23851968503937
 30
0
 10
-1.61296062992126
 20
2.23542125984252
 30
0
 10
-1.597629921259843
 20
2.23003937007874
 30
0
 10
-1.580830708661417
 20
2.227397637795276
 30
0
 10
-1.580830708661417
 20
2.227397637795276
 30
0
 10
-1.564011811023622
 20
2.224732283464567
 30
0
 10
-1.546086614173228
 20
2.221893700787402
 30
0
 10
-1.528165354330709
 20
2.218988188976378
 30
0
 10
-1.528165354330709
 20
2.218988188976378
 30
0
 10
-1.510051181102362
 20
2.217937007874016
 30
0
 10
-1.491952755905512
 20
2.216830708661417
 30
0
 10
-1.474956692913386
 20
2.215779527559055
 30
0
 10
-1.474956692913386
 20
2.215779527559055
 30
0
 10
-1.457944881889764
 20
2.214606299212599
 30
0
 10
-1.441826771653543
 20
2.216637795275591
 30
0
 10
-1.428110236220473
 20
2.216759842519685
 30
0
 10
-1.428110236220473
 20
2.216759842519685
 30
0
 10
-1.414444881889764
 20
2.217074803149606
 30
0
 10
-1.402759842519685
 20
2.219791338582677
 30
0
 10
-1.394665354330709
 20
2.220476377952756
 30
0
 10
-1.394665354330709
 20
2.220476377952756
 30
0
 10
-1.3865
 20
2.222070866141732
 30
0
 10
-1.381874015748032
 20
2.223
 30
0
 10
-1.381874015748032
 20
2.223
 30
0
 10
-1.381874015748032
 20
2.223
 30
0
 10
-1.381874015748032
 20
2.223
 30
0
 10
-1.386200787401575
 20
2.224854330708661
 30
0
 10
-1.393858267716535
 20
2.228200787401575
 30
0
 10
-1.393858267716535
 20
2.228200787401575
 30
0
 10
-1.401531496062992
 20
2.230602362204725
 30
0
 10
-1.412342519685039
 20
2.235807086614173
 30
0
 10
-1.425692913385827
 20
2.239011811023622
 30
0
 10
-1.425692913385827
 20
2.239011811023622
 30
0
 10
-1.439043307086614
 20
2.242094488188976
 30
0
 10
-1.454374015748032
 20
2.247594488188976
 30
0
 10
-1.471173228346457
 20
2.250066929133858
 30
0
 10
-1.471173228346457
 20
2.250066929133858
 30
0
 10
-1.487992125984252
 20
2.252799212598425
 30
0
 10
-1.505917322834646
 20
2.25563779527559
 30
0
 10
-1.523838582677165
 20
2.258476377952756
 30
0
 10
-1.523838582677165
 20
2.258476377952756
 30
0
 10
-1.541952755905512
 20
2.259598425196851
 30
0
 10
-1.560051181102362
 20
2.260649606299213
 30
0
 10
-1.577047244094488
 20
2.261629921259842
 30
0
 10
-1.577047244094488
 20
2.261629921259842
 30
0
 10
-1.593988188976378
 20
2.262751968503937
 30
0
 10
-1.610177165354331
 20
2.260822834645669
 30
0
 10
-1.623842519685039
 20
2.260649606299213
 30
0
  0
SPLINE
  5
5C
100
AcDbEntity
  8
Layer 1
  6
ByLayer
 62
  256
370
    0
100
AcDbSpline
210
0
220
0
230
0
 70
 4096
 71
    3
 72
   68
 73
   64
 74
    0
 42
1e-07
 43
1e-07
 40
0
 40
0
 40
0
 40
0
 40
0.05882352900000001
 40
0.05882352900000001
 40
0.05882352900000001
 40
0.05882352900000001
 40
0.117647059
 40
0.117647059
 40
0.117647059
 40
0.117647059
 40
0.176470588
 40
0.176470588
 40
0.176470588
 40
0.176470588
 40
0.235294118
 40
0.235294118
 40
0.235294118
 40
0.235294118
 40
0.294117647
 40
0.294117647
 40
0.294117647
 40
0.294117647
 40
0.352941176
 40
0.352941176
 40
0.352941176
 40
0.352941176
 40
0.411764706
 40
0.411764706
 40
0.411764706
 40
0.411764706
 40
0.470588235
 40
0.470588235
 40
0.470588235
 40
0.470588235
 40
0.529411765
 40
0.529411765
 40
0.529411765
 40
0.529411765
 40
0.5882352940000001
 40
0.5882352940000001
 40
0.5882352940000001
 40
0.5882352940000001
 40
0.647058824
 40
0.647058824
 40
0.647058824
 40
0.647058824
 40
0.705882353
 40
0.705882353
 40
0.705882353
 40
0.705882353
 40
0.764705882
 40
0.764705882
 40
0.764705882
 40
0.764705882
 40
0.8235294120000001
 40
0.8235294120000001
 40
0.8235294120000001
 40
0.8235294120000001
 40
0.8823529410000001
 40
0.8823529410000001
 40
0.8823529410000001
 40
0.8823529410000001
 40
1
 40
1
 40
1
 40
1
 10
-0.2330157480314961
 20
1.771826771653543
 30
0
 10
-0.2697874015748031
 20
1.773125984251968
 30
0
 10
-0.3123779527559055
 20
1.778748031496063
 30
0
 10
-0.3579291338582677
 20
1.782393700787402
 30
0
 10
-0.3579291338582677
 20
1.782393700787402
 30
0
 10
-0.4036062992125984
 20
1.786649606299213
 30
0
 10
-0.4519409448818897
 20
1.793027559055118
 30
0
 10
-0.5000157480314961
 20
1.801122047244095
 30
0
 10
-0.5000157480314961
 20
1.801122047244095
 30
0
 10
-0.5482992125984252
 20
1.807972440944882
 30
0
 10
-0.5963740157480315
 20
1.816574803149606
 30
0
 10
-0.6410669291338583
 20
1.826330708661417
 30
0
 10
-0.6410669291338583
 20
1.826330708661417
 30
0
 10
-0.6856220472440945
 20
1.83659842519685
 30
0
 10
-0.7279645669291338
 20
1.844326771653543
 30
0
 10
-0.7633740157480315
 20
1.854204724409449
 30
0
 10
-0.7633740157480315
 20
1.854204724409449
 30
0
 10
-0.7989724409448818
 20
1.86342125984252
 30
0
 10
-0.8291417322834645
 20
1.870220472440945
 30
0
 10
-0.8498503937007874
 20
1.876334645669291
 30
0
 10
-0.8498503937007874
 20
1.876334645669291
 30
0
 10
-0.8708582677165354
 20
1.881712598425197
 30
0
 10
-0.8829094488188977
 20
1.884795275590551
 30
0
 10
-0.8829094488188977
 20
1.884795275590551
 30
0
 10
-0.8829094488188977
 20
1.884795275590551
 30
0
 10
-0.8829094488188977
 20
1.884795275590551
 30
0
 10
-0.8718582677165354
 20
1.87911811023622
 30
0
 10
-0.8525669291338582
 20
1.869169291338583
 30
0
 10
-0.8525669291338582
 20
1.869169291338583
 30
0
 10
-0.8329094488188976
 20
1.860023622047244
 30
0
 10
-0.8051574803149606
 20
1.845795275590551
 30
0
 10
-0.7701181102362205
 20
1.832937007874016
 30
0
 10
-0.7701181102362205
 20
1.832937007874016
 30
0
 10
-0.7353228346456693
 20
1.819850393700787
 30
0
 10
-0.6942755905511812
 20
1.804889763779528
 30
0
 10
-0.6490905511811024
 20
1.792834645669291
 30
0
 10
-0.6490905511811024
 20
1.792834645669291
 30
0
 10
-0.6039251968503937
 20
1.781220472440945
 30
0
 10
-0.5552204724409449
 20
1.770708661417323
 30
0
 10
-0.5061496062992126
 20
1.761877952755905
 30
0
 10
-0.5061496062992126
 20
1.761877952755905
 30
0
 10
-0.4566889763779527
 20
1.755377952755905
 30
0
 10
-0.4070748031496063
 20
1.750610236220473
 30
0
 10
-0.3604724409448819
 20
1.747964566929134
 30
0
 10
-0.3604724409448819
 20
1.747964566929134
 30
0
 10
-0.3138700787401575
 20
1.74561811023622
 30
0
 10
-0.2701732283464567
 20
1.747527559055118
 30
0
 10
-0.2330157480314961
 20
1.749437007874016
 30
0
 10
-0.2330157480314961
 20
1.749437007874016
 30
0
 10
-0.195748031496063
 20
1.751051181102362
 30
0
 10
-0.1649685039370079
 20
1.756185039370079
 30
0
 10
-0.1435236220472441
 20
1.758897637795276
 30
0
 10
-0.1435236220472441
 20
1.758897637795276
 30
0
 10
-0.1220787401574803
 20
1.762614173228346
 30
0
 10
-0.1098503937007874
 20
1.764645669291339
 30
0
 10
-0.1098503937007874
 20
1.764645669291339
 30
0
 10
-0.1098503937007874
 20
1.764645669291339
 30
0
 10
-0.1098503937007874
 20
1.764645669291339
 30
0
 10
-0.1222007874015748
 20
1.765397637795276
 30
0
 10
-0.1438897637795276
 20
1.766625984251968
 30
0
 10
-0.1438897637795276
 20
1.766625984251968
 30
0
 10
-0.1654763779527559
 20
1.767114173228346
 30
0
 10
-0.196240157480315
 20
1.769850393700787
 30
0
 10
-0.2330157480314961
 20
1.771826771653543
 30
0
  0
SPLINE
  5
5D
100
AcDbEntity
  8
Layer 1
  6
ByLayer
 62
  256
370
    0
100
AcDbSpline
210
0
220
0
230
0
 70
 4096
 71
    3
 72
   68
 73
   64
 74
    0
 42
1e-07
 43
1e-07
 40
0
 40
0
 40
0
 40
0
 40
0.05882352900000001
 40
0.05882352900000001
 40
0.05882352900000001
 40
0.05882352900000001
 40
0.117647059
 40
0.117647059
 40
0.117647059
 40
0.117647059
 40
0.176470588
 40
0.176470588
 40
0.176470588
 40
0.176470588
 40
0.235294118
 40
0.235294118
 40
0.235294118
 40
0.235294118
 40
0.294117647
 40
0.294117647
 40
0.294117647
 40
0.294117647
 40
0.352941176
 40
0.352941176
 40
0.352941176
 40
0.352941176
 40
0.411764706
 40
0.411764706
 40
0.411764706
 40
0.411764706
 40
0.470588235
 40
0.470588235
 40
0.470588235
 40
0.470588235
 40
0.529411765
 40
0.529411765
 40
0.529411765
 40
0.529411765
 40
0.5882352940000001
 40
0.5882352940000001
 40
0.5882352940000001
 40
0.5882352940000001
 40
0.647058824
 40
0.647058824
 40
0.647058824
 40
0.647058824
 40
0.705882353
 40
0.705882353
 40
0.705882353
 40
0.705882353
 40
0.764705882
 40
0.764705882
 40
0.764705882
 40
0.764705882
 40
0.8235294120000001
 40
0.8235294120000001
 40
0.8235294120000001
 40
0.8235294120000001
 40
0.8823529410000001
 40
0.8823529410000001
 40
0.8823529410000001
 40
0.8823529410000001
 40
1
 40
1
 40
1
 40
1
 10
-0.1629370078740157
 20
1.906066929133858
 30
0
 10
-0.1935236220472441
 20
1.906748031496063
 30
0
 10
-0.2291259842519685
 20
1.91088188976378
 30
0
 10
-0.2671968503937008
 20
1.912618110236221
 30
0
 10
-0.2671968503937008
 20
1.912618110236221
 30
0
 10
-0.3052125984251968
 20
1.914893700787402
 30
0
 10
-0.3456299212598425
 20
1.918610236220472
 30
0
 10
-0.3859251968503937
 20
1.923496062992126
 30
0
 10
-0.3859251968503937
 20
1.923496062992126
 30
0
 10
-0.4262913385826771
 20
1.92701968503937
 30
0
 10
-0.4665866141732283
 20
1.931712598425197
 30
0
 10
-0.5043425196850394
 20
1.937338582677165
 30
0
 10
-0.5043425196850394
 20
1.937338582677165
 30
0
 10
-0.5418700787401575
 20
1.94340157480315
 30
0
 10
-0.5775236220472441
 20
1.946799212598425
 30
0
 10
-0.6075708661417323
 20
1.952476377952756
 30
0
 10
-0.6075708661417323
 20
1.952476377952756
 30
0
 10
-0.6377913385826771
 20
1.957677165354331
 30
0
 10
-0.6634409448818898
 20
1.960692913385827
 30
0
 10
-0.6810472440944881
 20
1.96403937007874
 30
0
 10
-0.6810472440944881
 20
1.96403937007874
 30
0
 10
-0.6989724409448819
 20
1.966629921259843
 30
0
 10
-0.7092362204724409
 20
1.968122047244095
 30
0
 10
-0.7092362204724409
 20
1.968122047244095
 30
0
 10
-0.7092362204724409
 20
1.968122047244095
 30
0
 10
-0.7092362204724409
 20
1.968122047244095
 30
0
 10
-0.6997755905511811
 20
1.963917322834646
 30
0
 10
-0.6831496062992126
 20
1.956625984251968
 30
0
 10
-0.6831496062992126
 20
1.956625984251968
 30
0
 10
-0.6663503937007874
 20
1.950125984251968
 30
0
 10
-0.6424881889763779
 20
1.939614173228347
 30
0
 10
-0.6127047244094488
 20
1.930838582677165
 30
0
 10
-0.6127047244094488
 20
1.930838582677165
 30
0
 10
-0.5830944881889764
 20
1.921885826771654
 30
0
 10
-0.5482992125984252
 20
1.911129921259842
 30
0
 10
-0.5102283464566929
 20
1.903472440944882
 30
0
 10
-0.5102283464566929
 20
1.903472440944882
 30
0
 10
-0.4720905511811024
 20
1.896043307086614
 30
0
 10
-0.4311614173228346
 20
1.889370078740157
 30
0
 10
-0.390007874015748
 20
1.88405905511811
 30
0
 10
-0.390007874015748
 20
1.88405905511811
 30
0
 10
-0.3486614173228346
 20
1.880783464566929
 30
0
 10
-0.3071929133858268
 20
1.878751968503937
 30
0
 10
-0.2683700787401575
 20
1.878192913385827
 30
0
 10
-0.2683700787401575
 20
1.878192913385827
 30
0
 10
-0.229492125984252
 20
1.877700787401575
 30
0
 10
-0.1932795275590551
 20
1.88109842519685
 30
0
 10
-0.1623740157480315
 20
1.883692913385827
 30
0
 10
-0.1623740157480315
 20
1.883692913385827
 30
0
 10
-0.1314685039370079
 20
1.886161417322835
 30
0
 10
-0.1059448818897638
 20
1.891594488188976
 30
0
 10
-0.0881417322834646
 20
1.894448818897638
 30
0
 10
-0.0881417322834646
 20
1.894448818897638
 30
0
 10
-0.0704133858267717
 20
1.898216535433071
 30
0
 10
-0.0602677165354331
 20
1.900318897637795
 30
0
 10
-0.0602677165354331
 20
1.900318897637795
 30
0
 10
-0.0602677165354331
 20
1.900318897637795
 30
0
 10
-0.0602677165354331
 20
1.900318897637795
 30
0
 10
-0.0705866141732283
 20
1.901
 30
0
 10
-0.08870472440944881
 20
1.902177165354331
 30
0
 10
-0.08870472440944881
 20
1.902177165354331
 30
0
 10
-0.1066259842519685
 20
1.902543307086614
 30
0
 10
-0.1323464566929134
 20
1.904944881889764
 30
0
 10
-0.1629370078740157
 20
1.906066929133858
 30
0
  0
SPLINE
  5
5E
100
AcDbEntity
  8
Layer 1
  6
ByLayer
 62
  256
370
    0
100
AcDbSpline
210
0
220
0
230
0
 70
 4096
 71
    3
 72
   68
 73
   64
 74
    0
 42
1e-07
 43
1e-07
 40
0
 40
0
 40
0
 40
0
 40
0.05882352900000001
 40
0.05882352900000001
 40
0.05882352900000001
 40
0.05882352900000001
 40
0.117647059
 40
0.117647059
 40
0.117647059
 40
0.117647059
 40
0.176470588
 40
0.176470588
 40
0.176470588
 40
0.176470588
 40
0.235294118
 40
0.235294118
 40
0.235294118
 40
0.235294118
 40
0.294117647
 40
0.294117647
 40
0.294117647
 40
0.294117647
 40
0.352941176
 40
0.352941176
 40
0.352941176
 40
0.352941176
 40
0.411764706
 40
0.411764706
 40
0.411764706
 40
0.411764706
 40
0.470588235
 40
0.470588235
 40
0.470588235
 40
0.470588235
 40
0.529411765
 40
0.529411765
 40
0.529411765
 40
0.529411765
 40
0.5882352940000001
 40
0.5882352940000001
 40
0.5882352940000001
 40
0.5882352940000001
 40
0.647058824
 40
0.647058824
 40
0.647058824
 40
0.647058824
 40
0.705882353
 40
0.705882353
 40
0.705882353
 40
0.705882353
 40
0.764705882
 40
0.764705882
 40
0.764705882
 40
0.764705882
 40
0.8235294120000001
 40
0.8235294120000001
 40
0.8235294120000001
 40
0.8235294120000001
 40
0.8823529410000001
 40
0.8823529410000001
 40
0.8823529410000001
 40
0.8823529410000001
 40
1
 40
1
 40
1
 40
1
 10
-0.2476771653543307
 20
2.039618110236221
 30
0
 10
-0.269492125984252
 20
2.039003937007874
 30
0
 10
-0.2911811023622047
 20
2.038393700787402
 30
0
 10
-0.3116417322834646
 20
2.037779527559055
 30
0
 10
-0.3116417322834646
 20
2.037779527559055
 30
0
 10
-0.3320354330708661
 20
2.037586614173228
 30
0
 10
-0.351255905511811
 20
2.034503937007874
 30
0
 10
-0.3676889763779528
 20
2.033574803149606
 30
0
 10
-0.3676889763779528
 20
2.033574803149606
 30
0
 10
-0.3840708661417323
 20
2.032452755905512
 30
0
 10
-0.3979291338582677
 20
2.029299212598425
 30
0
 10
-0.4075629921259842
 20
2.028196850393701
 30
0
 10
-0.4075629921259842
 20
2.028196850393701
 30
0
 10
-0.4172716535433071
 20
2.026267716535433
 30
0
 10
-0.4228228346456693
 20
2.025216535433071
 30
0
 10
-0.4228228346456693
 20
2.025216535433071
 30
0
 10
-0.4228228346456693
 20
2.025216535433071
 30
0
 10
-0.4228228346456693
 20
2.025216535433071
 30
0
 10
-0.4174448818897638
 20
2.0235
 30
0
 10
-0.408003937007874
 20
2.020523622047244
 30
0
 10
-0.408003937007874
 20
2.020523622047244
 30
0
 10
-0.3985433070866142
 20
2.018366141732284
 30
0
 10
-0.385
 20
2.013724409448819
 30
0
 10
-0.3686181102362205
 20
2.011322834645669
 30
0
 10
-0.3686181102362205
 20
2.011322834645669
 30
0
 10
-0.352255905511811
 20
2.008905511811024
 30
0
 10
-0.3330866141732283
 20
2.004649606299213
 30
0
 10
-0.3124488188976378
 20
2.003354330708661
 30
0
 10
-0.3124488188976378
 20
2.003354330708661
 30
0
 10
-0.291740157480315
 20
2.002303149606299
 30
0
 10
-0.2697362204724409
 20
2.001125984251968
 30
0
 10
-0.2476771653543307
 20
1.999952755905512
 30
0
 10
-0.2476771653543307
 20
1.999952755905512
 30
0
 10
-0.2256732283464567
 20
2.00105905511811
 30
0
 10
-0.2035984251968504
 20
2.002232283464567
 30
0
 10
-0.1829606299212598
 20
2.003228346456693
 30
0
 10
-0.1829606299212598
 20
2.003228346456693
 30
0
 10
-0.1623228346456693
 20
2.004405511811024
 30
0
 10
-0.1432244094488189
 20
2.008712598425197
 30
0
 10
-0.1267755905511811
 20
2.01107874015748
 30
0
 10
-0.1267755905511811
 20
2.01107874015748
 30
0
 10
-0.1103937007874016
 20
2.01348031496063
 30
0
 10
-0.0968661417322835
 20
2.018122047244094
 30
0
 10
-0.08733858267716529
 20
2.020224409448819
 30
0
 10
-0.08733858267716529
 20
2.020224409448819
 30
0
 10
-0.0779448818897638
 20
2.023255905511811
 30
0
 10
-0.0725157480314961
 20
2.024972440944882
 30
0
 10
-0.0725157480314961
 20
2.024972440944882
 30
0
 10
-0.0725157480314961
 20
2.024972440944882
 30
0
 10
-0.0725157480314961
 20
2.024972440944882
 30
0
 10
-0.0780708661417323
 20
2.026023622047244
 30
0
 10
-0.0877755905511811
 20
2.027948818897638
 30
0
 10
-0.0877755905511811
 20
2.027948818897638
 30
0
 10
-0.09748031496062989
 20
2.029055118110236
 30
0
 10
-0.1112677165354331
 20
2.032279527559055
 30
0
 10
-0.1277047244094488
 20
2.033381889763779
 30
0
 10
-0.1277047244094488
 20
2.033381889763779
 30
0
 10
-0.1440826771653543
 20
2.034311023622047
 30
0
 10
-0.1633031496062992
 20
2.037586614173228
 30
0
 10
-0.1836968503937008
 20
2.037708661417323
 30
0
 10
-0.1836968503937008
 20
2.037708661417323
 30
0
 10
-0.2040905511811024
 20
2.038322834645669
 30
0
 10
-0.2259173228346457
 20
2.039003937007874
 30
0
 10
-0.2476771653543307
 20
2.039618110236221
 30
0
  0
SPLINE
  5
5F
100
AcDbEntity
  8
Layer 1
  6
ByLayer
 62
  256
370
    0
100
AcDbSpline
210
0
220
0
230
0
 70
 4096
 71
    3
 72
   68
 73
   64
 74
    0
 42
1e-07
 43
1e-07
 40
0
 40
0
 40
0
 40
0
 40
0.05882352900000001
 40
0.05882352900000001
 40
0.05882352900000001
 40
0.05882352900000001
 40
0.117647059
 40
0.117647059
 40
0.117647059
 40
0.117647059
 40
0.176470588
 40
0.176470588
 40
0.176470588
 40
0.176470588
 40
0.235294118
 40
0.235294118
 40
0.235294118
 40
0.235294118
 40
0.294117647
 40
0.294117647
 40
0.294117647
 40
0.294117647
 40
0.352941176
 40
0.352941176
 40
0.352941176
 40
0.352941176
 40
0.411764706
 40
0.411764706
 40
0.411764706
 40
0.411764706
 40
0.470588235
 40
0.470588235
 40
0.470588235
 40
0.470588235
 40
0.529411765
 40
0.529411765
 40
0.529411765
 40
0.529411765
 40
0.5882352940000001
 40
0.5882352940000001
 40
0.5882352940000001
 40
0.5882352940000001
 40
0.647058824
 40
0.647058824
 40
0.647058824
 40
0.647058824
 40
0.705882353
 40
0.705882353
 40
0.705882353
 40
0.705882353
 40
0.764705882
 40
0.764705882
 40
0.764705882
 40
0.764705882
 40
0.8235294120000001
 40
0.8235294120000001
 40
0.8235294120000001
 40
0.8235294120000001
 40
0.8823529410000001
 40
0.8823529410000001
 40
0.8823529410000001
 40
0.8823529410000001
 40
1
 40
1
 40
1
 40
1
 10
2.937122047244094
 20
2.207177165354331
 30
0
 10
2.795283464566929
 20
2.22157874015748
 30
0
 10
2.629948818897638
 20
2.241429133858268
 30
0
 10
2.452456692913386
 20
2.257181102362205
 30
0
 10
2.452456692913386
 20
2.257181102362205
 30
0
 10
2.274944881889764
 20
2.273244094488189
 30
0
 10
2.085625984251969
 20
2.290377952755906
 30
0
 10
1.896326771653543
 20
2.307496062992126
 30
0
 10
1.896326771653543
 20
2.307496062992126
 30
0
 10
1.706759842519685
 20
2.321775590551181
 30
0
 10
1.517145669291339
 20
2.335984251968504
 30
0
 10
1.33944094488189
 20
2.349405511811024
 30
0
 10
1.33944094488189
 20
2.349405511811024
 30
0
 10
1.161755905511811
 20
2.362877952755905
 30
0
 10
0.995492125984252
 20
2.370724409448819
 30
0
 10
0.8531614173228347
 20
2.379870078740157
 30
0
 10
0.8531614173228347
 20
2.379870078740157
 30
0
 10
0.7108818897637795
 20
2.388771653543307
 30
0
 10
0.5919055118110236
 20
2.392291338582677
 30
0
 10
0.5088267716535433
 20
2.396551181102362
 30
0
 10
0.5088267716535433
 20
2.396551181102362
 30
0
 10
0.4255905511811023
 20
2.399456692913386
 30
0
 10
0.3780590551181102
 20
2.401192913385827
 30
0
 10
0.3780590551181102
 20
2.401192913385827
 30
0
 10
0.3780590551181102
 20
2.401192913385827
 30
0
 10
0.3780590551181102
 20
2.401192913385827
 30
0
 10
0.4252047244094488
 20
2.394956692913386
 30
0
 10
0.5077913385826772
 20
2.384196850393701
 30
0
 10
0.5077913385826772
 20
2.384196850393701
 30
0
 10
0.5904173228346457
 20
2.374736220472441
 30
0
 10
0.7083425196850394
 20
2.358673228346457
 30
0
 10
0.8501811023622047
 20
2.343956692913386
 30
0
 10
0.8501811023622047
 20
2.343956692913386
 30
0
 10
0.9920393700787402
 20
2.329622047244094
 30
0
 10
1.157303149606299
 20
2.309968503937008
 30
0
 10
1.334814960629921
 20
2.294023622047244
 30
0
 10
1.334814960629921
 20
2.294023622047244
 30
0
 10
1.512307086614173
 20
2.27794094488189
 30
0
 10
1.701696850393701
 20
2.260771653543307
 30
0
 10
1.891
 20
2.243653543307087
 30
0
 10
1.891
 20
2.243653543307087
 30
0
 10
2.080614173228347
 20
2.229374015748031
 30
0
 10
2.270181102362205
 20
2.21509842519685
 30
0
 10
2.447866141732284
 20
2.201677165354331
 30
0
 10
2.447866141732284
 20
2.201677165354331
 30
0
 10
2.625570866141732
 20
2.188027559055118
 30
0
 10
2.791885826771654
 20
2.180354330708661
 30
0
 10
2.934161417322835
 20
2.171208661417323
 30
0
 10
2.934161417322835
 20
2.171208661417323
 30
0
 10
3.076492125984252
 20
2.162311023622047
 30
0
 10
3.195417322834646
 20
2.158842519685039
 30
0
 10
3.278551181102362
 20
2.154531496062992
 30
0
 10
3.278551181102362
 20
2.154531496062992
 30
0
 10
3.361732283464567
 20
2.151677165354331
 30
0
 10
3.409263779527559
 20
2.14994094488189
 30
0
 10
3.409263779527559
 20
2.14994094488189
 30
0
 10
3.409263779527559
 20
2.14994094488189
 30
0
 10
3.409263779527559
 20
2.14994094488189
 30
0
 10
3.362102362204725
 20
2.156196850393701
 30
0
 10
3.279531496062992
 20
2.167003937007874
 30
0
 10
3.279531496062992
 20
2.167003937007874
 30
0
 10
3.196838582677165
 20
2.176464566929134
 30
0
 10
3.07898031496063
 20
2.192602362204724
 30
0
 10
2.937122047244094
 20
2.207177165354331
 30
0
  0
SPLINE
  5
60
100
AcDbEntity
  8
Layer 1
  6
ByLayer
 62
  256
370
    0
100
AcDbSpline
210
0
220
0
230
0
 70
 4096
 71
    3
 72
   68
 73
   64
 74
    0
 42
1e-07
 43
1e-07
 40
0
 40
0
 40
0
 40
0
 40
0.05882352900000001
 40
0.05882352900000001
 40
0.05882352900000001
 40
0.05882352900000001
 40
0.117647059
 40
0.117647059
 40
0.117647059
 40
0.117647059
 40
0.176470588
 40
0.176470588
 40
0.176470588
 40
0.176470588
 40
0.235294118
 40
0.235294118
 40
0.235294118
 40
0.235294118
 40
0.294117647
 40
0.294117647
 40
0.294117647
 40
0.294117647
 40
0.352941176
 40
0.352941176
 40
0.352941176
 40
0.352941176
 40
0.411764706
 40
0.411764706
 40
0.411764706
 40
0.411764706
 40
0.470588235
 40
0.470588235
 40
0.470588235
 40
0.470588235
 40
0.529411765
 40
0.529411765
 40
0.529411765
 40
0.529411765
 40
0.5882352940000001
 40
0.5882352940000001
 40
0.5882352940000001
 40
0.5882352940000001
 40
0.647058824
 40
0.647058824
 40
0.647058824
 40
0.647058824
 40
0.705882353
 40
0.705882353
 40
0.705882353
 40
0.705882353
 40
0.764705882
 40
0.764705882
 40
0.764705882
 40
0.764705882
 40
0.8235294120000001
 40
0.8235294120000001
 40
0.8235294120000001
 40
0.8235294120000001
 40
0.8823529410000001
 40
0.8823529410000001
 40
0.8823529410000001
 40
0.8823529410000001
 40
1
 40
1
 40
1
 40
1
 10
2.795720472440945
 20
1.953893700787402
 30
0
 10
2.706283464566929
 20
1.964476377952756
 30
0
 10
2.602196850393701
 20
1.979858267716536
 30
0
 10
2.490279527559055
 20
1.990913385826772
 30
0
 10
2.490279527559055
 20
1.990913385826772
 30
0
 10
2.378275590551181
 20
2.002232283464567
 30
0
 10
2.258811023622047
 20
2.014354330708661
 30
0
 10
2.139393700787402
 20
2.026389763779528
 30
0
 10
2.139393700787402
 20
2.026389763779528
 30
0
 10
2.019681102362205
 20
2.035677165354331
 30
0
 10
1.90001968503937
 20
2.044822834645669
 30
0
 10
1.787791338582677
 20
2.053476377952756
 30
0
 10
1.787791338582677
 20
2.053476377952756
 30
0
 10
1.675661417322835
 20
2.062255905511811
 30
0
 10
1.570543307086614
 20
2.065704724409449
 30
0
 10
1.480614173228346
 20
2.071015748031496
 30
0
 10
1.480614173228346
 20
2.071015748031496
 30
0
 10
1.390685039370079
 20
2.076094488188976
 30
0
 10
1.31540157480315
 20
2.076515748031496
 30
0
 10
1.262862204724409
 20
2.078566929133858
 30
0
 10
1.262862204724409
 20
2.078566929133858
 30
0
 10
1.210212598425197
 20
2.079299212598425
 30
0
 10
1.180114173228346
 20
2.079740157480315
 30
0
 10
1.180114173228346
 20
2.079740157480315
 30
0
 10
1.180114173228346
 20
2.079740157480315
 30
0
 10
1.180114173228346
 20
2.079740157480315
 30
0
 10
1.209846456692913
 20
2.074799212598425
 30
0
 10
1.261755905511811
 20
2.066196850393701
 30
0
 10
1.261755905511811
 20
2.066196850393701
 30
0
 10
1.313791338582677
 20
2.058976377952756
 30
0
 10
1.388023622047244
 20
2.046047244094488
 30
0
 10
1.477389763779527
 20
2.035169291338583
 30
0
 10
1.477389763779527
 20
2.035169291338583
 30
0
 10
1.566830708661417
 20
2.024551181102362
 30
0
 10
1.670913385826772
 20
2.009342519685039
 30
0
 10
1.78290157480315
 20
1.998149606299213
 30
0
 10
1.78290157480315
 20
1.998149606299213
 30
0
 10
1.894889763779528
 20
1.986779527559055
 30
0
 10
2.014251968503937
 20
1.974673228346457
 30
0
 10
2.133716535433071
 20
1.962547244094488
 30
0
 10
2.133716535433071
 20
1.962547244094488
 30
0
 10
2.253429133858268
 20
1.953350393700787
 30
0
 10
2.373090551181102
 20
1.944133858267717
 30
0
 10
2.485322834645669
 20
1.93548031496063
 30
0
 10
2.485322834645669
 20
1.93548031496063
 30
0
 10
2.597448818897638
 20
1.926527559055118
 30
0
 10
2.702566929133858
 20
1.923303149606299
 30
0
 10
2.792496062992126
 20
1.917925196850394
 30
0
 10
2.792496062992126
 20
1.917925196850394
 30
0
 10
2.882425196850394
 20
1.912740157480315
 30
0
 10
2.957708661417323
 20
1.912425196850394
 30
0
 10
3.010251968503937
 20
1.910393700787402
 30
0
 10
3.010251968503937
 20
1.910393700787402
 30
0
 10
3.062897637795276
 20
1.909637795275591
 30
0
 10
3.092996062992126
 20
1.909271653543307
 30
0
 10
3.092996062992126
 20
1.909271653543307
 30
0
 10
3.092996062992126
 20
1.909271653543307
 30
0
 10
3.092996062992126
 20
1.909271653543307
 30
0
 10
3.063283464566929
 20
1.914228346456693
 30
0
 10
3.011354330708661
 20
1.922814960629921
 30
0
 10
3.011354330708661
 20
1.922814960629921
 30
0
 10
2.959251968503937
 20
1.930051181102362
 30
0
 10
2.885090551181102
 20
1.943082677165354
 30
0
 10
2.795720472440945
 20
1.953893700787402
 30
0
  0
SPLINE
  5
61
100
AcDbEntity
  8
Layer 1
  6
ByLayer
 62
  256
370
    0
100
AcDbSpline
210
0
220
0
230
0
 70
 4096
 71
    3
 72
   68
 73
   64
 74
    0
 42
1e-07
 43
1e-07
 40
0
 40
0
 40
0
 40
0
 40
0.05882352900000001
 40
0.05882352900000001
 40
0.05882352900000001
 40
0.05882352900000001
 40
0.117647059
 40
0.117647059
 40
0.117647059
 40
0.117647059
 40
0.176470588
 40
0.176470588
 40
0.176470588
 40
0.176470588
 40
0.235294118
 40
0.235294118
 40
0.235294118
 40
0.235294118
 40
0.294117647
 40
0.294117647
 40
0.294117647
 40
0.294117647
 40
0.352941176
 40
0.352941176
 40
0.352941176
 40
0.352941176
 40
0.411764706
 40
0.411764706
 40
0.411764706
 40
0.411764706
 40
0.470588235
 40
0.470588235
 40
0.470588235
 40
0.470588235
 40
0.529411765
 40
0.529411765
 40
0.529411765
 40
0.529411765
 40
0.5882352940000001
 40
0.5882352940000001
 40
0.5882352940000001
 40
0.5882352940000001
 40
0.647058824
 40
0.647058824
 40
0.647058824
 40
0.647058824
 40
0.705882353
 40
0.705882353
 40
0.705882353
 40
0.705882353
 40
0.764705882
 40
0.764705882
 40
0.764705882
 40
0.764705882
 40
0.8235294120000001
 40
0.8235294120000001
 40
0.8235294120000001
 40
0.8235294120000001
 40
0.8823529410000001
 40
0.8823529410000001
 40
0.8823529410000001
 40
0.8823529410000001
 40
1
 40
1
 40
1
 40
1
 10
1.165838582677165
 20
2.890448818897638
 30
0
 10
1.075909448818898
 20
2.894901574803149
 30
0
 10
1.000625984251968
 20
2.894779527559055
 30
0
 10
0.9480314960629921
 20
2.896496062992126
 30
0
 10
0.9480314960629921
 20
2.896496062992126
 30
0
 10
0.8953661417322835
 20
2.89688188976378
 30
0
 10
0.8653385826771653
 20
2.897055118110236
 30
0
 10
0.8653385826771653
 20
2.897055118110236
 30
0
 10
0.8653385826771653
 20
2.897055118110236
 30
0
 10
0.8653385826771653
 20
2.897055118110236
 30
0
 10
0.895
 20
2.892358267716535
 30
0
 10
0.9470314960629921
 20
2.884074803149606
 30
0
 10
0.9470314960629921
 20
2.884074803149606
 30
0
 10
0.9992047244094489
 20
2.877224409448819
 30
0
 10
1.073437007874016
 20
2.864854330708662
 30
0
 10
1.162929133858268
 20
2.854606299212598
 30
0
 10
1.162929133858268
 20
2.854606299212598
 30
0
 10
1.252366141732284
 20
2.844582677165354
 30
0
 10
1.356625984251969
 20
2.83005905511811
 30
0
 10
1.468614173228346
 20
2.81961811023622
 30
0
 10
1.468614173228346
 20
2.81961811023622
 30
0
 10
1.580669291338583
 20
2.809055118110236
 30
0
 10
1.700137795275591
 20
2.797807086614173
 30
0
 10
1.819677165354331
 20
2.786488188976378
 30
0
 10
1.819677165354331
 20
2.786488188976378
 30
0
 10
1.939456692913386
 20
2.778149606299213
 30
0
 10
2.059173228346457
 20
2.769740157480315
 30
0
 10
2.17142125984252
 20
2.761889763779528
 30
0
 10
2.17142125984252
 20
2.761889763779528
 30
0
 10
2.283724409448819
 20
2.753724409448819
 30
0
 10
2.388842519685039
 20
2.751204724409449
 30
0
 10
2.478771653543307
 20
2.746437007874016
 30
0
 10
2.478771653543307
 20
2.746437007874016
 30
0
 10
2.568700787401575
 20
2.741933070866142
 30
0
 10
2.644051181102362
 20
2.742110236220472
 30
0
 10
2.69657874015748
 20
2.740374015748031
 30
0
 10
2.69657874015748
 20
2.740374015748031
 30
0
 10
2.749240157480315
 20
2.74007874015748
 30
0
 10
2.779271653543307
 20
2.739885826771653
 30
0
 10
2.779271653543307
 20
2.739885826771653
 30
0
 10
2.779271653543307
 20
2.739885826771653
 30
0
 10
2.779271653543307
 20
2.739885826771653
 30
0
 10
2.749610236220473
 20
2.74457874015748
 30
0
 10
2.697574803149606
 20
2.752866141732283
 30
0
 10
2.697574803149606
 20
2.752866141732283
 30
0
 10
2.645472440944882
 20
2.759736220472441
 30
0
 10
2.571240157480315
 20
2.772208661417323
 30
0
 10
2.481748031496063
 20
2.782405511811024
 30
0
 10
2.481748031496063
 20
2.782405511811024
 30
0
 10
2.392240157480315
 20
2.792425196850394
 30
0
 10
2.288051181102362
 20
2.807074803149606
 30
0
 10
2.175992125984252
 20
2.817322834645669
 30
0
 10
2.175992125984252
 20
2.817322834645669
 30
0
 10
2.063937007874016
 20
2.827905511811024
 30
0
 10
1.944468503937008
 20
2.839153543307086
 30
0
 10
1.824933070866142
 20
2.85040157480315
 30
0
 10
1.824933070866142
 20
2.85040157480315
 30
0
 10
1.705149606299213
 20
2.858740157480315
 30
0
 10
1.585437007874016
 20
2.867149606299213
 30
0
 10
1.473185039370079
 20
2.874996062992126
 30
0
 10
1.473185039370079
 20
2.874996062992126
 30
0
 10
1.360956692913386
 20
2.882968503937008
 30
0
 10
1.255767716535433
 20
2.885685039370079
 30
0
 10
1.165838582677165
 20
2.890448818897638
 30
0
  0
SPLINE
  5
62
100
AcDbEntity
  8
Layer 1
  6
ByLayer
 62
  256
370
    0
100
AcDbSpline
210
0
220
0
230
0
 70
 4096
 71
    3
 72
   68
 73
   64
 74
    0
 42
1e-07
 43
1e-07
 40
0
 40
0
 40
0
 40
0
 40
0.05882352900000001
 40
0.05882352900000001
 40
0.05882352900000001
 40
0.05882352900000001
 40
0.117647059
 40
0.117647059
 40
0.117647059
 40
0.117647059
 40
0.176470588
 40
0.176470588
 40
0.176470588
 40
0.176470588
 40
0.235294118
 40
0.235294118
 40
0.235294118
 40
0.235294118
 40
0.294117647
 40
0.294117647
 40
0.294117647
 40
0.294117647
 40
0.352941176
 40
0.352941176
 40
0.352941176
 40
0.352941176
 40
0.411764706
 40
0.411764706
 40
0.411764706
 40
0.411764706
 40
0.470588235
 40
0.470588235
 40
0.470588235
 40
0.470588235
 40
0.529411765
 40
0.529411765
 40
0.529411765
 40
0.529411765
 40
0.5882352940000001
 40
0.5882352940000001
 40
0.5882352940000001
 40
0.5882352940000001
 40
0.647058824
 40
0.647058824
 40
0.647058824
 40
0.647058824
 40
0.705882353
 40
0.705882353
 40
0.705882353
 40
0.705882353
 40
0.764705882
 40
0.764705882
 40
0.764705882
 40
0.764705882
 40
0.8235294120000001
 40
0.8235294120000001
 40
0.8235294120000001
 40
0.8235294120000001
 40
0.8823529410000001
 40
0.8823529410000001
 40
0.8823529410000001
 40
0.8823529410000001
 40
1
 40
1
 40
1
 40
1
 10
1.115712598425197
 20
-2.224370078740157
 30
0
 10
1.183007874015748
 20
-2.226716535433071
 30
0
 10
1.261562992125984
 20
-2.232094488188976
 30
0
 10
1.345696850393701
 20
-2.233196850393701
 30
0
 10
1.345696850393701
 20
-2.233196850393701
 30
0
 10
1.429807086614173
 20
-2.234389763779527
 30
0
 10
1.519614173228346
 20
-2.235685039370079
 30
0
 10
1.609350393700787
 20
-2.237035433070866
 30
0
 10
1.609350393700787
 20
-2.237035433070866
 30
0
 10
1.699035433070866
 20
-2.235740157480315
 30
0
 10
1.788771653543307
 20
-2.23444094488189
 30
0
 10
1.87290157480315
 20
-2.233196850393701
 30
0
 10
1.87290157480315
 20
-2.233196850393701
 30
0
 10
1.957066929133858
 20
-2.232287401574803
 30
0
 10
2.035570866141732
 20
-2.226787401574803
 30
0
 10
2.102937007874016
 20
-2.224437007874016
 30
0
 10
2.102937007874016
 20
-2.224437007874016
 30
0
 10
2.170248031496063
 20
-2.221826771653543
 30
0
 10
2.226291338582677
 20
-2.216149606299213
 30
0
 10
2.265555118110236
 20
-2.213732283464567
 30
0
 10
2.265555118110236
 20
-2.213732283464567
 30
0
 10
2.304850393700788
 20
-2.210212598425197
 30
0
 10
2.327295275590551
 20
-2.208181102362205
 30
0
 10
2.327295275590551
 20
-2.208181102362205
 30
0
 10
2.327295275590551
 20
-2.208181102362205
 30
0
 10
2.327295275590551
 20
-2.208181102362205
 30
0
 10
2.304850393700788
 20
-2.20607874015748
 30
0
 10
2.265555118110236
 20
-2.202484251968504
 30
0
 10
2.265555118110236
 20
-2.202484251968504
 30
0
 10
2.226291338582677
 20
-2.200208661417323
 30
0
 10
2.170248031496063
 20
-2.19446062992126
 30
0
 10
2.102937007874016
 20
-2.191850393700788
 30
0
 10
2.102937007874016
 20
-2.191850393700788
 30
0
 10
2.035570866141732
 20
-2.189503937007874
 30
0
 10
1.957066929133858
 20
-2.184003937007874
 30
0
 10
1.87290157480315
 20
-2.183074803149606
 30
0
 10
1.87290157480315
 20
-2.183074803149606
 30
0
 10
1.788771653543307
 20
-2.181846456692913
 30
0
 10
1.699035433070866
 20
-2.180551181102362
 30
0
 10
1.609350393700787
 20
-2.179255905511811
 30
0
 10
1.609350393700787
 20
-2.179255905511811
 30
0
 10
1.519614173228346
 20
-2.180551181102362
 30
0
 10
1.429807086614173
 20
-2.181901574803149
 30
0
 10
1.345696850393701
 20
-2.183074803149606
 30
0
 10
1.345696850393701
 20
-2.183074803149606
 30
0
 10
1.261562992125984
 20
-2.184248031496063
 30
0
 10
1.183007874015748
 20
-2.189574803149606
 30
0
 10
1.115712598425197
 20
-2.191972440944882
 30
0
 10
1.115712598425197
 20
-2.191972440944882
 30
0
 10
1.048472440944882
 20
-2.194582677165354
 30
0
 10
0.9922874015748031
 20
-2.200208661417323
 30
0
 10
0.9530944881889764
 20
-2.202555118110236
 30
0
 10
0.9530944881889764
 20
-2.202555118110236
 30
0
 10
0.9137795275590551
 20
-2.206129921259842
 30
0
 10
0.8913543307086614
 20
-2.208181102362205
 30
0
 10
0.8913543307086614
 20
-2.208181102362205
 30
0
 10
0.8913543307086614
 20
-2.208181102362205
 30
0
 10
0.8913543307086614
 20
-2.208181102362205
 30
0
 10
0.9137795275590551
 20
-2.210161417322835
 30
0
 10
0.9530944881889764
 20
-2.213732283464567
 30
0
 10
0.9530944881889764
 20
-2.213732283464567
 30
0
 10
0.9922874015748031
 20
-2.216082677165354
 30
0
 10
1.048472440944882
 20
-2.221704724409449
 30
0
 10
1.115712598425197
 20
-2.224370078740157
 30
0
  0
SPLINE
  5
63
100
AcDbEntity
  8
Layer 1
  6
ByLayer
 62
  256
370
    0
100
AcDbSpline
210
0
220
0
230
0
 70
 4096
 71
    3
 72
   68
 73
   64
 74
    0
 42
1e-07
 43
1e-07
 40
0
 40
0
 40
0
 40
0
 40
0.05882352900000001
 40
0.05882352900000001
 40
0.05882352900000001
 40
0.05882352900000001
 40
0.117647059
 40
0.117647059
 40
0.117647059
 40
0.117647059
 40
0.176470588
 40
0.176470588
 40
0.176470588
 40
0.176470588
 40
0.235294118
 40
0.235294118
 40
0.235294118
 40
0.235294118
 40
0.294117647
 40
0.294117647
 40
0.294117647
 40
0.294117647
 40
0.352941176
 40
0.352941176
 40
0.352941176
 40
0.352941176
 40
0.411764706
 40
0.411764706
 40
0.411764706
 40
0.411764706
 40
0.470588235
 40
0.470588235
 40
0.470588235
 40
0.470588235
 40
0.529411765
 40
0.529411765
 40
0.529411765
 40
0.529411765
 40
0.5882352940000001
 40
0.5882352940000001
 40
0.5882352940000001
 40
0.5882352940000001
 40
0.647058824
 40
0.647058824
 40
0.647058824
 40
0.647058824
 40
0.705882353
 40
0.705882353
 40
0.705882353
 40
0.705882353
 40
0.764705882
 40
0.764705882
 40
0.764705882
 40
0.764705882
 40
0.8235294120000001
 40
0.8235294120000001
 40
0.8235294120000001
 40
0.8235294120000001
 40
0.8823529410000001
 40
0.8823529410000001
 40
0.8823529410000001
 40
0.8823529410000001
 40
1
 40
1
 40
1
 40
1
 10
1.115712598425197
 20
-2.371535433070866
 30
0
 10
1.183007874015748
 20
-2.373933070866142
 30
0
 10
1.261562992125984
 20
-2.379259842519685
 30
0
 10
1.345696850393701
 20
-2.380366141732284
 30
0
 10
1.345696850393701
 20
-2.380366141732284
 30
0
 10
1.429807086614173
 20
-2.381610236220472
 30
0
 10
1.519614173228346
 20
-2.382905511811024
 30
0
 10
1.609350393700787
 20
-2.384200787401575
 30
0
 10
1.609350393700787
 20
-2.384200787401575
 30
0
 10
1.699035433070866
 20
-2.382905511811024
 30
0
 10
1.788771653543307
 20
-2.381661417322835
 30
0
 10
1.87290157480315
 20
-2.380433070866142
 30
0
 10
1.87290157480315
 20
-2.380433070866142
 30
0
 10
1.957066929133858
 20
-2.379507874015748
 30
0
 10
2.035570866141732
 20
-2.374003937007874
 30
0
 10
2.102937007874016
 20
-2.371586614173228
 30
0
 10
2.102937007874016
 20
-2.371586614173228
 30
0
 10
2.170248031496063
 20
-2.369062992125984
 30
0
 10
2.226291338582677
 20
-2.363299212598425
 30
0
 10
2.265555118110236
 20
-2.360952755905512
 30
0
 10
2.265555118110236
 20
-2.360952755905512
 30
0
 10
2.304850393700788
 20
-2.357377952755905
 30
0
 10
2.327295275590551
 20
-2.355330708661417
 30
0
 10
2.327295275590551
 20
-2.355330708661417
 30
0
 10
2.327295275590551
 20
-2.355330708661417
 30
0
 10
2.327295275590551
 20
-2.355330708661417
 30
0
 10
2.304850393700788
 20
-2.353295275590551
 30
0
 10
2.265555118110236
 20
-2.349704724409449
 30
0
 10
2.265555118110236
 20
-2.349704724409449
 30
0
 10
2.226291338582677
 20
-2.347358267716535
 30
0
 10
2.170248031496063
 20
-2.341681102362205
 30
0
 10
2.102937007874016
 20
-2.339086614173228
 30
0
 10
2.102937007874016
 20
-2.339086614173228
 30
0
 10
2.035570866141732
 20
-2.336740157480315
 30
0
 10
1.957066929133858
 20
-2.331240157480315
 30
0
 10
1.87290157480315
 20
-2.330240157480315
 30
0
 10
1.87290157480315
 20
-2.330240157480315
 30
0
 10
1.788771653543307
 20
-2.329015748031496
 30
0
 10
1.699035433070866
 20
-2.327700787401575
 30
0
 10
1.609350393700787
 20
-2.326472440944882
 30
0
 10
1.609350393700787
 20
-2.326472440944882
 30
0
 10
1.519614173228346
 20
-2.327771653543307
 30
0
 10
1.429807086614173
 20
-2.329066929133858
 30
0
 10
1.345696850393701
 20
-2.330311023622047
 30
0
 10
1.345696850393701
 20
-2.330311023622047
 30
0
 10
1.261562992125984
 20
-2.331413385826772
 30
0
 10
1.183007874015748
 20
-2.336740157480315
 30
0
 10
1.115712598425197
 20
-2.339141732283465
 30
0
 10
1.115712598425197
 20
-2.339141732283465
 30
0
 10
1.048472440944882
 20
-2.341732283464567
 30
0
 10
0.9922874015748031
 20
-2.347429133858268
 30
0
 10
0.9530944881889764
 20
-2.349775590551181
 30
0
 10
0.9530944881889764
 20
-2.349775590551181
 30
0
 10
0.9137795275590551
 20
-2.353295275590551
 30
0
 10
0.8913543307086614
 20
-2.355330708661417
 30
0
 10
0.8913543307086614
 20
-2.355330708661417
 30
0
 10
0.8913543307086614
 20
-2.355330708661417
 30
0
 10
0.8913543307086614
 20
-2.355330708661417
 30
0
 10
0.9137795275590551
 20
-2.357377952755905
 30
0
 10
0.9530944881889764
 20
-2.360952755905512
 30
0
 10
0.9530944881889764
 20
-2.360952755905512
 30
0
 10
0.9922874015748031
 20
-2.363248031496063
 30
0
 10
1.048472440944882
 20
-2.368925196850394
 30
0
 10
1.115712598425197
 20
-2.371535433070866
 30
0
  0
SPLINE
  5
64
100
AcDbEntity
  8
Layer 1
  6
ByLayer
 62
  256
370
    0
100
AcDbSpline
210
0
220
0
230
0
 70
 4096
 71
    3
 72
   68
 73
   64
 74
    0
 42
1e-07
 43
1e-07
 40
0
 40
0
 40
0
 40
0
 40
0.05882352900000001
 40
0.05882352900000001
 40
0.05882352900000001
 40
0.05882352900000001
 40
0.117647059
 40
0.117647059
 40
0.117647059
 40
0.117647059
 40
0.176470588
 40
0.176470588
 40
0.176470588
 40
0.176470588
 40
0.235294118
 40
0.235294118
 40
0.235294118
 40
0.235294118
 40
0.294117647
 40
0.294117647
 40
0.294117647
 40
0.294117647
 40
0.352941176
 40
0.352941176
 40
0.352941176
 40
0.352941176
 40
0.411764706
 40
0.411764706
 40
0.411764706
 40
0.411764706
 40
0.470588235
 40
0.470588235
 40
0.470588235
 40
0.470588235
 40
0.529411765
 40
0.529411765
 40
0.529411765
 40
0.529411765
 40
0.5882352940000001
 40
0.5882352940000001
 40
0.5882352940000001
 40
0.5882352940000001
 40
0.647058824
 40
0.647058824
 40
0.647058824
 40
0.647058824
 40
0.705882353
 40
0.705882353
 40
0.705882353
 40
0.705882353
 40
0.764705882
 40
0.764705882
 40
0.764705882
 40
0.764705882
 40
0.8235294120000001
 40
0.8235294120000001
 40
0.8235294120000001
 40
0.8235294120000001
 40
0.8823529410000001
 40
0.8823529410000001
 40
0.8823529410000001
 40
0.8823529410000001
 40
1
 40
1
 40
1
 40
1
 10
1.115712598425197
 20
-2.518751968503937
 30
0
 10
1.183007874015748
 20
-2.521102362204724
 30
0
 10
1.261562992125984
 20
-2.52648031496063
 30
0
 10
1.345696850393701
 20
-2.527582677165354
 30
0
 10
1.345696850393701
 20
-2.527582677165354
 30
0
 10
1.429807086614173
 20
-2.528826771653543
 30
0
 10
1.519614173228346
 20
-2.530122047244094
 30
0
 10
1.609350393700787
 20
-2.53142125984252
 30
0
 10
1.609350393700787
 20
-2.53142125984252
 30
0
 10
1.699035433070866
 20
-2.530122047244094
 30
0
 10
1.788771653543307
 20
-2.528826771653543
 30
0
 10
1.87290157480315
 20
-2.527582677165354
 30
0
 10
1.87290157480315
 20
-2.527582677165354
 30
0
 10
1.957066929133858
 20
-2.526653543307086
 30
0
 10
2.035570866141732
 20
-2.521153543307086
 30
0
 10
2.102937007874016
 20
-2.518807086614173
 30
0
 10
2.102937007874016
 20
-2.518807086614173
 30
0
 10
2.170248031496063
 20
-2.516212598425197
 30
0
 10
2.226291338582677
 20
-2.510468503937008
 30
0
 10
2.265555118110236
 20
-2.508188976377953
 30
0
 10
2.265555118110236
 20
-2.508188976377953
 30
0
 10
2.304850393700788
 20
-2.50459842519685
 30
0
 10
2.327295275590551
 20
-2.502566929133858
 30
0
 10
2.327295275590551
 20
-2.502566929133858
 30
0
 10
2.327295275590551
 20
-2.502566929133858
 30
0
 10
2.327295275590551
 20
-2.502566929133858
 30
0
 10
2.304850393700788
 20
-2.500515748031496
 30
0
 10
2.265555118110236
 20
-2.49694094488189
 30
0
 10
2.265555118110236
 20
-2.49694094488189
 30
0
 10
2.226291338582677
 20
-2.494574803149606
 30
0
 10
2.170248031496063
 20
-2.488830708661417
 30
0
 10
2.102937007874016
 20
-2.486307086614173
 30
0
 10
2.102937007874016
 20
-2.486307086614173
 30
0
 10
2.035570866141732
 20
-2.483889763779528
 30
0
 10
1.957066929133858
 20
-2.478456692913386
 30
0
 10
1.87290157480315
 20
-2.47746062992126
 30
0
 10
1.87290157480315
 20
-2.47746062992126
 30
0
 10
1.788771653543307
 20
-2.476232283464567
 30
0
 10
1.699035433070866
 20
-2.474937007874016
 30
0
 10
1.609350393700787
 20
-2.473641732283465
 30
0
 10
1.609350393700787
 20
-2.473641732283465
 30
0
 10
1.519614173228346
 20
-2.474937007874016
 30
0
 10
1.429807086614173
 20
-2.476287401574803
 30
0
 10
1.345696850393701
 20
-2.47746062992126
 30
0
 10
1.345696850393701
 20
-2.47746062992126
 30
0
 10
1.261562992125984
 20
-2.47857874015748
 30
0
 10
1.183007874015748
 20
-2.48396062992126
 30
0
 10
1.115712598425197
 20
-2.486307086614173
 30
0
 10
1.115712598425197
 20
-2.486307086614173
 30
0
 10
1.048472440944882
 20
-2.488952755905512
 30
0
 10
0.9922874015748031
 20
-2.494574803149606
 30
0
 10
0.9530944881889764
 20
-2.49694094488189
 30
0
 10
0.9530944881889764
 20
-2.49694094488189
 30
0
 10
0.9137795275590551
 20
-2.500515748031496
 30
0
 10
0.8913543307086614
 20
-2.502566929133858
 30
0
 10
0.8913543307086614
 20
-2.502566929133858
 30
0
 10
0.8913543307086614
 20
-2.502566929133858
 30
0
 10
0.8913543307086614
 20
-2.502566929133858
 30
0
 10
0.9137795275590551
 20
-2.504527559055118
 30
0
 10
0.9530944881889764
 20
-2.508118110236221
 30
0
 10
0.9530944881889764
 20
-2.508118110236221
 30
0
 10
0.9922874015748031
 20
-2.510468503937008
 30
0
 10
1.048472440944882
 20
-2.516090551181102
 30
0
 10
1.115712598425197
 20
-2.518751968503937
 30
0
  0
SPLINE
  5
65
100
AcDbEntity
  8
Layer 1
  6
ByLayer
 62
  256
370
    0
100
AcDbSpline
210
0
220
0
230
0
 70
 4096
 71
    3
 72
   68
 73
   64
 74
    0
 42
1e-07
 43
1e-07
 40
0
 40
0
 40
0
 40
0
 40
0.05882352900000001
 40
0.05882352900000001
 40
0.05882352900000001
 40
0.05882352900000001
 40
0.117647059
 40
0.117647059
 40
0.117647059
 40
0.117647059
 40
0.176470588
 40
0.176470588
 40
0.176470588
 40
0.176470588
 40
0.235294118
 40
0.235294118
 40
0.235294118
 40
0.235294118
 40
0.294117647
 40
0.294117647
 40
0.294117647
 40
0.294117647
 40
0.352941176
 40
0.352941176
 40
0.352941176
 40
0.352941176
 40
0.411764706
 40
0.411764706
 40
0.411764706
 40
0.411764706
 40
0.470588235
 40
0.470588235
 40
0.470588235
 40
0.470588235
 40
0.529411765
 40
0.529411765
 40
0.529411765
 40
0.529411765
 40
0.5882352940000001
 40
0.5882352940000001
 40
0.5882352940000001
 40
0.5882352940000001
 40
0.647058824
 40
0.647058824
 40
0.647058824
 40
0.647058824
 40
0.705882353
 40
0.705882353
 40
0.705882353
 40
0.705882353
 40
0.764705882
 40
0.764705882
 40
0.764705882
 40
0.764705882
 40
0.8235294120000001
 40
0.8235294120000001
 40
0.8235294120000001
 40
0.8235294120000001
 40
0.8823529410000001
 40
0.8823529410000001
 40
0.8823529410000001
 40
0.8823529410000001
 40
1
 40
1
 40
1
 40
1
 10
1.115712598425197
 20
-2.66590157480315
 30
0
 10
1.183007874015748
 20
-2.668318897637795
 30
0
 10
1.261562992125984
 20
-2.673629921259843
 30
0
 10
1.345696850393701
 20
-2.674748031496063
 30
0
 10
1.345696850393701
 20
-2.674748031496063
 30
0
 10
1.429807086614173
 20
-2.676047244094488
 30
0
 10
1.519614173228346
 20
-2.677291338582677
 30
0
 10
1.609350393700787
 20
-2.678586614173228
 30
0
 10
1.609350393700787
 20
-2.678586614173228
 30
0
 10
1.699035433070866
 20
-2.677291338582677
 30
0
 10
1.788771653543307
 20
-2.676047244094488
 30
0
 10
1.87290157480315
 20
-2.674803149606299
 30
0
 10
1.87290157480315
 20
-2.674803149606299
 30
0
 10
1.957066929133858
 20
-2.673822834645669
 30
0
 10
2.035570866141732
 20
-2.668389763779528
 30
0
 10
2.102937007874016
 20
-2.665972440944882
 30
0
 10
2.102937007874016
 20
-2.665972440944882
 30
0
 10
2.170248031496063
 20
-2.663433070866142
 30
0
 10
2.226291338582677
 20
-2.657685039370079
 30
0
 10
2.265555118110236
 20
-2.655409448818898
 30
0
 10
2.265555118110236
 20
-2.655409448818898
 30
0
 10
2.304850393700788
 20
-2.651763779527559
 30
0
 10
2.327295275590551
 20
-2.649712598425197
 30
0
 10
2.327295275590551
 20
-2.649712598425197
 30
0
 10
2.327295275590551
 20
-2.649712598425197
 30
0
 10
2.327295275590551
 20
-2.649712598425197
 30
0
 10
2.304850393700788
 20
-2.647681102362205
 30
0
 10
2.265555118110236
 20
-2.644090551181102
 30
0
 10
2.265555118110236
 20
-2.644090551181102
 30
0
 10
2.226291338582677
 20
-2.641744094488189
 30
0
 10
2.170248031496063
 20
-2.635996062992126
 30
0
 10
2.102937007874016
 20
-2.633456692913386
 30
0
 10
2.102937007874016
 20
-2.633456692913386
 30
0
 10
2.035570866141732
 20
-2.631106299212599
 30
0
 10
1.957066929133858
 20
-2.625606299212599
 30
0
 10
1.87290157480315
 20
-2.624625984251968
 30
0
 10
1.87290157480315
 20
-2.624625984251968
 30
0
 10
1.788771653543307
 20
-2.623452755905512
 30
0
 10
1.699035433070866
 20
-2.622153543307087
 30
0
 10
1.609350393700787
 20
-2.620858267716535
 30
0
 10
1.609350393700787
 20
-2.620858267716535
 30
0
 10
1.519614173228346
 20
-2.622153543307087
 30
0
 10
1.429807086614173
 20
-2.623452755905512
 30
0
 10
1.345696850393701
 20
-2.624677165354331
 30
0
 10
1.345696850393701
 20
-2.624677165354331
 30
0
 10
1.261562992125984
 20
-2.625799212598425
 30
0
 10
1.183007874015748
 20
-2.631106299212599
 30
0
 10
1.115712598425197
 20
-2.633527559055118
 30
0
 10
1.115712598425197
 20
-2.633527559055118
 30
0
 10
1.048472440944882
 20
-2.63611811023622
 30
0
 10
0.9922874015748031
 20
-2.641811023622047
 30
0
 10
0.9530944881889764
 20
-2.644161417322834
 30
0
 10
0.9530944881889764
 20
-2.644161417322834
 30
0
 10
0.9137795275590551
 20
-2.647681102362205
 30
0
 10
0.8913543307086614
 20
-2.649712598425197
 30
0
 10
0.8913543307086614
 20
-2.649712598425197
 30
0
 10
0.8913543307086614
 20
-2.649712598425197
 30
0
 10
0.8913543307086614
 20
-2.649712598425197
 30
0
 10
0.9137795275590551
 20
-2.651763779527559
 30
0
 10
0.9530944881889764
 20
-2.655338582677165
 30
0
 10
0.9530944881889764
 20
-2.655338582677165
 30
0
 10
0.9922874015748031
 20
-2.657685039370079
 30
0
 10
1.048472440944882
 20
-2.663311023622047
 30
0
 10
1.115712598425197
 20
-2.66590157480315
 30
0
  0
SPLINE
  5
66
100
AcDbEntity
  8
Layer 1
  6
ByLayer
 62
  256
370
    0
100
AcDbSpline
210
0
220
0
230
0
 70
 4096
 71
    3
 72
   68
 73
   64
 74
    0
 42
1e-07
 43
1e-07
 40
0
 40
0
 40
0
 40
0
 40
0.05882352900000001
 40
0.05882352900000001
 40
0.05882352900000001
 40
0.05882352900000001
 40
0.117647059
 40
0.117647059
 40
0.117647059
 40
0.117647059
 40
0.176470588
 40
0.176470588
 40
0.176470588
 40
0.176470588
 40
0.235294118
 40
0.235294118
 40
0.235294118
 40
0.235294118
 40
0.294117647
 40
0.294117647
 40
0.294117647
 40
0.294117647
 40
0.352941176
 40
0.352941176
 40
0.352941176
 40
0.352941176
 40
0.411764706
 40
0.411764706
 40
0.411764706
 40
0.411764706
 40
0.470588235
 40
0.470588235
 40
0.470588235
 40
0.470588235
 40
0.529411765
 40
0.529411765
 40
0.529411765
 40
0.529411765
 40
0.5882352940000001
 40
0.5882352940000001
 40
0.5882352940000001
 40
0.5882352940000001
 40
0.647058824
 40
0.647058824
 40
0.647058824
 40
0.647058824
 40
0.705882353
 40
0.705882353
 40
0.705882353
 40
0.705882353
 40
0.764705882
 40
0.764705882
 40
0.764705882
 40
0.764705882
 40
0.8235294120000001
 40
0.8235294120000001
 40
0.8235294120000001
 40
0.8235294120000001
 40
0.8823529410000001
 40
0.8823529410000001
 40
0.8823529410000001
 40
0.8823529410000001
 40
1
 40
1
 40
1
 40
1
 10
1.115712598425197
 20
-2.81313779527559
 30
0
 10
1.183007874015748
 20
-2.81553937007874
 30
0
 10
1.261562992125984
 20
-2.820866141732283
 30
0
 10
1.345696850393701
 20
-2.821917322834646
 30
0
 10
1.345696850393701
 20
-2.821917322834646
 30
0
 10
1.429807086614173
 20
-2.823212598425197
 30
0
 10
1.519614173228346
 20
-2.824507874015748
 30
0
 10
1.609350393700787
 20
-2.825807086614173
 30
0
 10
1.609350393700787
 20
-2.825807086614173
 30
0
 10
1.699035433070866
 20
-2.824507874015748
 30
0
 10
1.788771653543307
 20
-2.823212598425197
 30
0
 10
1.87290157480315
 20
-2.82203937007874
 30
0
 10
1.87290157480315
 20
-2.82203937007874
 30
0
 10
1.957066929133858
 20
-2.82103937007874
 30
0
 10
2.035570866141732
 20
-2.81553937007874
 30
0
 10
2.102937007874016
 20
-2.813192913385827
 30
0
 10
2.102937007874016
 20
-2.813192913385827
 30
0
 10
2.170248031496063
 20
-2.810669291338583
 30
0
 10
2.226291338582677
 20
-2.804905511811024
 30
0
 10
2.265555118110236
 20
-2.802555118110236
 30
0
 10
2.265555118110236
 20
-2.802555118110236
 30
0
 10
2.304850393700788
 20
-2.798984251968504
 30
0
 10
2.327295275590551
 20
-2.796933070866142
 30
0
 10
2.327295275590551
 20
-2.796933070866142
 30
0
 10
2.327295275590551
 20
-2.796933070866142
 30
0
 10
2.327295275590551
 20
-2.796933070866142
 30
0
 10
2.304850393700788
 20
-2.79490157480315
 30
0
 10
2.265555118110236
 20
-2.791255905511811
 30
0
 10
2.265555118110236
 20
-2.791255905511811
 30
0
 10
2.226291338582677
 20
-2.78896062992126
 30
0
 10
2.170248031496063
 20
-2.783216535433071
 30
0
 10
2.102937007874016
 20
-2.780622047244095
 30
0
 10
2.102937007874016
 20
-2.780622047244095
 30
0
 10
2.035570866141732
 20
-2.778275590551181
 30
0
 10
1.957066929133858
 20
-2.772771653543307
 30
0
 10
1.87290157480315
 20
-2.771846456692913
 30
0
 10
1.87290157480315
 20
-2.771846456692913
 30
0
 10
1.788771653543307
 20
-2.77061811023622
 30
0
 10
1.699035433070866
 20
-2.769374015748031
 30
0
 10
1.609350393700787
 20
-2.76807874015748
 30
0
 10
1.609350393700787
 20
-2.76807874015748
 30
0
 10
1.519614173228346
 20
-2.769374015748031
 30
0
 10
1.429807086614173
 20
-2.77061811023622
 30
0
 10
1.345696850393701
 20
-2.771913385826771
 30
0
 10
1.345696850393701
 20
-2.771913385826771
 30
0
 10
1.261562992125984
 20
-2.77301968503937
 30
0
 10
1.183007874015748
 20
-2.778326771653543
 30
0
 10
1.115712598425197
 20
-2.780692913385827
 30
0
 10
1.115712598425197
 20
-2.780692913385827
 30
0
 10
1.048472440944882
 20
-2.783283464566929
 30
0
 10
0.9922874015748031
 20
-2.789031496062992
 30
0
 10
0.9530944881889764
 20
-2.791307086614173
 30
0
 10
0.9530944881889764
 20
-2.791307086614173
 30
0
 10
0.9137795275590551
 20
-2.79490157480315
 30
0
 10
0.8913543307086614
 20
-2.796933070866142
 30
0
 10
0.8913543307086614
 20
-2.796933070866142
 30
0
 10
0.8913543307086614
 20
-2.796933070866142
 30
0
 10
0.8913543307086614
 20
-2.796933070866142
 30
0
 10
0.9137795275590551
 20
-2.798984251968504
 30
0
 10
0.9530944881889764
 20
-2.802503937007874
 30
0
 10
0.9530944881889764
 20
-2.802503937007874
 30
0
 10
0.9922874015748031
 20
-2.804850393700788
 30
0
 10
1.048472440944882
 20
-2.810527559055118
 30
0
 10
1.115712598425197
 20
-2.81313779527559
 30
0
  0
SPLINE
  5
67
100
AcDbEntity
  8
Layer 1
  6
ByLayer
 62
  256
370
    0
100
AcDbSpline
210
0
220
0
230
0
 70
 4096
 71
    3
 72
   68
 73
   64
 74
    0
 42
1e-07
 43
1e-07
 40
0
 40
0
 40
0
 40
0
 40
0.05882352900000001
 40
0.05882352900000001
 40
0.05882352900000001
 40
0.05882352900000001
 40
0.117647059
 40
0.117647059
 40
0.117647059
 40
0.117647059
 40
0.176470588
 40
0.176470588
 40
0.176470588
 40
0.176470588
 40
0.235294118
 40
0.235294118
 40
0.235294118
 40
0.235294118
 40
0.294117647
 40
0.294117647
 40
0.294117647
 40
0.294117647
 40
0.352941176
 40
0.352941176
 40
0.352941176
 40
0.352941176
 40
0.411764706
 40
0.411764706
 40
0.411764706
 40
0.411764706
 40
0.470588235
 40
0.470588235
 40
0.470588235
 40
0.470588235
 40
0.529411765
 40
0.529411765
 40
0.529411765
 40
0.529411765
 40
0.5882352940000001
 40
0.5882352940000001
 40
0.5882352940000001
 40
0.5882352940000001
 40
0.647058824
 40
0.647058824
 40
0.647058824
 40
0.647058824
 40
0.705882353
 40
0.705882353
 40
0.705882353
 40
0.705882353
 40
0.764705882
 40
0.764705882
 40
0.764705882
 40
0.764705882
 40
0.8235294120000001
 40
0.8235294120000001
 40
0.8235294120000001
 40
0.8235294120000001
 40
0.8823529410000001
 40
0.8823529410000001
 40
0.8823529410000001
 40
0.8823529410000001
 40
1
 40
1
 40
1
 40
1
 10
-0.0196062992125984
 20
2.970236220472441
 30
0
 10
-0.0196062992125984
 20
2.970236220472441
 30
0
 10
-0.0221968503937008
 20
2.958551181102362
 30
0
 10
-0.0267204724409449
 20
2.938279527559055
 30
0
 10
-0.0267204724409449
 20
2.938279527559055
 30
0
 10
-0.0303622047244094
 20
2.917956692913386
 30
0
 10
-0.0372834645669291
 20
2.889031496062992
 30
0
 10
-0.0422952755905512
 20
2.853972440944882
 30
0
 10
-0.0422952755905512
 20
2.853972440944882
 30
0
 10
-0.0471653543307087
 20
2.818933070866142
 30
0
 10
-0.0548385826771654
 20
2.778200787401575
 30
0
 10
-0.0593385826771654
 20
2.734330708661417
 30
0
 10
-0.0593385826771654
 20
2.734330708661417
 30
0
 10
-0.06403543307086609
 20
2.690444881889764
 30
0
 10
-0.068992125984252
 20
2.643594488188977
 30
0
 10
-0.0739330708661417
 20
2.596799212598425
 30
0
 10
-0.0739330708661417
 20
2.596799212598425
 30
0
 10
-0.0767716535433071
 20
2.549779527559055
 30
0
 10
-0.07961023622047241
 20
2.502736220472441
 30
0
 10
-0.0822755905511811
 20
2.458728346456693
 30
0
 10
-0.0822755905511811
 20
2.458728346456693
 30
0
 10
-0.08518110236220471
 20
2.414665354330709
 30
0
 10
-0.0842007874015748
 20
2.373248031496063
 30
0
 10
-0.08518110236220471
 20
2.337893700787402
 30
0
 10
-0.08518110236220471
 20
2.337893700787402
 30
0
 10
-0.0861102362204724
 20
2.302555118110236
 30
0
 10
-0.0839370078740157
 20
2.272877952755906
 30
0
 10
-0.08376377952755901
 20
2.25211811023622
 30
0
 10
-0.08376377952755901
 20
2.25211811023622
 30
0
 10
-0.0825905511811024
 20
2.231354330708661
 30
0
 10
-0.0819763779527559
 20
2.219547244094488
 30
0
 10
-0.0819763779527559
 20
2.219547244094488
 30
0
 10
-0.0819763779527559
 20
2.219547244094488
 30
0
 10
-0.0819763779527559
 20
2.219547244094488
 30
0
 10
-0.0793149606299213
 20
2.231090551181103
 30
0
 10
-0.0746692913385827
 20
2.251433070866142
 30
0
 10
-0.0746692913385827
 20
2.251433070866142
 30
0
 10
-0.0711496062992126
 20
2.271771653543307
 30
0
 10
-0.06403543307086609
 20
2.300751968503937
 30
0
 10
-0.0590944881889764
 20
2.335740157480315
 30
0
 10
-0.0590944881889764
 20
2.335740157480315
 30
0
 10
-0.0542755905511811
 20
2.370779527559055
 30
0
 10
-0.0465
 20
2.41144094488189
 30
0
 10
-0.0420472440944882
 20
2.455397637795276
 30
0
 10
-0.0420472440944882
 20
2.455397637795276
 30
0
 10
-0.0374763779527559
 20
2.499267716535433
 30
0
 10
-0.0325157480314961
 20
2.546133858267717
 30
0
 10
-0.0275787401574803
 20
2.592913385826772
 30
0
 10
-0.0275787401574803
 20
2.592913385826772
 30
0
 10
-0.024740157480315
 20
2.639952755905512
 30
0
 10
-0.0219015748031496
 20
2.686976377952756
 30
0
 10
-0.0192362204724409
 20
2.730984251968504
 30
0
 10
-0.0192362204724409
 20
2.730984251968504
 30
0
 10
-0.0164527559055118
 20
2.775047244094488
 30
0
 10
-0.0173110236220472
 20
2.816464566929134
 30
0
 10
-0.0163307086614173
 20
2.851818897637795
 30
0
 10
-0.0163307086614173
 20
2.851818897637795
 30
0
 10
-0.0154724409448819
 20
2.887173228346457
 30
0
 10
-0.0176259842519685
 20
2.916905511811024
 30
0
 10
-0.017748031496063
 20
2.937543307086614
 30
0
 10
-0.017748031496063
 20
2.937543307086614
 30
0
 10
-0.0189212598425197
 20
2.958303149606299
 30
0
 10
-0.0196062992125984
 20
2.970236220472441
 30
0
 10
-0.0196062992125984
 20
2.970236220472441
 30
0
  0
SPLINE
  5
68
100
AcDbEntity
  8
Layer 1
  6
ByLayer
 62
  256
370
    0
100
AcDbSpline
210
0
220
0
230
0
 70
 4096
 71
    3
 72
   68
 73
   64
 74
    0
 42
1e-07
 43
1e-07
 40
0
 40
0
 40
0
 40
0
 40
0.05882352900000001
 40
0.05882352900000001
 40
0.05882352900000001
 40
0.05882352900000001
 40
0.117647059
 40
0.117647059
 40
0.117647059
 40
0.117647059
 40
0.176470588
 40
0.176470588
 40
0.176470588
 40
0.176470588
 40
0.235294118
 40
0.235294118
 40
0.235294118
 40
0.235294118
 40
0.294117647
 40
0.294117647
 40
0.294117647
 40
0.294117647
 40
0.352941176
 40
0.352941176
 40
0.352941176
 40
0.352941176
 40
0.411764706
 40
0.411764706
 40
0.411764706
 40
0.411764706
 40
0.470588235
 40
0.470588235
 40
0.470588235
 40
0.470588235
 40
0.529411765
 40
0.529411765
 40
0.529411765
 40
0.529411765
 40
0.5882352940000001
 40
0.5882352940000001
 40
0.5882352940000001
 40
0.5882352940000001
 40
0.647058824
 40
0.647058824
 40
0.647058824
 40
0.647058824
 40
0.705882353
 40
0.705882353
 40
0.705882353
 40
0.705882353
 40
0.764705882
 40
0.764705882
 40
0.764705882
 40
0.764705882
 40
0.8235294120000001
 40
0.8235294120000001
 40
0.8235294120000001
 40
0.8235294120000001
 40
0.8823529410000001
 40
0.8823529410000001
 40
0.8823529410000001
 40
0.8823529410000001
 40
1
 40
1
 40
1
 40
1
 10
-1.239035433070866
 20
2.026952755905512
 30
0
 10
-1.235393700787402
 20
2.046925196850394
 30
0
 10
-1.228472440944882
 20
2.075287401574803
 30
0
 10
-1.223145669291338
 20
2.109645669291339
 30
0
 10
-1.223145669291338
 20
2.109645669291339
 30
0
 10
-1.21796062992126
 20
2.143948818897638
 30
0
 10
-1.21005905511811
 20
2.183877952755906
 30
0
 10
-1.204925196850394
 20
2.226956692913386
 30
0
 10
-1.204925196850394
 20
2.226956692913386
 30
0
 10
-1.199669291338583
 20
2.27003937007874
 30
0
 10
-1.194047244094488
 20
2.315956692913386
 30
0
 10
-1.188350393700787
 20
2.361948818897638
 30
0
 10
-1.188350393700787
 20
2.361948818897638
 30
0
 10
-1.184531496062992
 20
2.408043307086614
 30
0
 10
-1.180625984251968
 20
2.454224409448819
 30
0
 10
-1.177051181102362
 20
2.497429133858268
 30
0
 10
-1.177051181102362
 20
2.497429133858268
 30
0
 10
-1.173338582677165
 20
2.540633858267717
 30
0
 10
-1.172846456692913
 20
2.581295275590551
 30
0
 10
-1.170866141732283
 20
2.615968503937008
 30
0
 10
-1.170866141732283
 20
2.615968503937008
 30
0
 10
-1.169133858267716
 20
2.650708661417323
 30
0
 10
-1.170007874015748
 20
2.679877952755906
 30
0
 10
-1.1695
 20
2.700200787401575
 30
0
 10
-1.1695
 20
2.700200787401575
 30
0
 10
-1.169870078740157
 20
2.720594488188977
 30
0
 10
-1.170129921259843
 20
2.732228346456693
 30
0
 10
-1.170129921259843
 20
2.732228346456693
 30
0
 10
-1.170129921259843
 20
2.732228346456693
 30
0
 10
-1.170129921259843
 20
2.732228346456693
 30
0
 10
-1.172653543307087
 20
2.720858267716535
 30
0
 10
-1.177173228346457
 20
2.700956692913386
 30
0
 10
-1.177173228346457
 20
2.700956692913386
 30
0
 10
-1.180870078740157
 20
2.680984251968504
 30
0
 10
-1.187685039370079
 20
2.652618110236221
 30
0
 10
-1.193047244094488
 20
2.618314960629921
 30
0
 10
-1.193047244094488
 20
2.618314960629921
 30
0
 10
-1.198251968503937
 20
2.58396062992126
 30
0
 10
-1.20609842519685
 20
2.544031496062992
 30
0
 10
-1.211283464566929
 20
2.500948818897638
 30
0
 10
-1.211283464566929
 20
2.500948818897638
 30
0
 10
-1.21653937007874
 20
2.45792125984252
 30
0
 10
-1.222236220472441
 20
2.411948818897638
 30
0
 10
-1.227858267716536
 20
2.366031496062992
 30
0
 10
-1.227858267716536
 20
2.366031496062992
 30
0
 10
-1.231748031496063
 20
2.319846456692913
 30
0
 10
-1.235637795275591
 20
2.273751968503937
 30
0
 10
-1.239228346456693
 20
2.23048031496063
 30
0
 10
-1.239228346456693
 20
2.23048031496063
 30
0
 10
-1.243047244094488
 20
2.187275590551181
 30
0
 10
-1.243433070866142
 20
2.146610236220472
 30
0
 10
-1.245397637795276
 20
2.11194094488189
 30
0
 10
-1.245397637795276
 20
2.11194094488189
 30
0
 10
-1.247200787401575
 20
2.077196850393701
 30
0
 10
-1.246200787401575
 20
2.048027559055118
 30
0
 10
-1.246708661417323
 20
2.027755905511811
 30
0
 10
-1.246708661417323
 20
2.027755905511811
 30
0
 10
-1.246322834645669
 20
2.007295275590551
 30
0
 10
-1.246149606299213
 20
1.995677165354331
 30
0
 10
-1.246149606299213
 20
1.995677165354331
 30
0
 10
-1.246149606299213
 20
1.995677165354331
 30
0
 10
-1.246149606299213
 20
1.995677165354331
 30
0
 10
-1.243555118110236
 20
2.007051181102362
 30
0
 10
-1.239035433070866
 20
2.026952755905512
 30
0
  0
ENDSEC
  0
SECTION
  2
OBJECTS
  0
DICTIONARY
  5
C
330
0
100
AcDbDictionary
281
    1
  3
ACAD_GROUP
350
D
  0
DICTIONARY
  5
D
330
C
100
AcDbDictionary
281
    1
  0
PLOTSETTINGS
  5
69
100
AcDbPlotSettings
  6
1x1
 40
0
 41
0
 42
0
 43
0
  0
ENDSEC
  0
EOF
