0
SECTION
2
ENTITIES
0
LWPOLYLINE
8
0
90
545
70
1
10
167.376
20
149.815
10
168.343
20
148.652
10
167.763
20
145.425
10
166.637
20
141.853
10
165.961
20
139.654
10
166.039
20
137.737
10
166.804
20
137.041
10
168.138
20
137.9
10
169.927
20
140.65
10
170.726
20
142.8
10
171.298
20
144.843
10
171.945
20
146.024
10
172.971
20
145.587
10
173.826
20
143.112
10
173.617
20
139.748
10
172.768
20
136.358
10
171.704
20
133.811
10
170.723
20
132.449
10
169.697
20
131.176
10
169.107
20
129.933
10
169.432
20
128.661
10
170.951
20
128.44
10
172.892
20
130.058
10
174.691
20
132.276
10
175.786
20
133.854
10
176.953
20
136.07
10
178.549
20
139.067
10
180.368
20
141.408
10
182.204
20
141.653
10
182.807
20
139.507
10
181.911
20
136.195
10
180.368
20
132.852
10
179.035
20
130.611
10
177.984
20
129.362
10
176.458
20
127.654
10
175.118
20
126.069
10
174.625
20
125.188
10
175.669
20
124.846
10
177.503
20
125.712
10
179.541
20
127.604
10
181.199
20
130.338
10
181.596
20
131.588
10
182.002
20
133.034
10
182.504
20
134.296
10
183.191
20
134.996
10
184.512
20
133.91
10
184.419
20
130.615
10
184.327
20
127.768
10
185.651
20
128.026
10
186.733
20
129.345
10
187.946
20
130.682
10
188.962
20
131.035
10
189.452
20
129.401
10
189.513
20
127.877
10
189.433
20
126.616
10
189.021
20
125.384
10
188.086
20
123.946
10
184.347
20
119.757
10
180.478
20
116.999
10
175.913
20
115.488
10
170.084
20
115.035
10
165.714
20
115.177
10
160.731
20
115.473
10
155.952
20
115.754
10
152.196
20
115.85
10
150.786
20
115.552
10
150.859
20
114.85
10
151.667
20
113.899
10
152.458
20
112.854
10
152.868
20
111.603
10
153.468
20
109.789
10
154.639
20
107.742
10
156.762
20
105.794
10
158.61
20
104.623
10
160.045
20
103.638
10
161.273
20
102.451
10
162.497
20
100.677
10
163.524
20
99.3568
10
164.76
20
98.0722
10
165.828
20
96.7507
10
166.355
20
95.3196
10
166.762
20
92.4995
10
167.206
20
88.8876
10
167.074
20
85.441
10
165.756
20
83.1171
10
164.836
20
82.6097
10
163.709
20
82.1878
10
162.57
20
81.9693
10
161.617
20
82.0722
10
160.709
20
82.4169
10
160.337
20
82.4213
10
160.049
20
82.0639
10
159.394
20
81.3235
10
157.944
20
80.5439
10
156.275
20
80.6186
10
154.606
20
81.5602
10
153.158
20
83.3815
10
152.36
20
85.0061
10
151.519
20
86.6027
10
150.403
20
87.8435
10
148.78
20
88.4008
10
147.218
20
88.4355
10
145.484
20
88.2818
10
143.955
20
87.772
10
143.003
20
86.7383
10
142.378
20
84.9682
10
142.055
20
84.1171
10
141.694
20
84.163
10
140.956
20
85.0843
10
140.076
20
85.3765
10
139.567
20
83.896
10
139.058
20
81.7469
10
138.174
20
80.0332
10
137.196
20
79.667
10
136.594
20
80.4393
10
136.176
20
81.6686
10
135.746
20
82.673
10
135.019
20
82.7555
10
134.459
20
80.6093
10
132.934
20
77.4031
10
129.312
20
74.3053
10
128.197
20
74.4398
10
127.886
20
76.0985
10
127.844
20
78.494
10
127.535
20
80.8391
10
126.689
20
81.4058
10
125.356
20
80.5514
10
123.925
20
79.1704
10
122.78
20
78.1571
10
120.581
20
77.2183
10
118.715
20
76.7528
10
117.391
20
76.08
10
116.813
20
74.519
10
116.767
20
71.9621
10
116.731
20
69.6628
10
116.363
20
67.4591
10
115.324
20
65.1889
10
113.621
20
62.0953
10
113.643
20
59.9872
10
115.415
20
57.4642
10
118.962
20
53.1261
10
122.187
20
48.6415
10
123.282
20
45.6458
10
122.895
20
42.4406
10
121.676
20
37.3278
10
120.959
20
30.9683
10
121.16
20
25.6132
10
121.377
20
21.131
10
120.705
20
17.3902
10
119.77
20
15.8498
10
118.917
20
15.6164
10
117.965
20
15.7807
10
116.733
20
15.4337
10
115.707
20
14.2149
10
114.356
20
12.1303
10
112.568
20
9.8292
10
110.231
20
7.9607
10
109.156
20
7.6129
10
108.645
20
8.0094
10
108.487
20
8.9929
10
108.471
20
10.4059
10
108.428
20
17.2107
10
108.8
20
20.3827
10
110.059
20
22.0325
10
112.676
20
24.2709
10
114.075
20
25.9127
10
114.738
20
27.5716
10
114.922
20
29.5589
10
114.888
20
32.1858
10
114.827
20
34.3498
10
114.718
20
36.6909
10
114.562
20
38.9412
10
114.362
20
40.8327
10
114.105
20
42.1794
10
113.725
20
43.1205
10
113.144
20
43.8765
10
112.28
20
44.6675
10
111.089
20
45.665
10
109.654
20
46.8432
10
108.096
20
48.1265
10
106.529
20
49.4393
10
101.324
20
53.8667
10
99.4472
20
54.5205
10
99.0504
20
51.5661
10
98.2842
20
45.1688
10
97.5005
20
42.2729
10
96.9013
20
41.0162
10
96.506
20
39.1431
10
96.334
20
34.3983
10
96.2661
20
30.1791
10
96.1956
20
25.1397
10
96.2414
20
20.1899
10
96.5222
20
16.2395
10
96.939
20
14.3169
10
97.4994
20
12.9275
10
98.1391
20
11.6717
10
98.7939
20
10.15
10
99.3095
20
8.1557
10
99.4356
20
7.2881
10
100.148
20
6.5538
10
102.424
20
4.9593
10
103.455
20
4.1761
10
104.54
20
3.1865
10
105.441
20
2.0934
10
105.92
20
0.9997
10
104.959
20
0.3029
10
102.529
20
0.0291
10
99.8229
20
0
10
98.0367
20
0.0373
10
94.9643
20
0.2994
10
93.6442
20
1.0346
10
92.9345
20
2.333
10
91.6933
20
4.2846
10
90.865
20
5.0976
10
90.1944
20
5.6819
10
89.8184
20
6.411
10
89.8742
20
7.6583
10
90.343
20
9.6797
10
90.7628
20
11.5066
10
90.9483
20
13.3981
10
90.7139
20
15.6135
10
89.3494
20
22.5558
10
88.3835
20
28.6231
10
87.7579
20
34.7764
10
87.4143
20
41.977
10
87.1381
20
46.0006
10
86.6866
20
47.7419
10
86.159
20
48.7153
10
85.6544
20
50.4356
10
85.2669
20
52.9397
10
84.8372
20
54.5062
10
83.8843
20
55.1257
10
81.9275
20
54.7886
10
76.9002
20
53.7794
10
71.4616
20
53.6856
10
66.0801
20
54.534
10
61.2242
20
56.3517
10
58.9231
20
57.5706
10
56.6919
20
58.4071
10
54.6185
20
58.2387
10
52.791
20
56.4427
10
52.206
20
55.0837
10
50.919
20
52.0939
10
49.632
20
49.1041
10
49.0471
20
47.7451
10
48.0851
20
44.6229
10
48.1362
20
41.9879
10
48.766
20
39.1438
10
49.54
20
35.3946
10
50.1702
20
30.4714
10
50.9061
20
25.33
10
52.2428
20
20.3355
10
54.6756
20
15.8525
10
55.2081
20
15.1707
10
55.7651
20
14.4639
10
56.3035
20
13.7602
10
56.7802
20
13.0879
10
57.6935
20
11.7178
10
58.3523
20
10.8567
10
59.1609
20
10.0912
10
60.5241
20
9.0078
10
61.7606
20
8.0046
10
63.1458
20
6.722
10
64.3105
20
5.3233
10
64.8855
20
3.9715
10
63.8467
20
3.0154
10
61.2564
20
2.5409
10
58.3702
20
2.3745
10
56.4439
20
2.3428
10
53.6526
20
2.6035
10
52.5858
20
3.5522
10
52.2344
20
5.1775
10
51.5896
20
7.4679
10
50.7691
20
8.0984
10
49.6438
20
8.0477
10
48.5761
20
8.2195
10
47.9282
20
9.5175
10
47.866
20
10.2854
10
47.8367
20
11.2615
10
47.7812
20
12.4724
10
47.6405
20
13.9446
10
47.0723
20
17.3542
10
46.1945
20
21.0777
10
45.0625
20
24.7231
10
43.7317
20
27.8984
10
42.1456
20
30.6509
10
40.1597
20
33.5184
10
38.0016
20
36.24
10
35.8992
20
38.5546
10
34.6686
20
39.5997
10
33.4728
20
40.5527
10
32.7144
20
41.5187
10
32.7962
20
42.6031
10
33.7047
20
43.987
10
34.5483
20
45.0792
10
35.2647
20
46.4018
10
35.7913
20
48.4769
10
35.9978
20
50.3046
10
36.1664
20
52.9251
10
36.1539
20
55.4568
10
35.8167
20
57.018
10
34.6558
20
56.0578
10
32.5995
20
52.6118
10
30.0164
20
48.3596
10
27.2756
20
44.9805
10
22.4003
20
41.4171
10
17.596
20
38.3397
10
13.3795
20
34.6083
10
10.2675
20
29.0829
10
8.9984
20
24.6476
10
7.8911
20
18.7545
10
7.6452
20
12.9756
10
8.9603
20
8.883
10
9.5414
20
8.2515
10
10.2157
20
7.5673
10
10.8979
20
6.8704
10
11.5028
20
6.2009
10
11.9691
20
5.5884
10
12.343
20
5.0196
10
12.6955
20
4.4698
10
13.0976
20
3.9144
10
14.5886
20
2.2778
10
15.5501
20
1.1026
10
15.1743
20
0.3704
10
12.6534
20
0.0627
10
6.808
20
0.1091
10
4.1393
20
0.8479
10
3.2862
20
2.56
10
2.8877
20
5.5262
10
2.0501
20
6.9188
10
0.866
20
6.8424
10
0
20
6.7255
10
0.1168
20
7.9967
10
0.4438
20
12.3658
10
0.736
20
17.7312
10
0.9163
20
24.0921
10
0.9079
20
31.4476
10
0.9972
20
34.1026
10
1.4118
20
36.4445
10
2.2285
20
38.6574
10
3.5243
20
40.9257
10
6.0916
20
44.4043
10
8.4191
20
47.9111
10
10.4218
20
51.4797
10
12.0146
20
55.144
10
14.6171
20
64.0512
10
15.4356
20
71.4591
10
14.5563
20
77.3373
10
12.0654
20
81.6556
10
9.6426
20
79.6353
10
8.1232
20
78.6573
10
7.5073
20
78.7215
10
7.7949
20
79.828
10
8.1303
20
80.967
10
8.3657
20
82.2232
10
8.5007
20
83.5964
10
8.5352
20
85.0864
10
9.2048
20
87.4688
10
10.2341
20
89.3049
10
11.5863
20
90.6852
10
13.2245
20
91.7005
10
14.8234
20
92.8596
10
16.0752
20
94.4677
10
17.1359
20
96.3954
10
18.1613
20
98.5135
10
19.0549
20
99.8046
10
20.1432
20
100.59
10
21.3267
20
100.93
10
22.5059
20
100.885
10
23.8305
20
100.813
10
25.1771
20
101.118
10
26.5455
20
101.8
10
27.9356
20
102.858
10
30.277
20
104.241
10
32.761
20
105.088
10
35.3875
20
105.401
10
38.1561
20
105.178
10
44.5344
20
104.222
10
49.6007
20
103.858
10
53.3877
20
104.018
10
55.9278
20
104.635
10
58.9944
20
105.777
10
62.1477
20
106.702
10
65.3506
20
107.519
10
68.566
20
108.338
10
69.6359
20
108.884
10
70.3281
20
109.79
10
70.7685
20
111.007
10
71.083
20
112.484
10
71.8055
20
114.04
10
73.2304
20
115.099
10
75.2478
20
115.69
10
77.7479
20
115.843
10
81.7255
20
116.299
10
84.7756
20
117.41
10
86.842
20
119.187
10
87.869
20
121.643
10
88.1932
20
122.54
10
88.8301
20
123.093
10
89.8378
20
123.303
10
91.2745
20
123.172
10
92.4093
20
123.059
10
93.47
20
123.129
10
94.4577
20
123.369
10
95.3737
20
123.767
10
96.5202
20
124.235
10
97.699
20
124.442
10
98.9124
20
124.409
10
100.162
20
124.16
10
101.126
20
123.979
10
102.112
20
123.946
10
103.116
20
124.038
10
104.135
20
124.234
10
105.612
20
124.395
10
106.933
20
124.231
10
108.164
20
123.883
10
109.37
20
123.494
10
113.008
20
122.675
10
114.769
20
122.787
10
114.577
20
123.605
10
112.356
20
124.9
10
102.248
20
130.296
10
95.5154
20
135.982
10
92.1919
20
142.04
10
92.3109
20
148.548
10
92.7987
20
149.64
10
93.4296
20
149.951
10
94.1678
20
149.462
10
94.9781
20
148.152
10
97.0673
20
144.221
10
98.322
20
142.929
10
98.8178
20
144.298
10
98.631
20
148.351
10
98.9542
20
150.752
10
100.094
20
151.444
10
101.39
20
150.441
10
102.184
20
147.759
10
103.324
20
142.345
10
105.041
20
138.911
10
106.528
20
137.792
10
106.973
20
139.317
10
106.635
20
143.38
10
106.773
20
146.376
10
107.517
20
148.273
10
108.998
20
149.043
10
109.644
20
148.94
10
110.088
20
148.51
10
110.344
20
147.804
10
110.43
20
146.871
10
110.687
20
139.914
10
111.345
20
135.689
10
112.347
20
134.215
10
113.638
20
135.514
10
115.546
20
138.967
10
116.446
20
139.366
10
116.967
20
136.716
10
117.737
20
131.022
10
118.623
20
128.927
10
119.99
20
128.195
10
121.218
20
128.569
10
121.686
20
129.788
10
121.551
20
133.852
10
121.887
20
137.024
10
122.776
20
139.28
10
124.303
20
140.599
10
125.103
20
140.732
10
125.606
20
140.308
10
125.778
20
139.364
10
125.585
20
137.934
10
124.496
20
132.309
10
124.197
20
128.205
10
124.63
20
125.461
10
125.735
20
123.912
10
130.694
20
121.491
10
133.987
20
121.312
10
134.462
20
122.532
10
130.968
20
124.308
10
128.663
20
125.457
10
127.048
20
127.32
10
126.109
20
129.923
10
125.832
20
133.293
10
125.965
20
134.163
10
126.353
20
134.64
10
127.023
20
134.74
10
128.005
20
134.478
10
133.143
20
131.994
10
137.041
20
128.942
10
139.728
20
125.313
10
141.235
20
121.099
10
141.976
20
119.297
10
142.951
20
118.826
10
143.747
20
119.998
10
143.951
20
123.124
10
143.295
20
127.684
10
141.864
20
131.962
10
139.687
20
135.992
10
136.793
20
139.81
10
135.357
20
142.295
10
135.367
20
144.21
10
136.694
20
144.826
10
139.211
20
143.414
10
139.993
20
143.045
10
140.48
20
143.393
10
140.419
20
144.444
10
139.558
20
146.179
10
137.742
20
150.401
10
138.039
20
153.086
10
139.441
20
154.082
10
140.939
20
153.239
10
141.482
20
151.638
10
141.971
20
149.961
10
142.401
20
148.297
10
142.766
20
146.737
10
143.387
20
145.274
10
144.289
20
144.314
10
145.097
20
144.237
10
145.44
20
145.422
10
145.191
20
147.712
10
144.893
20
150.269
10
145.177
20
152.612
10
146.673
20
154.259
10
148.317
20
153.601
10
149.756
20
151.386
10
151.029
20
149.849
10
152.17
20
151.221
10
152.945
20
152.659
10
154.071
20
153.68
10
155.173
20
154.042
10
155.88
20
153.502
10
156.052
20
151.087
10
156.071
20
147.669
10
156.542
20
145.249
10
158.07
20
145.826
10
158.856
20
146.886
10
160.067
20
148.337
10
161.207
20
149.076
10
161.782
20
147.998
10
161.787
20
146.581
10
161.873
20
144.937
10
162.294
20
144.167
10
163.303
20
145.373
10
164.029
20
146.65
10
164.967
20
148.015
10
166.09
20
149.17
10
167.376
20
149.815
0
LWPOLYLINE
8
0
90
33
70
1
10
2.2083
20
1.5103
10
2.1425
20
1.2743
10
1.9978
20
0.7552
10
1.853
20
0.236
10
1.7873
20
0
10
1.7215
20
0.236
10
1.5768
20
0.7552
10
1.4321
20
1.2743
10
1.3664
20
1.5103
10
1.1529
20
1.5827
10
0.6832
20
1.7419
10
0.2135
20
1.9011
10
0
20
1.9735
10
0.2135
20
2.0462
10
0.6832
20
2.2062
10
1.1529
20
2.3661
10
1.3664
20
2.4388
10
1.4321
20
2.6748
10
1.5768
20
3.194
10
1.7215
20
3.7131
10
1.7873
20
3.9491
10
1.853
20
3.7131
10
1.9978
20
3.194
10
2.1425
20
2.6748
10
2.2083
20
2.4388
10
2.4221
20
2.3661
10
2.8925
20
2.2062
10
3.3629
20
2.0462
10
3.5768
20
1.9735
10
3.3629
20
1.9011
10
2.8925
20
1.7419
10
2.4221
20
1.5827
10
2.2083
20
1.5103
0
LWPOLYLINE
8
0
90
297
70
1
10
52.972
20
20.2906
10
53.7563
20
19.5665
10
54.5586
20
18.8446
10
55.3423
20
18.1065
10
56.0707
20
17.3336
10
56.3456
20
17.0003
10
56.6016
20
16.6567
10
56.8416
20
16.302
10
57.0691
20
15.9354
10
57.2368
20
15.6464
10
57.4006
20
15.3556
10
57.5652
20
15.066
10
57.7353
20
14.7805
10
57.9798
20
14.4092
10
58.2334
20
14.164
10
58.5473
20
14.0869
10
58.9727
20
14.22
10
59.8935
20
14.8481
10
60.8961
20
15.7544
10
61.854
20
16.738
10
62.6404
20
17.598
10
63.0197
20
18.0259
10
63.3984
20
18.4559
10
63.7799
20
18.8832
10
64.1676
20
19.3028
10
64.4658
20
19.6069
10
64.7881
20
19.9048
10
65.1322
20
20.1746
10
65.4959
20
20.3942
10
66.3833
20
20.6047
10
67.1999
20
20.4074
10
67.9471
20
19.9397
10
68.6264
20
19.3387
10
69.622
20
18.3265
10
70.5916
20
17.2867
10
71.5791
20
16.264
10
72.6283
20
15.303
10
73.1046
20
14.9261
10
73.5946
20
14.5754
10
74.0985
20
14.2453
10
74.6166
20
13.9302
10
75.0792
20
13.662
10
75.5433
20
13.3946
10
76.0029
20
13.12
10
76.4525
20
12.8304
10
76.8438
20
12.5496
10
77.2224
20
12.2561
10
77.5947
20
11.9547
10
77.967
20
11.6501
10
78.2551
20
11.4189
10
78.5568
20
11.1919
10
78.8709
20
10.9835
10
79.1959
20
10.8082
10
79.8312
20
10.5901
10
80.4869
20
10.4704
10
81.1486
20
10.3799
10
81.8018
20
10.2498
10
82.4609
20
9.9938
10
83.0183
20
9.628
10
83.5094
20
9.1701
10
83.9699
20
8.6381
10
84.4628
20
8.0072
10
84.9536
20
7.3634
10
85.4591
20
6.7335
10
85.9962
20
6.1443
10
86.5237
20
5.6673
10
87.072
20
5.2236
10
87.6175
20
4.7713
10
88.1367
20
4.2681
10
88.7507
20
3.5263
10
89.3238
20
2.7135
10
89.8613
20
1.8737
10
90.3683
20
1.0509
10
90.4482
20
0.8309
10
90.4383
20
0.6044
10
90.3447
20
0.398
10
90.1737
20
0.2387
10
89.9549
20
0.1575
10
89.7289
20
0.1668
10
89.5228
20
0.2601
10
89.3635
20
0.4312
10
88.8882
20
1.2051
10
88.3815
20
2.0025
10
87.8424
20
2.7742
10
87.2695
20
3.4707
10
86.7663
20
3.9555
10
86.228
20
4.3995
10
85.6838
20
4.8393
10
85.1628
20
5.3109
10
84.601
20
5.9242
10
84.0759
20
6.5747
10
83.567
20
7.2395
10
83.054
20
7.8956
10
82.7238
20
8.2858
10
82.3705
20
8.6344
10
81.9692
20
8.9171
10
81.4951
20
9.1098
10
81.1967
20
9.1771
10
80.8877
20
9.2266
10
80.5768
20
9.2674
10
80.2725
20
9.3086
10
79.8665
20
9.3769
10
79.4679
20
9.4665
10
79.0776
20
9.5849
10
78.6967
20
9.7401
10
77.9389
20
10.1827
10
77.214
20
10.7332
10
76.5033
20
11.3154
10
75.7884
20
11.8531
10
75.3561
20
12.1324
10
74.9116
20
12.3976
10
74.4623
20
12.656
10
74.0158
20
12.915
10
73.4573
20
13.2555
10
72.9143
20
13.6119
10
72.3864
20
13.9905
10
71.8732
20
14.3977
10
70.804
20
15.3748
10
69.8016
20
16.4098
10
68.8187
20
17.4614
10
67.8078
20
18.4884
10
67.5098
20
18.7669
10
67.1211
20
19.0839
10
66.7004
20
19.3374
10
66.306
20
19.4255
10
66.2326
20
19.4146
10
66.1613
20
19.3956
10
66.0921
20
19.3698
10
66.0247
20
19.3387
10
65.7571
20
19.172
10
65.4927
20
18.9551
10
65.2442
20
18.718
10
65.0242
20
18.4906
10
64.6416
20
18.077
10
64.2654
20
17.6554
10
63.8915
20
17.2309
10
63.5161
20
16.809
10
62.6473
20
15.8601
10
61.6204
20
14.8142
10
60.5386
20
13.8551
10
59.5057
20
13.1667
10
58.6298
20
12.8988
10
57.8921
20
13.016
10
57.2674
20
13.4576
10
56.7306
20
14.1629
10
56.3616
20
14.7881
10
56.0109
20
15.3908
10
55.6324
20
15.9791
10
55.1802
20
16.5615
10
54.4714
20
17.3103
10
53.7043
20
18.0303
10
52.919
20
18.7356
10
52.1555
20
19.4403
10
51.3951
20
20.2078
10
50.6823
20
21.0021
10
50.0091
20
21.8309
10
49.3677
20
22.7019
10
48.866
20
23.4486
10
48.2681
20
24.3271
10
47.6309
20
25.1561
10
47.0114
20
25.7541
10
46.9175
20
25.8161
10
46.8175
20
25.8696
10
46.7124
20
25.9108
10
46.6032
20
25.936
10
46.1326
20
25.8541
10
45.6307
20
25.565
10
45.1676
20
25.1938
10
44.8137
20
24.8657
10
44.2257
20
24.2741
10
43.6535
20
23.6564
10
43.0957
20
23.0251
10
42.5505
20
22.3931
10
42.0168
20
21.7665
10
41.4858
20
21.1385
10
40.9535
20
20.5117
10
40.4163
20
19.8887
10
39.6897
20
19.0779
10
38.9661
20
18.3822
10
38.1595
20
17.7935
10
37.1843
20
17.3039
10
36.6675
20
17.1042
10
36.1452
20
16.9163
10
35.6221
20
16.7293
10
35.103
20
16.5319
10
34.4779
20
16.2665
10
33.8716
20
15.9711
10
33.284
20
15.6404
10
32.7149
20
15.2691
10
31.445
20
14.2543
10
30.2565
20
13.1313
10
29.0974
20
11.9741
10
27.9156
20
10.8569
10
26.9224
20
10.0749
10
25.918
20
9.5619
10
24.8284
20
9.3732
10
23.5795
20
9.5645
10
22.3607
20
10.0276
10
21.1875
20
10.6147
10
20.0288
20
11.232
10
18.8542
20
11.7855
10
18.6151
20
11.8777
10
18.365
20
11.9552
10
18.1093
20
12.005
10
17.8537
20
12.0139
10
17.3825
20
11.8969
10
16.8902
20
11.6535
10
16.4218
20
11.355
10
16.022
20
11.0726
10
14.5309
20
9.9763
10
13.0546
20
8.8586
10
11.5677
20
7.7543
10
10.0445
20
6.6985
10
9.0847
20
6.1014
10
8.1152
20
5.5447
10
7.1405
20
5.0007
10
6.1653
20
4.4416
10
5.9361
20
4.3039
10
5.7092
20
4.1632
10
5.485
20
4.0189
10
5.2642
20
3.8705
10
4.1416
20
3.03
10
3.0589
20
2.1038
10
2.0122
20
1.134
10
0.9979
20
0.1626
10
0.8001
20
0.038
10
0.5772
20
0
10
0.3562
20
0.0481
10
0.1645
20
0.1816
10
0.0386
20
0.3794
10
0
20
0.6023
10
0.0479
20
0.8232
10
0.1814
20
1.015
10
1.2323
20
2.0201
10
2.3141
20
3.0197
10
3.4331
20
3.974
10
4.5958
20
4.8435
10
4.8337
20
5.003
10
5.0746
20
5.1581
10
5.3183
20
5.3093
10
5.5646
20
5.4569
10
6.5278
20
6.0083
10
7.4912
20
6.5451
10
8.4495
20
7.0946
10
9.3973
20
7.6841
10
10.9101
20
8.7327
10
12.3876
20
9.8308
10
13.8548
20
10.9426
10
15.3367
20
12.0329
10
16.3139
20
12.6859
10
17.2165
20
13.091
10
18.1707
20
13.1781
10
19.3026
20
12.8769
10
20.4457
20
12.3363
10
21.5915
20
11.7247
10
22.7455
20
11.144
10
23.9137
20
10.6961
10
24.8554
20
10.5575
10
25.6558
20
10.721
10
26.3899
20
11.1328
10
27.133
20
11.7389
10
28.3414
20
12.88
10
29.5202
20
14.0537
10
30.7312
20
15.1938
10
32.036
20
16.2337
10
32.663
20
16.6427
10
33.3101
20
17.0076
10
33.9774
20
17.3339
10
34.6651
20
17.6276
10
35.1826
20
17.8237
10
35.7041
20
18.0099
10
36.2249
20
18.1969
10
36.7401
20
18.3954
10
37.5817
20
18.8234
10
38.2759
20
19.3435
10
38.8992
20
19.9563
10
39.5279
20
20.6628
10
40.0626
20
21.2843
10
40.5932
20
21.9095
10
41.1225
20
22.5359
10
41.6537
20
23.1609
10
42.2179
20
23.8147
10
42.7953
20
24.467
10
43.3878
20
25.105
10
43.9973
20
25.716
10
44.815
20
26.4291
10
45.7137
20
26.9568
10
46.679
20
27.1137
10
47.6967
20
26.7144
10
48.4238
20
26.0391
10
49.1194
20
25.1607
10
49.763
20
24.2253
10
50.3343
20
23.3787
10
50.9412
20
22.5532
10
51.5777
20
21.7688
10
52.2519
20
21.0173
10
52.972
20
20.2906
0
LWPOLYLINE
8
0
90
1437
70
1
10
47.7985
20
33.5318
10
49.9744
20
34.6538
10
51.4839
20
33.2037
10
53.0516
20
30.4571
10
55.4025
20
27.6897
10
59.2792
20
24.2195
10
60.0059
20
22.6421
10
58.808
20
22.3437
10
56.9107
20
22.7106
10
55.8425
20
23.029
10
55.1334
20
23.1411
10
54.4615
20
22.8677
10
53.5052
20
22.0295
10
52.634
20
21.1278
10
51.749
20
20.1893
10
50.8728
20
19.3602
10
50.0279
20
18.787
10
47.5379
20
16.9555
10
45.8636
20
14.8543
10
45.6608
20
13.6994
10
47.5849
20
14.7068
10
49.1261
20
15.8506
10
50.0757
20
16.4933
10
51.0147
20
17.192
10
52.5238
20
18.5035
10
55.676
20
19.731
10
58.418
20
18.264
10
60.6527
20
15.5207
10
62.2832
20
12.9195
10
62.9539
20
12.0291
10
63.2945
20
11.9013
10
63.3007
20
12.3861
10
62.9685
20
13.334
10
62.0672
20
15.4653
10
61.5101
20
18.1979
10
62.1808
20
21.2937
10
64.9631
20
24.5148
10
67.4555
20
27.0436
10
68.7963
20
28.5374
10
70.3409
20
28.0426
10
73.445
20
24.6058
10
75.7694
20
23.153
10
77.803
20
22.9933
10
79.3793
20
21.6917
10
80.332
20
16.8135
10
80.7865
20
13.7763
10
81.338
20
13.6875
10
81.9153
20
15.4664
10
82.4472
20
18.0318
10
83.1071
20
19.3809
10
83.9907
20
18.6558
10
85.0099
20
17.0074
10
86.0768
20
15.5867
10
89.0998
20
12.4201
10
89.8838
20
10.85
10
90.7595
20
9.9165
10
94.0574
20
8.6595
10
95.0262
20
8.2525
10
95.3672
20
7.5834
10
95.2632
20
6.152
10
94.8971
20
3.4583
10
94.8495
20
3.1275
10
94.7958
20
2.8351
10
94.7361
20
2.5787
10
94.6708
20
2.3563
10
94.5187
20
1.9534
10
94.3397
20
1.5623
10
94.1068
20
1.1953
10
93.793
20
0.8651
10
93.5145
20
0.663
10
93.1935
20
0.4857
10
92.8396
20
0.3341
10
92.4625
20
0.2094
10
92.3629
20
0.3549
10
92.2832
20
0.5214
10
92.2233
20
0.7085
10
92.1833
20
0.9158
10
92.5105
20
0.9281
10
92.7629
20
1.0472
10
92.9406
20
1.2731
10
93.0442
20
1.6054
10
92.6112
20
2.0083
10
92.2991
20
2.4237
10
92.1084
20
2.8514
10
92.0395
20
3.2912
10
92.2723
20
3.3277
10
92.4472
20
3.5133
10
92.5642
20
3.848
10
92.6233
20
4.3318
10
92.3298
20
4.4925
10
92.1127
20
4.7142
10
91.9721
20
4.9969
10
91.9083
20
5.3408
10
92.0075
20
5.3673
10
92.0892
20
5.4307
10
92.1534
20
5.5306
10
92.2002
20
5.6665
10
92.0483
20
6.3043
10
91.8972
20
6.8539
10
91.7469
20
7.3159
10
91.5974
20
7.6907
10
91.4479
20
7.3159
10
91.2975
20
6.8539
10
91.1464
20
6.3043
10
90.9946
20
5.6665
10
91.0417
20
5.5306
10
91.1067
20
5.4307
10
91.1891
20
5.3673
10
91.2886
20
5.3408
10
91.2247
20
4.9969
10
91.0839
20
4.7142
10
90.8662
20
4.4925
10
90.5716
20
4.3318
10
90.6309
20
3.848
10
90.7487
20
3.5133
10
90.9243
20
3.3277
10
91.1575
20
3.2912
10
91.0876
20
2.8514
10
90.8968
20
2.4237
10
90.5845
20
2.0083
10
90.1506
20
1.6054
10
90.2545
20
1.2731
10
90.4327
20
1.0472
10
90.6851
20
0.9281
10
91.0115
20
0.9158
10
90.9476
20
0.6207
10
90.8415
20
0.3699
10
90.6929
20
0.163
10
90.5018
20
0
10
90.2609
20
0.0098
10
90.0205
20
0.0227
10
89.7801
20
0.0381
10
89.5394
20
0.055
10
89.2295
20
0.0608
10
88.8614
20
0.0711
10
88.4298
20
0.085
10
87.9297
20
0.1015
10
87.8916
20
0.2059
10
87.8596
20
0.3162
10
87.8336
20
0.4329
10
87.8134
20
0.5563
10
88.1818
20
0.5702
10
88.4659
20
0.7041
10
88.6658
20
0.9581
10
88.7821
20
1.3325
10
88.2938
20
1.7854
10
87.9426
20
2.2526
10
87.7282
20
2.7341
10
87.6505
20
3.2298
10
87.913
20
3.271
10
88.1105
20
3.4802
10
88.243
20
3.8571
10
88.3104
20
4.4016
10
87.9792
20
4.583
10
87.7343
20
4.8321
10
87.5754
20
5.1495
10
87.5024
20
5.5354
10
87.6146
20
5.5667
10
87.707
20
5.6385
10
87.7796
20
5.7507
10
87.8324
20
5.9034
10
87.6614
20
6.6217
10
87.4913
20
7.2408
10
87.3219
20
7.7607
10
87.1534
20
8.1815
10
86.9851
20
7.7607
10
86.8165
20
7.2408
10
86.6471
20
6.6217
10
86.4766
20
5.9034
10
86.5293
20
5.7507
10
86.6016
20
5.6385
10
86.6934
20
5.5667
10
86.8044
20
5.5354
10
86.7326
20
5.1495
10
86.5744
20
4.8321
10
86.3296
20
4.583
10
85.9985
20
4.4016
10
86.0659
20
3.8571
10
86.1984
20
3.4802
10
86.3959
20
3.271
10
86.6585
20
3.2298
10
86.5804
20
2.7341
10
86.3655
20
2.2526
10
86.0142
20
1.7854
10
85.5269
20
1.3325
10
85.5538
20
1.2008
10
85.5898
20
1.0816
10
85.6345
20
0.9747
10
85.6876
20
0.8799
10
85.1021
20
1.064
10
84.6398
20
1.3836
10
84.3143
20
1.8463
10
84.1393
20
2.4599
10
84.6244
20
2.4782
10
84.9983
20
2.654
10
85.2615
20
2.9876
10
85.4148
20
3.4794
10
84.7731
20
4.0755
10
84.3109
20
4.6901
10
84.0283
20
5.3233
10
83.9257
20
5.9753
10
84.2712
20
6.0289
10
84.5306
20
6.3037
10
84.7044
20
6.7999
10
84.7929
20
7.5173
10
84.3575
20
7.7545
10
84.0351
20
8.082
10
83.8262
20
8.5001
10
83.7311
20
9.0085
10
83.8785
20
9.0485
10
84.0002
20
9.1428
10
84.0957
20
9.2911
10
84.1647
20
9.4929
10
83.9401
20
10.4356
10
83.7168
20
11.2487
10
83.4942
20
11.9322
10
83.2721
20
12.4858
10
83.0511
20
11.9322
10
82.8292
20
11.2487
10
82.6061
20
10.4356
10
82.3816
20
9.4929
10
82.4514
20
9.2911
10
82.5468
20
9.1428
10
82.668
20
9.0485
10
82.8152
20
9.0085
10
82.7203
20
8.5001
10
82.5119
20
8.082
10
82.1896
20
7.7545
10
81.7534
20
7.5173
10
81.8421
20
6.7999
10
82.0164
20
6.3037
10
82.276
20
6.0289
10
82.6206
20
5.9753
10
82.5179
20
5.3233
10
82.2353
20
4.6901
10
81.7731
20
4.0755
10
81.1315
20
3.4794
10
81.285
20
2.9876
10
81.5487
20
2.654
10
81.9227
20
2.4782
10
82.407
20
2.4599
10
82.2273
20
1.798
10
81.8919
20
1.3
10
81.4009
20
0.9658
10
80.755
20
0.7953
10
80.7907
20
0.7064
10
80.8282
20
0.6205
10
80.8677
20
0.5374
10
80.9094
20
0.4568
10
80.6433
20
0.6171
10
80.4382
20
0.8413
10
80.2943
20
1.1297
10
80.2114
20
1.4827
10
80.5418
20
1.4951
10
80.7968
20
1.6149
10
80.9764
20
1.8426
10
81.0808
20
2.1786
10
80.6425
20
2.5863
10
80.3272
20
3.0064
10
80.1349
20
3.4389
10
80.0655
20
3.8834
10
80.3011
20
3.9207
10
80.4782
20
4.1087
10
80.597
20
4.4474
10
80.6577
20
4.9368
10
80.3599
20
5.099
10
80.1395
20
5.3225
10
79.9968
20
5.6075
10
79.9322
20
5.9542
10
80.0326
20
5.982
10
80.1152
20
6.0465
10
80.1803
20
6.1479
10
80.2284
20
6.2863
10
80.0749
20
6.9304
10
79.9222
20
7.4858
10
79.7702
20
7.9528
10
79.6192
20
8.3316
10
79.468
20
7.9528
10
79.3161
20
7.4858
10
79.1635
20
6.9304
10
79.01
20
6.2863
10
79.0571
20
6.1479
10
79.1224
20
6.0465
10
79.2054
20
5.982
10
79.3061
20
5.9542
10
79.2406
20
5.6075
10
79.098
20
5.3225
10
78.878
20
5.099
10
78.5806
20
4.9368
10
78.6413
20
4.4474
10
78.7601
20
4.1087
10
78.9372
20
3.9207
10
79.1729
20
3.8834
10
79.1031
20
3.4389
10
78.9101
20
3.0064
10
78.594
20
2.5863
10
78.1555
20
2.1786
10
78.2601
20
1.8426
10
78.4405
20
1.6149
10
78.6962
20
1.4951
10
79.0269
20
1.4827
10
78.9412
20
1.1229
10
78.7921
20
0.8304
10
78.5795
20
0.605
10
78.3035
20
0.4463
10
77.8278
20
0.4875
10
77.362
20
0.5314
10
76.9052
20
0.5778
10
76.457
20
0.6261
10
76.7319
20
0.8009
10
76.9908
20
0.9254
10
77.1985
20
1.0895
10
77.32
20
1.3833
10
76.8817
20
1.791
10
76.5662
20
2.2114
10
76.3732
20
2.6444
10
76.3026
20
3.0902
10
76.5382
20
3.1263
10
76.7153
20
3.3137
10
76.8341
20
3.6521
10
76.8948
20
4.1415
10
76.5973
20
4.304
10
76.3774
20
4.5283
10
76.2348
20
4.814
10
76.1693
20
5.161
10
76.27
20
5.1879
10
76.3531
20
5.2522
10
76.4183
20
5.3535
10
76.4655
20
5.491
10
76.312
20
6.1351
10
76.1593
20
6.6905
10
76.0073
20
7.1575
10
75.8563
20
7.5363
10
75.7051
20
7.1575
10
75.5532
20
6.6905
10
75.4006
20
6.1351
10
75.2471
20
5.491
10
75.2951
20
5.3535
10
75.3602
20
5.2522
10
75.4428
20
5.1879
10
75.5432
20
5.161
10
75.4789
20
4.814
10
75.337
20
4.5283
10
75.1173
20
4.304
10
74.8198
20
4.1415
10
74.8796
20
3.6521
10
74.9985
20
3.3137
10
75.1762
20
3.1263
10
75.4121
20
3.0902
10
75.3414
20
2.6444
10
75.1485
20
2.2114
10
74.8329
20
1.791
10
74.3947
20
1.3833
10
74.4308
20
1.2223
10
74.4819
20
1.0822
10
74.5481
20
0.963
10
74.6295
20
0.8651
10
74.2741
20
0.9186
10
73.9248
20
0.974
10
73.5815
20
1.0311
10
73.244
20
1.0893
10
73.1341
20
1.2705
10
73.0457
20
1.4745
10
72.9787
20
1.7012
10
72.9331
20
1.9502
10
73.3673
20
1.9656
10
73.7025
20
2.1231
10
73.9384
20
2.4225
10
74.0753
20
2.8639
10
73.5002
20
3.3977
10
73.0859
20
3.9487
10
72.8325
20
4.5168
10
72.7406
20
5.1018
10
73.0499
20
5.1501
10
73.2826
20
5.3966
10
73.4384
20
5.8409
10
73.5169
20
6.483
10
73.1267
20
6.696
10
72.8382
20
6.9896
10
72.6516
20
7.364
10
72.5672
20
7.8198
10
72.6988
20
7.8554
10
72.8078
20
7.9398
10
72.8938
20
8.0726
10
72.9564
20
8.2534
10
72.7543
20
9.0993
10
72.5539
20
9.8287
10
72.3543
20
10.4414
10
72.1547
20
10.9375
10
71.9572
20
10.4414
10
71.7583
20
9.8287
10
71.5583
20
9.0993
10
71.3573
20
8.2534
10
71.4195
20
8.0726
10
71.5048
20
7.9398
10
71.6131
20
7.8554
10
71.7444
20
7.8198
10
71.6599
20
7.364
10
71.4734
20
6.9896
10
71.1849
20
6.696
10
70.7947
20
6.483
10
70.8731
20
5.8409
10
71.0289
20
5.3966
10
71.2616
20
5.1501
10
71.5709
20
5.1018
10
71.4792
20
4.5168
10
71.2264
20
3.9487
10
70.8121
20
3.3977
10
70.2363
20
2.8639
10
70.3731
20
2.4225
10
70.609
20
2.1231
10
70.9442
20
1.9656
10
71.3785
20
1.9502
10
71.3586
20
1.8248
10
71.3337
20
1.7053
10
71.3038
20
1.5914
10
71.2685
20
1.4827
10
70.6964
20
1.6144
10
70.1442
20
1.7493
10
69.6111
20
1.8873
10
69.0962
20
2.0284
10
69.3381
20
2.2227
10
69.5498
20
2.4623
10
69.7315
20
2.7468
10
69.883
20
3.0754
10
69.3039
20
3.2293
10
68.8643
20
3.5294
10
68.5638
20
3.9758
10
68.4024
20
4.5687
10
68.8367
20
4.5842
10
69.172
20
4.7417
10
69.4086
20
5.0411
10
69.5467
20
5.4825
10
68.9708
20
6.0163
10
68.5565
20
6.5673
10
68.3036
20
7.1354
10
68.212
20
7.7204
10
68.521
20
7.7685
10
68.7532
20
8.0144
10
68.9089
20
8.4587
10
68.9883
20
9.1016
10
68.5981
20
9.3146
10
68.3096
20
9.6082
10
68.123
20
9.9826
10
68.0386
20
10.4384
10
68.1699
20
10.474
10
68.2781
20
10.5584
10
68.3634
20
10.6912
10
68.4257
20
10.872
10
68.2245
20
11.7179
10
68.0243
20
12.4472
10
67.8248
20
13.06
10
67.6261
20
13.5561
10
67.4274
20
13.06
10
67.2279
20
12.4472
10
67.0276
20
11.7179
10
66.8266
20
10.872
10
66.8889
20
10.6912
10
66.9744
20
10.5584
10
67.0833
20
10.474
10
67.2158
20
10.4384
10
67.1301
20
9.9826
10
66.9429
20
9.6082
10
66.6542
20
9.3146
10
66.264
20
9.1016
10
66.3433
20
8.4587
10
66.4993
20
8.0144
10
66.7321
20
7.7685
10
67.0424
20
7.7204
10
66.9495
20
7.1354
10
66.6962
20
6.5673
10
66.2823
20
6.0163
10
65.7077
20
5.4825
10
65.8445
20
5.0411
10
66.0804
20
4.7417
10
66.4156
20
4.5842
10
66.8499
20
4.5687
10
66.7189
20
4.0476
10
66.4844
20
3.6359
10
66.1461
20
3.3337
10
65.7034
20
3.141
10
65.5721
20
3.1902
10
65.4419
20
3.2394
10
65.3128
20
3.2885
10
65.1852
20
3.3377
10
65.2982
20
3.4286
10
65.3896
20
3.5458
10
65.4591
20
3.6896
10
65.5067
20
3.8602
10
65.0446
20
4.2275
10
64.7119
20
4.606
10
64.5084
20
4.9961
10
64.4343
20
5.3979
10
64.6829
20
5.4312
10
64.87
20
5.6007
10
64.9953
20
5.9062
10
65.0583
20
6.3476
10
64.7453
20
6.4943
10
64.5141
20
6.6963
10
64.3646
20
6.9535
10
64.2969
20
7.2656
10
64.4019
20
7.2905
10
64.4888
20
7.3489
10
64.5574
20
7.4402
10
64.6078
20
7.5638
10
64.4463
20
8.1456
10
64.2854
20
8.6473
10
64.125
20
9.0689
10
63.9648
20
9.4104
10
63.8057
20
9.0689
10
63.6459
20
8.6473
10
63.4853
20
8.1456
10
63.3239
20
7.5638
10
63.3742
20
7.4402
10
63.4428
20
7.3489
10
63.5297
20
7.2905
10
63.6348
20
7.2656
10
63.5669
20
6.9535
10
63.4174
20
6.6963
10
63.1862
20
6.4943
10
62.8733
20
6.3476
10
62.9359
20
5.9062
10
63.0605
20
5.6007
10
63.2469
20
5.4312
10
63.4952
20
5.3979
10
63.446
20
5.0715
10
63.3111
20
4.7522
10
63.0906
20
4.4401
10
62.7845
20
4.1351
10
62.3573
20
4.5179
10
62.0497
20
4.9111
10
61.8615
20
5.3151
10
61.7925
20
5.73
10
62.0773
20
5.7672
10
62.2911
20
5.9611
10
62.4344
20
6.3112
10
62.5074
20
6.8172
10
62.148
20
6.9854
10
61.8823
20
7.2172
10
61.7102
20
7.5129
10
61.6317
20
7.8727
10
61.753
20
7.9003
10
61.8533
20
7.9668
10
61.9321
20
8.0714
10
61.9892
20
8.2132
10
61.8039
20
8.8807
10
61.6195
20
9.4559
10
61.4359
20
9.939
10
61.2531
20
10.3305
10
61.0703
20
9.939
10
60.8866
20
9.4559
10
60.7022
20
8.8807
10
60.517
20
8.2132
10
60.574
20
8.0714
10
60.6529
20
7.9668
10
60.7532
20
7.9003
10
60.8745
20
7.8727
10
60.7959
20
7.5129
10
60.6238
20
7.2172
10
60.3581
20
6.9854
10
59.9988
20
6.8172
10
60.0721
20
6.3112
10
60.2159
20
5.9611
10
60.4298
20
5.7672
10
60.7137
20
5.73
10
60.7002
20
5.5582
10
60.6664
20
5.3886
10
60.6123
20
5.221
10
60.5382
20
5.0552
10
60.37
20
5.1
10
60.2019
20
5.1422
10
60.0337
20
5.1817
10
59.8656
20
5.2181
10
59.8671
20
5.2213
10
59.8687
20
5.2245
10
59.8703
20
5.2276
10
59.8719
20
5.2308
10
59.3381
20
5.3518
10
58.9327
20
5.588
10
58.6559
20
5.9396
10
58.5076
20
6.4068
10
58.9077
20
6.4199
10
59.2164
20
6.5446
10
59.4336
20
6.7807
10
59.5589
20
7.1281
10
59.0298
20
7.5501
10
58.6485
20
7.985
10
58.4151
20
8.433
10
58.3299
20
8.8943
10
58.615
20
8.9315
10
58.8296
20
9.1254
10
58.9736
20
9.4755
10
59.047
20
9.9815
10
58.6876
20
10.1497
10
58.4219
20
10.3813
10
58.2498
20
10.6763
10
58.1713
20
11.0348
10
58.2923
20
11.0637
10
58.3921
20
11.1308
10
58.4708
20
11.2356
10
58.5288
20
11.3775
10
58.3435
20
12.045
10
58.1591
20
12.6202
10
57.9755
20
13.1033
10
57.7927
20
13.4948
10
57.6098
20
13.1033
10
57.4259
20
12.6202
10
57.2409
20
12.045
10
57.0545
20
11.3775
10
57.1125
20
11.2356
10
57.1914
20
11.1308
10
57.2918
20
11.0637
10
57.4141
20
11.0348
10
57.3355
20
10.6763
10
57.1634
20
10.3813
10
56.8977
20
10.1497
10
56.5384
20
9.9815
10
56.6105
20
9.4755
10
56.7538
20
9.1254
10
56.9682
20
8.9315
10
57.2533
20
8.8943
10
57.1683
20
8.433
10
56.9355
20
7.985
10
56.5543
20
7.5501
10
56.0244
20
7.1281
10
56.1509
20
6.7807
10
56.3686
20
6.5446
10
56.6776
20
6.4199
10
57.0778
20
6.4068
10
56.936
20
5.926
10
56.6738
20
5.5446
10
56.283
20
5.2786
10
55.7558
20
5.1441
10
55.7002
20
5.1314
10
55.6447
20
5.1184
10
55.5892
20
5.1051
10
55.5337
20
5.0912
10
55.2442
20
5.3713
10
54.9583
20
5.5888
10
54.7359
20
5.88
10
54.6369
20
6.3815
10
54.8613
20
6.4056
10
55.0303
20
6.5285
10
55.1437
20
6.7497
10
55.2016
20
7.0689
10
54.918
20
7.1748
10
54.7082
20
7.3211
10
54.5722
20
7.5079
10
54.5099
20
7.7352
10
54.6059
20
7.7525
10
54.6847
20
7.7946
10
54.7464
20
7.861
10
54.7913
20
7.9509
10
54.6457
20
8.3722
10
54.5007
20
8.7351
10
54.3561
20
9.0402
10
54.2117
20
9.2877
10
54.0672
20
9.0402
10
53.9224
20
8.7351
10
53.7768
20
8.3722
10
53.63
20
7.9509
10
53.6752
20
7.861
10
53.7376
20
7.7946
10
53.8171
20
7.7525
10
53.9135
20
7.7352
10
53.8512
20
7.5079
10
53.7151
20
7.3211
10
53.5053
20
7.1748
10
53.2218
20
7.0689
10
53.2797
20
6.7497
10
53.3931
20
6.5285
10
53.562
20
6.4056
10
53.7866
20
6.3815
10
53.72
20
6.0904
10
53.5362
20
5.8075
10
53.2354
20
5.5329
10
52.8178
20
5.2668
10
52.9173
20
5.0479
10
53.0888
20
4.899
10
53.3321
20
4.8203
10
53.647
20
4.812
10
53.635
20
4.7608
10
53.621
20
4.7115
10
53.6047
20
4.6639
10
53.5856
20
4.6174
10
52.9935
20
4.5054
10
52.4307
20
4.4159
10
51.8949
20
4.3479
10
51.3837
20
4.3001
10
51.6055
20
4.4417
10
51.8014
20
4.6095
10
51.972
20
4.8034
10
52.1177
20
5.0235
10
51.4776
20
5.1393
10
50.9916
20
5.3662
10
50.6598
20
5.7041
10
50.4826
20
6.153
10
50.9622
20
6.1653
10
51.3319
20
6.2847
10
51.5921
20
6.5112
10
51.7433
20
6.8447
10
51.1084
20
7.2492
10
50.6508
20
7.6664
10
50.3708
20
8.0963
10
50.269
20
8.5389
10
50.6108
20
8.5758
10
50.8681
20
8.7624
10
51.0406
20
9.0984
10
51.1278
20
9.5838
10
50.6967
20
9.7457
10
50.3779
20
9.9683
10
50.1718
20
10.2519
10
50.0787
20
10.597
10
50.2234
20
10.6236
10
50.3433
20
10.6872
10
50.4382
20
10.7877
10
50.508
20
10.9248
10
50.2851
20
11.5658
10
50.0636
20
12.1181
10
49.8432
20
12.5819
10
49.6239
20
12.9575
10
49.4045
20
12.5819
10
49.1842
20
12.1181
10
48.9626
20
11.5658
10
48.7397
20
10.9248
10
48.8092
20
10.7877
10
48.9036
20
10.6872
10
49.0235
20
10.6236
10
49.1691
20
10.597
10
49.076
20
10.2519
10
48.8698
20
9.9683
10
48.551
20
9.7457
10
48.12
20
9.5838
10
48.2068
20
9.0984
10
48.3785
20
8.7624
10
48.6351
20
8.5758
10
48.9766
20
8.5389
10
48.8759
20
8.0963
10
48.5964
20
7.6664
10
48.1384
20
7.2492
10
47.5024
20
6.8447
10
47.6538
20
6.5112
10
47.9148
20
6.2847
10
48.2852
20
6.1653
10
48.7651
20
6.153
10
48.5879
20
5.7041
10
48.2562
20
5.3662
10
47.7702
20
5.1393
10
47.1301
20
5.0235
10
47.1951
20
4.9156
10
47.2662
20
4.8141
10
47.3433
20
4.7189
10
47.4262
20
4.6301
10
47.1258
20
4.7073
10
46.8268
20
4.7895
10
46.5282
20
4.8761
10
46.229
20
4.9664
10
46.0346
20
5.0614
10
45.9493
20
5.1316
10
45.9155
20
5.2451
10
45.8758
20
5.4698
10
46.1649
20
5.4769
10
46.3882
20
5.5489
10
46.5456
20
5.6855
10
46.6373
20
5.8865
10
46.2545
20
6.13
10
45.9789
20
6.3812
10
45.8103
20
6.6399
10
45.7489
20
6.906
10
45.9547
20
6.9277
10
46.1092
20
7.0401
10
46.2126
20
7.2424
10
46.265
20
7.5342
10
46.0055
20
7.6318
10
45.8139
20
7.7661
10
45.6897
20
7.9372
10
45.6326
20
8.1455
10
45.7202
20
8.1614
10
45.7928
20
8.1995
10
45.8503
20
8.2597
10
45.8927
20
8.3422
10
45.7582
20
8.7278
10
45.6246
20
9.0598
10
45.4917
20
9.3387
10
45.3597
20
9.5648
10
45.2276
20
9.3387
10
45.095
20
9.0598
10
44.962
20
8.7278
10
44.8288
20
8.3422
10
44.87
20
8.2597
10
44.9268
20
8.1995
10
44.9992
20
8.1614
10
45.0868
20
8.1455
10
45.0305
20
7.9372
10
44.9062
20
7.7661
10
44.7141
20
7.6318
10
44.4544
20
7.5342
10
44.5068
20
7.2424
10
44.6101
20
7.0401
10
44.7646
20
6.9277
10
44.9705
20
6.906
10
44.9093
20
6.6399
10
44.7415
20
6.3812
10
44.4666
20
6.13
10
44.0842
20
5.8865
10
44.1143
20
5.7925
10
44.1572
20
5.7104
10
44.2127
20
5.6402
10
44.281
20
5.5819
10
43.7878
20
5.7268
10
43.2736
20
5.8683
10
42.7348
20
6.0046
10
42.1679
20
6.134
10
42.273
20
6.2383
10
42.3696
20
6.3511
10
42.4579
20
6.4722
10
42.5381
20
6.6014
10
41.8809
20
6.7201
10
41.3818
20
6.9525
10
41.041
20
7.2992
10
40.8586
20
7.7605
10
41.3511
20
7.7728
10
41.7311
20
7.8951
10
41.9984
20
8.1273
10
42.1531
20
8.4691
10
41.5018
20
8.8836
10
41.0328
20
9.3115
10
40.7458
20
9.7529
10
40.6407
20
10.2078
10
40.9921
20
10.245
10
41.2562
20
10.436
10
41.4331
20
10.7804
10
41.5228
20
11.2781
10
41.0797
20
11.4443
10
40.7526
20
11.6729
10
40.5408
20
11.9637
10
40.444
20
12.3166
10
40.5939
20
12.3448
10
40.7171
20
12.4105
10
40.8137
20
12.5138
10
40.884
20
12.6551
10
40.6562
20
13.3111
10
40.4297
20
13.8768
10
40.204
20
14.3526
10
39.9787
20
14.7385
10
39.7542
20
14.3526
10
39.5284
20
13.8768
10
39.3014
20
13.3111
10
39.0734
20
12.6551
10
39.1436
20
12.5138
10
39.2402
20
12.4105
10
39.3634
20
12.3448
10
39.5134
20
12.3166
10
39.4174
20
11.9637
10
39.2056
20
11.6729
10
38.878
20
11.4443
10
38.4346
20
11.2781
10
38.5251
20
10.7804
10
38.7019
20
10.436
10
38.9655
20
10.245
10
39.3166
20
10.2078
10
39.2123
20
9.7529
10
38.9253
20
9.3115
10
38.4558
20
8.8836
10
37.8043
20
8.4691
10
37.9589
20
8.1273
10
38.2262
20
7.8951
10
38.6062
20
7.7728
10
39.0988
20
7.7605
10
38.9527
20
7.3596
10
38.6918
20
7.0419
10
38.3156
20
6.8075
10
37.8233
20
6.6564
10
37.5317
20
6.666
10
37.2342
20
6.6728
10
36.9304
20
6.6773
10
36.6198
20
6.6797
10
36.6542
20
6.7293
10
36.6879
20
6.7799
10
36.7208
20
6.8317
10
36.753
20
6.8849
10
36.0271
20
7.0161
10
35.4765
20
7.2733
10
35.1004
20
7.6561
10
34.898
20
8.1645
10
35.4418
20
8.1789
10
35.8615
20
8.3142
10
36.1574
20
8.5709
10
36.33
20
8.9493
10
35.6094
20
9.4073
10
35.0908
20
9.8802
10
34.774
20
10.3678
10
34.659
20
10.8699
10
35.046
20
10.9107
10
35.3374
20
11.1218
10
35.5329
20
11.5032
10
35.632
20
12.0544
10
35.1434
20
12.2368
10
34.7819
20
12.4888
10
34.5478
20
12.8102
10
34.4412
20
13.2008
10
34.6061
20
13.2313
10
34.7423
20
13.3037
10
34.8495
20
13.4176
10
34.9277
20
13.573
10
34.6758
20
14.2985
10
34.425
20
14.9236
10
34.1754
20
15.4488
10
33.9272
20
15.8744
10
33.678
20
15.4488
10
33.4285
20
14.9236
10
33.1782
20
14.2985
10
32.9267
20
13.573
10
33.0044
20
13.4176
10
33.111
20
13.3037
10
33.2464
20
13.2313
10
33.4111
20
13.2008
10
33.3056
20
12.8102
10
33.0721
20
12.4888
10
32.7108
20
12.2368
10
32.2223
20
12.0544
10
32.3211
20
11.5032
10
32.5161
20
11.1218
10
32.8074
20
10.9107
10
33.1953
20
10.8699
10
33.0799
20
10.3678
10
32.7627
20
9.8802
10
32.244
20
9.4073
10
31.5243
20
8.9493
10
31.6957
20
8.5709
10
31.991
20
8.3142
10
32.4104
20
8.1789
10
32.9542
20
8.1645
10
32.7527
20
7.6561
10
32.3767
20
7.2733
10
31.8263
20
7.0161
10
31.1013
20
6.8849
10
31.1655
20
6.7794
10
31.2345
20
6.6786
10
31.3083
20
6.5826
10
31.3869
20
6.4914
10
31.1695
20
6.4803
10
30.9588
20
6.4689
10
30.7548
20
6.4572
10
30.5577
20
6.4449
10
30.2817
20
6.5485
10
30.0693
20
6.6977
10
29.9208
20
6.8929
10
29.8364
20
7.1345
10
30.154
20
7.1428
10
30.3993
20
7.222
10
30.572
20
7.3721
10
30.6719
20
7.5934
10
30.2515
20
7.8611
10
29.9485
20
8.1373
10
29.7629
20
8.4219
10
29.6947
20
8.7145
10
29.9216
20
8.7387
10
30.0918
20
8.8623
10
30.2057
20
9.0854
10
30.2637
20
9.4083
10
29.9785
20
9.5145
10
29.7674
20
9.6618
10
29.6304
20
9.85
10
29.5678
20
10.0788
10
29.6641
20
10.0961
10
29.7439
20
10.1383
10
29.8069
20
10.2046
10
29.8533
20
10.2945
10
29.7058
20
10.7189
10
29.5587
20
11.0848
10
29.4125
20
11.3924
10
29.2674
20
11.6419
10
29.1223
20
11.3924
10
28.9761
20
11.0848
10
28.829
20
10.7189
10
28.6815
20
10.2945
10
28.7279
20
10.2046
10
28.791
20
10.1383
10
28.8707
20
10.0961
10
28.9671
20
10.0788
10
28.9044
20
9.85
10
28.7674
20
9.6618
10
28.5563
20
9.5145
10
28.2712
20
9.4083
10
28.3291
20
9.0854
10
28.443
20
8.8623
10
28.6132
20
8.7387
10
28.8402
20
8.7145
10
28.7719
20
8.4219
10
28.5864
20
8.1373
10
28.2834
20
7.8611
10
27.863
20
7.5934
10
27.9629
20
7.3721
10
28.1356
20
7.222
10
28.3808
20
7.1428
10
28.6985
20
7.1345
10
28.5807
20
6.8367
10
28.3608
20
6.6126
10
28.039
20
6.4623
10
27.6155
20
6.3857
10
27.6654
20
6.3044
10
27.7204
20
6.2284
10
27.7805
20
6.1576
10
27.846
20
6.0917
10
27.585
20
6.0145
10
27.3365
20
5.928
10
27.0979
20
5.8308
10
26.8667
20
5.7215
10
26.8036
20
5.8314
10
26.7575
20
5.942
10
26.7284
20
6.0535
10
26.7165
20
6.1657
10
26.9425
20
6.1899
10
27.1128
20
6.3133
10
27.2272
20
6.5357
10
27.2855
20
6.8574
10
26.9995
20
6.9648
10
26.7884
20
7.1125
10
26.6519
20
7.3003
10
26.5896
20
7.5279
10
26.6859
20
7.5465
10
26.7654
20
7.5892
10
26.8279
20
7.6558
10
26.8731
20
7.7457
10
26.7259
20
8.1701
10
26.5793
20
8.536
10
26.4331
20
8.8436
10
26.2872
20
9.0931
10
26.1424
20
8.8436
10
25.9968
20
8.536
10
25.8505
20
8.1701
10
25.7034
20
7.7457
10
25.7485
20
7.6558
10
25.8109
20
7.5892
10
25.8904
20
7.5465
10
25.9868
20
7.5279
10
25.9253
20
7.3003
10
25.7887
20
7.1125
10
25.5772
20
6.9648
10
25.2909
20
6.8574
10
25.3491
20
6.5357
10
25.4635
20
6.3133
10
25.6338
20
6.1899
10
25.8599
20
6.1657
10
25.7928
20
5.873
10
25.6076
20
5.5883
10
25.3042
20
5.3114
10
24.8827
20
5.0425
10
24.9362
20
4.8977
10
25.0175
20
4.7802
10
25.1266
20
4.6898
10
25.2634
20
4.6259
10
25.0506
20
4.4521
10
24.8269
20
4.2668
10
24.5909
20
4.0696
10
24.3412
20
3.8602
10
23.9748
20
4.1116
10
23.7103
20
4.3707
10
23.5482
20
4.6374
10
23.4888
20
4.9114
10
23.7157
20
4.9356
10
23.8859
20
5.059
10
23.9998
20
5.2814
10
24.0578
20
5.6031
10
23.7726
20
5.7105
10
23.5615
20
5.8582
10
23.4245
20
6.046
10
23.3619
20
6.2736
10
23.4582
20
6.2919
10
23.538
20
6.3341
10
23.601
20
6.4006
10
23.6474
20
6.4914
10
23.4999
20
6.9158
10
23.3528
20
7.2817
10
23.2066
20
7.5893
10
23.0615
20
7.8388
10
22.9164
20
7.5893
10
22.7701
20
7.2817
10
22.623
20
6.9158
10
22.4756
20
6.4914
10
22.522
20
6.4006
10
22.5851
20
6.3341
10
22.6648
20
6.2919
10
22.7612
20
6.2736
10
22.6985
20
6.046
10
22.5615
20
5.8582
10
22.3504
20
5.7105
10
22.0653
20
5.6031
10
22.1232
20
5.2814
10
22.2371
20
5.059
10
22.4073
20
4.9356
10
22.6343
20
4.9114
10
22.566
20
4.6176
10
22.3804
20
4.3324
10
22.0774
20
4.056
10
21.657
20
3.7882
10
21.7569
20
3.5678
10
21.9296
20
3.4178
10
22.1749
20
3.3388
10
22.4925
20
3.3314
10
22.3747
20
3.0336
10
22.1549
20
2.8095
10
21.8331
20
2.6592
10
21.4096
20
2.5826
10
21.538
20
2.3961
10
21.6948
20
2.2394
10
21.8798
20
2.112
10
22.0928
20
2.0136
10
21.4029
20
1.5734
10
20.849
20
1.3883
10
20.4015
20
1.4202
10
20.0305
20
1.6308
10
20.2998
20
1.7256
10
20.5304
20
1.8606
10
20.7226
20
2.0356
10
20.8765
20
2.2505
10
20.452
20
2.3271
10
20.1301
20
2.4774
10
19.9101
20
2.7015
10
19.7915
20
2.9993
10
20.11
20
3.0076
10
20.3554
20
3.0865
10
20.5282
20
3.2361
10
20.6291
20
3.4562
10
20.2075
20
3.7251
10
19.9041
20
4.0019
10
19.7189
20
4.2866
10
19.6519
20
4.5793
10
19.8779
20
4.6035
10
20.0482
20
4.7269
10
20.1625
20
4.9493
10
20.2208
20
5.271
10
19.9348
20
5.3784
10
19.7237
20
5.5261
10
19.5873
20
5.7139
10
19.525
20
5.9415
10
19.6213
20
5.9601
10
19.7008
20
6.0029
10
19.7632
20
6.0694
10
19.8084
20
6.1594
10
19.6612
20
6.5838
10
19.5149
20
6.9496
10
19.3693
20
7.2572
10
19.2246
20
7.5067
10
19.0786
20
7.2572
10
18.9324
20
6.9496
10
18.7858
20
6.5838
10
18.6387
20
6.1594
10
18.6838
20
6.0694
10
18.7462
20
6.0029
10
18.8257
20
5.9601
10
18.9221
20
5.9415
10
18.8606
20
5.7139
10
18.724
20
5.5261
10
18.5125
20
5.3784
10
18.2262
20
5.271
10
18.2844
20
4.9493
10
18.3988
20
4.7269
10
18.5691
20
4.6035
10
18.7952
20
4.5793
10
18.769
20
4.4016
10
18.7003
20
4.2272
10
18.589
20
4.0559
10
18.4356
20
3.8877
10
18.2278
20
4.1215
10
17.9993
20
4.3448
10
17.7479
20
4.5542
10
17.4711
20
4.7464
10
17.5254
20
4.8147
10
17.5773
20
4.8861
10
17.6269
20
4.9606
10
17.6742
20
5.0383
10
17.0412
20
5.153
10
16.5605
20
5.377
10
16.2321
20
5.7108
10
16.0561
20
6.1551
10
16.5303
20
6.167
10
16.8965
20
6.2849
10
17.1545
20
6.5088
10
17.304
20
6.8383
10
16.6753
20
7.2393
10
16.2232
20
7.6524
10
15.9471
20
8.0778
10
15.8467
20
8.5157
10
16.1841
20
8.5518
10
16.4381
20
8.7362
10
16.6084
20
9.0689
10
16.6948
20
9.55
10
16.2681
20
9.709
10
15.9526
20
9.9289
10
15.7486
20
10.2094
10
15.6563
20
10.5505
10
15.8006
20
10.577
10
15.9196
20
10.6403
10
16.0132
20
10.7402
10
16.0814
20
10.8762
10
15.8613
20
11.5088
10
15.642
20
12.0546
10
15.4234
20
12.5137
10
15.2058
20
12.8856
10
14.9892
20
12.5137
10
14.7713
20
12.0546
10
14.5522
20
11.5088
10
14.3322
20
10.8762
10
14.4004
20
10.7402
10
14.4939
20
10.6403
10
14.6129
20
10.577
10
14.7573
20
10.5505
10
14.6649
20
10.2094
10
14.4609
20
9.9289
10
14.1455
20
9.709
10
13.7188
20
9.55
10
13.8052
20
9.0689
10
13.9755
20
8.7362
10
14.2295
20
8.5518
10
14.567
20
8.5157
10
14.4675
20
8.0778
10
14.1913
20
7.6524
10
13.7386
20
7.2393
10
13.1096
20
6.8383
10
13.259
20
6.5088
10
13.517
20
6.2849
10
13.8832
20
6.167
10
14.3576
20
6.1551
10
14.2702
20
5.7495
10
14.1365
20
5.4595
10
13.8679
20
5.2666
10
13.3761
20
5.1525
10
12.9676
20
5.0681
10
12.5668
20
4.9804
10
12.1735
20
4.8899
10
11.7876
20
4.7972
10
11.4357
20
5.0367
10
11.1827
20
5.2829
10
11.028
20
5.5357
10
10.9712
20
5.7955
10
11.1845
20
5.8182
10
11.345
20
5.9341
10
11.4524
20
6.1436
10
11.5063
20
6.447
10
11.2379
20
6.5482
10
11.0391
20
6.6868
10
10.9105
20
6.8631
10
10.8527
20
7.0773
10
10.9431
20
7.0948
10
11.0177
20
7.1347
10
11.0764
20
7.1972
10
11.1192
20
7.2825
10
10.9812
20
7.6819
10
10.8434
20
8.0265
10
10.7061
20
8.3164
10
10.5693
20
8.5516
10
10.4324
20
8.3164
10
10.2948
20
8.0265
10
10.1564
20
7.6819
10
10.0172
20
7.2825
10
10.0604
20
7.1972
10
10.1198
20
7.1347
10
10.1951
20
7.0948
10
10.2859
20
7.0773
10
10.2271
20
6.8631
10
10.0984
20
6.6868
10
9.8995
20
6.5482
10
9.6302
20
6.447
10
9.6849
20
6.1436
10
9.7922
20
5.9341
10
9.9523
20
5.8182
10
10.1653
20
5.7955
10
10.1018
20
5.519
10
9.9276
20
5.2509
10
9.6426
20
4.9907
10
9.2473
20
4.738
10
9.3223
20
4.5584
10
9.4458
20
4.426
10
9.6182
20
4.3412
10
9.8396
20
4.3044
10
9.4035
20
4.196
10
8.977
20
4.0939
10
8.5593
20
3.9998
10
8.1495
20
3.9152
10
7.9533
20
4.0389
10
7.7995
20
4.1938
10
7.6885
20
4.3797
10
7.6207
20
4.5962
10
7.9839
20
4.605
10
8.2645
20
4.6949
10
8.4622
20
4.866
10
8.5768
20
5.1187
10
8.0953
20
5.4252
10
7.7487
20
5.7416
10
7.5369
20
6.0676
10
7.46
20
6.4026
10
7.7185
20
6.4304
10
7.9134
20
6.5713
10
8.0444
20
6.8256
10
8.1115
20
7.1937
10
7.7843
20
7.3166
10
7.5422
20
7.4856
10
7.3853
20
7.7005
10
7.314
20
7.9615
10
7.4247
20
7.9817
10
7.5158
20
8.0297
10
7.5874
20
8.1054
10
7.6398
20
8.209
10
7.4717
20
8.6941
10
7.304
20
9.1121
10
7.1371
20
9.4636
10
6.9714
20
9.7488
10
6.8047
20
9.4636
10
6.6377
20
9.1121
10
6.4699
20
8.6941
10
6.3009
20
8.209
10
6.3535
20
8.1054
10
6.4257
20
8.0297
10
6.5168
20
7.9817
10
6.6266
20
7.9615
10
6.5555
20
7.7005
10
6.3994
20
7.4856
10
6.1581
20
7.3166
10
5.8313
20
7.1937
10
5.8979
20
6.8256
10
6.0282
20
6.5713
10
6.2224
20
6.4304
10
6.4807
20
6.4026
10
6.4037
20
6.0676
10
6.1922
20
5.7416
10
5.8462
20
5.4252
10
5.366
20
5.1187
10
5.4802
20
4.866
10
5.6774
20
4.6949
10
5.9578
20
4.605
10
6.322
20
4.5962
10
6.2021
20
4.281
10
5.9851
20
4.0365
10
5.6706
20
3.8631
10
5.2581
20
3.7608
10
4.8685
20
3.8317
10
4.4834
20
3.9318
10
4.1022
20
4.0633
10
3.7246
20
4.2282
10
3.7039
20
4.2722
10
3.6862
20
4.3181
10
3.6713
20
4.3656
10
3.659
20
4.4143
10
4.0222
20
4.4222
10
4.3028
20
4.5027
10
4.5005
20
4.6553
10
4.6151
20
4.8797
10
4.1336
20
5.1521
10
3.787
20
5.4333
10
3.5752
20
5.7233
10
3.4983
20
6.0219
10
3.7567
20
6.0456
10
3.9514
20
6.1707
10
4.0818
20
6.397
10
4.1476
20
6.7241
10
3.8216
20
6.8332
10
3.5802
20
6.983
10
3.4236
20
7.1736
10
3.3523
20
7.4052
10
3.463
20
7.4239
10
3.5541
20
7.4671
10
3.6257
20
7.5349
10
3.6781
20
7.6273
10
3.51
20
8.058
10
3.3423
20
8.4298
10
3.1753
20
8.7424
10
3.0097
20
8.9958
10
2.843
20
8.7424
10
2.676
20
8.4298
10
2.5082
20
8.058
10
2.3392
20
7.6273
10
2.3915
20
7.5349
10
2.4631
20
7.4671
10
2.5542
20
7.4239
10
2.6649
20
7.4052
10
2.5938
20
7.1736
10
2.4377
20
6.983
10
2.1964
20
6.8332
10
1.8696
20
6.7241
10
1.9353
20
6.397
10
2.0657
20
6.1707
10
2.2604
20
6.0456
10
2.5189
20
6.0219
10
2.4915
20
5.8477
10
2.4187
20
5.6771
10
2.3003
20
5.5097
10
2.1361
20
5.345
10
1.7041
20
5.781
10
1.2707
20
6.2791
10
0.8353
20
6.8427
10
0.3974
20
7.475
10
0.0068
20
8.2757
10
0
20
8.8977
10
0.3584
20
9.3409
10
1.0637
20
9.605
10
8.1059
20
11.9134
10
13.1969
20
15.0643
10
16.7356
20
18.288
10
19.121
20
20.8154
10
20.0636
20
21.6195
10
20.7911
20
21.8558
10
21.5413
20
21.6159
10
22.5518
20
20.991
10
24.1343
20
19.6998
10
25.1034
20
18.2032
10
25.3552
20
16.4543
10
24.7854
20
14.4064
10
23.8083
20
12.1489
10
23.4875
20
10.7903
10
24.183
20
10.7131
10
26.2554
20
12.2997
10
27.7715
20
14.1606
10
28.4263
20
15.8239
10
29.2141
20
17.4541
10
31.1288
20
19.2163
10
32.644
20
20.7998
10
35.0413
20
23.5033
10
37.4775
20
25.8506
10
39.1094
20
26.3656
10
38.6742
20
24.702
10
36.6993
20
21.9975
10
34.5266
20
19.4735
10
33.4978
20
18.3512
10
33.7421
20
18.0195
10
34.8145
20
18.1757
10
36.5246
20
19.4089
10
38.6821
20
22.3087
10
39.5591
20
23.5966
10
40.5334
20
24.8448
10
41.4275
20
26.047
10
42.0643
20
27.1969
10
43.2344
20
29.5922
10
44.3047
20
30.7173
10
45.6883
20
31.666
10
47.7985
20
33.5318
0
LWPOLYLINE
8
0
90
33
70
1
10
2.5065
20
2.7667
10
2.7491
20
2.6844
10
3.2828
20
2.5034
10
3.8165
20
2.3223
10
4.0591
20
2.24
10
3.8165
20
2.1577
10
3.2828
20
1.9767
10
2.7491
20
1.7956
10
2.5065
20
1.7133
10
2.4318
20
1.4456
10
2.2675
20
0.8567
10
2.1032
20
0.2677
10
2.0285
20
0
10
1.9541
20
0.2677
10
1.7905
20
0.8567
10
1.6269
20
1.4456
10
1.5526
20
1.7133
10
1.31
20
1.7956
10
0.7763
20
1.9767
10
0.2426
20
2.1577
10
0
20
2.24
10
0.2426
20
2.3223
10
0.7763
20
2.5034
10
1.31
20
2.6844
10
1.5526
20
2.7667
10
1.6269
20
3.0347
10
1.7905
20
3.6244
10
1.9541
20
4.2141
10
2.0285
20
4.4821
10
2.1032
20
4.2141
10
2.2675
20
3.6244
10
2.4318
20
3.0347
10
2.5065
20
2.7667
0
LWPOLYLINE
8
0
90
25
70
1
10
2.1129
20
14.4525
10
4.7958
20
16.545
10
7.96
20
17.4418
10
11.2317
20
17.1099
10
14.2371
20
15.5164
10
12.0525
20
15.7898
10
9.9438
20
15.3728
10
8.0674
20
14.3234
10
6.5801
20
12.699
10
5.6838
20
10.6883
10
5.4694
20
8.5493
10
5.9272
20
6.4488
10
7.0476
20
4.5535
10
8.7116
20
3.1109
10
10.6959
20
2.2836
10
12.8385
20
2.1111
10
14.9774
20
2.6329
10
12.1736
20
0.7047
10
8.9618
20
0
10
5.7166
20
0.5288
10
2.813
20
2.3008
10
0.8014
20
5.0451
10
0
20
8.2346
10
0.4301
20
11.4952
10
2.1129
20
14.4525
0
LWPOLYLINE
8
0
90
17
70
1
10
0
20
0.9371
10
0.0738
20
1.3025
10
0.2752
20
1.601
10
0.5737
20
1.8023
10
0.9391
20
1.8762
10
1.3041
20
1.8023
10
1.6019
20
1.601
10
1.8025
20
1.3025
10
1.8761
20
0.9371
10
1.8025
20
0.572
10
1.6019
20
0.2742
10
1.3041
20
0.0735
10
0.9391
20
0
10
0.5737
20
0.0735
10
0.2752
20
0.2742
10
0.0738
20
0.572
10
0
20
0.9371
0
LWPOLYLINE
8
0
90
17
70
1
10
0.937
20
1.8761
10
1.302
20
1.8026
10
1.5998
20
1.6019
10
1.8004
20
1.3041
10
1.874
20
0.9391
10
1.8004
20
0.5738
10
1.5998
20
0.2752
10
1.302
20
0.0739
10
0.937
20
0
10
0.5719
20
0.0739
10
0.2741
20
0.2752
10
0.0735
20
0.5738
10
0
20
0.9391
10
0.0735
20
1.3041
10
0.2741
20
1.6019
10
0.5719
20
1.8026
10
0.937
20
1.8761
0
LWPOLYLINE
8
0
90
33
70
1
10
2.5065
20
1.7133
10
2.4318
20
1.4456
10
2.2675
20
0.8567
10
2.1032
20
0.2677
10
2.0285
20
0
10
1.9541
20
0.2677
10
1.7905
20
0.8567
10
1.6268
20
1.4456
10
1.5525
20
1.7133
10
1.3099
20
1.7956
10
0.7762
20
1.9767
10
0.2425
20
2.1577
10
0
20
2.24
10
0.2425
20
2.3223
10
0.7762
20
2.5034
10
1.3099
20
2.6844
10
1.5525
20
2.7667
10
1.6268
20
3.0347
10
1.7905
20
3.6244
10
1.9541
20
4.2141
10
2.0285
20
4.4821
10
2.1032
20
4.2141
10
2.2675
20
3.6244
10
2.4318
20
3.0347
10
2.5065
20
2.7667
10
2.749
20
2.6844
10
3.2827
20
2.5034
10
3.8164
20
2.3223
10
4.059
20
2.24
10
3.8164
20
2.1577
10
3.2827
20
1.9767
10
2.749
20
1.7956
10
2.5065
20
1.7133
0
LWPOLYLINE
8
0
90
17
70
1
10
1.8761
20
0.9392
10
1.8022
20
0.5738
10
1.6008
20
0.2752
10
1.3023
20
0.0739
10
0.937
20
0
10
0.5719
20
0.0739
10
0.2741
20
0.2752
10
0.0735
20
0.5738
10
0
20
0.9392
10
0.0735
20
1.3042
10
0.2741
20
1.602
10
0.5719
20
1.8027
10
0.937
20
1.8762
10
1.3023
20
1.8027
10
1.6008
20
1.602
10
1.8022
20
1.3042
10
1.8761
20
0.9392
0
LWPOLYLINE
8
0
90
33
70
1
10
1.4912
20
1.0195
10
1.4469
20
0.8602
10
1.3494
20
0.5098
10
1.252
20
0.1593
10
1.2077
20
0
10
1.1634
20
0.1593
10
1.066
20
0.5098
10
0.9685
20
0.8602
10
0.9243
20
1.0195
10
0.7798
20
1.0684
10
0.4621
20
1.176
10
0.1444
20
1.2836
10
0
20
1.3325
10
0.1444
20
1.3814
10
0.4621
20
1.4891
10
0.7798
20
1.5967
10
0.9243
20
1.6456
10
0.9685
20
1.8049
10
1.066
20
2.1554
10
1.1634
20
2.5058
10
1.2077
20
2.6651
10
1.252
20
2.5058
10
1.3494
20
2.1554
10
1.4469
20
1.8049
10
1.4912
20
1.6456
10
1.6356
20
1.5967
10
1.9533
20
1.4891
10
2.271
20
1.3814
10
2.4155
20
1.3325
10
2.271
20
1.2836
10
1.9533
20
1.176
10
1.6356
20
1.0684
10
1.4912
20
1.0195
0
LWPOLYLINE
8
0
90
17
70
1
10
0.9392
20
1.8761
10
1.3033
20
1.8022
10
1.6012
20
1.6009
10
1.8023
20
1.3024
10
1.8762
20
0.937
10
1.8023
20
0.5729
10
1.6012
20
0.275
10
1.3033
20
0.0738
10
0.9392
20
0
10
0.5738
20
0.0738
10
0.2752
20
0.275
10
0.0738
20
0.5729
10
0
20
0.937
10
0.0738
20
1.3024
10
0.2752
20
1.6009
10
0.5738
20
1.8022
10
0.9392
20
1.8761
0
LWPOLYLINE
8
0
90
17
70
1
10
0
20
0.937
10
0.0738
20
1.3024
10
0.2752
20
1.6009
10
0.5737
20
1.8022
10
0.9391
20
1.8761
10
1.3032
20
1.8022
10
1.6011
20
1.6009
10
1.8022
20
1.3024
10
1.8761
20
0.937
10
1.8022
20
0.572
10
1.6011
20
0.2742
10
1.3032
20
0.0735
10
0.9391
20
0
10
0.5737
20
0.0735
10
0.2752
20
0.2742
10
0.0738
20
0.572
10
0
20
0.937
0
LWPOLYLINE
8
0
90
17
70
1
10
0
20
0.937
10
0.0735
20
1.3024
10
0.2742
20
1.6009
10
0.572
20
1.8023
10
0.9371
20
1.8762
10
1.3024
20
1.8023
10
1.6009
20
1.6009
10
1.8023
20
1.3024
10
1.8762
20
0.937
10
1.8023
20
0.572
10
1.6009
20
0.2742
10
1.3024
20
0.0735
10
0.9371
20
0
10
0.572
20
0.0735
10
0.2742
20
0.2742
10
0.0735
20
0.572
10
0
20
0.937
0
LWPOLYLINE
8
0
90
17
70
1
10
0.937
20
1.8761
10
1.3023
20
1.8026
10
1.6008
20
1.6019
10
1.8022
20
1.3041
10
1.8761
20
0.9391
10
1.8022
20
0.5738
10
1.6008
20
0.2752
10
1.3023
20
0.0739
10
0.937
20
0
10
0.5719
20
0.0739
10
0.2741
20
0.2752
10
0.0735
20
0.5738
10
0
20
0.9391
10
0.0735
20
1.3041
10
0.2741
20
1.6019
10
0.5719
20
1.8026
10
0.937
20
1.8761
0
LWPOLYLINE
8
0
90
17
70
1
10
1.8762
20
0.937
10
1.8023
20
0.572
10
1.6009
20
0.2742
10
1.3024
20
0.0735
10
0.9371
20
0
10
0.572
20
0.0735
10
0.2742
20
0.2742
10
0.0735
20
0.572
10
0
20
0.937
10
0.0735
20
1.3024
10
0.2742
20
1.6009
10
0.572
20
1.8023
10
0.9371
20
1.8762
10
1.3024
20
1.8023
10
1.6009
20
1.6009
10
1.8023
20
1.3024
10
1.8762
20
0.937
0
LWPOLYLINE
8
0
90
33
70
1
10
2.2103
20
1.5123
10
2.1445
20
1.276
10
1.9998
20
0.7562
10
1.8551
20
0.2363
10
1.7894
20
0
10
1.7236
20
0.2363
10
1.5789
20
0.7562
10
1.4342
20
1.276
10
1.3685
20
1.5123
10
1.1546
20
1.5847
10
0.6842
20
1.7439
10
0.2138
20
1.9031
10
0
20
1.9755
10
0.2138
20
2.0479
10
0.6842
20
2.2072
10
1.1546
20
2.3664
10
1.3685
20
2.4388
10
1.4342
20
2.6751
10
1.5789
20
3.195
10
1.7236
20
3.7148
10
1.7894
20
3.9511
10
1.8551
20
3.7148
10
1.9998
20
3.195
10
2.1445
20
2.6751
10
2.2103
20
2.4388
10
2.4238
20
2.3664
10
2.8935
20
2.2072
10
3.3632
20
2.0479
10
3.5767
20
1.9755
10
3.3632
20
1.9031
10
2.8935
20
1.7439
10
2.4238
20
1.5847
10
2.2103
20
1.5123
0
LWPOLYLINE
8
0
90
33
70
1
10
2.9252
20
2.0031
10
2.8383
20
1.6901
10
2.6471
20
1.0016
10
2.4559
20
0.313
10
2.369
20
0
10
2.282
20
0.313
10
2.0908
20
1.0016
10
1.8996
20
1.6901
10
1.8127
20
2.0031
10
1.5294
20
2.0989
10
0.9063
20
2.3098
10
0.2832
20
2.5207
10
0
20
2.6165
10
0.2832
20
2.7127
10
0.9063
20
2.9243
10
1.5294
20
3.1358
10
1.8127
20
3.232
10
1.8996
20
3.5447
10
2.0908
20
4.2325
10
2.282
20
4.9203
10
2.369
20
5.233
10
2.4559
20
4.9203
10
2.6471
20
4.2325
10
2.8383
20
3.5447
10
2.9252
20
3.232
10
3.2084
20
3.1358
10
3.8316
20
2.9243
10
4.4547
20
2.7127
10
4.738
20
2.6165
10
4.4547
20
2.5207
10
3.8316
20
2.3098
10
3.2084
20
2.0989
10
2.9252
20
2.0031
0
LWPOLYLINE
8
0
90
33
70
1
10
2.0729
20
4.1458
10
2.1492
20
3.8979
10
2.3172
20
3.3526
10
2.4851
20
2.8073
10
2.5615
20
2.5594
10
2.8093
20
2.4834
10
3.3547
20
2.3162
10
3.9
20
2.1489
10
4.1479
20
2.0729
10
3.9
20
1.9969
10
3.3547
20
1.8297
10
2.8093
20
1.6624
10
2.5615
20
1.5864
10
2.4851
20
1.3385
10
2.3172
20
0.7932
10
2.1492
20
0.2479
10
2.0729
20
0
10
1.9968
20
0.2479
10
1.8296
20
0.7932
10
1.6624
20
1.3385
10
1.5864
20
1.5864
10
1.3385
20
1.6624
10
0.7932
20
1.8297
10
0.2478
20
1.9969
10
0
20
2.0729
10
0.2478
20
2.1489
10
0.7932
20
2.3162
10
1.3385
20
2.4834
10
1.5864
20
2.5594
10
1.6624
20
2.8073
10
1.8296
20
3.3526
10
1.9968
20
3.8979
10
2.0729
20
4.1458
0
LWPOLYLINE
8
0
90
33
70
1
10
2.0729
20
4.1479
10
2.1489
20
3.9
10
2.3161
20
3.3547
10
2.4833
20
2.8094
10
2.5594
20
2.5615
10
2.8072
20
2.4855
10
3.3526
20
2.3183
10
3.8979
20
2.151
10
4.1458
20
2.075
10
3.8979
20
1.9987
10
3.3526
20
1.8307
10
2.8072
20
1.6627
10
2.5594
20
1.5864
10
2.4833
20
1.3385
10
2.3161
20
0.7932
10
2.1489
20
0.2479
10
2.0729
20
0
10
1.9968
20
0.2479
10
1.8296
20
0.7932
10
1.6624
20
1.3385
10
1.5864
20
1.5864
10
1.3385
20
1.6627
10
0.7932
20
1.8307
10
0.2478
20
1.9987
10
0
20
2.075
10
0.2478
20
2.151
10
0.7932
20
2.3183
10
1.3385
20
2.4855
10
1.5864
20
2.5615
10
1.6624
20
2.8094
10
1.8296
20
3.3547
10
1.9968
20
3.9
10
2.0729
20
4.1479
0
LWPOLYLINE
8
0
90
33
70
1
10
3.4266
20
3.4265
10
3.758
20
3.3247
10
4.4873
20
3.1008
10
5.2166
20
2.8769
10
5.5481
20
2.7751
10
5.2166
20
2.6733
10
4.4873
20
2.4494
10
3.758
20
2.2254
10
3.4266
20
2.1236
10
3.3248
20
1.7918
10
3.1008
20
1.0618
10
2.8769
20
0.3318
10
2.7751
20
0
10
2.6729
20
0.3318
10
2.4483
20
1.0618
10
2.2236
20
1.7918
10
2.1215
20
2.1236
10
1.79
20
2.2254
10
1.0607
20
2.4494
10
0.3314
20
2.6733
10
0
20
2.7751
10
0.3314
20
2.8769
10
1.0607
20
3.1008
10
1.79
20
3.3247
10
2.1215
20
3.4265
10
2.2236
20
3.7583
10
2.4483
20
4.4884
10
2.6729
20
5.2184
10
2.7751
20
5.5502
10
2.8769
20
5.2184
10
3.1008
20
4.4884
10
3.3248
20
3.7583
10
3.4266
20
3.4265
0
LWPOLYLINE
8
0
90
33
70
1
10
2.5615
20
2.5615
10
2.8093
20
2.4855
10
3.3547
20
2.3183
10
3.9
20
2.151
10
4.1479
20
2.075
10
3.9
20
1.9987
10
3.3547
20
1.8307
10
2.8093
20
1.6627
10
2.5615
20
1.5864
10
2.4854
20
1.3385
10
2.3182
20
0.7932
10
2.151
20
0.2479
10
2.075
20
0
10
1.9986
20
0.2479
10
1.8307
20
0.7932
10
1.6627
20
1.3385
10
1.5864
20
1.5864
10
1.3385
20
1.6627
10
0.7932
20
1.8307
10
0.2478
20
1.9987
10
0
20
2.075
10
0.2478
20
2.151
10
0.7932
20
2.3183
10
1.3385
20
2.4855
10
1.5864
20
2.5615
10
1.6627
20
2.8094
10
1.8307
20
3.3547
10
1.9986
20
3.9
10
2.075
20
4.1479
10
2.151
20
3.9
10
2.3182
20
3.3547
10
2.4854
20
2.8094
10
2.5615
20
2.5615
0
LWPOLYLINE
8
0
90
17
70
1
10
0
20
0.937
10
0.0738
20
1.302
10
0.2752
20
1.5998
10
0.5738
20
1.8005
10
0.9392
20
1.874
10
1.3042
20
1.8005
10
1.602
20
1.5998
10
1.8026
20
1.302
10
1.8762
20
0.937
10
1.8026
20
0.572
10
1.602
20
0.2742
10
1.3042
20
0.0735
10
0.9392
20
0
10
0.5738
20
0.0735
10
0.2752
20
0.2742
10
0.0738
20
0.572
10
0
20
0.937
0
LWPOLYLINE
8
0
90
17
70
1
10
0.9391
20
1.8761
10
1.3032
20
1.8026
10
1.6011
20
1.6019
10
1.8022
20
1.3041
10
1.8761
20
0.9391
10
1.8022
20
0.5738
10
1.6011
20
0.2752
10
1.3032
20
0.0739
10
0.9391
20
0
10
0.5737
20
0.0739
10
0.2752
20
0.2752
10
0.0738
20
0.5738
10
0
20
0.9391
10
0.0738
20
1.3041
10
0.2752
20
1.6019
10
0.5737
20
1.8026
10
0.9391
20
1.8761
0
LWPOLYLINE
8
0
90
17
70
1
10
0
20
0.9391
10
0.0735
20
1.3042
10
0.2741
20
1.602
10
0.5719
20
1.8027
10
0.937
20
1.8762
10
1.302
20
1.8027
10
1.5998
20
1.602
10
1.8004
20
1.3042
10
1.874
20
0.9391
10
1.8004
20
0.5738
10
1.5998
20
0.2752
10
1.302
20
0.0739
10
0.937
20
0
10
0.5719
20
0.0739
10
0.2741
20
0.2752
10
0.0735
20
0.5738
10
0
20
0.9391
0
LWPOLYLINE
8
0
90
33
70
1
10
1.9883
20
1.3601
10
1.9294
20
1.1476
10
1.8
20
0.6801
10
1.6706
20
0.2125
10
1.6118
20
0
10
1.5526
20
0.2125
10
1.4225
20
0.6801
10
1.2923
20
1.1476
10
1.2332
20
1.3601
10
1.0405
20
1.4255
10
0.6166
20
1.5695
10
0.1927
20
1.7135
10
0
20
1.7789
10
0.1927
20
1.844
10
0.6166
20
1.9873
10
1.0405
20
2.1305
10
1.2332
20
2.1956
10
1.2923
20
2.4081
10
1.4225
20
2.8756
10
1.5526
20
3.3431
10
1.6118
20
3.5556
10
1.6706
20
3.3431
10
1.8
20
2.8756
10
1.9294
20
2.4081
10
1.9883
20
2.1956
10
2.1806
20
2.1305
10
2.6038
20
1.9873
10
3.0269
20
1.844
10
3.2193
20
1.7789
10
3.0269
20
1.7135
10
2.6038
20
1.5695
10
2.1806
20
1.4255
10
1.9883
20
1.3601
0
LWPOLYLINE
8
0
90
17
70
1
10
1.2289
20
0.6134
10
1.1806
20
0.3748
10
1.0488
20
0.1798
10
0.8532
20
0.0482
10
0.6134
20
0
10
0.3748
20
0.0482
10
0.1798
20
0.1798
10
0.0482
20
0.3748
10
0
20
0.6134
10
0.0482
20
0.8532
10
0.1798
20
1.0488
10
0.3748
20
1.1806
10
0.6134
20
1.2289
10
0.8532
20
1.1806
10
1.0488
20
1.0488
10
1.1806
20
0.8532
10
1.2289
20
0.6134
0
ENDSEC
0
EOF
