0
SECTION
2
ENTITIES
0
LWPOLYLINE
8
0
90
5
70
1
10
0
20
0
10
2500
20
0
10
2500
20
1250
10
0
20
1250
10
0
20
0
0
LWPOLYLINE
8
0
90
228
70
1
10
0.1298
20
0
10
23.9502
20
0
10
24.0497
20
0.09
10
24.08
20
0.5717
10
24.074
20
1.0544
10
24.0317
20
1.5352
10
23.9533
20
2.0115
10
23.8392
20
2.4805
10
23.6903
20
2.9396
10
23.5071
20
3.3863
10
23.2909
20
3.8178
10
23.0429
20
4.2319
10
22.7643
20
4.6261
10
22.4569
20
4.9983
10
22.1224
20
5.3463
10
21.7627
20
5.6681
10
21.7299
20
5.7189
10
21.7325
20
5.7793
10
22.1722
20
7.2132
10
22.2807
20
7.6881
10
22.3605
20
8.1685
10
22.4112
20
8.6529
10
22.4327
20
9.1395
10
22.4248
20
9.6265
10
22.3906
20
10.0046
10
22.3293
20
10.3792
10
22.2413
20
10.7484
10
22.127
20
11.1104
10
21.9869
20
11.4632
10
21.7988
20
11.842
10
21.584
20
12.2064
10
21.3437
20
12.5545
10
21.0791
20
12.8846
10
18.1964
20
15.6744
10
17.3006
20
16.7957
10
17.1038
20
17.1015
10
16.9299
20
17.4209
10
16.7799
20
17.7523
10
16.6547
20
18.0937
10
16.5549
20
18.4434
10
16.515
20
18.6926
10
16.504
20
18.9447
10
16.5219
20
19.1963
10
16.5686
20
19.4443
10
16.6516
20
19.6841
10
16.7661
20
19.9106
10
16.9101
20
20.1195
10
17.081
20
20.3072
10
17.1651
20
20.3656
10
17.2639
20
20.3924
10
17.366
20
20.3843
10
17.4595
20
20.3423
10
17.6973
20
20.2046
10
17.9517
20
20.1007
10
18.2179
20
20.0328
10
18.491
20
20.0019
10
18.7657
20
20.0088
10
19.0369
20
20.0533
10
19.2994
20
20.1345
10
19.5483
20
20.2509
10
19.7789
20
20.4004
10
19.9868
20
20.58
10
20.1682
20
20.7865
10
20.3195
20
21.0158
10
20.438
20
21.2638
10
20.5214
20
21.5256
10
20.568
20
21.7964
10
20.5772
20
22.0711
10
20.5485
20
22.3444
10
20.4827
20
22.6112
10
20.381
20
22.8664
10
20.2452
20
23.1054
10
20.078
20
23.3234
10
19.8824
20
23.5164
10
19.6622
20
23.6809
10
19.4216
20
23.8136
10
19.1651
20
23.912
10
18.8974
20
23.9744
10
18.6238
20
23.9995
10
18.3493
20
23.9868
10
18.0791
20
23.9367
10
17.8183
20
23.8499
10
17.5719
20
23.7283
10
17.3445
20
23.574
10
17.1404
20
23.39
10
16.9635
20
23.1798
10
16.8946
20
23.1119
10
16.8077
20
23.0695
10
16.7119
20
23.0569
10
16.617
20
23.0755
10
16.5329
20
23.1232
10
16.1648
20
23.3823
10
15.7777
20
23.6119
10
15.3738
20
23.8106
10
14.9556
20
23.9771
10
14.5257
20
24.1105
10
14.0867
20
24.21
10
13.9973
20
24.2458
10
13.9238
20
24.3081
10
13.8739
20
24.3905
10
13.8527
20
24.4845
10
13.8624
20
24.5803
10
14.04
20
26
10
14.0214
20
26.2723
10
13.9659
20
26.5396
10
13.8744
20
26.7968
10
13.7489
20
27.0392
10
13.5914
20
27.2622
10
13.4051
20
27.4617
10
13.1934
20
27.6339
10
12.9601
20
27.7758
10
12.7098
20
27.8845
10
12.4469
20
27.9582
10
12.1765
20
27.9953
10
11.9035
20
27.9953
10
11.6331
20
27.9582
10
11.3703
20
27.8845
10
11.1199
20
27.7758
10
10.8867
20
27.6339
10
10.6749
20
27.4617
10
10.4886
20
27.2622
10
10.3312
20
27.0392
10
10.2056
20
26.7968
10
10.1142
20
26.5396
10
10.0586
20
26.2723
10
10.04
20
26
10
10.2177
20
24.5803
10
10.2273
20
24.4845
10
10.2061
20
24.3905
10
10.1562
20
24.3081
10
10.0828
20
24.2458
10
9.9934
20
24.2099
10
9.5556
20
24.1068
10
9.1267
20
23.9713
10
8.7091
20
23.8042
10
8.3052
20
23.6063
10
7.9171
20
23.3789
10
7.5471
20
23.1232
10
7.463
20
23.0755
10
7.3682
20
23.0569
10
7.2723
20
23.0695
10
7.1854
20
23.1119
10
7.1166
20
23.1798
10
6.9396
20
23.39
10
6.7355
20
23.574
10
6.5081
20
23.7283
10
6.2617
20
23.8499
10
6.0009
20
23.9367
10
5.7308
20
23.9868
10
5.4563
20
23.9995
10
5.1826
20
23.9744
10
4.915
20
23.912
10
4.6584
20
23.8136
10
4.4178
20
23.6809
10
4.1976
20
23.5164
10
4.0021
20
23.3234
10
3.8348
20
23.1054
10
3.699
20
22.8664
10
3.5973
20
22.6112
10
3.5315
20
22.3444
10
3.5029
20
22.0711
10
3.512
20
21.7964
10
3.5587
20
21.5256
10
3.642
20
21.2638
10
3.7605
20
21.0158
10
3.9118
20
20.7865
10
4.0932
20
20.58
10
4.3011
20
20.4004
10
4.5317
20
20.2509
10
4.7806
20
20.1345
10
5.0432
20
20.0533
10
5.3143
20
20.0088
10
5.589
20
20.0019
10
5.8621
20
20.0328
10
6.1283
20
20.1007
10
6.3828
20
20.2046
10
6.6206
20
20.3423
10
6.714
20
20.3843
10
6.8161
20
20.3924
10
6.915
20
20.3656
10
6.9991
20
20.3072
10
7.1675
20
20.1234
10
7.3098
20
19.9187
10
7.4235
20
19.6969
10
7.5067
20
19.4619
10
7.5577
20
19.2178
10
7.5757
20
18.9692
10
7.5541
20
18.646
10
7.5003
20
18.3265
10
7.4147
20
18.014
10
7.2983
20
17.7117
10
7.1522
20
17.4225
10
6.9025
20
16.9884
10
6.6253
20
16.5713
10
6.3218
20
16.1729
10
5.9933
20
15.7949
10
2.9965
20
12.8794
10
2.7481
20
12.5716
10
2.5214
20
12.2475
10
2.3176
20
11.9086
10
2.1377
20
11.5564
10
1.9824
20
11.1927
10
1.8411
20
10.7503
10
1.7368
20
10.2977
10
1.67
20
9.8381
10
1.6414
20
9.3745
10
1.651
20
8.9101
10
1.7143
20
8.2694
10
1.8159
20
7.6337
10
1.9557
20
7.0052
10
2.1331
20
6.3863
10
2.3474
20
5.7793
10
2.3501
20
5.7189
10
2.3174
20
5.6681
10
1.9576
20
5.3463
10
1.6231
20
4.9983
10
1.3157
20
4.6261
10
1.0372
20
4.2319
10
0.7891
20
3.8178
10
0.5729
20
3.3863
10
0.3898
20
2.9396
10
0.2408
20
2.4805
10
0.1268
20
2.0115
10
0.0484
20
1.5352
10
0.006
20
1.0544
10
0
20
0.5717
10
0.0303
20
0.09
10
0.1298
20
0
0
LWPOLYLINE
8
0
90
46
70
1
10
20.4449
20
7.435
10
20.4251
20
7.7179
10
20.3661
20
7.9952
10
20.2692
20
8.2617
10
20.136
20
8.5121
10
19.9693
20
8.7415
10
19.7723
20
8.9455
10
19.5489
20
9.1201
10
19.3033
20
9.2619
10
19.0403
20
9.3681
10
18.7652
20
9.4367
10
18.4832
20
9.4664
10
18.1997
20
9.4565
10
17.9205
20
9.4072
10
17.6508
20
9.3196
10
17.3959
20
9.1953
10
17.1608
20
9.0367
10
16.95
20
8.847
10
16.7678
20
8.6297
10
16.6175
20
8.3892
10
16.5021
20
8.1302
10
16.424
20
7.8576
10
16.3845
20
7.5767
10
16.3845
20
7.2932
10
16.424
20
7.0123
10
16.5021
20
6.7397
10
16.6175
20
6.4807
10
16.7678
20
6.2402
10
16.95
20
6.0229
10
17.1608
20
5.8332
10
17.3959
20
5.6746
10
17.6508
20
5.5503
10
17.9205
20
5.4627
10
18.1997
20
5.4134
10
18.4832
20
5.4035
10
18.7652
20
5.4332
10
19.0403
20
5.5018
10
19.3033
20
5.608
10
19.5489
20
5.7498
10
19.7723
20
5.9244
10
19.9693
20
6.1284
10
20.136
20
6.3578
10
20.2692
20
6.6082
10
20.3661
20
6.8747
10
20.4251
20
7.1521
10
20.4449
20
7.435
0
LWPOLYLINE
8
0
90
46
70
1
10
7.7005
20
7.435
10
7.6807
20
7.7179
10
7.6217
20
7.9952
10
7.5248
20
8.2617
10
7.3916
20
8.5121
10
7.2249
20
8.7415
10
7.0279
20
8.9455
10
6.8045
20
9.1201
10
6.5589
20
9.2619
10
6.2959
20
9.3681
10
6.0208
20
9.4367
10
5.7388
20
9.4664
10
5.4553
20
9.4565
10
5.1761
20
9.4072
10
4.9064
20
9.3196
10
4.6515
20
9.1953
10
4.4164
20
9.0367
10
4.2056
20
8.847
10
4.0234
20
8.6297
10
3.8731
20
8.3892
10
3.7577
20
8.1302
10
3.6796
20
7.8576
10
3.6401
20
7.5767
10
3.6401
20
7.2932
10
3.6796
20
7.0123
10
3.7577
20
6.7397
10
3.8731
20
6.4807
10
4.0234
20
6.2402
10
4.2056
20
6.0229
10
4.4164
20
5.8332
10
4.6515
20
5.6746
10
4.9064
20
5.5503
10
5.1761
20
5.4627
10
5.4553
20
5.4134
10
5.7388
20
5.4035
10
6.0208
20
5.4332
10
6.2959
20
5.5018
10
6.5589
20
5.608
10
6.8045
20
5.7498
10
7.0279
20
5.9244
10
7.2249
20
6.1284
10
7.3916
20
6.3578
10
7.5248
20
6.6082
10
7.6217
20
6.8747
10
7.6807
20
7.1521
10
7.7005
20
7.435
0
LWPOLYLINE
8
0
90
29
70
1
10
15.5376
20
22.2712
10
15.5181
20
22.4443
10
15.4606
20
22.6087
10
15.3679
20
22.7562
10
15.2447
20
22.8794
10
15.0972
20
22.9721
10
14.9328
20
23.0296
10
14.7597
20
23.0491
10
14.5866
20
23.0296
10
14.4221
20
22.9721
10
14.2746
20
22.8794
10
14.1514
20
22.7562
10
14.0588
20
22.6087
10
14.0012
20
22.4443
10
13.9817
20
22.2712
10
14.0012
20
22.0981
10
14.0588
20
21.9336
10
14.1514
20
21.7861
10
14.2746
20
21.6629
10
14.4221
20
21.5703
10
14.5866
20
21.5127
10
14.7597
20
21.4932
10
14.9328
20
21.5127
10
15.0972
20
21.5703
10
15.2447
20
21.6629
10
15.3679
20
21.7861
10
15.4606
20
21.9336
10
15.5181
20
22.0981
10
15.5376
20
22.2712
0
LWPOLYLINE
8
0
90
29
70
1
10
10.0983
20
22.2712
10
10.0788
20
22.4443
10
10.0213
20
22.6087
10
9.9286
20
22.7562
10
9.8054
20
22.8794
10
9.6579
20
22.9721
10
9.4935
20
23.0296
10
9.3204
20
23.0491
10
9.1473
20
23.0296
10
8.9828
20
22.9721
10
8.8353
20
22.8794
10
8.7121
20
22.7562
10
8.6195
20
22.6087
10
8.5619
20
22.4443
10
8.5424
20
22.2712
10
8.5619
20
22.0981
10
8.6195
20
21.9336
10
8.7121
20
21.7861
10
8.8353
20
21.6629
10
8.9828
20
21.5703
10
9.1473
20
21.5127
10
9.3204
20
21.4932
10
9.4935
20
21.5127
10
9.6579
20
21.5703
10
9.8054
20
21.6629
10
9.9286
20
21.7861
10
10.0213
20
21.9336
10
10.0788
20
22.0981
10
10.0983
20
22.2712
0
LWPOLYLINE
8
0
90
33
70
1
10
13.04
20
26
10
13.0208
20
26.1951
10
12.9639
20
26.3827
10
12.8715
20
26.5556
10
12.7471
20
26.7071
10
12.5956
20
26.8315
10
12.4227
20
26.9239
10
12.2351
20
26.9808
10
12.04
20
27
10
11.8449
20
26.9808
10
11.6573
20
26.9239
10
11.4844
20
26.8315
10
11.3329
20
26.7071
10
11.2085
20
26.5556
10
11.1161
20
26.3827
10
11.0592
20
26.1951
10
11.04
20
26
10
11.0592
20
25.8049
10
11.1161
20
25.6173
10
11.2085
20
25.4444
10
11.3329
20
25.2929
10
11.4844
20
25.1685
10
11.6573
20
25.0761
10
11.8449
20
25.0192
10
12.04
20
25
10
12.2351
20
25.0192
10
12.4227
20
25.0761
10
12.5956
20
25.1685
10
12.7471
20
25.2929
10
12.8715
20
25.4444
10
12.9639
20
25.6173
10
13.0208
20
25.8049
10
13.04
20
26
0
LWPOLYLINE
8
0
90
31
70
1
10
3.854
20
2.4616
10
3.8343
20
2.6487
10
3.7762
20
2.8277
10
3.6821
20
2.9906
10
3.5562
20
3.1304
10
3.404
20
3.241
10
3.2321
20
3.3176
10
3.048
20
3.3567
10
2.8599
20
3.3567
10
2.6759
20
3.3176
10
2.504
20
3.241
10
2.3518
20
3.1304
10
2.2259
20
2.9906
10
2.1318
20
2.8277
10
2.0736
20
2.6487
10
2.054
20
2.4616
10
2.0736
20
2.2745
10
2.1318
20
2.0955
10
2.2259
20
1.9326
10
2.3518
20
1.7928
10
2.504
20
1.6822
10
2.6759
20
1.6057
10
2.8599
20
1.5665
10
3.048
20
1.5665
10
3.2321
20
1.6057
10
3.404
20
1.6822
10
3.5562
20
1.7928
10
3.6821
20
1.9326
10
3.7762
20
2.0955
10
3.8343
20
2.2745
10
3.854
20
2.4616
0
LWPOLYLINE
8
0
90
29
70
1
10
12.833
20
19.9901
10
12.8131
20
20.1665
10
12.7545
20
20.3342
10
12.66
20
20.4845
10
12.5344
20
20.6101
10
12.3841
20
20.7046
10
12.2165
20
20.7632
10
12.04
20
20.7831
10
11.8636
20
20.7632
10
11.6959
20
20.7046
10
11.5456
20
20.6101
10
11.42
20
20.4845
10
11.3255
20
20.3342
10
11.2669
20
20.1665
10
11.247
20
19.9901
10
11.2669
20
19.8136
10
11.3255
20
19.646
10
11.42
20
19.4957
10
11.5456
20
19.3701
10
11.6959
20
19.2756
10
11.8636
20
19.217
10
12.04
20
19.1971
10
12.2165
20
19.217
10
12.3841
20
19.2756
10
12.5344
20
19.3701
10
12.66
20
19.4957
10
12.7545
20
19.646
10
12.8131
20
19.8136
10
12.833
20
19.9901
0
LWPOLYLINE
8
0
90
31
70
1
10
22.0261
20
2.4616
10
22.0064
20
2.6487
10
21.9483
20
2.8277
10
21.8542
20
2.9906
10
21.7283
20
3.1304
10
21.5761
20
3.241
10
21.4042
20
3.3176
10
21.2201
20
3.3567
10
21.032
20
3.3567
10
20.8479
20
3.3176
10
20.6761
20
3.241
10
20.5238
20
3.1304
10
20.3979
20
2.9906
10
20.3039
20
2.8277
10
20.2457
20
2.6487
10
20.2261
20
2.4616
10
20.2457
20
2.2745
10
20.3039
20
2.0955
10
20.3979
20
1.9326
10
20.5238
20
1.7928
10
20.6761
20
1.6822
10
20.8479
20
1.6057
10
21.032
20
1.5665
10
21.2201
20
1.5665
10
21.4042
20
1.6057
10
21.5761
20
1.6822
10
21.7283
20
1.7928
10
21.8542
20
1.9326
10
21.9483
20
2.0955
10
22.0064
20
2.2745
10
22.0261
20
2.4616
0
LWPOLYLINE
8
0
90
31
70
1
10
6.4016
20
22
10
6.3819
20
22.1871
10
6.3238
20
22.3661
10
6.2297
20
22.529
10
6.1038
20
22.6688
10
5.9516
20
22.7794
10
5.7797
20
22.856
10
5.5957
20
22.8951
10
5.4075
20
22.8951
10
5.2235
20
22.856
10
5.0516
20
22.7794
10
4.8994
20
22.6688
10
4.7735
20
22.529
10
4.6794
20
22.3661
10
4.6213
20
22.1871
10
4.6016
20
22
10
4.6213
20
21.8129
10
4.6794
20
21.6339
10
4.7735
20
21.471
10
4.8994
20
21.3312
10
5.0516
20
21.2206
10
5.2235
20
21.144
10
5.4075
20
21.1049
10
5.5957
20
21.1049
10
5.7797
20
21.144
10
5.9516
20
21.2206
10
6.1038
20
21.3312
10
6.2297
20
21.471
10
6.3238
20
21.6339
10
6.3819
20
21.8129
10
6.4016
20
22
0
LWPOLYLINE
8
0
90
31
70
1
10
19.4784
20
22
10
19.4588
20
22.1871
10
19.4006
20
22.3661
10
19.3065
20
22.529
10
19.1806
20
22.6688
10
19.0284
20
22.7794
10
18.8565
20
22.856
10
18.6725
20
22.8951
10
18.4843
20
22.8951
10
18.3003
20
22.856
10
18.1284
20
22.7794
10
17.9762
20
22.6688
10
17.8503
20
22.529
10
17.7562
20
22.3661
10
17.6981
20
22.1871
10
17.6784
20
22
10
17.6981
20
21.8129
10
17.7562
20
21.6339
10
17.8503
20
21.471
10
17.9762
20
21.3312
10
18.1284
20
21.2206
10
18.3003
20
21.144
10
18.4843
20
21.1049
10
18.6725
20
21.1049
10
18.8565
20
21.144
10
19.0284
20
21.2206
10
19.1806
20
21.3312
10
19.3065
20
21.471
10
19.4006
20
21.6339
10
19.4588
20
21.8129
10
19.4784
20
22
0
LWPOLYLINE
8
0
90
31
70
1
10
8.397
20
2.4616
10
8.3773
20
2.6487
10
8.3192
20
2.8277
10
8.2251
20
2.9906
10
8.0992
20
3.1304
10
7.947
20
3.241
10
7.7751
20
3.3176
10
7.5911
20
3.3567
10
7.4029
20
3.3567
10
7.2189
20
3.3176
10
7.047
20
3.241
10
6.8948
20
3.1304
10
6.7689
20
2.9906
10
6.6748
20
2.8277
10
6.6167
20
2.6487
10
6.597
20
2.4616
10
6.6167
20
2.2745
10
6.6748
20
2.0955
10
6.7689
20
1.9326
10
6.8948
20
1.7928
10
7.047
20
1.6822
10
7.2189
20
1.6057
10
7.4029
20
1.5665
10
7.5911
20
1.5665
10
7.7751
20
1.6057
10
7.947
20
1.6822
10
8.0992
20
1.7928
10
8.2251
20
1.9326
10
8.3192
20
2.0955
10
8.3773
20
2.2745
10
8.397
20
2.4616
0
LWPOLYLINE
8
0
90
31
70
1
10
12.94
20
2.4616
10
12.9203
20
2.6487
10
12.8622
20
2.8277
10
12.7681
20
2.9906
10
12.6422
20
3.1304
10
12.49
20
3.241
10
12.3181
20
3.3176
10
12.1341
20
3.3567
10
11.9459
20
3.3567
10
11.7619
20
3.3176
10
11.59
20
3.241
10
11.4378
20
3.1304
10
11.3119
20
2.9906
10
11.2178
20
2.8277
10
11.1597
20
2.6487
10
11.14
20
2.4616
10
11.1597
20
2.2745
10
11.2178
20
2.0955
10
11.3119
20
1.9326
10
11.4378
20
1.7928
10
11.59
20
1.6822
10
11.7619
20
1.6057
10
11.9459
20
1.5665
10
12.1341
20
1.5665
10
12.3181
20
1.6057
10
12.49
20
1.6822
10
12.6422
20
1.7928
10
12.7681
20
1.9326
10
12.8622
20
2.0955
10
12.9203
20
2.2745
10
12.94
20
2.4616
0
LWPOLYLINE
8
0
90
31
70
1
10
17.483
20
2.4616
10
17.4634
20
2.6487
10
17.4052
20
2.8277
10
17.3112
20
2.9906
10
17.1853
20
3.1304
10
17.033
20
3.241
10
16.8612
20
3.3176
10
16.6771
20
3.3567
10
16.489
20
3.3567
10
16.3049
20
3.3176
10
16.133
20
3.241
10
15.9808
20
3.1304
10
15.8549
20
2.9906
10
15.7608
20
2.8277
10
15.7027
20
2.6487
10
15.683
20
2.4616
10
15.7027
20
2.2745
10
15.7608
20
2.0955
10
15.8549
20
1.9326
10
15.9808
20
1.7928
10
16.133
20
1.6822
10
16.3049
20
1.6057
10
16.489
20
1.5665
10
16.6771
20
1.5665
10
16.8612
20
1.6057
10
17.033
20
1.6822
10
17.1853
20
1.7928
10
17.3112
20
1.9326
10
17.4052
20
2.0955
10
17.4634
20
2.2745
10
17.483
20
2.4616
0
LWPOLYLINE
8
0
90
33
70
1
10
14.2924
20
17.605
10
14.3367
20
17.914
10
14.413
20
18.2168
10
14.5206
20
18.5099
10
14.6582
20
18.7902
10
14.8243
20
19.0545
10
15.0532
20
18.994
10
14.9831
20
18.6555
10
14.9458
20
18.3118
10
14.9414
20
17.9661
10
14.9702
20
17.6216
10
15.0317
20
17.2814
10
15.1213
20
16.977
10
15.2368
20
16.6815
10
15.3773
20
16.3971
10
15.5419
20
16.1259
10
16.4042
20
15.1134
10
18.9931
20
12.8132
10
19.777
20
11.8113
10
19.8042
20
11.7039
10
19.7214
20
11.6157
10
16.2962
20
14.0946
10
15.9037
20
14.43
10
15.5379
20
14.7943
10
15.2009
20
15.1855
10
14.8949
20
15.6012
10
14.729
20
15.8556
10
14.5872
20
16.1242
10
14.4706
20
16.4046
10
14.3801
20
16.6945
10
14.3166
20
16.9915
10
14.2806
20
17.293
10
14.2924
20
17.605
0
LWPOLYLINE
8
0
90
36
70
1
10
9.2558
20
19.0545
10
9.3716
20
18.8679
10
9.4757
20
18.6743
10
9.603
20
18.3975
10
9.6999
20
18.1087
10
9.7655
20
17.8111
10
9.799
20
17.5083
10
9.7862
20
17.1855
10
9.7402
20
16.8658
10
9.6614
20
16.5525
10
9.5507
20
16.249
10
9.4092
20
15.9586
10
9.2386
20
15.6843
10
9.0025
20
15.3454
10
8.7455
20
15.022
10
8.4687
20
14.7154
10
8.1731
20
14.4269
10
7.86
20
14.1575
10
4.3586
20
11.6157
10
4.2759
20
11.7039
10
4.303
20
11.8113
10
5.0318
20
12.7535
10
7.706
20
15.1425
10
7.9532
20
15.38
10
8.1823
20
15.6351
10
8.3919
20
15.9064
10
8.5809
20
16.1925
10
8.7596
20
16.5034
10
8.9061
20
16.8306
10
9.0189
20
17.171
10
9.0967
20
17.521
10
9.1349
20
17.8901
10
9.136
20
18.261
10
9.0998
20
18.6303
10
9.0268
20
18.994
10
9.2558
20
19.0545
0
LWPOLYLINE
8
0
90
17
70
1
10
13.2681
20
6.5096
10
12.1107
20
7.667
10
12.0659
20
7.6929
10
12.0141
20
7.6929
10
11.9693
20
7.667
10
10.812
20
6.5096
10
10.7861
20
6.4648
10
10.7861
20
6.413
10
10.8119
20
6.3682
10
11.9693
20
5.2109
10
12.0141
20
5.185
10
12.0659
20
5.185
10
12.1107
20
5.2109
10
13.2681
20
6.3682
10
13.294
20
6.413
10
13.294
20
6.4648
10
13.2681
20
6.5096
0
LWPOLYLINE
8
0
90
38
70
1
10
15.5054
20
9.925
10
15.5668
20
9.9268
10
15.6176
20
9.8923
10
15.6387
20
9.8347
10
15.6295
20
9.5923
10
15.5833
20
9.3542
10
15.5012
20
9.1259
10
15.3852
20
8.913
10
15.2378
20
8.7203
10
15.0627
20
8.5524
10
14.864
20
8.4134
10
14.6463
20
8.3064
10
14.4148
20
8.234
10
14.1749
20
8.198
10
13.9324
20
8.199
10
13.6929
20
8.2373
10
13.462
20
8.3117
10
13.2453
20
8.4206
10
13.0478
20
8.5615
10
12.8742
20
8.7309
10
12.7286
20
8.9249
10
12.6145
20
9.1389
10
12.6083
20
9.2
10
12.6389
20
9.2532
10
12.6949
20
9.2784
10
12.755
20
9.2662
10
13.0044
20
9.1474
10
13.2674
20
9.063
10
13.5393
20
9.0145
10
13.8153
20
9.0028
10
14.0904
20
9.0282
10
14.3596
20
9.0901
10
14.618
20
9.1875
10
14.8612
20
9.3186
10
15.0846
20
9.481
10
15.2843
20
9.6719
10
15.4566
20
9.8878
10
15.5054
20
9.925
0
LWPOLYLINE
8
0
90
38
70
1
10
11.4656
20
9.1389
10
11.4718
20
9.2
10
11.4411
20
9.2532
10
11.3852
20
9.2784
10
11.325
20
9.2662
10
11.0756
20
9.1474
10
10.8126
20
9.063
10
10.5407
20
9.0145
10
10.2647
20
9.0028
10
9.9897
20
9.0282
10
9.7205
20
9.0901
10
9.462
20
9.1875
10
9.2189
20
9.3186
10
8.9954
20
9.481
10
8.7958
20
9.6719
10
8.6234
20
9.8878
10
8.5746
20
9.925
10
8.5133
20
9.9268
10
8.4625
20
9.8923
10
8.4414
20
9.8347
10
8.4505
20
9.5923
10
8.4967
20
9.3542
10
8.5788
20
9.1259
10
8.6949
20
8.913
10
8.8422
20
8.7203
10
9.0173
20
8.5524
10
9.216
20
8.4134
10
9.4337
20
8.3064
10
9.6652
20
8.234
10
9.9051
20
8.198
10
10.1476
20
8.199
10
10.3872
20
8.2373
10
10.618
20
8.3117
10
10.8347
20
8.4206
10
11.0322
20
8.5615
10
11.2058
20
8.7309
10
11.3514
20
8.9249
10
11.4656
20
9.1389
0
LWPOLYLINE
8
0
90
85
70
1
10
12.7598
20
17.7997
10
12.8191
20
17.7949
10
12.8652
20
17.7573
10
12.8817
20
17.7001
10
12.8892
20
17.3409
10
12.9316
20
16.9841
10
13.0083
20
16.6331
10
13.1186
20
16.2912
10
13.2616
20
15.9617
10
13.5185
20
15.5282
10
13.7997
20
15.1101
10
14.1042
20
14.7088
10
14.431
20
14.3254
10
14.7792
20
13.9612
10
14.9262
20
13.7764
10
15.0582
20
13.5807
10
15.1745
20
13.3752
10
15.2974
20
13.13
10
15.3869
20
12.8707
10
15.4414
20
12.6019
10
15.4601
20
12.3283
10
15.4425
20
12.0546
10
15.3859
20
11.8114
10
15.3002
20
11.577
10
15.1865
20
11.3546
10
15.0467
20
11.1478
10
14.8943
20
10.9665
10
14.716
20
10.8108
10
14.5158
20
10.6843
10
14.2985
20
10.59
10
14.0458
20
10.5327
10
13.7875
20
10.5115
10
13.5288
20
10.527
10
13.2749
20
10.5789
10
12.0914
20
11.0953
10
12.04
20
11.1095
10
11.9886
20
11.0953
10
11.7394
20
10.9473
10
11.4801
20
10.8179
10
11.2121
20
10.7078
10
10.9621
20
10.618
10
10.7039
20
10.5556
10
10.4405
20
10.5213
10
10.1749
20
10.5155
10
9.9814
20
10.5381
10
9.7925
20
10.5863
10
9.6118
20
10.6593
10
9.4423
20
10.7557
10
9.2565
20
10.9057
10
9.0902
20
11.0771
10
8.9461
20
11.2676
10
8.8261
20
11.4741
10
8.7322
20
11.6937
10
8.664
20
11.9191
10
8.6253
20
12.1514
10
8.6169
20
12.3867
10
8.6388
20
12.6212
10
8.6906
20
12.8509
10
8.8029
20
13.157
10
8.9461
20
13.4498
10
9.1188
20
13.7263
10
9.319
20
13.9836
10
9.6524
20
14.3346
10
9.9669
20
14.7027
10
10.2613
20
15.087
10
10.5351
20
15.4863
10
10.7873
20
15.8995
10
10.9414
20
16.2393
10
11.0605
20
16.593
10
11.1435
20
16.9567
10
11.1896
20
17.327
10
11.1983
20
17.7001
10
11.2149
20
17.7573
10
11.261
20
17.7949
10
11.3203
20
17.7997
10
11.3718
20
17.77
10
11.5123
20
17.6461
10
11.6753
20
17.5536
10
11.8537
20
17.4965
10
12.04
20
17.4772
10
12.2263
20
17.4965
10
12.4048
20
17.5536
10
12.5677
20
17.6461
10
12.7082
20
17.7699
10
12.7598
20
17.7997
0
LWPOLYLINE
8
0
90
194
70
1
10
83.2313
20
62.3853
10
84.2865
20
59.2521
10
85.3067
20
56.1073
10
86.292
20
52.9513
10
87.2421
20
49.7846
10
88.1569
20
46.6075
10
89.0364
20
43.4205
10
89.8804
20
40.2239
10
90.6888
20
37.0181
10
91.4616
20
33.8035
10
92.1985
20
30.5805
10
92.8996
20
27.3495
10
93.5648
20
24.111
10
94.1939
20
20.8652
10
94.7869
20
17.6127
10
95.3436
20
14.3537
10
95.8642
20
11.0888
10
96.3484
20
7.8183
10
96.7962
20
4.5426
10
96.9203
20
3.4108
10
97.009
20
2.2757
10
97.0622
20
1.1384
10
97.08
20
0
10
89.08
20
0
10
89.0601
20
1.0656
10
89.0003
20
2.1298
10
88.9008
20
3.191
10
88.7617
20
4.2477
10
88.5831
20
5.2985
10
88.3654
20
6.3418
10
88.1089
20
7.3763
10
87.8138
20
8.4005
10
87.4807
20
9.413
10
87.1099
20
10.4122
10
86.702
20
11.3969
10
86.2576
20
12.3657
10
85.7773
20
13.3172
10
85.2617
20
14.25
10
84.7116
20
15.1629
10
84.1278
20
16.0546
10
83.511
20
16.9239
10
82.8622
20
17.7695
10
82.1822
20
18.5902
10
81.472
20
19.3849
10
80.7325
20
20.1525
10
79.9649
20
20.892
10
79.1702
20
21.6022
10
78.3495
20
22.2822
10
77.5039
20
22.931
10
76.6346
20
23.5478
10
75.7429
20
24.1316
10
74.83
20
24.6817
10
73.8972
20
25.1973
10
72.9457
20
25.6776
10
71.9769
20
26.122
10
70.9922
20
26.5299
10
69.993
20
26.9007
10
68.9805
20
27.2338
10
67.9563
20
27.5289
10
66.9218
20
27.7854
10
65.8785
20
28.0031
10
64.8277
20
28.1817
10
63.771
20
28.3208
10
62.7098
20
28.4203
10
61.6456
20
28.4801
10
60.58
20
28.5
10
59.5144
20
28.4801
10
58.4502
20
28.4203
10
57.389
20
28.3208
10
56.3323
20
28.1817
10
55.2815
20
28.0031
10
54.2382
20
27.7854
10
53.2037
20
27.5289
10
52.1795
20
27.2338
10
51.167
20
26.9007
10
50.1678
20
26.5299
10
49.1831
20
26.122
10
48.2143
20
25.6776
10
47.2628
20
25.1973
10
46.33
20
24.6817
10
45.4171
20
24.1316
10
44.5254
20
23.5478
10
43.6561
20
22.931
10
42.8105
20
22.2822
10
41.9898
20
21.6022
10
41.1951
20
20.892
10
40.4275
20
20.1525
10
39.688
20
19.3849
10
38.9778
20
18.5902
10
38.2978
20
17.7695
10
37.649
20
16.9239
10
37.0322
20
16.0546
10
36.4484
20
15.1629
10
35.8983
20
14.25
10
35.3827
20
13.3172
10
34.9024
20
12.3657
10
34.458
20
11.3969
10
34.0501
20
10.4122
10
33.6793
20
9.413
10
33.3462
20
8.4005
10
33.0511
20
7.3763
10
32.7946
20
6.3418
10
32.5769
20
5.2985
10
32.3983
20
4.2477
10
32.2592
20
3.191
10
32.1597
20
2.1298
10
32.0999
20
1.0656
10
32.08
20
0
10
24.08
20
0
10
24.0938
20
1.0029
10
24.1351
20
2.005
10
24.204
20
3.0056
10
24.3003
20
4.0039
10
24.424
20
4.9993
10
24.8734
20
8.2503
10
25.3587
20
11.4961
10
25.8798
20
14.7364
10
26.4366
20
17.9707
10
27.0291
20
21.1987
10
27.6571
20
24.42
10
28.3206
20
27.6342
10
29.0196
20
30.8408
10
29.7539
20
34.0395
10
30.5234
20
37.2299
10
31.3281
20
40.4117
10
32.1679
20
43.5843
10
33.0426
20
46.7475
10
33.9521
20
49.9009
10
34.8964
20
53.044
10
35.8753
20
56.1766
10
36.8888
20
59.2981
10
37.9366
20
62.4083
10
39.0186
20
65.5067
10
39.3606
20
66.3733
10
39.7373
20
67.2253
10
40.1482
20
68.0614
10
40.5927
20
68.8802
10
41.07
20
69.6802
10
41.5792
20
70.4603
10
42.1197
20
71.2192
10
42.6904
20
71.9555
10
43.2905
20
72.6681
10
43.9189
20
73.3559
10
44.5747
20
74.0176
10
45.2567
20
74.6522
10
45.9639
20
75.2587
10
46.6951
20
75.836
10
47.449
20
76.3832
10
48.2245
20
76.8995
10
49.0202
20
77.384
10
49.835
20
77.8358
10
50.6673
20
78.2542
10
51.5159
20
78.6386
10
52.3794
20
78.9884
10
53.2563
20
79.3028
10
54.1453
20
79.5815
10
55.0448
20
79.824
10
55.9534
20
80.0299
10
56.8696
20
80.1987
10
57.7918
20
80.3304
10
58.7187
20
80.4246
10
59.6486
20
80.4811
10
60.58
20
80.5
10
61.5114
20
80.4811
10
62.4413
20
80.4246
10
63.3682
20
80.3304
10
64.2904
20
80.1987
10
65.2066
20
80.0299
10
66.1152
20
79.824
10
67.0147
20
79.5815
10
67.9037
20
79.3028
10
68.7806
20
78.9884
10
69.6441
20
78.6386
10
70.4927
20
78.2542
10
71.325
20
77.8358
10
72.1398
20
77.384
10
72.9355
20
76.8995
10
73.711
20
76.3832
10
74.4649
20
75.836
10
75.1961
20
75.2587
10
75.9033
20
74.6522
10
76.5853
20
74.0176
10
77.2411
20
73.3559
10
77.8695
20
72.6681
10
78.4696
20
71.9555
10
79.0403
20
71.2192
10
79.5808
20
70.4603
10
80.09
20
69.6802
10
80.5673
20
68.8802
10
81.0118
20
68.0614
10
81.4227
20
67.2253
10
81.7994
20
66.3733
10
82.1414
20
65.5067
10
83.2313
20
62.3853
0
LWPOLYLINE
8
0
90
123
70
1
10
60.58
20
72.5
10
59.8078
20
72.4801
10
59.0377
20
72.4205
10
58.2716
20
72.3213
10
57.5117
20
72.1828
10
56.7599
20
72.0054
10
56.0183
20
71.7895
10
55.2887
20
71.5358
10
54.5732
20
71.2448
10
53.8736
20
70.9173
10
53.1918
20
70.5543
10
52.5296
20
70.1566
10
51.8887
20
69.7254
10
51.2709
20
69.2618
10
50.6777
20
68.767
10
50.1108
20
68.2423
10
49.5717
20
67.6891
10
49.0618
20
67.1089
10
48.5824
20
66.5032
10
48.1348
20
65.8737
10
47.7203
20
65.2219
10
47.3398
20
64.5497
10
46.9945
20
63.8587
10
46.6851
20
63.1509
10
46.4127
20
62.4281
10
46.1778
20
61.6923
10
45.981
20
60.9453
10
45.823
20
60.1892
10
45.7042
20
59.426
10
45.6247
20
58.6576
10
45.585
20
57.8862
10
45.585
20
57.1138
10
45.6247
20
56.3424
10
45.7042
20
55.574
10
45.823
20
54.8108
10
45.981
20
54.0547
10
46.1778
20
53.3077
10
46.4127
20
52.5719
10
46.6851
20
51.8491
10
46.9945
20
51.1413
10
47.3398
20
50.4503
10
47.7203
20
49.7781
10
48.1348
20
49.1263
10
48.5824
20
48.4968
10
49.0618
20
47.8911
10
49.5717
20
47.3109
10
50.1108
20
46.7577
10
50.6777
20
46.233
10
51.2709
20
45.7382
10
51.8887
20
45.2746
10
52.5296
20
44.8434
10
53.1918
20
44.4457
10
53.8736
20
44.0827
10
54.5732
20
43.7552
10
55.2887
20
43.4642
10
56.0183
20
43.2105
10
56.7599
20
42.9946
10
57.5117
20
42.8172
10
58.2716
20
42.6787
10
59.0377
20
42.5795
10
59.8078
20
42.5199
10
60.58
20
42.5
10
61.3522
20
42.5199
10
62.1223
20
42.5795
10
62.8884
20
42.6787
10
63.6483
20
42.8172
10
64.4001
20
42.9946
10
65.1417
20
43.2105
10
65.8713
20
43.4642
10
66.5868
20
43.7552
10
67.2864
20
44.0827
10
67.9682
20
44.4457
10
68.6304
20
44.8434
10
69.2713
20
45.2746
10
69.8891
20
45.7382
10
70.4823
20
46.233
10
71.0492
20
46.7577
10
71.5883
20
47.3109
10
72.0982
20
47.8911
10
72.5776
20
48.4968
10
73.0252
20
49.1263
10
73.4397
20
49.7781
10
73.8202
20
50.4503
10
74.1655
20
51.1413
10
74.4749
20
51.8491
10
74.7473
20
52.5719
10
74.9822
20
53.3077
10
75.179
20
54.0547
10
75.337
20
54.8108
10
75.4558
20
55.574
10
75.5353
20
56.3424
10
75.575
20
57.1138
10
75.575
20
57.8862
10
75.5353
20
58.6576
10
75.4558
20
59.426
10
75.337
20
60.1892
10
75.179
20
60.9453
10
74.9822
20
61.6923
10
74.7473
20
62.4281
10
74.4749
20
63.1509
10
74.1655
20
63.8587
10
73.8202
20
64.5497
10
73.4397
20
65.2219
10
73.0252
20
65.8737
10
72.5776
20
66.5032
10
72.0982
20
67.1089
10
71.5883
20
67.6891
10
71.0492
20
68.2423
10
70.4823
20
68.767
10
69.8891
20
69.2618
10
69.2713
20
69.7254
10
68.6304
20
70.1566
10
67.9682
20
70.5543
10
67.2864
20
70.9173
10
66.5868
20
71.2448
10
65.8713
20
71.5358
10
65.1417
20
71.7895
10
64.4001
20
72.0054
10
63.6483
20
72.1828
10
62.8884
20
72.3213
10
62.1223
20
72.4205
10
61.3522
20
72.4801
10
60.58
20
72.5
0
LWPOLYLINE
8
0
90
334
70
1
10
134.576
20
10.6398
10
134.222
20
9.9618
10
133.792
20
9.2095
10
133.546
20
8.8107
10
133.28
20
8.3993
10
132.991
20
7.9776
10
132.681
20
7.5475
10
132.347
20
7.111
10
131.99
20
6.6702
10
131.609
20
6.2272
10
131.203
20
5.7839
10
130.772
20
5.3424
10
130.314
20
4.9047
10
129.83
20
4.4728
10
129.318
20
4.0489
10
128.778
20
3.6349
10
128.21
20
3.2329
10
127.613
20
2.8448
10
126.986
20
2.4728
10
126.328
20
2.1189
10
125.639
20
1.7851
10
124.918
20
1.4734
10
124.165
20
1.1858
10
123.38
20
0.9245
10
122.56
20
0.6915
10
121.706
20
0.4887
10
120.818
20
0.3182
10
120.36
20
0.2457
10
119.894
20
0.182
10
119.418
20
0.1275
10
118.933
20
0.0823
10
118.44
20
0.0466
10
117.936
20
0.0209
10
117.424
20
0.0053
10
116.902
20
0
10
116.049
20
0.018
10
115.194
20
0.0721
10
114.342
20
0.1621
10
113.493
20
0.288
10
112.651
20
0.4499
10
111.817
20
0.6477
10
110.993
20
0.8813
10
110.183
20
1.1508
10
110.18
20
1.1519
10
110.173
20
1.1544
10
110.166
20
1.1569
10
110.163
20
1.158
10
109.209
20
1.5196
10
108.275
20
1.9134
10
107.816
20
2.1226
10
107.362
20
2.3403
10
106.915
20
2.5665
10
106.474
20
2.8014
10
106.039
20
3.045
10
105.612
20
3.2974
10
105.191
20
3.5589
10
104.778
20
3.8294
10
104.372
20
4.1092
10
103.974
20
4.3983
10
103.585
20
4.6968
10
103.204
20
5.0049
10
102.832
20
5.3227
10
102.468
20
5.6503
10
102.114
20
5.9877
10
101.77
20
6.3352
10
101.435
20
6.6929
10
101.111
20
7.0608
10
100.796
20
7.439
10
100.493
20
7.8278
10
100.201
20
8.2271
10
99.9192
20
8.6372
10
99.6493
20
9.0581
10
99.3912
20
9.4899
10
99.1452
20
9.9328
10
98.9114
20
10.3869
10
98.6902
20
10.8523
10
98.4819
20
11.3291
10
98.2377
20
11.9482
10
98.019
20
12.5747
10
97.8254
20
13.2082
10
97.6561
20
13.8481
10
97.5105
20
14.4939
10
97.3881
20
15.1452
10
97.2882
20
15.8013
10
97.2102
20
16.4617
10
97.1467
20
17.2774
10
97.1144
20
18.0781
10
97.0989
20
18.8778
10
97.0853
20
19.6905
10
97.08
20
20.2395
10
97.0872
20
20.783
10
97.1067
20
21.3208
10
97.1385
20
21.8528
10
97.1824
20
22.3789
10
97.2384
20
22.8991
10
97.3062
20
23.4132
10
97.3858
20
23.9211
10
97.4771
20
24.4228
10
97.5798
20
24.9181
10
97.694
20
25.407
10
97.8194
20
25.8893
10
97.956
20
26.365
10
98.1036
20
26.8339
10
98.2621
20
27.2959
10
98.4314
20
27.751
10
98.6114
20
28.1991
10
98.8019
20
28.64
10
99.0028
20
29.0736
10
99.214
20
29.4999
10
99.4354
20
29.9188
10
99.6668
20
30.3301
10
99.9082
20
30.7338
10
100.159
20
31.1298
10
100.42
20
31.5179
10
100.691
20
31.8981
10
100.971
20
32.2703
10
101.26
20
32.6343
10
101.558
20
32.9901
10
101.865
20
33.3376
10
102.182
20
33.6766
10
102.507
20
34.0071
10
102.841
20
34.329
10
103.183
20
34.6422
10
103.534
20
34.9466
10
103.893
20
35.242
10
104.261
20
35.5285
10
104.636
20
35.8058
10
105.02
20
36.0739
10
105.411
20
36.3327
10
105.81
20
36.5821
10
106.217
20
36.822
10
106.631
20
37.0523
10
107.053
20
37.2728
10
107.481
20
37.4836
10
107.917
20
37.6845
10
108.36
20
37.8754
10
108.81
20
38.0561
10
109.266
20
38.2267
10
109.729
20
38.387
10
110.198
20
38.5369
10
110.674
20
38.6763
10
111.157
20
38.8052
10
111.645
20
38.9233
10
112.139
20
39.0306
10
112.639
20
39.1271
10
113.145
20
39.2126
10
113.657
20
39.287
10
114.174
20
39.3503
10
114.696
20
39.4022
10
115.224
20
39.4428
10
115.757
20
39.4719
10
116.295
20
39.4894
10
116.837
20
39.4953
10
117.327
20
39.4923
10
117.817
20
39.4828
10
118.307
20
39.4663
10
118.796
20
39.4421
10
119.471
20
39.3909
10
120.139
20
39.316
10
120.799
20
39.2179
10
121.45
20
39.0971
10
122.093
20
38.9542
10
122.726
20
38.7898
10
123.35
20
38.6043
10
123.964
20
38.3982
10
124.567
20
38.1723
10
125.159
20
37.9269
10
125.741
20
37.6626
10
126.31
20
37.38
10
126.867
20
37.0795
10
127.412
20
36.7619
10
127.944
20
36.4274
10
128.462
20
36.0769
10
128.967
20
35.7106
10
129.457
20
35.3293
10
129.933
20
34.9334
10
130.393
20
34.5234
10
130.838
20
34.1
10
131.267
20
33.6637
10
131.68
20
33.2149
10
132.076
20
32.7543
10
132.454
20
32.2823
10
132.815
20
31.7996
10
133.159
20
31.3066
10
133.483
20
30.8039
10
133.789
20
30.2921
10
134.075
20
29.7716
10
134.342
20
29.243
10
134.588
20
28.7069
10
144.605
20
27.9092
10
166.641
20
26.1544
10
188.677
20
24.3996
10
198.694
20
23.6019
10
198.693
20
23.1853
10
198.692
20
22.2687
10
198.691
20
21.3521
10
198.69
20
20.9355
10
188.736
20
21.231
10
166.835
20
21.881
10
144.935
20
22.531
10
134.98
20
22.8265
10
134.98
20
22.7668
10
134.981
20
22.6356
10
134.981
20
22.5044
10
134.981
20
22.4447
10
133.887
20
22.4723
10
131.481
20
22.5331
10
129.075
20
22.5938
10
127.981
20
22.6214
10
127.858
20
23.0784
10
127.718
20
23.5266
10
127.562
20
23.9654
10
127.39
20
24.3947
10
127.203
20
24.8139
10
127.001
20
25.2228
10
126.783
20
25.6209
10
126.55
20
26.008
10
126.302
20
26.3836
10
126.04
20
26.7473
10
125.763
20
27.0988
10
125.471
20
27.4378
10
125.165
20
27.7638
10
124.846
20
28.0764
10
124.513
20
28.3755
10
124.166
20
28.6604
10
123.805
20
28.931
10
123.431
20
29.1867
10
123.044
20
29.4273
10
122.645
20
29.6524
10
122.232
20
29.8616
10
121.807
20
30.0545
10
121.369
20
30.2308
10
120.92
20
30.3901
10
120.458
20
30.5321
10
119.984
20
30.6563
10
119.499
20
30.7624
10
119.002
20
30.8501
10
118.494
20
30.9189
10
117.975
20
30.9685
10
117.444
20
30.9985
10
116.903
20
31.0086
10
116.397
20
30.9936
10
115.873
20
30.9497
10
115.338
20
30.8786
10
114.797
20
30.782
10
114.255
20
30.6616
10
113.718
20
30.5191
10
113.192
20
30.3562
10
112.682
20
30.1745
10
112.194
20
29.9758
10
111.734
20
29.7618
10
111.307
20
29.5341
10
110.919
20
29.2944
10
110.576
20
29.0445
10
110.423
20
28.9162
10
110.283
20
28.786
10
110.157
20
28.654
10
110.045
20
28.5206
10
109.949
20
28.3858
10
109.869
20
28.25
10
109.863
20
25.5621
10
109.849
20
19.6486
10
109.836
20
13.7352
10
109.83
20
11.0473
10
109.883
20
10.9473
10
109.955
20
10.8448
10
110.045
20
10.7401
10
110.153
20
10.6336
10
110.417
20
10.4168
10
110.74
20
10.1971
10
111.116
20
9.9777
10
111.539
20
9.7613
10
112.001
20
9.551
10
112.498
20
9.3496
10
113.022
20
9.1602
10
113.566
20
8.9857
10
114.124
20
8.8289
10
114.69
20
8.693
10
115.258
20
8.5807
10
115.82
20
8.495
10
116.371
20
8.4389
10
116.903
20
8.4153
10
117.401
20
8.4259
10
117.894
20
8.4574
10
118.381
20
8.5093
10
118.861
20
8.5812
10
119.335
20
8.6727
10
119.801
20
8.7834
10
120.26
20
8.9128
10
120.71
20
9.0604
10
121.152
20
9.2259
10
121.585
20
9.4088
10
122.008
20
9.6087
10
122.422
20
9.8251
10
122.826
20
10.0577
10
123.218
20
10.3059
10
123.6
20
10.5693
10
123.97
20
10.8476
10
124.328
20
11.1402
10
124.673
20
11.4468
10
125.006
20
11.7669
10
125.325
20
12.1001
10
125.631
20
12.4459
10
125.922
20
12.8038
10
126.199
20
13.1736
10
126.461
20
13.5547
10
126.707
20
13.9467
10
126.937
20
14.3492
10
127.151
20
14.7617
10
127.349
20
15.1838
10
127.529
20
15.615
10
127.691
20
16.055
10
127.836
20
16.5033
10
127.962
20
16.9595
10
129.058
20
16.986
10
131.468
20
17.0444
10
133.878
20
17.1027
10
134.974
20
17.1292
10
134.974
20
17.0671
10
134.973
20
16.9305
10
134.972
20
16.7939
10
134.972
20
16.7318
10
144.928
20
17.02
10
166.833
20
17.6542
10
188.737
20
18.2884
10
198.694
20
18.5766
10
198.693
20
18.1586
10
198.693
20
17.2389
10
198.693
20
16.3192
10
198.693
20
15.9012
10
188.674
20
15.0791
10
166.634
20
13.2705
10
144.594
20
11.4619
10
134.576
20
10.6398
0
LWPOLYLINE
8
0
90
65
70
1
10
99.2947
20
19.7227
10
99.3011
20
19.848
10
99.3196
20
19.9696
10
99.3498
20
20.087
10
99.391
20
20.1995
10
99.4426
20
20.3066
10
99.5039
20
20.4076
10
99.5744
20
20.5019
10
99.6535
20
20.5889
10
99.7405
20
20.668
10
99.8348
20
20.7385
10
99.9358
20
20.7999
10
100.043
20
20.8514
10
100.155
20
20.8926
10
100.273
20
20.9228
10
100.394
20
20.9414
10
100.52
20
20.9477
10
100.645
20
20.9414
10
100.767
20
20.9228
10
100.884
20
20.8926
10
100.997
20
20.8514
10
101.104
20
20.7999
10
101.205
20
20.7385
10
101.299
20
20.668
10
101.386
20
20.5889
10
101.465
20
20.5019
10
101.535
20
20.4076
10
101.597
20
20.3066
10
101.648
20
20.1995
10
101.69
20
20.087
10
101.72
20
19.9696
10
101.738
20
19.848
10
101.745
20
19.7227
10
101.738
20
19.5974
10
101.72
20
19.4758
10
101.69
20
19.3584
10
101.648
20
19.2459
10
101.597
20
19.1388
10
101.535
20
19.0378
10
101.465
20
18.9435
10
101.386
20
18.8565
10
101.299
20
18.7774
10
101.205
20
18.7069
10
101.104
20
18.6455
10
100.997
20
18.594
10
100.884
20
18.5528
10
100.767
20
18.5226
10
100.645
20
18.504
10
100.52
20
18.4977
10
100.394
20
18.504
10
100.273
20
18.5226
10
100.155
20
18.5528
10
100.043
20
18.594
10
99.9358
20
18.6455
10
99.8348
20
18.7069
10
99.7405
20
18.7774
10
99.6535
20
18.8565
10
99.5744
20
18.9435
10
99.5039
20
19.0378
10
99.4426
20
19.1388
10
99.391
20
19.2459
10
99.3498
20
19.3584
10
99.3196
20
19.4758
10
99.3011
20
19.5974
10
99.2947
20
19.7227
0
LWPOLYLINE
8
0
90
65
70
1
10
105.309
20
19.7227
10
105.316
20
19.848
10
105.334
20
19.9696
10
105.365
20
20.087
10
105.406
20
20.1995
10
105.457
20
20.3066
10
105.519
20
20.4076
10
105.589
20
20.5019
10
105.668
20
20.5889
10
105.755
20
20.668
10
105.85
20
20.7385
10
105.951
20
20.7999
10
106.058
20
20.8514
10
106.17
20
20.8926
10
106.288
20
20.9228
10
106.409
20
20.9414
10
106.534
20
20.9477
10
106.66
20
20.9414
10
106.781
20
20.9228
10
106.899
20
20.8926
10
107.011
20
20.8514
10
107.118
20
20.7999
10
107.219
20
20.7385
10
107.314
20
20.668
10
107.401
20
20.5889
10
107.48
20
20.5019
10
107.55
20
20.4076
10
107.612
20
20.3066
10
107.663
20
20.1995
10
107.704
20
20.087
10
107.735
20
19.9696
10
107.753
20
19.848
10
107.76
20
19.7227
10
107.753
20
19.5974
10
107.735
20
19.4758
10
107.704
20
19.3584
10
107.663
20
19.2459
10
107.612
20
19.1388
10
107.55
20
19.0378
10
107.48
20
18.9435
10
107.401
20
18.8565
10
107.314
20
18.7774
10
107.219
20
18.7069
10
107.118
20
18.6455
10
107.011
20
18.594
10
106.899
20
18.5528
10
106.781
20
18.5226
10
106.66
20
18.504
10
106.534
20
18.4977
10
106.409
20
18.504
10
106.288
20
18.5226
10
106.17
20
18.5528
10
106.058
20
18.594
10
105.951
20
18.6455
10
105.85
20
18.7069
10
105.755
20
18.7774
10
105.668
20
18.8565
10
105.589
20
18.9435
10
105.519
20
19.0378
10
105.457
20
19.1388
10
105.406
20
19.2459
10
105.365
20
19.3584
10
105.334
20
19.4758
10
105.316
20
19.5974
10
105.309
20
19.7227
0
LWPOLYLINE
8
0
90
210
70
1
10
498.693
20
18.3865
10
494.944
20
18.9029
10
491.195
20
19.4169
10
487.445
20
19.9262
10
483.694
20
20.4285
10
479.946
20
20.9215
10
476.196
20
21.4059
10
472.445
20
21.8825
10
468.694
20
22.3519
10
461.198
20
23.27
10
453.7
20
24.1629
10
446.198
20
25.0311
10
438.693
20
25.875
10
431.197
20
26.6937
10
423.699
20
27.4879
10
416.198
20
28.257
10
408.694
20
29.0002
10
401.198
20
29.7159
10
393.699
20
30.4042
10
386.198
20
31.0643
10
378.694
20
31.6952
10
371.198
20
32.2951
10
363.699
20
32.8624
10
356.197
20
33.3945
10
348.693
20
33.8886
10
344.946
20
34.1203
10
341.197
20
34.3414
10
337.448
20
34.5513
10
333.698
20
34.7497
10
329.948
20
34.936
10
326.197
20
35.1098
10
322.446
20
35.2705
10
318.693
20
35.4177
10
314.945
20
35.5506
10
311.196
20
35.6687
10
307.446
20
35.771
10
303.696
20
35.8566
10
299.946
20
35.9246
10
296.196
20
35.9742
10
292.445
20
36.0044
10
288.694
20
36.0144
10
284.944
20
36.0032
10
281.193
20
35.9696
10
277.443
20
35.9124
10
273.693
20
35.8304
10
269.942
20
35.722
10
266.191
20
35.5854
10
262.442
20
35.4184
10
258.693
20
35.2189
10
254.939
20
34.9841
10
251.188
20
34.7115
10
249.313
20
34.5602
10
247.439
20
34.3983
10
245.566
20
34.2255
10
243.695
20
34.0414
10
241.813
20
33.8444
10
239.933
20
33.6347
10
238.054
20
33.4113
10
236.178
20
33.1733
10
234.303
20
32.9196
10
232.431
20
32.6494
10
230.561
20
32.3617
10
228.694
20
32.0554
10
226.812
20
31.7265
10
224.934
20
31.3764
10
223.061
20
31.0037
10
221.194
20
30.607
10
219.308
20
30.1779
10
217.429
20
29.7165
10
216.493
20
29.4718
10
215.558
20
29.2166
10
214.625
20
28.9503
10
213.694
20
28.672
10
212.732
20
28.3708
10
211.775
20
28.0556
10
210.822
20
27.7261
10
209.877
20
27.3819
10
208.939
20
27.0228
10
208.012
20
26.6484
10
207.096
20
26.2584
10
206.194
20
25.8524
10
205.234
20
25.3919
10
204.76
20
25.1481
10
204.29
20
24.8917
10
203.824
20
24.6202
10
203.361
20
24.331
10
202.901
20
24.0215
10
202.444
20
23.689
10
202.087
20
23.4102
10
201.734
20
23.1167
10
201.388
20
22.8094
10
201.051
20
22.4892
10
200.727
20
22.1572
10
200.417
20
21.8144
10
200.125
20
21.4618
10
199.852
20
21.1003
10
199.601
20
20.7309
10
199.376
20
20.3546
10
199.178
20
19.9724
10
199.011
20
19.5853
10
198.876
20
19.1942
10
198.776
20
18.8002
10
198.715
20
18.4042
10
198.699
20
18.2058
10
198.694
20
18.0072
10
198.699
20
17.8087
10
198.715
20
17.6102
10
198.776
20
17.2142
10
198.876
20
16.8202
10
199.011
20
16.4291
10
199.178
20
16.042
10
199.376
20
15.6598
10
199.601
20
15.2835
10
199.852
20
14.9141
10
200.125
20
14.5526
10
200.417
20
14.2
10
200.727
20
13.8572
10
201.051
20
13.5252
10
201.388
20
13.205
10
201.734
20
12.8977
10
202.087
20
12.6042
10
202.444
20
12.3254
10
202.901
20
11.9929
10
203.361
20
11.6834
10
203.824
20
11.3942
10
204.29
20
11.1227
10
204.76
20
10.8663
10
205.234
20
10.6225
10
206.194
20
10.162
10
207.096
20
9.756
10
208.012
20
9.366
10
208.939
20
8.9916
10
209.877
20
8.6325
10
210.822
20
8.2883
10
211.775
20
7.9588
10
212.732
20
7.6437
10
213.694
20
7.3424
10
214.625
20
7.0641
10
215.558
20
6.7978
10
216.493
20
6.5426
10
217.429
20
6.2979
10
219.308
20
5.8365
10
221.194
20
5.4075
10
223.061
20
5.0107
10
224.934
20
4.638
10
226.812
20
4.2879
10
228.694
20
3.959
10
230.561
20
3.6527
10
232.431
20
3.365
10
234.303
20
3.0948
10
236.178
20
2.8411
10
238.054
20
2.6031
10
239.933
20
2.3797
10
241.813
20
2.17
10
243.695
20
1.973
10
245.566
20
1.7889
10
247.439
20
1.6161
10
249.313
20
1.4542
10
251.188
20
1.3029
10
254.939
20
1.0303
10
258.693
20
0.7955
10
262.442
20
0.596
10
266.191
20
0.429
10
269.942
20
0.2924
10
273.693
20
0.184
10
277.443
20
0.102
10
281.193
20
0.0448
10
284.944
20
0.0112
10
288.694
20
0
10
292.445
20
0.01
10
296.196
20
0.0402
10
299.946
20
0.0898
10
303.696
20
0.1578
10
307.446
20
0.2435
10
311.196
20
0.3457
10
314.945
20
0.4638
10
318.693
20
0.5967
10
322.446
20
0.7439
10
326.197
20
0.9046
10
329.948
20
1.0784
10
333.698
20
1.2647
10
337.448
20
1.4631
10
341.197
20
1.673
10
344.946
20
1.8941
10
348.693
20
2.1258
10
356.197
20
2.6199
10
363.699
20
3.152
10
371.198
20
3.7193
10
378.694
20
4.3192
10
386.198
20
4.9501
10
393.699
20
5.6102
10
401.198
20
6.2985
10
408.694
20
7.0142
10
416.198
20
7.7574
10
423.699
20
8.5265
10
431.197
20
9.3207
10
438.693
20
10.1394
10
446.198
20
10.9833
10
453.7
20
11.8515
10
461.198
20
12.7444
10
468.694
20
13.6625
10
472.445
20
14.1319
10
476.196
20
14.6085
10
479.946
20
15.0929
10
483.694
20
15.5859
10
487.445
20
16.0882
10
491.195
20
16.5976
10
494.944
20
17.1116
10
498.693
20
17.6279
10
498.693
20
18.3865
0
LWPOLYLINE
8
0
90
72
70
1
10
270.693
20
18.0072
10
270.674
20
18.4491
10
270.615
20
18.8875
10
270.518
20
19.3191
10
270.384
20
19.7404
10
270.212
20
20.1481
10
270.005
20
20.5391
10
269.764
20
20.9102
10
269.492
20
21.2586
10
269.19
20
21.5816
10
268.86
20
21.8766
10
268.506
20
22.1414
10
268.129
20
22.3737
10
267.734
20
22.5719
10
267.322
20
22.7344
10
266.898
20
22.8599
10
266.465
20
22.9474
10
266.025
20
22.9962
10
265.583
20
23.006
10
265.142
20
22.9766
10
264.704
20
22.9084
10
264.275
20
22.8018
10
263.857
20
22.6577
10
263.453
20
22.4772
10
263.067
20
22.2617
10
262.701
20
22.0129
10
262.359
20
21.7328
10
262.043
20
21.4235
10
261.755
20
21.0874
10
261.498
20
20.7273
10
261.274
20
20.3459
10
261.085
20
19.9461
10
260.931
20
19.5312
10
260.815
20
19.1044
10
260.738
20
18.669
10
260.698
20
18.2284
10
260.698
20
17.786
10
260.738
20
17.3454
10
260.815
20
16.91
10
260.931
20
16.4832
10
261.085
20
16.0683
10
261.274
20
15.6685
10
261.498
20
15.2871
10
261.755
20
14.927
10
262.043
20
14.5909
10
262.359
20
14.2816
10
262.701
20
14.0015
10
263.067
20
13.7527
10
263.453
20
13.5372
10
263.857
20
13.3567
10
264.275
20
13.2126
10
264.704
20
13.106
10
265.142
20
13.0378
10
265.583
20
13.0084
10
266.025
20
13.0182
10
266.465
20
13.067
10
266.898
20
13.1545
10
267.322
20
13.28
10
267.734
20
13.4425
10
268.129
20
13.6407
10
268.506
20
13.873
10
268.86
20
14.1378
10
269.19
20
14.4328
10
269.492
20
14.7558
10
269.764
20
15.1042
10
270.005
20
15.4753
10
270.212
20
15.8663
10
270.384
20
16.274
10
270.518
20
16.6953
10
270.615
20
17.1269
10
270.674
20
17.5653
10
270.693
20
18.0072
0
LWPOLYLINE
8
0
90
72
70
1
10
375.693
20
18.0072
10
375.674
20
18.4491
10
375.615
20
18.8875
10
375.518
20
19.3191
10
375.384
20
19.7404
10
375.212
20
20.1481
10
375.005
20
20.5391
10
374.764
20
20.9102
10
374.492
20
21.2586
10
374.19
20
21.5816
10
373.86
20
21.8766
10
373.506
20
22.1414
10
373.129
20
22.3737
10
372.734
20
22.5719
10
372.322
20
22.7344
10
371.898
20
22.8599
10
371.465
20
22.9474
10
371.025
20
22.9962
10
370.583
20
23.006
10
370.142
20
22.9766
10
369.704
20
22.9084
10
369.275
20
22.8018
10
368.857
20
22.6577
10
368.453
20
22.4772
10
368.067
20
22.2617
10
367.701
20
22.0129
10
367.359
20
21.7328
10
367.043
20
21.4235
10
366.755
20
21.0874
10
366.498
20
20.7273
10
366.274
20
20.3459
10
366.085
20
19.9461
10
365.931
20
19.5312
10
365.815
20
19.1044
10
365.738
20
18.669
10
365.698
20
18.2284
10
365.698
20
17.786
10
365.738
20
17.3454
10
365.815
20
16.91
10
365.931
20
16.4832
10
366.085
20
16.0683
10
366.274
20
15.6685
10
366.498
20
15.2871
10
366.755
20
14.927
10
367.043
20
14.5909
10
367.359
20
14.2816
10
367.701
20
14.0015
10
368.067
20
13.7527
10
368.453
20
13.5372
10
368.857
20
13.3567
10
369.275
20
13.2126
10
369.704
20
13.106
10
370.142
20
13.0378
10
370.583
20
13.0084
10
371.025
20
13.0182
10
371.465
20
13.067
10
371.898
20
13.1545
10
372.322
20
13.28
10
372.734
20
13.4425
10
373.129
20
13.6407
10
373.506
20
13.873
10
373.86
20
14.1378
10
374.19
20
14.4328
10
374.492
20
14.7558
10
374.764
20
15.1042
10
375.005
20
15.4753
10
375.212
20
15.8663
10
375.384
20
16.274
10
375.518
20
16.6953
10
375.615
20
17.1269
10
375.674
20
17.5653
10
375.693
20
18.0072
0
LWPOLYLINE
8
0
90
51
70
1
10
228.194
20
18.0072
10
228.174
20
18.3205
10
228.115
20
18.6289
10
228.018
20
18.9275
10
227.884
20
19.2116
10
227.716
20
19.4767
10
227.516
20
19.7186
10
227.287
20
19.9335
10
227.033
20
20.118
10
226.758
20
20.2693
10
226.466
20
20.3848
10
226.162
20
20.4629
10
225.851
20
20.5023
10
225.536
20
20.5023
10
225.225
20
20.4629
10
224.921
20
20.3848
10
224.629
20
20.2693
10
224.354
20
20.118
10
224.1
20
19.9335
10
223.871
20
19.7186
10
223.671
20
19.4767
10
223.503
20
19.2116
10
223.369
20
18.9275
10
223.272
20
18.6289
10
223.213
20
18.3205
10
223.194
20
18.0072
10
223.213
20
17.6939
10
223.272
20
17.3855
10
223.369
20
17.0869
10
223.503
20
16.8028
10
223.671
20
16.5377
10
223.871
20
16.2958
10
224.1
20
16.0809
10
224.354
20
15.8964
10
224.629
20
15.7451
10
224.921
20
15.6296
10
225.225
20
15.5515
10
225.536
20
15.5121
10
225.851
20
15.5121
10
226.162
20
15.5515
10
226.466
20
15.6296
10
226.758
20
15.7451
10
227.033
20
15.8964
10
227.287
20
16.0809
10
227.516
20
16.2958
10
227.716
20
16.5377
10
227.884
20
16.8028
10
228.018
20
17.0869
10
228.115
20
17.3855
10
228.174
20
17.6939
10
228.194
20
18.0072
0
LWPOLYLINE
8
0
90
51
70
1
10
318.193
20
18.0072
10
318.174
20
18.3205
10
318.115
20
18.6289
10
318.018
20
18.9275
10
317.884
20
19.2116
10
317.716
20
19.4767
10
317.516
20
19.7186
10
317.287
20
19.9335
10
317.033
20
20.118
10
316.758
20
20.2693
10
316.466
20
20.3848
10
316.162
20
20.4629
10
315.851
20
20.5023
10
315.536
20
20.5023
10
315.225
20
20.4629
10
314.921
20
20.3848
10
314.629
20
20.2693
10
314.354
20
20.118
10
314.1
20
19.9335
10
313.871
20
19.7186
10
313.671
20
19.4767
10
313.503
20
19.2116
10
313.369
20
18.9275
10
313.272
20
18.6289
10
313.213
20
18.3205
10
313.193
20
18.0072
10
313.213
20
17.6939
10
313.272
20
17.3855
10
313.369
20
17.0869
10
313.503
20
16.8028
10
313.671
20
16.5377
10
313.871
20
16.2958
10
314.1
20
16.0809
10
314.354
20
15.8964
10
314.629
20
15.7451
10
314.921
20
15.6296
10
315.225
20
15.5515
10
315.536
20
15.5121
10
315.851
20
15.5121
10
316.162
20
15.5515
10
316.466
20
15.6296
10
316.758
20
15.7451
10
317.033
20
15.8964
10
317.287
20
16.0809
10
317.516
20
16.2958
10
317.716
20
16.5377
10
317.884
20
16.8028
10
318.018
20
17.0869
10
318.115
20
17.3855
10
318.174
20
17.6939
10
318.193
20
18.0072
0
LWPOLYLINE
8
0
90
51
70
1
10
408.193
20
18.0072
10
408.174
20
18.3205
10
408.115
20
18.6289
10
408.018
20
18.9275
10
407.884
20
19.2116
10
407.716
20
19.4767
10
407.516
20
19.7186
10
407.287
20
19.9335
10
407.033
20
20.118
10
406.758
20
20.2693
10
406.466
20
20.3848
10
406.162
20
20.4629
10
405.851
20
20.5023
10
405.536
20
20.5023
10
405.225
20
20.4629
10
404.921
20
20.3848
10
404.629
20
20.2693
10
404.354
20
20.118
10
404.1
20
19.9335
10
403.871
20
19.7186
10
403.671
20
19.4767
10
403.503
20
19.2116
10
403.369
20
18.9275
10
403.272
20
18.6289
10
403.213
20
18.3205
10
403.193
20
18.0072
10
403.213
20
17.6939
10
403.272
20
17.3855
10
403.369
20
17.0869
10
403.503
20
16.8028
10
403.671
20
16.5377
10
403.871
20
16.2958
10
404.1
20
16.0809
10
404.354
20
15.8964
10
404.629
20
15.7451
10
404.921
20
15.6296
10
405.225
20
15.5515
10
405.536
20
15.5121
10
405.851
20
15.5121
10
406.162
20
15.5515
10
406.466
20
15.6296
10
406.758
20
15.7451
10
407.033
20
15.8964
10
407.287
20
16.0809
10
407.516
20
16.2958
10
407.716
20
16.5377
10
407.884
20
16.8028
10
408.018
20
17.0869
10
408.115
20
17.3855
10
408.174
20
17.6939
10
408.193
20
18.0072
0
ENDSEC
0
EOF
