0
SECTION
2
ENTITIES
0
LWPOLYLINE
8
0
90
100
70
1
10
1.1619
20
14.4208
10
1.0571
20
11.6048
10
0
20
6.6062
10
0.5119
20
5.7356
10
3.2552
20
2.1345
10
2.6281
20
0.2433
10
11.1011
20
0
10
16.115
20
1.2715
10
15.1516
20
2.9419
10
11.2502
20
5.9972
10
9.6951
20
6.965
10
8.5318
20
11.4383
10
7.5037
20
12.966
10
6.4504
20
20.4201
10
6.5067
20
28.8577
10
6.8127
20
40.2971
10
8.7443
20
46.4163
10
8.8746
20
55.0936
10
17.4476
20
48.9268
10
19.8506
20
46.9445
10
23.1966
20
44.1398
10
24.134
20
43.2506
10
24.8116
20
39.0184
10
25.0567
20
35.412
10
25.2301
20
28.8969
10
22.5721
20
24.0094
10
19.1776
20
21.7437
10
18.7156
20
9.8693
10
18.6521
20
7.8832
10
22.1449
20
9.1706
10
25.023
20
12.9804
10
28.19
20
15.8715
10
29.4388
20
14.5397
10
31.6704
20
22.052
10
31.9948
20
37.7403
10
33.9292
20
44.3695
10
27.7744
20
54.9851
10
23.3631
20
59.5818
10
26.3484
20
66.6877
10
27.0189
20
69.8227
10
27.4751
20
76.1225
10
29.4155
20
76.5539
10
34.4273
20
79.5286
10
37.7808
20
80.8871
10
38.0371
20
77.1606
10
40.9203
20
75.177
10
44.693
20
80.5493
10
46.2512
20
82.236
10
46.691
20
79.9355
10
49.2385
20
81.4935
10
49.6797
20
85.8854
10
52.0373
20
84.0138
10
52.0777
20
83.8003
10
54.75
20
88.2016
10
59.4798
20
88.4118
10
61.5623
20
87.1573
10
64.1143
20
82.3379
10
66.5987
20
80.2447
10
70.2382
20
82.0462
10
70.292
20
82.7376
10
72.9059
20
81.9973
10
74.8566
20
82.4438
10
77.6344
20
86.6699
10
76.5589
20
95.669
10
75.4201
20
97.71
10
72.1381
20
101.706
10
70.5038
20
103.635
10
65.2124
20
107.316
10
63.4054
20
110.67
10
61.8236
20
114.031
10
59.5197
20
115.689
10
67.6419
20
115.743
10
81.2792
20
115.099
10
89.3048
20
115.931
10
98.8218
20
124.672
10
99.7582
20
126.492
10
99.4463
20
131.006
10
97.8961
20
130.564
10
94.4506
20
127.553
10
96.2095
20
134.673
10
92.562
20
134.094
10
91.3147
20
130.1
10
88.5434
20
126.141
10
84.8927
20
125.446
10
86.5408
20
127.535
10
90.0863
20
131.921
10
93.1353
20
137.338
10
90.689
20
141.73
10
87.7137
20
137.004
10
84.6112
20
131.784
10
79.6304
20
128.784
10
79.4537
20
130.635
10
82.2993
20
134.556
10
84.0684
20
139.295
10
82.496
20
146.232
10
81.5777
20
144.876
10
78.4844
20
137.947
10
76.18
20
136.377
10
77.114
20
142.475
10
80.3814
20
150.464
0
LWPOLYLINE
8
0
90
100
70
1
10
2535.02
20
3227.32
10
2534.92
20
3224.5
10
2533.86
20
3219.5
10
2534.37
20
3218.63
10
2537.11
20
3215.03
10
2536.49
20
3213.14
10
2544.96
20
3212.9
10
2549.97
20
3214.17
10
2549.01
20
3215.84
10
2545.11
20
3218.89
10
2543.55
20
3219.86
10
2542.39
20
3224.34
10
2541.36
20
3225.86
10
2540.31
20
3233.32
10
2540.36
20
3241.75
10
2540.67
20
3253.19
10
2542.6
20
3259.31
10
2542.73
20
3267.99
10
2551.31
20
3261.82
10
2553.71
20
3259.84
10
2557.05
20
3257.04
10
2557.99
20
3256.15
10
2558.67
20
3251.92
10
2558.91
20
3248.31
10
2559.09
20
3241.79
10
2556.43
20
3236.91
10
2553.04
20
3234.64
10
2552.57
20
3222.77
10
2552.51
20
3220.78
10
2556
20
3222.07
10
2558.88
20
3225.88
10
2562.05
20
3228.77
10
2563.3
20
3227.44
10
2565.53
20
3234.95
10
2565.85
20
3250.64
10
2567.79
20
3257.27
10
2561.63
20
3267.88
10
2557.22
20
3272.48
10
2560.21
20
3279.58
10
2560.88
20
3282.72
10
2561.33
20
3289.02
10
2563.27
20
3289.45
10
2568.29
20
3292.43
10
2571.64
20
3293.78
10
2571.9
20
3290.06
10
2574.78
20
3288.07
10
2578.55
20
3293.45
10
2580.11
20
3295.13
10
2580.55
20
3292.83
10
2583.1
20
3294.39
10
2583.54
20
3298.78
10
2585.9
20
3296.91
10
2585.94
20
3296.7
10
2588.61
20
3301.1
10
2593.34
20
3301.31
10
2595.42
20
3300.05
10
2597.97
20
3295.23
10
2600.46
20
3293.14
10
2604.1
20
3294.94
10
2604.15
20
3295.63
10
2606.76
20
3294.89
10
2608.71
20
3295.34
10
2611.49
20
3299.57
10
2610.42
20
3308.57
10
2609.28
20
3310.61
10
2606
20
3314.6
10
2604.36
20
3316.53
10
2599.07
20
3320.21
10
2597.26
20
3323.57
10
2595.68
20
3326.93
10
2593.38
20
3328.59
10
2601.5
20
3328.64
10
2615.14
20
3328
10
2623.16
20
3328.83
10
2632.68
20
3337.57
10
2633.62
20
3339.39
10
2633.3
20
3343.9
10
2631.75
20
3343.46
10
2628.31
20
3340.45
10
2630.07
20
3347.57
10
2626.42
20
3346.99
10
2625.17
20
3343
10
2622.4
20
3339.04
10
2618.75
20
3338.34
10
2620.4
20
3340.43
10
2623.94
20
3344.82
10
2626.99
20
3350.23
10
2624.55
20
3354.63
10
2621.57
20
3349.9
10
2618.47
20
3344.68
10
2613.49
20
3341.68
10
2613.31
20
3343.53
10
2616.16
20
3347.45
10
2617.93
20
3352.19
10
2616.35
20
3359.13
10
2615.44
20
3357.77
10
2612.34
20
3350.84
10
2610.04
20
3349.27
10
2610.97
20
3355.37
10
2614.24
20
3363.36
0
ENDSEC
0
EOF
