0
SECTION
2
ENTITIES
0
LWPOLYLINE
8
0
90
100
70
1
10
0.0457
20
0.5677
10
0.0416
20
0.4569
10
0
20
0.2601
10
0.0201
20
0.2258
10
0.1281
20
0.084
10
0.1035
20
0.0095
10
0.437
20
0
10
0.6344
20
0.05
10
0.5965
20
0.1158
10
0.4429
20
0.2361
10
0.3817
20
0.2742
10
0.3359
20
0.4503
10
0.2954
20
0.5104
10
0.2539
20
0.8039
10
0.2562
20
1.1361
10
0.2682
20
1.5865
10
0.3443
20
1.8274
10
0.3494
20
2.169
10
0.6869
20
1.9262
10
0.7815
20
1.8482
10
0.9132
20
1.7378
10
0.9501
20
1.7028
10
0.9768
20
1.5361
10
0.9865
20
1.3941
10
0.9933
20
1.1376
10
0.8887
20
0.9452
10
0.755
20
0.856
10
0.7368
20
0.3885
10
0.7343
20
0.3103
10
0.8718
20
0.361
10
0.9851
20
0.511
10
1.1098
20
0.6248
10
1.159
20
0.5724
10
1.2469
20
0.8682
10
1.2596
20
1.4858
10
1.3358
20
1.7468
10
1.0935
20
2.1647
10
0.9198
20
2.3457
10
1.0373
20
2.6255
10
1.0637
20
2.7489
10
1.0817
20
2.9969
10
1.1581
20
3.0139
10
1.3554
20
3.131
10
1.4874
20
3.1845
10
1.4975
20
3.0378
10
1.611
20
2.9597
10
1.7596
20
3.1712
10
1.8209
20
3.2376
10
1.8382
20
3.147
10
1.9385
20
3.2084
10
1.9559
20
3.3813
10
2.0487
20
3.3076
10
2.0503
20
3.2992
10
2.1555
20
3.4725
10
2.3417
20
3.4808
10
2.4237
20
3.4314
10
2.5242
20
3.2416
10
2.622
20
3.1592
10
2.7653
20
3.2301
10
2.7674
20
3.2574
10
2.8703
20
3.2282
10
2.9471
20
3.2458
10
3.0565
20
3.4122
10
3.0141
20
3.7665
10
2.9693
20
3.8468
10
2.8401
20
4.0041
10
2.7757
20
4.0801
10
2.5674
20
4.225
10
2.4963
20
4.3571
10
2.434
20
4.4894
10
2.3433
20
4.5546
10
2.6631
20
4.5568
10
3.2
20
4.5314
10
3.5159
20
4.5642
10
3.8906
20
4.9083
10
3.9275
20
4.98
10
3.9152
20
5.1577
10
3.8542
20
5.1403
10
3.7185
20
5.0217
10
3.7878
20
5.3021
10
3.6442
20
5.2792
10
3.5951
20
5.122
10
3.4859
20
4.9662
10
3.3422
20
4.9388
10
3.4071
20
5.021
10
3.5467
20
5.1937
10
3.6667
20
5.407
10
3.5704
20
5.5799
10
3.4533
20
5.3938
10
3.3311
20
5.1883
10
3.135
20
5.0702
10
3.1281
20
5.1431
10
3.2401
20
5.2974
10
3.3098
20
5.484
10
3.2479
20
5.7571
10
3.2117
20
5.7037
10
3.0899
20
5.431
10
2.9992
20
5.3691
10
3.036
20
5.6092
10
3.1646
20
5.9238
0
ENDSEC
0
EOF
