  0
SECTION
  2
HEADER
  9
$ACADVER
  1
AC1024
  9
$ACADMAINTVER
 70
     6
  9
$DWGCODEPAGE
  3
ANSI_1252
  9
$INSBASE
 10
0.0
 20
0.0
 30
0.0
  9
$EXTMIN
 10
1.000000000000000E+20
 20
1.000000000000000E+20
 30
1.000000000000000E+20
  9
$EXTMAX
 10
-1.000000000000000E+20
 20
-1.000000000000000E+20
 30
-1.000000000000000E+20
  9
$LIMMIN
 10
0.0
 20
0.0
  9
$LIMMAX
 10
12.0
 20
9.0
  9
$ORTHOMODE
 70
     0
  9
$REGENMODE
 70
     1
  9
$FILLMODE
 70
     1
  9
$QTEXTMODE
 70
     0
  9
$MIRRTEXT
 70
     1
  9
$LTSCALE
 40
1.0
  9
$ATTMODE
 70
     1
  9
$TEXTSIZE
 40
0.2
  9
$TRACEWID
 40
0.05
  9
$TEXTSTYLE
  7
Standard
  9
$CLAYER
  8
0
  9
$CELTYPE
  6
ByLayer
  9
$CECOLOR
 62
   256
  9
$CELTSCALE
 40
1.0
  9
$DISPSILH
 70
     0
  9
$DIMSCALE
 40
1.0
  9
$DIMASZ
 40
0.18
  9
$DIMEXO
 40
0.0625
  9
$DIMDLI
 40
0.38
  9
$DIMRND
 40
0.0
  9
$DIMDLE
 40
0.0
  9
$DIMEXE
 40
0.18
  9
$DIMTP
 40
0.0
  9
$DIMTM
 40
0.0
  9
$DIMTXT
 40
0.18
  9
$DIMCEN
 40
0.09
  9
$DIMTSZ
 40
0.0
  9
$DIMTOL
 70
     0
  9
$DIMLIM
 70
     0
  9
$DIMTIH
 70
     1
  9
$DIMTOH
 70
     1
  9
$DIMSE1
 70
     0
  9
$DIMSE2
 70
     0
  9
$DIMTAD
 70
     0
  9
$DIMZIN
 70
     0
  9
$DIMBLK
  1

  9
$DIMASO
 70
     1
  9
$DIMSHO
 70
     1
  9
$DIMPOST
  1

  9
$DIMAPOST
  1

  9
$DIMALT
 70
     0
  9
$DIMALTD
 70
     2
  9
$DIMALTF
 40
25.4
  9
$DIMLFAC
 40
1.0
  9
$DIMTOFL
 70
     0
  9
$DIMTVP
 40
0.0
  9
$DIMTIX
 70
     0
  9
$DIMSOXD
 70
     0
  9
$DIMSAH
 70
     0
  9
$DIMBLK1
  1

  9
$DIMBLK2
  1

  9
$DIMSTYLE
  2
Standard
  9
$DIMCLRD
 70
     0
  9
$DIMCLRE
 70
     0
  9
$DIMCLRT
 70
     0
  9
$DIMTFAC
 40
1.0
  9
$DIMGAP
 40
0.09
  9
$DIMJUST
 70
     0
  9
$DIMSD1
 70
     0
  9
$DIMSD2
 70
     0
  9
$DIMTOLJ
 70
     1
  9
$DIMTZIN
 70
     0
  9
$DIMALTZ
 70
     0
  9
$DIMALTTZ
 70
     0
  9
$DIMUPT
 70
     0
  9
$DIMDEC
 70
     4
  9
$DIMTDEC
 70
     4
  9
$DIMALTU
 70
     2
  9
$DIMALTTD
 70
     2
  9
$DIMTXSTY
  7
Standard
  9
$DIMAUNIT
 70
     0
  9
$DIMADEC
 70
     0
  9
$DIMALTRND
 40
0.0
  9
$DIMAZIN
 70
     0
  9
$DIMDSEP
 70
    46
  9
$DIMATFIT
 70
     3
  9
$DIMFRAC
 70
     0
  9
$DIMLDRBLK
  1

  9
$DIMLUNIT
 70
     2
  9
$DIMLWD
 70
    -2
  9
$DIMLWE
 70
    -2
  9
$DIMTMOVE
 70
     0
  9
$DIMFXL
 40
1.0
  9
$DIMFXLON
 70
     0
  9
$DIMJOGANG
 40
0.7853981633974483
  9
$DIMTFILL
 70
     0
  9
$DIMTFILLCLR
 70
     0
  9
$DIMARCSYM
 70
     0
  9
$DIMLTYPE
  6

  9
$DIMLTEX1
  6

  9
$DIMLTEX2
  6

  9
$DIMTXTDIRECTION
 70
     0
  9
$LUNITS
 70
     2
  9
$LUPREC
 70
     4
  9
$SKETCHINC
 40
0.1
  9
$FILLETRAD
 40
0.5
  9
$AUNITS
 70
     0
  9
$AUPREC
 70
     0
  9
$MENU
  1
.
  9
$ELEVATION
 40
0.0
  9
$PELEVATION
 40
0.0
  9
$THICKNESS
 40
0.0
  9
$LIMCHECK
 70
     0
  9
$CHAMFERA
 40
0.5
  9
$CHAMFERB
 40
0.5
  9
$CHAMFERC
 40
1.0
  9
$CHAMFERD
 40
0.0
  9
$SKPOLY
 70
     0
  9
$TDCREATE
 40
2458233.69699456
  9
$TDUCREATE
 40
2458233.988661227
  9
$TDUPDATE
 40
2458233.696994676
  9
$TDUUPDATE
 40
2458233.988661343
  9
$TDINDWG
 40
0.0000000116
  9
$TDUSRTIMER
 40
0.0000000116
  9
$USRTIMER
 70
     1
  9
$ANGBASE
 50
0.0
  9
$ANGDIR
 70
     0
  9
$PDMODE
 70
     0
  9
$PDSIZE
 40
0.0
  9
$PLINEWID
 40
0.0
  9
$SPLFRAME
 70
     0
  9
$SPLINETYPE
 70
     6
  9
$SPLINESEGS
 70
     8
  9
$HANDSEED
  5
13C
  9
$SURFTAB1
 70
     6
  9
$SURFTAB2
 70
     6
  9
$SURFTYPE
 70
     6
  9
$SURFU
 70
     6
  9
$SURFV
 70
     6
  9
$UCSBASE
  2

  9
$UCSNAME
  2

  9
$UCSORG
 10
0.0
 20
0.0
 30
0.0
  9
$UCSXDIR
 10
1.0
 20
0.0
 30
0.0
  9
$UCSYDIR
 10
0.0
 20
1.0
 30
0.0
  9
$UCSORTHOREF
  2

  9
$UCSORTHOVIEW
 70
     0
  9
$UCSORGTOP
 10
0.0
 20
0.0
 30
0.0
  9
$UCSORGBOTTOM
 10
0.0
 20
0.0
 30
0.0
  9
$UCSORGLEFT
 10
0.0
 20
0.0
 30
0.0
  9
$UCSORGRIGHT
 10
0.0
 20
0.0
 30
0.0
  9
$UCSORGFRONT
 10
0.0
 20
0.0
 30
0.0
  9
$UCSORGBACK
 10
0.0
 20
0.0
 30
0.0
  9
$PUCSBASE
  2

  9
$PUCSNAME
  2

  9
$PUCSORG
 10
0.0
 20
0.0
 30
0.0
  9
$PUCSXDIR
 10
1.0
 20
0.0
 30
0.0
  9
$PUCSYDIR
 10
0.0
 20
1.0
 30
0.0
  9
$PUCSORTHOREF
  2

  9
$PUCSORTHOVIEW
 70
     0
  9
$PUCSORGTOP
 10
0.0
 20
0.0
 30
0.0
  9
$PUCSORGBOTTOM
 10
0.0
 20
0.0
 30
0.0
  9
$PUCSORGLEFT
 10
0.0
 20
0.0
 30
0.0
  9
$PUCSORGRIGHT
 10
0.0
 20
0.0
 30
0.0
  9
$PUCSORGFRONT
 10
0.0
 20
0.0
 30
0.0
  9
$PUCSORGBACK
 10
0.0
 20
0.0
 30
0.0
  9
$USERI1
 70
     0
  9
$USERI2
 70
     0
  9
$USERI3
 70
     0
  9
$USERI4
 70
     0
  9
$USERI5
 70
     0
  9
$USERR1
 40
0.0
  9
$USERR2
 40
0.0
  9
$USERR3
 40
0.0
  9
$USERR4
 40
0.0
  9
$USERR5
 40
0.0
  9
$WORLDVIEW
 70
     1
  9
$SHADEDGE
 70
     3
  9
$SHADEDIF
 70
    70
  9
$TILEMODE
 70
     1
  9
$MAXACTVP
 70
    64
  9
$PINSBASE
 10
0.0
 20
0.0
 30
0.0
  9
$PLIMCHECK
 70
     0
  9
$PEXTMIN
 10
1.000000000000000E+20
 20
1.000000000000000E+20
 30
1.000000000000000E+20
  9
$PEXTMAX
 10
-1.000000000000000E+20
 20
-1.000000000000000E+20
 30
-1.000000000000000E+20
  9
$PLIMMIN
 10
0.0
 20
0.0
  9
$PLIMMAX
 10
12.0
 20
9.0
  9
$UNITMODE
 70
     0
  9
$VISRETAIN
 70
     1
  9
$PLINEGEN
 70
     0
  9
$PSLTSCALE
 70
     1
  9
$TREEDEPTH
 70
  3020
  9
$CMLSTYLE
  2
Standard
  9
$CMLJUST
 70
     0
  9
$CMLSCALE
 40
1.0
  9
$PROXYGRAPHICS
 70
     1
  9
$MEASUREMENT
 70
     0
  9
$CELWEIGHT
370
    -1
  9
$ENDCAPS
280
     0
  9
$JOINSTYLE
280
     0
  9
$LWDISPLAY
290
     1
  9
$INSUNITS
 70
     1
  9
$HYPERLINKBASE
  1

  9
$STYLESHEET
  1

  9
$XEDIT
290
     1
  9
$CEPSNTYPE
380
     0
  9
$PSTYLEMODE
290
     1
  9
$FINGERPRINTGUID
  2
{38BEEE86-539D-4581-ACA0-1D8E48B1ADFE}
  9
$VERSIONGUID
  2
{FAEB1C32-E019-11D5-929B-00C0DF256EC4}
  9
$EXTNAMES
290
     1
  9
$PSVPSCALE
 40
0.0
  9
$OLESTARTUP
290
     0
  9
$SORTENTS
280
   127
  9
$INDEXCTL
280
     0
  9
$HIDETEXT
280
     1
  9
$XCLIPFRAME
280
     2
  9
$HALOGAP
280
     0
  9
$OBSCOLOR
 70
   257
  9
$OBSLTYPE
280
     0
  9
$INTERSECTIONDISPLAY
280
     0
  9
$INTERSECTIONCOLOR
 70
   257
  9
$DIMASSOC
280
     2
  9
$PROJECTNAME
  1

  9
$CAMERADISPLAY
290
     0
  9
$LENSLENGTH
 40
50.0
  9
$CAMERAHEIGHT
 40
0.0
  9
$STEPSPERSEC
 40
2.0
  9
$STEPSIZE
 40
6.0
  9
$3DDWFPREC
 40
2.0
  9
$PSOLWIDTH
 40
0.25
  9
$PSOLHEIGHT
 40
4.0
  9
$LOFTANG1
 40
1.570796326794897
  9
$LOFTANG2
 40
1.570796326794897
  9
$LOFTMAG1
 40
0.0
  9
$LOFTMAG2
 40
0.0
  9
$LOFTPARAM
 70
     7
  9
$LOFTNORMALS
280
     1
  9
$LATITUDE
 40
37.795
  9
$LONGITUDE
 40
-122.394
  9
$NORTHDIRECTION
 40
0.0
  9
$TIMEZONE
 70
 -8000
  9
$LIGHTGLYPHDISPLAY
280
     1
  9
$TILEMODELIGHTSYNCH
280
     1
  9
$CMATERIAL
347
3C
  9
$SOLIDHIST
280
     1
  9
$SHOWHIST
280
     1
  9
$DWFFRAME
280
     2
  9
$DGNFRAME
280
     2
  9
$REALWORLDSCALE
290
     1
  9
$INTERFERECOLOR
 62
   256
  9
$CSHADOW
280
     0
  9
$SHADOWPLANELOCATION
 40
0.0
  0
ENDSEC
  0
SECTION
  2
CLASSES
  0
CLASS
  1
ACDBDICTIONARYWDFLT
  2
AcDbDictionaryWithDefault
  3
ObjectDBX Classes
 90
        0
 91
        4
280
     0
281
     0
  0
CLASS
  1
VISUALSTYLE
  2
AcDbVisualStyle
  3
ObjectDBX Classes
 90
     4095
 91
        4
280
     0
281
     0
  0
CLASS
  1
MATERIAL
  2
AcDbMaterial
  3
ObjectDBX Classes
 90
     1153
 91
        4
280
     0
281
     0
  0
CLASS
  1
SUN
  2
AcDbSun
  3
SCENEOE
 90
     1024
 91
        4
280
     0
281
     0
  0
ENDSEC
  0
SECTION
  2
TABLES
  0
TABLE
  2
VPORT
  5
8
330
0
100
AcDbSymbolTable
 70
     1
  0
VPORT
  5
29
330
8
100
AcDbSymbolTableRecord
100
AcDbViewportTableRecord
  2
*Active
 70
     0
 10
0.0
 20
0.0
 11
1.0
 21
1.0
 12
0.0
 22
0.0
 13
0.0
 23
0.0
 14
0.5
 24
0.5
 15
0.5
 25
0.5
 16
0.0
 26
0.0
 36
1.0
 17
18.0
 27
-12.0
 37
0.0
 40
24.0
 41
1.5
 42
50.0
 43
0.0
 44
0.0
 50
0.0
 51
0.0
 71
     0
 72
   100
 73
     1
 74
     3
 75
     0
 76
     0
 77
     0
 78
     0
281
     0
 65
     1
110
0.0
120
0.0
130
0.0
111
1.0
121
0.0
131
0.0
112
0.0
122
1.0
132
0.0
 79
     0
146
0.0
 60
     3
 61
     5
292
     1
282
     1
141
0.0
142
0.0
 63
   250
361
3F
  0
ENDTAB
  0
TABLE
  2
LTYPE
  5
5
330
0
100
AcDbSymbolTable
 70
     1
  0
LTYPE
  5
14
330
5
100
AcDbSymbolTableRecord
100
AcDbLinetypeTableRecord
  2
ByBlock
 70
     0
  3

 72
    65
 73
     0
 40
0.0
  0
LTYPE
  5
15
330
5
100
AcDbSymbolTableRecord
100
AcDbLinetypeTableRecord
  2
ByLayer
 70
     0
  3

 72
    65
 73
     0
 40
0.0
  0
LTYPE
  5
16
330
5
100
AcDbSymbolTableRecord
100
AcDbLinetypeTableRecord
  2
Continuous
 70
     0
  3
Solid line
 72
    65
 73
     0
 40
0.0
  0
ENDTAB
  0
TABLE
  2
LAYER
  5
2
330
0
100
AcDbSymbolTable
 70
     2
  0
LAYER
  5
10
330
2
100
AcDbSymbolTableRecord
100
AcDbLayerTableRecord
  2
0
 70
     0
 62
     7
  6
Continuous
370
    -3
390
F
347
3E
  0
LAYER
  5
40
330
2
100
AcDbSymbolTableRecord
100
AcDbLayerTableRecord
  2
Layer 1
 70
     0
 62
     7
  6
Continuous
370
    -3
390
F
347
3E
  0
ENDTAB
  0
TABLE
  2
STYLE
  5
3
330
0
100
AcDbSymbolTable
 70
     1
  0
STYLE
  5
11
330
3
100
AcDbSymbolTableRecord
100
AcDbTextStyleTableRecord
  2
Standard
 70
     0
 40
0.0
 41
1.0
 50
0.0
 71
     0
 42
0.2
  3
txt
  4

  0
ENDTAB
  0
TABLE
  2
VIEW
  5
6
330
0
100
AcDbSymbolTable
 70
     0
  0
ENDTAB
  0
TABLE
  2
UCS
  5
7
330
0
100
AcDbSymbolTable
 70
     0
  0
ENDTAB
  0
TABLE
  2
APPID
  5
9
330
0
100
AcDbSymbolTable
 70
     1
  0
APPID
  5
12
330
9
100
AcDbSymbolTableRecord
100
AcDbRegAppTableRecord
  2
ACAD
 70
     0
  0
ENDTAB
  0
TABLE
  2
DIMSTYLE
  5
A
330
0
100
AcDbSymbolTable
 70
     1
100
AcDbDimStyleTable
  0
DIMSTYLE
105
27
330
A
100
AcDbSymbolTableRecord
100
AcDbDimStyleTableRecord
  2
Standard
 70
     0
178
     0
340
11
  0
ENDTAB
  0
TABLE
  2
BLOCK_RECORD
  5
1
330
0
100
AcDbSymbolTable
 70
     3
  0
BLOCK_RECORD
  5
1F
330
1
100
AcDbSymbolTableRecord
100
AcDbBlockTableRecord
  2
*Model_Space
340
22
 70
     0
280
     1
281
     0
  0
BLOCK_RECORD
  5
1B
330
1
100
AcDbSymbolTableRecord
100
AcDbBlockTableRecord
  2
*Paper_Space
340
1E
 70
     0
280
     1
281
     0
  0
BLOCK_RECORD
  5
23
330
1
100
AcDbSymbolTableRecord
100
AcDbBlockTableRecord
  2
*Paper_Space0
340
26
 70
     0
280
     1
281
     0
  0
BLOCK_RECORD
  5
43
330
1
100
AcDbSymbolTableRecord
100
AcDbBlockTableRecord
  2
block 2
340
0
102
{BLKREFS
331
44
102
}
 70
     0
280
     1
281
     0
  0
BLOCK_RECORD
  5
BA
330
1
100
AcDbSymbolTableRecord
100
AcDbBlockTableRecord
  2
block 3
340
0
102
{BLKREFS
331
BB
102
}
 70
     0
280
     1
281
     0
  0
ENDTAB
  0
ENDSEC
  0
SECTION
  2
BLOCKS
  0
BLOCK
  5
20
330
1F
100
AcDbEntity
  8
0
100
AcDbBlockBegin
  2
*Model_Space
 70
     0
 10
0.0
 20
0.0
 30
0.0
  3
*Model_Space
  1

  0
ENDBLK
  5
21
330
1F
100
AcDbEntity
  8
0
100
AcDbBlockEnd
  0
BLOCK
  5
1C
330
1B
100
AcDbEntity
 67
     1
  8
0
100
AcDbBlockBegin
  2
*Paper_Space
 70
     0
 10
0.0
 20
0.0
 30
0.0
  3
*Paper_Space
  1

  0
ENDBLK
  5
1D
330
1B
100
AcDbEntity
 67
     1
  8
0
100
AcDbBlockEnd
  0
BLOCK
  5
24
330
23
100
AcDbEntity
  8
0
100
AcDbBlockBegin
  2
*Paper_Space0
 70
     0
 10
0.0
 20
0.0
 30
0.0
  3
*Paper_Space0
  1

  0
ENDBLK
  5
25
330
23
100
AcDbEntity
  8
0
100
AcDbBlockEnd
  0
BLOCK
  5
45
330
43
100
AcDbEntity
  8
0
100
AcDbBlockBegin
  2
block 2
 70
     0
 10
0.0
 20
0.0
 30
0.0
  3
block 2
  1

  0
POLYLINE
  5
47
330
43
100
AcDbEntity
  8
Layer 1
 62
     7
420
 16777215
370
     9
100
AcDb2dPolyline
 66
     1
 10
0.0
 20
0.0
 30
0.0
  0
VERTEX
  5
48
330
47
100
AcDbEntity
  8
Layer 1
 62
     7
420
 16777215
370
     9
100
AcDbVertex
100
AcDb2dVertex
 10
8.70486111111111
 20
-7.875
 30
0.0
  0
VERTEX
  5
49
330
47
100
AcDbEntity
  8
Layer 1
 62
     7
420
 16777215
370
     9
100
AcDbVertex
100
AcDb2dVertex
 10
8.781941731770832
 20
-6.379163953993055
 30
0.0
  0
VERTEX
  5
4A
330
47
100
AcDbEntity
  8
Layer 1
 62
     7
420
 16777215
370
     9
100
AcDbVertex
100
AcDb2dVertex
 10
9.269443088107638
 20
-6.379163953993055
 30
0.0
  0
VERTEX
  5
4B
330
47
100
AcDbEntity
  8
Layer 1
 62
     7
420
 16777215
370
     9
100
AcDbVertex
100
AcDb2dVertex
 10
9.2611083984375
 20
-6.560411241319444
 30
0.0
  0
VERTEX
  5
4C
330
47
100
AcDbEntity
  8
Layer 1
 62
     7
420
 16777215
370
     9
100
AcDbVertex
100
AcDb2dVertex
 10
8.969441731770832
 20
-6.560411241319444
 30
0.0
  0
VERTEX
  5
4D
330
47
100
AcDbEntity
  8
Layer 1
 62
     7
420
 16777215
370
     9
100
AcDbVertex
100
AcDb2dVertex
 10
8.944444444444445
 20
-7.014580620659721
 30
0.0
  0
VERTEX
  5
4E
330
47
100
AcDbEntity
  8
Layer 1
 62
     7
420
 16777215
370
     9
100
AcDbVertex
100
AcDb2dVertex
 10
9.202779134114582
 20
-7.014580620659721
 30
0.0
  0
VERTEX
  5
4F
330
47
100
AcDbEntity
  8
Layer 1
 62
     7
420
 16777215
370
     9
100
AcDbVertex
100
AcDb2dVertex
 10
9.194444444444445
 20
-7.195827907986111
 30
0.0
  0
VERTEX
  5
50
330
47
100
AcDbEntity
  8
Layer 1
 62
     7
420
 16777215
370
     9
100
AcDbVertex
100
AcDb2dVertex
 10
8.936109754774305
 20
-7.195827907986111
 30
0.0
  0
VERTEX
  5
51
330
47
100
AcDbEntity
  8
Layer 1
 62
     7
420
 16777215
370
     9
100
AcDbVertex
100
AcDb2dVertex
 10
8.909030490451388
 20
-7.693752712673611
 30
0.0
  0
VERTEX
  5
52
330
47
100
AcDbEntity
  8
Layer 1
 62
     7
420
 16777215
370
     9
100
AcDbVertex
100
AcDb2dVertex
 10
9.200697157118055
 20
-7.693752712673611
 30
0.0
  0
VERTEX
  5
53
330
47
100
AcDbEntity
  8
Layer 1
 62
     7
420
 16777215
370
     9
100
AcDbVertex
100
AcDb2dVertex
 10
9.192362467447916
 20
-7.875
 30
0.0
  0
VERTEX
  5
54
330
47
100
AcDbEntity
  8
Layer 1
 62
     7
420
 16777215
370
     9
100
AcDbVertex
100
AcDb2dVertex
 10
8.70486111111111
 20
-7.875
 30
0.0
  0
SEQEND
  5
55
330
47
100
AcDbEntity
  8
Layer 1
 62
     7
420
 16777215
370
     9
  0
POLYLINE
  5
56
330
43
100
AcDbEntity
  8
Layer 1
 62
     7
420
 16777215
370
     9
100
AcDb2dPolyline
 66
     1
 10
0.0
 20
0.0
 30
0.0
  0
VERTEX
  5
57
330
56
100
AcDbEntity
  8
Layer 1
 62
     7
420
 16777215
370
     9
100
AcDbVertex
100
AcDb2dVertex
 10
9.77777099609375
 20
-7.102077907986111
 30
0.0
  0
VERTEX
  5
58
330
56
100
AcDbEntity
  8
Layer 1
 62
     7
420
 16777215
370
     9
100
AcDbVertex
100
AcDb2dVertex
 10
9.815266927083332
 20
-6.379163953993055
 30
0.0
  0
VERTEX
  5
59
330
56
100
AcDbEntity
  8
Layer 1
 62
     7
420
 16777215
370
     9
100
AcDbVertex
100
AcDb2dVertex
 10
10.01110161675347
 20
-6.379163953993055
 30
0.0
  0
VERTEX
  5
5A
330
56
100
AcDbEntity
  8
Layer 1
 62
     7
420
 16777215
370
     9
100
AcDbVertex
100
AcDb2dVertex
 10
9.93402099609375
 20
-7.875
 30
0.0
  0
VERTEX
  5
5B
330
56
100
AcDbEntity
  8
Layer 1
 62
     7
420
 16777215
370
     9
100
AcDbVertex
100
AcDb2dVertex
 10
9.73818630642361
 20
-7.875
 30
0.0
  0
VERTEX
  5
5C
330
56
100
AcDbEntity
  8
Layer 1
 62
     7
420
 16777215
370
     9
100
AcDbVertex
100
AcDb2dVertex
 10
9.752766927083332
 20
-7.577080620659721
 30
0.0
  0
VERTEX
  5
5D
330
56
100
AcDbEntity
  8
Layer 1
 62
     7
420
 16777215
370
     9
100
AcDbVertex
100
AcDb2dVertex
 10
9.577772352430555
 20
-6.895833333333333
 30
0.0
  0
VERTEX
  5
5E
330
56
100
AcDbEntity
  8
Layer 1
 62
     7
420
 16777215
370
     9
100
AcDbVertex
100
AcDb2dVertex
 10
9.52777099609375
 20
-7.875
 30
0.0
  0
VERTEX
  5
5F
330
56
100
AcDbEntity
  8
Layer 1
 62
     7
420
 16777215
370
     9
100
AcDbVertex
100
AcDb2dVertex
 10
9.33193630642361
 20
-7.875
 30
0.0
  0
VERTEX
  5
60
330
56
100
AcDbEntity
  8
Layer 1
 62
     7
420
 16777215
370
     9
100
AcDbVertex
100
AcDb2dVertex
 10
9.409016927083332
 20
-6.379163953993055
 30
0.0
  0
VERTEX
  5
61
330
56
100
AcDbEntity
  8
Layer 1
 62
     7
420
 16777215
370
     9
100
AcDbVertex
100
AcDb2dVertex
 10
9.604851616753471
 20
-6.379163953993055
 30
0.0
  0
VERTEX
  5
62
330
56
100
AcDbEntity
  8
Layer 1
 62
     7
420
 16777215
370
     9
100
AcDbVertex
100
AcDb2dVertex
 10
9.77777099609375
 20
-7.102077907986111
 30
0.0
  0
SEQEND
  5
63
330
56
100
AcDbEntity
  8
Layer 1
 62
     7
420
 16777215
370
     9
  0
SPLINE
  5
64
330
43
100
AcDbEntity
  8
Layer 1
 62
     7
420
 16777215
370
     9
100
AcDbSpline
210
0.0
220
0.0
230
1.0
 70
    11
 71
     3
 72
    65
 73
    61
 74
     0
 42
0.0000000001
 43
0.0000000001
 12
1.0
 22
0.0
 32
0.0
 13
1.0
 23
0.0
 33
0.0
 40
0.0
 40
0.0
 40
0.0
 40
0.0
 40
1.0
 40
1.0
 40
1.0
 40
2.0
 40
2.0
 40
2.0
 40
3.0
 40
3.0
 40
3.0
 40
4.0
 40
4.0
 40
4.0
 40
5.0
 40
5.0
 40
5.0
 40
6.0
 40
6.0
 40
6.0
 40
7.0
 40
7.0
 40
7.0
 40
8.0
 40
8.0
 40
8.0
 40
9.0
 40
9.0
 40
9.0
 40
10.0
 40
10.0
 40
10.0
 40
11.0
 40
11.0
 40
11.0
 40
12.0
 40
12.0
 40
12.0
 40
13.0
 40
13.0
 40
13.0
 40
14.0
 40
14.0
 40
14.0
 40
15.0
 40
15.0
 40
15.0
 40
16.0
 40
16.0
 40
16.0
 40
17.0
 40
17.0
 40
17.0
 40
18.0
 40
18.0
 40
18.0
 40
19.0
 40
19.0
 40
19.0
 40
20.0
 40
20.0
 40
20.0
 40
20.0
 10
10.44651963975694
 20
-7.327080620659721
 30
0.0
 10
10.44651963975694
 20
-7.327080620659721
 30
0.0
 10
10.45693630642361
 20
-7.145833333333333
 30
0.0
 10
10.45693630642361
 20
-7.145833333333333
 30
0.0
 10
10.45693630642361
 20
-7.145833333333333
 30
0.0
 10
10.75484890407986
 20
-7.145833333333333
 30
0.0
 10
10.75484890407986
 20
-7.145833333333333
 30
0.0
 10
10.75484890407986
 20
-7.145833333333333
 30
0.0
 10
10.71735297309028
 20
-7.875
 30
0.0
 10
10.71735297309028
 20
-7.875
 30
0.0
 10
10.71735297309028
 20
-7.875
 30
0.0
 10
10.33401828342014
 20
-7.875
 30
0.0
 10
10.33401828342014
 20
-7.875
 30
0.0
 10
10.1826171875
 20
-7.875
 30
0.0
 10
10.11109754774306
 20
-7.790988498263888
 30
0.0
 10
10.11943223741319
 20
-7.622911241319444
 30
0.0
 10
10.11943223741319
 20
-7.622911241319444
 30
0.0
 10
10.17151557074653
 20
-6.635416666666666
 30
0.0
 10
10.17151557074653
 20
-6.635416666666666
 30
0.0
 10
10.17985026041667
 20
-6.464586046006944
 30
0.0
 10
10.25969780815972
 20
-6.379163953993055
 30
0.0
 10
10.41109890407986
 20
-6.379163953993055
 30
0.0
 10
10.41109890407986
 20
-6.379163953993055
 30
0.0
 10
10.54443359375
 20
-6.379163953993055
 30
0.0
 10
10.54443359375
 20
-6.379163953993055
 30
0.0
 10
10.71110026041667
 20
-6.379163953993055
 30
0.0
 10
10.79026963975694
 20
-6.465983072916666
 30
0.0
 10
10.78193495008681
 20
-6.639580620659721
 30
0.0
 10
10.78193495008681
 20
-6.639580620659721
 30
0.0
 10
10.77360026041667
 20
-6.802083333333333
 30
0.0
 10
10.77360026041667
 20
-6.802083333333333
 30
0.0
 10
10.77360026041667
 20
-6.802083333333333
 30
0.0
 10
10.57776557074653
 20
-6.802083333333333
 30
0.0
 10
10.57776557074653
 20
-6.802083333333333
 30
0.0
 10
10.57776557074653
 20
-6.802083333333333
 30
0.0
 10
10.58401828342014
 20
-6.668755425347221
 30
0.0
 10
10.58401828342014
 20
-6.668755425347221
 30
0.0
 10
10.58818223741319
 20
-6.596544053819444
 30
0.0
 10
10.56246609157986
 20
-6.560411241319444
 30
0.0
 10
10.50693088107639
 20
-6.560411241319444
 30
0.0
 10
10.50693088107639
 20
-6.560411241319444
 30
0.0
 10
10.45693630642361
 20
-6.560411241319444
 30
0.0
 10
10.45693630642361
 20
-6.560411241319444
 30
0.0
 10
10.39997016059028
 20
-6.560411241319444
 30
0.0
 10
10.36943223741319
 20
-6.596544053819444
 30
0.0
 10
10.36526828342014
 20
-6.668755425347221
 30
0.0
 10
10.36526828342014
 20
-6.668755425347221
 30
0.0
 10
10.31734890407986
 20
-7.585422092013888
 30
0.0
 10
10.31734890407986
 20
-7.585422092013888
 30
0.0
 10
10.31318495008681
 20
-7.657647026909721
 30
0.0
 10
10.33955213758681
 20
-7.693752712673611
 30
0.0
 10
10.39651828342014
 20
-7.693752712673611
 30
0.0
 10
10.39651828342014
 20
-7.693752712673611
 30
0.0
 10
10.52985297309028
 20
-7.693752712673611
 30
0.0
 10
10.52985297309028
 20
-7.693752712673611
 30
0.0
 10
10.52985297309028
 20
-7.693752712673611
 30
0.0
 10
10.54859754774306
 20
-7.327080620659721
 30
0.0
 10
10.54859754774306
 20
-7.327080620659721
 30
0.0
 10
10.54859754774306
 20
-7.327080620659721
 30
0.0
 10
10.44651963975694
 20
-7.327080620659721
 30
0.0
 10
10.44651963975694
 20
-7.327080620659721
 30
0.0
  0
POLYLINE
  5
65
330
43
100
AcDbEntity
  8
Layer 1
 62
     7
420
 16777215
370
     9
100
AcDb2dPolyline
 66
     1
 10
0.0
 20
0.0
 30
0.0
  0
VERTEX
  5
66
330
65
100
AcDbEntity
  8
Layer 1
 62
     7
420
 16777215
370
     9
100
AcDbVertex
100
AcDb2dVertex
 10
10.87774658203125
 20
-7.875
 30
0.0
  0
VERTEX
  5
67
330
65
100
AcDbEntity
  8
Layer 1
 62
     7
420
 16777215
370
     9
100
AcDbVertex
100
AcDb2dVertex
 10
10.95482720269097
 20
-6.379163953993055
 30
0.0
  0
VERTEX
  5
68
330
65
100
AcDbEntity
  8
Layer 1
 62
     7
420
 16777215
370
     9
100
AcDbVertex
100
AcDb2dVertex
 10
11.15066189236111
 20
-6.379163953993055
 30
0.0
  0
VERTEX
  5
69
330
65
100
AcDbEntity
  8
Layer 1
 62
     7
420
 16777215
370
     9
100
AcDbVertex
100
AcDb2dVertex
 10
11.07358127170139
 20
-7.875
 30
0.0
  0
VERTEX
  5
6A
330
65
100
AcDbEntity
  8
Layer 1
 62
     7
420
 16777215
370
     9
100
AcDbVertex
100
AcDb2dVertex
 10
10.87774658203125
 20
-7.875
 30
0.0
  0
SEQEND
  5
6B
330
65
100
AcDbEntity
  8
Layer 1
 62
     7
420
 16777215
370
     9
  0
POLYLINE
  5
6C
330
43
100
AcDbEntity
  8
Layer 1
 62
     7
420
 16777215
370
     9
100
AcDb2dPolyline
 66
     1
 10
0.0
 20
0.0
 30
0.0
  0
VERTEX
  5
6D
330
6C
100
AcDbEntity
  8
Layer 1
 62
     7
420
 16777215
370
     9
100
AcDbVertex
100
AcDb2dVertex
 10
11.70273166232639
 20
-7.102077907986111
 30
0.0
  0
VERTEX
  5
6E
330
6C
100
AcDbEntity
  8
Layer 1
 62
     7
420
 16777215
370
     9
100
AcDbVertex
100
AcDb2dVertex
 10
11.74022759331597
 20
-6.379163953993055
 30
0.0
  0
VERTEX
  5
6F
330
6C
100
AcDbEntity
  8
Layer 1
 62
     7
420
 16777215
370
     9
100
AcDbVertex
100
AcDb2dVertex
 10
11.93606228298611
 20
-6.379163953993055
 30
0.0
  0
VERTEX
  5
70
330
6C
100
AcDbEntity
  8
Layer 1
 62
     7
420
 16777215
370
     9
100
AcDbVertex
100
AcDb2dVertex
 10
11.85898166232639
 20
-7.875
 30
0.0
  0
VERTEX
  5
71
330
6C
100
AcDbEntity
  8
Layer 1
 62
     7
420
 16777215
370
     9
100
AcDbVertex
100
AcDb2dVertex
 10
11.66314697265625
 20
-7.875
 30
0.0
  0
VERTEX
  5
72
330
6C
100
AcDbEntity
  8
Layer 1
 62
     7
420
 16777215
370
     9
100
AcDbVertex
100
AcDb2dVertex
 10
11.67772759331597
 20
-7.577080620659721
 30
0.0
  0
VERTEX
  5
73
330
6C
100
AcDbEntity
  8
Layer 1
 62
     7
420
 16777215
370
     9
100
AcDbVertex
100
AcDb2dVertex
 10
11.50273301866319
 20
-6.895833333333333
 30
0.0
  0
VERTEX
  5
74
330
6C
100
AcDbEntity
  8
Layer 1
 62
     7
420
 16777215
370
     9
100
AcDbVertex
100
AcDb2dVertex
 10
11.45273166232639
 20
-7.875
 30
0.0
  0
VERTEX
  5
75
330
6C
100
AcDbEntity
  8
Layer 1
 62
     7
420
 16777215
370
     9
100
AcDbVertex
100
AcDb2dVertex
 10
11.25689697265625
 20
-7.875
 30
0.0
  0
VERTEX
  5
76
330
6C
100
AcDbEntity
  8
Layer 1
 62
     7
420
 16777215
370
     9
100
AcDbVertex
100
AcDb2dVertex
 10
11.33397759331597
 20
-6.379163953993055
 30
0.0
  0
VERTEX
  5
77
330
6C
100
AcDbEntity
  8
Layer 1
 62
     7
420
 16777215
370
     9
100
AcDbVertex
100
AcDb2dVertex
 10
11.52981228298611
 20
-6.379163953993055
 30
0.0
  0
VERTEX
  5
78
330
6C
100
AcDbEntity
  8
Layer 1
 62
     7
420
 16777215
370
     9
100
AcDbVertex
100
AcDb2dVertex
 10
11.70273166232639
 20
-7.102077907986111
 30
0.0
  0
SEQEND
  5
79
330
6C
100
AcDbEntity
  8
Layer 1
 62
     7
420
 16777215
370
     9
  0
POLYLINE
  5
7A
330
43
100
AcDbEntity
  8
Layer 1
 62
     7
420
 16777215
370
     9
100
AcDb2dPolyline
 66
     1
 10
0.0
 20
0.0
 30
0.0
  0
VERTEX
  5
7B
330
7A
100
AcDbEntity
  8
Layer 1
 62
     7
420
 16777215
370
     9
100
AcDbVertex
100
AcDb2dVertex
 10
12.04231092664931
 20
-7.875
 30
0.0
  0
VERTEX
  5
7C
330
7A
100
AcDbEntity
  8
Layer 1
 62
     7
420
 16777215
370
     9
100
AcDbVertex
100
AcDb2dVertex
 10
12.11939154730903
 20
-6.379163953993055
 30
0.0
  0
VERTEX
  5
7D
330
7A
100
AcDbEntity
  8
Layer 1
 62
     7
420
 16777215
370
     9
100
AcDbVertex
100
AcDb2dVertex
 10
12.60689290364583
 20
-6.379163953993055
 30
0.0
  0
VERTEX
  5
7E
330
7A
100
AcDbEntity
  8
Layer 1
 62
     7
420
 16777215
370
     9
100
AcDbVertex
100
AcDb2dVertex
 10
12.59855821397569
 20
-6.560411241319444
 30
0.0
  0
VERTEX
  5
7F
330
7A
100
AcDbEntity
  8
Layer 1
 62
     7
420
 16777215
370
     9
100
AcDbVertex
100
AcDb2dVertex
 10
12.30689154730903
 20
-6.560411241319444
 30
0.0
  0
VERTEX
  5
80
330
7A
100
AcDbEntity
  8
Layer 1
 62
     7
420
 16777215
370
     9
100
AcDbVertex
100
AcDb2dVertex
 10
12.28189425998264
 20
-7.014580620659721
 30
0.0
  0
VERTEX
  5
81
330
7A
100
AcDbEntity
  8
Layer 1
 62
     7
420
 16777215
370
     9
100
AcDbVertex
100
AcDb2dVertex
 10
12.54022894965278
 20
-7.014580620659721
 30
0.0
  0
VERTEX
  5
82
330
7A
100
AcDbEntity
  8
Layer 1
 62
     7
420
 16777215
370
     9
100
AcDbVertex
100
AcDb2dVertex
 10
12.53189425998264
 20
-7.195827907986111
 30
0.0
  0
VERTEX
  5
83
330
7A
100
AcDbEntity
  8
Layer 1
 62
     7
420
 16777215
370
     9
100
AcDbVertex
100
AcDb2dVertex
 10
12.2735595703125
 20
-7.195827907986111
 30
0.0
  0
VERTEX
  5
84
330
7A
100
AcDbEntity
  8
Layer 1
 62
     7
420
 16777215
370
     9
100
AcDbVertex
100
AcDb2dVertex
 10
12.24648030598958
 20
-7.693752712673611
 30
0.0
  0
VERTEX
  5
85
330
7A
100
AcDbEntity
  8
Layer 1
 62
     7
420
 16777215
370
     9
100
AcDbVertex
100
AcDb2dVertex
 10
12.53814697265625
 20
-7.693752712673611
 30
0.0
  0
VERTEX
  5
86
330
7A
100
AcDbEntity
  8
Layer 1
 62
     7
420
 16777215
370
     9
100
AcDbVertex
100
AcDb2dVertex
 10
12.52981228298611
 20
-7.875
 30
0.0
  0
VERTEX
  5
87
330
7A
100
AcDbEntity
  8
Layer 1
 62
     7
420
 16777215
370
     9
100
AcDbVertex
100
AcDb2dVertex
 10
12.04231092664931
 20
-7.875
 30
0.0
  0
SEQEND
  5
88
330
7A
100
AcDbEntity
  8
Layer 1
 62
     7
420
 16777215
370
     9
  0
POLYLINE
  5
89
330
43
100
AcDbEntity
  8
Layer 1
 62
     7
420
 16777215
370
     9
100
AcDb2dPolyline
 66
     1
 10
0.0
 20
0.0
 30
0.0
  0
VERTEX
  5
8A
330
89
100
AcDbEntity
  8
Layer 1
 62
     7
420
 16777215
370
     9
100
AcDbVertex
100
AcDb2dVertex
 10
12.66938612196181
 20
-7.875
 30
0.0
  0
VERTEX
  5
8B
330
89
100
AcDbEntity
  8
Layer 1
 62
     7
420
 16777215
370
     9
100
AcDbVertex
100
AcDb2dVertex
 10
12.74646674262153
 20
-6.379163953993055
 30
0.0
  0
VERTEX
  5
8C
330
89
100
AcDbEntity
  8
Layer 1
 62
     7
420
 16777215
370
     9
100
AcDbVertex
100
AcDb2dVertex
 10
13.23396809895833
 20
-6.379163953993055
 30
0.0
  0
VERTEX
  5
8D
330
89
100
AcDbEntity
  8
Layer 1
 62
     7
420
 16777215
370
     9
100
AcDbVertex
100
AcDb2dVertex
 10
13.22563340928819
 20
-6.560411241319444
 30
0.0
  0
VERTEX
  5
8E
330
89
100
AcDbEntity
  8
Layer 1
 62
     7
420
 16777215
370
     9
100
AcDbVertex
100
AcDb2dVertex
 10
12.93396674262153
 20
-6.560411241319444
 30
0.0
  0
VERTEX
  5
8F
330
89
100
AcDbEntity
  8
Layer 1
 62
     7
420
 16777215
370
     9
100
AcDbVertex
100
AcDb2dVertex
 10
12.90896945529514
 20
-7.014580620659721
 30
0.0
  0
VERTEX
  5
90
330
89
100
AcDbEntity
  8
Layer 1
 62
     7
420
 16777215
370
     9
100
AcDbVertex
100
AcDb2dVertex
 10
13.16730414496528
 20
-7.014580620659721
 30
0.0
  0
VERTEX
  5
91
330
89
100
AcDbEntity
  8
Layer 1
 62
     7
420
 16777215
370
     9
100
AcDbVertex
100
AcDb2dVertex
 10
13.15896945529514
 20
-7.195827907986111
 30
0.0
  0
VERTEX
  5
92
330
89
100
AcDbEntity
  8
Layer 1
 62
     7
420
 16777215
370
     9
100
AcDbVertex
100
AcDb2dVertex
 10
12.900634765625
 20
-7.195827907986111
 30
0.0
  0
VERTEX
  5
93
330
89
100
AcDbEntity
  8
Layer 1
 62
     7
420
 16777215
370
     9
100
AcDbVertex
100
AcDb2dVertex
 10
12.87355550130208
 20
-7.693752712673611
 30
0.0
  0
VERTEX
  5
94
330
89
100
AcDbEntity
  8
Layer 1
 62
     7
420
 16777215
370
     9
100
AcDbVertex
100
AcDb2dVertex
 10
13.16522216796875
 20
-7.693752712673611
 30
0.0
  0
VERTEX
  5
95
330
89
100
AcDbEntity
  8
Layer 1
 62
     7
420
 16777215
370
     9
100
AcDbVertex
100
AcDb2dVertex
 10
13.15688747829861
 20
-7.875
 30
0.0
  0
VERTEX
  5
96
330
89
100
AcDbEntity
  8
Layer 1
 62
     7
420
 16777215
370
     9
100
AcDbVertex
100
AcDb2dVertex
 10
12.66938612196181
 20
-7.875
 30
0.0
  0
SEQEND
  5
97
330
89
100
AcDbEntity
  8
Layer 1
 62
     7
420
 16777215
370
     9
  0
SPLINE
  5
98
330
43
100
AcDbEntity
  8
Layer 1
 62
     7
420
 16777215
370
     9
100
AcDbSpline
210
0.0
220
0.0
230
1.0
 70
    11
 71
     3
 72
    38
 73
    34
 74
     0
 42
0.0000000001
 43
0.0000000001
 12
1.0
 22
0.0
 32
0.0
 13
1.0
 23
0.0
 33
0.0
 40
0.0
 40
0.0
 40
0.0
 40
0.0
 40
1.0
 40
1.0
 40
1.0
 40
2.0
 40
2.0
 40
2.0
 40
3.0
 40
3.0
 40
3.0
 40
4.0
 40
4.0
 40
4.0
 40
5.0
 40
5.0
 40
5.0
 40
6.0
 40
6.0
 40
6.0
 40
7.0
 40
7.0
 40
7.0
 40
8.0
 40
8.0
 40
8.0
 40
9.0
 40
9.0
 40
9.0
 40
10.0
 40
10.0
 40
10.0
 40
11.0
 40
11.0
 40
11.0
 40
11.0
 10
13.37354193793403
 20
-6.379163953993055
 30
0.0
 10
13.37354193793403
 20
-6.379163953993055
 30
0.0
 10
13.75687662760417
 20
-6.379163953993055
 30
0.0
 10
13.75687662760417
 20
-6.379163953993055
 30
0.0
 10
13.90688069661458
 20
-6.379163953993055
 30
0.0
 10
13.97770860460069
 20
-6.464586046006944
 30
0.0
 10
13.96938069661458
 20
-6.635416666666666
 30
0.0
 10
13.96938069661458
 20
-6.635416666666666
 30
0.0
 10
13.95062934027778
 20
-7.004163953993055
 30
0.0
 10
13.95062934027778
 20
-7.004163953993055
 30
0.0
 10
13.94366455078125
 20
-7.134738498263888
 30
0.0
 10
13.89990912543403
 20
-7.217380099826388
 30
0.0
 10
13.81937662760417
 20
-7.252088758680555
 30
0.0
 10
13.81937662760417
 20
-7.252088758680555
 30
0.0
 10
13.92562527126736
 20
-7.875
 30
0.0
 10
13.92562527126736
 20
-7.875
 30
0.0
 10
13.92562527126736
 20
-7.875
 30
0.0
 10
13.74021402994792
 20
-7.875
 30
0.0
 10
13.74021402994792
 20
-7.875
 30
0.0
 10
13.74021402994792
 20
-7.875
 30
0.0
 10
13.64229329427083
 20
-7.270833333333333
 30
0.0
 10
13.64229329427083
 20
-7.270833333333333
 30
0.0
 10
13.64229329427083
 20
-7.270833333333333
 30
0.0
 10
13.52354600694444
 20
-7.270833333333333
 30
0.0
 10
13.52354600694444
 20
-7.270833333333333
 30
0.0
 10
13.52354600694444
 20
-7.270833333333333
 30
0.0
 10
13.49229600694444
 20
-7.875
 30
0.0
 10
13.49229600694444
 20
-7.875
 30
0.0
 10
13.49229600694444
 20
-7.875
 30
0.0
 10
13.29646131727431
 20
-7.875
 30
0.0
 10
13.29646131727431
 20
-7.875
 30
0.0
 10
13.29646131727431
 20
-7.875
 30
0.0
 10
13.37354193793403
 20
-6.379163953993055
 30
0.0
 10
13.37354193793403
 20
-6.379163953993055
 30
0.0
  0
SPLINE
  5
99
330
43
100
AcDbEntity
  8
Layer 1
 62
     7
420
 16777215
370
     9
100
AcDbSpline
210
0.0
220
0.0
230
1.0
 70
    11
 71
     3
 72
    23
 73
    19
 74
     0
 42
0.0000000001
 43
0.0000000001
 12
1.0
 22
0.0
 32
0.0
 13
1.0
 23
0.0
 33
0.0
 40
0.0
 40
0.0
 40
0.0
 40
0.0
 40
1.0
 40
1.0
 40
1.0
 40
2.0
 40
2.0
 40
2.0
 40
3.0
 40
3.0
 40
3.0
 40
4.0
 40
4.0
 40
4.0
 40
5.0
 40
5.0
 40
5.0
 40
6.0
 40
6.0
 40
6.0
 40
6.0
 10
13.53188069661458
 20
-7.100002712673611
 30
0.0
 10
13.53188069661458
 20
-7.100002712673611
 30
0.0
 10
13.66104465060764
 20
-7.100002712673611
 30
0.0
 10
13.66104465060764
 20
-7.100002712673611
 30
0.0
 10
13.71938069661458
 20
-7.100002712673611
 30
0.0
 10
13.75063069661458
 20
-7.063897026909721
 30
0.0
 10
13.75479465060764
 20
-6.991672092013888
 30
0.0
 10
13.75479465060764
 20
-6.991672092013888
 30
0.0
 10
13.77146402994792
 20
-6.668755425347221
 30
0.0
 10
13.77146402994792
 20
-6.668755425347221
 30
0.0
 10
13.77562798394097
 20
-6.596544053819444
 30
0.0
 10
13.74854193793403
 20
-6.560411241319444
 30
0.0
 10
13.69021267361111
 20
-6.560411241319444
 30
0.0
 10
13.69021267361111
 20
-6.560411241319444
 30
0.0
 10
13.56104193793403
 20
-6.560411241319444
 30
0.0
 10
13.56104193793403
 20
-6.560411241319444
 30
0.0
 10
13.56104193793403
 20
-6.560411241319444
 30
0.0
 10
13.53188069661458
 20
-7.100002712673611
 30
0.0
 10
13.53188069661458
 20
-7.100002712673611
 30
0.0
  0
POLYLINE
  5
9A
330
43
100
AcDbEntity
  8
Layer 1
 62
     7
420
 16777215
370
     9
100
AcDb2dPolyline
 66
     1
 10
0.0
 20
0.0
 30
0.0
  0
VERTEX
  5
9B
330
9A
100
AcDbEntity
  8
Layer 1
 62
     7
420
 16777215
370
     9
100
AcDbVertex
100
AcDb2dVertex
 10
14.06728786892361
 20
-7.875
 30
0.0
  0
VERTEX
  5
9C
330
9A
100
AcDbEntity
  8
Layer 1
 62
     7
420
 16777215
370
     9
100
AcDbVertex
100
AcDb2dVertex
 10
14.14436848958333
 20
-6.379163953993055
 30
0.0
  0
VERTEX
  5
9D
330
9A
100
AcDbEntity
  8
Layer 1
 62
     7
420
 16777215
370
     9
100
AcDbVertex
100
AcDb2dVertex
 10
14.34020317925347
 20
-6.379163953993055
 30
0.0
  0
VERTEX
  5
9E
330
9A
100
AcDbEntity
  8
Layer 1
 62
     7
420
 16777215
370
     9
100
AcDbVertex
100
AcDb2dVertex
 10
14.26312255859375
 20
-7.875
 30
0.0
  0
VERTEX
  5
9F
330
9A
100
AcDbEntity
  8
Layer 1
 62
     7
420
 16777215
370
     9
100
AcDbVertex
100
AcDb2dVertex
 10
14.06728786892361
 20
-7.875
 30
0.0
  0
SEQEND
  5
A0
330
9A
100
AcDbEntity
  8
Layer 1
 62
     7
420
 16777215
370
     9
  0
POLYLINE
  5
A1
330
43
100
AcDbEntity
  8
Layer 1
 62
     7
420
 16777215
370
     9
100
AcDb2dPolyline
 66
     1
 10
0.0
 20
0.0
 30
0.0
  0
VERTEX
  5
A2
330
A1
100
AcDbEntity
  8
Layer 1
 62
     7
420
 16777215
370
     9
100
AcDbVertex
100
AcDb2dVertex
 10
14.89226616753472
 20
-7.102077907986111
 30
0.0
  0
VERTEX
  5
A3
330
A1
100
AcDbEntity
  8
Layer 1
 62
     7
420
 16777215
370
     9
100
AcDbVertex
100
AcDb2dVertex
 10
14.92976888020833
 20
-6.379163953993055
 30
0.0
  0
VERTEX
  5
A4
330
A1
100
AcDbEntity
  8
Layer 1
 62
     7
420
 16777215
370
     9
100
AcDbVertex
100
AcDb2dVertex
 10
15.1256103515625
 20
-6.379163953993055
 30
0.0
  0
VERTEX
  5
A5
330
A1
100
AcDbEntity
  8
Layer 1
 62
     7
420
 16777215
370
     9
100
AcDbVertex
100
AcDb2dVertex
 10
15.04851616753472
 20
-7.875
 30
0.0
  0
VERTEX
  5
A6
330
A1
100
AcDbEntity
  8
Layer 1
 62
     7
420
 16777215
370
     9
100
AcDbVertex
100
AcDb2dVertex
 10
14.85268825954861
 20
-7.875
 30
0.0
  0
VERTEX
  5
A7
330
A1
100
AcDbEntity
  8
Layer 1
 62
     7
420
 16777215
370
     9
100
AcDbVertex
100
AcDb2dVertex
 10
14.86726888020833
 20
-7.577080620659721
 30
0.0
  0
VERTEX
  5
A8
330
A1
100
AcDbEntity
  8
Layer 1
 62
     7
420
 16777215
370
     9
100
AcDbVertex
100
AcDb2dVertex
 10
14.69227430555556
 20
-6.895833333333333
 30
0.0
  0
VERTEX
  5
A9
330
A1
100
AcDbEntity
  8
Layer 1
 62
     7
420
 16777215
370
     9
100
AcDbVertex
100
AcDb2dVertex
 10
14.64227294921875
 20
-7.875
 30
0.0
  0
VERTEX
  5
AA
330
A1
100
AcDbEntity
  8
Layer 1
 62
     7
420
 16777215
370
     9
100
AcDbVertex
100
AcDb2dVertex
 10
14.44643825954861
 20
-7.875
 30
0.0
  0
VERTEX
  5
AB
330
A1
100
AcDbEntity
  8
Layer 1
 62
     7
420
 16777215
370
     9
100
AcDbVertex
100
AcDb2dVertex
 10
14.52351888020833
 20
-6.379163953993055
 30
0.0
  0
VERTEX
  5
AC
330
A1
100
AcDbEntity
  8
Layer 1
 62
     7
420
 16777215
370
     9
100
AcDbVertex
100
AcDb2dVertex
 10
14.7193603515625
 20
-6.379163953993055
 30
0.0
  0
VERTEX
  5
AD
330
A1
100
AcDbEntity
  8
Layer 1
 62
     7
420
 16777215
370
     9
100
AcDbVertex
100
AcDb2dVertex
 10
14.89226616753472
 20
-7.102077907986111
 30
0.0
  0
SEQEND
  5
AE
330
A1
100
AcDbEntity
  8
Layer 1
 62
     7
420
 16777215
370
     9
  0
SPLINE
  5
AF
330
43
100
AcDbEntity
  8
Layer 1
 62
     7
420
 16777215
370
     9
100
AcDbSpline
210
0.0
220
0.0
230
1.0
 70
    11
 71
     3
 72
    65
 73
    61
 74
     0
 42
0.0000000001
 43
0.0000000001
 12
1.0
 22
0.0
 32
0.0
 13
1.0
 23
0.0
 33
0.0
 40
0.0
 40
0.0
 40
0.0
 40
0.0
 40
1.0
 40
1.0
 40
1.0
 40
2.0
 40
2.0
 40
2.0
 40
3.0
 40
3.0
 40
3.0
 40
4.0
 40
4.0
 40
4.0
 40
5.0
 40
5.0
 40
5.0
 40
6.0
 40
6.0
 40
6.0
 40
7.0
 40
7.0
 40
7.0
 40
8.0
 40
8.0
 40
8.0
 40
9.0
 40
9.0
 40
9.0
 40
10.0
 40
10.0
 40
10.0
 40
11.0
 40
11.0
 40
11.0
 40
12.0
 40
12.0
 40
12.0
 40
13.0
 40
13.0
 40
13.0
 40
14.0
 40
14.0
 40
14.0
 40
15.0
 40
15.0
 40
15.0
 40
16.0
 40
16.0
 40
16.0
 40
17.0
 40
17.0
 40
17.0
 40
18.0
 40
18.0
 40
18.0
 40
19.0
 40
19.0
 40
19.0
 40
20.0
 40
20.0
 40
20.0
 40
20.0
 10
15.56102159288194
 20
-7.327080620659721
 30
0.0
 10
15.56102159288194
 20
-7.327080620659721
 30
0.0
 10
15.57143825954861
 20
-7.145833333333333
 30
0.0
 10
15.57143825954861
 20
-7.145833333333333
 30
0.0
 10
15.57143825954861
 20
-7.145833333333333
 30
0.0
 10
15.86935763888889
 20
-7.145833333333333
 30
0.0
 10
15.86935763888889
 20
-7.145833333333333
 30
0.0
 10
15.86935763888889
 20
-7.145833333333333
 30
0.0
 10
15.83185492621528
 20
-7.875
 30
0.0
 10
15.83185492621528
 20
-7.875
 30
0.0
 10
15.83185492621528
 20
-7.875
 30
0.0
 10
15.44851345486111
 20
-7.875
 30
0.0
 10
15.44851345486111
 20
-7.875
 30
0.0
 10
15.297119140625
 20
-7.875
 30
0.0
 10
15.22559950086806
 20
-7.790988498263888
 30
0.0
 10
15.23394097222222
 20
-7.622911241319444
 30
0.0
 10
15.23394097222222
 20
-7.622911241319444
 30
0.0
 10
15.28602430555556
 20
-6.635416666666666
 30
0.0
 10
15.28602430555556
 20
-6.635416666666666
 30
0.0
 10
15.29435221354167
 20
-6.464586046006944
 30
0.0
 10
15.37419976128472
 20
-6.379163953993055
 30
0.0
 10
15.52560763888889
 20
-6.379163953993055
 30
0.0
 10
15.52560763888889
 20
-6.379163953993055
 30
0.0
 10
15.658935546875
 20
-6.379163953993055
 30
0.0
 10
15.658935546875
 20
-6.379163953993055
 30
0.0
 10
15.82560221354167
 20
-6.379163953993055
 30
0.0
 10
15.90477159288194
 20
-6.465983072916666
 30
0.0
 10
15.89643012152778
 20
-6.639580620659721
 30
0.0
 10
15.89643012152778
 20
-6.639580620659721
 30
0.0
 10
15.88810221354167
 20
-6.802083333333333
 30
0.0
 10
15.88810221354167
 20
-6.802083333333333
 30
0.0
 10
15.88810221354167
 20
-6.802083333333333
 30
0.0
 10
15.69227430555556
 20
-6.802083333333333
 30
0.0
 10
15.69227430555556
 20
-6.802083333333333
 30
0.0
 10
15.69227430555556
 20
-6.802083333333333
 30
0.0
 10
15.69851345486111
 20
-6.668755425347221
 30
0.0
 10
15.69851345486111
 20
-6.668755425347221
 30
0.0
 10
15.70269097222222
 20
-6.596544053819444
 30
0.0
 10
15.67697482638889
 20
-6.560411241319444
 30
0.0
 10
15.62143283420139
 20
-6.560411241319444
 30
0.0
 10
15.62143283420139
 20
-6.560411241319444
 30
0.0
 10
15.57143825954861
 20
-6.560411241319444
 30
0.0
 10
15.57143825954861
 20
-6.560411241319444
 30
0.0
 10
15.51447211371528
 20
-6.560411241319444
 30
0.0
 10
15.48394097222222
 20
-6.596544053819444
 30
0.0
 10
15.47976345486111
 20
-6.668755425347221
 30
0.0
 10
15.47976345486111
 20
-6.668755425347221
 30
0.0
 10
15.43185763888889
 20
-7.585422092013888
 30
0.0
 10
15.43185763888889
 20
-7.585422092013888
 30
0.0
 10
15.42768012152778
 20
-7.657647026909721
 30
0.0
 10
15.45404730902778
 20
-7.693752712673611
 30
0.0
 10
15.51101345486111
 20
-7.693752712673611
 30
0.0
 10
15.51101345486111
 20
-7.693752712673611
 30
0.0
 10
15.64435492621528
 20
-7.693752712673611
 30
0.0
 10
15.64435492621528
 20
-7.693752712673611
 30
0.0
 10
15.64435492621528
 20
-7.693752712673611
 30
0.0
 10
15.66309950086806
 20
-7.327080620659721
 30
0.0
 10
15.66309950086806
 20
-7.327080620659721
 30
0.0
 10
15.66309950086806
 20
-7.327080620659721
 30
0.0
 10
15.56102159288194
 20
-7.327080620659721
 30
0.0
 10
15.56102159288194
 20
-7.327080620659721
 30
0.0
  0
ENDBLK
  5
46
330
43
100
AcDbEntity
  8
0
100
AcDbBlockEnd
  0
BLOCK
  5
BC
330
BA
100
AcDbEntity
  8
0
100
AcDbBlockBegin
  2
block 3
 70
     0
 10
0.0
 20
0.0
 30
0.0
  3
block 3
  1

  0
POLYLINE
  5
BE
330
BA
100
AcDbEntity
  8
Layer 1
 62
     7
420
 16777215
370
     9
100
AcDb2dPolyline
 66
     1
 10
0.0
 20
0.0
 30
0.0
  0
VERTEX
  5
BF
330
BE
100
AcDbEntity
  8
Layer 1
 62
     7
420
 16777215
370
     9
100
AcDbVertex
100
AcDb2dVertex
 10
9.024027506510416
 20
-12.41048177083333
 30
0.0
  0
VERTEX
  5
C0
330
BE
100
AcDbEntity
  8
Layer 1
 62
     7
420
 16777215
370
     9
100
AcDbVertex
100
AcDb2dVertex
 10
9.101108127170138
 20
-10.91464572482639
 30
0.0
  0
VERTEX
  5
C1
330
BE
100
AcDbEntity
  8
Layer 1
 62
     7
420
 16777215
370
     9
100
AcDbVertex
100
AcDb2dVertex
 10
9.588609483506945
 20
-10.91464572482639
 30
0.0
  0
VERTEX
  5
C2
330
BE
100
AcDbEntity
  8
Layer 1
 62
     7
420
 16777215
370
     9
100
AcDbVertex
100
AcDb2dVertex
 10
9.580274793836805
 20
-11.09589301215278
 30
0.0
  0
VERTEX
  5
C3
330
BE
100
AcDbEntity
  8
Layer 1
 62
     7
420
 16777215
370
     9
100
AcDbVertex
100
AcDb2dVertex
 10
9.288608127170138
 20
-11.09589301215278
 30
0.0
  0
VERTEX
  5
C4
330
BE
100
AcDbEntity
  8
Layer 1
 62
     7
420
 16777215
370
     9
100
AcDbVertex
100
AcDb2dVertex
 10
9.26361083984375
 20
-11.55006239149306
 30
0.0
  0
VERTEX
  5
C5
330
BE
100
AcDbEntity
  8
Layer 1
 62
     7
420
 16777215
370
     9
100
AcDbVertex
100
AcDb2dVertex
 10
9.521945529513888
 20
-11.55006239149306
 30
0.0
  0
VERTEX
  5
C6
330
BE
100
AcDbEntity
  8
Layer 1
 62
     7
420
 16777215
370
     9
100
AcDbVertex
100
AcDb2dVertex
 10
9.51361083984375
 20
-11.73130967881944
 30
0.0
  0
VERTEX
  5
C7
330
BE
100
AcDbEntity
  8
Layer 1
 62
     7
420
 16777215
370
     9
100
AcDbVertex
100
AcDb2dVertex
 10
9.25527615017361
 20
-11.73130967881944
 30
0.0
  0
VERTEX
  5
C8
330
BE
100
AcDbEntity
  8
Layer 1
 62
     7
420
 16777215
370
     9
100
AcDbVertex
100
AcDb2dVertex
 10
9.228196885850695
 20
-12.22923448350694
 30
0.0
  0
VERTEX
  5
C9
330
BE
100
AcDbEntity
  8
Layer 1
 62
     7
420
 16777215
370
     9
100
AcDbVertex
100
AcDb2dVertex
 10
9.51986355251736
 20
-12.22923448350694
 30
0.0
  0
VERTEX
  5
CA
330
BE
100
AcDbEntity
  8
Layer 1
 62
     7
420
 16777215
370
     9
100
AcDbVertex
100
AcDb2dVertex
 10
9.511528862847221
 20
-12.41048177083333
 30
0.0
  0
VERTEX
  5
CB
330
BE
100
AcDbEntity
  8
Layer 1
 62
     7
420
 16777215
370
     9
100
AcDbVertex
100
AcDb2dVertex
 10
9.024027506510416
 20
-12.41048177083333
 30
0.0
  0
SEQEND
  5
CC
330
BE
100
AcDbEntity
  8
Layer 1
 62
     7
420
 16777215
370
     9
  0
POLYLINE
  5
CD
330
BA
100
AcDbEntity
  8
Layer 1
 62
     7
420
 16777215
370
     9
100
AcDb2dPolyline
 66
     1
 10
0.0
 20
0.0
 30
0.0
  0
VERTEX
  5
CE
330
CD
100
AcDbEntity
  8
Layer 1
 62
     7
420
 16777215
370
     9
100
AcDbVertex
100
AcDb2dVertex
 10
10.09693739149306
 20
-11.63755967881944
 30
0.0
  0
VERTEX
  5
CF
330
CD
100
AcDbEntity
  8
Layer 1
 62
     7
420
 16777215
370
     9
100
AcDbVertex
100
AcDb2dVertex
 10
10.13443332248264
 20
-10.91464572482639
 30
0.0
  0
VERTEX
  5
D0
330
CD
100
AcDbEntity
  8
Layer 1
 62
     7
420
 16777215
370
     9
100
AcDbVertex
100
AcDb2dVertex
 10
10.33026801215278
 20
-10.91464572482639
 30
0.0
  0
VERTEX
  5
D1
330
CD
100
AcDbEntity
  8
Layer 1
 62
     7
420
 16777215
370
     9
100
AcDbVertex
100
AcDb2dVertex
 10
10.25318739149306
 20
-12.41048177083333
 30
0.0
  0
VERTEX
  5
D2
330
CD
100
AcDbEntity
  8
Layer 1
 62
     7
420
 16777215
370
     9
100
AcDbVertex
100
AcDb2dVertex
 10
10.05735270182292
 20
-12.41048177083333
 30
0.0
  0
VERTEX
  5
D3
330
CD
100
AcDbEntity
  8
Layer 1
 62
     7
420
 16777215
370
     9
100
AcDbVertex
100
AcDb2dVertex
 10
10.07193332248264
 20
-12.11256239149306
 30
0.0
  0
VERTEX
  5
D4
330
CD
100
AcDbEntity
  8
Layer 1
 62
     7
420
 16777215
370
     9
100
AcDbVertex
100
AcDb2dVertex
 10
9.89693874782986
 20
-11.43131510416667
 30
0.0
  0
VERTEX
  5
D5
330
CD
100
AcDbEntity
  8
Layer 1
 62
     7
420
 16777215
370
     9
100
AcDbVertex
100
AcDb2dVertex
 10
9.846937391493055
 20
-12.41048177083333
 30
0.0
  0
VERTEX
  5
D6
330
CD
100
AcDbEntity
  8
Layer 1
 62
     7
420
 16777215
370
     9
100
AcDbVertex
100
AcDb2dVertex
 10
9.651102701822916
 20
-12.41048177083333
 30
0.0
  0
VERTEX
  5
D7
330
CD
100
AcDbEntity
  8
Layer 1
 62
     7
420
 16777215
370
     9
100
AcDbVertex
100
AcDb2dVertex
 10
9.728183322482638
 20
-10.91464572482639
 30
0.0
  0
VERTEX
  5
D8
330
CD
100
AcDbEntity
  8
Layer 1
 62
     7
420
 16777215
370
     9
100
AcDbVertex
100
AcDb2dVertex
 10
9.924018012152777
 20
-10.91464572482639
 30
0.0
  0
VERTEX
  5
D9
330
CD
100
AcDbEntity
  8
Layer 1
 62
     7
420
 16777215
370
     9
100
AcDbVertex
100
AcDb2dVertex
 10
10.09693739149306
 20
-11.63755967881944
 30
0.0
  0
SEQEND
  5
DA
330
CD
100
AcDbEntity
  8
Layer 1
 62
     7
420
 16777215
370
     9
  0
SPLINE
  5
DB
330
BA
100
AcDbEntity
  8
Layer 1
 62
     7
420
 16777215
370
     9
100
AcDbSpline
210
0.0
220
0.0
230
1.0
 70
    11
 71
     3
 72
    65
 73
    61
 74
     0
 42
0.0000000001
 43
0.0000000001
 12
1.0
 22
0.0
 32
0.0
 13
1.0
 23
0.0
 33
0.0
 40
0.0
 40
0.0
 40
0.0
 40
0.0
 40
1.0
 40
1.0
 40
1.0
 40
2.0
 40
2.0
 40
2.0
 40
3.0
 40
3.0
 40
3.0
 40
4.0
 40
4.0
 40
4.0
 40
5.0
 40
5.0
 40
5.0
 40
6.0
 40
6.0
 40
6.0
 40
7.0
 40
7.0
 40
7.0
 40
8.0
 40
8.0
 40
8.0
 40
9.0
 40
9.0
 40
9.0
 40
10.0
 40
10.0
 40
10.0
 40
11.0
 40
11.0
 40
11.0
 40
12.0
 40
12.0
 40
12.0
 40
13.0
 40
13.0
 40
13.0
 40
14.0
 40
14.0
 40
14.0
 40
15.0
 40
15.0
 40
15.0
 40
16.0
 40
16.0
 40
16.0
 40
17.0
 40
17.0
 40
17.0
 40
18.0
 40
18.0
 40
18.0
 40
19.0
 40
19.0
 40
19.0
 40
20.0
 40
20.0
 40
20.0
 40
20.0
 10
10.76568603515625
 20
-11.86256239149306
 30
0.0
 10
10.76568603515625
 20
-11.86256239149306
 30
0.0
 10
10.77610270182292
 20
-11.68131510416667
 30
0.0
 10
10.77610270182292
 20
-11.68131510416667
 30
0.0
 10
10.77610270182292
 20
-11.68131510416667
 30
0.0
 10
11.07401529947917
 20
-11.68131510416667
 30
0.0
 10
11.07401529947917
 20
-11.68131510416667
 30
0.0
 10
11.07401529947917
 20
-11.68131510416667
 30
0.0
 10
11.03651936848958
 20
-12.41048177083333
 30
0.0
 10
11.03651936848958
 20
-12.41048177083333
 30
0.0
 10
11.03651936848958
 20
-12.41048177083333
 30
0.0
 10
10.65318467881944
 20
-12.41048177083333
 30
0.0
 10
10.65318467881944
 20
-12.41048177083333
 30
0.0
 10
10.50178358289931
 20
-12.41048177083333
 30
0.0
 10
10.43026394314236
 20
-12.32647026909722
 30
0.0
 10
10.4385986328125
 20
-12.15839301215278
 30
0.0
 10
10.4385986328125
 20
-12.15839301215278
 30
0.0
 10
10.49068196614583
 20
-11.1708984375
 30
0.0
 10
10.49068196614583
 20
-11.1708984375
 30
0.0
 10
10.49901665581597
 20
-11.00006781684028
 30
0.0
 10
10.57886420355903
 20
-10.91464572482639
 30
0.0
 10
10.73026529947917
 20
-10.91464572482639
 30
0.0
 10
10.73026529947917
 20
-10.91464572482639
 30
0.0
 10
10.86359998914931
 20
-10.91464572482639
 30
0.0
 10
10.86359998914931
 20
-10.91464572482639
 30
0.0
 10
11.03026665581597
 20
-10.91464572482639
 30
0.0
 10
11.10943603515625
 20
-11.00146484375
 30
0.0
 10
11.10110134548611
 20
-11.17506239149306
 30
0.0
 10
11.10110134548611
 20
-11.17506239149306
 30
0.0
 10
11.09276665581597
 20
-11.33756510416667
 30
0.0
 10
11.09276665581597
 20
-11.33756510416667
 30
0.0
 10
11.09276665581597
 20
-11.33756510416667
 30
0.0
 10
10.89693196614583
 20
-11.33756510416667
 30
0.0
 10
10.89693196614583
 20
-11.33756510416667
 30
0.0
 10
10.89693196614583
 20
-11.33756510416667
 30
0.0
 10
10.90318467881944
 20
-11.20423719618056
 30
0.0
 10
10.90318467881944
 20
-11.20423719618056
 30
0.0
 10
10.9073486328125
 20
-11.13202582465278
 30
0.0
 10
10.88163248697917
 20
-11.09589301215278
 30
0.0
 10
10.82609727647569
 20
-11.09589301215278
 30
0.0
 10
10.82609727647569
 20
-11.09589301215278
 30
0.0
 10
10.77610270182292
 20
-11.09589301215278
 30
0.0
 10
10.77610270182292
 20
-11.09589301215278
 30
0.0
 10
10.71913655598958
 20
-11.09589301215278
 30
0.0
 10
10.6885986328125
 20
-11.13202582465278
 30
0.0
 10
10.68443467881944
 20
-11.20423719618056
 30
0.0
 10
10.68443467881944
 20
-11.20423719618056
 30
0.0
 10
10.63651529947917
 20
-12.12090386284722
 30
0.0
 10
10.63651529947917
 20
-12.12090386284722
 30
0.0
 10
10.63235134548611
 20
-12.19312879774306
 30
0.0
 10
10.65871853298611
 20
-12.22923448350694
 30
0.0
 10
10.71568467881944
 20
-12.22923448350694
 30
0.0
 10
10.71568467881944
 20
-12.22923448350694
 30
0.0
 10
10.84901936848958
 20
-12.22923448350694
 30
0.0
 10
10.84901936848958
 20
-12.22923448350694
 30
0.0
 10
10.84901936848958
 20
-12.22923448350694
 30
0.0
 10
10.86776394314236
 20
-11.86256239149306
 30
0.0
 10
10.86776394314236
 20
-11.86256239149306
 30
0.0
 10
10.86776394314236
 20
-11.86256239149306
 30
0.0
 10
10.76568603515625
 20
-11.86256239149306
 30
0.0
 10
10.76568603515625
 20
-11.86256239149306
 30
0.0
  0
POLYLINE
  5
DC
330
BA
100
AcDbEntity
  8
Layer 1
 62
     7
420
 16777215
370
     9
100
AcDb2dPolyline
 66
     1
 10
0.0
 20
0.0
 30
0.0
  0
VERTEX
  5
DD
330
DC
100
AcDbEntity
  8
Layer 1
 62
     7
420
 16777215
370
     9
100
AcDbVertex
100
AcDb2dVertex
 10
11.19691297743056
 20
-12.41048177083333
 30
0.0
  0
VERTEX
  5
DE
330
DC
100
AcDbEntity
  8
Layer 1
 62
     7
420
 16777215
370
     9
100
AcDbVertex
100
AcDb2dVertex
 10
11.27399359809028
 20
-10.91464572482639
 30
0.0
  0
VERTEX
  5
DF
330
DC
100
AcDbEntity
  8
Layer 1
 62
     7
420
 16777215
370
     9
100
AcDbVertex
100
AcDb2dVertex
 10
11.46982828776042
 20
-10.91464572482639
 30
0.0
  0
VERTEX
  5
E0
330
DC
100
AcDbEntity
  8
Layer 1
 62
     7
420
 16777215
370
     9
100
AcDbVertex
100
AcDb2dVertex
 10
11.39274766710069
 20
-12.41048177083333
 30
0.0
  0
VERTEX
  5
E1
330
DC
100
AcDbEntity
  8
Layer 1
 62
     7
420
 16777215
370
     9
100
AcDbVertex
100
AcDb2dVertex
 10
11.19691297743056
 20
-12.41048177083333
 30
0.0
  0
SEQEND
  5
E2
330
DC
100
AcDbEntity
  8
Layer 1
 62
     7
420
 16777215
370
     9
  0
POLYLINE
  5
E3
330
BA
100
AcDbEntity
  8
Layer 1
 62
     7
420
 16777215
370
     9
100
AcDb2dPolyline
 66
     1
 10
0.0
 20
0.0
 30
0.0
  0
VERTEX
  5
E4
330
E3
100
AcDbEntity
  8
Layer 1
 62
     7
420
 16777215
370
     9
100
AcDbVertex
100
AcDb2dVertex
 10
12.02189805772569
 20
-11.63755967881944
 30
0.0
  0
VERTEX
  5
E5
330
E3
100
AcDbEntity
  8
Layer 1
 62
     7
420
 16777215
370
     9
100
AcDbVertex
100
AcDb2dVertex
 10
12.05939398871528
 20
-10.91464572482639
 30
0.0
  0
VERTEX
  5
E6
330
E3
100
AcDbEntity
  8
Layer 1
 62
     7
420
 16777215
370
     9
100
AcDbVertex
100
AcDb2dVertex
 10
12.25522867838542
 20
-10.91464572482639
 30
0.0
  0
VERTEX
  5
E7
330
E3
100
AcDbEntity
  8
Layer 1
 62
     7
420
 16777215
370
     9
100
AcDbVertex
100
AcDb2dVertex
 10
12.17814805772569
 20
-12.41048177083333
 30
0.0
  0
VERTEX
  5
E8
330
E3
100
AcDbEntity
  8
Layer 1
 62
     7
420
 16777215
370
     9
100
AcDbVertex
100
AcDb2dVertex
 10
11.98231336805556
 20
-12.41048177083333
 30
0.0
  0
VERTEX
  5
E9
330
E3
100
AcDbEntity
  8
Layer 1
 62
     7
420
 16777215
370
     9
100
AcDbVertex
100
AcDb2dVertex
 10
11.99689398871528
 20
-12.11256239149306
 30
0.0
  0
VERTEX
  5
EA
330
E3
100
AcDbEntity
  8
Layer 1
 62
     7
420
 16777215
370
     9
100
AcDbVertex
100
AcDb2dVertex
 10
11.8218994140625
 20
-11.43131510416667
 30
0.0
  0
VERTEX
  5
EB
330
E3
100
AcDbEntity
  8
Layer 1
 62
     7
420
 16777215
370
     9
100
AcDbVertex
100
AcDb2dVertex
 10
11.77189805772569
 20
-12.41048177083333
 30
0.0
  0
VERTEX
  5
EC
330
E3
100
AcDbEntity
  8
Layer 1
 62
     7
420
 16777215
370
     9
100
AcDbVertex
100
AcDb2dVertex
 10
11.57606336805556
 20
-12.41048177083333
 30
0.0
  0
VERTEX
  5
ED
330
E3
100
AcDbEntity
  8
Layer 1
 62
     7
420
 16777215
370
     9
100
AcDbVertex
100
AcDb2dVertex
 10
11.65314398871528
 20
-10.91464572482639
 30
0.0
  0
VERTEX
  5
EE
330
E3
100
AcDbEntity
  8
Layer 1
 62
     7
420
 16777215
370
     9
100
AcDbVertex
100
AcDb2dVertex
 10
11.84897867838542
 20
-10.91464572482639
 30
0.0
  0
VERTEX
  5
EF
330
E3
100
AcDbEntity
  8
Layer 1
 62
     7
420
 16777215
370
     9
100
AcDbVertex
100
AcDb2dVertex
 10
12.02189805772569
 20
-11.63755967881944
 30
0.0
  0
SEQEND
  5
F0
330
E3
100
AcDbEntity
  8
Layer 1
 62
     7
420
 16777215
370
     9
  0
POLYLINE
  5
F1
330
BA
100
AcDbEntity
  8
Layer 1
 62
     7
420
 16777215
370
     9
100
AcDb2dPolyline
 66
     1
 10
0.0
 20
0.0
 30
0.0
  0
VERTEX
  5
F2
330
F1
100
AcDbEntity
  8
Layer 1
 62
     7
420
 16777215
370
     9
100
AcDbVertex
100
AcDb2dVertex
 10
12.36147732204861
 20
-12.41048177083333
 30
0.0
  0
VERTEX
  5
F3
330
F1
100
AcDbEntity
  8
Layer 1
 62
     7
420
 16777215
370
     9
100
AcDbVertex
100
AcDb2dVertex
 10
12.43855794270833
 20
-10.91464572482639
 30
0.0
  0
VERTEX
  5
F4
330
F1
100
AcDbEntity
  8
Layer 1
 62
     7
420
 16777215
370
     9
100
AcDbVertex
100
AcDb2dVertex
 10
12.92605929904514
 20
-10.91464572482639
 30
0.0
  0
VERTEX
  5
F5
330
F1
100
AcDbEntity
  8
Layer 1
 62
     7
420
 16777215
370
     9
100
AcDbVertex
100
AcDb2dVertex
 10
12.917724609375
 20
-11.09589301215278
 30
0.0
  0
VERTEX
  5
F6
330
F1
100
AcDbEntity
  8
Layer 1
 62
     7
420
 16777215
370
     9
100
AcDbVertex
100
AcDb2dVertex
 10
12.62605794270833
 20
-11.09589301215278
 30
0.0
  0
VERTEX
  5
F7
330
F1
100
AcDbEntity
  8
Layer 1
 62
     7
420
 16777215
370
     9
100
AcDbVertex
100
AcDb2dVertex
 10
12.60106065538194
 20
-11.55006239149306
 30
0.0
  0
VERTEX
  5
F8
330
F1
100
AcDbEntity
  8
Layer 1
 62
     7
420
 16777215
370
     9
100
AcDbVertex
100
AcDb2dVertex
 10
12.85939534505208
 20
-11.55006239149306
 30
0.0
  0
VERTEX
  5
F9
330
F1
100
AcDbEntity
  8
Layer 1
 62
     7
420
 16777215
370
     9
100
AcDbVertex
100
AcDb2dVertex
 10
12.85106065538194
 20
-11.73130967881944
 30
0.0
  0
VERTEX
  5
FA
330
F1
100
AcDbEntity
  8
Layer 1
 62
     7
420
 16777215
370
     9
100
AcDbVertex
100
AcDb2dVertex
 10
12.59272596571181
 20
-11.73130967881944
 30
0.0
  0
VERTEX
  5
FB
330
F1
100
AcDbEntity
  8
Layer 1
 62
     7
420
 16777215
370
     9
100
AcDbVertex
100
AcDb2dVertex
 10
12.56564670138889
 20
-12.22923448350694
 30
0.0
  0
VERTEX
  5
FC
330
F1
100
AcDbEntity
  8
Layer 1
 62
     7
420
 16777215
370
     9
100
AcDbVertex
100
AcDb2dVertex
 10
12.85731336805556
 20
-12.22923448350694
 30
0.0
  0
VERTEX
  5
FD
330
F1
100
AcDbEntity
  8
Layer 1
 62
     7
420
 16777215
370
     9
100
AcDbVertex
100
AcDb2dVertex
 10
12.84897867838542
 20
-12.41048177083333
 30
0.0
  0
VERTEX
  5
FE
330
F1
100
AcDbEntity
  8
Layer 1
 62
     7
420
 16777215
370
     9
100
AcDbVertex
100
AcDb2dVertex
 10
12.36147732204861
 20
-12.41048177083333
 30
0.0
  0
SEQEND
  5
FF
330
F1
100
AcDbEntity
  8
Layer 1
 62
     7
420
 16777215
370
     9
  0
POLYLINE
  5
100
330
BA
100
AcDbEntity
  8
Layer 1
 62
     7
420
 16777215
370
     9
100
AcDb2dPolyline
 66
     1
 10
0.0
 20
0.0
 30
0.0
  0
VERTEX
  5
101
330
100
100
AcDbEntity
  8
Layer 1
 62
     7
420
 16777215
370
     9
100
AcDbVertex
100
AcDb2dVertex
 10
12.98855251736111
 20
-12.41048177083333
 30
0.0
  0
VERTEX
  5
102
330
100
100
AcDbEntity
  8
Layer 1
 62
     7
420
 16777215
370
     9
100
AcDbVertex
100
AcDb2dVertex
 10
13.06563313802083
 20
-10.91464572482639
 30
0.0
  0
VERTEX
  5
103
330
100
100
AcDbEntity
  8
Layer 1
 62
     7
420
 16777215
370
     9
100
AcDbVertex
100
AcDb2dVertex
 10
13.55313449435764
 20
-10.91464572482639
 30
0.0
  0
VERTEX
  5
104
330
100
100
AcDbEntity
  8
Layer 1
 62
     7
420
 16777215
370
     9
100
AcDbVertex
100
AcDb2dVertex
 10
13.5447998046875
 20
-11.09589301215278
 30
0.0
  0
VERTEX
  5
105
330
100
100
AcDbEntity
  8
Layer 1
 62
     7
420
 16777215
370
     9
100
AcDbVertex
100
AcDb2dVertex
 10
13.25313313802083
 20
-11.09589301215278
 30
0.0
  0
VERTEX
  5
106
330
100
100
AcDbEntity
  8
Layer 1
 62
     7
420
 16777215
370
     9
100
AcDbVertex
100
AcDb2dVertex
 10
13.22813585069444
 20
-11.55006239149306
 30
0.0
  0
VERTEX
  5
107
330
100
100
AcDbEntity
  8
Layer 1
 62
     7
420
 16777215
370
     9
100
AcDbVertex
100
AcDb2dVertex
 10
13.48647054036458
 20
-11.55006239149306
 30
0.0
  0
VERTEX
  5
108
330
100
100
AcDbEntity
  8
Layer 1
 62
     7
420
 16777215
370
     9
100
AcDbVertex
100
AcDb2dVertex
 10
13.47813585069444
 20
-11.73130967881944
 30
0.0
  0
VERTEX
  5
109
330
100
100
AcDbEntity
  8
Layer 1
 62
     7
420
 16777215
370
     9
100
AcDbVertex
100
AcDb2dVertex
 10
13.21980116102431
 20
-11.73130967881944
 30
0.0
  0
VERTEX
  5
10A
330
100
100
AcDbEntity
  8
Layer 1
 62
     7
420
 16777215
370
     9
100
AcDbVertex
100
AcDb2dVertex
 10
13.19272189670139
 20
-12.22923448350694
 30
0.0
  0
VERTEX
  5
10B
330
100
100
AcDbEntity
  8
Layer 1
 62
     7
420
 16777215
370
     9
100
AcDbVertex
100
AcDb2dVertex
 10
13.48438856336806
 20
-12.22923448350694
 30
0.0
  0
VERTEX
  5
10C
330
100
100
AcDbEntity
  8
Layer 1
 62
     7
420
 16777215
370
     9
100
AcDbVertex
100
AcDb2dVertex
 10
13.47605387369792
 20
-12.41048177083333
 30
0.0
  0
VERTEX
  5
10D
330
100
100
AcDbEntity
  8
Layer 1
 62
     7
420
 16777215
370
     9
100
AcDbVertex
100
AcDb2dVertex
 10
12.98855251736111
 20
-12.41048177083333
 30
0.0
  0
SEQEND
  5
10E
330
100
100
AcDbEntity
  8
Layer 1
 62
     7
420
 16777215
370
     9
  0
SPLINE
  5
10F
330
BA
100
AcDbEntity
  8
Layer 1
 62
     7
420
 16777215
370
     9
100
AcDbSpline
210
0.0
220
0.0
230
1.0
 70
    11
 71
     3
 72
    38
 73
    34
 74
     0
 42
0.0000000001
 43
0.0000000001
 12
1.0
 22
0.0
 32
0.0
 13
1.0
 23
0.0
 33
0.0
 40
0.0
 40
0.0
 40
0.0
 40
0.0
 40
1.0
 40
1.0
 40
1.0
 40
2.0
 40
2.0
 40
2.0
 40
3.0
 40
3.0
 40
3.0
 40
4.0
 40
4.0
 40
4.0
 40
5.0
 40
5.0
 40
5.0
 40
6.0
 40
6.0
 40
6.0
 40
7.0
 40
7.0
 40
7.0
 40
8.0
 40
8.0
 40
8.0
 40
9.0
 40
9.0
 40
9.0
 40
10.0
 40
10.0
 40
10.0
 40
11.0
 40
11.0
 40
11.0
 40
11.0
 10
13.69270833333333
 20
-10.91464572482639
 30
0.0
 10
13.69270833333333
 20
-10.91464572482639
 30
0.0
 10
14.07604302300347
 20
-10.91464572482639
 30
0.0
 10
14.07604302300347
 20
-10.91464572482639
 30
0.0
 10
14.22604709201389
 20
-10.91464572482639
 30
0.0
 10
14.296875
 20
-11.00006781684028
 30
0.0
 10
14.28854709201389
 20
-11.1708984375
 30
0.0
 10
14.28854709201389
 20
-11.1708984375
 30
0.0
 10
14.26979573567708
 20
-11.53964572482639
 30
0.0
 10
14.26979573567708
 20
-11.53964572482639
 30
0.0
 10
14.26283094618056
 20
-11.67022026909722
 30
0.0
 10
14.21907552083333
 20
-11.75286187065972
 30
0.0
 10
14.13854302300347
 20
-11.78757052951389
 30
0.0
 10
14.13854302300347
 20
-11.78757052951389
 30
0.0
 10
14.24479166666667
 20
-12.41048177083333
 30
0.0
 10
14.24479166666667
 20
-12.41048177083333
 30
0.0
 10
14.24479166666667
 20
-12.41048177083333
 30
0.0
 10
14.05938042534722
 20
-12.41048177083333
 30
0.0
 10
14.05938042534722
 20
-12.41048177083333
 30
0.0
 10
14.05938042534722
 20
-12.41048177083333
 30
0.0
 10
13.96145968967014
 20
-11.80631510416667
 30
0.0
 10
13.96145968967014
 20
-11.80631510416667
 30
0.0
 10
13.96145968967014
 20
-11.80631510416667
 30
0.0
 10
13.84271240234375
 20
-11.80631510416667
 30
0.0
 10
13.84271240234375
 20
-11.80631510416667
 30
0.0
 10
13.84271240234375
 20
-11.80631510416667
 30
0.0
 10
13.81146240234375
 20
-12.41048177083333
 30
0.0
 10
13.81146240234375
 20
-12.41048177083333
 30
0.0
 10
13.81146240234375
 20
-12.41048177083333
 30
0.0
 10
13.61562771267361
 20
-12.41048177083333
 30
0.0
 10
13.61562771267361
 20
-12.41048177083333
 30
0.0
 10
13.61562771267361
 20
-12.41048177083333
 30
0.0
 10
13.69270833333333
 20
-10.91464572482639
 30
0.0
 10
13.69270833333333
 20
-10.91464572482639
 30
0.0
  0
SPLINE
  5
110
330
BA
100
AcDbEntity
  8
Layer 1
 62
     7
420
 16777215
370
     9
100
AcDbSpline
210
0.0
220
0.0
230
1.0
 70
    11
 71
     3
 72
    23
 73
    19
 74
     0
 42
0.0000000001
 43
0.0000000001
 12
1.0
 22
0.0
 32
0.0
 13
1.0
 23
0.0
 33
0.0
 40
0.0
 40
0.0
 40
0.0
 40
0.0
 40
1.0
 40
1.0
 40
1.0
 40
2.0
 40
2.0
 40
2.0
 40
3.0
 40
3.0
 40
3.0
 40
4.0
 40
4.0
 40
4.0
 40
5.0
 40
5.0
 40
5.0
 40
6.0
 40
6.0
 40
6.0
 40
6.0
 10
13.85104709201389
 20
-11.63548448350694
 30
0.0
 10
13.85104709201389
 20
-11.63548448350694
 30
0.0
 10
13.98021104600694
 20
-11.63548448350694
 30
0.0
 10
13.98021104600694
 20
-11.63548448350694
 30
0.0
 10
14.03854709201389
 20
-11.63548448350694
 30
0.0
 10
14.06979709201389
 20
-11.59937879774306
 30
0.0
 10
14.07396104600694
 20
-11.52715386284722
 30
0.0
 10
14.07396104600694
 20
-11.52715386284722
 30
0.0
 10
14.09063042534722
 20
-11.20423719618056
 30
0.0
 10
14.09063042534722
 20
-11.20423719618056
 30
0.0
 10
14.09479437934028
 20
-11.13202582465278
 30
0.0
 10
14.06770833333333
 20
-11.09589301215278
 30
0.0
 10
14.00937906901042
 20
-11.09589301215278
 30
0.0
 10
14.00937906901042
 20
-11.09589301215278
 30
0.0
 10
13.88020833333333
 20
-11.09589301215278
 30
0.0
 10
13.88020833333333
 20
-11.09589301215278
 30
0.0
 10
13.88020833333333
 20
-11.09589301215278
 30
0.0
 10
13.85104709201389
 20
-11.63548448350694
 30
0.0
 10
13.85104709201389
 20
-11.63548448350694
 30
0.0
  0
POLYLINE
  5
111
330
BA
100
AcDbEntity
  8
Layer 1
 62
     7
420
 16777215
370
     9
100
AcDb2dPolyline
 66
     1
 10
0.0
 20
0.0
 30
0.0
  0
VERTEX
  5
112
330
111
100
AcDbEntity
  8
Layer 1
 62
     7
420
 16777215
370
     9
100
AcDbVertex
100
AcDb2dVertex
 10
14.38645426432292
 20
-12.41048177083333
 30
0.0
  0
VERTEX
  5
113
330
111
100
AcDbEntity
  8
Layer 1
 62
     7
420
 16777215
370
     9
100
AcDbVertex
100
AcDb2dVertex
 10
14.46353488498264
 20
-10.91464572482639
 30
0.0
  0
VERTEX
  5
114
330
111
100
AcDbEntity
  8
Layer 1
 62
     7
420
 16777215
370
     9
100
AcDbVertex
100
AcDb2dVertex
 10
14.65936957465278
 20
-10.91464572482639
 30
0.0
  0
VERTEX
  5
115
330
111
100
AcDbEntity
  8
Layer 1
 62
     7
420
 16777215
370
     9
100
AcDbVertex
100
AcDb2dVertex
 10
14.58228895399306
 20
-12.41048177083333
 30
0.0
  0
VERTEX
  5
116
330
111
100
AcDbEntity
  8
Layer 1
 62
     7
420
 16777215
370
     9
100
AcDbVertex
100
AcDb2dVertex
 10
14.38645426432292
 20
-12.41048177083333
 30
0.0
  0
SEQEND
  5
117
330
111
100
AcDbEntity
  8
Layer 1
 62
     7
420
 16777215
370
     9
  0
POLYLINE
  5
118
330
BA
100
AcDbEntity
  8
Layer 1
 62
     7
420
 16777215
370
     9
100
AcDb2dPolyline
 66
     1
 10
0.0
 20
0.0
 30
0.0
  0
VERTEX
  5
119
330
118
100
AcDbEntity
  8
Layer 1
 62
     7
420
 16777215
370
     9
100
AcDbVertex
100
AcDb2dVertex
 10
15.21143256293403
 20
-11.63755967881944
 30
0.0
  0
VERTEX
  5
11A
330
118
100
AcDbEntity
  8
Layer 1
 62
     7
420
 16777215
370
     9
100
AcDbVertex
100
AcDb2dVertex
 10
15.24893527560764
 20
-10.91464572482639
 30
0.0
  0
VERTEX
  5
11B
330
118
100
AcDbEntity
  8
Layer 1
 62
     7
420
 16777215
370
     9
100
AcDbVertex
100
AcDb2dVertex
 10
15.44477674696181
 20
-10.91464572482639
 30
0.0
  0
VERTEX
  5
11C
330
118
100
AcDbEntity
  8
Layer 1
 62
     7
420
 16777215
370
     9
100
AcDbVertex
100
AcDb2dVertex
 10
15.36768256293403
 20
-12.41048177083333
 30
0.0
  0
VERTEX
  5
11D
330
118
100
AcDbEntity
  8
Layer 1
 62
     7
420
 16777215
370
     9
100
AcDbVertex
100
AcDb2dVertex
 10
15.17185465494792
 20
-12.41048177083333
 30
0.0
  0
VERTEX
  5
11E
330
118
100
AcDbEntity
  8
Layer 1
 62
     7
420
 16777215
370
     9
100
AcDbVertex
100
AcDb2dVertex
 10
15.18643527560764
 20
-12.11256239149306
 30
0.0
  0
VERTEX
  5
11F
330
118
100
AcDbEntity
  8
Layer 1
 62
     7
420
 16777215
370
     9
100
AcDbVertex
100
AcDb2dVertex
 10
15.01144070095486
 20
-11.43131510416667
 30
0.0
  0
VERTEX
  5
120
330
118
100
AcDbEntity
  8
Layer 1
 62
     7
420
 16777215
370
     9
100
AcDbVertex
100
AcDb2dVertex
 10
14.96143934461806
 20
-12.41048177083333
 30
0.0
  0
VERTEX
  5
121
330
118
100
AcDbEntity
  8
Layer 1
 62
     7
420
 16777215
370
     9
100
AcDbVertex
100
AcDb2dVertex
 10
14.76560465494792
 20
-12.41048177083333
 30
0.0
  0
VERTEX
  5
122
330
118
100
AcDbEntity
  8
Layer 1
 62
     7
420
 16777215
370
     9
100
AcDbVertex
100
AcDb2dVertex
 10
14.84268527560764
 20
-10.91464572482639
 30
0.0
  0
VERTEX
  5
123
330
118
100
AcDbEntity
  8
Layer 1
 62
     7
420
 16777215
370
     9
100
AcDbVertex
100
AcDb2dVertex
 10
15.03852674696181
 20
-10.91464572482639
 30
0.0
  0
VERTEX
  5
124
330
118
100
AcDbEntity
  8
Layer 1
 62
     7
420
 16777215
370
     9
100
AcDbVertex
100
AcDb2dVertex
 10
15.21143256293403
 20
-11.63755967881944
 30
0.0
  0
SEQEND
  5
125
330
118
100
AcDbEntity
  8
Layer 1
 62
     7
420
 16777215
370
     9
  0
SPLINE
  5
126
330
BA
100
AcDbEntity
  8
Layer 1
 62
     7
420
 16777215
370
     9
100
AcDbSpline
210
0.0
220
0.0
230
1.0
 70
    11
 71
     3
 72
    65
 73
    61
 74
     0
 42
0.0000000001
 43
0.0000000001
 12
1.0
 22
0.0
 32
0.0
 13
1.0
 23
0.0
 33
0.0
 40
0.0
 40
0.0
 40
0.0
 40
0.0
 40
1.0
 40
1.0
 40
1.0
 40
2.0
 40
2.0
 40
2.0
 40
3.0
 40
3.0
 40
3.0
 40
4.0
 40
4.0
 40
4.0
 40
5.0
 40
5.0
 40
5.0
 40
6.0
 40
6.0
 40
6.0
 40
7.0
 40
7.0
 40
7.0
 40
8.0
 40
8.0
 40
8.0
 40
9.0
 40
9.0
 40
9.0
 40
10.0
 40
10.0
 40
10.0
 40
11.0
 40
11.0
 40
11.0
 40
12.0
 40
12.0
 40
12.0
 40
13.0
 40
13.0
 40
13.0
 40
14.0
 40
14.0
 40
14.0
 40
15.0
 40
15.0
 40
15.0
 40
16.0
 40
16.0
 40
16.0
 40
17.0
 40
17.0
 40
17.0
 40
18.0
 40
18.0
 40
18.0
 40
19.0
 40
19.0
 40
19.0
 40
20.0
 40
20.0
 40
20.0
 40
20.0
 10
15.88018798828125
 20
-11.86256239149306
 30
0.0
 10
15.88018798828125
 20
-11.86256239149306
 30
0.0
 10
15.89060465494792
 20
-11.68131510416667
 30
0.0
 10
15.89060465494792
 20
-11.68131510416667
 30
0.0
 10
15.89060465494792
 20
-11.68131510416667
 30
0.0
 10
16.18852403428819
 20
-11.68131510416667
 30
0.0
 10
16.18852403428819
 20
-11.68131510416667
 30
0.0
 10
16.18852403428819
 20
-11.68131510416667
 30
0.0
 10
16.15102132161458
 20
-12.41048177083333
 30
0.0
 10
16.15102132161458
 20
-12.41048177083333
 30
0.0
 10
16.15102132161458
 20
-12.41048177083333
 30
0.0
 10
15.76767985026042
 20
-12.41048177083333
 30
0.0
 10
15.76767985026042
 20
-12.41048177083333
 30
0.0
 10
15.61628553602431
 20
-12.41048177083333
 30
0.0
 10
15.54476589626736
 20
-12.32647026909722
 30
0.0
 10
15.55310736762153
 20
-12.15839301215278
 30
0.0
 10
15.55310736762153
 20
-12.15839301215278
 30
0.0
 10
15.60519070095486
 20
-11.1708984375
 30
0.0
 10
15.60519070095486
 20
-11.1708984375
 30
0.0
 10
15.61351860894097
 20
-11.00006781684028
 30
0.0
 10
15.69336615668403
 20
-10.91464572482639
 30
0.0
 10
15.84477403428819
 20
-10.91464572482639
 30
0.0
 10
15.84477403428819
 20
-10.91464572482639
 30
0.0
 10
15.97810194227431
 20
-10.91464572482639
 30
0.0
 10
15.97810194227431
 20
-10.91464572482639
 30
0.0
 10
16.14476860894097
 20
-10.91464572482639
 30
0.0
 10
16.22393798828125
 20
-11.00146484375
 30
0.0
 10
16.21559651692708
 20
-11.17506239149306
 30
0.0
 10
16.21559651692708
 20
-11.17506239149306
 30
0.0
 10
16.20726860894097
 20
-11.33756510416667
 30
0.0
 10
16.20726860894097
 20
-11.33756510416667
 30
0.0
 10
16.20726860894097
 20
-11.33756510416667
 30
0.0
 10
16.01144070095486
 20
-11.33756510416667
 30
0.0
 10
16.01144070095486
 20
-11.33756510416667
 30
0.0
 10
16.01144070095486
 20
-11.33756510416667
 30
0.0
 10
16.01767985026041
 20
-11.20423719618056
 30
0.0
 10
16.01767985026041
 20
-11.20423719618056
 30
0.0
 10
16.02185736762153
 20
-11.13202582465278
 30
0.0
 10
15.99614122178819
 20
-11.09589301215278
 30
0.0
 10
15.94059922960069
 20
-11.09589301215278
 30
0.0
 10
15.94059922960069
 20
-11.09589301215278
 30
0.0
 10
15.89060465494792
 20
-11.09589301215278
 30
0.0
 10
15.89060465494792
 20
-11.09589301215278
 30
0.0
 10
15.83363850911458
 20
-11.09589301215278
 30
0.0
 10
15.80310736762153
 20
-11.13202582465278
 30
0.0
 10
15.79892985026042
 20
-11.20423719618056
 30
0.0
 10
15.79892985026042
 20
-11.20423719618056
 30
0.0
 10
15.75102403428819
 20
-12.12090386284722
 30
0.0
 10
15.75102403428819
 20
-12.12090386284722
 30
0.0
 10
15.74684651692708
 20
-12.19312879774306
 30
0.0
 10
15.77321370442708
 20
-12.22923448350694
 30
0.0
 10
15.83017985026042
 20
-12.22923448350694
 30
0.0
 10
15.83017985026042
 20
-12.22923448350694
 30
0.0
 10
15.96352132161458
 20
-12.22923448350694
 30
0.0
 10
15.96352132161458
 20
-12.22923448350694
 30
0.0
 10
15.96352132161458
 20
-12.22923448350694
 30
0.0
 10
15.98226589626736
 20
-11.86256239149306
 30
0.0
 10
15.98226589626736
 20
-11.86256239149306
 30
0.0
 10
15.98226589626736
 20
-11.86256239149306
 30
0.0
 10
15.88018798828125
 20
-11.86256239149306
 30
0.0
 10
15.88018798828125
 20
-11.86256239149306
 30
0.0
  0
ENDBLK
  5
BD
330
BA
100
AcDbEntity
  8
0
100
AcDbBlockEnd
  0
ENDSEC
  0
SECTION
  2
ENTITIES
  0
SPLINE
  5
41
330
1F
100
AcDbEntity
  8
Layer 1
 62
     1
420
 16711680
370
     9
100
AcDbSpline
210
0.0
220
0.0
230
1.0
 70
    11
 71
     3
 72
    29
 73
    25
 74
     0
 42
0.0000000001
 43
0.0000000001
 12
1.0
 22
0.0
 32
0.0
 13
1.0
 23
0.0
 33
0.0
 40
0.0
 40
0.0
 40
0.0
 40
0.0
 40
1.0
 40
1.0
 40
1.0
 40
2.0
 40
2.0
 40
2.0
 40
3.0
 40
3.0
 40
3.0
 40
4.0
 40
4.0
 40
4.0
 40
5.0
 40
5.0
 40
5.0
 40
6.0
 40
6.0
 40
6.0
 40
7.0
 40
7.0
 40
7.0
 40
8.0
 40
8.0
 40
8.0
 40
8.0
 10
8.416700575086805
 20
-9.00469970703125
 30
0.0
 10
8.23794894748264
 20
-9.00469970703125
 30
0.0
 10
8.092522515190971
 20
-8.859273274739582
 30
0.0
 10
8.092522515190971
 20
-8.680521647135416
 30
0.0
 10
8.092522515190971
 20
-8.680521647135416
 30
0.0
 10
8.092522515190971
 20
-5.513922797309028
 30
0.0
 10
8.092522515190971
 20
-5.513922797309028
 30
0.0
 10
8.092522515190971
 20
-5.335171169704861
 30
0.0
 10
8.23794894748264
 20
-5.189744737413194
 30
0.0
 10
8.416700575086805
 20
-5.189744737413194
 30
0.0
 10
8.416700575086805
 20
-5.189744737413194
 30
0.0
 10
17.08329942491319
 20
-5.189744737413194
 30
0.0
 10
17.08329942491319
 20
-5.189744737413194
 30
0.0
 10
17.26205105251736
 20
-5.189744737413194
 30
0.0
 10
17.40747748480903
 20
-5.335171169704861
 30
0.0
 10
17.40747748480903
 20
-5.513922797309028
 30
0.0
 10
17.40747748480903
 20
-5.513922797309028
 30
0.0
 10
17.40747748480903
 20
-8.680521647135416
 30
0.0
 10
17.40747748480903
 20
-8.680521647135416
 30
0.0
 10
17.40747748480903
 20
-8.859273274739582
 30
0.0
 10
17.26205105251736
 20
-9.00469970703125
 30
0.0
 10
17.08329942491319
 20
-9.00469970703125
 30
0.0
 10
17.08329942491319
 20
-9.00469970703125
 30
0.0
 10
8.416700575086805
 20
-9.00469970703125
 30
0.0
 10
8.416700575086805
 20
-9.00469970703125
 30
0.0
  0
SPLINE
  5
42
330
1F
100
AcDbEntity
  8
Layer 1
 62
     7
420
 16777215
370
     9
100
AcDbSpline
210
0.0
220
0.0
230
1.0
 70
    11
 71
     3
 72
    29
 73
    25
 74
     0
 42
0.0000000001
 43
0.0000000001
 12
1.0
 22
0.0
 32
0.0
 13
1.0
 23
0.0
 33
0.0
 40
0.0
 40
0.0
 40
0.0
 40
0.0
 40
1.0
 40
1.0
 40
1.0
 40
2.0
 40
2.0
 40
2.0
 40
3.0
 40
3.0
 40
3.0
 40
4.0
 40
4.0
 40
4.0
 40
5.0
 40
5.0
 40
5.0
 40
6.0
 40
6.0
 40
6.0
 40
7.0
 40
7.0
 40
7.0
 40
8.0
 40
8.0
 40
8.0
 40
8.0
 10
17.08330000000001
 20
-8.847222222222221
 30
0.0
 10
17.08330000000001
 20
-8.847222222222221
 30
0.0
 10
8.416699999999992
 20
-8.847222222222221
 30
0.0
 10
8.416699999999992
 20
-8.847222222222221
 30
0.0
 10
8.325014999999995
 20
-8.847222222222221
 30
0.0
 10
8.25
 20
-8.772207222222226
 30
0.0
 10
8.25
 20
-8.68052222222223
 30
0.0
 10
8.25
 20
-8.68052222222223
 30
0.0
 10
8.25
 20
-5.513922222222226
 30
0.0
 10
8.25
 20
-5.513922222222226
 30
0.0
 10
8.25
 20
-5.422237222222217
 30
0.0
 10
8.325014999999995
 20
-5.347222222222222
 30
0.0
 10
8.416699999999992
 20
-5.347222222222222
 30
0.0
 10
8.416699999999992
 20
-5.347222222222222
 30
0.0
 10
17.08330000000001
 20
-5.347222222222222
 30
0.0
 10
17.08330000000001
 20
-5.347222222222222
 30
0.0
 10
17.174985
 20
-5.347222222222222
 30
0.0
 10
17.25
 20
-5.422237222222217
 30
0.0
 10
17.25
 20
-5.513922222222226
 30
0.0
 10
17.25
 20
-5.513922222222226
 30
0.0
 10
17.25
 20
-8.68052222222223
 30
0.0
 10
17.25
 20
-8.68052222222223
 30
0.0
 10
17.25
 20
-8.772207222222226
 30
0.0
 10
17.174985
 20
-8.847222222222221
 30
0.0
 10
17.08330000000001
 20
-8.847222222222221
 30
0.0
  0
INSERT
  5
44
330
1F
100
AcDbEntity
  8
Layer 1
100
AcDbBlockReference
  2
block 2
 10
0.0
 20
0.0
 30
0.0
  0
POLYLINE
  5
B0
330
1F
100
AcDbEntity
  8
Layer 1
 62
     7
420
 16777215
370
     9
100
AcDb2dPolyline
 66
     1
 10
0.0
 20
0.0
 30
0.0
  0
VERTEX
  5
B1
330
B0
100
AcDbEntity
  8
Layer 1
 62
     7
420
 16777215
370
     9
100
AcDbVertex
100
AcDb2dVertex
 10
17.07958306206597
 20
-7.077361212836371
 30
0.0
  0
VERTEX
  5
B2
330
B0
100
AcDbEntity
  8
Layer 1
 62
     7
420
 16777215
370
     9
100
AcDbVertex
100
AcDb2dVertex
 10
16.43291558159722
 20
-8.197638617621527
 30
0.0
  0
VERTEX
  5
B3
330
B0
100
AcDbEntity
  8
Layer 1
 62
     7
420
 16777215
370
     9
100
AcDbVertex
100
AcDb2dVertex
 10
16.1629163953993
 20
-8.197638617621527
 30
0.0
  0
VERTEX
  5
B4
330
B0
100
AcDbEntity
  8
Layer 1
 62
     7
420
 16777215
370
     9
100
AcDbVertex
100
AcDb2dVertex
 10
16.8097229003907
 20
-7.077361212836371
 30
0.0
  0
VERTEX
  5
B5
330
B0
100
AcDbEntity
  8
Layer 1
 62
     7
420
 16777215
370
     9
100
AcDbVertex
100
AcDb2dVertex
 10
16.1629163953993
 20
-5.957082960340712
 30
0.0
  0
VERTEX
  5
B6
330
B0
100
AcDbEntity
  8
Layer 1
 62
     7
420
 16777215
370
     9
100
AcDbVertex
100
AcDb2dVertex
 10
16.43291558159722
 20
-5.957082960340712
 30
0.0
  0
VERTEX
  5
B7
330
B0
100
AcDbEntity
  8
Layer 1
 62
     7
420
 16777215
370
     9
100
AcDbVertex
100
AcDb2dVertex
 10
17.07958306206597
 20
-7.077361212836371
 30
0.0
  0
SEQEND
  5
B8
330
B0
100
AcDbEntity
  8
Layer 1
 62
     7
420
 16777215
370
     9
  0
SPLINE
  5
B9
330
1F
100
AcDbEntity
  8
Layer 1
 62
     7
420
 16777215
370
     9
100
AcDbSpline
210
0.0
220
0.0
230
1.0
 70
    11
 71
     3
 72
    26
 73
    22
 74
     0
 42
0.0000000001
 43
0.0000000001
 12
1.0
 22
0.0
 32
0.0
 13
1.0
 23
0.0
 33
0.0
 40
0.0
 40
0.0
 40
0.0
 40
0.0
 40
1.0
 40
1.0
 40
1.0
 40
2.0
 40
2.0
 40
2.0
 40
3.0
 40
3.0
 40
3.0
 40
4.0
 40
4.0
 40
4.0
 40
5.0
 40
5.0
 40
5.0
 40
6.0
 40
6.0
 40
6.0
 40
7.0
 40
7.0
 40
7.0
 40
7.0
 10
17.5691663953993
 20
-11.63276672363281
 30
0.0
 10
17.5691663953993
 20
-11.63276672363281
 30
0.0
 10
16.55902777777778
 20
-13.38276672363281
 30
0.0
 10
16.55902777777778
 20
-13.38276672363281
 30
0.0
 10
16.55902777777778
 20
-13.38276672363281
 30
0.0
 10
8.735833062065971
 20
-13.38276672363281
 30
0.0
 10
8.735833062065971
 20
-13.38276672363281
 30
0.0
 10
8.644166734483507
 20
-13.38276672363281
 30
0.0
 10
8.569166395399305
 20
-13.30762736002604
 30
0.0
 10
8.569166395399305
 20
-13.21596103244358
 30
0.0
 10
8.569166395399305
 20
-13.21596103244358
 30
0.0
 10
8.569166395399305
 20
-10.04943339029948
 30
0.0
 10
8.569166395399305
 20
-10.04943339029948
 30
0.0
 10
8.569166395399305
 20
-9.957767062717013
 30
0.0
 10
8.644166734483507
 20
-9.882766723632812
 30
0.0
 10
8.735833062065971
 20
-9.882766723632812
 30
0.0
 10
8.735833062065971
 20
-9.882766723632812
 30
0.0
 10
16.55902777777778
 20
-9.882766723632812
 30
0.0
 10
16.55902777777778
 20
-9.882766723632812
 30
0.0
 10
16.55902777777778
 20
-9.882766723632812
 30
0.0
 10
17.5691663953993
 20
-11.63276672363281
 30
0.0
 10
17.5691663953993
 20
-11.63276672363281
 30
0.0
  0
INSERT
  5
BB
330
1F
100
AcDbEntity
  8
Layer 1
100
AcDbBlockReference
  2
block 3
 10
0.0
 20
0.0
 30
0.0
  0
POLYLINE
  5
127
330
1F
100
AcDbEntity
  8
Layer 1
 62
     7
420
 16777215
370
     9
100
AcDb2dPolyline
 66
     1
 10
0.0
 20
0.0
 30
0.0
  0
VERTEX
  5
128
330
127
100
AcDbEntity
  8
Layer 1
 62
     7
420
 16777215
370
     9
100
AcDbVertex
100
AcDb2dVertex
 10
17.5691663953993
 20
-11.63276672363281
 30
0.0
  0
VERTEX
  5
129
330
127
100
AcDbEntity
  8
Layer 1
 62
     7
420
 16777215
370
     9
100
AcDbVertex
100
AcDb2dVertex
 10
16.55902777777778
 20
-13.38276672363281
 30
0.0
  0
VERTEX
  5
12A
330
127
100
AcDbEntity
  8
Layer 1
 62
     7
420
 16777215
370
     9
100
AcDbVertex
100
AcDb2dVertex
 10
15.95541720920139
 20
-13.38276672363281
 30
0.0
  0
VERTEX
  5
12B
330
127
100
AcDbEntity
  8
Layer 1
 62
     7
420
 16777215
370
     9
100
AcDbVertex
100
AcDb2dVertex
 10
16.96583387586805
 20
-11.63276672363281
 30
0.0
  0
VERTEX
  5
12C
330
127
100
AcDbEntity
  8
Layer 1
 62
     7
420
 16777215
370
     9
100
AcDbVertex
100
AcDb2dVertex
 10
15.95541720920139
 20
-9.882766723632812
 30
0.0
  0
VERTEX
  5
12D
330
127
100
AcDbEntity
  8
Layer 1
 62
     7
420
 16777215
370
     9
100
AcDbVertex
100
AcDb2dVertex
 10
16.55902777777778
 20
-9.882766723632812
 30
0.0
  0
VERTEX
  5
12E
330
127
100
AcDbEntity
  8
Layer 1
 62
     7
420
 16777215
370
     9
100
AcDbVertex
100
AcDb2dVertex
 10
17.5691663953993
 20
-11.63276672363281
 30
0.0
  0
SEQEND
  5
12F
330
127
100
AcDbEntity
  8
Layer 1
 62
     7
420
 16777215
370
     9
  0
POLYLINE
  5
130
330
1F
100
AcDbEntity
  8
Layer 1
 62
     7
420
 16777215
370
     9
100
AcDb2dPolyline
 66
     1
 10
0.0
 20
0.0
 30
0.0
  0
VERTEX
  5
131
330
130
100
AcDbEntity
  8
Layer 1
 62
     7
420
 16777215
370
     9
100
AcDbVertex
100
AcDb2dVertex
 10
17.5691663953993
 20
-11.63276672363281
 30
0.0
  0
VERTEX
  5
132
330
130
100
AcDbEntity
  8
Layer 1
 62
     7
420
 16777215
370
     9
100
AcDbVertex
100
AcDb2dVertex
 10
16.55902777777778
 20
-13.38276672363281
 30
0.0
  0
VERTEX
  5
133
330
130
100
AcDbEntity
  8
Layer 1
 62
     7
420
 16777215
370
     9
100
AcDbVertex
100
AcDb2dVertex
 10
16.13722229003902
 20
-13.38276672363281
 30
0.0
  0
VERTEX
  5
134
330
130
100
AcDbEntity
  8
Layer 1
 62
     7
420
 16777215
370
     9
100
AcDbVertex
100
AcDb2dVertex
 10
17.14763895670569
 20
-11.63276672363281
 30
0.0
  0
VERTEX
  5
135
330
130
100
AcDbEntity
  8
Layer 1
 62
     7
420
 16777215
370
     9
100
AcDbVertex
100
AcDb2dVertex
 10
16.13722229003902
 20
-9.882766723632812
 30
0.0
  0
VERTEX
  5
136
330
130
100
AcDbEntity
  8
Layer 1
 62
     7
420
 16777215
370
     9
100
AcDbVertex
100
AcDb2dVertex
 10
16.55902777777778
 20
-9.882766723632812
 30
0.0
  0
VERTEX
  5
137
330
130
100
AcDbEntity
  8
Layer 1
 62
     7
420
 16777215
370
     9
100
AcDbVertex
100
AcDb2dVertex
 10
17.5691663953993
 20
-11.63276672363281
 30
0.0
  0
SEQEND
  5
138
330
130
100
AcDbEntity
  8
Layer 1
 62
     7
420
 16777215
370
     9
  0
SPLINE
  5
139
330
1F
100
AcDbEntity
  8
Layer 1
 62
     1
420
 16711680
370
     9
100
AcDbSpline
210
0.0
220
0.0
230
1.0
 70
    11
 71
     3
 72
    35
 73
    31
 74
     0
 42
0.0000000001
 43
0.0000000001
 12
1.0
 22
0.0
 32
0.0
 13
1.0
 23
0.0
 33
0.0
 40
0.0
 40
0.0
 40
0.0
 40
0.0
 40
1.0
 40
1.0
 40
1.0
 40
2.0
 40
2.0
 40
2.0
 40
3.0
 40
3.0
 40
3.0
 40
4.0
 40
4.0
 40
4.0
 40
5.0
 40
5.0
 40
5.0
 40
6.0
 40
6.0
 40
6.0
 40
7.0
 40
7.0
 40
7.0
 40
8.0
 40
8.0
 40
8.0
 40
9.0
 40
9.0
 40
9.0
 40
10.0
 40
10.0
 40
10.0
 40
10.0
 10
17.6931932237414
 20
-11.73290506998698
 30
0.0
 10
17.6931932237414
 20
-11.73290506998698
 30
0.0
 10
16.70777723524305
 20
-13.44012790256076
 30
0.0
 10
16.70777723524305
 20
-13.44012790256076
 30
0.0
 10
16.67208353678389
 20
-13.50207180447049
 30
0.0
 10
16.60583326551653
 20
-13.54026624891493
 30
0.0
 10
16.53430514865459
 20
-13.54026624891493
 30
0.0
 10
16.53430514865459
 20
-13.54026624891493
 30
0.0
 10
8.612083435058594
 20
-13.54026624891493
 30
0.0
 10
8.612083435058594
 20
-13.54026624891493
 30
0.0
 10
8.501388549804688
 20
-13.54026624891493
 30
0.0
 10
8.411666870117188
 20
-13.45054456922743
 30
0.0
 10
8.411666870117188
 20
-13.33985053168403
 30
0.0
 10
8.411666870117188
 20
-13.33985053168403
 30
0.0
 10
8.411666870117188
 20
-9.925682915581596
 30
0.0
 10
8.411666870117188
 20
-9.925682915581596
 30
0.0
 10
8.411666870117188
 20
-9.814988878038195
 30
0.0
 10
8.501388549804688
 20
-9.725267198350695
 30
0.0
 10
8.612083435058594
 20
-9.725267198350695
 30
0.0
 10
8.612083435058594
 20
-9.725267198350695
 30
0.0
 10
16.53430514865459
 20
-9.725267198350695
 30
0.0
 10
16.53430514865459
 20
-9.725267198350695
 30
0.0
 10
16.60583326551653
 20
-9.725267198350695
 30
0.0
 10
16.67208353678389
 20
-9.763461642795138
 30
0.0
 10
16.70777723524305
 20
-9.82554456922743
 30
0.0
 10
16.70777723524305
 20
-9.82554456922743
 30
0.0
 10
17.6931932237414
 20
-11.53262668185764
 30
0.0
 10
17.6931932237414
 20
-11.53262668185764
 30
0.0
 10
17.72902764214417
 20
-11.59457227918837
 30
0.0
 10
17.72902764214417
 20
-11.67096116807726
 30
0.0
 10
17.6931932237414
 20
-11.73290506998698
 30
0.0
  0
ENDSEC
  0
SECTION
  2
OBJECTS
  0
DICTIONARY
  5
C
330
0
100
AcDbDictionary
281
     1
  3
ACAD_GROUP
350
D
  3
ACAD_LAYOUT
350
1A
  3
ACAD_MATERIAL
350
3B
  3
ACAD_MLEADERSTYLE
350
13B
  3
ACAD_MLINESTYLE
350
17
  3
ACAD_PLOTSETTINGS
350
19
  3
ACAD_PLOTSTYLENAME
350
E
  3
ACAD_TABLESTYLE
350
13A
  3
ACAD_VISUALSTYLE
350
2A
  0
SUN
  5
3F
330
29
100
AcDbSun
 90
        1
290
     0
 63
     7
421
 16777215
 40
1.0
291
     1
 91
  2455826
 92
 54000000
292
     0
 70
     2
 71
   256
280
     1
  0
DICTIONARY
  5
D
102
{ACAD_REACTORS
330
C
102
}
330
C
100
AcDbDictionary
281
     1
  0
DICTIONARY
  5
1A
102
{ACAD_REACTORS
330
C
102
}
330
C
100
AcDbDictionary
281
     1
  3
Layout1
350
1E
  3
Layout2
350
26
  3
Model
350
22
  0
DICTIONARY
  5
3B
102
{ACAD_REACTORS
330
C
102
}
330
C
100
AcDbDictionary
281
     1
  3
ByBlock
350
3D
  3
ByLayer
350
3C
  3
Global
350
3E
  0
DICTIONARY
  5
13B
102
{ACAD_REACTORS
330
C
102
}
330
C
100
AcDbDictionary
281
     1
  0
DICTIONARY
  5
17
102
{ACAD_REACTORS
330
C
102
}
330
C
100
AcDbDictionary
281
     1
  3
Standard
350
18
  0
DICTIONARY
  5
19
102
{ACAD_REACTORS
330
C
102
}
330
C
100
AcDbDictionary
281
     1
  0
ACDBDICTIONARYWDFLT
  5
E
102
{ACAD_REACTORS
330
C
102
}
330
C
100
AcDbDictionary
281
     1
  3
Normal
350
F
100
AcDbDictionaryWithDefault
340
F
  0
DICTIONARY
  5
13A
102
{ACAD_REACTORS
330
C
102
}
330
C
100
AcDbDictionary
281
     1
  0
DICTIONARY
  5
2A
102
{ACAD_REACTORS
330
C
102
}
330
C
100
AcDbDictionary
281
     1
  3
2dWireframe
350
2F
  3
3D Hidden
350
31
  3
3dWireframe
350
30
  3
Basic
350
32
  3
Brighten
350
36
  3
ColorChange
350
3A
  3
Conceptual
350
34
  3
Dim
350
35
  3
Facepattern
350
39
  3
Flat
350
2B
  3
FlatWithEdges
350
2C
  3
Gouraud
350
2D
  3
GouraudWithEdges
350
2E
  3
Linepattern
350
38
  3
Realistic
350
33
  3
Thicken
350
37
  0
LAYOUT
  5
1E
102
{ACAD_REACTORS
330
1A
102
}
330
1A
100
AcDbPlotSettings
  1

  2
none_device
  4

  6

 40
0.0
 41
0.0
 42
0.0
 43
0.0
 44
0.0
 45
0.0
 46
0.0
 47
0.0
 48
0.0
 49
0.0
140
0.0
141
0.0
142
1.0
143
1.0
 70
   688
 72
     0
 73
     0
 74
     5
  7

 75
    16
 76
     0
 77
     2
 78
   300
147
1.0
148
0.0
149
0.0
100
AcDbLayout
  1
Layout1
 70
     1
 71
     1
 10
0.0
 20
0.0
 11
12.0
 21
9.0
 12
0.0
 22
0.0
 32
0.0
 14
1.000000000000000E+20
 24
1.000000000000000E+20
 34
1.000000000000000E+20
 15
-1.000000000000000E+20
 25
-1.000000000000000E+20
 35
-1.000000000000000E+20
146
0.0
 13
0.0
 23
0.0
 33
0.0
 16
1.0
 26
0.0
 36
0.0
 17
0.0
 27
1.0
 37
0.0
 76
     0
330
1B
  0
LAYOUT
  5
26
102
{ACAD_REACTORS
330
1A
102
}
330
1A
100
AcDbPlotSettings
  1

  2
none_device
  4

  6

 40
0.0
 41
0.0
 42
0.0
 43
0.0
 44
0.0
 45
0.0
 46
0.0
 47
0.0
 48
0.0
 49
0.0
140
0.0
141
0.0
142
1.0
143
1.0
 70
   688
 72
     0
 73
     0
 74
     5
  7

 75
    16
 76
     0
 77
     2
 78
   300
147
1.0
148
0.0
149
0.0
100
AcDbLayout
  1
Layout2
 70
     1
 71
     2
 10
0.0
 20
0.0
 11
0.0
 21
0.0
 12
0.0
 22
0.0
 32
0.0
 14
0.0
 24
0.0
 34
0.0
 15
0.0
 25
0.0
 35
0.0
146
0.0
 13
0.0
 23
0.0
 33
0.0
 16
1.0
 26
0.0
 36
0.0
 17
0.0
 27
1.0
 37
0.0
 76
     0
330
23
  0
LAYOUT
  5
22
102
{ACAD_REACTORS
330
1A
102
}
330
1A
100
AcDbPlotSettings
  1

  2
none_device
  4

  6

 40
0.0
 41
0.0
 42
0.0
 43
0.0
 44
0.0
 45
0.0
 46
0.0
 47
0.0
 48
0.0
 49
0.0
140
0.0
141
0.0
142
1.0
143
1.0
 70
  1712
 72
     0
 73
     0
 74
     0
  7

 75
     0
 76
     0
 77
     2
 78
   300
147
1.0
148
0.0
149
0.0
100
AcDbLayout
  1
Model
 70
     1
 71
     0
 10
0.0
 20
0.0
 11
12.0
 21
9.0
 12
0.0
 22
0.0
 32
0.0
 14
1.000000000000000E+20
 24
1.000000000000000E+20
 34
1.000000000000000E+20
 15
-1.000000000000000E+20
 25
-1.000000000000000E+20
 35
-1.000000000000000E+20
146
0.0
 13
0.0
 23
0.0
 33
0.0
 16
1.0
 26
0.0
 36
0.0
 17
0.0
 27
1.0
 37
0.0
 76
     0
330
1F
331
29
  0
MATERIAL
  5
3D
102
{ACAD_REACTORS
330
3B
102
}
330
3B
100
AcDbMaterial
  1
ByBlock
 72
     1
 94
      127
  0
MATERIAL
  5
3C
102
{ACAD_REACTORS
330
3B
102
}
330
3B
100
AcDbMaterial
  1
ByLayer
 72
     1
 94
      127
  0
MATERIAL
  5
3E
102
{ACAD_REACTORS
330
3B
102
}
330
3B
100
AcDbMaterial
  1
Global
 72
     1
 94
      127
  0
MLINESTYLE
  5
18
102
{ACAD_REACTORS
330
17
102
}
330
17
100
AcDbMlineStyle
  2
Standard
 70
     0
  3

 62
   256
 51
90.0
 52
90.0
 71
     2
 49
0.5
 62
   256
  6
BYLAYER
 49
-0.5
 62
   256
  6
BYLAYER
  0
ACDBPLACEHOLDER
  5
F
102
{ACAD_REACTORS
330
E
102
}
330
E
  0
VISUALSTYLE
  5
2F
102
{ACAD_REACTORS
330
2A
102
}
330
2A
100
AcDbVisualStyle
  2
2dWireframe
 70
     4
177
     2
291
     0
 71
     0
176
     1
 72
     2
176
     1
 73
     0
176
     1
 90
        0
176
     1
 40
-0.6
176
     1
 41
-30.0
176
     1
 62
     5
 63
     7
421
 16777215
176
     1
 74
     1
176
     1
 91
        4
176
     1
 64
     7
176
     1
 65
   257
176
     1
 75
     1
176
     1
175
     1
176
     1
 42
1.0
176
     1
 92
        0
176
     1
 66
   257
176
     1
 43
1.0
176
     1
 76
     1
176
     1
 77
     6
176
     1
 78
     2
176
     1
 67
     7
176
     1
 79
     5
176
     1
170
     0
176
     1
171
     0
176
     1
290
     0
176
     1
 93
        1
176
     1
 44
0.0
176
     1
173
     0
176
     1
  0
VISUALSTYLE
  5
31
102
{ACAD_REACTORS
330
2A
102
}
330
2A
100
AcDbVisualStyle
  2
3D Hidden
 70
     6
177
     2
291
     0
 71
     1
176
     1
 72
     2
176
     1
 73
     2
176
     1
 90
        0
176
     1
 40
-0.6
176
     1
 41
-30.0
176
     1
 62
     5
 63
     7
421
 16777215
176
     1
 74
     2
176
     1
 91
        2
176
     1
 64
     7
176
     1
 65
   257
176
     1
 75
     2
176
     1
175
     1
176
     1
 42
40.0
176
     1
 92
        0
176
     1
 66
   257
176
     1
 43
1.0
176
     1
 76
     1
176
     1
 77
     6
176
     1
 78
     2
176
     1
 67
     7
176
     1
 79
     3
176
     1
170
     0
176
     1
171
     0
176
     1
290
     0
176
     1
 93
        1
176
     1
 44
0.0
176
     1
173
     0
176
     1
  0
VISUALSTYLE
  5
30
102
{ACAD_REACTORS
330
2A
102
}
330
2A
100
AcDbVisualStyle
  2
3dWireframe
 70
     5
177
     2
291
     0
 71
     0
176
     1
 72
     2
176
     1
 73
     0
176
     1
 90
        0
176
     1
 40
-0.6
176
     1
 41
-30.0
176
     1
 62
     5
 63
     7
421
 16777215
176
     1
 74
     1
176
     1
 91
        4
176
     1
 64
     7
176
     1
 65
   257
176
     1
 75
     1
176
     1
175
     1
176
     1
 42
1.0
176
     1
 92
        0
176
     1
 66
   257
176
     1
 43
1.0
176
     1
 76
     1
176
     1
 77
     6
176
     1
 78
     2
176
     1
 67
     7
176
     1
 79
     5
176
     1
170
     0
176
     1
171
     0
176
     1
290
     0
176
     1
 93
        1
176
     1
 44
0.0
176
     1
173
     0
176
     1
  0
VISUALSTYLE
  5
32
102
{ACAD_REACTORS
330
2A
102
}
330
2A
100
AcDbVisualStyle
  2
Basic
 70
     7
177
     2
291
     1
 71
     1
176
     1
 72
     0
176
     1
 73
     1
176
     1
 90
        0
176
     1
 40
-0.6
176
     1
 41
-30.0
176
     1
 62
     5
 63
     7
421
 16777215
176
     1
 74
     0
176
     1
 91
        4
176
     1
 64
     7
176
     1
 65
   257
176
     1
 75
     1
176
     1
175
     1
176
     1
 42
1.0
176
     1
 92
        8
176
     1
 66
     7
176
     1
 43
1.0
176
     1
 76
     1
176
     1
 77
     6
176
     1
 78
     2
176
     1
 67
     7
176
     1
 79
     5
176
     1
170
     0
176
     1
171
     0
176
     1
290
     0
176
     1
 93
        1
176
     1
 44
0.0
176
     1
173
     0
176
     1
  0
VISUALSTYLE
  5
36
102
{ACAD_REACTORS
330
2A
102
}
330
2A
100
AcDbVisualStyle
  2
Brighten
 70
    12
177
     2
291
     1
 71
     2
176
     1
 72
     2
176
     1
 73
     0
176
     1
 90
        0
176
     1
 40
-0.6
176
     1
 41
-30.0
176
     1
 62
     5
 63
     7
421
 16777215
176
     1
 74
     1
176
     1
 91
        4
176
     1
 64
     7
176
     1
 65
   257
176
     1
 75
     1
176
     1
175
     1
176
     1
 42
1.0
176
     1
 92
        8
176
     1
 66
     7
176
     1
 43
1.0
176
     1
 76
     1
176
     1
 77
     6
176
     1
 78
     2
176
     1
 67
     7
176
     1
 79
     5
176
     1
170
     0
176
     1
171
     0
176
     1
290
     0
176
     1
 93
        1
176
     1
 44
50.0
176
     1
173
     0
176
     1
  0
VISUALSTYLE
  5
3A
102
{ACAD_REACTORS
330
2A
102
}
330
2A
100
AcDbVisualStyle
  2
ColorChange
 70
    16
177
     2
291
     1
 71
     2
176
     1
 72
     2
176
     1
 73
     3
176
     1
 90
        0
176
     1
 40
-0.6
176
     1
 41
-30.0
176
     1
 62
     5
 63
     8
421
  8421504
176
     1
 74
     1
176
     1
 91
        4
176
     1
 64
     7
176
     1
 65
   257
176
     1
 75
     1
176
     1
175
     1
176
     1
 42
1.0
176
     1
 92
        8
176
     1
 66
     8
424
  8421504
176
     1
 43
1.0
176
     1
 76
     1
176
     1
 77
     6
176
     1
 78
     2
176
     1
 67
     7
176
     1
 79
     5
176
     1
170
     0
176
     1
171
     0
176
     1
290
     0
176
     1
 93
        1
176
     1
 44
0.0
176
     1
173
     0
176
     1
  0
VISUALSTYLE
  5
34
102
{ACAD_REACTORS
330
2A
102
}
330
2A
100
AcDbVisualStyle
  2
Conceptual
 70
     9
177
     2
291
     0
 71
     3
176
     1
 72
     2
176
     1
 73
     0
176
     1
 90
        0
176
     1
 40
-0.6
176
     1
 41
-30.0
176
     1
 62
     5
 63
     7
421
 16777215
176
     1
 74
     2
176
     1
 91
        2
176
     1
 64
     7
176
     1
 65
   257
176
     1
 75
     1
176
     1
175
     1
176
     1
 42
40.0
176
     1
 92
        8
176
     1
 66
     7
176
     1
 43
1.0
176
     1
 76
     1
176
     1
 77
     6
176
     1
 78
     2
176
     1
 67
     7
176
     1
 79
     3
176
     1
170
     0
176
     1
171
     0
176
     1
290
     0
176
     1
 93
        1
176
     1
 44
0.0
176
     1
173
     0
176
     1
  0
VISUALSTYLE
  5
35
102
{ACAD_REACTORS
330
2A
102
}
330
2A
100
AcDbVisualStyle
  2
Dim
 70
    11
177
     2
291
     1
 71
     2
176
     1
 72
     2
176
     1
 73
     0
176
     1
 90
        0
176
     1
 40
-0.6
176
     1
 41
-30.0
176
     1
 62
     5
 63
     7
421
 16777215
176
     1
 74
     1
176
     1
 91
        4
176
     1
 64
     7
176
     1
 65
   257
176
     1
 75
     1
176
     1
175
     1
176
     1
 42
1.0
176
     1
 92
        8
176
     1
 66
     7
176
     1
 43
1.0
176
     1
 76
     1
176
     1
 77
     6
176
     1
 78
     2
176
     1
 67
     7
176
     1
 79
     5
176
     1
170
     0
176
     1
171
     0
176
     1
290
     0
176
     1
 93
        1
176
     1
 44
-50.0
176
     1
173
     0
176
     1
  0
VISUALSTYLE
  5
39
102
{ACAD_REACTORS
330
2A
102
}
330
2A
100
AcDbVisualStyle
  2
Facepattern
 70
    15
177
     2
291
     1
 71
     2
176
     1
 72
     2
176
     1
 73
     0
176
     1
 90
        0
176
     1
 40
-0.6
176
     1
 41
-30.0
176
     1
 62
     5
 63
     7
421
 16777215
176
     1
 74
     1
176
     1
 91
        4
176
     1
 64
     7
176
     1
 65
   257
176
     1
 75
     1
176
     1
175
     1
176
     1
 42
1.0
176
     1
 92
        8
176
     1
 66
     7
176
     1
 43
1.0
176
     1
 76
     1
176
     1
 77
     6
176
     1
 78
     2
176
     1
 67
     7
176
     1
 79
     5
176
     1
170
     0
176
     1
171
     0
176
     1
290
     0
176
     1
 93
        1
176
     1
 44
0.0
176
     1
173
     0
176
     1
  0
VISUALSTYLE
  5
2B
102
{ACAD_REACTORS
330
2A
102
}
330
2A
100
AcDbVisualStyle
  2
Flat
 70
     0
177
     2
291
     1
 71
     2
176
     1
 72
     1
176
     1
 73
     1
176
     1
 90
        2
176
     1
 40
-0.6
176
     1
 41
30.0
176
     1
 62
     5
 63
     7
421
 16777215
176
     1
 74
     0
176
     1
 91
        4
176
     1
 64
     7
176
     1
 65
   257
176
     1
 75
     1
176
     1
175
     1
176
     1
 42
1.0
176
     1
 92
        8
176
     1
 66
     7
176
     1
 43
1.0
176
     1
 76
     1
176
     1
 77
     6
176
     1
 78
     2
176
     1
 67
     7
176
     1
 79
     5
176
     1
170
     0
176
     1
171
     0
176
     1
290
     0
176
     1
 93
       13
176
     1
 44
0.0
176
     1
173
     0
176
     1
  0
VISUALSTYLE
  5
2C
102
{ACAD_REACTORS
330
2A
102
}
330
2A
100
AcDbVisualStyle
  2
FlatWithEdges
 70
     1
177
     2
291
     1
 71
     2
176
     1
 72
     1
176
     1
 73
     1
176
     1
 90
        2
176
     1
 40
-0.6
176
     1
 41
30.0
176
     1
 62
     5
 63
     7
421
 16777215
176
     1
 74
     1
176
     1
 91
        4
176
     1
 64
     7
176
     1
 65
   257
176
     1
 75
     1
176
     1
175
     1
176
     1
 42
1.0
176
     1
 92
        0
176
     1
 66
   257
176
     1
 43
1.0
176
     1
 76
     1
176
     1
 77
     6
176
     1
 78
     2
176
     1
 67
     7
176
     1
 79
     5
176
     1
170
     0
176
     1
171
     0
176
     1
290
     0
176
     1
 93
       13
176
     1
 44
0.0
176
     1
173
     0
176
     1
  0
VISUALSTYLE
  5
2D
102
{ACAD_REACTORS
330
2A
102
}
330
2A
100
AcDbVisualStyle
  2
Gouraud
 70
     2
177
     2
291
     1
 71
     2
176
     1
 72
     2
176
     1
 73
     1
176
     1
 90
        2
176
     1
 40
-0.6
176
     1
 41
30.0
176
     1
 62
     5
 63
     7
421
 16777215
176
     1
 74
     0
176
     1
 91
        4
176
     1
 64
     7
176
     1
 65
   257
176
     1
 75
     1
176
     1
175
     1
176
     1
 42
1.0
176
     1
 92
        0
176
     1
 66
     7
176
     1
 43
1.0
176
     1
 76
     1
176
     1
 77
     6
176
     1
 78
     2
176
     1
 67
     7
176
     1
 79
     5
176
     1
170
     0
176
     1
171
     0
176
     1
290
     0
176
     1
 93
       13
176
     1
 44
0.0
176
     1
173
     0
176
     1
  0
VISUALSTYLE
  5
2E
102
{ACAD_REACTORS
330
2A
102
}
330
2A
100
AcDbVisualStyle
  2
GouraudWithEdges
 70
     3
177
     2
291
     1
 71
     2
176
     1
 72
     2
176
     1
 73
     1
176
     1
 90
        2
176
     1
 40
-0.6
176
     1
 41
30.0
176
     1
 62
     5
 63
     7
421
 16777215
176
     1
 74
     1
176
     1
 91
        4
176
     1
 64
     7
176
     1
 65
   257
176
     1
 75
     1
176
     1
175
     1
176
     1
 42
1.0
176
     1
 92
        0
176
     1
 66
   257
176
     1
 43
1.0
176
     1
 76
     1
176
     1
 77
     6
176
     1
 78
     2
176
     1
 67
     7
176
     1
 79
     5
176
     1
170
     0
176
     1
171
     0
176
     1
290
     0
176
     1
 93
       13
176
     1
 44
0.0
176
     1
173
     0
176
     1
  0
VISUALSTYLE
  5
38
102
{ACAD_REACTORS
330
2A
102
}
330
2A
100
AcDbVisualStyle
  2
Linepattern
 70
    14
177
     2
291
     1
 71
     2
176
     1
 72
     2
176
     1
 73
     0
176
     1
 90
        0
176
     1
 40
-0.6
176
     1
 41
-30.0
176
     1
 62
     5
 63
     7
421
 16777215
176
     1
 74
     1
176
     1
 91
        4
176
     1
 64
     7
176
     1
 65
   257
176
     1
 75
     7
176
     1
175
     7
176
     1
 42
1.0
176
     1
 92
        8
176
     1
 66
     7
176
     1
 43
1.0
176
     1
 76
     1
176
     1
 77
     6
176
     1
 78
     2
176
     1
 67
     7
176
     1
 79
     5
176
     1
170
     0
176
     1
171
     0
176
     1
290
     0
176
     1
 93
        1
176
     1
 44
0.0
176
     1
173
     0
176
     1
  0
VISUALSTYLE
  5
33
102
{ACAD_REACTORS
330
2A
102
}
330
2A
100
AcDbVisualStyle
  2
Realistic
 70
     8
177
     2
291
     0
 71
     2
176
     1
 72
     2
176
     1
 73
     0
176
     1
 90
        0
176
     1
 40
-0.6
176
     1
 41
-30.0
176
     1
 62
     5
 63
     7
421
 16777215
176
     1
 74
     1
176
     1
 91
        0
176
     1
 64
     7
176
     1
 65
   257
176
     1
 75
     1
176
     1
175
     1
176
     1
 42
1.0
176
     1
 92
        8
176
     1
 66
     8
424
  7895160
176
     1
 43
1.0
176
     1
 76
     1
176
     1
 77
     6
176
     1
 78
     2
176
     1
 67
     7
176
     1
 79
     5
176
     1
170
     0
176
     1
171
     0
176
     1
290
     0
176
     1
 93
       13
176
     1
 44
0.0
176
     1
173
     0
176
     1
  0
VISUALSTYLE
  5
37
102
{ACAD_REACTORS
330
2A
102
}
330
2A
100
AcDbVisualStyle
  2
Thicken
 70
    13
177
     2
291
     1
 71
     2
176
     1
 72
     2
176
     1
 73
     0
176
     1
 90
        0
176
     1
 40
-0.6
176
     1
 41
-30.0
176
     1
 62
     5
 63
     7
421
 16777215
176
     1
 74
     1
176
     1
 91
        4
176
     1
 64
     7
176
     1
 65
   257
176
     1
 75
     1
176
     1
175
     1
176
     1
 42
1.0
176
     1
 92
       12
176
     1
 66
     7
176
     1
 43
1.0
176
     1
 76
     1
176
     1
 77
     6
176
     1
 78
     2
176
     1
 67
     7
176
     1
 79
     5
176
     1
170
     0
176
     1
171
     0
176
     1
290
     0
176
     1
 93
        1
176
     1
 44
0.0
176
     1
173
     0
176
     1
  0
ENDSEC
  0
EOF
